<svg id="Layer_1" data-name="Layer 1" xmlns="http://www.w3.org/2000/svg" xmlns:xlink="http://www.w3.org/1999/xlink" viewBox="0 0 153 152"><defs><style>.cls-1{fill:none;}.cls-2{fill:#8ac441;stroke:#8ac441;stroke-miterlimit:10;}.cls-3{clip-path:url(#clip-path);}.cls-4{fill:#fff;}</style><clipPath id="clip-path"><rect class="cls-1" x="1.08" y="-0.04" width="152.84" height="152.84"/></clipPath></defs><title>Untitled-1</title><rect class="cls-2" x="1.08" y="-0.04" width="152.84" height="152.84"/><g class="cls-3"><path class="cls-4" d="M105.4,96.81,99.5,82.38a16.44,16.44,0,0,0-7.15-8.09l-5-2.16a17.77,17.77,0,0,0,6.11-10.92,16.68,16.68,0,0,0-5-15A17.56,17.56,0,1,0,64.65,72l-5.24,2.3a16.44,16.44,0,0,0-7.15,8.09l-5.9,14.43A4.67,4.67,0,0,0,46,98.58a4.91,4.91,0,0,0,4.8,4.87H101a4.79,4.79,0,0,0,4.43-6.64ZM68.27,56.61A8.1,8.1,0,1,1,72,65.73,8.12,8.12,0,0,1,68.27,56.61ZM57.86,93.92,61.08,86a6.84,6.84,0,0,1,2.76-3.31l11.79-5.14L87.86,82.7A7,7,0,0,1,90.68,86l3.21,7.92Z"/></g></svg>