<svg xmlns="http://www.w3.org/2000/svg" xmlns:xlink="http://www.w3.org/1999/xlink" viewBox="0 0 78.77 95.28"><defs><style>.cls-1{fill:#a07cf7;}.cls-2{fill:#3c0673;}.cls-3{fill:#6514c1;}.cls-4{fill:url(#linear-gradient);}.cls-5{fill:#fff;}</style><linearGradient id="linear-gradient" x1="39.33" y1="69.94" x2="39.33" y2="-8.71" gradientUnits="userSpaceOnUse"><stop offset="0" stop-color="#540fa1"/><stop offset="1" stop-color="#6e17d2"/></linearGradient></defs><title>productos-achv</title><g id="Capa_2" data-name="Capa 2"><g id="Layer_1" data-name="Layer 1"><path class="cls-1" d="M74.77,38.32q-.08-8.87-.49-17.71h0A5.11,5.11,0,0,0,67.62,16L39.23,24.9,11.05,16.06a5.12,5.12,0,0,0-6.67,4.6l-.09,2.1Q3.81,34.06,3.9,45.34q-.09,11.4.4,22.79l.09,2.13A11.6,11.6,0,0,0,10.55,80L39.23,95.28l.1,0v0h0L68.19,80a11.6,11.6,0,0,0,6.18-9.67h0Q75.15,54.31,74.77,38.32Z"/><path class="cls-2" d="M70.71,8.24l-31.5,10L8,8.26A5.68,5.68,0,0,0,.56,13.44l-.1,2.37Q-.45,37.35.46,58.9l.1,2.39A13.09,13.09,0,0,0,7.4,72.23L39.21,89.46l32-17.25a13.09,13.09,0,0,0,6.86-10.89h0q1.14-24,0-47.93h0A5.68,5.68,0,0,0,70.71,8.24Z"/><path class="cls-3" d="M78.21,13.39h0a5.68,5.68,0,0,0-7.39-5.15l-31.49,10h0V89.46h0l32-17.25A13.11,13.11,0,0,0,78.2,61.32h0Q79.34,37.37,78.21,13.39Z"/><path class="cls-4" d="M70.71.27l-31.5,10L8,.29A5.68,5.68,0,0,0,.56,5.46L.46,7.84q-.91,21.53,0,43.09l.1,2.39A13.09,13.09,0,0,0,7.4,64.26L39.21,81.49l32-17.25a13.09,13.09,0,0,0,6.86-10.89h0q1.14-24,0-47.93h0A5.68,5.68,0,0,0,70.71.27Z"/><path class="cls-5" d="M29,25.93l-1.14-.62a.54.54,0,0,1-.22-.23L27,24a.57.57,0,0,0-1,0l-.62,1.13a.49.49,0,0,1-.22.23L24,25.93a.56.56,0,0,0,0,1l1.13.62a.54.54,0,0,1,.22.23L26,28.89a.57.57,0,0,0,1,0l.62-1.13a.61.61,0,0,1,.22-.23L29,26.91A.56.56,0,0,0,29,25.93Z"/><path class="cls-5" d="M57.64,45.8l-1-.54a.5.5,0,0,1-.19-.19l-.53-1a.48.48,0,0,0-.85,0l-.53,1a.44.44,0,0,1-.19.19l-1,.54a.47.47,0,0,0,0,.84l1,.54a.44.44,0,0,1,.19.19l.53,1a.48.48,0,0,0,.85,0l.53-1a.5.5,0,0,1,.19-.19l1-.54A.48.48,0,0,0,57.64,45.8Z"/><path class="cls-5" d="M54.6,51.67l-.67-.37a.33.33,0,0,1-.13-.13l-.37-.67a.34.34,0,0,0-.58,0l-.36.67a.33.33,0,0,1-.13.13l-.67.37a.33.33,0,0,0,0,.58l.67.36a.4.4,0,0,1,.13.13l.36.67a.33.33,0,0,0,.58,0l.37-.67a.4.4,0,0,1,.13-.13l.67-.36A.33.33,0,0,0,54.6,51.67Z"/><path class="cls-5" d="M35.4,55.54h0a6.1,6.1,0,0,1-4.29-1.77L19.63,42.28a6.06,6.06,0,0,1,8.56-8.57l7.21,7.21L52,24.34a6.05,6.05,0,1,1,8.56,8.56L39.68,53.77A6.09,6.09,0,0,1,35.4,55.54Z"/></g></g></svg>