<svg xmlns="http://www.w3.org/2000/svg" xmlns:xlink="http://www.w3.org/1999/xlink" viewBox="0 0 78.77 95.28"><defs><style>.cls-1{fill:#a07cf7;}.cls-2{fill:#3c0673;}.cls-3{fill:#6514c1;}.cls-4{fill:url(#linear-gradient);}.cls-5{fill:#fff;}</style><linearGradient id="linear-gradient" x1="39.33" y1="69.94" x2="39.33" y2="-8.71" gradientUnits="userSpaceOnUse"><stop offset="0" stop-color="#540fa1"/><stop offset="1" stop-color="#6e17d2"/></linearGradient></defs><title>redes-achv</title><g id="Capa_2" data-name="Capa 2"><g id="Layer_1" data-name="Layer 1"><path class="cls-1" d="M74.77,38.32q-.08-8.87-.49-17.71h0A5.11,5.11,0,0,0,67.62,16L39.23,24.9,11.05,16.06a5.12,5.12,0,0,0-6.67,4.6l-.09,2.1Q3.81,34.06,3.9,45.34q-.09,11.4.4,22.79l.09,2.13A11.6,11.6,0,0,0,10.55,80L39.23,95.28l.1,0v0h0L68.19,80a11.6,11.6,0,0,0,6.18-9.67h0Q75.15,54.31,74.77,38.32Z"/><path class="cls-2" d="M70.71,8.24l-31.5,10L8,8.26A5.68,5.68,0,0,0,.56,13.44l-.1,2.37Q-.45,37.35.46,58.9l.1,2.39A13.09,13.09,0,0,0,7.4,72.23L39.21,89.46l32-17.25a13.09,13.09,0,0,0,6.86-10.89h0q1.14-24,0-47.93h0A5.68,5.68,0,0,0,70.71,8.24Z"/><path class="cls-3" d="M78.21,13.39h0a5.68,5.68,0,0,0-7.39-5.15l-31.49,10h0V89.46h0l32-17.25A13.11,13.11,0,0,0,78.2,61.32h0Q79.34,37.37,78.21,13.39Z"/><path class="cls-4" d="M70.71.27l-31.5,10L8,.29A5.68,5.68,0,0,0,.56,5.46L.46,7.84q-.91,21.53,0,43.09l.1,2.39A13.09,13.09,0,0,0,7.4,64.26L39.21,81.49l32-17.25a13.09,13.09,0,0,0,6.86-10.89h0q1.14-24,0-47.93h0A5.68,5.68,0,0,0,70.71.27Z"/><path class="cls-5" d="M42.67,50.25h0a10.79,10.79,0,0,1-3.86-.72L35,53.27A4.22,4.22,0,0,1,32,54.53a4.45,4.45,0,0,1-2.27-.62,4.87,4.87,0,0,1-.83-.67l-2-2a4.19,4.19,0,0,1-.67-.84,4.4,4.4,0,0,1-.63-2.26,4.36,4.36,0,0,1,.32-1.64,4.16,4.16,0,0,1,.95-1.43L32.9,39a4,4,0,0,1,.85-.68A4.31,4.31,0,0,1,36,37.68a4.37,4.37,0,0,1,2.27.63,4.41,4.41,0,0,1,.86.69l1.94,2a2.41,2.41,0,0,0,3.19.22,2.32,2.32,0,0,0,.17-3.44l-2-2a9.52,9.52,0,0,0-1.81-1.42,9.08,9.08,0,0,0-9.21,0,9.19,9.19,0,0,0-1.81,1.43l-5.93,5.93A9.57,9.57,0,0,0,22,43.82a9.06,9.06,0,0,0,.17,8.92,9.16,9.16,0,0,0,1.42,1.8l2,2a8.53,8.53,0,0,0,1.81,1.42,9.06,9.06,0,0,0,9.22,0,9.16,9.16,0,0,0,1.8-1.42l4.88-4.87A.81.81,0,0,0,42.67,50.25Z"/><path class="cls-5" d="M56.65,37.72A9,9,0,0,0,55.06,27l-2-2a9,9,0,0,0-11-1.42A8.91,8.91,0,0,0,40.27,25L35.4,29.91A.8.8,0,0,0,36,31.28h0a10.68,10.68,0,0,1,3.87.73l3.74-3.74a4.31,4.31,0,0,1,1.43-.95A4.36,4.36,0,0,1,46.69,27a4.4,4.4,0,0,1,2.26.63,4.19,4.19,0,0,1,.84.67l2,2a4.87,4.87,0,0,1,.67.83,4.45,4.45,0,0,1,.62,2.27,4.33,4.33,0,0,1-1.26,3.06l-6.07,6.07a4.67,4.67,0,0,1-.85.69,4.46,4.46,0,0,1-2.27.63,4.38,4.38,0,0,1-2.27-.64,4.67,4.67,0,0,1-.85-.69l-2-1.94a2.38,2.38,0,0,0-3.19-.22,2.33,2.33,0,0,0-.17,3.44l2,2A8.85,8.85,0,0,0,38,47.25a9,9,0,0,0,11-1.42L55,39.89A9,9,0,0,0,56.65,37.72Z"/></g></g></svg>