<svg xmlns="http://www.w3.org/2000/svg" xmlns:xlink="http://www.w3.org/1999/xlink" viewBox="0 0 78.77 95.28"><defs><style>.cls-1{fill:#a07cf7;}.cls-2{fill:#3c0673;}.cls-3{fill:#6514c1;}.cls-4{fill:url(#linear-gradient);}.cls-5{fill:#fff;}</style><linearGradient id="linear-gradient" x1="39.33" y1="69.94" x2="39.33" y2="-8.71" gradientUnits="userSpaceOnUse"><stop offset="0" stop-color="#540fa1"/><stop offset="1" stop-color="#6e17d2"/></linearGradient></defs><title>odigoqr-achv</title><g id="Capa_2" data-name="Capa 2"><g id="Layer_1" data-name="Layer 1"><path class="cls-1" d="M74.77,38.32q-.08-8.87-.49-17.71h0A5.11,5.11,0,0,0,67.62,16L39.23,24.9,11.05,16.06a5.12,5.12,0,0,0-6.67,4.6l-.09,2.1Q3.81,34.06,3.9,45.34q-.09,11.4.4,22.79l.09,2.13A11.6,11.6,0,0,0,10.55,80L39.23,95.28l.1,0v0h0L68.19,80a11.6,11.6,0,0,0,6.18-9.67h0Q75.15,54.31,74.77,38.32Z"/><path class="cls-2" d="M70.71,8.24l-31.5,10L8,8.26A5.68,5.68,0,0,0,.56,13.44l-.1,2.37Q-.45,37.35.46,58.9l.1,2.39A13.09,13.09,0,0,0,7.4,72.23L39.21,89.46l32-17.25a13.09,13.09,0,0,0,6.86-10.89h0q1.14-24,0-47.93h0A5.68,5.68,0,0,0,70.71,8.24Z"/><path class="cls-3" d="M78.21,13.39h0a5.68,5.68,0,0,0-7.39-5.15l-31.49,10h0V89.46h0l32-17.25A13.11,13.11,0,0,0,78.2,61.32h0Q79.34,37.37,78.21,13.39Z"/><path class="cls-4" d="M70.71.27l-31.5,10L8,.29A5.68,5.68,0,0,0,.56,5.46L.46,7.84q-.91,21.53,0,43.09l.1,2.39A13.09,13.09,0,0,0,7.4,64.26L39.21,81.49l32-17.25a13.09,13.09,0,0,0,6.86-10.89h0q1.14-24,0-47.93h0A5.68,5.68,0,0,0,70.71.27Z"/><rect class="cls-5" x="23.91" y="24.27" width="5.06" height="5.06"/><rect class="cls-5" x="49.69" y="50.05" width="5.06" height="5.06"/><path class="cls-5" d="M34,24.27V34.4H23.91V55.12H44.16V45H54.75V24.27ZM44.16,39.46H39.1V45H34V39.46H39.1V34.4h5.06Z"/></g></g></svg>