<svg xmlns="http://www.w3.org/2000/svg" xmlns:xlink="http://www.w3.org/1999/xlink" viewBox="0 0 95.92 83.76"><defs><style>.cls-1{fill:#ffa515;}.cls-2{fill:#353535;}.cls-3{fill:#494949;}.cls-4{fill:#545454;}.cls-5{fill:#6b6b6b;}.cls-6{fill:#7a7a7a;}.cls-7{fill:url(#linear-gradient);}.cls-8{fill:url(#linear-gradient-2);}.cls-9{fill:url(#linear-gradient-3);}.cls-10{fill:#fff;}</style><linearGradient id="linear-gradient" x1="59.25" y1="42.9" x2="68.19" y2="42.9" gradientUnits="userSpaceOnUse"><stop offset="0" stop-color="#39b54a"/><stop offset="1" stop-color="#8cc63f"/></linearGradient><linearGradient id="linear-gradient-2" x1="68.37" y1="42.9" x2="77.31" y2="42.9" xlink:href="#linear-gradient"/><linearGradient id="linear-gradient-3" x1="77.4" y1="42.9" x2="86.34" y2="42.9" xlink:href="#linear-gradient"/></defs><title>soloquik-achv</title><g id="Capa_2" data-name="Capa 2"><g id="Layer_1" data-name="Layer 1"><path class="cls-1" d="M91.17,14.57a9.54,9.54,0,0,0-6.78-2.81H11.53a9.59,9.59,0,0,0-9.59,9.59v52.7A9.28,9.28,0,0,0,2,75.11c0,.11,0,.21,0,.32a5.86,5.86,0,0,0,.13.73c0,.11,0,.22.08.33s.13.46.21.69.07.2.11.29c.09.25.2.48.31.72l.06.13s0,.05,0,.08c.15.28.31.56.48.83l0,0a10.08,10.08,0,0,0,1.26,1.57,9.49,9.49,0,0,0,.9.78h0a8.8,8.8,0,0,0,1.93,1.17l.06,0c.17.08.35.15.52.21l.2.08.11,0,.45.14.43.11.4.09.54.08.33,0a8.72,8.72,0,0,0,.9,0H60v.12h4.55v-.12H84.39a8.72,8.72,0,0,0,.9,0l.33,0,.54-.08.4-.09.43-.11.45-.14.11,0,.2-.08c.17-.06.35-.13.52-.21l.06,0a9.1,9.1,0,0,0,1.94-1.17h0a9.49,9.49,0,0,0,.9-.78,10.49,10.49,0,0,0,1.26-1.56s0,0,0,0c.17-.27.33-.55.48-.83,0,0,0-.05,0-.08l.06-.13c.11-.24.22-.47.31-.72,0-.09.07-.19.11-.29s.14-.46.21-.69.06-.22.08-.33a5.86,5.86,0,0,0,.13-.73c0-.11,0-.21,0-.32A9.28,9.28,0,0,0,94,74.05V21.35A9.54,9.54,0,0,0,91.17,14.57Z"/><path class="cls-2" d="M85.92,19.47H10a10,10,0,0,0-10,10V64.91a10,10,0,0,0,10,10H85.92a10,10,0,0,0,10-10V29.47a10,10,0,0,0-10-10Z"/><path class="cls-2" d="M0,29.47V64.91a10,10,0,0,0,1.05,4.46,10.17,10.17,0,0,0,2.82,3.42V21.59A10.17,10.17,0,0,0,1.05,25,10,10,0,0,0,0,29.47Z"/><path class="cls-2" d="M92.05,21.59v51.2a10.17,10.17,0,0,0,2.82-3.42,10,10,0,0,0,1-4.46V29.47a10,10,0,0,0-1-4.46A10.17,10.17,0,0,0,92.05,21.59Z"/><path class="cls-3" d="M85.92,19.47H82.65V74.91h3.27a10,10,0,0,0,3.3-.56,10.28,10.28,0,0,0,2.83-1.56V21.59A10,10,0,0,0,89.22,20,9.78,9.78,0,0,0,85.92,19.47Z"/><path class="cls-3" d="M13.27,74.91V19.47H10A9.78,9.78,0,0,0,6.7,20a10,10,0,0,0-2.83,1.55v51.2A10.28,10.28,0,0,0,6.7,74.35a10,10,0,0,0,3.3.56h3.27Z"/><polygon class="cls-4" points="13.27 74.91 47.96 74.91 82.65 74.91 82.65 47.19 82.65 19.48 47.96 19.48 13.27 19.48 13.27 47.19 13.27 74.91"/><polygon class="cls-5" points="72.21 47.63 62.9 47.63 53.58 47.63 53.58 61.27 53.58 74.91 62.9 74.91 72.21 74.91 72.21 61.27 72.21 47.63"/><polygon class="cls-6" points="65.26 47.76 62.89 47.76 60.52 47.76 60.52 61.39 60.52 75.03 62.89 75.03 65.26 75.03 65.26 61.39 65.26 47.76"/><path class="cls-2" d="M85.92,62.57H10a8.51,8.51,0,0,1-.88,0,7.73,7.73,0,0,1-.84-.13c-.28-.06-.56-.13-.82-.21s-.53-.18-.79-.29a6.53,6.53,0,0,1-.75-.37,7.45,7.45,0,0,1-.71-.43c-.22-.15-.44-.32-.66-.49l-.61-.55c-.19-.2-.37-.4-.55-.61s-.34-.44-.49-.66a7.45,7.45,0,0,1-.43-.71,6.53,6.53,0,0,1-.37-.75c-.1-.25-.2-.52-.29-.78s-.15-.55-.21-.82-.1-.57-.13-.85a8.51,8.51,0,0,1,0-.88V10.59a8.44,8.44,0,0,1,0-.87c0-.29.08-.57.13-.85s.13-.55.21-.82.19-.53.29-.79a7.29,7.29,0,0,1,.37-.74,6.38,6.38,0,0,1,.43-.71,8.05,8.05,0,0,1,.49-.66c.18-.21.36-.42.55-.61s.4-.38.61-.55.44-.34.66-.5.47-.3.71-.43.49-.25.75-.36a7.47,7.47,0,0,1,.79-.29,7,7,0,0,1,.82-.21,7.73,7.73,0,0,1,.84-.13A8.49,8.49,0,0,1,10,2H85.92a8.49,8.49,0,0,1,.88,0,7.73,7.73,0,0,1,.84.13,7,7,0,0,1,.82.21,7.47,7.47,0,0,1,.79.29q.39.17.75.36c.24.13.48.28.71.43s.44.32.66.5a7.82,7.82,0,0,1,.6.55,7.93,7.93,0,0,1,1,1.27,6.38,6.38,0,0,1,.43.71,7.29,7.29,0,0,1,.37.74c.1.26.2.52.29.79s.15.54.21.82.1.56.13.85a8.44,8.44,0,0,1,0,.87V54a8.51,8.51,0,0,1,0,.88c0,.28-.08.57-.13.85s-.13.55-.21.82-.19.53-.29.78a6.53,6.53,0,0,1-.37.75,7.45,7.45,0,0,1-.43.71c-.15.22-.32.44-.49.66s-.36.41-.56.61-.39.37-.6.55-.44.34-.66.49a7.45,7.45,0,0,1-.71.43,6.53,6.53,0,0,1-.75.37c-.26.11-.52.2-.79.29s-.54.15-.82.21a7.73,7.73,0,0,1-.84.13A8.51,8.51,0,0,1,85.92,62.57Z"/><path class="cls-7" d="M63.12,35.62l-.71,0h-.6l-.72,0-.72,0a5.3,5.3,0,0,0-.63.09,4,4,0,0,0-.49.11l1.92,3.55,1.92,3.54-1.92,3.53L59.25,50a4,4,0,0,0,.49.11l.63.08.72,0,.72,0h.6l.71,0a6.45,6.45,0,0,0,.69-.09l.56-.11,1.91-3.52,1.91-3.53-1.91-3.54-1.91-3.55-.56-.12A4.57,4.57,0,0,0,63.12,35.62Z"/><path class="cls-8" d="M72.24,35.62l-.71,0h-.6l-.72,0-.72,0a5,5,0,0,0-.63.09,4,4,0,0,0-.49.11l1.92,3.55,1.92,3.54-1.92,3.53L68.37,50a4,4,0,0,0,.49.11l.63.08.72,0,.72,0h.6l.71,0a6.45,6.45,0,0,0,.69-.09l.56-.11,1.91-3.52,1.91-3.53L75.4,39.39l-1.91-3.55-.56-.12A4.57,4.57,0,0,0,72.24,35.62Z"/><path class="cls-9" d="M82.52,35.84,82,35.72a4.57,4.57,0,0,0-.69-.1l-.71,0H80l-.72,0-.72,0a5.3,5.3,0,0,0-.63.09,4,4,0,0,0-.49.11l1.92,3.55,1.92,3.54-1.92,3.53L77.4,50a4,4,0,0,0,.49.11l.63.08.72,0,.72,0h.6l.71,0a6.45,6.45,0,0,0,.69-.09c.21,0,.39-.07.56-.11l1.91-3.52,1.91-3.53-1.91-3.54Z"/><path class="cls-10" d="M34.43,35.84V46H33.36a1.78,1.78,0,0,1-.76-.23,1.54,1.54,0,0,1-.77-1.46V35.82a10.82,10.82,0,0,0-1.27-.2c-.43,0-.86-.06-1.28-.06s-.86,0-1.31,0a7.48,7.48,0,0,0-1.36.24L26.64,40l0,4.12A8.12,8.12,0,0,0,27,46.4a6.17,6.17,0,0,0,1,2.09,4.34,4.34,0,0,0,1.52,1.25,5.18,5.18,0,0,0,1.92.49h5.52c.42,0,.89,0,1.33,0A7.9,7.9,0,0,0,39.5,50V35.84a5.83,5.83,0,0,0-1.2-.22c-.43,0-.89,0-1.31,0a14.19,14.19,0,0,0-1.42.07A4.73,4.73,0,0,0,34.43,35.84Z"/><path class="cls-10" d="M54,35.62l-.7,0H52.7l-.72,0-.71,0a5.19,5.19,0,0,0-.64.09,4,4,0,0,0-.49.11V50a4,4,0,0,0,.49.11l.64.08.71,0,.72,0h.61l.7,0a6.45,6.45,0,0,0,.69-.09,5.56,5.56,0,0,0,.56-.11V35.84l-.56-.12A4.57,4.57,0,0,0,54,35.62Z"/><path class="cls-10" d="M44.93,35.57l-.72,0-.72,0a5.3,5.3,0,0,0-.63.09,4,4,0,0,0-.49.11V50a4,4,0,0,0,.49.11l.63.08.72,0,.72,0h.6l.71,0a6.45,6.45,0,0,0,.69-.09l.56-.11V35.84l-.56-.12a4.57,4.57,0,0,0-.69-.1l-.71,0Z"/><path class="cls-10" d="M18.76,35.21a8.05,8.05,0,0,0-5.65,15.07l3.71,1.54,3.7,1.55h0l.15-.25.16-.24c.14-.23.27-.45.4-.69s.24-.47.34-.71h0c.07-.16.13-.32.2-.49s.12-.33.17-.51a4.26,4.26,0,0,0,.15-.54,5.05,5.05,0,0,0,.12-.56l-.42-.17L21.37,49a8.05,8.05,0,0,0-2.61-13.81Zm.88,9.07a3.75,3.75,0,0,1-2,2,3.71,3.71,0,1,1,2-2Z"/><path class="cls-10" d="M64.37,35.84l-.56-.12a4.57,4.57,0,0,0-.69-.1l-.71,0h-.6l-.72,0-.72,0a5.3,5.3,0,0,0-.63.09,4,4,0,0,0-.49.11l-2,3.55-2,3.54,2,3.53,2,3.52a4,4,0,0,0,.49.11l.63.08.72,0,.72,0h.6l.71,0a6.45,6.45,0,0,0,.69-.09l.56-.11-2-3.52-2-3.53,2-3.54Z"/><path class="cls-10" d="M85.92,64H10A10,10,0,0,1,0,54V10A10,10,0,0,1,10,0H85.92a10,10,0,0,1,10,10V54a10,10,0,0,1-10,10ZM10,2.86A7.14,7.14,0,0,0,2.86,10V54A7.14,7.14,0,0,0,10,61.14H85.92A7.14,7.14,0,0,0,93.06,54V10a7.14,7.14,0,0,0-7.14-7.14H10Z"/><path class="cls-10" d="M29.73,11.66a3,3,0,0,0-.52-.48,3.71,3.71,0,0,0-1.35-.56,4.32,4.32,0,0,0-.82-.07,4.43,4.43,0,0,0-.83.07,3.44,3.44,0,0,0-.73.22,3.16,3.16,0,0,0-.63.34,3,3,0,0,0-.53.48,3.63,3.63,0,0,0-.41.59,4.73,4.73,0,0,0-.31.72,4.94,4.94,0,0,0-.18.82,5.37,5.37,0,0,0-.07.92,5.45,5.45,0,0,0,.07.92,5.17,5.17,0,0,0,.18.82,4.73,4.73,0,0,0,.31.72,4.13,4.13,0,0,0,.41.59,2.63,2.63,0,0,0,.53.47,2.75,2.75,0,0,0,.63.35,4.12,4.12,0,0,0,.73.21,4.43,4.43,0,0,0,.83.07,4.32,4.32,0,0,0,.82-.07,3.79,3.79,0,0,0,.72-.21,2.75,2.75,0,0,0,.63-.35,2.57,2.57,0,0,0,.52-.47,3.51,3.51,0,0,0,.42-.59,3.89,3.89,0,0,0,.3-.72,4.27,4.27,0,0,0,.19-.82,6.77,6.77,0,0,0,.06-.92,6.67,6.67,0,0,0-.06-.92,4.1,4.1,0,0,0-.19-.82,3.89,3.89,0,0,0-.3-.72A3.14,3.14,0,0,0,29.73,11.66Z"/><path class="cls-10" d="M85.92,2H10a8.59,8.59,0,0,0-8.57,8.57V26.84H94.49V10.59A8.6,8.6,0,0,0,85.92,2ZM19.12,18.74a3.89,3.89,0,0,1-.38.73,4.55,4.55,0,0,1-.52.64,3.86,3.86,0,0,1-.67.52,4.6,4.6,0,0,1-.8.4,5.28,5.28,0,0,1-.93.25,5.89,5.89,0,0,1-1.05.08l-.62,0-.62-.09a6.23,6.23,0,0,1-.62-.15l-.6-.2c-.2-.08-.39-.16-.57-.25a4.68,4.68,0,0,1-.54-.3,5.25,5.25,0,0,1-.49-.33,3.52,3.52,0,0,1-.41-.36l.44-.71.45-.7a.44.44,0,0,1,.12-.15.91.91,0,0,1,.16-.11.71.71,0,0,1,.18-.08l.2,0a.84.84,0,0,1,.27,0,1.11,1.11,0,0,1,.27.13l.29.18.33.19c.12.07.24.14.37.2l.42.18a2.34,2.34,0,0,0,.49.13,4.93,4.93,0,0,0,.57,0,2.7,2.7,0,0,0,.73-.09,1.66,1.66,0,0,0,.55-.27,1.17,1.17,0,0,0,.34-.47,2,2,0,0,0,.11-.68,1.42,1.42,0,0,0-.06-.42.8.8,0,0,0-.19-.32,1.5,1.5,0,0,0-.29-.27l-.37-.21-.43-.17c-.15-.06-.32-.11-.49-.16l-.53-.15-.53-.17a4.29,4.29,0,0,1-.54-.19l-.53-.23a4,4,0,0,1-.49-.3,3.81,3.81,0,0,1-.43-.37,2.84,2.84,0,0,1-.37-.47,3,3,0,0,1-.29-.57,2.87,2.87,0,0,1-.19-.7,5.31,5.31,0,0,1-.06-.83,3.52,3.52,0,0,1,.29-1.43,3,3,0,0,1,.37-.66,3.91,3.91,0,0,1,.5-.59,4,4,0,0,1,.64-.49,5.39,5.39,0,0,1,.76-.38,4.25,4.25,0,0,1,.9-.24,5.37,5.37,0,0,1,1-.08,6.81,6.81,0,0,1,1.17.09,4.88,4.88,0,0,1,.55.12,4.48,4.48,0,0,1,.52.16,4.34,4.34,0,0,1,.5.2c.16.07.31.15.46.23l.42.28a3.47,3.47,0,0,1,.37.3l-.38.7-.37.7a1,1,0,0,1-.14.19,1,1,0,0,1-.15.14.6.6,0,0,1-.16.08l-.22,0-.21,0a.89.89,0,0,1-.23-.1L17.15,11l-.28-.16-.33-.15-.36-.14a2.47,2.47,0,0,0-.41-.09,2.35,2.35,0,0,0-.47,0,2.73,2.73,0,0,0-.74.09,1.24,1.24,0,0,0-.52.28,1.15,1.15,0,0,0-.31.42,1.38,1.38,0,0,0-.11.55.86.86,0,0,0,.07.36.92.92,0,0,0,.18.3,3.7,3.7,0,0,0,.29.24,3.22,3.22,0,0,0,.37.2,2.89,2.89,0,0,0,.44.18l.49.17.53.16.54.19.54.2.53.25a3,3,0,0,1,.49.29,3.08,3.08,0,0,1,.44.37,3.19,3.19,0,0,1,.37.44,3.94,3.94,0,0,1,.29.54,2.9,2.9,0,0,1,.18.63,3.64,3.64,0,0,1,.07.76,4.94,4.94,0,0,1-.08.87A4,4,0,0,1,19.12,18.74Zm14.19-1.41a6.52,6.52,0,0,1-1.37,2.12,6.33,6.33,0,0,1-1,.8,6.94,6.94,0,0,1-1.15.6,7.19,7.19,0,0,1-1.32.39,8.51,8.51,0,0,1-1.45.12,8.63,8.63,0,0,1-1.46-.12,6.86,6.86,0,0,1-1.31-.39,7.15,7.15,0,0,1-1.17-.6,6.85,6.85,0,0,1-1-.8,6.78,6.78,0,0,1-.79-1,6.1,6.1,0,0,1-.58-1.14,5.91,5.91,0,0,1-.37-1.26,7.82,7.82,0,0,1,0-2.73,5.91,5.91,0,0,1,.37-1.26,6.1,6.1,0,0,1,.58-1.14,6.69,6.69,0,0,1,.79-1,6.23,6.23,0,0,1,1-.8,7.15,7.15,0,0,1,1.17-.6,6.86,6.86,0,0,1,1.31-.39A8.63,8.63,0,0,1,27,8.06a8.51,8.51,0,0,1,1.45.12,7.19,7.19,0,0,1,1.32.39A6.3,6.3,0,0,1,31,9.18a5.81,5.81,0,0,1,1,.8,6,6,0,0,1,.78,1,6.14,6.14,0,0,1,.59,1.14,7.34,7.34,0,0,1,.37,1.26,7.77,7.77,0,0,1,0,2.72A7.34,7.34,0,0,1,33.31,17.33Zm9.79,3.89H35.25V8.2h3V18.81H43.1v2.41Zm13.09-3.89a6.81,6.81,0,0,1-.59,1.14,6.17,6.17,0,0,1-.79,1,6.25,6.25,0,0,1-1,.8,7,7,0,0,1-1.16.6,7,7,0,0,1-1.32.39,8.43,8.43,0,0,1-1.45.12,8.51,8.51,0,0,1-1.45-.12,7.19,7.19,0,0,1-1.32-.39,7,7,0,0,1-1.16-.6,5.9,5.9,0,0,1-1-.8,6.34,6.34,0,0,1-1.38-2.12,6.53,6.53,0,0,1-.36-1.26,7.23,7.23,0,0,1,0-2.73,6.53,6.53,0,0,1,.36-1.26A6.17,6.17,0,0,1,45,10a5.43,5.43,0,0,1,1-.8,7,7,0,0,1,1.16-.6,7.19,7.19,0,0,1,1.32-.39,8.51,8.51,0,0,1,1.45-.12,8.43,8.43,0,0,1,1.45.12,7,7,0,0,1,1.32.39,6.39,6.39,0,0,1,1.16.61,5.73,5.73,0,0,1,1,.8,6.09,6.09,0,0,1,.79,1,6.81,6.81,0,0,1,.59,1.14,6.53,6.53,0,0,1,.36,1.26,7.77,7.77,0,0,1,0,2.72A6.53,6.53,0,0,1,56.19,17.33ZM70,10.52H64.61v3h4.1V15.8h-4.1v3.1H70v2.32H61.57V8.2H70v2.32Zm13.09,10.7H81.48a1.58,1.58,0,0,1-.32,0,.77.77,0,0,1-.27-.08.79.79,0,0,1-.24-.15,1.33,1.33,0,0,1-.23-.24l-3.07-3.88L74.28,13c0,.12,0,.23,0,.34l0,.33c0,.11,0,.21,0,.31v7.28H71.68V8.2h1.77l.15,0,.13,0,.11,0,.11.06.1.08.1.11.12.13,3.1,3.91,3.09,3.91,0-.37c0-.12,0-.24,0-.35s0-.24,0-.35V8.2h2.66v13Z"/><path class="cls-10" d="M52.61,11.66a3.37,3.37,0,0,0-.52-.48,3.66,3.66,0,0,0-1.36-.56,4.32,4.32,0,0,0-.82-.07,4.43,4.43,0,0,0-.83.07,3.44,3.44,0,0,0-.73.22,3.16,3.16,0,0,0-.63.34,3,3,0,0,0-.52.48,3.14,3.14,0,0,0-.42.59,3.89,3.89,0,0,0-.3.72,4.1,4.1,0,0,0-.19.82,6.67,6.67,0,0,0-.06.92,6.77,6.77,0,0,0,.06.92,4.27,4.27,0,0,0,.19.82,3.89,3.89,0,0,0,.3.72,3.51,3.51,0,0,0,.42.59,2.57,2.57,0,0,0,.52.47,2.75,2.75,0,0,0,.63.35,4.12,4.12,0,0,0,.73.21,4.43,4.43,0,0,0,.83.07,4.32,4.32,0,0,0,.82-.07,4.12,4.12,0,0,0,.73-.21,3,3,0,0,0,.63-.35,2.87,2.87,0,0,0,.52-.47,4.13,4.13,0,0,0,.41-.59,4.73,4.73,0,0,0,.31-.72,6.56,6.56,0,0,0,.19-.82,6.77,6.77,0,0,0,.06-.92,6.67,6.67,0,0,0-.06-.92,6.18,6.18,0,0,0-.19-.82,4.73,4.73,0,0,0-.31-.72A3.63,3.63,0,0,0,52.61,11.66Z"/><path class="cls-10" d="M86.34,37.5a2.11,2.11,0,0,1,0-.26,1.84,1.84,0,0,1,0-.25,1.35,1.35,0,0,1,.08-.24,2.4,2.4,0,0,1,.11-.23l.14-.2a1.54,1.54,0,0,1,.17-.19l.18-.16a1.53,1.53,0,0,1,.21-.14l.22-.11a1.35,1.35,0,0,1,.24-.08l.25,0,.26,0,.26,0,.25,0,.24.08.22.11.21.14.18.16a1.54,1.54,0,0,1,.17.19l.13.2a2.53,2.53,0,0,1,.12.23,1.35,1.35,0,0,1,.08.24,1.84,1.84,0,0,1,.05.25,2.11,2.11,0,0,1,0,.26,2.28,2.28,0,0,1,0,.26,2.21,2.21,0,0,1-.05.25,2.25,2.25,0,0,1-.08.24,2.39,2.39,0,0,1-.12.22,1.37,1.37,0,0,1-.13.2,1.54,1.54,0,0,1-.17.19l-.18.16-.21.14-.22.11-.24.08a2.27,2.27,0,0,1-.25.06H88a1.83,1.83,0,0,1-.25-.06l-.24-.08-.22-.11a1.53,1.53,0,0,1-.21-.14,1.37,1.37,0,0,1-.18-.16,1.54,1.54,0,0,1-.17-.19c0-.06-.09-.13-.14-.2l-.11-.22a2.25,2.25,0,0,1-.08-.24,2.21,2.21,0,0,1,0-.25A2.28,2.28,0,0,1,86.34,37.5Zm.35,0a1.84,1.84,0,0,0,0,.33,1.71,1.71,0,0,0,.09.3,1.51,1.51,0,0,0,.15.28,2,2,0,0,0,.19.24,2.11,2.11,0,0,0,.23.19,1.17,1.17,0,0,0,.27.15,1.32,1.32,0,0,0,.3.09,1.72,1.72,0,0,0,.64,0,1.71,1.71,0,0,0,.3-.09,1.17,1.17,0,0,0,.27-.15,2.11,2.11,0,0,0,.23-.19,2,2,0,0,0,.19-.24,1.51,1.51,0,0,0,.15-.28,1.71,1.71,0,0,0,.09-.3,1.84,1.84,0,0,0,0-.33,1.55,1.55,0,0,0,0-.22,1.43,1.43,0,0,0,0-.22,1.59,1.59,0,0,0-.07-.2l-.09-.19c0-.06-.07-.12-.11-.17l-.14-.16-.15-.13a1,1,0,0,0-.17-.12.76.76,0,0,0-.18-.09l-.2-.07-.21,0h-.43l-.21,0-.19.07a.51.51,0,0,0-.18.09,1,1,0,0,0-.17.12l-.15.13a1,1,0,0,0-.13.16l-.12.17-.09.19-.06.2a1.43,1.43,0,0,0,0,.22A1.5,1.5,0,0,0,86.69,37.5Zm1.28.31v.85h-.55V36.32h.83a2.52,2.52,0,0,1,.43,0,.78.78,0,0,1,.29.14.5.5,0,0,1,.17.21.65.65,0,0,1,.06.29.71.71,0,0,1,0,.21.56.56,0,0,1-.09.19.46.46,0,0,1-.16.15.65.65,0,0,1-.22.11l.06,0,0,0,0,.06,0,.06.24.4.23.4h-.53a.15.15,0,0,1-.1,0,.13.13,0,0,1-.07-.06l-.19-.35-.18-.34,0,0,0,0H88Zm0-.39h.36l.1,0,.07,0,.06,0,0,0,0-.06s0,0,0-.07,0,0,0-.08,0,0,0-.08a.13.13,0,0,0,0-.06.11.11,0,0,0,0-.06l0,0,0,0-.07,0H88v.68Z"/></g></g></svg>