<svg xmlns="http://www.w3.org/2000/svg" xmlns:xlink="http://www.w3.org/1999/xlink" viewBox="0 0 78.77 95.28"><defs><style>.cls-1{fill:#a07cf7;}.cls-2{fill:#0b9900;}.cls-3{fill:#46a818;}.cls-4{fill:url(#linear-gradient);}.cls-5{fill:#fff;}</style><linearGradient id="linear-gradient" x1="39.33" y1="69.94" x2="39.33" y2="-8.71" gradientUnits="userSpaceOnUse"><stop offset="0" stop-color="#39b54a"/><stop offset="1" stop-color="#8cc63f"/></linearGradient></defs><title>deliverygratis-achv</title><g id="Capa_2" data-name="Capa 2"><g id="Layer_1" data-name="Layer 1"><path class="cls-1" d="M74.82,38.32q-.06-8.87-.48-17.71h0A5.11,5.11,0,0,0,67.68,16L39.29,24.9,11.11,16.06a5.11,5.11,0,0,0-6.67,4.6l-.09,2.1Q3.87,34.06,4,45.34q-.09,11.4.4,22.79l.09,2.13A11.6,11.6,0,0,0,10.61,80L39.29,95.28l.1,0v0h0L68.25,80a11.6,11.6,0,0,0,6.18-9.67h0Q75.21,54.31,74.82,38.32Z"/><path class="cls-2" d="M70.71,8.24l-31.5,10L8,8.26A5.68,5.68,0,0,0,.56,13.44l-.1,2.37Q-.45,37.35.46,58.9l.1,2.39A13.09,13.09,0,0,0,7.4,72.23L39.21,89.46l32-17.25a13.09,13.09,0,0,0,6.86-10.89h0q1.14-24,0-47.93h0A5.68,5.68,0,0,0,70.71,8.24Z"/><path class="cls-3" d="M78.21,13.39h0a5.68,5.68,0,0,0-7.39-5.15l-31.49,10h0V89.46h0l32-17.25A13.11,13.11,0,0,0,78.2,61.32h0Q79.34,37.37,78.21,13.39Z"/><path class="cls-4" d="M70.71.27l-31.5,10L8,.29A5.68,5.68,0,0,0,.56,5.46L.46,7.84q-.91,21.53,0,43.09l.1,2.39A13.09,13.09,0,0,0,7.4,64.26L39.21,81.49l32-17.25a13.09,13.09,0,0,0,6.86-10.89h0q1.14-24,0-47.93h0A5.68,5.68,0,0,0,70.71.27Z"/><circle class="cls-5" cx="41.77" cy="22.78" r="3.65" transform="translate(4.74 52.65) rotate(-67.5)"/><path class="cls-5" d="M56.83,49.43a4.81,4.81,0,1,0,4.8,4.81A4.81,4.81,0,0,0,56.83,49.43Z"/><path class="cls-5" d="M49.87,53.4H38.24l-1.3-5.31a.73.73,0,0,0,.73-.73V45.18a.73.73,0,0,0-.73-.73H22a.73.73,0,0,0-.73.73v2.18a.73.73,0,0,0,.73.73h0a18.25,18.25,0,0,0-1.71,7.45h4.41a4.77,4.77,0,0,0,9.2,0h16a1.07,1.07,0,1,0,0-2.14Z"/><path class="cls-5" d="M29.74,41V28.5a.47.47,0,0,0-.47-.47H22.46a6.16,6.16,0,0,0-6.15,6.15V41a.48.48,0,0,0,.47.47H29.27A.48.48,0,0,0,29.74,41Z"/><path class="cls-5" d="M62.3,50a6.83,6.83,0,0,0-4.53-3.61,12.45,12.45,0,0,1-3.46-1.49l0,0a7.77,7.77,0,0,1-3.53-4l-.61-1.61h1.46a3.18,3.18,0,0,0,1.66,2.12,1.18,1.18,0,0,0,1.45-.19,3.52,3.52,0,0,0,.67-2.47,3.54,3.54,0,0,0-.69-2.5,1.19,1.19,0,0,0-1.43-.16,3.16,3.16,0,0,0-1.65,2.09H49.82A1.19,1.19,0,0,0,48,37.72v0a.44.44,0,0,0-.15.49l3.29,9.35a1.85,1.85,0,0,0,2.61,1,6.8,6.8,0,0,1,3.12-.78c2.4,0,4.15,1.92,4.74,2.67a.43.43,0,0,0,.55.11A.46.46,0,0,0,62.3,50Z"/><path class="cls-5" d="M36,43.05h.18l6.45.64,2.68,6.7a2.25,2.25,0,1,0,4.18-1.68l-3.19-8a2.24,2.24,0,0,0-1.87-1.4L39,38.8a13.08,13.08,0,0,1,0-4.71,13.37,13.37,0,0,0,7.79,2.63,1.58,1.58,0,0,0,0-3.15A10.84,10.84,0,0,1,40,30.85a3.15,3.15,0,1,0-5.52-3h0A19.86,19.86,0,0,0,33,40.6,3.16,3.16,0,0,0,36,43.05Z"/></g></g></svg>