<svg xmlns="http://www.w3.org/2000/svg" xmlns:xlink="http://www.w3.org/1999/xlink" viewBox="0 0 78.77 95.28"><defs><style>.cls-1{fill:#a07cf7;}.cls-2{fill:#3c0673;}.cls-3{fill:#6514c1;}.cls-4{fill:url(#linear-gradient);}.cls-5{fill:#fff;}</style><linearGradient id="linear-gradient" x1="39.33" y1="69.94" x2="39.33" y2="-8.71" gradientUnits="userSpaceOnUse"><stop offset="0" stop-color="#540fa1"/><stop offset="1" stop-color="#6e17d2"/></linearGradient></defs><title>sinproblemas-achv</title><g id="Capa_2" data-name="Capa 2"><g id="Layer_1" data-name="Layer 1"><path class="cls-1" d="M74.77,38.32q-.08-8.87-.49-17.71h0A5.11,5.11,0,0,0,67.62,16L39.23,24.9,11.05,16.06a5.12,5.12,0,0,0-6.67,4.6l-.09,2.1Q3.81,34.06,3.9,45.34q-.09,11.4.4,22.79l.09,2.13A11.6,11.6,0,0,0,10.55,80L39.23,95.28l.1,0v0h0L68.19,80a11.6,11.6,0,0,0,6.18-9.67h0Q75.15,54.31,74.77,38.32Z"/><path class="cls-2" d="M70.71,8.24l-31.5,10L8,8.26A5.68,5.68,0,0,0,.56,13.44l-.1,2.37Q-.45,37.35.46,58.9l.1,2.39A13.09,13.09,0,0,0,7.4,72.23L39.21,89.46l32-17.25a13.09,13.09,0,0,0,6.86-10.89h0q1.14-24,0-47.93h0A5.68,5.68,0,0,0,70.71,8.24Z"/><path class="cls-3" d="M78.21,13.39h0a5.68,5.68,0,0,0-7.39-5.15l-31.49,10h0V89.46h0l32-17.25A13.11,13.11,0,0,0,78.2,61.32h0Q79.34,37.37,78.21,13.39Z"/><path class="cls-4" d="M70.71.27l-31.5,10L8,.29A5.68,5.68,0,0,0,.56,5.46L.46,7.84q-.91,21.53,0,43.09l.1,2.39A13.09,13.09,0,0,0,7.4,64.26L39.21,81.49l32-17.25a13.09,13.09,0,0,0,6.86-10.89h0q1.14-24,0-47.93h0A5.68,5.68,0,0,0,70.71.27Z"/><path class="cls-5" d="M36.3,30a11.85,11.85,0,0,0-4-2.62,13.28,13.28,0,0,0-5.08-.95,13.28,13.28,0,0,0-5.08.94,12,12,0,0,0-4,2.61,11.64,11.64,0,0,0-2.57,3.94,13.46,13.46,0,0,0,0,9.68,11.72,11.72,0,0,0,2.56,3.93,11.91,11.91,0,0,0,4,2.63,14.2,14.2,0,0,0,10.16,0,11.82,11.82,0,0,0,4-2.63,12,12,0,0,0,2.56-3.93,13.44,13.44,0,0,0,0-9.67A12,12,0,0,0,36.3,30Zm-4.4,8.76a8,8,0,0,1-.35,2.45,4.85,4.85,0,0,1-.9,1.67,3.66,3.66,0,0,1-1.39,1,6,6,0,0,1-4.05,0,3.43,3.43,0,0,1-1.38-1,4.71,4.71,0,0,1-.91-1.67,8.72,8.72,0,0,1,0-4.89,4.71,4.71,0,0,1,.91-1.67,3.71,3.71,0,0,1,1.39-1,5.26,5.26,0,0,1,2-.36,5.19,5.19,0,0,1,2,.36,3.88,3.88,0,0,1,1.39,1,4.85,4.85,0,0,1,.9,1.67A7.94,7.94,0,0,1,31.9,38.72Z"/><path class="cls-5" d="M63.68,48.69l-6.46-9.93a5.77,5.77,0,0,0-.73-.93c.09-.11.18-.22.26-.34l6.36-8.67a1.39,1.39,0,0,0,.12-1.44A1.41,1.41,0,0,0,62,26.62H57.67a4.73,4.73,0,0,0-1.76.31,3.39,3.39,0,0,0-1.53,1.28L49.69,35V28a1.38,1.38,0,0,0-1.38-1.39h-5A1.39,1.39,0,0,0,42,28V49.44a1.39,1.39,0,0,0,1.39,1.39h5a1.38,1.38,0,0,0,1.38-1.39V41.71c.27,0,.38.06.43.12L55,49.3a4.53,4.53,0,0,0,.45.57,3,3,0,0,0,.74.56,3.19,3.19,0,0,0,.9.31,5,5,0,0,0,1,.09h4.44a1.38,1.38,0,0,0,1.16-2.14Z"/></g></g></svg>