<svg xmlns="http://www.w3.org/2000/svg" xmlns:xlink="http://www.w3.org/1999/xlink" viewBox="0 0 78.77 95.28"><defs><style>.cls-1{fill:#a07cf7;}.cls-2{fill:#0b9900;}.cls-3{fill:#46a818;}.cls-4{fill:url(#linear-gradient);}.cls-5{fill:#fff;}</style><linearGradient id="linear-gradient" x1="39.33" y1="69.94" x2="39.33" y2="-8.71" gradientUnits="userSpaceOnUse"><stop offset="0" stop-color="#39b54a"/><stop offset="1" stop-color="#8cc63f"/></linearGradient></defs><title>promos-achv</title><g id="Capa_2" data-name="Capa 2"><g id="Layer_1" data-name="Layer 1"><path class="cls-1" d="M74.77,38.32q-.08-8.87-.49-17.71h0A5.11,5.11,0,0,0,67.62,16L39.23,24.9,11.05,16.06a5.12,5.12,0,0,0-6.67,4.6l-.09,2.1Q3.81,34.06,3.9,45.34q-.09,11.4.4,22.79l.09,2.13A11.6,11.6,0,0,0,10.55,80L39.23,95.28l.1,0v0h0L68.19,80a11.6,11.6,0,0,0,6.18-9.67h0Q75.15,54.31,74.77,38.32Z"/><path class="cls-2" d="M70.71,8.24l-31.5,10L8,8.26A5.68,5.68,0,0,0,.56,13.44l-.1,2.37Q-.45,37.35.46,58.9l.1,2.39A13.09,13.09,0,0,0,7.4,72.23L39.21,89.46l32-17.25a13.09,13.09,0,0,0,6.86-10.89h0q1.14-24,0-47.93h0A5.68,5.68,0,0,0,70.71,8.24Z"/><path class="cls-3" d="M78.21,13.39h0a5.68,5.68,0,0,0-7.39-5.15l-31.49,10h0V89.46h0l32-17.25A13.11,13.11,0,0,0,78.2,61.32h0Q79.34,37.37,78.21,13.39Z"/><path class="cls-4" d="M70.71.27l-31.5,10L8,.29A5.68,5.68,0,0,0,.56,5.46L.46,7.84q-.91,21.53,0,43.09l.1,2.39A13.09,13.09,0,0,0,7.4,64.26L39.21,81.49l32-17.25a13.09,13.09,0,0,0,6.86-10.89h0q1.14-24,0-47.93h0A5.68,5.68,0,0,0,70.71.27Z"/><path class="cls-5" d="M48.85,23.45l-1.13-.62a.54.54,0,0,1-.23-.22l-.62-1.14a.56.56,0,0,0-1,0l-.62,1.14a.61.61,0,0,1-.23.22l-1.13.62a.57.57,0,0,0,0,1l1.13.62a.54.54,0,0,1,.23.22l.62,1.13a.56.56,0,0,0,1,0l.62-1.13a.49.49,0,0,1,.23-.22l1.13-.62A.57.57,0,0,0,48.85,23.45Z"/><path class="cls-5" d="M34.74,62.59l-1-.53a.5.5,0,0,1-.19-.19l-.53-1a.49.49,0,0,0-.85,0l-.53,1a.58.58,0,0,1-.19.19l-1,.53a.49.49,0,0,0,0,.85l1,.53a.5.5,0,0,1,.19.19l.53,1a.48.48,0,0,0,.85,0l.53-1a.44.44,0,0,1,.19-.19l1-.53A.49.49,0,0,0,34.74,62.59Z"/><path class="cls-5" d="M53.51,27.18l-.79-.43a.41.41,0,0,1-.16-.16l-.43-.79a.4.4,0,0,0-.7,0l-.43.79a.41.41,0,0,1-.16.16l-.79.43a.4.4,0,0,0,0,.69l.79.44a.41.41,0,0,1,.16.16l.43.79a.4.4,0,0,0,.7,0l.43-.79a.41.41,0,0,1,.16-.16l.79-.44A.39.39,0,0,0,53.51,27.18Z"/><path class="cls-5" d="M59.12,44.78,42.22,27.87a13,13,0,0,0-17.2-1L21.15,23a1.47,1.47,0,1,0-2.08,2.09L22.94,29A13.07,13.07,0,0,0,24,46.29L40.82,63.08a3.07,3.07,0,0,0,4.33,0l14-14A3.05,3.05,0,0,0,59.12,44.78ZM30.24,38A3.76,3.76,0,1,1,34,34.2,3.75,3.75,0,0,1,30.24,38ZM50.31,48.78l-1.84.76-1.85.77a.44.44,0,0,0-.16.1.62.62,0,0,0-.11.17l-.76,1.84-.76,1.85a.53.53,0,0,1-.39.3A.49.49,0,0,1,44,54.4l-1.29-1.52-1.3-1.52a.44.44,0,0,0-.15-.12.41.41,0,0,0-.19-.05l-2-.16-2-.15a.53.53,0,0,1-.41-.27.5.5,0,0,1,0-.49l1-1.7,1-1.7a.44.44,0,0,0,.07-.19.41.41,0,0,0,0-.19l-.47-1.94-.46-1.94A.49.49,0,0,1,38,42a.52.52,0,0,1,.47-.13l1.94.47,1.94.47h.2a.64.64,0,0,0,.18-.06l1.7-1,1.7-1a.48.48,0,0,1,.49,0,.47.47,0,0,1,.27.41l.16,2,.15,2a.55.55,0,0,0,.06.18.45.45,0,0,0,.12.16l1.52,1.29,1.51,1.3a.47.47,0,0,1,.17.46A.48.48,0,0,1,50.31,48.78Z"/></g></g></svg>