<svg xmlns="http://www.w3.org/2000/svg" xmlns:xlink="http://www.w3.org/1999/xlink" viewBox="0 0 78.77 95.28"><defs><style>.cls-1{fill:#a07cf7;}.cls-2{fill:#3c0673;}.cls-3{fill:#6514c1;}.cls-4{fill:url(#linear-gradient);}.cls-5{fill:#fff;}</style><linearGradient id="linear-gradient" x1="39.33" y1="69.94" x2="39.33" y2="-8.71" gradientUnits="userSpaceOnUse"><stop offset="0" stop-color="#540fa1"/><stop offset="1" stop-color="#6e17d2"/></linearGradient></defs><title>perfil-achv</title><g id="Capa_2" data-name="Capa 2"><g id="Layer_1" data-name="Layer 1"><path class="cls-1" d="M74.77,38.32q-.08-8.87-.49-17.71h0A5.11,5.11,0,0,0,67.62,16L39.23,24.9,11.05,16.06a5.12,5.12,0,0,0-6.67,4.6l-.09,2.1Q3.81,34.06,3.9,45.34q-.09,11.4.4,22.79l.09,2.13A11.6,11.6,0,0,0,10.55,80L39.23,95.28l.1,0v0h0L68.19,80a11.6,11.6,0,0,0,6.18-9.67h0Q75.15,54.31,74.77,38.32Z"/><path class="cls-2" d="M70.71,8.24l-31.5,10L8,8.26A5.68,5.68,0,0,0,.56,13.44l-.1,2.37Q-.45,37.35.46,58.9l.1,2.39A13.09,13.09,0,0,0,7.4,72.23L39.21,89.46l32-17.25a13.09,13.09,0,0,0,6.86-10.89h0q1.14-24,0-47.93h0A5.68,5.68,0,0,0,70.71,8.24Z"/><path class="cls-3" d="M78.21,13.39h0a5.68,5.68,0,0,0-7.39-5.15l-31.49,10h0V89.46h0l32-17.25A13.11,13.11,0,0,0,78.2,61.32h0Q79.34,37.37,78.21,13.39Z"/><path class="cls-4" d="M70.71.27l-31.5,10L8,.29A5.68,5.68,0,0,0,.56,5.46L.46,7.84q-.91,21.53,0,43.09l.1,2.39A13.09,13.09,0,0,0,7.4,64.26L39.21,81.49l32-17.25a13.09,13.09,0,0,0,6.86-10.89h0q1.14-24,0-47.93h0A5.68,5.68,0,0,0,70.71.27Z"/><circle class="cls-5" cx="39.99" cy="30.68" r="8.02"/><path class="cls-5" d="M40,41A11.89,11.89,0,0,0,28.13,52.83l0,5.46a1.27,1.27,0,0,0,1.27,1.27H50.55a1.29,1.29,0,0,0,1.28-1.27l0-5.46A11.89,11.89,0,0,0,40,41Z"/><path class="cls-5" d="M56,39.68l-1.14-.62a.54.54,0,0,1-.22-.23L54,37.7a.57.57,0,0,0-1,0l-.61,1.13a.57.57,0,0,1-.23.23L51,39.68a.56.56,0,0,0,0,1l1.13.62a.57.57,0,0,1,.23.23L53,42.64a.57.57,0,0,0,1,0l.62-1.13a.54.54,0,0,1,.22-.23L56,40.66A.56.56,0,0,0,56,39.68Z"/><path class="cls-5" d="M28.18,39.72,26.93,39a.67.67,0,0,1-.25-.25L26,37.54a.62.62,0,0,0-1.09,0l-.69,1.25A.64.64,0,0,1,24,39l-1.25.68a.62.62,0,0,0,0,1.09l1.25.68a.58.58,0,0,1,.24.25L24.91,43A.62.62,0,0,0,26,43l.68-1.25a.6.6,0,0,1,.25-.25l1.25-.68A.62.62,0,0,0,28.18,39.72Z"/><path class="cls-5" d="M25.68,34l.88.47a.42.42,0,0,1,.17.18l.48.87a.43.43,0,0,0,.76,0l.48-.87a.42.42,0,0,1,.17-.18L29.5,34a.44.44,0,0,0,0-.77l-.88-.48a.46.46,0,0,1-.17-.17L28,31.65a.43.43,0,0,0-.76,0l-.48.88a.46.46,0,0,1-.17.17l-.88.48A.44.44,0,0,0,25.68,34Z"/></g></g></svg>