<svg id="Layer_1" data-name="Layer 1" xmlns="http://www.w3.org/2000/svg" viewBox="0 0 153 152"><defs><style>.cls-1{fill:#8ac441;}.cls-2{fill:#fff;}</style></defs><title>Untitled-1</title><rect class="cls-1" x="-0.32" y="0.99" width="152.84" height="152.84" transform="translate(152.2 154.82) rotate(180)"/><path class="cls-2" d="M112.41,64.34a6.14,6.14,0,0,0-.13-1.91L106,45.07a6,6,0,0,0-5.9-4.68H52.49a6,6,0,0,0-5.9,4.68l-6.3,17.37a6.06,6.06,0,0,0-.14,1.9c0,.23,0,.45,0,.68v4.81A10.84,10.84,0,0,0,47.19,80v21.43a3.21,3.21,0,0,0,3.2,3.21h51.78a3.22,3.22,0,0,0,3.21-3.21V80a10.86,10.86,0,0,0,7.06-10.15V65C112.44,64.79,112.43,64.57,112.41,64.34ZM51,75.88a6.06,6.06,0,0,1-6-6V65a4.41,4.41,0,0,1,0-.52A3,3,0,0,0,45,64a1,1,0,0,1,0-.46l6.3-17.36a1.25,1.25,0,0,1,1.22-1h7.69L57.07,69.34a2.63,2.63,0,0,0,0,.49V70l-.08.8A6,6,0,0,1,51,75.88Zm16.89,0a6,6,0,0,1-6-5.87L65,45.19h8.87V70.5A6.05,6.05,0,0,1,67.87,75.88Zm16.9,0a6.06,6.06,0,0,1-6-6,2.58,2.58,0,0,0,0-.39V45.19h8.85L90.75,70.6A6.08,6.08,0,0,1,84.77,75.88Zm22.86-6a6,6,0,0,1-12.06.56s0-.07,0-.11L92.36,45.19h7.71a1.24,1.24,0,0,1,1.22,1l6.31,17.36a1.42,1.42,0,0,1,0,.46,2.29,2.29,0,0,0,0,.52,4.41,4.41,0,0,1,0,.52Z"/></svg>