<?xml version="1.0" encoding="utf-8"?>
<!-- Generator: Adobe Illustrator 24.1.3, SVG Export Plug-In . SVG Version: 6.00 Build 0)  -->
<svg version="1.1" id="Layer_1" xmlns="http://www.w3.org/2000/svg" xmlns:xlink="http://www.w3.org/1999/xlink" x="0px" y="0px"
	 viewBox="0 0 536 182" style="enable-background:new 0 0 536 182;" xml:space="preserve">
<style type="text/css">
	.st0{fill:#231F20;}
	.st1{fill:#FFFFFF;}
	.st2{fill:#F9F9F9;}
</style>
<g>
	<path class="st0" d="M528.8,153.41c0,12.74-10.32,23.06-23.06,23.06H30.16c-12.74,0-23.06-10.33-23.06-23.06V28.88
		c0-12.73,10.33-23.06,23.06-23.06h475.59c12.73,0,23.06,10.33,23.06,23.06V153.41z"/>
	<g>
		<path class="st1" d="M143.14,118.62c-2.76,6.12-4.08,8.85-7.64,14.26c-4.96,7.55-11.96,16.96-20.62,17.04
			c-7.7,0.07-9.68-5.01-20.13-4.95c-10.45,0.06-12.63,5.04-20.33,4.97c-8.66-0.08-15.29-8.57-20.25-16.13
			C40.3,112.69,38.85,87.91,47.4,74.73c6.08-9.37,15.67-14.85,24.69-14.85c9.18,0,14.96,5.04,22.55,5.04
			c7.37,0,11.86-5.04,22.47-5.04c8.03,0,16.53,4.37,22.59,11.93C119.86,82.68,123.08,111.04,143.14,118.62z"/>
		<g>
			<path class="st1" d="M109.06,51.44c3.86-4.95,6.79-11.95,5.72-19.09c-6.3,0.43-13.67,4.44-17.98,9.67
				c-3.91,4.75-7.13,11.78-5.88,18.62C97.81,60.85,104.93,56.74,109.06,51.44z"/>
		</g>
	</g>
	<g>
		<path class="st1" d="M185.41,74.41l-19.88,58.5h9.1l5.93-17.96h19.24l6.1,17.96h9.35l-19.96-58.5H185.41z M190.13,84.03
			c0.67,2.61,1.4,5.32,2.33,8.25l5.36,15.51h-15.24l5.28-15.61C188.65,89.65,189.41,86.91,190.13,84.03z"/>
		<path class="st1" d="M240.99,89.57c-6.03,0-10.86,2.33-14.07,6.75l-0.35-5.82h-8.1l0.05,0.74c0.24,3.63,0.34,7.62,0.34,13.34
			v45.09h8.85v-21.04c2.75,3.29,7.13,5.2,12.1,5.2c5.17,0,9.94-2.03,13.41-5.7c3.88-4.1,5.92-9.99,5.92-17.03
			c0-6.22-1.78-11.6-5.14-15.55C250.7,91.7,246.08,89.57,240.99,89.57z M238.78,96.9c7.89,0,11.42,7.31,11.42,14.55
			c0,9.34-4.51,15.15-11.76,15.15c-4.95,0-9.23-3.37-10.43-8.21c-0.21-0.75-0.31-1.74-0.31-2.87v-7.12c0-0.64,0.14-1.43,0.28-2.18
			c0.04-0.24,0.09-0.48,0.13-0.72C229.43,100.44,233.82,96.9,238.78,96.9z"/>
		<path class="st1" d="M286.57,89.57c-6.03,0-10.86,2.33-14.07,6.75l-0.35-5.82h-8.09l0.04,0.74c0.24,3.63,0.34,7.62,0.34,13.34
			v45.09h8.85v-21.04c2.75,3.29,7.13,5.2,12.1,5.2c5.17,0,9.94-2.03,13.42-5.7c3.87-4.1,5.92-9.99,5.92-17.03
			c0-6.22-1.78-11.6-5.15-15.55C296.28,91.7,291.66,89.57,286.57,89.57z M284.36,96.9c7.89,0,11.42,7.31,11.42,14.55
			c0,9.34-4.51,15.15-11.76,15.15c-4.95,0-9.24-3.37-10.43-8.21c-0.21-0.75-0.31-1.74-0.31-2.87v-7.12c0-0.65,0.14-1.43,0.28-2.19
			c0.04-0.24,0.09-0.48,0.13-0.71C275.01,100.44,279.4,96.9,284.36,96.9z"/>
		<path class="st1" d="M343.67,99.2c-8.26-3.2-10.91-5.71-10.91-10.36c0-3.91,3.11-7.86,10.06-7.86c5.73,0,9.4,1.99,10.39,2.61
			l0.75,0.46l2.5-7.39l-0.49-0.29c-1.48-0.87-5.71-2.89-12.89-2.89c-11.29,0-19.17,6.66-19.17,16.2c0,7.69,4.94,13.07,15.54,16.92
			c7.51,2.81,10.31,5.68,10.31,10.61c0,5.58-4.31,9.04-11.25,9.04c-4.52,0-9.17-1.32-12.76-3.62l-0.77-0.49l-2.38,7.56l0.44,0.29
			c3.34,2.23,9.63,3.85,14.96,3.85c15.21,0,20.61-9.28,20.61-17.22C358.6,108.43,354.28,103.38,343.67,99.2z"/>
		<path class="st1" d="M374.53,80.43l-8.68,2.73v7.35h-6.36v7.07h6.36v21.67c0,5.24,1,8.91,3.06,11.23
			c1.98,2.17,5.02,3.36,8.56,3.36c3.35,0,5.72-0.66,6.84-1.06l0.5-0.18l-0.42-7.09l-0.85,0.26c-1.12,0.34-2.27,0.48-4.12,0.48
			c-3.43,0-4.89-2.17-4.89-7.26V97.58h10.68v-7.07h-10.68V80.43z"/>
		<path class="st1" d="M407.15,89.57c-12.38,0-21.03,9.24-21.03,22.47c0,12.83,8.37,21.8,20.36,21.8h0.08
			c10.13,0,21.03-7.06,21.03-22.56c0-6.3-1.95-11.71-5.64-15.66C418.23,91.67,413.11,89.57,407.15,89.57z M406.89,96.56
			c7.96,0,11.59,7.76,11.59,14.98c0,8.87-4.95,15.31-11.76,15.31h-0.09c-6.71,0-11.59-6.33-11.59-15.06
			C395.05,104.22,398.71,96.56,406.89,96.56z"/>
		<path class="st1" d="M454.7,89.99l-0.53-0.13c-0.78-0.19-1.42-0.28-2.2-0.28c-4.63,0-8.79,2.73-11.1,7.13l-0.26-6.19h-7.94
			l0.05,0.74c0.24,3.5,0.33,7.44,0.33,12.75l-0.08,28.92h8.85v-22.56c0-1.23,0.08-2.39,0.24-3.43c1-5.42,4.65-8.92,9.31-8.92
			c0.91,0,1.62,0.07,2.38,0.15l0.95,0.1V89.99z"/>
		<path class="st1" d="M474.6,89.49c-11.78,0-20.01,9.42-20.01,22.9c0,12.98,8.19,21.37,20.86,21.37c6.66,0,11.3-1.46,14.01-2.69
			l0.53-0.24l-1.7-6.6l-0.74,0.3c-2.41,0.98-5.62,1.98-11.09,1.98c-3.85,0-12.71-1.27-13.26-12.83l28.57,0.09l0.12-0.57
			c0.18-0.9,0.27-2.11,0.27-3.69C492.16,100.27,487.56,89.49,474.6,89.49z M474.01,96.23c2.7,0,4.88,0.83,6.5,2.48
			c2.55,2.59,2.99,6.41,3.05,8.24h-20.19C464.19,101.83,467.39,96.23,474.01,96.23z"/>
	</g>
	<g>
		<path class="st2" d="M167.58,43.71c0-1.74-0.06-3.14-0.11-4.43h2.21l0.11,2.33h0.06c1.01-1.65,2.61-2.63,4.82-2.63
			c3.28,0,5.75,2.77,5.75,6.9c0,4.88-2.97,7.29-6.17,7.29c-1.79,0-3.36-0.78-4.18-2.13h-0.06v7.37h-2.44V43.71z M170.02,47.32
			c0,0.36,0.06,0.7,0.11,1.01c0.45,1.71,1.93,2.89,3.7,2.89c2.61,0,4.12-2.13,4.12-5.24c0-2.72-1.43-5.05-4.04-5.05
			c-1.68,0-3.25,1.21-3.73,3.06c-0.08,0.31-0.17,0.67-0.17,1.01V47.32z"/>
		<path class="st2" d="M183.53,43.51c0-1.6-0.03-2.97-0.11-4.23h2.16l0.08,2.66h0.11c0.62-1.82,2.1-2.97,3.76-2.97
			c0.28,0,0.48,0.03,0.7,0.08v2.33c-0.25-0.06-0.5-0.08-0.84-0.08c-1.74,0-2.97,1.32-3.31,3.17c-0.06,0.34-0.11,0.73-0.11,1.15v7.23
			h-2.44V43.51z"/>
		<path class="st2" d="M204.69,45.95c0,5.02-3.48,7.2-6.75,7.2c-3.67,0-6.5-2.69-6.5-6.98c0-4.54,2.97-7.2,6.73-7.2
			C202.05,38.97,204.69,41.8,204.69,45.95z M193.92,46.09c0,2.97,1.71,5.21,4.12,5.21c2.35,0,4.12-2.21,4.12-5.27
			c0-2.3-1.15-5.21-4.06-5.21S193.92,43.51,193.92,46.09z M201.74,33.42l-3.42,4.01h-1.77l2.47-4.01H201.74z"/>
		<path class="st2" d="M208.55,39.28l1.93,2.92c0.5,0.76,0.92,1.46,1.37,2.21h0.08c0.45-0.81,0.9-1.51,1.35-2.24l1.91-2.89h2.66
			l-4.63,6.56l4.76,7.01h-2.8l-1.99-3.06c-0.53-0.79-0.98-1.54-1.46-2.35h-0.06c-0.45,0.81-0.92,1.54-1.43,2.35l-1.96,3.06h-2.72
			l4.82-6.92l-4.6-6.64H208.55z"/>
		<path class="st2" d="M223.13,35.47c0.03,0.84-0.59,1.51-1.57,1.51c-0.87,0-1.49-0.67-1.49-1.51c0-0.87,0.64-1.54,1.54-1.54
			C222.54,33.93,223.13,34.6,223.13,35.47z M220.38,52.85V39.28h2.47v13.57H220.38z"/>
		<path class="st2" d="M226.94,42.95c0-1.4-0.03-2.55-0.11-3.67h2.16l0.11,2.19h0.08c0.76-1.29,2.02-2.49,4.26-2.49
			c1.85,0,3.25,1.12,3.84,2.72h0.06c0.42-0.76,0.95-1.35,1.51-1.77c0.81-0.62,1.71-0.95,3-0.95c1.79,0,4.46,1.18,4.46,5.89v7.99
			h-2.41v-7.68c0-2.61-0.95-4.18-2.94-4.18c-1.4,0-2.5,1.04-2.92,2.24c-0.11,0.34-0.2,0.78-0.2,1.23v8.38h-2.41v-8.13
			c0-2.16-0.95-3.73-2.83-3.73c-1.54,0-2.66,1.23-3.05,2.47c-0.14,0.36-0.2,0.78-0.2,1.21v8.19h-2.41V42.95z"/>
		<path class="st2" d="M257.82,52.85l-0.2-1.71h-0.08c-0.76,1.07-2.21,2.02-4.15,2.02c-2.75,0-4.15-1.93-4.15-3.9
			c0-3.28,2.92-5.07,8.16-5.05v-0.28c0-1.12-0.31-3.14-3.08-3.14c-1.26,0-2.58,0.39-3.53,1.01l-0.56-1.63
			c1.12-0.73,2.75-1.21,4.46-1.21c4.15,0,5.16,2.83,5.16,5.55v5.07c0,1.18,0.06,2.33,0.22,3.25H257.82z M257.46,45.92
			c-2.69-0.06-5.75,0.42-5.75,3.06c0,1.6,1.07,2.35,2.33,2.35c1.77,0,2.89-1.12,3.28-2.27c0.08-0.25,0.14-0.53,0.14-0.78V45.92z"/>
		<path class="st2" d="M263.82,42.95c0-1.4-0.03-2.55-0.11-3.67h2.16l0.11,2.19h0.08c0.76-1.29,2.02-2.49,4.26-2.49
			c1.85,0,3.25,1.12,3.84,2.72h0.06c0.42-0.76,0.95-1.35,1.51-1.77c0.81-0.62,1.71-0.95,3-0.95c1.79,0,4.46,1.18,4.46,5.89v7.99
			h-2.41v-7.68c0-2.61-0.95-4.18-2.94-4.18c-1.4,0-2.5,1.04-2.92,2.24c-0.11,0.34-0.2,0.78-0.2,1.23v8.38h-2.41v-8.13
			c0-2.16-0.95-3.73-2.83-3.73c-1.54,0-2.66,1.23-3.05,2.47c-0.14,0.36-0.2,0.78-0.2,1.21v8.19h-2.41V42.95z"/>
		<path class="st2" d="M288.56,46.51c0.06,3.34,2.19,4.71,4.65,4.71c1.77,0,2.83-0.31,3.76-0.7l0.42,1.77
			c-0.87,0.39-2.35,0.84-4.51,0.84c-4.18,0-6.67-2.75-6.67-6.84s2.41-7.32,6.36-7.32c4.43,0,5.61,3.9,5.61,6.39
			c0,0.5-0.06,0.9-0.08,1.15H288.56z M295.79,44.74c0.03-1.57-0.64-4.01-3.42-4.01c-2.49,0-3.59,2.3-3.78,4.01H295.79z"/>
		<path class="st2" d="M301.23,42.95c0-1.4-0.03-2.55-0.11-3.67h2.19l0.14,2.24h0.06c0.67-1.29,2.24-2.55,4.49-2.55
			c1.88,0,4.79,1.12,4.79,5.77v8.1h-2.47v-7.82c0-2.19-0.81-4.01-3.14-4.01c-1.63,0-2.89,1.15-3.31,2.52
			c-0.11,0.31-0.17,0.73-0.17,1.15v8.16h-2.47V42.95z"/>
		<path class="st2" d="M319.64,35.38v3.9h3.53v1.88h-3.53v7.32c0,1.68,0.48,2.63,1.85,2.63c0.64,0,1.12-0.08,1.43-0.17l0.11,1.85
			c-0.48,0.2-1.23,0.34-2.19,0.34c-1.15,0-2.07-0.36-2.66-1.04c-0.7-0.73-0.95-1.93-0.95-3.53v-7.4h-2.1v-1.88h2.1v-3.25
			L319.64,35.38z"/>
		<path class="st2" d="M327.15,46.51c0.06,3.34,2.19,4.71,4.65,4.71c1.77,0,2.83-0.31,3.76-0.7l0.42,1.77
			c-0.87,0.39-2.35,0.84-4.51,0.84c-4.18,0-6.67-2.75-6.67-6.84s2.41-7.32,6.36-7.32c4.43,0,5.61,3.9,5.61,6.39
			c0,0.5-0.06,0.9-0.08,1.15H327.15z M334.38,44.74c0.03-1.57-0.64-4.01-3.42-4.01c-2.49,0-3.59,2.3-3.78,4.01H334.38z"/>
		<path class="st2" d="M347.13,46.51c0.06,3.34,2.19,4.71,4.65,4.71c1.77,0,2.83-0.31,3.76-0.7l0.42,1.77
			c-0.87,0.39-2.35,0.84-4.51,0.84c-4.18,0-6.67-2.75-6.67-6.84s2.41-7.32,6.36-7.32c4.43,0,5.61,3.9,5.61,6.39
			c0,0.5-0.06,0.9-0.08,1.15H347.13z M354.36,44.74c0.03-1.57-0.64-4.01-3.42-4.01c-2.49,0-3.59,2.3-3.78,4.01H354.36z"/>
		<path class="st2" d="M359.8,42.95c0-1.4-0.03-2.55-0.11-3.67h2.19l0.14,2.24h0.06c0.67-1.29,2.24-2.55,4.49-2.55
			c1.88,0,4.79,1.12,4.79,5.77v8.1h-2.47v-7.82c0-2.19-0.81-4.01-3.14-4.01c-1.63,0-2.89,1.15-3.31,2.52
			c-0.11,0.31-0.17,0.73-0.17,1.15v8.16h-2.47V42.95z"/>
	</g>
</g>
</svg>
