<?xml version="1.0" encoding="utf-8"?>
<!-- Generator: Adobe Illustrator 24.1.3, SVG Export Plug-In . SVG Version: 6.00 Build 0)  -->
<svg version="1.1" id="Layer_1" xmlns="http://www.w3.org/2000/svg" xmlns:xlink="http://www.w3.org/1999/xlink" x="0px" y="0px"
	 viewBox="0 0 360 182" style="enable-background:new 0 0 360 182;" xml:space="preserve">
<style type="text/css">
	.st0{fill:#2B2B2B;}
	.st1{fill:#FFFFFF;}
	.st2{fill:none;}
	.st3{fill:#FFE161;}
	.st4{fill:#FFD815;}
</style>
<path class="st0" d="M315.8,22.34c-4.04-7.5-11.87-12.17-20.39-12.17L6.9,10.12v162.04l288.54-0.02c8.5,0,16.32-4.66,20.37-12.13
	L353,91.34L315.8,22.34z"/>
<g>
	<path class="st1" d="M127.65,103.03c4.19,0.02,7.77,0.52,10.74,1.52c2.97,1,5.41,2.39,7.32,4.18c1.91,1.79,3.29,3.96,4.17,6.5
		c0.87,2.54,1.3,5.36,1.28,8.46c-0.01,3.26-0.48,6.21-1.39,8.84c-0.92,2.63-2.35,4.88-4.3,6.74c-1.95,1.85-4.47,3.28-7.54,4.28
		c-3.08,1-6.8,1.49-11.14,1.47c-2.54-0.01-4.8-0.11-6.79-0.3c-1.99-0.19-4.07-0.44-6.24-0.76l0.16-39.89
		c2.17-0.25,4.48-0.49,6.91-0.71C123.25,103.13,125.53,103.03,127.65,103.03z M126.9,133.92c0.21,0,0.48,0.03,0.82,0.08
		c0.34,0.05,0.84,0.08,1.51,0.08c2.9,0.01,5.06-0.8,6.49-2.42c1.43-1.62,2.15-4.3,2.17-8.03c0.01-3.31-0.68-5.73-2.07-7.26
		c-1.39-1.53-3.38-2.3-5.97-2.32c-0.62,0-1.19,0.02-1.71,0.07c-0.52,0.05-0.91,0.1-1.17,0.15L126.9,133.92z"/>
	<path class="st1" d="M169.15,128.35c0.56,2.12,1.55,3.63,2.97,4.51c1.42,0.89,3.3,1.33,5.62,1.34c1.5,0.01,3.18-0.17,5.05-0.52
		c1.86-0.35,3.7-0.89,5.52-1.61c0.72,1.35,1.35,2.95,1.88,4.82c0.54,1.86,0.82,3.81,0.87,5.82c-4.61,1.69-9.32,2.52-14.14,2.5
		c-3.73-0.01-6.92-0.55-9.58-1.59c-2.66-1.05-4.83-2.49-6.5-4.33c-1.68-1.84-2.91-4.03-3.7-6.57c-0.79-2.54-1.18-5.31-1.17-8.31
		c0.01-2.95,0.44-5.72,1.27-8.3c0.84-2.58,2.09-4.83,3.75-6.74s3.74-3.41,6.23-4.52c2.49-1.1,5.39-1.65,8.7-1.63
		c2.74,0.01,5.18,0.49,7.33,1.43c2.14,0.94,3.96,2.23,5.46,3.86c1.49,1.64,2.63,3.61,3.43,5.91c0.79,2.31,1.18,4.8,1.17,7.49
		c0,1.4-0.08,2.65-0.21,3.76c-0.13,1.11-0.25,2.03-0.36,2.75L169.15,128.35z M175.42,113.08c-1.66-0.01-3.08,0.51-4.27,1.54
		c-1.2,1.03-1.9,2.63-2.11,4.8l12.42,0.05c-0.1-1.81-0.65-3.32-1.65-4.54C178.79,113.71,177.33,113.09,175.42,113.08z"/>
	<path class="st1" d="M197.62,131.25c0.01-2.53,0.56-4.63,1.65-6.28c1.09-1.65,2.49-2.96,4.21-3.94c1.71-0.98,3.6-1.65,5.67-2.03
		c2.07-0.38,4.09-0.57,6.05-0.56l4.74,0.02c-0.05-0.93-0.3-1.71-0.77-2.33c-0.46-0.62-1.06-1.1-1.78-1.44
		c-0.72-0.34-1.52-0.58-2.4-0.71c-0.88-0.13-1.79-0.2-2.72-0.21c-1.24,0-2.69,0.13-4.35,0.41c-1.66,0.28-3.37,0.72-5.13,1.34
		c-0.46-0.88-0.86-1.68-1.19-2.41c-0.33-0.73-0.59-1.47-0.77-2.21c-0.18-0.75-0.31-1.53-0.38-2.33c-0.08-0.8-0.11-1.72-0.11-2.76
		c2.49-0.82,4.96-1.43,7.42-1.83c2.46-0.4,4.67-0.6,6.64-0.6c2.69,0.01,5.12,0.35,7.29,1c2.17,0.66,4.02,1.66,5.54,3.01
		c1.52,1.35,2.69,3.08,3.51,5.18c0.82,2.1,1.22,4.6,1.21,7.49l-0.09,22.74c-1.97,0.56-4.35,1.12-7.15,1.68
		c-2.8,0.56-5.75,0.83-8.85,0.82c-2.69-0.01-5.16-0.27-7.41-0.77c-2.25-0.5-4.17-1.3-5.77-2.39c-1.6-1.09-2.85-2.53-3.75-4.32
		C198.05,136.03,197.61,133.84,197.62,131.25z M215.92,135.68c0.47,0,1.14-0.05,2.02-0.15c0.88-0.1,1.53-0.2,1.94-0.3l0.03-8.54
		l-4.42-0.02c-1.81-0.01-3.34,0.38-4.58,1.15c-1.24,0.77-1.87,1.85-1.88,3.25c0,1.03,0.23,1.85,0.69,2.45
		c0.46,0.6,1.04,1.05,1.74,1.36c0.7,0.31,1.45,0.52,2.25,0.63C214.51,135.62,215.25,135.67,215.92,135.68z"/>
	<path class="st1" d="M253.34,133.65l14.67,0.06c0.25,1.03,0.42,1.99,0.49,2.87c0.07,0.88,0.11,1.73,0.1,2.56
		c0,0.83-0.04,1.7-0.13,2.6c-0.08,0.9-0.25,1.87-0.52,2.91l-27.79-0.11l0.24-40.13c1.14-0.25,2.27-0.43,3.38-0.53
		c1.11-0.1,2.19-0.15,3.22-0.14c0.98,0,2.04,0.06,3.18,0.17c1.14,0.11,2.25,0.29,3.34,0.56L253.34,133.65z"/>
</g>
<g>
	<path class="st2" d="M187.36,53.5c-1.13-1.79-2.86-2.69-5.18-2.69c-2.32,0-4.03,0.9-5.14,2.69c-1.04,1.69-1.58,4.1-1.64,7.19h13.62
		C188.97,57.6,188.43,55.19,187.36,53.5z"/>
	<path class="st2" d="M177.05,68.91c1.11,1.79,2.82,2.69,5.14,2.69c2.32,0,4.04-0.9,5.18-2.69c1.13-1.79,1.7-4.35,1.7-7.67
		c0-0.2-0.02-0.36-0.02-0.55h-13.62c0,0.19-0.02,0.36-0.02,0.55C175.39,64.57,175.94,67.12,177.05,68.91z"/>
	<path class="st2" d="M127.42,68.56c1.53,1.66,3.77,2.49,6.72,2.49h1.42V60.69h-10.42c0,0.03-0.01,0.05-0.01,0.08
		C125.13,64.3,125.89,66.9,127.42,68.56z"/>
	<path class="st2" d="M273.15,71.12c0.21,0,0.49,0.03,0.83,0.08c0.34,0.05,0.85,0.08,1.54,0.08c2.95,0,5.15-0.83,6.6-2.49
		c1.44-1.65,2.16-4.35,2.17-8.1h-11.14V71.12z"/>
	<path class="st2" d="M282.16,53.22c-1.42-1.55-3.45-2.33-6.09-2.33c-0.63,0-1.21,0.03-1.74,0.08c-0.53,0.05-0.92,0.11-1.18,0.16
		v9.56h11.14c0-0.03,0-0.05,0-0.08C284.29,57.24,283.58,54.78,282.16,53.22z"/>
	<path class="st3" d="M125.64,57.1c0.34-1.19,0.88-2.23,1.62-3.12c0.74-0.9,1.71-1.61,2.92-2.13c1.21-0.53,2.69-0.79,4.43-0.79
		c1.11,0,2.42,0.17,3.95,0.51c1.53,0.34,3.19,0.88,4.98,1.62c0.47-1.16,0.88-2.2,1.22-3.12c0.34-0.92,0.63-1.79,0.87-2.61
		c0.24-0.82,0.44-1.62,0.59-2.41c0.16-0.79,0.26-1.63,0.32-2.53c-2.64-1.05-5.06-1.79-7.27-2.21c-2.21-0.42-4.24-0.63-6.08-0.63
		c-3.53,0-6.64,0.55-9.33,1.66c-2.69,1.11-4.94,2.61-6.76,4.51c-1.82,1.9-3.19,4.14-4.11,6.72c-0.91,2.56-1.37,5.27-1.38,8.14h13.51
		C125.14,59.46,125.3,58.26,125.64,57.1z"/>
	<path class="st4" d="M142.04,58.72c-0.95,0-1.94,0.05-2.96,0.16c-1.03,0.11-2.2,0.29-3.52,0.55v1.26h13.04v-1.26
		C146.07,58.95,143.88,58.72,142.04,58.72z"/>
	<path class="st4" d="M135.56,71.05h-1.42c-2.95,0-5.19-0.83-6.72-2.49c-1.53-1.66-2.29-4.25-2.29-7.78c0-0.03,0.01-0.05,0.01-0.08
		h-13.51c0,0.03-0.01,0.05-0.01,0.08c0,3,0.38,5.82,1.15,8.46c0.76,2.63,1.99,4.93,3.67,6.87c1.69,1.95,3.86,3.49,6.52,4.62
		c2.66,1.13,5.89,1.7,9.68,1.7c3.64,0,6.82-0.35,9.56-1.03c2.74-0.68,4.87-1.32,6.4-1.9V60.69h-13.04V71.05z"/>
	<path class="st4" d="M189.06,61.24c0,3.32-0.57,5.88-1.7,7.67c-1.13,1.79-2.86,2.69-5.18,2.69c-2.32,0-4.03-0.9-5.14-2.69
		c-1.11-1.79-1.66-4.35-1.66-7.67c0-0.2,0.02-0.36,0.02-0.55h-13.5c0,0.19-0.04,0.36-0.04,0.55c0,3.16,0.44,6.05,1.31,8.65
		s2.16,4.85,3.87,6.72c1.71,1.87,3.83,3.31,6.36,4.31c2.53,1,5.45,1.5,8.77,1.5c3.37,0,6.32-0.5,8.85-1.5
		c2.53-1,4.65-2.44,6.36-4.31c1.71-1.87,3-4.11,3.87-6.72s1.3-5.49,1.3-8.65c0-0.19-0.04-0.36-0.04-0.55h-13.5
		C189.04,60.88,189.06,61.05,189.06,61.24z"/>
	<path class="st3" d="M197.4,45.6c-1.71-1.9-3.83-3.36-6.36-4.38c-2.53-1.03-5.48-1.54-8.85-1.54c-3.32,0-6.24,0.51-8.77,1.54
		c-2.53,1.03-4.65,2.49-6.36,4.38c-1.71,1.9-3,4.18-3.87,6.84c-0.82,2.5-1.22,5.27-1.27,8.26h13.5c0.06-3.09,0.59-5.5,1.64-7.19
		c1.11-1.79,2.82-2.69,5.14-2.69c2.32,0,4.04,0.9,5.18,2.69c1.07,1.69,1.61,4.1,1.67,7.19h13.5c-0.05-2.99-0.45-5.76-1.26-8.26
		C200.4,49.77,199.11,47.49,197.4,45.6z"/>
	<path class="st4" d="M217.35,81.48h28.29c0.26-1.05,0.43-2.04,0.51-2.96c0.08-0.92,0.12-1.8,0.12-2.65c0-0.84-0.04-1.71-0.12-2.61
		c-0.08-0.9-0.25-1.87-0.51-2.92h-14.94l0.03-9.64h-13.34L217.35,81.48z"/>
	<path class="st3" d="M227.39,40.07c-1.16-0.1-2.24-0.16-3.24-0.16c-1.06,0-2.15,0.05-3.28,0.16c-1.13,0.11-2.28,0.29-3.44,0.55
		l-0.04,20.07h13.34l0.05-20.07C229.68,40.36,228.55,40.17,227.39,40.07z"/>
	<path class="st3" d="M273.15,51.13c0.26-0.05,0.66-0.1,1.18-0.16c0.53-0.05,1.11-0.08,1.74-0.08c2.63,0,4.66,0.78,6.09,2.33
		c1.42,1.55,2.13,4.02,2.13,7.39c0,0.03,0,0.05,0,0.08h13.51c0-0.03,0.01-0.05,0.01-0.08c0-3.16-0.45-6.03-1.34-8.61
		c-0.9-2.58-2.32-4.78-4.27-6.6c-1.95-1.82-4.44-3.23-7.47-4.23c-3.03-1-6.68-1.5-10.95-1.5c-2.16,0-4.48,0.12-6.95,0.36
		c-2.48,0.24-4.82,0.49-7.03,0.75v19.92h13.36V51.13z"/>
	<path class="st4" d="M284.29,60.69c-0.01,3.75-0.73,6.45-2.17,8.1c-1.45,1.66-3.65,2.49-6.6,2.49c-0.69,0-1.2-0.03-1.54-0.08
		c-0.34-0.05-0.62-0.08-0.83-0.08V60.69h-13.36v20.7c2.21,0.32,4.33,0.57,6.36,0.75c2.03,0.19,4.33,0.28,6.91,0.28
		c4.43,0,8.21-0.52,11.34-1.54c3.14-1.03,5.69-2.49,7.67-4.39c1.98-1.9,3.42-4.19,4.35-6.87c0.91-2.66,1.37-5.64,1.38-8.93H284.29z"
		/>
</g>
</svg>
