<svg id="Layer_1" data-name="Layer 1" xmlns="http://www.w3.org/2000/svg" xmlns:xlink="http://www.w3.org/1999/xlink" viewBox="0 0 375 72"><defs><style>.cls-1{fill:none;}.cls-2{fill:#0edbb3;}.cls-3{clip-path:url(#clip-path);}.cls-4{fill:#00927a;}.cls-5{fill:#b81f3b;}.cls-6{fill:url(#linear-gradient);}.cls-7{fill:#eb202c;}.cls-8{fill:url(#linear-gradient-2);}.cls-9{fill:#efaa1f;}.cls-10{fill:#fd0;}.cls-11,.cls-13{fill:#fff;}.cls-12,.cls-13{isolation:isolate;}.cls-13{font-size:14px;font-family:Lato-Bold, Lato;font-weight:700;}</style><clipPath id="clip-path"><rect class="cls-1" width="375" height="72"/></clipPath><linearGradient id="linear-gradient" x1="-2.85" y1="1084.1" x2="-1.85" y2="1084.1" gradientTransform="matrix(58.13, 0, 0, -65.31, 578.16, 70844.67)" gradientUnits="userSpaceOnUse"><stop offset="0" stop-color="#ed2b2f"/><stop offset="1" stop-color="#b81f3b"/></linearGradient><linearGradient id="linear-gradient-2" x1="-3.49" y1="1084.69" x2="-2.49" y2="1084.69" gradientTransform="matrix(49.87, 0, 0, -56.03, 511.04, 60810.45)" xlink:href="#linear-gradient"/></defs><title>Untitled-2</title><rect id="Rectangle_251" data-name="Rectangle 251" class="cls-2" width="375" height="72"/><g class="cls-3"><g id="Mask_Group_2" data-name="Mask Group 2"><g id="Group_434" data-name="Group 434"><path id="Path_818" data-name="Path 818" class="cls-4" d="M109.44,12.77,105,12.31h0a26.46,26.46,0,0,0-10.61,1c-.77.24-1.54.52-2.29.83A34.09,34.09,0,0,0,68.43,1L62.71.35A34.09,34.09,0,0,0,59.2.17c-.7,0-1.4,0-2.09.07a34.11,34.11,0,0,0-6.36,1,32.07,32.07,0,0,0-3.2,1,33.15,33.15,0,0,0-3.07,1.29,34.93,34.93,0,0,0-9.67,6.9,22.36,22.36,0,0,0-5.6-1.3l-3.83-.4h0a22.83,22.83,0,0,0-8,.59c-.72.19-1.44.41-2.14.67a22.72,22.72,0,0,0-4,1.92,23.33,23.33,0,0,0-8.38,8.73c-.36.66-.69,1.34-1,2A23.29,23.29,0,0,0,.11,29.38,22.25,22.25,0,0,0,0,31.67,24.64,24.64,0,0,0,4.9,46.1h0L19.64,64.25h0l3.84.4L32.86,57,54.15,83.22h0l5.72.59L86.33,62.32,98.29,77h0l4.46.46L123.92,60.3h0c5.2-4.85,8.71-10.78,9.46-18A26.92,26.92,0,0,0,109.44,12.77ZM97.7,45.37a33.89,33.89,0,0,0,1.36-6.61,34.82,34.82,0,0,0,0-7.43,10.9,10.9,0,1,1-.18,15.42,11.6,11.6,0,0,1-1.14-1.38ZM17.5,30.77a9.36,9.36,0,0,1,8.37-8.34,10.36,10.36,0,0,1,1.05.41A34.16,34.16,0,0,0,25,31.17a33.11,33.11,0,0,0,0,6.75c.08.84.21,1.66.35,2.48a6.74,6.74,0,0,1-7.82-9.63Z"/><g id="Group_433" data-name="Group 433"><g id="Group_426" data-name="Group 426"><g id="Group_424" data-name="Group 424"><path id="Path_819" data-name="Path 819" class="cls-5" d="M120.86,19.17c0-.17-.07-.33-.11-.5-.22-.45-.62-1.4-.76-1.76l-.14-.2a16,16,0,0,1-1.25-1.35l-.39-.31c-.23-.15-.47-.3-.71-.43-.06.05-.34,0-.77-.46l-.58-.25c-.5-.2-1.07-.31-1.56-.52l-.49-.09c-.7-.11-1.4-.18-2.11-.22h-.52c-1.28.3-2.64.34-3.94.68a7,7,0,0,1-5.49-.93,6.42,6.42,0,0,1-1,.91,9.44,9.44,0,0,1-6.22,1.85l-.28,0A8.43,8.43,0,0,1,90.43,14l-1.57-1.49c-.19-.25-.37-.5-.54-.76A27,27,0,0,0,75.83,31.79c-.75,7.21,1.48,13.67,5.58,19.48h0L92.57,65c3.31-2,6.72-3.76,10.14-5.57.91-.48,1.83-1,2.73-1.48.61-.33,1.21-.68,1.8-1l0,0c1.5-1.14,3-2.21,4.42-3.48l.08-.08c.19-.2.43-.42.46-.47.38-.44.74-.89,1.08-1.36s.56-.83.84-1.25l.11-.21a24.07,24.07,0,0,0,1.28-3.37,7,7,0,0,0,.17-.72c.18-1.1.12-.61,0,0,0,.19-.07.42-.12.7.09-.54.24-1.08.35-1.63,1.35-6.76,2.3-13.43,4.23-20.08.14-.45.26-.9.39-1.36,0-.2.1-.47.11-.59.13-1,.22-2,.33-2.93C120.93,19.79,120.92,19.47,120.86,19.17ZM101.44,44.92a10.9,10.9,0,1,1,12-9.72,10.9,10.9,0,0,1-12,9.72Z"/></g><path id="Path_820" data-name="Path 820" class="cls-6" d="M129.28,37.26A26.91,26.91,0,0,0,105.36,7.72l-4.46-.46A27,27,0,0,0,71.44,31.33C70.69,38.54,72.92,45,77,50.82h0L94.21,72l4.46.47,21.17-17.19h0C125,50.39,128.54,44.46,129.28,37.26Zm-16.72,9.58a18,18,0,0,1-20.83,4.71c-7.36-3.27-12.11-10.81-10.69-19,1.53-8.75,9.16-14.64,17.89-15.13a10.59,10.59,0,0,1,5.2.94,14.14,14.14,0,0,1,5.45,3.08c6.94,6.34,9.47,17.68,3,25.38Z"/><g id="Group_425" data-name="Group 425"><path id="Path_821" data-name="Path 821" class="cls-7" d="M124.82,36.8A26.83,26.83,0,1,0,71.47,31l0,.35C70.69,38.54,72.92,45,77,50.82h0L94.21,72l21.17-17.2h0C120.56,49.93,124.07,44,124.82,36.8ZM97.05,44.46a10.9,10.9,0,1,1,12-9.71,10.89,10.89,0,0,1-12,9.71Z"/></g></g><g id="Group_429" data-name="Group 429"><g id="Group_427" data-name="Group 427"><path id="Path_822" data-name="Path 822" class="cls-5" d="M38.43,13.89c0-.14-.06-.28-.1-.42-.18-.39-.53-1.21-.65-1.51l-.12-.17a14.55,14.55,0,0,1-1.07-1.16l-.34-.27a6.18,6.18,0,0,0-.61-.37s-.28,0-.66-.39l-.5-.22c-.43-.17-.91-.26-1.34-.44l-.42-.08a15.7,15.7,0,0,0-1.8-.19h-.46c-1.1.26-2.26.29-3.37.58a5.9,5.9,0,0,1-4.71-.8,5.18,5.18,0,0,1-.84.78,8,8,0,0,1-5.33,1.59l-.24,0a7.19,7.19,0,0,1-3.55-1.37L11,8.14a7.59,7.59,0,0,1-.46-.65A23.18,23.18,0,0,0-.21,24.72C-.85,30.9,1.06,36.45,4.58,41.43h0l9.58,11.79c2.84-1.7,5.76-3.22,8.7-4.77.78-.41,1.57-.83,2.35-1.27l1.54-.89h0c1.29-1,2.58-1.9,3.78-3l.07-.07c.16-.17.37-.36.41-.4.32-.37.62-.76.92-1.17s.48-.71.72-1.07a1.51,1.51,0,0,0,.09-.18,19.76,19.76,0,0,0,1.1-2.89c0-.16.1-.4.15-.61.15-.94.1-.53,0,0,0,.16-.06.35-.1.6.07-.47.2-.93.3-1.4,1.15-5.8,2-11.52,3.63-17.23.11-.39.22-.77.32-1.16,0-.17.09-.41.1-.51.11-.84.18-1.68.29-2.51C38.49,14.42,38.48,14.15,38.43,13.89ZM21.77,36A9.35,9.35,0,1,1,32,27.65,9.35,9.35,0,0,1,21.77,36Z"/></g><path id="Path_823" data-name="Path 823" class="cls-8" d="M45.66,29.41A23.1,23.1,0,0,0,25.14,4.07l-3.83-.4A23.15,23.15,0,0,0-4,24.33C-4.6,30.51-2.69,36.06.82,41h0L15.57,59.19l3.83.4L37.56,44.85h0C42,40.68,45,35.59,45.66,29.41ZM31.31,37.63a15.41,15.41,0,0,1-17.87,4C7.13,38.87,3.05,32.4,4.27,25.39c1.32-7.51,7.86-12.56,15.34-13a9.23,9.23,0,0,1,4.46.8,12.11,12.11,0,0,1,4.68,2.65c6,5.44,8.13,15.17,2.56,21.77Z"/><g id="Group_428" data-name="Group 428"><path id="Path_824" data-name="Path 824" class="cls-7" d="M41.83,29A23,23,0,0,0-4,24.33C-4.6,30.51-2.69,36.06.82,41.05h0L15.57,59.2,33.73,44.45h0C38.18,40.29,41.19,35.2,41.83,29ZM18,35.6a9.35,9.35,0,1,1,10.26-8.34A9.35,9.35,0,0,1,18,35.6Z"/></g></g><g id="Group_432" data-name="Group 432"><path id="Path_825" data-name="Path 825" class="cls-9" d="M95,33.71A34.47,34.47,0,0,0,64.36-4.11L58.64-4.7A34.52,34.52,0,0,0,20.92,26.13c-1,9.22,1.9,17.5,7.15,24.94h0l22,27.09,5.71.59,27.1-22h0C89.54,50.53,94,42.94,95,33.71Z"/><g id="Group_430" data-name="Group 430"><path id="Path_826" data-name="Path 826" class="cls-10" d="M89.27,33.12A34.35,34.35,0,0,0,21,25.74c0,.13,0,.26,0,.39-1,9.22,1.9,17.5,7.15,24.94h0l22,27.09,27.1-22h0C83.82,49.94,88.31,42.35,89.27,33.12Z"/></g><path id="Path_827" data-name="Path 827" class="cls-11" d="M54,40.75l11.6,7.71-.93-13.9,10.92-8.64-13.5-3.41L57.28,9.45,49.86,21.24l-13.92.57,8.93,10.7L41.11,45.93Z"/><g id="Group_431" data-name="Group 431"><path id="Path_828" data-name="Path 828" class="cls-9" d="M54.82,21l4.25-6.75L57.28,9.45,49.86,21.24Z"/><path id="Path_829" data-name="Path 829" class="cls-9" d="M59,40.54l-5,.21,11.6,7.71-.24-3.67Z"/><path id="Path_830" data-name="Path 830" class="cls-9" d="M46.63,43.72l3.19-11.41L40.9,21.61l-5,.2,8.92,10.7L41.11,45.93Z"/></g></g></g></g></g></g><g id="Mis_direcciones" data-name="Mis direcciones" class="cls-12"><text class="cls-13" transform="translate(262 44)">Mis direcciones</text></g></svg>