<svg id="Layer_1" data-name="Layer 1" xmlns="http://www.w3.org/2000/svg" xmlns:xlink="http://www.w3.org/1999/xlink" viewBox="0 0 500 500"><defs><style>.cls-1{fill:none;}.cls-2{clip-path:url(#clip-path);}.cls-3{fill:#fff;}</style><clipPath id="clip-path"><rect class="cls-1" x="-0.5" y="-0.5" width="500" height="501"/></clipPath></defs><title>Untitled-1</title><g class="cls-2"><path class="cls-3" d="M615,259a107.74,107.74,0,0,0-50.59-77.82,109.62,109.62,0,0,0-93.95-9.93,155.47,155.47,0,0,0-16.85,7.38l-3.81,1.84L447.58,178c-4.39-4.89-8.84-9.84-13.55-14.88l3-8.65c5.6-16.35,11.4-33.25,16.82-50,.74-2.3,1.14-2.62,3.54-2.88,9.12-1,18.45-2.26,28.52-3.95,9-1.52,14.41-8.61,13.35-17.66s-7.37-14.1-16.9-13.5c-9.85.62-19.63,1.48-29.06,2.57-18.07,2.08-37.52,4.47-59.46,7.29-8.33,1.07-13.76,8-13.19,16.9.54,8.59,6.65,14.42,15.2,14.5,4.15,0,8.28-.3,12.5-.68,3.35-.3,6.68-.66,10.17-1l-13.41,41.17-131.19-34.6,9.24-20.3-4.69-2.5-8.23-4.44c-6.58-3.57-12.8-6.94-19.3-10.16-3.27-1.62-4.75-3.46-5.45-6.8a188.58,188.58,0,0,0-5.86-21.72c-1.21-3.55-4.33-8-8.57-9.9a15.48,15.48,0,0,0-16.25,1.85,16.25,16.25,0,0,0-5.64,16c2.38,12.13,5.07,23.91,7.62,34.84A12.46,12.46,0,0,0,222.6,97c5.37,3,10.81,5.91,16.31,8.82l1.12.6-8,17.06c-6.59,14.09-13.41,28.65-20,43a7.51,7.51,0,0,1-.36.71c-.2,0-.47-.1-.81-.2-15.24-4.51-32-5.05-49.7-1.62C103,176.62,65.71,230,74.46,289.56c8.6,58.52,63.5,99.4,122.37,91.15,35.08-4.91,64.67-24.95,81.19-54.95,16.92-30.73,18.08-67.25,3.19-100.19-8.21-18.15-21.57-33.38-39.7-45.28,2.5-4.85,4.93-9.73,7.36-14.61.72-1.46,1.45-2.91,2.17-4.36l13.36,15.86Q314.89,237.08,365.29,297a12.18,12.18,0,0,0,11.13,4.68c5.83-.5,12-.89,18.72-1.19l3-.15,2.68-.13c.05.18.09.36.13.54.29,1.23.65,2.73,1.18,4.58,13.42,46.56,56.4,78,104.6,78,3.56,0,7.15-.17,10.75-.52a108,108,0,0,0,74.81-40.34C610.92,319.08,619,289.42,615,259ZM394.19,178.47l-24.48,72.81L284.05,149.09Zm30.34,23.26c-1.78,2.8-3.64,5.55-5.49,8.31l-1.54,2.3,4.57-13.44C422.93,199.86,423.74,200.79,424.53,201.73Zm6.16,63.71c1.48-13.68,6.66-26.23,16.18-39,11.18,11.87,21.93,23.37,32.62,35.67-3.45.28-6.72.54-10,.77Q450.1,264.21,430.69,265.44Zm45.5,29.72,24.24-1.72c8.51-.59,17-1.15,25.66-1.72l24.28-1.62-77.94-84.49a69.87,69.87,0,0,1,18.32-6.29c39.14-8.12,77.39,14.08,88.93,51.63,6.48,21.07,4.39,42.73-5.89,61s-27.33,31-48.2,36.27c-39.84,10-77.93-11-91.51-50.09C448.12,297.17,462.15,296.16,476.19,295.16ZM196,199.27c-2.67,5.9-5.3,11.7-7.95,17.49l-7.77,16.93q-7.83,17-15.57,34.07c-1.34,2.95-4.11,9.08-.43,15.43,3.22,5.56,8.46,8.56,14.5,8.37a15.49,15.49,0,0,0,14.16-9.14L196,276q11.42-23.75,22.81-47.5,4-8.29,7.91-16.62l.66-1.39c28.37,19.64,39.45,57.73,25.73,91.22-10.05,24.49-27.56,36-40.49,41.39a77.77,77.77,0,0,1-59.33.06,76.18,76.18,0,0,1-41.63-41.46,77.24,77.24,0,0,1,.21-58.81c14.39-34.27,45-46.81,70.38-46.81a72.26,72.26,0,0,1,14.51,1.44Z"/></g></svg>