<svg id="Layer_1" data-name="Layer 1" xmlns="http://www.w3.org/2000/svg" xmlns:xlink="http://www.w3.org/1999/xlink" viewBox="0 0 132 132"><defs><style>.cls-1{fill:none;}.cls-2{fill:#41d803;}.cls-3{clip-path:url(#clip-path);}.cls-4{fill:#fff;}</style><clipPath id="clip-path"><ellipse class="cls-1" cx="65.71" cy="65.86" rx="58.86" ry="58.83"/></clipPath></defs><title>Untitled-6</title><ellipse class="cls-2" cx="65.71" cy="65.86" rx="58.86" ry="58.83"/><g class="cls-3"><path class="cls-4" d="M154.24,81.52a28.54,28.54,0,0,0-13.42-20.63,29,29,0,0,0-24.9-2.63,42.78,42.78,0,0,0-4.47,2l-1,.49-.59-.65c-1.16-1.3-2.34-2.61-3.59-3.95l.79-2.29c1.48-4.33,3-8.82,4.45-13.25.2-.61.31-.7.94-.77,2.42-.25,4.9-.6,7.57-1a4.08,4.08,0,0,0,3.54-4.69c-.28-2.39-2-3.74-4.49-3.57s-5.2.39-7.7.68c-4.79.55-10,1.18-15.76,1.93a4,4,0,0,0-3.5,4.48,3.91,3.91,0,0,0,4,3.84c1.1,0,2.2-.08,3.31-.18l2.7-.27L98.59,51.89,63.8,42.71l2.45-5.38L65,36.67l-2.18-1.18c-1.75-1-3.4-1.84-5.12-2.69A2.33,2.33,0,0,1,56.27,31a49.83,49.83,0,0,0-1.56-5.76,4.64,4.64,0,0,0-2.27-2.62,4.12,4.12,0,0,0-4.31.49,4.31,4.31,0,0,0-1.49,4.24c.63,3.22,1.34,6.34,2,9.24a3.27,3.27,0,0,0,1.55,2c1.42.8,2.86,1.57,4.32,2.34l.3.16-2.12,4.52C51,49.31,49.16,53.17,47.42,57a1,1,0,0,1-.1.19l-.21,0a27.57,27.57,0,0,0-13.18-.43c-15.43,3-25.32,17.14-23,32.92a29,29,0,0,0,54,9.6,29.43,29.43,0,0,0,.84-26.56,28.21,28.21,0,0,0-10.52-12q1-1.92,2-3.87c.19-.38.38-.77.58-1.15l3.54,4.2Q74.67,75.72,88,91.6A3.19,3.19,0,0,0,91,92.84c1.55-.13,3.18-.23,5-.31l.79,0,.71,0s0,.09,0,.14c.07.32.17.72.31,1.21a28.78,28.78,0,0,0,27.73,20.69c.94,0,1.89,0,2.85-.14a28.63,28.63,0,0,0,19.83-10.69A29.13,29.13,0,0,0,154.24,81.52ZM95.7,60.17,89.21,79.48,66.5,52.38Zm8,6.17c-.47.74-1,1.47-1.45,2.2l-.41.61,1.21-3.56C103.32,65.84,103.53,66.09,103.74,66.34Zm1.63,16.89a20.8,20.8,0,0,1,4.29-10.35c3,3.15,5.82,6.2,8.65,9.46l-2.65.2C112.24,82.78,108.8,83,105.37,83.23Zm12.07,7.88,6.42-.46,6.81-.45,6.43-.43-20.66-22.4a18.16,18.16,0,0,1,4.86-1.67,20.27,20.27,0,0,1,9.23,39.47c-10.56,2.66-20.66-2.91-24.26-13.28ZM43.15,65.69,41,70.32,39,74.81c-1.38,3-2.77,6-4.13,9a4.3,4.3,0,0,0-.11,4.1,4.18,4.18,0,0,0,3.84,2.21,4.09,4.09,0,0,0,3.75-2.42L43.15,86,49.2,73.45q1-2.2,2.09-4.41l.18-.37a20.13,20.13,0,0,1,6.82,24.18,19.53,19.53,0,0,1-10.74,11,20.58,20.58,0,0,1-15.72,0,20.14,20.14,0,0,1-11-11,20.48,20.48,0,0,1,.05-15.59,20.16,20.16,0,0,1,22.51-12Z"/></g><path class="cls-4" d="M65.71,132a66.12,66.12,0,1,1,66.15-66.12A66.21,66.21,0,0,1,65.71,132Zm0-117.65a51.53,51.53,0,1,0,51.56,51.53A51.61,51.61,0,0,0,65.71,14.33Z"/></svg>