<?xml version="1.0" encoding="utf-8"?>
<!-- Generator: Adobe Illustrator 19.0.0, SVG Export Plug-In . SVG Version: 6.00 Build 0)  -->
<svg version="1.1" id="Layer_1" xmlns="http://www.w3.org/2000/svg" xmlns:xlink="http://www.w3.org/1999/xlink" x="0px" y="0px"
	 viewBox="0 0 245.3 63.3" style="enable-background:new 0 0 245.3 63.3;" xml:space="preserve">
<style type="text/css">
	.st0{fill:#442C76;}
	.st1{fill:#633E97;}
	.st2{clip-path:url(#XMLID_28_);}
	.st3{fill:#FEDD00;}
	.st4{fill:#FFFFFF;}
</style>
<g id="XMLID_3490_">
	<g id="XMLID_7806_">
		<path id="XMLID_7811_" class="st0" d="M230.7,61.8H15.3C8.1,61.8,2.2,56,2.2,48.8V14.6c0-7.2,5.9-13.1,13.1-13.1h215.4
			c7.2,0,13.1,5.9,13.1,13.1v34.2C243.7,56,237.9,61.8,230.7,61.8z"/>
	</g>
</g>
<g id="XMLID_2054_">
	<g id="XMLID_3029_">
		<path id="XMLID_3486_" class="st1" d="M49.5,61.8H15.3C8.1,61.8,2.2,56,2.2,48.8V14.6c0-7.2,5.9-13.1,13.1-13.1h34.2
			c7.2,0,13.1,5.9,13.1,13.1v34.2C62.6,56,56.7,61.8,49.5,61.8z"/>
	</g>
	<g id="XMLID_2109_">
		<defs>
			<path id="XMLID_2179_" d="M49.5,61.8H15.3C8.1,61.8,2.2,56,2.2,48.8V14.6c0-7.2,5.9-13.1,13.1-13.1h34.2
				c7.2,0,13.1,5.9,13.1,13.1v34.2C62.6,56,56.7,61.8,49.5,61.8z"/>
		</defs>
		<clipPath id="XMLID_28_">
			<use xlink:href="#XMLID_2179_"  style="overflow:visible;"/>
		</clipPath>
		<g id="XMLID_2180_" class="st2">
			<path id="XMLID_2189_" class="st0" d="M23,5.8c1.3-0.6,2.8-1.2,4.3-1.7c1.5-0.5,3.1-0.8,4.7-1.1c1.6-0.2,3.4-0.3,5.2-0.2
				c1.8,0.1,3.7,0.4,5.7,0.9c2.8,0.7,5.2,1.7,7.3,3c2.1,1.3,3.7,2.9,5,4.6c1.2,1.8,2,3.8,2.4,5.9c0.4,2.2,0.2,4.4-0.3,6.8
				c-0.6,2.3-1.4,4.2-2.4,5.7c-1,1.5-2.2,2.7-3.5,3.7c-1.3,1-2.6,1.8-4,2.4c-1.4,0.6-2.7,1.2-3.9,1.7c-1.2,0.5-2.3,1.1-3.3,1.6
				c-0.9,0.6-1.6,1.3-2,2.2l-2.8,6l-9.5-2.4l0.8-7.5c0-0.2,0-0.4,0.1-0.6c0-0.2,0.1-0.4,0.1-0.5c0.3-1.3,0.9-2.4,1.8-3.2
				c0.9-0.8,1.9-1.5,3-2.1c1.2-0.6,2.4-1.1,3.7-1.6c1.3-0.5,2.5-1.1,3.7-1.7s2.2-1.4,3.1-2.4c0.9-0.9,1.5-2.1,1.9-3.6
				c0.4-1.8,0.2-3.4-0.7-4.7c-0.9-1.4-2.4-2.3-4.5-2.8c-1.6-0.4-2.9-0.6-4.1-0.5c-1.1,0.1-2.1,0.2-3,0.4c-0.9,0.2-1.6,0.4-2.3,0.6
				c-0.6,0.2-1.3,0.2-1.8,0.1c-1.3-0.3-2.1-1.1-2.5-2.4L23,5.8z M18.2,60.1c0.3-1.1,0.7-2,1.4-2.8c0.6-0.8,1.4-1.5,2.3-2
				c0.9-0.5,1.8-0.9,2.9-1s2.1-0.1,3.3,0.2c1.1,0.3,2.1,0.7,2.9,1.4c0.9,0.6,1.6,1.4,2.1,2.3c0.5,0.9,0.9,1.8,1.1,2.8
				c0.2,1,0.1,2.1-0.1,3.2c-0.3,1.1-0.7,2-1.4,2.9c-0.6,0.8-1.4,1.5-2.3,2c-0.9,0.5-1.9,0.8-2.9,1c-1.1,0.1-2.1,0.1-3.2-0.2
				c-1.1-0.3-2.1-0.7-3-1.4c-0.9-0.6-1.6-1.4-2.1-2.2c-0.5-0.9-0.9-1.8-1-2.9C17.9,62.2,17.9,61.1,18.2,60.1z"/>
		</g>
		<g id="XMLID_2330_" class="st2">
			<path id="XMLID_2337_" class="st3" d="M18.5,1.3c1.3-0.6,2.8-1.2,4.3-1.7c1.5-0.5,3.1-0.8,4.7-1.1c1.6-0.2,3.4-0.3,5.2-0.2
				c1.8,0.1,3.7,0.4,5.7,0.9c2.8,0.7,5.2,1.7,7.3,3c2.1,1.3,3.7,2.9,5,4.6c1.2,1.8,2,3.8,2.4,5.9c0.4,2.2,0.2,4.4-0.3,6.8
				c-0.6,2.3-1.4,4.2-2.4,5.7c-1,1.5-2.2,2.7-3.5,3.7c-1.3,1-2.6,1.8-4,2.4c-1.4,0.6-2.7,1.2-3.9,1.7c-1.2,0.5-2.3,1.1-3.3,1.6
				c-0.9,0.6-1.6,1.3-2,2.2l-2.8,6l-9.5-2.4l0.8-7.5c0-0.2,0-0.4,0.1-0.6c0-0.2,0.1-0.4,0.1-0.5c0.3-1.3,0.9-2.4,1.8-3.2
				c0.9-0.8,1.9-1.5,3-2.1c1.2-0.6,2.4-1.1,3.7-1.6c1.3-0.5,2.5-1.1,3.7-1.7c1.2-0.6,2.2-1.4,3.1-2.4c0.9-0.9,1.5-2.1,1.9-3.6
				c0.4-1.8,0.2-3.4-0.7-4.7c-0.9-1.4-2.4-2.3-4.5-2.8c-1.6-0.4-2.9-0.6-4.1-0.5c-1.1,0.1-2.1,0.2-3,0.4c-0.9,0.2-1.6,0.4-2.3,0.6
				c-0.6,0.2-1.3,0.2-1.8,0.1c-1.3-0.3-2.1-1.1-2.5-2.4L18.5,1.3z M13.8,55.6c0.3-1.1,0.7-2,1.4-2.8c0.6-0.8,1.4-1.5,2.3-2
				c0.9-0.5,1.8-0.9,2.9-1s2.1-0.1,3.3,0.2c1.1,0.3,2.1,0.7,2.9,1.4c0.9,0.6,1.6,1.4,2.1,2.3c0.5,0.9,0.9,1.8,1.1,2.8
				c0.2,1,0.1,2.1-0.1,3.2c-0.3,1.1-0.7,2-1.4,2.9c-0.6,0.8-1.4,1.5-2.3,2C25,65,24,65.3,23,65.4c-1.1,0.1-2.1,0.1-3.2-0.2
				c-1.1-0.3-2.1-0.7-3-1.4c-0.9-0.6-1.6-1.4-2.1-2.2c-0.5-0.9-0.9-1.8-1-2.9C13.4,57.8,13.5,56.7,13.8,55.6z"/>
		</g>
	</g>
</g>
<g id="XMLID_2319_">
	<path id="XMLID_2541_" class="st4" d="M102.2,37.7v-9.5h1.1c0.1,0,0.2,0,0.3,0.1c0.1,0.1,0.1,0.1,0.2,0.2l0.1,0.7
		c0.3-0.3,0.6-0.6,1-0.8c0.4-0.2,0.8-0.3,1.3-0.3c0.4,0,0.8,0.1,1.1,0.2c0.3,0.2,0.6,0.4,0.8,0.7s0.4,0.7,0.5,1.1s0.2,1,0.2,1.6
		c0,0.5-0.1,1-0.2,1.5c-0.1,0.5-0.4,0.9-0.6,1.2c-0.3,0.3-0.6,0.6-1,0.8c-0.4,0.2-0.8,0.3-1.3,0.3c-0.4,0-0.8-0.1-1-0.2
		c-0.3-0.1-0.5-0.3-0.8-0.5v2.9H102.2z M105.5,29.5c-0.4,0-0.7,0.1-0.9,0.2c-0.3,0.2-0.5,0.4-0.7,0.6v3.2c0.2,0.2,0.4,0.4,0.6,0.5
		s0.5,0.1,0.7,0.1c0.3,0,0.5,0,0.7-0.1c0.2-0.1,0.4-0.2,0.5-0.4c0.1-0.2,0.3-0.5,0.3-0.8c0.1-0.3,0.1-0.7,0.1-1.1
		c0-0.4,0-0.8-0.1-1.1c-0.1-0.3-0.2-0.5-0.3-0.7s-0.3-0.3-0.5-0.4S105.8,29.5,105.5,29.5z"/>
	<path id="XMLID_7813_" class="st4" d="M110.1,35.4v-7.2h1c0.2,0,0.3,0,0.4,0.1s0.1,0.2,0.1,0.3l0.1,0.9c0.3-0.4,0.6-0.8,0.9-1
		s0.7-0.4,1.2-0.4c0.4,0,0.6,0.1,0.9,0.2l-0.2,1.3c0,0.1,0,0.1-0.1,0.2c0,0-0.1,0.1-0.2,0.1c-0.1,0-0.2,0-0.3,0c-0.1,0-0.3,0-0.5,0
		c-0.4,0-0.7,0.1-0.9,0.3c-0.3,0.2-0.5,0.5-0.7,0.9v4.5H110.1z"/>
	<path id="XMLID_8635_" class="st4" d="M118.8,28.1c0.5,0,0.9,0.1,1.2,0.2c0.4,0.1,0.7,0.4,1,0.6s0.5,0.6,0.6,1
		c0.2,0.4,0.2,0.9,0.2,1.4c0,0.1,0,0.2,0,0.3c0,0.1,0,0.2-0.1,0.2c0,0-0.1,0.1-0.1,0.1c-0.1,0-0.1,0-0.2,0h-4.4
		c0.1,0.7,0.2,1.3,0.6,1.6c0.3,0.3,0.8,0.5,1.4,0.5c0.3,0,0.5,0,0.7-0.1s0.4-0.1,0.5-0.2c0.2-0.1,0.3-0.2,0.4-0.2
		c0.1-0.1,0.2-0.1,0.3-0.1c0.1,0,0.1,0,0.2,0c0.1,0,0.1,0.1,0.1,0.1l0.5,0.6c-0.2,0.2-0.4,0.4-0.6,0.6c-0.2,0.2-0.5,0.3-0.7,0.4
		c-0.3,0.1-0.5,0.2-0.8,0.2c-0.3,0-0.5,0.1-0.8,0.1c-0.5,0-1-0.1-1.4-0.2c-0.4-0.2-0.8-0.4-1.1-0.7s-0.6-0.7-0.7-1.2
		c-0.2-0.5-0.3-1-0.3-1.7c0-0.5,0.1-1,0.2-1.4c0.2-0.4,0.4-0.8,0.7-1.1c0.3-0.3,0.7-0.6,1.1-0.8C117.8,28.2,118.3,28.1,118.8,28.1z
		 M118.8,29.3c-0.5,0-0.9,0.1-1.2,0.4c-0.3,0.3-0.5,0.7-0.5,1.2h3.2c0-0.2,0-0.4-0.1-0.6c-0.1-0.2-0.2-0.4-0.3-0.5s-0.3-0.3-0.5-0.4
		C119.3,29.4,119.1,29.3,118.8,29.3z"/>
	<path id="XMLID_8638_" class="st4" d="M125.8,28.1c0.3,0,0.6,0,0.9,0.1c0.3,0.1,0.5,0.2,0.7,0.3h2.1v0.6c0,0.1,0,0.2-0.1,0.3
		s-0.2,0.1-0.3,0.1l-0.6,0.1c0,0.1,0.1,0.3,0.1,0.4c0,0.1,0,0.3,0,0.4c0,0.4-0.1,0.7-0.2,1s-0.3,0.5-0.6,0.7
		c-0.2,0.2-0.5,0.4-0.9,0.5c-0.3,0.1-0.7,0.2-1.1,0.2c-0.3,0-0.5,0-0.8-0.1c-0.2,0.1-0.3,0.3-0.3,0.5c0,0.1,0.1,0.3,0.2,0.3
		c0.1,0.1,0.3,0.1,0.5,0.1c0.2,0,0.5,0,0.7,0s0.6,0,0.8,0c0.3,0,0.6,0.1,0.8,0.1s0.5,0.2,0.7,0.3c0.2,0.1,0.4,0.3,0.5,0.5
		c0.1,0.2,0.2,0.5,0.2,0.8c0,0.3-0.1,0.6-0.2,0.9s-0.4,0.6-0.7,0.8c-0.3,0.2-0.7,0.4-1.1,0.6c-0.4,0.1-0.9,0.2-1.5,0.2
		c-0.5,0-1-0.1-1.4-0.2c-0.4-0.1-0.7-0.2-1-0.4c-0.3-0.2-0.5-0.4-0.6-0.6c-0.1-0.2-0.2-0.5-0.2-0.7c0-0.3,0.1-0.6,0.3-0.8
		c0.2-0.2,0.5-0.4,0.9-0.5c-0.2-0.1-0.3-0.2-0.4-0.4c-0.1-0.2-0.2-0.4-0.2-0.6c0-0.1,0-0.2,0.1-0.3c0-0.1,0.1-0.2,0.2-0.3
		c0.1-0.1,0.2-0.2,0.3-0.3s0.3-0.2,0.4-0.3c-0.4-0.2-0.6-0.5-0.9-0.8c-0.2-0.3-0.3-0.7-0.3-1.1c0-0.4,0.1-0.7,0.2-1s0.3-0.5,0.6-0.7
		c0.3-0.2,0.6-0.4,0.9-0.5S125.4,28.1,125.8,28.1z M127.7,35.7c0-0.1,0-0.3-0.1-0.3c-0.1-0.1-0.2-0.2-0.3-0.2
		c-0.1-0.1-0.3-0.1-0.5-0.1c-0.2,0-0.4,0-0.6,0c-0.2,0-0.4,0-0.7,0s-0.5,0-0.7-0.1c-0.2,0.1-0.4,0.2-0.5,0.4
		c-0.1,0.1-0.2,0.3-0.2,0.5c0,0.1,0,0.2,0.1,0.4s0.2,0.2,0.3,0.3c0.1,0.1,0.3,0.1,0.5,0.2c0.2,0,0.5,0.1,0.8,0.1
		c0.3,0,0.6,0,0.8-0.1c0.2,0,0.4-0.1,0.6-0.2c0.2-0.1,0.3-0.2,0.3-0.3C127.6,36,127.7,35.8,127.7,35.7z M125.8,31.6
		c0.2,0,0.4,0,0.6-0.1c0.2-0.1,0.3-0.1,0.4-0.2c0.1-0.1,0.2-0.2,0.2-0.4s0.1-0.3,0.1-0.5c0-0.4-0.1-0.6-0.3-0.8s-0.5-0.3-1-0.3
		c-0.4,0-0.7,0.1-1,0.3s-0.3,0.5-0.3,0.8c0,0.2,0,0.3,0.1,0.5s0.1,0.3,0.2,0.4c0.1,0.1,0.2,0.2,0.4,0.2
		C125.4,31.6,125.6,31.6,125.8,31.6z"/>
	<path id="XMLID_8646_" class="st4" d="M132.1,28.2v4.6c0,0.4,0.1,0.8,0.3,1c0.2,0.2,0.5,0.4,0.9,0.4c0.3,0,0.6-0.1,0.8-0.2
		s0.5-0.3,0.7-0.5v-5.2h1.7v7.2h-1.1c-0.2,0-0.4-0.1-0.4-0.3l-0.1-0.6c-0.1,0.1-0.3,0.3-0.5,0.4c-0.2,0.1-0.3,0.2-0.5,0.3
		c-0.2,0.1-0.4,0.2-0.6,0.2c-0.2,0-0.4,0.1-0.7,0.1c-0.4,0-0.7-0.1-1-0.2c-0.3-0.1-0.6-0.3-0.8-0.6c-0.2-0.2-0.4-0.5-0.5-0.9
		c-0.1-0.3-0.2-0.7-0.2-1.1v-4.6H132.1z"/>
	<path id="XMLID_8648_" class="st4" d="M138.5,35.4v-7.2h1.1c0.2,0,0.4,0.1,0.4,0.3l0.1,0.6c0.1-0.1,0.3-0.3,0.5-0.4
		c0.2-0.1,0.3-0.2,0.5-0.3c0.2-0.1,0.4-0.2,0.6-0.2c0.2,0,0.4-0.1,0.7-0.1c0.4,0,0.7,0.1,1,0.2c0.3,0.1,0.6,0.3,0.8,0.6
		s0.4,0.5,0.5,0.9c0.1,0.3,0.2,0.7,0.2,1.1v4.6H143v-4.6c0-0.4-0.1-0.8-0.3-1s-0.5-0.4-0.9-0.4c-0.3,0-0.6,0.1-0.8,0.2
		c-0.3,0.1-0.5,0.3-0.7,0.6v5.2H138.5z"/>
	<path id="XMLID_8650_" class="st4" d="M148.8,35.5c-0.6,0-1.1-0.2-1.4-0.5s-0.5-0.8-0.5-1.5v-4h-0.7c-0.1,0-0.2,0-0.2-0.1
		c-0.1-0.1-0.1-0.2-0.1-0.3v-0.7l1.2-0.2l0.4-2c0-0.1,0.1-0.2,0.1-0.2c0.1-0.1,0.2-0.1,0.3-0.1h0.9v2.3h1.9v1.2h-1.9v3.9
		c0,0.2,0.1,0.4,0.2,0.5c0.1,0.1,0.3,0.2,0.4,0.2c0.1,0,0.2,0,0.3,0s0.1-0.1,0.2-0.1c0.1,0,0.1-0.1,0.1-0.1c0,0,0.1,0,0.1,0
		c0.1,0,0.1,0,0.1,0c0,0,0.1,0.1,0.1,0.1l0.5,0.8c-0.3,0.2-0.5,0.4-0.9,0.5S149.2,35.5,148.8,35.5z"/>
	<path id="XMLID_8652_" class="st4" d="M157.5,35.4h-0.8c-0.2,0-0.3,0-0.4-0.1c-0.1,0-0.2-0.1-0.2-0.3l-0.2-0.5
		c-0.2,0.2-0.4,0.3-0.5,0.4c-0.2,0.1-0.4,0.2-0.5,0.3c-0.2,0.1-0.4,0.1-0.6,0.2s-0.4,0.1-0.7,0.1c-0.3,0-0.6,0-0.8-0.1
		s-0.5-0.2-0.7-0.4c-0.2-0.2-0.3-0.4-0.4-0.6c-0.1-0.2-0.2-0.5-0.2-0.8c0-0.3,0.1-0.5,0.2-0.8c0.1-0.3,0.4-0.5,0.7-0.7
		c0.3-0.2,0.8-0.4,1.3-0.5c0.6-0.1,1.2-0.2,2.1-0.2v-0.4c0-0.5-0.1-0.8-0.3-1.1s-0.5-0.3-0.9-0.3c-0.3,0-0.5,0-0.7,0.1
		c-0.2,0.1-0.3,0.1-0.5,0.2c-0.1,0.1-0.3,0.2-0.4,0.2c-0.1,0.1-0.2,0.1-0.4,0.1c-0.1,0-0.2,0-0.3-0.1s-0.2-0.1-0.2-0.2l-0.3-0.6
		c0.8-0.8,1.8-1.1,3-1.1c0.4,0,0.8,0.1,1.1,0.2s0.6,0.3,0.8,0.6s0.4,0.5,0.5,0.9c0.1,0.3,0.2,0.7,0.2,1.1V35.4z M154.2,34.3
		c0.2,0,0.3,0,0.5,0c0.1,0,0.3-0.1,0.4-0.1s0.3-0.1,0.4-0.2c0.1-0.1,0.2-0.2,0.4-0.3v-1.2c-0.5,0-0.9,0-1.3,0.1s-0.6,0.1-0.8,0.2
		c-0.2,0.1-0.4,0.2-0.4,0.3c-0.1,0.1-0.1,0.3-0.1,0.4c0,0.3,0.1,0.5,0.3,0.7S153.9,34.3,154.2,34.3z"/>
	<path id="XMLID_8655_" class="st4" d="M163.5,29.6c0,0.1-0.1,0.1-0.1,0.2s-0.1,0-0.2,0c-0.1,0-0.2,0-0.3-0.1
		c-0.1,0-0.2-0.1-0.3-0.2c-0.1-0.1-0.3-0.1-0.4-0.2s-0.4-0.1-0.6-0.1c-0.3,0-0.6,0.1-0.8,0.2s-0.3,0.3-0.3,0.6c0,0.2,0,0.3,0.2,0.4
		c0.1,0.1,0.2,0.2,0.4,0.3c0.2,0.1,0.4,0.2,0.6,0.2c0.2,0.1,0.4,0.1,0.6,0.2c0.2,0.1,0.4,0.2,0.6,0.3s0.4,0.2,0.6,0.4
		c0.2,0.1,0.3,0.3,0.4,0.5c0.1,0.2,0.2,0.5,0.2,0.7c0,0.3-0.1,0.7-0.2,1s-0.3,0.5-0.6,0.8c-0.2,0.2-0.5,0.4-0.9,0.5
		s-0.8,0.2-1.2,0.2c-0.2,0-0.5,0-0.7-0.1c-0.2,0-0.5-0.1-0.7-0.2c-0.2-0.1-0.4-0.2-0.6-0.3c-0.2-0.1-0.3-0.2-0.5-0.3L159,34
		c0.1-0.1,0.1-0.1,0.2-0.2s0.2-0.1,0.3-0.1s0.2,0,0.3,0.1s0.2,0.1,0.3,0.2s0.3,0.1,0.4,0.2c0.2,0.1,0.4,0.1,0.6,0.1
		c0.2,0,0.4,0,0.5-0.1c0.1,0,0.3-0.1,0.4-0.2c0.1-0.1,0.2-0.2,0.2-0.3c0-0.1,0.1-0.2,0.1-0.3c0-0.2-0.1-0.3-0.2-0.4
		c-0.1-0.1-0.2-0.2-0.4-0.3c-0.2-0.1-0.4-0.2-0.6-0.2c-0.2-0.1-0.4-0.1-0.7-0.2c-0.2-0.1-0.4-0.2-0.7-0.3c-0.2-0.1-0.4-0.2-0.6-0.4
		c-0.2-0.2-0.3-0.3-0.4-0.6c-0.1-0.2-0.2-0.5-0.2-0.8c0-0.3,0.1-0.6,0.2-0.8c0.1-0.3,0.3-0.5,0.5-0.7c0.2-0.2,0.5-0.4,0.8-0.5
		s0.7-0.2,1.2-0.2c0.5,0,0.9,0.1,1.4,0.2c0.4,0.2,0.7,0.4,1,0.6L163.5,29.6z"/>
	<path id="XMLID_8657_" class="st4" d="M168.3,35.4v-5.9l-0.6-0.1c-0.1,0-0.2-0.1-0.3-0.1c-0.1-0.1-0.1-0.2-0.1-0.3v-0.7h1.1v-0.5
		c0-0.4,0.1-0.8,0.2-1.1c0.1-0.3,0.3-0.6,0.5-0.8c0.2-0.2,0.5-0.4,0.8-0.5c0.3-0.1,0.7-0.2,1.1-0.2c0.3,0,0.6,0,0.9,0.1l0,0.9
		c0,0.1-0.1,0.2-0.2,0.3c-0.1,0-0.3,0-0.4,0c-0.2,0-0.4,0-0.5,0.1c-0.2,0-0.3,0.1-0.4,0.2s-0.2,0.3-0.3,0.4
		c-0.1,0.2-0.1,0.4-0.1,0.7v0.5h1.9v1.2h-1.8v5.9H168.3z"/>
	<path id="XMLID_8659_" class="st4" d="M172.9,35.4v-7.2h1c0.2,0,0.3,0,0.4,0.1s0.1,0.2,0.1,0.3l0.1,0.9c0.3-0.4,0.6-0.8,0.9-1
		s0.7-0.4,1.2-0.4c0.4,0,0.6,0.1,0.9,0.2l-0.2,1.3c0,0.1,0,0.1-0.1,0.2c0,0-0.1,0.1-0.2,0.1c-0.1,0-0.2,0-0.3,0c-0.1,0-0.3,0-0.5,0
		c-0.4,0-0.7,0.1-0.9,0.3c-0.3,0.2-0.5,0.5-0.7,0.9v4.5H172.9z"/>
	<path id="XMLID_8661_" class="st4" d="M181.6,28.1c0.5,0,0.9,0.1,1.2,0.2c0.4,0.1,0.7,0.4,1,0.6s0.5,0.6,0.6,1
		c0.2,0.4,0.2,0.9,0.2,1.4c0,0.1,0,0.2,0,0.3c0,0.1,0,0.2-0.1,0.2c0,0-0.1,0.1-0.1,0.1c-0.1,0-0.1,0-0.2,0h-4.4
		c0.1,0.7,0.2,1.3,0.6,1.6c0.3,0.3,0.8,0.5,1.4,0.5c0.3,0,0.5,0,0.7-0.1s0.4-0.1,0.5-0.2c0.2-0.1,0.3-0.2,0.4-0.2
		c0.1-0.1,0.2-0.1,0.3-0.1c0.1,0,0.1,0,0.2,0c0.1,0,0.1,0.1,0.1,0.1l0.5,0.6c-0.2,0.2-0.4,0.4-0.6,0.6c-0.2,0.2-0.5,0.3-0.7,0.4
		c-0.3,0.1-0.5,0.2-0.8,0.2c-0.3,0-0.5,0.1-0.8,0.1c-0.5,0-1-0.1-1.4-0.2c-0.4-0.2-0.8-0.4-1.1-0.7s-0.6-0.7-0.7-1.2
		c-0.2-0.5-0.3-1-0.3-1.7c0-0.5,0.1-1,0.2-1.4c0.2-0.4,0.4-0.8,0.7-1.1c0.3-0.3,0.7-0.6,1.1-0.8C180.6,28.2,181.1,28.1,181.6,28.1z
		 M181.7,29.3c-0.5,0-0.9,0.1-1.2,0.4c-0.3,0.3-0.5,0.7-0.5,1.2h3.2c0-0.2,0-0.4-0.1-0.6c-0.1-0.2-0.2-0.4-0.3-0.5s-0.3-0.3-0.5-0.4
		C182.1,29.4,181.9,29.3,181.7,29.3z"/>
	<path id="XMLID_8664_" class="st4" d="M191.2,29.7c-0.1,0.1-0.1,0.1-0.2,0.2c0,0-0.1,0.1-0.2,0.1c-0.1,0-0.2,0-0.3-0.1
		s-0.2-0.1-0.3-0.2c-0.1-0.1-0.3-0.1-0.4-0.2c-0.2-0.1-0.4-0.1-0.6-0.1c-0.3,0-0.6,0.1-0.8,0.2c-0.2,0.1-0.4,0.3-0.6,0.5
		c-0.2,0.2-0.3,0.5-0.3,0.7c-0.1,0.3-0.1,0.6-0.1,1c0,0.4,0,0.7,0.1,1s0.2,0.5,0.4,0.8s0.3,0.4,0.6,0.5c0.2,0.1,0.5,0.2,0.7,0.2
		c0.3,0,0.5,0,0.7-0.1c0.2-0.1,0.3-0.1,0.4-0.2s0.2-0.2,0.3-0.2c0.1-0.1,0.2-0.1,0.3-0.1c0.1,0,0.2,0.1,0.3,0.2l0.5,0.6
		c-0.2,0.2-0.4,0.4-0.6,0.6c-0.2,0.2-0.5,0.3-0.7,0.4c-0.2,0.1-0.5,0.2-0.7,0.2c-0.3,0-0.5,0.1-0.8,0.1c-0.4,0-0.9-0.1-1.3-0.2
		c-0.4-0.2-0.7-0.4-1-0.7c-0.3-0.3-0.5-0.7-0.7-1.2s-0.3-1-0.3-1.6c0-0.5,0.1-1,0.2-1.5s0.4-0.8,0.7-1.2s0.7-0.6,1.1-0.8
		c0.4-0.2,0.9-0.3,1.5-0.3c0.5,0,1,0.1,1.4,0.3c0.4,0.2,0.8,0.4,1.1,0.7L191.2,29.7z"/>
	<path id="XMLID_8666_" class="st4" d="M194.4,28.2v4.6c0,0.4,0.1,0.8,0.3,1c0.2,0.2,0.5,0.4,0.9,0.4c0.3,0,0.6-0.1,0.8-0.2
		s0.5-0.3,0.7-0.5v-5.2h1.7v7.2h-1.1c-0.2,0-0.4-0.1-0.4-0.3l-0.1-0.6c-0.1,0.1-0.3,0.3-0.5,0.4c-0.2,0.1-0.3,0.2-0.5,0.3
		c-0.2,0.1-0.4,0.2-0.6,0.2c-0.2,0-0.4,0.1-0.7,0.1c-0.4,0-0.7-0.1-1-0.2c-0.3-0.1-0.6-0.3-0.8-0.6c-0.2-0.2-0.4-0.5-0.5-0.9
		c-0.1-0.3-0.2-0.7-0.2-1.1v-4.6H194.4z"/>
	<path id="XMLID_8668_" class="st4" d="M203.7,28.1c0.5,0,0.9,0.1,1.2,0.2c0.4,0.1,0.7,0.4,1,0.6s0.5,0.6,0.6,1
		c0.2,0.4,0.2,0.9,0.2,1.4c0,0.1,0,0.2,0,0.3c0,0.1,0,0.2-0.1,0.2c0,0-0.1,0.1-0.1,0.1c-0.1,0-0.1,0-0.2,0H202
		c0.1,0.7,0.2,1.3,0.6,1.6c0.3,0.3,0.8,0.5,1.4,0.5c0.3,0,0.5,0,0.7-0.1s0.4-0.1,0.5-0.2c0.2-0.1,0.3-0.2,0.4-0.2
		c0.1-0.1,0.2-0.1,0.3-0.1c0.1,0,0.1,0,0.2,0c0.1,0,0.1,0.1,0.1,0.1l0.5,0.6c-0.2,0.2-0.4,0.4-0.6,0.6c-0.2,0.2-0.5,0.3-0.7,0.4
		c-0.3,0.1-0.5,0.2-0.8,0.2c-0.3,0-0.5,0.1-0.8,0.1c-0.5,0-1-0.1-1.4-0.2c-0.4-0.2-0.8-0.4-1.1-0.7s-0.6-0.7-0.7-1.2
		c-0.2-0.5-0.3-1-0.3-1.7c0-0.5,0.1-1,0.2-1.4c0.2-0.4,0.4-0.8,0.7-1.1c0.3-0.3,0.7-0.6,1.1-0.8C202.7,28.2,203.2,28.1,203.7,28.1z
		 M203.8,29.3c-0.5,0-0.9,0.1-1.2,0.4c-0.3,0.3-0.5,0.7-0.5,1.2h3.2c0-0.2,0-0.4-0.1-0.6c-0.1-0.2-0.2-0.4-0.3-0.5s-0.3-0.3-0.5-0.4
		C204.3,29.4,204,29.3,203.8,29.3z"/>
	<path id="XMLID_8671_" class="st4" d="M208.3,35.4v-7.2h1.1c0.2,0,0.4,0.1,0.4,0.3l0.1,0.6c0.1-0.1,0.3-0.3,0.5-0.4
		c0.2-0.1,0.3-0.2,0.5-0.3c0.2-0.1,0.4-0.2,0.6-0.2c0.2,0,0.4-0.1,0.7-0.1c0.4,0,0.7,0.1,1,0.2c0.3,0.1,0.6,0.3,0.8,0.6
		s0.4,0.5,0.5,0.9c0.1,0.3,0.2,0.7,0.2,1.1v4.6h-1.7v-4.6c0-0.4-0.1-0.8-0.3-1s-0.5-0.4-0.9-0.4c-0.3,0-0.6,0.1-0.8,0.2
		c-0.3,0.1-0.5,0.3-0.7,0.6v5.2H208.3z"/>
	<path id="XMLID_8673_" class="st4" d="M218.6,35.5c-0.6,0-1.1-0.2-1.4-0.5s-0.5-0.8-0.5-1.5v-4h-0.7c-0.1,0-0.2,0-0.2-0.1
		c-0.1-0.1-0.1-0.2-0.1-0.3v-0.7l1.2-0.2l0.4-2c0-0.1,0.1-0.2,0.1-0.2c0.1-0.1,0.2-0.1,0.3-0.1h0.9v2.3h1.9v1.2h-1.9v3.9
		c0,0.2,0.1,0.4,0.2,0.5c0.1,0.1,0.3,0.2,0.4,0.2c0.1,0,0.2,0,0.3,0s0.1-0.1,0.2-0.1c0.1,0,0.1-0.1,0.1-0.1c0,0,0.1,0,0.1,0
		c0.1,0,0.1,0,0.1,0c0,0,0.1,0.1,0.1,0.1l0.5,0.8c-0.3,0.2-0.5,0.4-0.9,0.5S218.9,35.5,218.6,35.5z"/>
	<path id="XMLID_8675_" class="st4" d="M224.6,28.1c0.5,0,0.9,0.1,1.2,0.2c0.4,0.1,0.7,0.4,1,0.6s0.5,0.6,0.6,1
		c0.2,0.4,0.2,0.9,0.2,1.4c0,0.1,0,0.2,0,0.3c0,0.1,0,0.2-0.1,0.2c0,0-0.1,0.1-0.1,0.1c-0.1,0-0.1,0-0.2,0h-4.4
		c0.1,0.7,0.2,1.3,0.6,1.6c0.3,0.3,0.8,0.5,1.4,0.5c0.3,0,0.5,0,0.7-0.1s0.4-0.1,0.5-0.2c0.2-0.1,0.3-0.2,0.4-0.2
		c0.1-0.1,0.2-0.1,0.3-0.1c0.1,0,0.1,0,0.2,0c0.1,0,0.1,0.1,0.1,0.1l0.5,0.6c-0.2,0.2-0.4,0.4-0.6,0.6c-0.2,0.2-0.5,0.3-0.7,0.4
		c-0.3,0.1-0.5,0.2-0.8,0.2c-0.3,0-0.5,0.1-0.8,0.1c-0.5,0-1-0.1-1.4-0.2c-0.4-0.2-0.8-0.4-1.1-0.7s-0.6-0.7-0.7-1.2
		c-0.2-0.5-0.3-1-0.3-1.7c0-0.5,0.1-1,0.2-1.4c0.2-0.4,0.4-0.8,0.7-1.1c0.3-0.3,0.7-0.6,1.1-0.8C223.6,28.2,224.1,28.1,224.6,28.1z
		 M224.6,29.3c-0.5,0-0.9,0.1-1.2,0.4c-0.3,0.3-0.5,0.7-0.5,1.2h3.2c0-0.2,0-0.4-0.1-0.6c-0.1-0.2-0.2-0.4-0.3-0.5s-0.3-0.3-0.5-0.4
		C225.1,29.4,224.9,29.3,224.6,29.3z"/>
	<path id="XMLID_8678_" class="st4" d="M233.4,29.6c0,0.1-0.1,0.1-0.1,0.2s-0.1,0-0.2,0c-0.1,0-0.2,0-0.3-0.1
		c-0.1,0-0.2-0.1-0.3-0.2c-0.1-0.1-0.3-0.1-0.4-0.2s-0.4-0.1-0.6-0.1c-0.3,0-0.6,0.1-0.8,0.2s-0.3,0.3-0.3,0.6c0,0.2,0,0.3,0.2,0.4
		c0.1,0.1,0.2,0.2,0.4,0.3c0.2,0.1,0.4,0.2,0.6,0.2c0.2,0.1,0.4,0.1,0.6,0.2c0.2,0.1,0.4,0.2,0.6,0.3s0.4,0.2,0.6,0.4
		c0.2,0.1,0.3,0.3,0.4,0.5c0.1,0.2,0.2,0.5,0.2,0.7c0,0.3-0.1,0.7-0.2,1s-0.3,0.5-0.6,0.8c-0.2,0.2-0.5,0.4-0.9,0.5
		s-0.8,0.2-1.2,0.2c-0.2,0-0.5,0-0.7-0.1c-0.2,0-0.5-0.1-0.7-0.2c-0.2-0.1-0.4-0.2-0.6-0.3c-0.2-0.1-0.3-0.2-0.5-0.3l0.4-0.7
		c0.1-0.1,0.1-0.1,0.2-0.2s0.2-0.1,0.3-0.1s0.2,0,0.3,0.1s0.2,0.1,0.3,0.2s0.3,0.1,0.4,0.2c0.2,0.1,0.4,0.1,0.6,0.1
		c0.2,0,0.4,0,0.5-0.1c0.1,0,0.3-0.1,0.4-0.2c0.1-0.1,0.2-0.2,0.2-0.3c0-0.1,0.1-0.2,0.1-0.3c0-0.2-0.1-0.3-0.2-0.4
		c-0.1-0.1-0.2-0.2-0.4-0.3c-0.2-0.1-0.4-0.2-0.6-0.2c-0.2-0.1-0.4-0.1-0.7-0.2c-0.2-0.1-0.4-0.2-0.7-0.3c-0.2-0.1-0.4-0.2-0.6-0.4
		c-0.2-0.2-0.3-0.3-0.4-0.6c-0.1-0.2-0.2-0.5-0.2-0.8c0-0.3,0.1-0.6,0.2-0.8c0.1-0.3,0.3-0.5,0.5-0.7c0.2-0.2,0.5-0.4,0.8-0.5
		s0.7-0.2,1.2-0.2c0.5,0,0.9,0.1,1.4,0.2c0.4,0.2,0.7,0.4,1,0.6L233.4,29.6z"/>
</g>
</svg>
