<?xml version="1.0" encoding="utf-8"?>
<!-- Generator: Adobe Illustrator 24.1.3, SVG Export Plug-In . SVG Version: 6.00 Build 0)  -->
<svg version="1.1" id="Layer_1" xmlns="http://www.w3.org/2000/svg" xmlns:xlink="http://www.w3.org/1999/xlink" x="0px" y="0px"
	 viewBox="0 0 1199 1220" style="enable-background:new 0 0 1199 1220;" xml:space="preserve">
<style type="text/css">
	.st0{fill:#D53327;}
	.st1{fill:#BF211D;}
	.st2{fill:#EA4A47;}
	.st3{fill:#87B742;}
	.st4{fill:#C3E580;}
	.st5{fill:#A1CD57;}
	.st6{fill:#6AA02B;}
	.st7{fill:#FFD243;}
	.st8{fill:#F4B70B;}
	.st9{fill:#E09B03;}
	.st10{fill:#FFEEC2;}
	.st11{fill:#F9A427;}
	.st12{fill:#EF4A26;}
	.st13{fill:#FFFFFF;}
	.st14{fill:#9B1616;}
	.st15{fill:#7C0F0F;}
	.st16{fill:#CC3B3B;}
	.st17{fill:#9EF27C;}
	.st18{fill:#6CBC46;}
</style>
<g>
	<g id="XMLID_9862_">
		<path id="XMLID_9868_" class="st0" d="M540.92,295.61c-9.53-48.61-52.36-85.3-103.77-85.3c-6.38,0-12.62,0.57-18.69,1.65
			c-11.61,2.07-23.42,2.07-35.03,0c-6.07-1.08-12.31-1.65-18.69-1.65c-46.21,0-85.47,29.64-99.87,70.94
			c-0.02-0.01-0.03-0.02-0.05-0.03c-0.19,0.59-0.36,1.2-0.55,1.79c-1.32,4.01-2.42,8.11-3.25,12.32
			c-2.11,9.74-3.27,19.84-3.27,30.21c0,79.08,64.11,116.03,143.19,116.03s143.19-36.95,143.19-116.03
			C544.14,315.27,543,305.27,540.92,295.61z"/>
		<g id="XMLID_9866_">
			<path id="XMLID_9867_" class="st1" d="M540.92,295.61c-6.05-30.85-25.52-56.88-52.07-71.8c5.39,9.6,9.35,20.11,11.54,31.26
				c2.08,9.66,3.22,19.66,3.22,29.95c0,79.08-64.11,116.03-143.19,116.03c-33.99,0-65.19-6.85-89.74-20.91
				c22.58,41.62,72.4,61.44,130.27,61.44c79.08,0,143.19-36.95,143.19-116.03C544.14,315.27,543,305.27,540.92,295.61z"/>
		</g>
		<path id="XMLID_9865_" class="st2" d="M296.64,379.69c-4.02,0-7.91-2.13-9.99-5.9c-5.72-10.39-9.4-21.94-10.92-34.33
			c-0.77-6.24,3.67-11.93,9.91-12.7c6.25-0.77,11.93,3.67,12.7,9.91c1.17,9.5,3.95,18.29,8.26,26.12
			c3.04,5.51,1.03,12.44-4.48,15.47C300.38,379.23,298.5,379.69,296.64,379.69z"/>
		<path id="XMLID_9864_" class="st2" d="M288.81,313.52c-0.84,0-1.68-0.09-2.53-0.29c-6.13-1.39-9.98-7.5-8.58-13.63
			c6.01-26.46,21.1-48.62,42.48-62.4c5.29-3.41,12.34-1.88,15.75,3.4c3.41,5.29,1.88,12.34-3.4,15.75
			c-16.11,10.38-28,27.99-32.61,48.3C298.7,309.93,294.01,313.52,288.81,313.52z"/>
		<path id="XMLID_9863_" class="st3" d="M410.97,265.05L410.97,265.05c8.52,9.44,24.17,2.95,23.52-9.74
			c-0.41-7.99,6.19-14.59,14.18-14.18h0c12.7,0.65,19.18-15,9.74-23.52c-1.82-1.64-3.01-3.67-3.72-5.83
			c-5.71-0.95-11.57-1.47-17.55-1.47c-6.38,0-12.62,0.57-18.69,1.65c-11.61,2.07-23.42,2.07-35.03,0
			c-6.07-1.08-12.31-1.65-18.69-1.65c-5.98,0-11.84,0.52-17.55,1.47c-0.71,2.16-1.9,4.19-3.72,5.83
			c-9.44,8.52-2.95,24.17,9.74,23.52h0c7.99-0.41,14.59,6.19,14.18,14.18c-0.65,12.7,15,19.18,23.52,9.74v0
			C396.28,259.11,405.61,259.11,410.97,265.05z"/>
	</g>
	<g id="XMLID_9856_">
		<path id="XMLID_9861_" class="st4" d="M850.15,614.54c17.62-9.83,23.28-32.25,12.75-49.2l-93.1-149.86l-59.63,37.04l92.58,149.02
			C812.73,617.59,833.65,623.74,850.15,614.54z"/>
		
			<rect id="XMLID_9860_" x="683.55" y="359.22" transform="matrix(0.8494 -0.5277 0.5277 0.8494 -102.6898 439.4245)" class="st5" width="70.2" height="80.86"/>
		<g id="XMLID_9857_">
			<path id="XMLID_9859_" class="st3" d="M533.23,110.85l-15.58-22.18c-5.43-7.73-15.96-9.88-23.99-4.89l0,0
				c-8.5,5.28-10.99,16.53-5.5,24.91l161.79,246.89l17.56,28.26l29.81-18.52L540.1,112.25
				C538.01,113.55,535.07,113.48,533.23,110.85z"/>
			<path id="XMLID_9858_" class="st6" d="M559.91,64.1c-5.08-8.63-16.26-11.39-24.77-6.1c-8.03,4.99-10.77,15.37-6.24,23.67
				l12.98,23.8c1.54,2.82,0.3,5.48-1.79,6.78l157.22,253.06l29.81-18.52l-17.56-28.26L559.91,64.1z"/>
		</g>
	</g>
	<g id="XMLID_9849_">
		<path id="XMLID_9855_" class="st7" d="M345.37,316.54l174.18-43.03c68-16.8,139.94-0.88,194.5,43.03l0,0H345.37z"/>
		<path id="XMLID_9854_" class="st8" d="M345.37,316.54v120.24c19.76,0,35.78,16.02,35.78,35.78s-16.02,35.78-35.78,35.78v42.62
			h368.67V316.54H345.37z"/>
		<circle id="XMLID_9853_" class="st9" cx="423.12" cy="390.2" r="22.18"/>
		<circle id="XMLID_9852_" class="st9" cx="542.71" cy="469.39" r="41.18"/>
		<circle id="XMLID_9851_" class="st9" cx="613.19" cy="454.35" r="15.05"/>
		<path id="XMLID_9850_" class="st9" d="M572.09,316.54c-0.02,0.53-0.08,1.05-0.08,1.58c0,27.56,22.34,49.89,49.89,49.89
			c27.56,0,49.89-22.34,49.89-49.89c0-0.53-0.06-1.05-0.08-1.58H572.09z"/>
	</g>
	<g id="XMLID_9834_">
		<path id="XMLID_9848_" class="st7" d="M997.27,249.14v-28.48c0-67.35-55.11-122.46-122.46-122.46h0
			c-67.35,0-122.46,55.11-122.46,122.46v28.48c0,23.61,6.79,45.7,18.48,64.45v166.42c-11.64,16.84-18.48,37.21-18.48,59.11v105.25
			c0,21.29,17.42,38.71,38.71,38.71h167.49c21.29,0,38.71-17.42,38.71-38.71V539.13c0-21.9-6.85-42.27-18.48-59.11V313.59
			C990.48,294.84,997.27,272.75,997.27,249.14z"/>
		<path id="XMLID_9845_" class="st10" d="M997.27,249.14v-28.48c0-67.35-55.11-122.46-122.46-122.46h0
			c-67.35,0-122.46,55.11-122.46,122.46v28.48c0,23.61,6.79,45.7,18.48,64.45v166.42c-11.64,16.84-18.48,37.21-18.48,59.11v105.25
			c0,21.29,17.42,38.71,38.71,38.71h167.49c21.29,0,38.71-17.42,38.71-38.71V539.13c0-21.9-6.85-42.27-18.48-59.11V313.59
			C990.48,294.84,997.27,272.75,997.27,249.14z M974.17,249.14c0,18.44-5.18,36.5-14.98,52.22l-3.5,5.61v6.61v166.42v7.21l4.1,5.93
			c9.41,13.62,14.39,29.52,14.39,45.98v105.25c0,8.46-7.15,15.61-15.61,15.61H791.07c-8.46,0-15.61-7.15-15.61-15.61V539.13
			c0-16.46,4.97-32.36,14.39-45.98l4.1-5.93v-7.21V313.59v-6.61l-3.5-5.61c-9.8-15.72-14.98-33.78-14.98-52.22v-28.48
			c0-11.5,1.99-22.54,5.6-32.82h187.51c3.61,10.28,5.6,21.32,5.6,32.82V249.14z"/>
		<circle id="XMLID_9844_" class="st11" cx="830.92" cy="544.03" r="17.33"/>
		<circle id="XMLID_9843_" class="st11" cx="856.91" cy="570.02" r="8.66"/>
		<circle id="XMLID_9842_" class="st11" cx="923.91" cy="270.47" r="8.66"/>
		<rect id="XMLID_9841_" x="770.84" y="313.59" class="st12" width="207.95" height="166.42"/>
		<path id="XMLID_9840_" class="st0" d="M978.79,359h-39.23c-13.01-22.23-37.13-37.18-64.74-37.18c-27.62,0-51.73,14.94-64.74,37.18
			h-39.23v75.61h39.23c13.01,22.23,37.13,37.18,64.74,37.18c27.62,0,51.73-14.94,64.74-37.18h39.23V359z"/>
		<circle id="XMLID_9839_" class="st7" cx="874.82" cy="396.8" r="57.76"/>
		<path id="XMLID_9838_" class="st13" d="M788.29,248.87c-5.21,0-9.93-3.54-11.22-8.83c-0.61-2.5-14.2-61.85,45.9-106.72
			c5.12-3.82,12.35-2.77,16.17,2.35s2.77,12.35-2.35,16.17c-48.01,35.84-37.39,82.28-37.27,82.75c1.51,6.2-2.3,12.45-8.5,13.95
			C790.11,248.76,789.19,248.87,788.29,248.87z"/>
		<rect id="XMLID_9837_" x="837.85" y="77.23" class="st10" width="73.94" height="20.97"/>
		<rect id="XMLID_9836_" x="832.31" y="90.55" class="st0" width="85.01" height="15.32"/>
		<path id="XMLID_9835_" class="st0" d="M917.32,85.84h-42.51h-42.51V66.79V47.74c0-2.47,1-4.7,2.62-6.31s3.85-2.62,6.31-2.62h33.58
			h33.58c2.47,0,4.7,1,6.31,2.62c1.62,1.62,2.62,3.85,2.62,6.31v19.05V85.84z"/>
	</g>
	<g id="XMLID_9815_">
		<path id="XMLID_9833_" class="st14" d="M906.48,266.83H752.12v51.45L689.8,573.54h216.68c84.35,0,153.35-69.01,153.35-153.35v0
			C1059.83,335.84,990.82,266.83,906.48,266.83z"/>
		<g id="XMLID_9817_">
			<g id="XMLID_9828_">
				<path id="XMLID_9832_" class="st10" d="M734.61,268.92c-78.52,15.7-75.38,116.22-94.23,185.32
					c-12.56,37.69-9.42,78.52,20,107.21c6.05,5.28,12.88,8.98,20.42,10.8s15.3,1.68,23.1-0.24c55.84-20.4,90.39-80.07,106.25-132.22
					c1.88-7.08,3.35-14.14,4.41-21.15C825.7,363.15,809.99,250.08,734.61,268.92z"/>
				<path id="XMLID_9829_" class="st15" d="M750.68,284.99c10.56,0,18.99,4.28,26.52,13.47c20.64,25.19,26.78,80.63,19.56,116.61
					l-0.08,0.42l-0.06,0.42c-0.96,6.29-2.28,12.66-3.93,18.91c-6.99,22.87-33.96,97.13-94.03,119.77c-2.4,0.53-4.75,0.79-7.02,0.79
					c-2.23,0-4.43-0.26-6.55-0.77c-4.39-1.06-8.55-3.26-12.39-6.53c-30.16-29.81-20.61-71.5-15.08-88.09l0.16-0.48l0.13-0.49
					c4.39-16.09,7.64-33.79,10.78-50.9c5.29-28.82,10.76-58.62,21.65-81.37c11.14-23.28,25.9-35.62,47.84-40.01l0.42-0.08l0.42-0.1
					C743.13,285.51,747.06,284.99,750.68,284.99 M750.68,266.83c-5.03,0-10.38,0.67-16.07,2.09
					c-78.52,15.7-75.38,116.22-94.23,185.32c-12.56,37.69-9.42,78.52,20,107.21c6.05,5.28,12.88,8.98,20.42,10.8
					c3.57,0.87,7.19,1.29,10.84,1.29c4.06,0,8.16-0.52,12.26-1.53c55.84-20.4,90.39-80.07,106.25-132.22
					c1.88-7.08,3.35-14.14,4.41-21.15C824.86,367.34,812.21,266.83,750.68,266.83L750.68,266.83z"/>
			</g>
			<g id="XMLID_9820_">
				<g id="XMLID_9821_">
					<path id="XMLID_9827_" class="st16" d="M750.61,284.99c-3.62,0-7.55,0.52-11.67,1.55l-0.42,0.1l-0.42,0.08
						c-21.95,4.39-36.7,16.73-47.84,40.01c-10.89,22.75-16.36,52.55-21.65,81.37c-3.14,17.12-6.39,34.82-10.78,50.9l-0.13,0.49
						l-0.16,0.48c-5.53,16.59-15.08,58.28,15.08,88.09c3.84,3.27,8.01,5.46,12.39,6.53c2.12,0.51,4.32,0.77,6.55,0.77
						c2.26,0,4.62-0.27,7.02-0.79c60.07-22.64,87.04-96.9,94.03-119.77c1.65-6.26,2.97-12.62,3.93-18.91l0.06-0.42l0.08-0.42
						c7.22-35.97,1.08-91.41-19.56-116.61C769.59,289.27,761.17,284.99,750.61,284.99z"/>
					<path id="XMLID_9822_" class="st10" d="M777.12,298.46c-7.53-9.19-15.96-13.47-26.52-13.47c-3.62,0-7.55,0.52-11.67,1.55
						l-0.42,0.1l-0.42,0.08c-21.95,4.39-36.7,16.73-47.84,40.01c-10.89,22.75-16.36,52.55-21.65,81.37
						c-3.14,17.12-6.39,34.82-10.78,50.9l-0.13,0.49l-0.16,0.48c-5.53,16.59-15.08,58.28,15.08,88.09
						c3.84,3.27,8.01,5.46,12.39,6.53c2.12,0.51,4.32,0.77,6.55,0.77c2.26,0,4.62-0.27,7.02-0.79
						c60.07-22.64,87.04-96.9,94.03-119.77c1.65-6.26,2.97-12.62,3.93-18.91l0.06-0.42l0.08-0.42
						C803.9,379.09,797.76,323.65,777.12,298.46z M706.63,334.58c8.66-18.1,18.81-26.8,35.02-30.04l0.42-0.08l0.42-0.08l0.42-0.1
						l0.42-0.11c2.68-0.67,5.12-1.01,7.26-1.01c4.25,0,7.82,1.14,12.47,6.82c8.36,10.21,14.39,29.44,16.99,50.42
						c-9.7-0.64-18.68,3.13-28.2,7.4c-16.64,7.47-39.44,10.23-57.3,3.4C697.78,357.7,701.6,345.09,706.63,334.58z M693.55,537.06
						c-0.7,0.11-1.37,0.16-1.99,0.16c-0.79,0-1.55-0.09-2.27-0.26c-1.45-0.35-2.94-1.13-4.44-2.32
						c-22.27-22.65-14.5-55.68-10.09-68.91l0.16-0.48l0.16-0.48l0.13-0.49l0.13-0.49c0.88-3.24,1.68-6.56,2.48-9.89
						c10.55,2.86,20.83,6.72,30.1,12.61c14.55,9.24,22.55,22.07,28.78,37.48C725.21,517.93,710.95,530.16,693.55,537.06z
						 M778.88,411.49l-0.08,0.42l-0.08,0.42l-0.06,0.42l-0.06,0.42c-0.85,5.54-2,11.15-3.45,16.68
						c-3.63,11.78-13.06,38.53-30.06,63.08c-5.55-12.22-12.56-23.09-23.77-31.76c-12.05-9.32-26.21-15.08-40.82-19.02
						c2.17-10.21,4.11-20.57,5.98-30.75c1.74-9.5,3.51-19.11,5.48-28.47c12.33,4.03,26.38,4.7,39.01,3.7
						c16.92-1.34,33.58-16.02,50.24-13.72C781.93,386.21,781.25,399.66,778.88,411.49z"/>
				</g>
			</g>
			<circle id="XMLID_9819_" class="st10" cx="714.04" cy="453.91" r="28.24"/>
			<circle id="XMLID_9818_" class="st15" cx="714.04" cy="453.91" r="16.94"/>
		</g>
		<path id="XMLID_9816_" class="st16" d="M993.25,363.94c-3.6,0-7.01-2.16-8.43-5.71c-13.87-34.67-61.02-38.69-64.5-38.94h-82.95
			c-5.02,0-9.08-4.06-9.08-9.08s4.06-9.08,9.08-9.08l83.73,0.01c2.52,0.14,61.99,3.88,80.58,50.34c1.86,4.66-0.4,9.94-5.06,11.8
			C995.51,363.73,994.37,363.94,993.25,363.94z"/>
	</g>
	<g id="XMLID_9810_">
		<path id="XMLID_9814_" class="st17" d="M303.02,430.92l51,94.49l51,94.49l51,94.49l51,94.49h118.17h118.17h118.17h118.17
			l20.58-84.22l20.58-84.22l20.58-84.22l20.58-84.22c1.28-5.23,1.25-10.42,0.14-15.25s-3.28-9.32-6.29-13.15
			c-3.01-3.83-6.85-7.01-11.29-9.23c-4.44-2.22-9.47-3.48-14.85-3.48l-181.68,0.01l-181.68,0.01l-181.68,0.01L303.02,430.92z"/>
		<path id="XMLID_9813_" class="st17" d="M783.09,1049.26c-13.81,0-26.36,5.65-35.46,14.75c-9.1,9.1-14.75,21.65-14.75,35.46
			c0,13.81,5.65,26.36,14.75,35.46c9.1,9.1,21.65,14.75,35.46,14.75c13.81,0,26.36-5.65,35.46-14.75
			c9.1-9.1,14.75-21.65,14.75-35.46c0-13.81-5.65-26.36-14.75-35.46C809.45,1054.91,796.9,1049.26,783.09,1049.26z"/>
		<path id="XMLID_9812_" class="st17" d="M445.07,1049.26c-13.81,0-26.36,5.65-35.46,14.75c-9.1,9.1-14.75,21.65-14.75,35.46
			c0,13.81,5.65,26.36,14.75,35.46c9.1,9.1,21.65,14.75,35.46,14.75c13.81,0,26.36-5.65,35.46-14.75
			c9.1-9.1,14.75-21.65,14.75-35.46c0-13.81-5.65-26.36-14.75-35.46C471.43,1054.91,458.88,1049.26,445.07,1049.26z"/>
		<path id="XMLID_9811_" class="st18" d="M979.71,776.8H752.92H526.14l-119.8-221.95L286.53,332.9c-2.8-5.18-6.9-9.39-11.78-12.3
			c-4.88-2.91-10.53-4.53-16.42-4.53h-40.42h-40.42c-8.85,0-16.86,3.59-22.66,9.39c-5.8,5.8-9.39,13.81-9.39,22.66
			c0,8.85,3.59,16.86,9.39,22.66c5.8,5.8,13.81,9.39,22.66,9.39h30.86h30.86l107.04,198.32L453.29,776.8h-11.25H430.8
			c-31.97,0-60.95,13-81.95,34c-20.99,21-34,49.98-34,81.95c0,31.97,13,60.96,34,81.95c20.99,21,49.98,34,81.95,34h214.46h214.46
			c8.85,0,16.86-3.59,22.66-9.39s9.39-13.81,9.39-22.66c0-8.85-3.59-16.86-9.39-22.66c-5.8-5.8-13.81-9.39-22.66-9.39H645.26H430.8
			c-14.29,0-27.26-5.81-36.64-15.2c-9.39-9.39-15.2-22.35-15.2-36.65s5.81-27.26,15.2-36.65c9.39-9.39,22.35-15.2,36.64-15.2h38.11
			h38.11h236.35h236.35c8.85,0,16.86-3.59,22.66-9.39s9.39-13.81,9.39-22.66s-3.59-16.86-9.39-22.66S988.56,776.8,979.71,776.8z"/>
		<path class="st17" d="M484.76,619.87H361.34H237.93c-8.34,0-15.88-3.38-21.35-8.84c-5.46-5.46-8.84-13.01-8.84-21.35v0l0,0
			c0-8.34,3.38-15.89,8.84-21.35c5.46-5.46,13.01-8.84,21.35-8.84h123.41h123.41c8.34,0,15.88,3.38,21.35,8.84
			c5.46,5.46,8.84,13.01,8.84,21.35l0,0v0c0,8.34-3.38,15.88-8.84,21.35C500.64,616.49,493.09,619.87,484.76,619.87z"/>
		<path class="st17" d="M145.82,619.87h-17.4h-17.4c-8.34,0-15.88-3.38-21.35-8.84c-5.46-5.46-8.84-13.01-8.84-21.35v0l0,0
			c0-8.34,3.38-15.89,8.84-21.35c5.46-5.46,13.01-8.84,21.35-8.84h17.4h17.4c8.34,0,15.88,3.38,21.35,8.84
			c5.46,5.46,8.84,13.01,8.84,21.35l0,0v0c0,8.34-3.38,15.88-8.84,21.35C161.7,616.49,154.16,619.87,145.82,619.87z"/>
		<path class="st17" d="M587.16,735.25H463.75H340.33c-8.34,0-15.88-3.38-21.35-8.84c-5.46-5.46-8.84-13.01-8.84-21.35v0l0,0
			c0-8.34,3.38-15.89,8.84-21.35s13.01-8.84,21.35-8.84h123.41h123.41c8.34,0,15.88,3.38,21.35,8.84
			c5.46,5.46,8.84,13.01,8.84,21.35l0,0v0c0,8.34-3.38,15.88-8.84,21.35C603.05,731.87,595.5,735.25,587.16,735.25z"/>
		<path class="st18" d="M460.24,837.61H336.83H213.41c-8.34,0-15.88-3.38-21.35-8.84c-5.46-5.46-8.84-13.01-8.84-21.35l0,0v0
			c0-8.34,3.38-15.88,8.84-21.35c5.46-5.46,13.01-8.84,21.35-8.84h123.41h123.41c8.34,0,15.88,3.38,21.35,8.84
			c5.46,5.46,8.84,13.01,8.84,21.35v0l0,0c0,8.34-3.38,15.89-8.84,21.35C476.12,834.23,468.58,837.61,460.24,837.61z"/>
	</g>
</g>
</svg>
