<?xml version="1.0" encoding="utf-8"?>
<!-- Generator: Adobe Illustrator 24.1.3, SVG Export Plug-In . SVG Version: 6.00 Build 0)  -->
<svg version="1.1" id="Layer_1" xmlns="http://www.w3.org/2000/svg" xmlns:xlink="http://www.w3.org/1999/xlink" x="0px" y="0px"
	 viewBox="0 0 56 38" style="enable-background:new 0 0 56 38;" xml:space="preserve">
<style type="text/css">
	.st0{fill:url(#XMLID_2_);}
	.st1{fill:#FFFFFF;}
</style>
<g id="XMLID_1889_">
	<g id="XMLID_1896_">
		<linearGradient id="XMLID_2_" gradientUnits="userSpaceOnUse" x1="0.7005" y1="19.1429" x2="55.1956" y2="19.1429">
			<stop  offset="0" style="stop-color:#39B54A"/>
			<stop  offset="1" style="stop-color:#8CC63F"/>
		</linearGradient>
		<path id="XMLID_1923_" class="st0" d="M38.05,37.46H17.84c-9.47,0-17.14-7.67-17.14-17.14v-2.35C0.7,8.5,8.38,0.83,17.84,0.83
			h20.21c9.47,0,17.14,7.67,17.14,17.14v2.35C55.2,29.78,47.52,37.46,38.05,37.46z"/>
	</g>
</g>
<path id="XMLID_1716_" class="st1" d="M36.69,13.97c-0.21-0.05-0.47-0.12-0.79-0.14c-0.32-0.02-0.59-0.03-0.83-0.03
	c-0.3,0-0.61,0.02-0.9,0.05c-0.3,0.02-0.54,0.08-0.71,0.13l2.42,4.47l-2.42,4.45c0.18,0.05,0.41,0.09,0.71,0.11
	c0.3,0.02,0.6,0.04,0.9,0.04c0.23,0,0.51-0.01,0.83-0.03c0.32-0.02,0.58-0.08,0.79-0.12l2.41-4.44L36.69,13.97z"/>
<path class="st1" d="M33.08,25.24l-3.29-3.29c1.9-2.77,1.63-6.6-0.84-9.07c-2.78-2.78-7.3-2.78-10.08,0c-2.78,2.78-2.78,7.3,0,10.08
	c1.39,1.39,3.21,2.08,5.04,2.08c1.41,0,2.82-0.42,4.03-1.25l3.29,3.29c0.26,0.26,0.59,0.38,0.92,0.38c0.33,0,0.67-0.13,0.92-0.38
	C33.59,26.58,33.59,25.76,33.08,25.24z M20.73,21.12c-1.76-1.76-1.76-4.62,0-6.38c0.88-0.88,2.04-1.32,3.19-1.32
	c1.16,0,2.31,0.44,3.19,1.32c1.76,1.76,1.76,4.62,0,6.38C25.35,22.88,22.49,22.88,20.73,21.12z"/>
</svg>
