<?xml version="1.0" encoding="utf-8"?>
<!-- Generator: Adobe Illustrator 24.1.3, SVG Export Plug-In . SVG Version: 6.00 Build 0)  -->
<svg version="1.1" baseProfile="tiny" id="Layer_1" xmlns="http://www.w3.org/2000/svg" xmlns:xlink="http://www.w3.org/1999/xlink"
	 x="0px" y="0px" viewBox="0 0 1199 1220" overflow="visible" xml:space="preserve">
<g>
	<g id="XMLID_9900_">
		<path id="XMLID_9906_" fill="#FFD243" d="M506.43,263.41l238.38-58.9c93.06-22.99,191.52-1.21,266.19,58.9l0,0H506.43z"/>
		<path id="XMLID_9905_" fill="#F4B70B" d="M506.43,263.41v164.56c27.05,0,48.97,21.92,48.97,48.97c0,27.05-21.92,48.97-48.97,48.97
			v58.34H1011V263.41H506.43z"/>
		<circle id="XMLID_9904_" fill="#E09B03" cx="612.85" cy="364.22" r="30.35"/>
		<circle id="XMLID_9903_" fill="#E09B03" cx="776.51" cy="472.61" r="56.36"/>
		<circle id="XMLID_9902_" fill="#E09B03" cx="872.98" cy="452.01" r="20.59"/>
		<path id="XMLID_9901_" fill="#E09B03" d="M816.73,263.41c-0.02,0.73-0.11,1.44-0.11,2.17c0,37.71,30.57,68.29,68.29,68.29
			s68.29-30.57,68.29-68.29c0-0.73-0.09-1.44-0.11-2.17H816.73z"/>
	</g>
	<g id="XMLID_9885_">
		<path id="XMLID_9899_" fill="#FFD243" d="M575.16,437.91v-38.98c0-92.18-75.42-167.6-167.6-167.6h0
			c-92.18,0-167.6,75.42-167.6,167.6v38.98c0,32.31,9.29,62.54,25.3,88.21v227.77c-15.93,23.05-25.3,50.93-25.3,80.9v144.05
			c0,29.14,23.84,52.99,52.99,52.99h229.22c29.14,0,52.99-23.84,52.99-52.99V834.79c0-29.97-9.37-57.85-25.3-80.9V526.12
			C565.86,500.45,575.16,470.22,575.16,437.91z"/>
		<path id="XMLID_9896_" fill="#FFEEC2" d="M575.16,437.91v-38.98c0-92.18-75.42-167.6-167.6-167.6h0
			c-92.18,0-167.6,75.42-167.6,167.6v38.98c0,32.31,9.29,62.54,25.3,88.21v227.77c-15.93,23.05-25.3,50.93-25.3,80.9v144.05
			c0,29.14,23.84,52.99,52.99,52.99h229.22c29.14,0,52.99-23.84,52.99-52.99V834.79c0-29.97-9.37-57.85-25.3-80.9V526.12
			C565.86,500.45,575.16,470.22,575.16,437.91z M543.53,437.91c0,25.24-7.09,49.96-20.51,71.47l-4.79,7.68v9.05v227.77v9.86
			l5.61,8.11c12.88,18.64,19.69,40.4,19.69,62.92v144.05c0,11.58-9.78,21.36-21.36,21.36H292.95c-11.58,0-21.36-9.78-21.36-21.36
			V834.79c0-22.53,6.81-44.28,19.69-62.92l5.61-8.11v-9.86V526.12v-9.05l-4.79-7.68c-13.42-21.51-20.51-46.23-20.51-71.47v-38.98
			c0-15.74,2.72-30.85,7.66-44.92h256.63c4.94,14.07,7.66,29.18,7.66,44.92V437.91z"/>
		<circle id="XMLID_9895_" fill="#F9A427" cx="347.48" cy="841.49" r="23.72"/>
		<circle id="XMLID_9894_" fill="#F9A427" cx="383.05" cy="877.07" r="11.86"/>
		<circle id="XMLID_9893_" fill="#F9A427" cx="474.75" cy="467.1" r="11.86"/>
		<rect id="XMLID_9892_" x="265.26" y="526.12" fill="#EF4A26" width="284.6" height="227.77"/>
		<path id="XMLID_9891_" fill="#D53327" d="M549.86,588.26h-53.69c-17.81-30.43-50.81-50.88-88.61-50.88s-70.8,20.45-88.61,50.88
			h-53.69v103.48h53.69c17.81,30.43,50.81,50.88,88.61,50.88s70.8-20.45,88.61-50.88h53.69V588.26z"/>
		<circle id="XMLID_9890_" fill="#FFD243" cx="407.56" cy="640" r="79.06"/>
		<path id="XMLID_9889_" fill="#FFFFFF" d="M289.14,437.54c-7.13,0-13.6-4.85-15.35-12.08c-0.83-3.43-19.44-84.64,62.83-146.05
			c7-5.22,16.91-3.79,22.13,3.21c5.22,7,3.79,16.91-3.21,22.13c-65.71,49.05-51.17,112.61-51.01,113.25
			c2.06,8.49-3.15,17.04-11.63,19.1C291.63,437.39,290.37,437.54,289.14,437.54z"/>
		<rect id="XMLID_9888_" x="356.96" y="202.64" fill="#FFEEC2" width="101.19" height="28.7"/>
		<rect id="XMLID_9887_" x="349.38" y="220.86" fill="#D53327" width="116.35" height="20.96"/>
		<path id="XMLID_9886_" fill="#D53327" d="M465.73,214.41h-58.18h-58.18v-26.07v-26.07c0-3.38,1.37-6.43,3.58-8.64
			c2.21-2.21,5.27-3.58,8.64-3.58h45.95h45.95c3.38,0,6.43,1.37,8.64,3.58c2.21,2.21,3.58,5.27,3.58,8.64v26.07V214.41z"/>
	</g>
	<g id="XMLID_9879_">
		<path id="XMLID_9884_" fill="#C3E580" d="M585.81,905.33c27.59,1.3,50.36-20.68,50.36-47.98V615.88H540.1v240.11
			C540.1,881.85,559.98,904.11,585.81,905.33z"/>
		<rect id="XMLID_9883_" x="540.1" y="505.21" fill="#A1CD57" width="96.07" height="110.67"/>
		<g id="XMLID_9880_">
			<path id="XMLID_9882_" fill="#87B742" d="M581.16,90.88l-2.1-37.04c-0.73-12.91-11.42-23.01-24.35-23.01h0
				c-13.7,0-24.71,11.28-24.38,24.98l9.77,403.87v45.54h48.04V97.47C584.77,97.47,581.41,95.27,581.16,90.88z"/>
			<path id="XMLID_9881_" fill="#6AA02B" d="M645.94,55.8c0.33-13.7-10.68-24.98-24.38-24.98c-12.94,0-23.62,10.1-24.35,23.01
				l-2.1,37.04c-0.25,4.39-3.61,6.59-6.98,6.59v407.74h48.04v-45.54L645.94,55.8z"/>
		</g>
	</g>
	<g id="XMLID_9872_">
		<path id="XMLID_9878_" fill="#D53327" d="M1006.6,425.58c-13.05-66.53-71.66-116.74-142.02-116.74c-8.73,0-17.28,0.77-25.58,2.26
			c-15.89,2.84-32.06,2.84-47.94,0c-8.3-1.48-16.85-2.26-25.58-2.26c-63.24,0-116.98,40.57-136.68,97.1
			c-0.02-0.01-0.05-0.02-0.07-0.04c-0.26,0.81-0.49,1.64-0.75,2.45c-1.8,5.49-3.31,11.11-4.45,16.86
			c-2.89,13.33-4.47,27.15-4.47,41.35c0,108.23,87.74,158.8,195.97,158.8S1011,574.79,1011,466.56
			C1011,452.49,1009.45,438.79,1006.6,425.58z"/>
		<g id="XMLID_9876_">
			<path id="XMLID_9877_" fill="#BF211D" d="M1006.6,425.58c-8.28-42.22-34.93-77.85-71.26-98.26c7.38,13.14,12.8,27.52,15.79,42.79
				c2.85,13.22,4.4,26.91,4.4,40.98c0,108.23-87.74,158.8-195.97,158.8c-46.51,0-89.22-9.37-122.82-28.61
				c30.9,56.96,99.08,84.09,178.3,84.09c108.23,0,195.97-50.57,195.97-158.8C1011,452.49,1009.45,438.79,1006.6,425.58z"/>
		</g>
		<path id="XMLID_9875_" fill="#EA4A47" d="M672.27,540.65c-5.5,0-10.83-2.91-13.67-8.07c-7.83-14.22-12.86-30.02-14.94-46.98
			c-1.05-8.55,5.02-16.33,13.57-17.38c8.55-1.06,16.33,5.02,17.38,13.57c1.6,13,5.41,25.03,11.31,35.75
			c4.15,7.54,1.41,17.02-6.13,21.17C677.4,540.03,674.82,540.65,672.27,540.65z"/>
		<path id="XMLID_9874_" fill="#EA4A47" d="M661.56,450.08c-1.14,0-2.31-0.13-3.47-0.39c-8.39-1.91-13.65-10.26-11.75-18.66
			c8.22-36.21,28.88-66.54,58.14-85.41c7.24-4.66,16.88-2.58,21.55,4.66c4.66,7.24,2.57,16.88-4.66,21.55
			c-22.05,14.21-38.32,38.3-44.63,66.1C675.1,445.18,668.67,450.08,661.56,450.08z"/>
		<path id="XMLID_9873_" fill="#87B742" d="M828.75,383.76L828.75,383.76c11.66,12.91,33.07,4.04,32.19-13.33
			c-0.56-10.94,8.47-19.97,19.41-19.41h0c17.37,0.89,26.25-20.53,13.33-32.19c-2.49-2.25-4.12-5.03-5.09-7.98
			c-7.81-1.31-15.83-2.01-24.01-2.01c-8.73,0-17.28,0.77-25.58,2.26c-15.89,2.84-32.06,2.84-47.94,0
			c-8.3-1.48-16.85-2.26-25.58-2.26c-8.18,0-16.2,0.71-24.01,2.01c-0.97,2.95-2.6,5.73-5.09,7.98
			c-12.91,11.66-4.04,33.08,13.33,32.19h0c10.94-0.56,19.97,8.47,19.41,19.41c-0.89,17.37,20.53,26.25,32.19,13.33v0
			C808.65,375.62,821.41,375.62,828.75,383.76z"/>
	</g>
	<g id="XMLID_9869_">
		<polygon id="XMLID_9871_" fill="#D8B973" points="807.33,463.4 755.74,425.5 704.16,463.4 652.57,425.5 600.99,463.4 
			549.41,425.5 497.83,463.4 446.26,425.5 394.69,463.4 343.11,425.5 291.54,463.4 239.96,425.5 239.96,1133.98 858.92,1133.98 
			858.92,425.5 		"/>
		<path id="XMLID_9870_" fill="#BA9852" d="M1011,461.45l-24.46-17.98l-24.46-17.98l-25.79,18.95L910.5,463.4l-25.79-18.95
			l-25.79-18.95v439.71v268.77h0h0c42,0,80.01-17.02,107.54-44.54c27.52-27.52,44.54-65.54,44.54-107.54V807.15V461.45z"/>
	</g>
</g>
</svg>
