<svg xmlns="http://www.w3.org/2000/svg" xmlns:xlink="http://www.w3.org/1999/xlink" viewBox="0 0 287 287"><defs><style>.cls-1{fill:none;}.cls-2{isolation:isolate;}.cls-3{clip-path:url(#clip-path);}.cls-4,.cls-6{fill:#8cc63f;stroke:#8cc63f;stroke-miterlimit:10;}.cls-4{opacity:0.5;mix-blend-mode:multiply;}.cls-5{fill:#fd0;}.cls-7{clip-path:url(#clip-path-2);}.cls-8{fill:#f0aa00;}.cls-9{fill:#da8100;}</style><clipPath id="clip-path"><rect class="cls-1" x="-306.36" y="0.46" width="287.36" height="287.36"/></clipPath><clipPath id="clip-path-2"><rect class="cls-1" x="0.68" y="0.6" width="287.4" height="287.4"/></clipPath></defs><title>assets</title><g class="cls-2"><g id="Layer_1" data-name="Layer 1"><g class="cls-3"><path class="cls-4" d="M-1.49-10.88a12,12,0,0,0-8.06-4.58l-54.72-6.8L-119-29.06a12,12,0,0,0-8.93,2.47,12,12,0,0,0-4.58,8.06l-13,104.21L-158.41,189.9a12,12,0,0,0,2.47,8.93,12,12,0,0,0,8.06,4.58l54.72,6.8,54.73,6.8a12,12,0,0,0,8.93-2.47,12,12,0,0,0,4.58-8.06l13-104.21L1-1.95A12,12,0,0,0-1.49-10.88Z"/><path class="cls-5" d="M16.26-1.95,3.31,102.27-9.64,206.48a12.06,12.06,0,0,1-4.57,8.06A12.08,12.08,0,0,1-23.15,217l-54.72-6.8-54.73-6.8a12,12,0,0,1-8.06-4.58,12,12,0,0,1-2.47-8.93l12.95-104.22,13-104.21a12.07,12.07,0,0,1,4.58-8.06,12.07,12.07,0,0,1,8.94-2.47L-49-22.26l54.73,6.8a12.08,12.08,0,0,1,8.06,4.58A12.08,12.08,0,0,1,16.26-1.95Z"/></g><rect class="cls-6" x="0.68" y="-0.52" width="287.4" height="287.4"/><g class="cls-7"><rect class="cls-8" x="67.16" y="179.33" width="219.76" height="50.47" rx="5.01" transform="translate(45.05 -31.59) rotate(11.67)"/><rect class="cls-8" x="78.42" y="124.79" width="219.76" height="50.47" rx="5.01" transform="translate(34.25 -35) rotate(11.67)"/><rect class="cls-8" x="89.69" y="70.26" width="219.76" height="50.47" rx="5.01" transform="translate(23.45 -38.4) rotate(11.67)"/><rect class="cls-5" x="198.63" y="79.52" width="91.57" height="50.47" rx="5.01" transform="translate(26.25 -47.29) rotate(11.67)"/><rect class="cls-5" x="187.36" y="134.06" width="91.57" height="50.47" rx="5.01" transform="translate(37.05 -43.88) rotate(11.67)"/><rect class="cls-5" x="176.09" y="188.6" width="91.57" height="50.47" rx="5.01" transform="matrix(0.98, 0.2, -0.2, 0.98, 47.85, -40.47)"/><path class="cls-9" d="M72.77,166.16l-1.09,5.3a94.47,94.47,0,0,0,45.88-5l-34.48-7.12A8.72,8.72,0,0,0,72.77,166.16Z"/><path class="cls-9" d="M84,111.63,77.36,144a8.72,8.72,0,0,0,6.77,10.31L126.26,163a124.69,124.69,0,0,0,49.29-41.35l-81.2-16.78A8.72,8.72,0,0,0,84,111.63Z"/><path class="cls-9" d="M95.31,57.09,88.62,89.43A8.73,8.73,0,0,0,95.4,99.74L178.73,117A126.24,126.24,0,0,0,197.52,69.3l-91.91-19A8.72,8.72,0,0,0,95.31,57.09Z"/><ellipse class="cls-8" cx="86.09" cy="49.85" rx="109.88" ry="91.57" transform="translate(-4.02 91.99) rotate(-55.13)"/><rect class="cls-8" x="-30.08" y="35.39" width="219.76" height="20.15" transform="translate(-3.12 84.95) rotate(-55.13)"/><ellipse class="cls-5" cx="71.53" cy="39.7" rx="109.88" ry="91.57" transform="translate(-1.94 75.7) rotate(-55.13)"/><path class="cls-9" d="M128.12,76.65c-26.66,38.26-73.66,51.6-105,29.78S-11.95,35.9,14.71-2.37s73.66-51.6,105-29.78S154.78,38.38,128.12,76.65Z"/><path class="cls-8" d="M129.7,80.23c-26,37.34-71.7,50.49-102,29.35S-6.16,41,19.86,3.7s71.7-50.49,102-29.35S155.72,42.88,129.7,80.23Z"/><path class="cls-9" d="M63.89,83.06A18.4,18.4,0,0,0,67,86.45,51.72,51.72,0,0,0,71.47,90a48.35,48.35,0,0,0,4.44,2.74,24.91,24.91,0,0,0,4.71,2l34.9-23.52,10.08-41a24.32,24.32,0,0,0-3.37-3.89,49.51,49.51,0,0,0-4.12-3.19,51,51,0,0,0-4.91-2.94,18.79,18.79,0,0,0-4.31-1.65l-10,41.12Z"/><path class="cls-9" d="M74.74,63.18C93.35,48.34,102,22.35,94.06,5.24s-29.56-19-48.17-4.1S18.62,42,26.58,59.08L40.23,88.44,40.94,90h0l0,.1.52-.41C43,88.9,44.44,88,45.9,87.05q2.46-1.68,4.51-3.29T54.79,80c1.49-1.36,2.94-2.82,4.37-4.4l-1.6-3.54A46.55,46.55,0,0,0,74.74,63.18ZM53.65,17.82c8.6-6.87,18.59-6,22.27,1.89S75.59,39.64,67,46.5s-18.59,6-22.27-1.89S45.05,24.68,53.65,17.82Z"/><path class="cls-5" d="M58.3,79.17a19.22,19.22,0,0,0,3.11,3.39,50.24,50.24,0,0,0,4.48,3.55,49.45,49.45,0,0,0,4.43,2.74,25.46,25.46,0,0,0,4.71,2l34.9-23.52,10.08-41a24.2,24.2,0,0,0-3.36-3.89,49.51,49.51,0,0,0-4.12-3.19,53.52,53.52,0,0,0-4.91-2.94,18.67,18.67,0,0,0-4.32-1.65L93.3,55.7Z"/><path class="cls-5" d="M69.16,59.29C87.77,44.45,96.43,18.46,88.48,1.35s-29.56-19-48.17-4.1S13,38.08,21,55.19L34.64,84.55l.72,1.57h0l.05.1.51-.41a50.4,50.4,0,0,0,4.38-2.64C42,82,43.46,80.94,44.82,79.87s2.9-2.38,4.39-3.73,2.94-2.82,4.37-4.4L52,68.2A46.59,46.59,0,0,0,69.16,59.29ZM48.07,13.93c8.6-6.87,18.59-6,22.27,1.89S70,35.75,61.4,42.61s-18.59,6-22.27-1.89S39.46,20.79,48.07,13.93Z"/><rect class="cls-4" x="-52.18" y="226.23" width="408.04" height="93.71" rx="5.01" transform="translate(58.39 -25.07) rotate(11.67)"/></g></g></g></svg>