<svg id="Layer_1" data-name="Layer 1" xmlns="http://www.w3.org/2000/svg" xmlns:xlink="http://www.w3.org/1999/xlink" viewBox="0 0 132 132"><defs><style>.cls-1{fill:none;}.cls-2{clip-path:url(#clip-path);}.cls-3{fill:#fff;}.cls-4{fill:#ff3108;}.cls-5{clip-path:url(#clip-path-2);}</style><clipPath id="clip-path"><ellipse class="cls-1" cx="-86.19" cy="65.92" rx="58.86" ry="58.83"/></clipPath><clipPath id="clip-path-2"><ellipse class="cls-1" cx="66.71" cy="65.69" rx="58.86" ry="58.83"/></clipPath></defs><title>Untitled-6</title><g class="cls-2"><path class="cls-3" d="M-41.25,86c1,0,1.36-.39,1.59-1.27a25.77,25.77,0,0,1,24.77-19.3A25.8,25.8,0,0,1,11.24,94.94c-1.46,11-7.95,18.25-18.55,21.56-13.7,4.27-28.75-4.23-32.31-18.13-.28-1.09-.72-1.51-1.9-1.49-4.66.07-9.33,0-14,.05-8.54.15-14.67-3.19-18-11.43a91.78,91.78,0,0,0-6.11-12.38,23.24,23.24,0,0,0-11.28-9.46l-2,6.2c12,8.84,14.08,22.79,8.3,33.84a26.11,26.11,0,0,1-32,12.33c-11.08-3.84-18.57-16-16.88-28a25.53,25.53,0,0,1,8.32-15.79c6.26-5.68,13.73-7.53,22.06-6.42l2.64-8.42c-1.22.14-2.2.34-3.18.37-2.66.07-3.61-.88-3.62-3.53,0-3.78,0-7.56,0-11.33,0-2.06,1.07-3,3.09-3.14,3.3-.16,5.83,1.31,8.1,3.88,1-3.09,1.94-6,2.8-8.86a12,12,0,0,1,11.65-8.81c2.89,0,5.77,0,8.65,0,3.58,0,6,2.22,6,5.42s-2.35,5.54-6,5.55c-2.72,0-5.45,0-8.18,0-.49,0-1.28.26-1.41.6-.77,2-1.38,4.11-2.1,6.34,6.1,0,11.91,0,17.73,0A13.49,13.49,0,0,1-58,47c2,1.66,4,3.39,6,5a3.78,3.78,0,0,0,2.1.73c5.61.06,11.23.08,16.84,0a4,4,0,0,0,2.41-1c1.63-1.54,3.1-3.25,4.65-4.89a8.51,8.51,0,0,1,6.13-2.8c5.45-.1,10.9-.08,16.36,0a5.46,5.46,0,0,1,5.37,4.62,17.2,17.2,0,0,1,0,2.95c2.29,1.27,4.56,2.35,6.65,3.73a54.15,54.15,0,0,1,6.08,4.7,5.12,5.12,0,0,1-.51,8.15c-2,1.32-4.7.87-7-1.12-8.52-7.37-18.38-10-29.28-7.37-11.55,2.73-19.28,10.1-23.48,21.16-.62,1.63-.93,3.38-1.44,5.28C-44.9,86-43.07,85.93-41.25,86Zm-52.39,6a13.64,13.64,0,0,0-14.23-14.41,13.92,13.92,0,0,0-13.58,14.22,13.87,13.87,0,0,0,13.89,13.56A13.75,13.75,0,0,0-93.64,92Zm75.74-6c.94,0,1.89,0,2.83,0a5.44,5.44,0,0,1,5.32,5.33A5.32,5.32,0,0,1-15,96.87c-3.46.1-6.92,0-10.38,0-.55,0-1.11,0-1.7.08,1.31,4.39,7.14,9.25,14.62,8.29A14.1,14.1,0,0,0-.62,92.13c.29-6.69-4.46-12.95-10.76-14.2C-18.11,76.6-25,80-27.15,86Z"/></g><ellipse class="cls-4" cx="66.71" cy="65.69" rx="58.86" ry="58.83"/><path class="cls-3" d="M66.71,131.81a66.12,66.12,0,1,1,66.15-66.12A66.22,66.22,0,0,1,66.71,131.81Zm0-117.66a51.54,51.54,0,1,0,51.56,51.54A51.62,51.62,0,0,0,66.71,14.15Z"/><g class="cls-5"><path class="cls-3" d="M56.7,64.57c-4.29,0-9.06,1.89-12.81,4.21C37.13,73,35.7,80.14,36.21,88a51,51,0,0,0-6.6.05c-5.29.73-7.24-2-7.14-6.74.07-3.58.65-7.16.72-10.75.12-6.11,3.11-10.17,8.77-11.92,6.37-2,12.92-3.36,19.33-5.18,5-1.43,10.81-2,14.8-4.93a96,96,0,0,1,45.27-18.38c15.32-2,31-3,44.72,5.27,11.66,7,23.06,14,36.52,17,2.13.48,5,2.85,5.43,4.82A114.19,114.19,0,0,1,201,77.56c.43,9.65-1.95,11.33-11.77,9.83-.61-14.15-7.58-22.58-19-22.93-12-.36-18.71,7.11-20.7,23.18h-74C75.09,73.65,68.2,64.69,56.7,64.57ZM75,51.87h39.33c.8-5.7,1.51-10.68,2.34-16.63C100.16,35.54,86.79,41.37,75,51.87Zm73.71-12.18c-6.82-2.42-14.23-3.23-21.4-4.66-2.73-.54-4.07.62-4.27,3.52-.26,3.74-.88,7.45-1.4,11.54H161.9l.73-1.7C158,45.41,153.76,41.47,148.73,39.69Z"/><path class="cls-3" d="M41.2,84.08A14.38,14.38,0,0,0,55.27,98.8a14.64,14.64,0,1,0,.66-29.26A14.21,14.21,0,0,0,41.2,84.08Z"/></g></svg>