<svg id="Layer_1" data-name="Layer 1" xmlns="http://www.w3.org/2000/svg" xmlns:xlink="http://www.w3.org/1999/xlink" viewBox="0 0 500 500"><defs><style>.cls-1{fill:none;}.cls-2{clip-path:url(#clip-path);}.cls-3{fill:#fff;}</style><clipPath id="clip-path"><rect class="cls-1" x="-0.5" y="-0.5" width="500" height="501"/></clipPath></defs><title>Untitled-1</title><g class="cls-2"><path class="cls-3" d="M211.76,216.6c-19.2-.21-40.56,8.47-57.36,18.88-30.26,18.77-36.65,50.88-34.39,86-11.32,0-20.6-1-29.56.2-23.7,3.27-32.43-8.95-32-30.15.34-16.07,2.92-32.1,3.25-48.17C62.27,216,75.64,197.86,101,190c28.51-8.83,57.84-15,86.57-23.19,22.5-6.39,48.38-8.95,66.27-22.07C314.94,100,381.94,72,456.58,62.43,525.17,53.66,595.2,49.07,656.83,86c52.24,31.34,103.26,62.6,163.54,76.25,9.55,2.17,22.3,12.78,24.31,21.6,6.8,29.78,11.76,60.41,13.11,90.9,1.91,43.21-8.76,50.74-52.73,44-2.71-63.38-34-101.13-85-102.68-53.63-1.62-83.77,31.83-92.67,103.8H296C294.12,257.26,263.28,217.17,211.76,216.6Zm82.06-56.84H470c3.6-25.54,6.74-47.85,10.49-74.49C406.41,86.62,346.53,112.72,293.82,159.76Zm330.11-54.57c-30.56-10.85-63.72-14.46-95.83-20.85C515.84,81.9,509.86,87.1,509,100.11c-1.16,16.73-3.95,33.34-6.25,51.66H682.9l3.25-7.63C665.53,130.81,646.44,113.17,623.93,105.19Z"/><path class="cls-3" d="M142.38,304c-.24,36.29,27.27,65.07,63,65.9a65.87,65.87,0,0,0,67.95-66.43c-.19-35.22-29.1-63.94-65-64.59C171,238.19,142.62,266.18,142.38,304Z"/></g></svg>