<svg width="28" height="21" viewBox="0 0 28 21" fill="none" xmlns="http://www.w3.org/2000/svg">
<g clip-path="url(#clip0_3003_1970)">
<path d="M21.4401 16.9502C20.5501 16.9502 19.8201 17.6802 19.8201 18.5702C19.8201 19.4602 20.5501 20.1902 21.4401 20.1902C22.3301 20.1902 23.0601 19.4602 23.0601 18.5702C23.0601 17.6802 22.3301 16.9502 21.4401 16.9502Z" fill="white"/>
<path d="M10.5302 16.9502C9.64016 16.9502 8.91016 17.6802 8.91016 18.5702C8.91016 19.4602 9.64016 20.1902 10.5302 20.1902C11.4202 20.1902 12.1502 19.4602 12.1502 18.5702C12.1502 17.6802 11.4202 16.9502 10.5302 16.9502Z" fill="white"/>
<path d="M13.45 0.0302734L13.43 0.220273C13.27 1.80027 13.27 3.39027 13.43 4.97027L13.45 5.16027H20.71L19.43 10.2903H11.25L13.88 15.4203H23.43L27.28 0.0402734H13.45V0.0302734Z" fill="#93D500"/>
<path d="M11.2501 10.27L5.84006 0H0.14006L0.12006 0.14C-0.0399405 1.72 -0.0399405 3.4 0.11006 4.98L0.13006 5.32H2.74006L8.16006 15.42H13.8801L11.2501 10.27Z" fill="white"/>
</g>
<defs>
<clipPath id="clip0_3003_1970">
<rect width="27.28" height="20.19" fill="white"/>
</clipPath>
</defs>
</svg>
