<svg id="Layer_1" data-name="Layer 1" xmlns="http://www.w3.org/2000/svg" xmlns:xlink="http://www.w3.org/1999/xlink" viewBox="0 0 74 74"><defs><style>.cls-1{fill:none;}.cls-2{fill:#2b2b2b;}.cls-3{fill:#fff;}.cls-4{fill:url(#linear-gradient);}.cls-5{opacity:0.2;}.cls-6{clip-path:url(#clip-path);}.cls-7{fill:#cae5d6;}</style><linearGradient id="linear-gradient" x1="11.35" y1="34.52" x2="62.67" y2="34.52" gradientUnits="userSpaceOnUse"><stop offset="0" stop-color="#39b54a"/><stop offset="1" stop-color="#8cc63f"/></linearGradient><clipPath id="clip-path"><rect class="cls-1" x="94.58" y="1.22" width="157.93" height="72.87" rx="13.07"/></clipPath></defs><title>assets</title><rect class="cls-2" x="0.31" y="0.34" width="73.37" height="73.37" rx="13.07"/><path class="cls-3" d="M51.68,51.89a3,3,0,1,0,3,3A3.06,3.06,0,0,0,51.68,51.89Z"/><path class="cls-3" d="M31.16,51.89a3,3,0,1,0,3.05,3A3.06,3.06,0,0,0,31.16,51.89Z"/><path class="cls-4" d="M55.43,49H26.7L16.52,29.7H11.61l0-.47a44.41,44.41,0,0,1,0-8.93l0-.24H22.33L32.52,39.35H47.91l2.41-9.65H36.65l0-.36a44.32,44.32,0,0,1,0-8.92l0-.36h26Z"/><polygon class="cls-5" points="36.52 39.33 25.62 39.33 30.56 49 41.33 49 36.52 39.33"/><path class="cls-3" d="M32.52,39.32,22.33,20H11.61l0,.27a46,46,0,0,0,0,9.09l0,.64h4.91L26.7,49H37.47Z"/><g class="cls-6"><path class="cls-7" d="M188.32,29.59H76A8.36,8.36,0,0,0,68.65,42,73.19,73.19,0,0,0,94.84,68.89a44.16,44.16,0,0,0-2.73,4.27A5.28,5.28,0,0,0,96.76,81h70.82a5.28,5.28,0,0,0,4.65-7.81,44.16,44.16,0,0,0-2.73-4.27A73.19,73.19,0,0,0,195.69,42,8.36,8.36,0,0,0,188.32,29.59Z"/></g></svg>