<svg id="Layer_1" data-name="Layer 1" xmlns="http://www.w3.org/2000/svg" viewBox="0 0 153 152"><defs><style>.cls-1{fill:#8ac441;}.cls-2{fill:#fff;}</style></defs><title>Untitled-1</title><rect class="cls-1" x="0.65" y="0.39" width="152.84" height="152.84" transform="translate(154.13 153.62) rotate(180)"/><path class="cls-2" d="M106.27,86h-58a7.05,7.05,0,0,0-7,7v4.77a7.05,7.05,0,0,0,7,7h58a7.05,7.05,0,0,0,7-7V93A7.05,7.05,0,0,0,106.27,86Z"/><path class="cls-2" d="M106.27,62.73h-58a7,7,0,0,0-7,7v4.78a7,7,0,0,0,7,7h58a7,7,0,0,0,7-7V69.76A7,7,0,0,0,106.27,62.73Z"/><path class="cls-2" d="M106.27,39.48h-58a7,7,0,0,0-7,7v4.78a7,7,0,0,0,7,7h58a7,7,0,0,0,7-7V46.51A7,7,0,0,0,106.27,39.48Z"/></svg>