<?xml version="1.0" encoding="utf-8"?>
<!-- Generator: Adobe Illustrator 19.0.0, SVG Export Plug-In . SVG Version: 6.00 Build 0)  -->
<svg version="1.1" id="Layer_1" xmlns="http://www.w3.org/2000/svg" xmlns:xlink="http://www.w3.org/1999/xlink" x="0px" y="0px"
	 viewBox="0 0 36.6 44.4" style="enable-background:new 0 0 36.6 44.4;" xml:space="preserve">
<style type="text/css">
	.st0{fill:#FFFFFF;}
</style>
<g id="XMLID_157_">
	<path id="XMLID_159_" class="st0" d="M17.1,15.9c-0.3-0.1-0.7-0.2-1.1-0.2c-0.4,0-0.8,0-1.2,0c-0.4,0-0.8,0-1.3,0.1
		c-0.4,0-0.7,0.1-1,0.2l3.4,6.2l-3.4,6.2c0.2,0.1,0.6,0.1,1,0.2c0.4,0,0.8,0.1,1.3,0.1c0.3,0,0.7,0,1.2,0c0.4,0,0.8-0.1,1.1-0.2
		l3.4-6.2L17.1,15.9z"/>
	<path id="XMLID_158_" class="st0" d="M23,15.9c-0.3-0.1-0.7-0.2-1.1-0.2c-0.4,0-0.8,0-1.2,0c-0.4,0-0.8,0-1.3,0.1
		c-0.4,0-0.7,0.1-1,0.2l3.4,6.2l-3.4,6.2c0.2,0.1,0.6,0.1,1,0.2c0.4,0,0.8,0.1,1.3,0.1c0.3,0,0.7,0,1.2,0c0.4,0,0.8-0.1,1.1-0.2
		l3.4-6.2L23,15.9z"/>
</g>
</svg>
