<svg id="Layer_1" data-name="Layer 1" xmlns="http://www.w3.org/2000/svg" viewBox="0 0 153 153"><defs><style>.cls-1{fill:#adadad;}.cls-2{fill:#737374;}</style></defs><title>Untitled-3</title><rect class="cls-1" x="0.8" y="1.32" width="152.84" height="152.84" transform="translate(154.45 155.48) rotate(180)"/><path class="cls-2" d="M42.35,57a23.82,23.82,0,0,0-5.43-1.44V53.47h1.13a2.21,2.21,0,0,0,2.21-2.21V49.6a2.21,2.21,0,0,0-2.21-2.21H29.71a2.22,2.22,0,0,0-2.22,2.21v1.66a2.22,2.22,0,0,0,2.22,2.21h1.12v2a24,24,0,0,0-6.67,1.8,3.73,3.73,0,0,0,3,6.85,16.31,16.31,0,1,1-7,24.15l.74-.31a2.07,2.07,0,0,0,.41-3.56l-7.74-5.75a2.07,2.07,0,0,0-3.29,1.42L9.12,89.68A2.07,2.07,0,0,0,12,91.82l1.21-.53A23.76,23.76,0,1,0,42.35,57Z"/><path class="cls-2" d="M33.88,67.94V79.12H45.06A11.18,11.18,0,0,0,33.88,67.94Z"/><rect class="cls-2" x="50.11" y="52.6" width="6.08" height="10.63" rx="2.21" transform="translate(-25.41 60.66) rotate(-49.46)"/></svg>