<svg id="Layer_1" data-name="Layer 1" xmlns="http://www.w3.org/2000/svg" viewBox="0 0 132 132"><defs><style>.cls-1{fill:#0689ff;}.cls-2,.cls-3,.cls-4{fill:#fff;}.cls-3{stroke:#fff;}.cls-3,.cls-4{stroke-miterlimit:10;stroke-width:2px;}.cls-4{stroke:#0689ff;}</style></defs><title>calendario</title><ellipse class="cls-1" cx="65.76" cy="65.88" rx="58.86" ry="58.83"/><path class="cls-2" d="M65.76,132a66.12,66.12,0,1,1,66.16-66.12A66.21,66.21,0,0,1,65.76,132Zm0-117.65a51.54,51.54,0,1,0,51.57,51.53A51.61,51.61,0,0,0,65.76,14.35Z"/><path class="cls-2" d="M65.86,47.85H36.77c-2.16,0-2.76-.59-2.77-2.72,0-2.42,0-4.84,0-7.27,0-1.79.7-2.47,2.48-2.48s3.79.07,5.68,0c1.07-.06,1.24.35,1.19,1.26-.07,1.36,0,2.73,0,4.1a2,2,0,0,0,2.21,2.2c1.72,0,3.44,0,5.16,0a1.87,1.87,0,0,0,2.07-2c0-1.5,0-3,0-4.5,0-.68.08-1,.9-1q12.3,0,24.6,0c.79,0,.94.29.92,1,0,1.45,0,2.91,0,4.36a1.94,1.94,0,0,0,2.2,2.19c1.67,0,3.35,0,5,0a2,2,0,0,0,2.23-2.19c0-1.45,0-2.91,0-4.36,0-.69.08-1,.9-1,2.07.06,4.15,0,6.22,0A2,2,0,0,1,98,37.59c0,2.6,0,5.2,0,7.8,0,1.79-.7,2.46-2.51,2.46Z"/><path class="cls-3" d="M66,95.93H36.9c-2.32,0-2.9-.57-2.9-2.87V54.7c0-2.13.64-2.79,2.75-2.79H95.22c2.12,0,2.77.65,2.77,2.77V93.17c0,2.15-.62,2.76-2.75,2.76Zm-.08-2.63H92.78c2.06,0,2.55-.5,2.55-2.58V57.1c0-2-.51-2.53-2.47-2.53H39.14c-2,0-2.49.54-2.49,2.52V90.56c0,2.27.45,2.73,2.68,2.73Z"/><path class="cls-4" d="M44.93,34.62c0-1.42,0-2.83,0-4.25,0-1.22.4-1.88,1.35-1.86H50c.82,0,1.22.53,1.22,1.63,0,3.06,0,6.13,0,9.2,0,1.14-.47,1.59-1.25,1.59-1.19,0-2.37,0-3.56,0s-1.48-.72-1.46-2.07S44.93,36,44.93,34.62Z"/><path class="cls-4" d="M80.78,34.78c0-1.48,0-3,0-4.42,0-1.24.4-1.86,1.34-1.85,1.19,0,2.38,0,3.56,0,.85,0,1.34.46,1.34,1.66q0,4.59,0,9.18c0,1.11-.44,1.58-1.25,1.56-1.23,0-2.46,0-3.69,0-.86,0-1.3-.51-1.28-1.71C80.8,37.72,80.79,36.25,80.78,34.78Z"/><path class="cls-2" d="M81.65,74A15.66,15.66,0,1,1,65.94,58.24,15.67,15.67,0,0,1,81.65,74ZM67,69.1h0c0-1.46,0-2.91,0-4.36,0-.87-.13-1.72-1.17-1.7s-1.12.91-1.12,1.75c0,2.25,0,4.49,0,6.74,0,1-.2,1.31-1.23,1.27-2.37-.07-4.75,0-7.13,0-.85,0-1.55.23-1.54,1.2s.71,1.09,1.49,1.09c3,0,6.07,0,9.11,0,1.12,0,1.59-.51,1.56-1.62C67,72,67,70.55,67,69.1Z"/><path class="cls-1" d="M67,69.1c0,1.45,0,2.9,0,4.35,0,1.11-.44,1.62-1.56,1.62-3,0-6.07,0-9.11,0-.78,0-1.48-.18-1.49-1.09s.69-1.21,1.54-1.2c2.38,0,4.76,0,7.13,0,1,0,1.26-.32,1.23-1.27-.07-2.25,0-4.49,0-6.74,0-.84.08-1.73,1.12-1.75s1.18.83,1.17,1.7c0,1.45,0,2.9,0,4.36Z"/></svg>