<?xml version="1.0" encoding="utf-8"?>
<!-- Generator: Adobe Illustrator 24.1.3, SVG Export Plug-In . SVG Version: 6.00 Build 0)  -->
<svg version="1.1" id="Layer_1" xmlns="http://www.w3.org/2000/svg" xmlns:xlink="http://www.w3.org/1999/xlink" x="0px" y="0px"
	 viewBox="0 0 171.86 180.39" style="enable-background:new 0 0 171.86 180.39;" xml:space="preserve">
<style type="text/css">
	.st0{fill:#3D087A;}
	.st1{fill:#FF6490;}
	.st2{fill:#D83A6F;}
	.st3{fill:#C40251;}
	.st4{fill:#FF035E;}
	.st5{fill:#A9F721;}
	.st6{fill:#749B31;}
	.st7{fill:#FFFFFF;}
</style>
<g>
	<g id="XMLID_35_">
		<circle id="XMLID_543_" class="st0" cx="86.13" cy="86.91" r="79.84"/>
	</g>
	<g>
		<g>
			<g>
				<path class="st1" d="M106.8,38.44l-26.4-10.3l-3.02-7.62C74.04,12.1,82.35,3.75,90.79,7.04C97.95,8.52,103.69,33.27,106.8,38.44
					z"/>
				<path class="st1" d="M102.14,36.62l26.4,10.3l7.38-3.56c8.16-3.94,7.7-15.71-0.74-19.01C128.91,20.6,107.93,34.92,102.14,36.62z
					"/>
				<path class="st2" d="M105.45,35.02l-4.41-11.72l-4.16,11.27c4.5,1.76,10.67,4.16,15.17,5.92l4.16-10.91L105.45,35.02z"/>
				<path class="st1" d="M108.77,39.21c-2.14-0.83-6.45-2.52-8.59-3.35c0.83-2.13,2.5-6.41,3.33-8.53c0.84-2.26,3.54-0.72,5.01-0.16
					c1.46,0.58,4.5,1.27,3.58,3.51C111.26,32.8,109.6,37.08,108.77,39.21z"/>
			</g>
			
				<rect x="80.82" y="-3.51" transform="matrix(0.3633 -0.9317 0.9317 0.3633 15.4667 119.8757)" class="st3" width="29.25" height="104.26"/>
			
				<rect x="96.63" y="11.82" transform="matrix(0.3633 -0.9317 0.9317 0.3633 19.7889 138.5345)" class="st4" width="29.25" height="85.94"/>
			
				<rect x="96.38" y="45.4" transform="matrix(0.3633 -0.9317 0.9317 0.3633 19.7203 138.2384)" class="st1" width="29.25" height="18.59"/>
		</g>
		<g>
			<path class="st5" d="M39.75,92.81c3.59,3.59,3.59,9.42,0,13.01l42.55,42.55l49.97-49.97L89.72,55.84
				c-8.32,8.57-21.57-4.7-13.01-13.01L59.34,25.46L9.36,75.43l17.38,17.38C30.33,89.21,36.16,89.21,39.75,92.81z"/>
			
				<rect x="59.77" y="79.3" transform="matrix(0.7071 -0.7071 0.7071 0.7071 -46.4759 89.4433)" class="st6" width="49.93" height="43.05"/>
			
				<rect x="18.59" y="55.15" transform="matrix(0.7071 -0.7071 0.7071 0.7071 -29.4202 48.2671)" class="st6" width="49.93" height="8.99"/>
			<path class="st6" d="M56.35,75.45c1.16-0.88,2.46-3.11,3.93-3.39c2.62,0.41,0.59,2.89-0.57,3.74c-0.54,0.42-1.63,2-2.43,1.89
				C56.16,77.73,55.52,76.23,56.35,75.45z"/>
			<path class="st6" d="M49.3,82.51c1.16-0.88,2.46-3.11,3.93-3.39c2.62,0.41,0.59,2.89-0.57,3.74c-0.54,0.42-1.63,2-2.43,1.89
				C49.1,84.79,48.46,83.29,49.3,82.51z"/>
			<path class="st6" d="M42.24,89.57c1.24-1.02,4.31-5.58,5.24-2.08c-0.28,1.47-2.51,2.78-3.39,3.93
				C42.91,92.64,41.01,90.76,42.24,89.57z"/>
			<path class="st6" d="M63.41,68.39c1.16-0.88,2.46-3.11,3.93-3.39c2.62,0.41,0.59,2.89-0.57,3.74c-0.54,0.42-1.63,2-2.43,1.89
				C63.22,70.67,62.57,69.17,63.41,68.39z"/>
			<path class="st6" d="M70.47,61.33c1.16-0.88,2.46-3.11,3.93-3.39c2.62,0.41,0.59,2.89-0.57,3.74c-0.54,0.42-1.63,2-2.43,1.89
				C70.28,63.61,69.63,62.11,70.47,61.33z"/>
		</g>
		<g>
			<rect x="34" y="113.91" class="st3" width="104.26" height="63.45"/>
			<rect x="60.13" y="113.91" class="st4" width="85.94" height="63.45"/>
			<rect x="93.54" y="113.91" class="st1" width="18.59" height="63.45"/>
		</g>
		<path id="XMLID_488_" class="st7" d="M22.83,115.63c6.14-4.41,1.07-4.78,7.45,0.43c-6.39,5.21-1.31,4.83-7.45,0.42
			C22.48,116.31,22.48,115.81,22.83,115.63z"/>
		<path id="XMLID_437_" class="st7" d="M22.83,46.19c6.14-4.41,1.07-4.78,7.45,0.43c-6.39,5.21-1.31,4.83-7.45,0.42
			C22.48,46.86,22.48,46.37,22.83,46.19z"/>
		<path id="XMLID_500_" class="st7" d="M150.94,85.52c9.86-6.8,1.27-7.97,11.76,0.67c-10.49,8.65-1.9,7.46-11.76,0.67
			C150.37,86.58,150.37,85.8,150.94,85.52z"/>
		<path id="XMLID_494_" class="st7" d="M29.59,36c9.86-6.8,1.27-7.97,11.76,0.67c-10.49,8.65-1.9,7.46-11.76,0.67
			C29.03,37.06,29.03,36.28,29.59,36z"/>
		<path id="XMLID_426_" class="st7" d="M132.25,48.91c4.45-3.29,0.98-3.37,5.52,0.32c-4.54,3.69-1.08,3.6-5.52,0.31
			C131.99,49.41,131.99,49.04,132.25,48.91z"/>
		<path id="XMLID_143_" class="st7" d="M145.74,98.86c6.14-4.41,1.07-4.78,7.45,0.43c-6.39,5.21-1.31,4.83-7.45,0.42
			C145.38,99.53,145.38,99.03,145.74,98.86z"/>
	</g>
</g>
</svg>
