<?xml version="1.0" encoding="utf-8"?>
<!-- Generator: Adobe Illustrator 24.1.3, SVG Export Plug-In . SVG Version: 6.00 Build 0)  -->
<svg version="1.1" id="Layer_1" xmlns="http://www.w3.org/2000/svg" xmlns:xlink="http://www.w3.org/1999/xlink" x="0px" y="0px"
	 viewBox="0 0 51.86 44.39" style="enable-background:new 0 0 51.86 44.39;" xml:space="preserve">
<style type="text/css">
	.st0{fill:#FFFFFF;}
</style>
<g>
	<path class="st0" d="M46.99,34.01l-5.22-5.22c-0.39-0.39-0.94-0.53-1.45-0.42l-1.68-1.68c2.46-3.13,2.26-7.67-0.63-10.55
		c-1.56-1.56-3.6-2.34-5.65-2.33v-1.85V9.21c0-0.61-0.25-1.16-0.65-1.56c-0.4-0.4-0.95-0.65-1.56-0.65h-9.9h-9.9
		c-0.61,0-1.16,0.25-1.56,0.65c-0.4,0.4-0.65,0.95-0.65,1.56v12.56v12.56c0,0.61,0.25,1.16,0.65,1.56c0.4,0.4,0.95,0.65,1.56,0.65
		h9.9h9.9c0.61,0,1.16-0.25,1.56-0.65c0.4-0.4,0.65-0.95,0.65-1.56v-3.12v-1.47c1.75,0,3.49-0.57,4.93-1.71l1.68,1.68
		c-0.11,0.51,0.03,1.06,0.42,1.45l5.22,5.22c0.61,0.61,1.61,0.61,2.22,0l0.15-0.15C47.6,35.62,47.6,34.62,46.99,34.01z M13.11,15.21
		c-0.37,0-0.71-0.15-0.96-0.4c-0.25-0.25-0.4-0.58-0.4-0.96v-1.68c0-0.37,0.15-0.71,0.4-0.96c0.25-0.25,0.58-0.4,0.96-0.4h14.43
		c0.37,0,0.71,0.15,0.96,0.4c0.25,0.25,0.4,0.58,0.4,0.96v1.68c0,0.37-0.15,0.71-0.4,0.96c-0.01,0.01-0.02,0.01-0.03,0.02
		c-0.17,0.09-0.34,0.19-0.5,0.3c-0.14,0.05-0.28,0.08-0.43,0.08H13.11z M28.62,25.5c-2.07-2.07-2.07-5.42,0-7.48
		c2.07-2.07,5.42-2.07,7.48,0c2.07,2.07,2.07,5.42,0,7.48C34.04,27.57,30.69,27.57,28.62,25.5z"/>
	<path class="st0" d="M32.36,18.03v7.45c2.06,0,3.73-1.67,3.73-3.73S34.42,18.03,32.36,18.03z"/>
</g>
</svg>
