<svg id="Layer_1" data-name="Layer 1" xmlns="http://www.w3.org/2000/svg" xmlns:xlink="http://www.w3.org/1999/xlink" viewBox="0 0 56 57"><defs><style>.cls-1{fill:none;}.cls-2{fill:#4b0f91;}.cls-3{clip-path:url(#clip-path);}.cls-4{fill:#23fa59;}.cls-5{fill:#31bc4f;}.cls-6{fill:#fff;}</style><clipPath id="clip-path"><rect class="cls-1" x="-0.09" y="0.97" width="56" height="56" rx="13.07"/></clipPath></defs><title>assets</title><rect class="cls-2" x="-0.09" y="0.97" width="56" height="56" rx="13.07"/><g class="cls-3"><path class="cls-4" d="M35.5,17.24,24,18.79a3.44,3.44,0,0,1-3.86-2.94L19.05,7.78A3.43,3.43,0,0,1,22,3.93L33.5,2.38a3.42,3.42,0,0,1,3.86,2.94l1.08,8.06A3.42,3.42,0,0,1,35.5,17.24ZM24.58,14l9.1-1.22-.76-5.66-9.1,1.23Z"/><path class="cls-5" d="M32.92,7.14l.76,5.66L24.58,14l-.76-5.65L19.22,9l.92,6.86A3.44,3.44,0,0,0,24,18.79l11.5-1.55a3.42,3.42,0,0,0,2.94-3.86l-.92-6.86Z"/><path class="cls-4" d="M57.47,52.75,12.21,58.84a1.72,1.72,0,0,1-2-1.65L8.89,14.92a1.82,1.82,0,0,1,1.58-1.87L47,8.12a1.82,1.82,0,0,1,2,1.39l9.87,41.12A1.74,1.74,0,0,1,57.47,52.75Z"/><path class="cls-6" d="M13.63,53a19.51,19.51,0,0,0,2.43-1.15l3.53-16.59L9.21,24.72l.95,29.35.84-.23C11.76,53.61,12.63,53.32,13.63,53Z"/><path class="cls-6" d="M23.44,17.94c-1,.23-1.94.47-2.69.69-1,.29-1.93.64-2.87,1a14,14,0,0,0-2.17,1.08L27.76,32.8,24.17,49.42a13.78,13.78,0,0,0,2.4-.31c1-.2,2-.44,2.94-.73.76-.22,1.63-.51,2.63-.88a19.51,19.51,0,0,0,2.43-1.15L38.1,29.76l-12-12.1A17.56,17.56,0,0,0,23.44,17.94Z"/><path class="cls-6" d="M41.77,12.55c-1,.22-1.93.46-2.69.68-1,.29-1.93.65-2.87,1a13.84,13.84,0,0,0-2.16,1.08l12,12.09L42.5,44a14.63,14.63,0,0,0,2.4-.3c1-.21,2-.45,3-.73.75-.23,1.63-.52,2.62-.89A18.84,18.84,0,0,0,52.9,41l1.74-8.16L51.39,19.27l-6.94-7A16.52,16.52,0,0,0,41.77,12.55Z"/><path class="cls-4" d="M3.18,16.79A1.38,1.38,0,0,1,3,14.05l9.82-1.33a1.37,1.37,0,0,1,.37,2.72L3.36,16.78Z"/><path class="cls-4" d="M5.26,22.06a1.38,1.38,0,0,1-.18-2.74L14.9,18a1.37,1.37,0,0,1,.37,2.72L5.45,22Z"/><path class="cls-6" d="M4.55,49.07a1.37,1.37,0,0,1-.18-2.73L14.19,45a1.38,1.38,0,1,1,.37,2.73L4.74,49.06Z"/><path class="cls-6" d="M6.33,43.28a1.38,1.38,0,0,1-.19-2.74L16,39.21a1.37,1.37,0,1,1,.37,2.72L6.51,43.27Z"/><path class="cls-6" d="M1.13,44A1.38,1.38,0,0,1,1,41.27L3,41a1.37,1.37,0,1,1,.36,2.72l-2,.28Z"/><path class="cls-2" d="M1.56,19.79a1.38,1.38,0,0,1-.19-2.74l9.82-1.33a1.37,1.37,0,1,1,.37,2.72L1.74,19.77Z"/><path class="cls-2" d="M2.22,46.61A1.38,1.38,0,0,1,2,43.87l9.82-1.33a1.37,1.37,0,1,1,.37,2.72L2.41,46.59Z"/></g></svg>