<?xml version="1.0" encoding="utf-8"?>
<!-- Generator: Adobe Illustrator 23.0.1, SVG Export Plug-In . SVG Version: 6.00 Build 0)  -->
<svg version="1.1" id="Layer_1" xmlns="http://www.w3.org/2000/svg" xmlns:xlink="http://www.w3.org/1999/xlink" x="0px" y="0px"
	 viewBox="0 0 1080 1080" style="enable-background:new 0 0 1080 1080;" xml:space="preserve">
<style type="text/css">
	.st0{fill:#623C96;}
	.st1{fill:#220854;}
	.st2{fill:#FFFFFF;}
</style>
<title>Untitled-3</title>
<rect class="st0" width="1080" height="1080"/>
<path class="st1" d="M1023.2,398.3c0.1,11.5,0.5,23,0.4,34.5c-0.9,70.9-22.4,135.2-62.8,193.3c-11.3,16.3-31.2,20.3-46.4,9.7
	c-15.4-10.8-18.2-30.8-6.6-47.4c45.8-66.1,61.2-138.9,45.2-217.4c-14.3-70.1-51.3-126.4-109-168.8c-10.6-7.8-16.1-17.8-14.8-31
	c1.2-12.4,7.8-21.3,19.1-26.3c11.6-5,22.8-3.6,33,3.9C944,195,987.2,255.2,1009.5,330.3c1.5,5,3.3,10,5,15L1023.2,398.3z"/>
<path class="st1" d="M880.7,390c8.9,59.9-2.3,110.5-34.6,156.1c-10.9,15.3-30.7,18.7-45.5,8.2s-17.8-30.3-7.2-45.8
	c44.2-64.5,30.8-145.9-31.9-193.6c-16.6-12.6-18.9-34.8-5-49.3c11.1-11.8,29.2-13.4,42.2-3.8c35.1,25,59.8,58,73.9,98.6
	C876.4,371.5,878.8,383.1,880.7,390z"/>
<path class="st2" d="M344.4,465c1.2-100.3,73.8-185,172.7-200.9c113-18.2,220.3,62.9,234.6,176.7c5,39.8-3,77.4-16.9,114.1
	c-22.3,58.8-54,112.6-90.5,163.4c-25,34.8-51.9,68.2-78.4,102c-9,11.5-22.4,11.6-31.5,0.8c-54-63.5-103.1-130.5-142.3-204.4
	c-20-37.6-36.8-76.4-44.1-118.7C345.9,487.1,345.5,476,344.4,465z M549,564.9c55-0.6,98-44.2,97.5-99c-0.5-52.6-44.8-96.8-96.7-96.3
	c-55.5,0.5-98.9,44.2-98.3,99.1C452,521.4,496.5,565.4,549,564.9z"/>
<path class="st1" d="M68.4,426c0.6,11.5,0.9,23,1.7,34.5c5.1,70.7,30.4,133.6,74.2,189.2c12.3,15.6,32.3,18.4,46.9,6.9
	c14.8-11.7,16.3-31.8,3.8-47.7c-49.7-63.2-69.3-135-58-214.3c10.1-70.8,43.7-129.2,98.8-174.9c10.1-8.4,15.1-18.7,13-31.8
	c-1.9-12.3-9-20.8-20.6-25.1c-11.9-4.4-23-2.2-32.7,5.8C135.4,218.6,95.8,281.2,78,357.4c-1.2,5.1-2.7,10.2-4,15.3L68.4,426z"/>
<path class="st1" d="M210.2,409.3c-5.3,60.3,8.8,110.1,43.8,153.7c11.7,14.7,31.8,16.8,45.9,5.4c14.1-11.4,16-31.4,4.5-46.2
	c-48-61.8-39.4-143.8,20.4-195.2c15.9-13.6,16.8-35.9,2.1-49.4c-11.7-11.1-29.9-11.7-42.3-1.4c-33.5,27.1-56.3,61.4-67.9,102.8
	C213.3,390.6,211.6,402.4,210.2,409.3z"/>
</svg>
