<svg id="Layer_1" data-name="Layer 1" xmlns="http://www.w3.org/2000/svg" viewBox="0 0 500 500"><defs><style>.cls-1{fill:#74d81d;}.cls-2{fill:#469704;}.cls-3{fill:#71c620;}</style></defs><title>para cajero delivery</title><rect class="cls-1" width="500" height="500"/><path class="cls-2" d="M397.24,245.36c0-8.77,0-17.54,0-26.31-35.91,0-81.65,0-119.2,0H218a17.07,17.07,0,0,1-5.39-.57,11.22,11.22,0,0,1-7.81-12.5,11,11,0,0,1,.48-2c-59.32,0-117.51-.06-148.7-.06q-12,0-11.94,8.64c.05,5.67,4,8.44,12.09,8.44,12.62,0,108.24,0,120.87,0,6.36,0,10.41,3.45,10.36,8.72-.06,5-4.16,8.27-10.34,8.27q-46.14,0-92.26,0a18.2,18.2,0,0,0-4.79.43c-3.55,1-5.82,3.29-6.22,7a8.28,8.28,0,0,0,4.57,8.68,10.06,10.06,0,0,0,5.1.83l62.85,0a31.42,31.42,0,0,1,3.22,0,8.89,8.89,0,0,1,8.26,8.41c.15,4.27-3.27,8-8,8.64a29.08,29.08,0,0,1-3.62.1c-12.49,0-25-.05-37.47,0-5.18,0-8.84,3.7-8.86,8.46,0,4.52,3.55,8.14,8.47,8.55,1.07.09,2.15,0,3.22,0q33,0,66.07,0c5.78,0,9.78,3.54,9.71,8.46s-3.94,8.44-9.73,8.49c-7.12.07-14.24-.05-21.35.11A8.46,8.46,0,0,0,154.6,323a16.42,16.42,0,0,0,4.77.44c38.54,0,200.59-.09,233.48.08,3.45,0,4.52-.77,4.49-4.4C397.16,294.51,397.24,269.94,397.24,245.36Zm-98.63,76.4a2.41,2.41,0,0,1-.93,0l1-.08c.09.13.19.25.29.38Z"/><path class="cls-3" d="M380.88,248.21c0-2.35-.56-3.54-3.26-4-7.43-1.18-12.11-6-13.39-13.13-.68-3.75-2.24-3.73-5-3.73q-64.65.06-129.3,0c-.67,0-1.35,0-2,0-1.55-.06-2.38.39-2.63,2.19-1.12,8.08-6.05,12.82-13.76,14.71-2.46.61-3.18,1.78-3.17,4.19q.13,21.56,0,43.1c0,2.6.7,4,3.42,4.36,7.64,1.13,11.73,6.2,13.14,13.27.65,3.21,2,3.67,4.73,3.66,21.62-.08,43.24,0,64.85,0s43.51,0,65.26,0c2.2,0,3.79.2,4.41-3,1.45-7.56,6-12.66,14-14,2.1-.35,2.75-1.62,2.74-3.7Q380.79,270.16,380.88,248.21Z"/><circle class="cls-2" cx="294.63" cy="270.13" r="31.43"/><circle class="cls-2" cx="235.81" cy="270.13" r="11.28"/><circle class="cls-2" cx="355.87" cy="270.13" r="12.89"/><path class="cls-3" d="M289.81,289.78a23.36,23.36,0,0,1-5.89-1.79,17.54,17.54,0,0,1-4.74-3.07l2.58-3.73a2.52,2.52,0,0,1,.87-.77,2.3,2.3,0,0,1,1.17-.31,2.84,2.84,0,0,1,1.31.34,15.14,15.14,0,0,1,1.46.82c.53.32,1.11.64,1.74,1a9.94,9.94,0,0,0,2.14.81l1-10.14c-1.29-.36-2.57-.78-3.84-1.27a12.32,12.32,0,0,1-3.44-2,9.17,9.17,0,0,1-2.48-3.15,10.62,10.62,0,0,1-.95-4.79,10.39,10.39,0,0,1,.86-4.15,11,11,0,0,1,2.51-3.64,13,13,0,0,1,4.06-2.65,14,14,0,0,1,5.53-1l.3-3a2.2,2.2,0,0,1,.67-1.37,2,2,0,0,1,1.53-.62h3.06l-.54,5.29a15.91,15.91,0,0,1,5,1.73,19,19,0,0,1,3.54,2.56l-2,3a3.39,3.39,0,0,1-.93,1,1.93,1.93,0,0,1-1.11.31,2.86,2.86,0,0,1-1-.19c-.36-.12-.75-.28-1.18-.47l-1.38-.6a13.78,13.78,0,0,0-1.57-.56l-.94,9.53c.86.25,1.72.52,2.58.82a21.52,21.52,0,0,1,2.48,1,14.54,14.54,0,0,1,2.23,1.32,8.63,8.63,0,0,1,1.79,1.78,8.08,8.08,0,0,1,1.2,2.34,9.75,9.75,0,0,1,.43,3,13.36,13.36,0,0,1-.86,4.8,11.63,11.63,0,0,1-2.52,4,13.08,13.08,0,0,1-4.08,2.8,16.39,16.39,0,0,1-5.53,1.33l-.33,3.36a2.18,2.18,0,0,1-.67,1.35,2,2,0,0,1-1.53.61h-3.06ZM288.58,261a3.44,3.44,0,0,0,1,2.57,8.22,8.22,0,0,0,2.65,1.65l.8-8.11a8.44,8.44,0,0,0-2.08.55,4.48,4.48,0,0,0-1.37.87,3.13,3.13,0,0,0-.76,1.14A3.73,3.73,0,0,0,288.58,261ZM300,278.34a3.19,3.19,0,0,0-1-2.44,8,8,0,0,0-2.59-1.53l-.86,8.86Q300,282.45,300,278.34Z"/><path class="cls-2" d="M460.9,135c0-12.36-.09-24.71.08-37.07,0-3.35-.65-4.74-4.36-4.49-5.49.36-174.44.12-253.41.13-8,0-12,2.89-11.93,8.63s4,8.45,12.08,8.45q18.94,0,37.88,0c6.35,0,10.41,3.44,10.35,8.71-.05,5-4.15,8.27-10.34,8.27q-46.12,0-92.26,0a18.59,18.59,0,0,0-4.78.43c-3.55,1-5.83,3.3-6.22,7.06a8.26,8.26,0,0,0,4.57,8.67,10,10,0,0,0,5.1.84h62.85a31.45,31.45,0,0,1,3.22,0,8.89,8.89,0,0,1,8.26,8.4c.14,4.28-3.27,8-8,8.64a27.27,27.27,0,0,1-3.62.1c-12.49,0-25,0-37.47,0-5.18,0-8.84,3.7-8.86,8.47,0,4.51,3.55,8.14,8.47,8.55,1.06.09,2.14,0,3.22,0q33,0,66.07,0c5.78,0,9.78,3.55,9.71,8.46s-3.94,8.45-9.73,8.5c-7.12.06-14.24-.06-21.35.1a8.46,8.46,0,0,0-2.22,16.53A16.09,16.09,0,0,0,223,213c38.54,0,200.59-.1,233.48.08,3.45,0,4.52-.77,4.49-4.41C460.82,184.12,460.9,159.54,460.9,135Z"/><path class="cls-2" d="M153,110.61c-6,0-12.07,0-18.1,0-5.55-.06-9.3-3.44-9.41-8.33s3.84-8.65,9.47-8.69q18.51-.12,37,0c5.18,0,8.88,3.61,8.94,8.36.06,5-3.61,8.64-9,8.72C165.61,110.69,159.31,110.62,153,110.61Z"/><path class="cls-2" d="M120.91,162c6,0,12.07,0,18.1,0,5.5.06,9.17,3.52,9.17,8.49s-3.58,8.5-9.13,8.53q-18.51.1-37,0c-5.42,0-9.27-3.67-9.31-8.51s3.88-8.45,9.27-8.53C108.3,162,114.61,162,120.91,162Z"/><path class="cls-3" d="M444.53,131.37c0-2.35-.55-3.54-3.25-4-7.43-1.18-12.11-6-13.39-13.13-.68-3.75-2.24-3.73-5-3.73q-64.65.06-129.31,0c-.67,0-1.34,0-2,0-1.55-.06-2.38.39-2.63,2.19-1.13,8.08-6,12.82-13.76,14.71-2.46.61-3.18,1.78-3.17,4.19q.14,21.56,0,43.1c0,2.6.7,4,3.42,4.36,7.64,1.12,11.73,6.2,13.14,13.27.64,3.21,2,3.67,4.73,3.66,21.62-.08,43.23,0,64.85,0s43.51,0,65.26,0c2.2,0,3.79.2,4.4-3,1.46-7.56,6-12.66,14-14,2.1-.35,2.75-1.62,2.74-3.7Q444.45,153.32,444.53,131.37Z"/><circle class="cls-2" cx="358.29" cy="153.29" r="31.43"/><circle class="cls-2" cx="299.47" cy="153.29" r="11.28"/><circle class="cls-2" cx="419.53" cy="153.29" r="12.89"/><path class="cls-3" d="M353.47,172.93a23.34,23.34,0,0,1-5.89-1.78,17.39,17.39,0,0,1-4.74-3.07l2.57-3.74a2.74,2.74,0,0,1,.88-.76,2.27,2.27,0,0,1,1.16-.31,2.88,2.88,0,0,1,1.32.34,16.44,16.44,0,0,1,1.46.82c.53.32,1.11.64,1.73,1a9.72,9.72,0,0,0,2.15.82l1-10.14c-1.29-.36-2.57-.79-3.84-1.27a12.32,12.32,0,0,1-3.44-2,9.17,9.17,0,0,1-2.48-3.15,11.42,11.42,0,0,1-.1-8.94,11.32,11.32,0,0,1,2.51-3.64,13.09,13.09,0,0,1,4.07-2.65,13.91,13.91,0,0,1,5.53-1l.29-3a2.32,2.32,0,0,1,.68-1.38,2,2,0,0,1,1.53-.61h3.06l-.54,5.29a15.76,15.76,0,0,1,5,1.73,18.76,18.76,0,0,1,3.55,2.56l-2,3a3.53,3.53,0,0,1-.93,1,1.93,1.93,0,0,1-1.11.31,2.86,2.86,0,0,1-1-.19c-.36-.12-.75-.28-1.18-.47l-1.38-.6a14.51,14.51,0,0,0-1.57-.56L360.8,150c.85.25,1.71.52,2.57.81a25,25,0,0,1,2.49,1,14.82,14.82,0,0,1,2.22,1.33,8.63,8.63,0,0,1,1.8,1.77,8.27,8.27,0,0,1,1.2,2.35,10.05,10.05,0,0,1,.43,3,13.4,13.4,0,0,1-.86,4.8,11.81,11.81,0,0,1-2.53,4,13.08,13.08,0,0,1-4.08,2.8,16.33,16.33,0,0,1-5.53,1.33l-.32,3.36a2.23,2.23,0,0,1-.67,1.35,2,2,0,0,1-1.53.6h-3.06Zm-1.24-28.8a3.4,3.4,0,0,0,1,2.56,8.13,8.13,0,0,0,2.64,1.66l.81-8.11a8.44,8.44,0,0,0-2.08.55,4.36,4.36,0,0,0-1.37.87,3.29,3.29,0,0,0-.77,1.14A3.73,3.73,0,0,0,352.23,144.13Zm11.39,17.37a3.17,3.17,0,0,0-1-2.44,7.91,7.91,0,0,0-2.6-1.53l-.85,8.85Q363.62,165.62,363.62,161.5Z"/><path class="cls-2" d="M62.09,272.44c6,0,12.06-.05,18.1,0,5.5.06,9.17,3.51,9.17,8.49s-3.59,8.49-9.13,8.52q-18.51.11-37,0c-5.43,0-9.28-3.68-9.31-8.51s3.87-8.45,9.27-8.54C49.48,272.36,55.78,272.43,62.09,272.44Z"/></svg>