<svg id="Layer_1" data-name="Layer 1" xmlns="http://www.w3.org/2000/svg" viewBox="0 0 147 170"><defs><style>.cls-1{fill:#9ef27c;}.cls-2{fill:#6cbc46;}.cls-3{fill:#3d087a;}.cls-4{fill:#ee3853;}.cls-5{fill:#630db5;}.cls-6{fill:none;stroke:#3d087a;stroke-linecap:round;stroke-linejoin:round;stroke-width:5px;}</style></defs><title>Untitled-1</title><circle class="cls-1" cx="74.21" cy="86.05" r="66.08"/><path class="cls-2" d="M92.49,149.54C113.83,126.79,121.43,111,121.43,111h0a47.58,47.58,0,0,0,3.65-37.21L135.1,63a4.43,4.43,0,0,0,.66-1,65.67,65.67,0,0,0-3.6-7.74L108.55,34a4.5,4.5,0,0,0-6.1.21l-7.2,7.1a4.42,4.42,0,0,0-1,1.65A47.41,47.41,0,0,0,32.7,83.16c-.06.13-.14.24-.2.37l-9.75,23.88a4.5,4.5,0,0,0,2.36,5.82l14.28,6.26L35.5,129A4.5,4.5,0,0,0,38,134.9a4.45,4.45,0,0,0,1.7.34,4.5,4.5,0,0,0,4.17-2.81l3.08-7.57a236.32,236.32,0,0,0,22.59,27.08c1.56.11,3.12.19,4.7.19A66.07,66.07,0,0,0,92.49,149.54ZM105.82,43.48l19.51,16.8-4.18,4.49A47.62,47.62,0,0,0,102.7,46.56ZM32.75,106.75l1.83-4.5a47.48,47.48,0,0,0,2.54,6.41Z"/><ellipse class="cls-3" cx="72.37" cy="159.6" rx="24.58" ry="8.07"/><path class="cls-3" d="M32.17,135.24a4.4,4.4,0,0,1-1.69-.34A4.49,4.49,0,0,1,28,129l3.88-9.55-14.27-6.26a4.49,4.49,0,0,1-2.36-5.82L25,83.53a4.5,4.5,0,0,1,8.33,3.41l-8.09,19.81L39.52,113a4.5,4.5,0,0,1,2.36,5.82l-5.54,13.61A4.5,4.5,0,0,1,32.17,135.24Z"/><path class="cls-4" d="M65.36,9.74a12.35,12.35,0,0,1,1.39-1,10.89,10.89,0,0,1,1.6-.81,9.59,9.59,0,0,1,1.86-.55,11,11,0,0,1,2.14-.2,9.19,9.19,0,0,1,2.92.43,6.49,6.49,0,0,1,2.21,1.23,5.31,5.31,0,0,1,1.4,1.93,6.13,6.13,0,0,1,.49,2.5A6.4,6.4,0,0,1,79,15.54a6.24,6.24,0,0,1-.92,1.65,7,7,0,0,1-1.22,1.22l-1.26.95a9.57,9.57,0,0,0-1,.88,1.78,1.78,0,0,0-.55,1l-.48,2.41H69.9l-.37-2.77a.76.76,0,0,1,0-.21,1.34,1.34,0,0,1,0-.2,2.43,2.43,0,0,1,.36-1.33,4.93,4.93,0,0,1,.91-1c.37-.31.77-.62,1.19-.91a10.12,10.12,0,0,0,1.19-.95,4.66,4.66,0,0,0,.91-1.13,3,3,0,0,0,.36-1.49,2.06,2.06,0,0,0-.68-1.64,2.66,2.66,0,0,0-1.86-.61,5.53,5.53,0,0,0-1.53.18,6.17,6.17,0,0,0-1,.43c-.29.15-.55.29-.76.42a1.38,1.38,0,0,1-.66.19,1.2,1.2,0,0,1-1.1-.64Zm3.17,20.08a2.86,2.86,0,0,1,.87-2.08,2.82,2.82,0,0,1,.95-.63,3.18,3.18,0,0,1,1.21-.23,3.06,3.06,0,0,1,1.18.23,3,3,0,0,1,1,.63,2.92,2.92,0,0,1,.88,2.08A2.83,2.83,0,0,1,74.35,31a2.9,2.9,0,0,1-.64.94,3.16,3.16,0,0,1-1,.62,3.06,3.06,0,0,1-1.18.22,3.18,3.18,0,0,1-1.21-.22,3,3,0,0,1-.95-.62,2.9,2.9,0,0,1-.64-.94A2.83,2.83,0,0,1,68.53,29.82Z"/><path class="cls-5" d="M119.8,88.12A47.43,47.43,0,1,0,30.8,111h0s9.46,19.67,36.88,46.71a6.7,6.7,0,0,0,9.39,0c27.42-27,36.88-46.71,36.88-46.71h0A47.14,47.14,0,0,0,119.8,88.12Z"/><circle class="cls-3" cx="47.18" cy="64.17" r="4.08"/><circle class="cls-3" cx="78.3" cy="64.17" r="4.08"/><path class="cls-6" d="M64.38,75.13s-7.57-3.5-12-2.5V76.8"/><path class="cls-3" d="M105.56,84.59a4.49,4.49,0,0,1-3.3-7.56l15.57-16.75L98.32,43.48l-4.25,4.19a4.5,4.5,0,0,1-6.32-6.41l7.2-7.1a4.5,4.5,0,0,1,6.1-.21l26.19,22.56A4.5,4.5,0,0,1,127.6,63L108.85,83.15A4.45,4.45,0,0,1,105.56,84.59Z"/></svg>