<?xml version="1.0" encoding="utf-8"?>
<!-- Generator: Adobe Illustrator 19.0.0, SVG Export Plug-In . SVG Version: 6.00 Build 0)  -->
<svg version="1.1" id="Layer_1" xmlns="http://www.w3.org/2000/svg" xmlns:xlink="http://www.w3.org/1999/xlink" x="0px" y="0px"
	 viewBox="0 0 187.9 169.7" style="enable-background:new 0 0 187.9 169.7;" xml:space="preserve">
<style type="text/css">
	.st0{fill:#3D087A;}
	.st1{fill:#FFC524;}
	.st2{fill:#D51E3D;}
	.st3{fill:#EE3853;}
	.st4{fill:#FFFFFF;}
</style>
<g id="XMLID_430_">
	<circle id="XMLID_391_" class="st0" cx="96.8" cy="82.3" r="66.1"/>
	<g id="XMLID_393_">
		<g id="XMLID_385_">
			<path id="XMLID_390_" class="st1" d="M51.8,141.2V84.7c0-1.6-0.6-3-1.6-4.1c1.9-1.4,3.1-3.6,3.1-6.2c0-4.3-3.5-7.8-7.8-7.8
				s-7.8,3.5-7.8,7.8c0,2.5,1.2,4.7,3.1,6.2c-1,1.1-1.6,2.5-1.6,4.1v56.5c-5.1,2.1-8.8,6.7-9.8,12.2h32.1
				C60.6,147.9,56.9,143.3,51.8,141.2z"/>
			<path id="XMLID_389_" class="st1" d="M154.3,141.2V84.7c0-1.6-0.6-3-1.6-4.1c1.9-1.4,3.1-3.6,3.1-6.2c0-4.3-3.5-7.8-7.8-7.8
				s-7.8,3.5-7.8,7.8c0,2.5,1.2,4.7,3.1,6.2c-1,1.1-1.6,2.5-1.6,4.1v56.5c-5.1,2.1-8.8,6.7-9.8,12.2h32.1
				C163.1,147.9,159.4,143.3,154.3,141.2z"/>
			<path id="XMLID_388_" class="st2" d="M95.4,102.3c-22,0-36-8.2-36.9-8.7c-2.8-1.7-3.8-5.4-2.1-8.2c1.7-2.8,5.4-3.8,8.2-2.1
				c1.2,0.7,27.5,15.6,65-0.4c3-1.3,6.6,0.1,7.9,3.2c1.3,3-0.1,6.6-3.2,7.9C119.8,100.2,106.6,102.3,95.4,102.3z"/>
			<circle id="XMLID_387_" class="st1" cx="54.5" cy="84.1" r="3.2"/>
			<circle id="XMLID_386_" class="st1" cx="139.3" cy="84.1" r="3.2"/>
		</g>
		<path id="XMLID_382_" class="st3" d="M110.1,133.5H83.6c-2.4,0-4.4-2-4.4-4.4v-19.7c0-2.4,2-4.4,4.4-4.4h26.5c2.4,0,4.4,2,4.4,4.4
			v19.7C114.5,131.6,112.5,133.5,110.1,133.5z"/>
		<g id="XMLID_146_">
			<path id="XMLID_158_" class="st4" d="M98.3,125.8c-0.3-0.3-0.6-0.5-1-0.6c-0.7-0.3-1.7-0.3-2.4,0c-0.4,0.2-0.7,0.4-1,0.6
				s-0.5,0.6-0.6,0.9c-0.2,0.4-0.2,0.8-0.2,1.2c0,0.4,0.1,0.8,0.2,1.2c0.2,0.4,0.4,0.7,0.6,1s0.6,0.5,1,0.6c0.4,0.1,0.8,0.2,1.2,0.2
				c0.4,0,0.8-0.1,1.2-0.2c0.4-0.1,0.7-0.4,1-0.6c0.3-0.3,0.5-0.6,0.7-1c0.2-0.4,0.2-0.8,0.2-1.2c0-0.4-0.1-0.8-0.2-1.2
				C98.8,126.3,98.6,126,98.3,125.8z"/>
			<path id="XMLID_178_" class="st4" d="M102.8,111.6c-0.3-0.7-0.7-1.3-1.3-1.8c-0.6-0.5-1.2-0.9-2-1.1c-0.8-0.3-1.7-0.4-2.6-0.4
				c-0.7,0-1.3,0.1-1.9,0.2c-0.6,0.1-1.1,0.3-1.7,0.5s-1,0.5-1.4,0.7c-0.4,0.3-0.9,0.6-1.2,0.9c-0.2,0.2-0.2,0.4-0.1,0.7l1.2,1.8
				c0.3,0.5,0.8,0.8,1.4,0.8c0.3,0,0.5-0.1,0.8-0.2c0.2-0.1,0.4-0.2,0.6-0.3c0.2-0.1,0.5-0.2,0.8-0.3c0.3-0.1,0.7-0.1,1.1-0.1
				c0.5,0,1,0.1,1.2,0.4c0.3,0.2,0.4,0.6,0.4,1c0,0.4-0.1,0.7-0.2,1c-0.2,0.3-0.4,0.6-0.7,0.8c-0.3,0.3-0.6,0.5-0.9,0.8
				c-0.4,0.3-0.7,0.5-1,0.8c-0.3,0.3-0.6,0.6-0.9,1c-0.3,0.4-0.4,0.9-0.4,1.4c0,0.1,0,0.1,0,0.2c0,0.1,0,0.1,0,0.2l0.3,2.3
				c0,0.2,0.2,0.4,0.5,0.4h3.1c0.2,0,0.4-0.2,0.5-0.4l0.4-2c0-0.2,0.1-0.4,0.3-0.5c0.2-0.2,0.5-0.5,0.8-0.7c0.3-0.3,0.7-0.5,1.1-0.8
				c0.4-0.3,0.8-0.7,1.1-1.1c0.3-0.4,0.6-1,0.9-1.5c0.2-0.6,0.3-1.3,0.3-2.1C103.2,113.1,103.1,112.3,102.8,111.6z"/>
		</g>
		<path id="XMLID_392_" class="st1" d="M86.8,87.3L86.8,87.3c-0.9,0-1.7,0.8-1.7,1.7v15.8c0,0.9,0.8,1.7,1.7,1.7l0,0
			c0.9,0,1.7-0.8,1.7-1.7V89C88.5,88,87.7,87.3,86.8,87.3z"/>
		<path id="XMLID_429_" class="st1" d="M106.8,87.3L106.8,87.3c-0.9,0-1.7,0.8-1.7,1.7v15.8c0,0.9,0.8,1.7,1.7,1.7h0
			c0.9,0,1.7-0.8,1.7-1.7V89C108.5,88,107.7,87.3,106.8,87.3z"/>
	</g>
	<path id="XMLID_454_" class="st4" d="M52.6,51.1c1.3-0.6,2.5-1.5,3.5-2.5c1-1,1.9-2.2,2.5-3.5c0.2-0.3,0.5-0.5,0.8-0.5
		c0.3,0,0.6,0.2,0.8,0.5c0.6,1.3,1.5,2.5,2.5,3.5c1,1,2.2,1.9,3.5,2.5c0.3,0.2,0.5,0.5,0.5,0.8c0,0.3-0.2,0.6-0.5,0.8
		c-1.3,0.6-2.5,1.5-3.5,2.5c-1,1-1.9,2.2-2.5,3.5c-0.2,0.3-0.5,0.5-0.8,0.5c-0.3,0-0.6-0.2-0.8-0.5c-0.6-1.3-1.5-2.5-2.5-3.5
		c-1-1-2.2-1.9-3.5-2.5c-0.3-0.2-0.5-0.5-0.5-0.8C52.1,51.6,52.2,51.3,52.6,51.1z"/>
	<path id="XMLID_439_" class="st4" d="M157.3,46.5c1.3-0.6,2.5-1.5,3.5-2.5c1-1,1.9-2.2,2.5-3.5c0.2-0.3,0.5-0.5,0.8-0.5
		c0.3,0,0.6,0.2,0.8,0.5c0.6,1.3,1.5,2.5,2.5,3.5c1,1,2.2,1.9,3.5,2.5c0.3,0.2,0.5,0.5,0.5,0.8s-0.2,0.6-0.5,0.8
		c-1.3,0.6-2.5,1.5-3.5,2.5c-1,1-1.9,2.2-2.5,3.5c-0.2,0.3-0.5,0.5-0.8,0.5c-0.3,0-0.6-0.2-0.8-0.5c-0.6-1.3-1.5-2.5-2.5-3.5
		c-1-1-2.2-1.9-3.5-2.5c-0.3-0.2-0.5-0.5-0.5-0.8S157,46.7,157.3,46.5z"/>
	<path id="XMLID_431_" class="st4" d="M70.2,58.7c0.8-0.4,1.6-0.9,2.2-1.6c0.6-0.6,1.2-1.4,1.6-2.2c0.1-0.2,0.3-0.3,0.5-0.3
		c0.2,0,0.4,0.1,0.5,0.3c0.4,0.8,0.9,1.6,1.6,2.2c0.6,0.6,1.4,1.2,2.2,1.6c0.2,0.1,0.3,0.3,0.3,0.5c0,0.2-0.1,0.4-0.3,0.5
		c-0.8,0.4-1.6,0.9-2.2,1.6C76,62,75.4,62.7,75,63.5c-0.1,0.2-0.3,0.3-0.5,0.3s-0.4-0.1-0.5-0.3c-0.4-0.8-0.9-1.6-1.6-2.2
		c-0.6-0.6-1.4-1.2-2.2-1.6c-0.2-0.1-0.3-0.3-0.3-0.5C69.9,59,70,58.8,70.2,58.7z"/>
	<path id="XMLID_432_" class="st4" d="M127.7,67.6c0.8-0.4,1.6-0.9,2.2-1.6c0.6-0.6,1.2-1.4,1.6-2.2c0.1-0.2,0.3-0.3,0.5-0.3
		c0.2,0,0.4,0.1,0.5,0.3c0.4,0.8,0.9,1.6,1.6,2.2c0.6,0.6,1.4,1.2,2.2,1.6c0.2,0.1,0.3,0.3,0.3,0.5c0,0.2-0.1,0.4-0.3,0.5
		c-0.8,0.4-1.6,0.9-2.2,1.6c-0.6,0.6-1.2,1.4-1.6,2.2c-0.1,0.2-0.3,0.3-0.5,0.3c-0.2,0-0.4-0.1-0.5-0.3c-0.4-0.8-0.9-1.6-1.6-2.2
		c-0.6-0.6-1.4-1.2-2.2-1.6c-0.2-0.1-0.3-0.3-0.3-0.5C127.4,67.9,127.5,67.7,127.7,67.6z"/>
	<path id="XMLID_466_" class="st4" d="M31,32.4c0.6-0.3,1.2-0.7,1.6-1.2s0.9-1,1.2-1.6c0.1-0.2,0.2-0.2,0.4-0.2
		c0.1,0,0.3,0.1,0.4,0.2c0.3,0.6,0.7,1.2,1.2,1.6c0.5,0.5,1,0.9,1.6,1.2c0.2,0.1,0.2,0.2,0.2,0.4s-0.1,0.3-0.2,0.4
		c-0.6,0.3-1.2,0.7-1.6,1.2c-0.5,0.5-0.9,1-1.2,1.6c-0.1,0.2-0.2,0.2-0.4,0.2c-0.1,0-0.3-0.1-0.4-0.2c-0.3-0.6-0.7-1.2-1.2-1.6
		c-0.5-0.5-1-0.9-1.6-1.2c-0.2-0.1-0.2-0.2-0.2-0.4S30.8,32.5,31,32.4z"/>
	<path id="XMLID_445_" class="st4" d="M14.4,86.6c0.8-0.4,1.6-0.9,2.2-1.6c0.6-0.6,1.2-1.4,1.6-2.2c0.1-0.2,0.3-0.3,0.5-0.3
		c0.2,0,0.4,0.1,0.5,0.3c0.4,0.8,0.9,1.6,1.6,2.2c0.6,0.6,1.4,1.2,2.2,1.6c0.2,0.1,0.3,0.3,0.3,0.5s-0.1,0.4-0.3,0.5
		c-0.8,0.4-1.6,0.9-2.2,1.6c-0.6,0.6-1.2,1.4-1.6,2.2c-0.1,0.2-0.3,0.3-0.5,0.3s-0.4-0.1-0.5-0.3c-0.4-0.8-0.9-1.6-1.6-2.2
		c-0.6-0.6-1.4-1.2-2.2-1.6c-0.2-0.1-0.3-0.3-0.3-0.5C14.1,86.9,14.2,86.7,14.4,86.6z"/>
</g>
</svg>
