<svg id="Layer_1" data-name="Layer 1" xmlns="http://www.w3.org/2000/svg" xmlns:xlink="http://www.w3.org/1999/xlink" viewBox="0 0 139.39 132.16"><defs><style>.cls-1{fill:none;}.cls-2{fill:#ee3853;}.cls-3{clip-path:url(#clip-path);}.cls-4{fill:#d51e3d;}.cls-5{fill:#9ef27c;}.cls-6{fill:#6cbc46;}.cls-7{fill:#fff;}</style><clipPath id="clip-path"><circle class="cls-1" cx="73.31" cy="66.08" r="66.08"/></clipPath></defs><title>Untitled-1</title><circle class="cls-2" cx="73.31" cy="66.08" r="66.08"/><g class="cls-3"><path class="cls-4" d="M121.57,38.77a4.12,4.12,0,0,0-3.26-1.59H32.15L25.55,25A4,4,0,0,0,22,22.86H11.94a4,4,0,1,0,0,8h7.71l26.71,49.5h-2.8a14.47,14.47,0,0,0,0,28.94H97.09a4,4,0,0,0,0-8H43.56a6.47,6.47,0,1,1,0-12.94h68.5a4,4,0,0,0,1-7.88l4.19-17.14,5.14-21A4.17,4.17,0,0,0,121.57,38.77Z"/><path class="cls-4" d="M87.52,114.36a6.27,6.27,0,1,0,6.27,6.27A6.28,6.28,0,0,0,87.52,114.36Z"/><path class="cls-4" d="M45.34,114.36a6.27,6.27,0,1,0,6.26,6.27A6.29,6.29,0,0,0,45.34,114.36Z"/></g><path class="cls-5" d="M19.67,37.19,32.4,60.77,45.12,84.36h59l5.13-21,5.14-21a4.15,4.15,0,0,0-4-5.14H19.67Z"/><path class="cls-5" d="M79.58,114.36a6.27,6.27,0,1,0,6.27,6.27A6.29,6.29,0,0,0,79.58,114.36Z"/><path class="cls-5" d="M37.39,114.36a6.27,6.27,0,1,0,6.27,6.27A6.28,6.28,0,0,0,37.39,114.36Z"/><path class="cls-6" d="M83.62,66.68A10.2,10.2,0,0,0,73,58c-7.51,0-10.22,5.7-10.61,8.71a2.18,2.18,0,0,0,1.87,2.44l.3,0a2.2,2.2,0,0,0,2.17-1.88c.08-.5.88-4.9,6.27-4.9s6.19,4.38,6.26,4.89a2.2,2.2,0,0,0,2.17,1.9l.28,0A2.19,2.19,0,0,0,83.62,66.68Z"/><circle class="cls-6" cx="58.23" cy="54.14" r="3.84"/><circle class="cls-6" cx="87.47" cy="54.14" r="3.84"/><path class="cls-6" d="M104.12,80.36H47.51L17.61,25a4,4,0,0,0-3.52-2.1H4a4,4,0,0,0,0,8h7.7l26.72,49.5H35.61a14.47,14.47,0,0,0,0,28.94H89.14a4,4,0,0,0,0-8H35.61a6.47,6.47,0,0,1,0-12.94h68.51a4,4,0,0,0,0-8Z"/><path class="cls-7" d="M73,28.41h0a3.79,3.79,0,0,1-2.57-1A3.85,3.85,0,0,1,69.2,25l-.32-5.17-.32-5.16A4.45,4.45,0,0,1,73,9.89h0a4.45,4.45,0,0,1,4.45,4.74l-.32,5.16L76.81,25A3.81,3.81,0,0,1,73,28.41Z"/><path class="cls-7" d="M80.14,31.3h0a3.84,3.84,0,0,1-1.39-2.38,3.8,3.8,0,0,1,.57-2.7l3-4.24,3-4.24a4.46,4.46,0,0,1,6.44-.93h0a4.46,4.46,0,0,1,.52,6.48l-3.47,3.84L85.27,31a3.83,3.83,0,0,1-5.13.34Z"/><path class="cls-7" d="M65.88,31.3h0a3.84,3.84,0,0,0,1.39-2.38,3.8,3.8,0,0,0-.57-2.7l-3-4.24-3-4.24a4.46,4.46,0,0,0-6.44-.93h0a4.46,4.46,0,0,0-.52,6.48l3.47,3.84L60.75,31a3.83,3.83,0,0,0,5.13.34Z"/></svg>