<svg id="Layer_1" data-name="Layer 1" xmlns="http://www.w3.org/2000/svg" viewBox="0 0 147 170"><defs><style>.cls-1{fill:#9ef27c;}.cls-2{fill:#6cbc46;}.cls-3{fill:#fff;}.cls-4{fill:#bcbcbc;}.cls-5{fill:#ef503e;}.cls-6{fill:#db3d31;}.cls-7{fill:#ee3853;}</style></defs><title>Untitled-1</title><circle class="cls-1" cx="74.09" cy="90.71" r="66.08"/><path class="cls-2" d="M132.69,118.52V105.89l4.38,4.44a67.14,67.14,0,0,0,2.14-9.22l-6.52-6.6V82.7c2.59-.93,4.28-2.39,4.28-4a2.68,2.68,0,0,0-.36-1.27l-2.72-9.75-2.84-10.16c-.93-1.59-1.93-3.15-3-4.66a6.79,6.79,0,0,0-3.83-1.2H37.17a6.83,6.83,0,0,0-6.58,5l-3.08,11-2.72,9.75a2.68,2.68,0,0,0-.36,1.27c0,1.66,1.69,3.12,4.28,4V95L14.58,109.34a4,4,0,0,0,0,5.6l8.71,8.93-3.75,4.29a66.18,66.18,0,0,0,5,6.41l0,0,4.15-4.75v5.27A7,7,0,0,0,35.66,142h79.93a66.24,66.24,0,0,0,19.32-25.77Zm-104-.52L23,112.17l5.68-5.76Z"/><rect class="cls-3" x="21.85" y="61.66" width="103.97" height="80.35" rx="6.94"/><path class="cls-4" d="M125.82,70.05h-104V86.22a17.64,17.64,0,0,0,3,.76,21.42,21.42,0,0,0,3.47.27,19.64,19.64,0,0,0,6.24-.94,8.23,8.23,0,0,0,3.88-2.39.87.87,0,0,1,.65-.33.85.85,0,0,1,.67.31,8.51,8.51,0,0,0,4.08,2.41A23.49,23.49,0,0,0,57,86.3a8.52,8.52,0,0,0,4.07-2.43.82.82,0,0,1,.65-.32.81.81,0,0,1,.66.29,9.06,9.06,0,0,0,4.34,2.45,26.55,26.55,0,0,0,14.15,0,9.09,9.09,0,0,0,4.35-2.45.79.79,0,0,1,.65-.29.81.81,0,0,1,.65.32,8.61,8.61,0,0,0,4.08,2.43,21.89,21.89,0,0,0,6.61,1,22.12,22.12,0,0,0,6.58-.94,8.61,8.61,0,0,0,4.08-2.41.85.85,0,0,1,.66-.31.89.89,0,0,1,.66.33,8.18,8.18,0,0,0,3.88,2.39,19.62,19.62,0,0,0,6.23.94,21.45,21.45,0,0,0,3.48-.27,17.52,17.52,0,0,0,3-.76V70.05Z"/><ellipse class="cls-5" cx="73.84" cy="78.65" rx="12.08" ry="5.07"/><ellipse class="cls-6" cx="97.25" cy="78.65" rx="11.33" ry="5.07"/><ellipse class="cls-6" cx="50.43" cy="78.65" rx="11.33" ry="5.07"/><ellipse class="cls-5" cx="119.34" cy="78.65" rx="10.76" ry="5.07"/><ellipse class="cls-5" cx="28.33" cy="78.65" rx="10.76" ry="5.07"/><path class="cls-5" d="M130.1,78.65H17.57l3.08-11,3.08-11a6.83,6.83,0,0,1,6.58-5h87.05a6.83,6.83,0,0,1,6.59,5l3.08,11Z"/><polygon class="cls-6" points="108.58 78.65 39.1 78.65 43.76 51.61 103.92 51.61 108.58 78.65"/><polygon class="cls-5" points="85.92 78.65 61.75 78.65 64.02 51.61 83.66 51.61 85.92 78.65"/><circle class="cls-4" cx="57.56" cy="106.1" r="4.27"/><circle class="cls-4" cx="90.11" cy="106.1" r="4.27"/><path class="cls-4" d="M84.83,120.17c-.41-3.15-3.25-9.1-11.1-9.1s-10.69,6-11.09,9.1a2.27,2.27,0,0,0,2,2.55,1.62,1.62,0,0,0,.31,0,2.31,2.31,0,0,0,2.27-2c.08-.52.92-5.12,6.55-5.12s6.48,4.58,6.56,5.12a2.28,2.28,0,0,0,2.26,2h.3A2.3,2.3,0,0,0,84.83,120.17Z"/><path class="cls-3" d="M14.68,135.92a4,4,0,0,1-3-6.63l4.74-5.42L7.7,114.94a4,4,0,0,1,0-5.6l15-15.23a4,4,0,1,1,5.69,5.62L16.17,112.17l8.54,8.76a4,4,0,0,1,.15,5.43l-7.16,8.19A4,4,0,0,1,14.68,135.92Z"/><path class="cls-3" d="M133.51,135.92a4,4,0,0,1-3-1.37l-7.16-8.19a4,4,0,0,1,.14-5.43l8.55-8.76L119.73,99.73a4,4,0,0,1,5.7-5.62l15,15.23a4,4,0,0,1,0,5.6l-8.71,8.93,4.74,5.42a4,4,0,0,1-3,6.63Z"/><path class="cls-7" d="M62.76,11.48A20.07,20.07,0,0,1,65,9.86a18.1,18.1,0,0,1,2.6-1.32,16.92,16.92,0,0,1,3-.89,18,18,0,0,1,3.47-.32,14.81,14.81,0,0,1,4.72.7,10.28,10.28,0,0,1,3.58,2,8.73,8.73,0,0,1,2.27,3.12,10,10,0,0,1,.79,4.05,10.27,10.27,0,0,1-.59,3.67,9.57,9.57,0,0,1-1.49,2.67,11.06,11.06,0,0,1-2,2l-2,1.55a16.67,16.67,0,0,0-1.67,1.42A2.92,2.92,0,0,0,76.8,30L76,33.91H70.11l-.61-4.48c0-.11,0-.22,0-.33s0-.22,0-.34A3.9,3.9,0,0,1,70,26.62a7.72,7.72,0,0,1,1.47-1.68,22.8,22.8,0,0,1,1.93-1.48,17.89,17.89,0,0,0,1.92-1.53,7.83,7.83,0,0,0,1.47-1.84,4.69,4.69,0,0,0,.59-2.4A3.4,3.4,0,0,0,76.31,15a4.36,4.36,0,0,0-3-1,8.26,8.26,0,0,0-2.47.31,9.85,9.85,0,0,0-1.7.68l-1.24.68a2.12,2.12,0,0,1-1,.31A1.94,1.94,0,0,1,65,15ZM67.88,44a4.58,4.58,0,0,1,.38-1.86,4.66,4.66,0,0,1,1-1.51,5,5,0,0,1,1.55-1,5.12,5.12,0,0,1,3.87,0,5.3,5.3,0,0,1,1.56,1,4.68,4.68,0,0,1,1,1.51A4.58,4.58,0,0,1,77.69,44a4.71,4.71,0,0,1-.38,1.88,4.62,4.62,0,0,1-1,1.52,5.08,5.08,0,0,1-1.56,1,5.38,5.38,0,0,1-3.87,0,4.81,4.81,0,0,1-1.55-1,4.59,4.59,0,0,1-1-1.52A4.71,4.71,0,0,1,67.88,44Z"/></svg>