<svg id="Layer_1" data-name="Layer 1" xmlns="http://www.w3.org/2000/svg" viewBox="0 0 38 38"><defs><style>.cls-1{fill:#623c96;}.cls-2{fill:#fff;}</style></defs><title>Untitled-1</title><ellipse class="cls-1" cx="19" cy="19" rx="16.97" ry="16.96"/><path class="cls-2" d="M19,38.07A19.07,19.07,0,1,1,38.08,19,19.1,19.1,0,0,1,19,38.07ZM19,4.14A14.86,14.86,0,1,0,33.87,19,14.88,14.88,0,0,0,19,4.14Z"/><path class="cls-2" d="M27.44,16.63a8.44,8.44,0,0,0-16.88,0,8.32,8.32,0,0,0,1,4.06h0s1.87,3.9,7.39,9.12c5.52-5.22,7.39-9.12,7.39-9.12h0A8.32,8.32,0,0,0,27.44,16.63ZM19,20a3.55,3.55,0,1,1,3.54-3.54A3.53,3.53,0,0,1,19,20Z"/></svg>