<?xml version="1.0" encoding="utf-8"?>
<!-- Generator: Adobe Illustrator 19.0.0, SVG Export Plug-In . SVG Version: 6.00 Build 0)  -->
<svg version="1.1" id="Layer_1" xmlns="http://www.w3.org/2000/svg" xmlns:xlink="http://www.w3.org/1999/xlink" x="0px" y="0px"
	 viewBox="0 0 243.5 221.3" style="enable-background:new 0 0 243.5 221.3;" xml:space="preserve">
<style type="text/css">
	.st0{fill:#FDB71D;}
	.st1{fill:#EF3B54;}
	.st2{fill:#D51E3E;}
	.st3{fill:#FFFFFF;}
	.st4{fill:#BD1F37;}
	.st5{opacity:0.36;fill:#732234;}
	.st6{fill:#ABABAB;}
</style>
<path id="XMLID_346_" class="st0" d="M63.7,13.8c-0.1-0.1-0.1-0.2-0.2-0.4c-1.3-2.1-4.1-2.7-6.2-1.4c-2.1,1.3-2.7,4.1-1.4,6.2
	c0.1,0.1,0.2,0.2,0.2,0.3c-7.9,7.2-10.3,18.7-6.1,28.6c0.9,2,3.3,2.8,5.2,1.6l36.3-23.2c1.9-1.2,2.2-3.7,0.7-5.4
	C85,12.3,73.5,9.7,63.7,13.8z"/>
<path id="XMLID_181_" class="st0" d="M169.7,13.8c0.1-0.1,0.1-0.2,0.2-0.4c1.3-2.1,4.1-2.7,6.2-1.4c2.1,1.3,2.7,4.1,1.4,6.2
	c-0.1,0.1-0.2,0.2-0.2,0.3c7.9,7.2,10.3,18.7,6.1,28.6c-0.9,2-3.3,2.8-5.2,1.6l-36.3-23.2c-1.9-1.2-2.2-3.7-0.7-5.4
	C148.4,12.3,159.8,9.7,169.7,13.8z"/>
<g id="XMLID_383_">
	<path id="XMLID_384_" class="st1" d="M206.7,16.9c0.7-0.4,1.4-0.7,2.1-0.9c0.8-0.3,1.5-0.5,2.4-0.6c0.8-0.1,1.7-0.2,2.6-0.2
		c0.9,0,1.9,0.1,2.9,0.4c1.4,0.3,2.7,0.8,3.8,1.4c1.1,0.6,1.9,1.4,2.6,2.3c0.7,0.9,1.1,1.9,1.3,3c0.2,1.1,0.2,2.3-0.1,3.5
		c-0.3,1.2-0.6,2.2-1.1,2.9c-0.5,0.8-1.1,1.4-1.7,1.9c-0.6,0.5-1.3,0.9-2,1.3c-0.7,0.3-1.3,0.6-2,0.9c-0.6,0.3-1.2,0.6-1.6,0.9
		c-0.5,0.3-0.8,0.7-1,1.1l-1.3,3.1l-4.9-1.1l0.3-3.8c0-0.1,0-0.2,0-0.3c0-0.1,0-0.2,0-0.3c0.1-0.7,0.4-1.2,0.9-1.7
		c0.4-0.4,0.9-0.8,1.5-1.1s1.2-0.6,1.8-0.9c0.6-0.3,1.3-0.6,1.9-0.9c0.6-0.3,1.1-0.8,1.5-1.2c0.4-0.5,0.7-1.1,0.9-1.9
		c0.2-0.9,0.1-1.7-0.4-2.4c-0.5-0.7-1.3-1.1-2.3-1.4c-0.8-0.2-1.5-0.2-2.1-0.2c-0.6,0-1.1,0.1-1.5,0.3c-0.4,0.1-0.8,0.2-1.1,0.3
		c-0.3,0.1-0.6,0.1-0.9,0.1c-0.7-0.1-1.1-0.5-1.3-1.2L206.7,16.9z M205.1,44.6c0.1-0.5,0.3-1,0.6-1.5c0.3-0.4,0.7-0.8,1.1-1.1
		c0.4-0.3,0.9-0.5,1.5-0.6c0.5-0.1,1.1-0.1,1.7,0c0.6,0.1,1.1,0.3,1.5,0.7c0.4,0.3,0.8,0.7,1.1,1.1c0.3,0.4,0.5,0.9,0.6,1.4
		c0.1,0.5,0.1,1.1,0,1.6c-0.1,0.6-0.3,1-0.6,1.5c-0.3,0.4-0.7,0.8-1.1,1.1c-0.4,0.3-0.9,0.5-1.5,0.5c-0.5,0.1-1.1,0.1-1.6,0
		c-0.6-0.1-1.1-0.3-1.5-0.6c-0.4-0.3-0.8-0.7-1.1-1.1c-0.3-0.4-0.5-0.9-0.6-1.4C205,45.6,205,45.1,205.1,44.6z"/>
</g>
<g id="XMLID_358_">
	<path id="XMLID_359_" class="st1" d="M10.4,21.8c0.6-1,1.3-1.9,2.1-2.8c0.8-0.9,1.7-1.8,2.7-2.6c1-0.8,2.1-1.6,3.3-2.2
		c1.2-0.7,2.6-1.2,4.1-1.7c2.1-0.7,4.2-1,6.1-0.9c1.9,0,3.6,0.4,5.1,1.1c1.5,0.7,2.9,1.7,4,3c1.1,1.3,2,2.8,2.5,4.7
		c0.5,1.8,0.8,3.3,0.7,4.7c-0.1,1.4-0.4,2.7-0.8,3.8c-0.4,1.2-1,2.2-1.7,3.2c-0.7,0.9-1.3,1.8-1.9,2.7s-1.1,1.6-1.5,2.4
		c-0.4,0.7-0.6,1.5-0.5,2.2l0.5,5.1L28,46.5l-2.5-5.3c-0.1-0.1-0.1-0.3-0.2-0.4c-0.1-0.1-0.1-0.3-0.1-0.4c-0.3-1-0.3-1.9-0.1-2.9
		c0.2-0.9,0.6-1.8,1.2-2.6c0.5-0.9,1.1-1.7,1.8-2.5c0.7-0.8,1.3-1.7,1.8-2.6C30.4,29,30.7,28,31,27c0.2-1,0.2-2-0.2-3.2
		c-0.4-1.4-1.2-2.3-2.4-2.8c-1.2-0.5-2.5-0.5-4.1-0.1c-1.2,0.4-2.2,0.8-2.9,1.3c-0.7,0.5-1.3,1-1.8,1.5c-0.5,0.5-0.9,0.9-1.3,1.3
		c-0.4,0.4-0.7,0.6-1.2,0.8c-1,0.3-1.8,0.1-2.6-0.6L10.4,21.8z M29.1,59.7c-0.3-0.8-0.3-1.6-0.2-2.4c0.1-0.8,0.3-1.5,0.7-2.2
		c0.4-0.7,0.9-1.3,1.5-1.8c0.6-0.5,1.4-0.9,2.2-1.2c0.8-0.3,1.7-0.4,2.5-0.3c0.8,0.1,1.6,0.3,2.3,0.7c0.7,0.4,1.3,0.8,1.9,1.4
		c0.5,0.6,0.9,1.3,1.2,2.1c0.3,0.8,0.3,1.6,0.3,2.4c-0.1,0.8-0.3,1.6-0.7,2.3c-0.4,0.7-0.9,1.3-1.5,1.8c-0.6,0.5-1.4,0.9-2.2,1.2
		c-0.9,0.3-1.7,0.4-2.5,0.3c-0.8-0.1-1.6-0.3-2.3-0.6c-0.7-0.4-1.3-0.8-1.8-1.5C29.7,61.2,29.3,60.5,29.1,59.7z"/>
</g>
<circle id="XMLID_21_" class="st2" cx="116.3" cy="108.8" r="80.3"/>
<circle id="XMLID_23_" class="st3" cx="116.3" cy="108.8" r="60.7"/>
<circle id="XMLID_120_" class="st4" cx="74.2" cy="101.8" r="7"/>
<circle id="XMLID_37_" class="st4" cx="127.4" cy="101.8" r="7"/>
<path id="XMLID_22_" class="st4" d="M118.8,124.8c-0.7-5.2-5.3-14.9-18.2-14.9s-17.5,9.7-18.2,14.9c-0.3,2,1.2,3.9,3.2,4.2
	c0.2,0,0.3,0,0.5,0c1.8,0,3.4-1.4,3.7-3.2c0.1-0.9,1.5-8.4,10.7-8.4c9.2,0,10.6,7.5,10.7,8.4c0.3,1.9,1.9,3.2,3.7,3.2
	c0.2,0,0.3,0,0.5,0C117.6,128.7,119,126.9,118.8,124.8z"/>
<path id="XMLID_379_" class="st4" d="M74,182.4c-0.1,0-0.3,0-0.4,0c-3.9-0.2-6.8-3.5-6.6-7.4l0.5-8.3c0.1-1-0.6-1.9-1.5-2.2
	L32,153.9c-7.1-2.2-12.3-7.9-13.9-15.2c-1.6-7.3,0.8-14.6,6.3-19.6l13.7-12.3c2.9-2.6,7.3-2.4,9.9,0.5c2.6,2.9,2.4,7.3-0.5,9.9
	l-13.7,12.3c-2.5,2.3-2.3,5.1-2,6.2c0.2,1.1,1.2,3.8,4.4,4.8l33.9,10.6c7.1,2.2,11.7,8.9,11.3,16.3l-0.5,8.3
	C80.7,179.5,77.7,182.4,74,182.4z"/>
<path id="XMLID_34_" class="st0" d="M58.4,165.4l-5.7-1.3c-1.6-0.4-2.6-1.9-2.3-3.6l3.4-15c0.4-1.6,1.9-2.6,3.6-2.3l5.7,1.3
	c1.6,0.4,2.6,1.9,2.3,3.6l-3.4,15C61.6,164.7,60,165.8,58.4,165.4z"/>
<path id="XMLID_119_" class="st0" d="M65.2,152l-13.3-3c-1.6-0.4-2.6-1.9-2.3-3.6l0.7-3.3c0.4-1.6,1.9-2.6,3.6-2.3l13.3,3
	c1.6,0.4,2.6,1.9,2.3,3.6l-0.7,3.3C68.4,151.4,66.8,152.4,65.2,152z"/>
<path id="XMLID_381_" class="st4" d="M190.7,120.6c-2.7,0-5.3-1.6-6.4-4.3c-1.5-3.6,0.1-7.7,3.7-9.2l28-12c1.9-0.8,2.4-2.5,2.5-3.2
	s0.2-2.4-1.3-3.8l-28.4-26.1c-1.3-1.2-3.2-1.5-4.8-0.6l-9.3,5c-3.4,1.8-7.7,0.5-9.5-2.9c-1.8-3.4-0.5-7.7,2.9-9.5l9.3-5
	c6.8-3.6,15.2-2.5,20.9,2.7l28.4,26.1c4.6,4.2,6.7,10.4,5.6,16.5c-1,6.1-5.1,11.2-10.8,13.7l-28,12
	C192.5,120.4,191.6,120.6,190.7,120.6z"/>
<path id="XMLID_179_" class="st5" d="M144.1,115l-25.7-8.3l10.9-33.9l1,2.5c0.5,1.2,1.6,1.9,2.8,1.9c0.4,0,0.7-0.1,1.1-0.2
	c1.5-0.6,2.3-2.4,1.7-3.9L131.9,63c-0.3-0.8-1-1.5-1.8-1.7c-0.8-0.3-1.8-0.2-2.5,0.3l-8.7,5.3c-1.4,0.9-1.9,2.7-1,4.1
	c0.9,1.4,2.7,1.8,4.1,1l1.6-1l-11.8,36.8c-0.5,1.6,0.4,3.3,1.9,3.8c0.1,0,0.3,0.1,0.4,0.1l28.1,9.1c0.3,0.1,0.6,0.1,0.9,0.1
	c1.3,0,2.4-0.8,2.9-2.1C146.6,117.2,145.7,115.5,144.1,115z"/>
<polygon id="XMLID_357_" class="st2" points="137.3,7.9 97.3,7.9 97.3,21.9 107.3,21.9 107.3,33.1 127.3,33.1 127.3,21.9 
	137.3,21.9 "/>
<ellipse id="XMLID_117_" class="st6" cx="116.3" cy="203.4" rx="42" ry="10"/>
</svg>
