<svg id="Layer_1" data-name="Layer 1" xmlns="http://www.w3.org/2000/svg" xmlns:xlink="http://www.w3.org/1999/xlink" viewBox="0 0 185 235"><defs><style>.cls-1,.cls-5{fill:#fff;}.cls-2{fill:#212120;}.cls-3{fill:url(#linear-gradient);}.cls-4{fill:url(#linear-gradient-2);}.cls-5{font-size:25.89px;font-family:Lato-Light, Lato;font-weight:300;}.cls-6{letter-spacing:-0.03em;}.cls-7,.cls-8{fill:#8cc63f;font-family:Lato-Black, Lato;font-weight:800;}.cls-7{letter-spacing:-0.03em;}.cls-8{letter-spacing:0em;}</style><linearGradient id="linear-gradient" x1="38.55" y1="65.95" x2="170.92" y2="65.95" gradientUnits="userSpaceOnUse"><stop offset="0" stop-color="#3bb44a"/><stop offset="1" stop-color="#8bc540"/></linearGradient><linearGradient id="linear-gradient-2" x1="4.56" y1="88.36" x2="91.42" y2="88.36" xlink:href="#linear-gradient"/></defs><title>Untitled-4</title><path class="cls-1" d="M28.28,18.9H24.82V15.44a2.5,2.5,0,0,0-5,0V18.9H16.37a2.5,2.5,0,1,0,0,5h3.46v3.46a2.5,2.5,0,1,0,5,0V23.89h3.46a2.5,2.5,0,0,0,0-5Z"/><path class="cls-2" d="M79.58,146,24.22,90.67A18.44,18.44,0,0,1,50.3,64.59L79.58,93.87l74.11-74.11a18.44,18.44,0,1,1,26.08,26.08Z"/><path class="cls-3" d="M165.52,5.51a18.44,18.44,0,0,0-26.08,0L65.33,79.62,38.55,105l26.78,26.78L165.52,31.59A18.44,18.44,0,0,0,165.52,5.51Z"/><path class="cls-4" d="M65.33,79.62,36.05,50.33A18.44,18.44,0,0,0,10,76.42l55.36,55.36,26.09-26.09Z"/><path class="cls-1" d="M163.86,80.14h-8.24V71.9a6,6,0,0,0-11.9,0v8.24h-8.24a6,6,0,1,0,0,11.9h8.24v8.24a5.95,5.95,0,0,0,11.9,0V92h8.24a6,6,0,0,0,0-11.9Z"/><path class="cls-1" d="M40,117.44H35.74V113.2a3.06,3.06,0,0,0-6.12,0v4.24H25.38a3.06,3.06,0,1,0,0,6.12h4.24v4.24a3.06,3.06,0,0,0,6.12,0v-4.24H40a3.06,3.06,0,0,0,0-6.12Z"/><text class="cls-5" transform="translate(18.1 203.55)"><tspan class="cls-6">P</tspan><tspan x="14.72" y="0">ago </tspan><tspan class="cls-7" x="59.37" y="0">e</tspan><tspan class="cls-8" x="72.67" y="0">xitoso</tspan></text></svg>