<svg xmlns="http://www.w3.org/2000/svg" xmlns:xlink="http://www.w3.org/1999/xlink" viewBox="0 0 181 154"><defs><style>.cls-1{fill:none;}.cls-2{isolation:isolate;}.cls-3{clip-path:url(#clip-path);}.cls-4{fill:#992a1f;}.cls-5{fill:#f7dba4;}.cls-6{fill:#f9c035;}.cls-7{mix-blend-mode:multiply;}.cls-8{fill:#a5a5a5;}.cls-9{fill:url(#linear-gradient);}.cls-10{fill:url(#linear-gradient-2);}.cls-11{fill:#fff;}</style><clipPath id="clip-path"><rect class="cls-1" x="35.31" y="-94.66" width="109.84" height="72.96"/></clipPath><linearGradient id="linear-gradient" x1="23.35" y1="69.59" x2="159.51" y2="69.59" gradientUnits="userSpaceOnUse"><stop offset="0" stop-color="#ff1d25"/><stop offset="1" stop-color="#b90938"/></linearGradient><linearGradient id="linear-gradient-2" x1="3229.64" y1="2686.56" x2="3365.81" y2="2686.56" gradientTransform="translate(3332.87 2756.16) rotate(180)" xlink:href="#linear-gradient"/></defs><title>assets</title><g class="cls-2"><g id="Layer_1" data-name="Layer 1"><g class="cls-3"><path class="cls-4" d="M85.45-61.69l2.49-13.79,2.49-13.79-8.65-1.56L73.12-92.4,70.63-78.61,68.15-64.82a13.55,13.55,0,0,1-5.61,8.73,13.55,13.55,0,0,1-10.13,2.2h0a1.44,1.44,0,0,0-1.1.24,1.43,1.43,0,0,0-.61.94L44.8-20,38.89,12.65l23.44,4.24,23.43,4.23,5.9-32.68,5.91-32.68a1.5,1.5,0,0,0-.24-1.1,1.48,1.48,0,0,0-1-.61h0a13.5,13.5,0,0,1-8.72-5.61A13.51,13.51,0,0,1,85.45-61.69Z"/><path class="cls-5" d="M58.56-48.52a22.93,22.93,0,0,1,3.07-.33,21.79,21.79,0,0,1,4.29.39,20.46,20.46,0,0,1,4.14,1.14,23.07,23.07,0,0,1,2.77,1.37,23.09,23.09,0,0,0,2.86,1.42,22.35,22.35,0,0,0,4.37,1.21,21.83,21.83,0,0,0,4.52.4,23.44,23.44,0,0,0,3.17-.33c.79-.12,1.56-.24,2.44-.3a18.24,18.24,0,0,1,3.06.09L89-19.84,84.72,3.77,65.33.27,45.94-3.23,50-25.72l4.06-22.49a19.35,19.35,0,0,0,2.46,0C57.25-48.32,57.91-48.42,58.56-48.52Z"/><path class="cls-6" d="M58.08-45.9a23.34,23.34,0,0,1,3.08-.32,21.64,21.64,0,0,1,4.28.39,20.77,20.77,0,0,1,4.15,1.14,22.34,22.34,0,0,1,2.77,1.37,23.09,23.09,0,0,0,2.86,1.42,22.15,22.15,0,0,0,4.37,1.21,22.34,22.34,0,0,0,4.51.39,23.77,23.77,0,0,0,3.18-.33c.79-.12,1.56-.23,2.44-.29a17.27,17.27,0,0,1,3.06.09L88.51-17.22,84.25,6.4,64.85,2.9,45.46-.6l4.06-22.49,4.06-22.49A19.35,19.35,0,0,0,56-45.63C56.77-45.7,57.43-45.8,58.08-45.9Z"/></g><g class="cls-7"><path class="cls-8" d="M168.36,119.07,71,21.73A19.41,19.41,0,0,0,43.57,49.18l97.34,97.34a19.41,19.41,0,0,0,27.45-27.45Z"/><path class="cls-8" d="M140.91,21.73,43.57,119.07A19.41,19.41,0,1,0,71,146.52l97.34-97.34a19.41,19.41,0,0,0-27.45-27.45Z"/></g><path class="cls-9" d="M153.83,104.54,56.49,7.2A19.41,19.41,0,0,0,29,34.65L126.38,132a19.41,19.41,0,1,0,27.45-27.45Z"/><path class="cls-10" d="M126.38,7.2,29,104.54A19.41,19.41,0,0,0,56.49,132l97.34-97.34A19.41,19.41,0,1,0,126.38,7.2Z"/><path class="cls-11" d="M33.08,34.57l-2.45-2.45,2.45-2.44a2.5,2.5,0,0,0-3.53-3.53L27.1,28.59l-2.44-2.44a2.5,2.5,0,0,0-3.53,3.53l2.44,2.44-2.44,2.45a2.5,2.5,0,0,0,3.53,3.53l2.44-2.45,2.45,2.45a2.5,2.5,0,0,0,3.53-3.53Z"/><path class="cls-11" d="M179.07,81.42l-5.82-5.83,5.82-5.82a6,6,0,1,0-8.41-8.42l-5.83,5.83L159,61.35a6,6,0,0,0-8.42,8.42l5.83,5.82-5.83,5.83A6,6,0,0,0,159,89.84L164.83,84l5.83,5.83a6,6,0,1,0,8.41-8.42Z"/><path class="cls-11" d="M15.76,129.93l-3-3,3-3a3.06,3.06,0,0,0-4.33-4.32l-3,3-3-3a3.06,3.06,0,0,0-4.33,4.32l3,3-3,3a3.06,3.06,0,0,0,4.33,4.33l3-3,3,3a3.06,3.06,0,0,0,4.33-4.33Z"/></g></g></svg>