<svg id="Layer_1" data-name="Layer 1" xmlns="http://www.w3.org/2000/svg" xmlns:xlink="http://www.w3.org/1999/xlink" viewBox="0 0 215 183"><defs><style>.cls-1{fill:#fff;}.cls-2{fill:#212120;}.cls-3{fill:url(#linear-gradient);}.cls-4{fill:url(#linear-gradient-2);}</style><linearGradient id="linear-gradient" x1="32.3" y1="82.73" x2="188.56" y2="82.73" gradientUnits="userSpaceOnUse"><stop offset="0" stop-color="#ed2b2f"/><stop offset="1" stop-color="#b81f3b"/></linearGradient><linearGradient id="linear-gradient-2" x1="4730.91" y1="3679.42" x2="4887.17" y2="3679.42" gradientTransform="translate(4854.87 3762.16) rotate(180)" xlink:href="#linear-gradient"/></defs><title>Untitled-3</title><path class="cls-1" d="M23.58,152l-3.44-3.44,3.44-3.43a3.51,3.51,0,0,0-5-5l-3.43,3.44-3.44-3.44a3.51,3.51,0,0,0-5,5l3.44,3.43L6.77,152a3.51,3.51,0,0,0,5,5l3.44-3.44,3.43,3.44a3.51,3.51,0,0,0,5-5Z"/><path class="cls-2" d="M198.71,139.51,87,27.8A22.28,22.28,0,0,0,55.5,59.31L167.21,171a22.27,22.27,0,0,0,31.5-31.5Z"/><path class="cls-2" d="M167.21,27.8,55.5,139.51A22.27,22.27,0,0,0,87,171L198.71,59.31a22.28,22.28,0,0,0-31.5-31.51Z"/><path class="cls-3" d="M182,122.84,70.33,11.13a22.27,22.27,0,0,0-31.5,31.5l111.7,111.71A22.28,22.28,0,0,0,182,122.84Z"/><path class="cls-4" d="M150.53,11.13,38.82,122.84a22.28,22.28,0,0,0,31.51,31.5L182,42.63a22.28,22.28,0,0,0-31.51-31.5Z"/><path class="cls-1" d="M43.46,42.53l-2.8-2.8,2.8-2.81a2.86,2.86,0,1,0-4.05-4.05L36.6,35.68l-2.8-2.81a2.86,2.86,0,1,0-4,4.05l2.8,2.81-2.8,2.8a2.87,2.87,0,0,0,4,4.06l2.8-2.81,2.81,2.81a2.87,2.87,0,1,0,4.05-4.06Z"/><path class="cls-1" d="M211,96.31l-6.69-6.69L211,82.93a6.83,6.83,0,1,0-9.66-9.65L194.66,80,188,73.28a6.83,6.83,0,1,0-9.66,9.65L185,89.62l-6.69,6.69A6.83,6.83,0,1,0,188,106l6.68-6.68,6.69,6.68A6.83,6.83,0,1,0,211,96.31Z"/></svg>