<svg id="Layer_1" data-name="Layer 1" xmlns="http://www.w3.org/2000/svg" xmlns:xlink="http://www.w3.org/1999/xlink" viewBox="0 0 213 235"><defs><style>.cls-1,.cls-5{fill:#fff;}.cls-2{fill:#212120;}.cls-3{fill:url(#linear-gradient);}.cls-4{fill:url(#linear-gradient-2);}.cls-5{font-size:28.27px;font-family:Lato-Light, Lato;font-weight:300;}.cls-6{letter-spacing:-0.02em;}.cls-7{letter-spacing:0em;}.cls-8{fill:#ef2929;font-family:Lato-Black, Lato;font-weight:800;}</style><linearGradient id="linear-gradient" x1="34.02" y1="78.37" x2="182.74" y2="78.37" gradientUnits="userSpaceOnUse"><stop offset="0" stop-color="#ed2b2f"/><stop offset="1" stop-color="#b81f3b"/></linearGradient><linearGradient id="linear-gradient-2" x1="4025.61" y1="3693.79" x2="4174.33" y2="3693.79" gradientTransform="translate(4146.87 3772.16) rotate(180)" xlink:href="#linear-gradient"/></defs><title>Untitled-4</title><path class="cls-1" d="M25.72,144.27,22.45,141l3.27-3.28A3.34,3.34,0,0,0,21,133l-3.27,3.27L14.45,133a3.34,3.34,0,0,0-4.73,4.72L13,141l-3.27,3.27A3.34,3.34,0,0,0,14.45,149l3.27-3.28L21,149a3.34,3.34,0,0,0,4.73-4.73Z"/><path class="cls-2" d="M192.4,132.41,86.08,26.09a21.2,21.2,0,0,0-30,30L162.42,162.39a21.2,21.2,0,0,0,30-30Z"/><path class="cls-2" d="M162.42,26.09,56.1,132.41a21.2,21.2,0,0,0,30,30L192.4,56.07a21.2,21.2,0,0,0-30-30Z"/><path class="cls-3" d="M176.53,116.54,70.21,10.22a21.2,21.2,0,0,0-30,30L146.55,146.52a21.2,21.2,0,0,0,30-30Z"/><path class="cls-4" d="M146.55,10.22,40.23,116.54a21.2,21.2,0,0,0,30,30L176.53,40.2a21.2,21.2,0,1,0-30-30Z"/><path class="cls-1" d="M44.64,40.11,42,37.44l2.67-2.67a2.73,2.73,0,0,0-3.86-3.86l-2.67,2.67-2.67-2.67a2.73,2.73,0,0,0-3.85,3.86l2.67,2.67-2.67,2.67A2.73,2.73,0,0,0,35.44,44l2.67-2.67L40.78,44a2.73,2.73,0,0,0,3.86-3.86Z"/><path class="cls-1" d="M204.1,91.29l-6.36-6.37,6.36-6.36a6.5,6.5,0,0,0-9.19-9.19l-6.36,6.36-6.37-6.36A6.5,6.5,0,0,0,173,78.56l6.37,6.36L173,91.29a6.5,6.5,0,0,0,9.19,9.19l6.37-6.36,6.36,6.36a6.5,6.5,0,0,0,9.19-9.19Z"/><text class="cls-5" transform="translate(34.73 228.83)"><tspan class="cls-6">P</tspan><tspan class="cls-7" x="16.07" y="0">ago </tspan><tspan class="cls-8" x="64.85" y="0">fallido</tspan></text></svg>