<?xml version="1.0" encoding="utf-8"?>
<!-- Generator: Adobe Illustrator 19.0.0, SVG Export Plug-In . SVG Version: 6.00 Build 0)  -->
<svg version="1.1" id="Layer_1" xmlns="http://www.w3.org/2000/svg" xmlns:xlink="http://www.w3.org/1999/xlink" x="0px" y="0px"
	 viewBox="0 0 165.2 165.6" style="enable-background:new 0 0 165.2 165.6;" xml:space="preserve">
<style type="text/css">
	.st0{fill:#8BC442;}
	.st1{fill:#FFFFFF;}
</style>
<rect id="XMLID_10_" x="6.7" y="7" class="st0" width="152.8" height="152.8"/>
<circle id="XMLID_1_" class="st1" cx="83.1" cy="79.4" r="45.5"/>
<g id="XMLID_11_">
	<path id="XMLID_12_" class="st0" d="M78.3,103.8c-2.7-0.4-5.2-1.2-7.7-2.3c-2.4-1.1-4.5-2.4-6.2-4l3.4-4.9c0.3-0.4,0.7-0.7,1.1-1
		c0.5-0.3,1-0.4,1.5-0.4c0.6,0,1.1,0.1,1.7,0.4c0.6,0.3,1.2,0.6,1.9,1.1c0.7,0.4,1.4,0.8,2.3,1.3c0.8,0.4,1.7,0.8,2.8,1.1l1.3-13.2
		c-1.7-0.5-3.3-1-5-1.7c-1.7-0.6-3.2-1.5-4.5-2.6c-1.3-1.1-2.4-2.4-3.2-4.1c-0.8-1.7-1.2-3.7-1.2-6.3c0-1.8,0.4-3.7,1.1-5.4
		c0.7-1.8,1.8-3.3,3.3-4.7c1.4-1.4,3.2-2.6,5.3-3.5c2.1-0.9,4.5-1.4,7.2-1.4l0.4-3.9c0.1-0.7,0.4-1.3,0.9-1.8c0.5-0.5,1.2-0.8,2-0.8
		h4l-0.7,6.9c2.5,0.5,4.7,1.2,6.5,2.3c1.8,1,3.4,2.2,4.6,3.3l-2.7,3.9c-0.4,0.6-0.8,1-1.2,1.3c-0.4,0.3-0.9,0.4-1.5,0.4
		c-0.4,0-0.8-0.1-1.3-0.2c-0.5-0.2-1-0.4-1.5-0.6c-0.6-0.2-1.2-0.5-1.8-0.8c-0.6-0.3-1.3-0.5-2-0.7l-1.2,12.4
		c1.1,0.3,2.2,0.7,3.4,1.1c1.1,0.4,2.2,0.8,3.2,1.3c1,0.5,2,1.1,2.9,1.7c0.9,0.7,1.7,1.4,2.3,2.3c0.7,0.9,1.2,1.9,1.6,3.1
		c0.4,1.2,0.6,2.5,0.6,3.9c0,2.2-0.4,4.3-1.1,6.2c-0.7,1.9-1.8,3.7-3.3,5.2c-1.4,1.5-3.2,2.7-5.3,3.7c-2.1,0.9-4.5,1.5-7.2,1.7
		l-0.4,4.4c-0.1,0.7-0.4,1.2-0.9,1.8c-0.5,0.5-1.2,0.8-2,0.8h-4L78.3,103.8z M76.7,66.2c0,1.4,0.4,2.5,1.3,3.3
		c0.9,0.9,2,1.6,3.4,2.2l1.1-10.6c-1.1,0.2-2,0.4-2.7,0.7C79,62.2,78.5,62.6,78,63c-0.5,0.4-0.8,0.9-1,1.5
		C76.8,65,76.7,65.6,76.7,66.2z M91.5,88.9c0-1.3-0.4-2.4-1.3-3.2c-0.9-0.8-2-1.5-3.4-2l-1.1,11.6C89.6,94.6,91.5,92.4,91.5,88.9z"
		/>
</g>
</svg>
