<svg xmlns="http://www.w3.org/2000/svg" viewBox="0 0 298.96 283.38"><defs><style>.cls-1{fill:#7a38c6;}.cls-2{fill:#5f28ad;}.cls-3{fill:#f0aa00;}.cls-4{fill:#fd0;}.cls-5{fill:#fcb12a;}.cls-10,.cls-6{fill:#fff;}.cls-7{fill:#002d8a;}.cls-8{fill:#019be1;}.cls-9{fill:#ffe03e;}.cls-10{opacity:0.5;isolation:isolate;}.cls-11{fill:#3effd0;}.cls-12{fill:#e4fcb6;}</style></defs><title>recomendaciones_1</title><g id="Capa_2" data-name="Capa 2"><g id="Capa_1-2" data-name="Capa 1"><circle class="cls-1" cx="133.4" cy="149.98" r="133.4"/><path class="cls-2" d="M266.79,150c0-7.89-2-22.68-3.31-30.17l-31.39,7a16.19,16.19,0,0,0,4.74-3.55,17,17,0,0,0,4.6-12l.13-9.2a7.31,7.31,0,0,0-7.24-7.37h-.25l-23.53.79-7.49.39,17.74-22.6,9.73-12.75c.26-.39.52-.79.79-1.18a133.75,133.75,0,0,0-28.79-23.53l-.39.53a19.63,19.63,0,0,0-5-3.42l-6.58-3.41c-1.44-.66-3-1.45-4.46-2.11A7.87,7.87,0,0,0,177.16,32L166,55.49l-6.7,14.19v-.13a15.32,15.32,0,0,0-12.1-17.88l-8.14-2a6.51,6.51,0,0,0-7.93,4.7c0,.21-.1.42-.13.64l-3.94,21-4.34,22.87h0c-.26,1.57-.53,3.41-.92,5.12,0,.26-1.45,6.84-3.42,15.51a67.87,67.87,0,0,0-15.77,26.15l-100.38,29a132.87,132.87,0,0,0,56,85.55l88.58-25.62c1.58.52,3.15,1,4.86,1.44a69.44,69.44,0,0,0,17.75,2.24H172c2,0,4.21,0,5.66-.13h0l12.35-.4,23.52-.79a7.35,7.35,0,0,0,7.12-7.56c0-.11,0-.22,0-.32l-.79-9.2a16.8,16.8,0,0,0-5.39-11.7,15.2,15.2,0,0,0-3.41-2.5h43.5A133.42,133.42,0,0,0,266.79,150ZM167,205a46,46,0,0,1-7.1-1h-.13c-10.64-23.14,10.91-64.4,15.12-72l.65-.91,4.21-.27a4,4,0,0,0-.26,1.71v68.17a5,5,0,0,0,1.7,3.81Z"/><ellipse class="cls-3" cx="270.19" cy="96.29" rx="23.39" ry="28.12" transform="translate(-7.33 168.81) rotate(-34.26)"/><rect class="cls-3" x="269.95" y="68.09" width="5.14" height="56.32" transform="translate(-7.22 168.88) rotate(-34.01)"/><ellipse class="cls-4" cx="273.97" cy="93.65" rx="23.39" ry="28.12" transform="translate(-5.19 170.48) rotate(-34.26)"/><ellipse class="cls-3" cx="273.92" cy="93.04" rx="17.74" ry="21.55" transform="translate(-4.85 170.35) rotate(-34.26)"/><ellipse class="cls-3" cx="273.12" cy="94.28" rx="17.08" ry="21.03" transform="translate(-5.69 170.11) rotate(-34.26)"/><path class="cls-4" d="M286.64,96l-2.24.53a13.48,13.48,0,0,0-2.4-9.77c-3.82-5.52-10.39-7.63-14.72-4.6s-4.87,9.85-1.06,15.37c2.9,4.21,7.23,6.31,11.18,5.92h.13c.52-.14,1.18-.27,1.71-.4l9.06-2.23a1,1,0,0,0,.53-.27,2,2,0,0,0,.53-2.62A2.45,2.45,0,0,0,286.64,96Zm-16.3-9.59c2.5-1.71,6.31-.52,8.41,2.63s1.84,7.1-.66,8.8l-.79.4-1.31.26c-2.23.26-4.73-1-6.44-3.42-2-2.94-1.71-7,.79-8.72Z"/><path class="cls-5" d="M151.14,143l48-96.85L206,31.7a18.42,18.42,0,0,0,.66-14.2A18.13,18.13,0,0,0,197.14,7L188.2,2.26a8,8,0,0,0-10.82,3.31l-.18.37L166,29.46,153.9,55.09h0c-.79,1.84-1.71,3.81-2.63,5.78l-33.12,65.45"/><path class="cls-5" d="M138.65,142.88l18.27-86.61,2.5-12.87a15.31,15.31,0,0,0-12.09-17.88l-8.15-2a6.52,6.52,0,0,0-7.9,4.76c0,.16-.07.33-.1.5l-3.94,20.63-4.36,22.5h0a38.3,38.3,0,0,1-.92,5.52c-.13.79-12.75,58.09-12.75,58.88"/><path class="cls-5" d="M154,132.24l66.76-85,9.73-12.75A18.92,18.92,0,0,0,234,20.69a18.35,18.35,0,0,0-7.23-12.22L219,1.87a8,8,0,0,0-11.34,1c-.07.09-.15.18-.22.28L191.75,23.94,174.66,46.55h0c-1.18,1.71-2.49,3.42-3.81,5.12-.52.79-63.48,77.68-64,78.47"/><path class="cls-5" d="M175.58,103.59s-31.67,55.2-12.61,78.85-57.57-12.09-57.57-12.09l23.53-66.89h46.65Z"/><rect class="cls-6" x="156.69" y="90.23" width="111.49" height="111.49" rx="24.19"/><g id="_250-paypal" data-name="250-paypal"><path class="cls-7" d="M213.12,147.45c12.34-.15,21.65-5.06,25.58-16.49,4-11.1,2.94-21.36-8-25.62-7.11-2.76-9.45-2.08-37.26-2.08a3.71,3.71,0,0,0-3.65,3.08l-10.7,67.92a2.22,2.22,0,0,0,2.21,2.54h13.62c.37,0,.49-.13.55-.46.75-4.62,3.29-21,3.93-24.47C200.43,146.17,205.19,147.58,213.12,147.45Z"/><path class="cls-8" d="M244.23,125.59c-.32-.24-.45-.33-.54.24a44.4,44.4,0,0,1-1.61,6.14c-7.29,20.78-27.48,19-37.35,19a1.84,1.84,0,0,0-2,1.72c-4.12,25.63-4.94,31-4.94,31a1.94,1.94,0,0,0,1.93,2.36h11.6a3.27,3.27,0,0,0,3.17-2.72c.13-1-.2,1.11,2.63-16.67.84-4,2.62-3.6,5.35-3.6,13,0,23.09-5.26,26.1-20.51C249.77,136.15,249.42,129.46,244.23,125.59Z"/></g><path class="cls-9" d="M220.66,202.81l-.79-9.2a16.83,16.83,0,0,0-17.35-16.16l-14.45.52h0l-21,.66a44.71,44.71,0,0,1-7.1-1,37,37,0,0,1,4-72.42l46.65-2.36h0l14.46-.4a16.77,16.77,0,0,0,11.7-5.25,17,17,0,0,0,4.6-12l.13-9.2a7.29,7.29,0,0,0-7.22-7.37h-.27l-23.53.79L172,71.52h0c-1.84.13-3.81.13-5.78.26a14.94,14.94,0,0,0-2.5.27,70.14,70.14,0,0,0-12.06,137.86,69,69,0,0,0,17.75,2.23H172c2,0,4.21,0,5.66-.13h0l12.35-.39,23.52-.79a7.54,7.54,0,0,0,7.14-7.91S220.66,202.84,220.66,202.81Z"/><path class="cls-9" d="M177.55,190.33c-10.9-.66-21.68-3.55-30.09-10.25-3.81,2-8.54,1-11.83-3.16-.13-.26-.26-.39-.39-.66a34.48,34.48,0,0,1-10.39-5.38c-7-5.39-11.3-12.75-13.67-21.16-2.62-9.33-4.6-22.74-.52-32.6L0,149.19v.92a132.61,132.61,0,0,0,35.48,90.55l138.66-40.08a48,48,0,0,0,17.34-9.2A26.83,26.83,0,0,1,177.55,190.33Z"/><path class="cls-5" d="M222.63,69.29a14,14,0,0,1-3.94,10.12v5.25a15.7,15.7,0,0,0,10.78-4.47,15.18,15.18,0,0,0,4.46-10.77v-.79L222.5,69A.52.52,0,0,0,222.63,69.29Z"/><rect class="cls-10" x="218.69" y="69.02" height="10.38"/><path class="cls-11" d="M222.5,69l-3.94.13v10.4a15.76,15.76,0,0,0,3.94-10.12Z"/><path class="cls-12" d="M222.5,69l-3.81.13v10.4a14.42,14.42,0,0,0,3.94-10.12A.51.51,0,0,0,222.5,69Z"/><path class="cls-5" d="M201.6,211.09l11.83-.39a16.85,16.85,0,0,0-5.25-11.17,16.3,16.3,0,0,0-12-4.73v5.52c2.76,2.89,5.38,6.57,5.38,10.77Z"/><path class="cls-10" d="M197.66,200.58v10.78h0Z"/><path class="cls-12" d="M196.35,200.32v11l4.47-.14h.78C201.6,206.89,199,203.21,196.35,200.32Z"/><rect class="cls-3" x="260.26" y="-0.87" width="6.44" height="56.25" transform="translate(43.37 174.62) rotate(-39.71)"/><path class="cls-3" d="M251.28,37.35c9.86,12,22.34,18,27.73,13.54s.92-17.22-8.93-29.18S248.52,3,243.13,7.52,241.43,25.39,251.28,37.35Z"/><ellipse class="cls-4" cx="265.67" cy="25.46" rx="12.62" ry="28.12" transform="translate(45.02 175.61) rotate(-39.71)"/><path class="cls-3" d="M259.56,29.86C267.18,39.06,275.07,45,278.75,42s1.58-13.8-6.05-23S256,4.76,252.33,7.78c-.92.79-1.84,1.58-2.1,4.34C249.57,16.58,253.78,22.89,259.56,29.86Z"/><ellipse class="cls-3" cx="264.93" cy="26.02" rx="8.54" ry="21.03" transform="translate(44.5 175.27) rotate(-39.71)"/><path class="cls-4" d="M274.54,29.6l-1.44.26a20.58,20.58,0,0,0-4.34-8.68c-4.2-5.12-9.72-7.62-12.22-5.65s-.92,7.89,3.29,13c3.15,3.82,7.09,6.31,9.85,6.31h.13a4,4,0,0,0,1.19-.13l6.17-.92c.13,0,.27-.13.4-.13.39-.39.26-1.18-.27-2.23C276.52,30.38,275.2,29.46,274.54,29.6Zm-14.71-10c1.44-1.19,4.59.26,7,3.28s3.29,6.31,1.84,7.49a.68.68,0,0,1-.53.27l-.92.13c-1.57,0-3.81-1.45-5.65-3.68-2.27-3-3.19-6.43-1.74-7.48Z"/></g></g></svg>