<svg id="Layer_1" data-name="Layer 1" xmlns="http://www.w3.org/2000/svg" xmlns:xlink="http://www.w3.org/1999/xlink" viewBox="0 0 160 76"><defs><style>.cls-1{fill:none;}.cls-2{fill:url(#linear-gradient);}.cls-3{clip-path:url(#clip-path);}.cls-4{fill:#c3865a;}.cls-5{fill:#a56a4a;}.cls-6{fill:#bee9e0;}.cls-7{fill:#658cf8;}.cls-8{fill:#77aa2e;}.cls-9{fill:#ff3c27;}.cls-10{fill:#ff4d39;}.cls-11{opacity:0.5;}.cls-12{fill:#91c1b6;}.cls-13{fill:#fcbf7e;}.cls-14{fill:#fbaa51;}.cls-15{fill:#fff;}</style><linearGradient id="linear-gradient" x1="1.54" y1="37.64" x2="143.08" y2="37.64" gradientUnits="userSpaceOnUse"><stop offset="0" stop-color="#9eff5f"/><stop offset="1" stop-color="#8bff0d"/></linearGradient><clipPath id="clip-path"><rect class="cls-1" x="1.54" y="1.2" width="157.93" height="72.87" rx="13.07"/></clipPath></defs><title>assets</title><rect class="cls-2" x="1.54" y="1.2" width="157.93" height="72.87" rx="13.07"/><g class="cls-3"><path class="cls-4" d="M34.18,33.39C25.66,8.92,9.62-7.74-1.66-3.82A12.14,12.14,0,0,0-7.94,1.62L-.78,61.2c8.83,16.69,20.91,26.74,30,23.6C40.45,80.88,42.69,57.86,34.18,33.39Z"/><ellipse class="cls-5" cx="14.02" cy="40.39" rx="13.24" ry="3.65" transform="translate(-12.49 6.85) rotate(-19.18)"/><ellipse class="cls-5" cx="7.44" cy="21.47" rx="13.24" ry="3.65" transform="translate(-6.64 3.64) rotate(-19.18)"/><ellipse class="cls-5" cx="20.6" cy="59.3" rx="13.24" ry="3.65" transform="translate(-18.34 10.06) rotate(-19.18)"/><path class="cls-6" d="M54.69,12.07l-1-5.31-1-5.32L43.61,3.11,34.48,4.79l1,5.31,1,5.32a5.17,5.17,0,0,1-4.17,6h0a6.25,6.25,0,0,0-5,7.28L32.7,58.51l5.45,29.77,20.39-3.74L78.92,80.8,73.47,51,68,21.26a6.26,6.26,0,0,0-7.27-5h0a5.19,5.19,0,0,1-6.05-4.17Z"/><path class="cls-7" d="M53.87,4.4,44.18,6.18,34.48,8a2.19,2.19,0,0,1-2.56-1.76l-.17-.9-.16-.9a2.19,2.19,0,0,1,1.77-2.56L43.05.05l9.7-1.78a2.17,2.17,0,0,1,1.64.36A2.16,2.16,0,0,1,55.31,0l.16.9.17.9A2.19,2.19,0,0,1,53.87,4.4Z"/><path class="cls-8" d="M95.93,28.77a1.59,1.59,0,0,1-1.27-1.56c0-.32.09-7.77,9.33-12a1.6,1.6,0,1,1,1.33,2.91c-7.39,3.36-7.47,9-7.47,9.06a1.6,1.6,0,0,1-1.59,1.6A1.69,1.69,0,0,1,95.93,28.77Z"/><path class="cls-9" d="M114,34.76a10.91,10.91,0,0,0-4.72-7.87l0,0a15.91,15.91,0,0,0-6.4-2.4A22.85,22.85,0,0,1,78,57.64l-1.23-.3A17.35,17.35,0,0,0,89,62.26c8.07,3.7,18.44.21,24.1-8.51a23.21,23.21,0,0,0,2.56-5.29Z"/><path class="cls-10" d="M114,34.76a10.92,10.92,0,0,0-4.72-7.87l0,0a16.55,16.55,0,0,0-12.43-2.21A16.59,16.59,0,0,0,84.5,21.73c-9.74,1.64-16.12,12-14.25,23.13C72,55.11,80.1,62.44,89,62.26c8.07,3.7,18.44.21,24.1-8.51a23.21,23.21,0,0,0,2.56-5.29Z"/><g class="cls-11"><path class="cls-10" d="M115.64,48.46c.23-.71.44-1.43.6-2.15-.16.72-.37,1.44-.6,2.15Z"/><path class="cls-5" d="M113.08,53.75c-5.66,8.72-16,12.21-24.1,8.52-5.85.11-11.36-3-14.94-8.1l4.88,26.64L58.54,84.54,38.15,88.28l-1.9-10.39c-1.69,3.44-4.06,5.86-7.08,6.91C20.13,88,8.05,77.9-.78,61.21l4.87,40.57L87.91,91.72l32.45-3.9-4.72-39.36A23.21,23.21,0,0,1,113.08,53.75Z"/><path class="cls-5" d="M32.7,58.51l-.3-1.64L31.87,54l-.22-1.2a3.75,3.75,0,0,1-.6.11c-2,.24-3-.72-4.92-2.59s-4.55-4.49-8.94-4-6.26,3.54-7.75,6C8.05,54.6,7.23,55.79,5.27,56s-3-.73-4.92-2.59A23.74,23.74,0,0,0-2,51.35l1.18,9.86C8.05,77.9,20.13,88,29.17,84.8c3-1,5.39-3.47,7.08-6.91Z"/><path class="cls-12" d="M74,54.17a22.66,22.66,0,0,1-3.79-9.31,23.11,23.11,0,0,1-.3-4.74,10.17,10.17,0,0,0-1.21.07c-4.4.52-6.26,3.54-7.75,6-1.39,2.25-2.21,3.44-4.17,3.68s-3-.73-4.91-2.59-4.55-4.5-8.95-4a8.46,8.46,0,0,0-5.31,2.63h0a18.31,18.31,0,0,0-2.44,3.34c-1.24,2-2,3.17-3.56,3.57l.22,1.2.53,2.85.3,1.64,3.55,19.38A26.8,26.8,0,0,0,38,73.06a26.8,26.8,0,0,1-1.76,4.83l1.9,10.39,20.39-3.74,20.38-3.73ZM38.72,69.66c-.13.8-.28,1.59-.46,2.34C38.44,71.25,38.59,70.46,38.72,69.66Z"/><path class="cls-9" d="M112.55,40c-1.39,2.25-2.21,3.44-4.17,3.68-1.57.19-2.57-.4-3.88-1.6h0c-.32-.29-.66-.62-1-1-2-2-4.55-4.5-8.94-4s-6.26,3.55-7.75,6c-1.39,2.26-2.21,3.45-4.17,3.68h-.09c-1.9.19-3-.76-4.83-2.6-1.56-1.54-3.41-3.36-6.19-3.88A8.38,8.38,0,0,0,70,40.12a23.11,23.11,0,0,0,.3,4.74A22.66,22.66,0,0,0,74,54.17a21.21,21.21,0,0,0,2.77,3.18h0l.06,0h0A17.38,17.38,0,0,0,88.7,62.26H89c8.07,3.69,18.44.2,24.1-8.52a23.21,23.21,0,0,0,2.56-5.29h0l-1.33-11.07A23.67,23.67,0,0,0,112.55,40ZM89.06,57.21A23,23,0,0,0,100.93,49,23,23,0,0,1,89.06,57.21Z"/></g><path class="cls-13" d="M78.33,49.51c-2-2-4.55-4.5-9-4s-6.25,3.55-7.75,6c-1.39,2.26-2.21,3.45-4.16,3.68s-3-.72-4.92-2.58-4.55-4.5-8.95-4-6.25,3.54-7.75,6c-1.39,2.26-2.2,3.44-4.16,3.68s-3-.73-4.92-2.59-4.55-4.5-8.94-4-6.26,3.55-7.75,6C8.69,60,7.87,61.15,5.91,61.38s-3-.72-4.91-2.59a26.6,26.6,0,0,0-2.32-2.08l6.05,50.42L88.55,97.07l-5.4-45C81.25,52.3,80.18,51.34,78.33,49.51Z"/><path class="cls-14" d="M115,42.75a22.65,22.65,0,0,0-1.76,2.57C111.8,47.58,111,48.77,109,49s-3-.72-4.91-2.58c-2-2-4.55-4.5-9-4s-6.26,3.54-7.75,6C86,50.68,85.2,51.86,83.24,52.1h-.09l5.4,45L121,93.18Z"/><circle class="cls-15" cx="33.7" cy="27.81" r="4.45"/><rect class="cls-14" x="102.55" y="54.4" width="30.02" height="5.77" rx="2.53" transform="translate(-5.99 14.42) rotate(-6.85)"/><rect class="cls-14" x="135.78" y="51.36" width="14.23" height="5.77" rx="2.53" transform="translate(-5.45 17.42) rotate(-6.85)"/><rect class="cls-14" x="117.13" y="43.97" width="14.23" height="5.77" rx="2.53" transform="translate(-4.7 15.14) rotate(-6.85)"/><rect class="cls-13" x="99.54" y="64.15" width="30.02" height="5.77" rx="2.53" transform="translate(-7.17 14.13) rotate(-6.85)"/><rect class="cls-10" x="93.76" y="28.69" width="30.02" height="5.77" rx="2.53" transform="translate(-2.99 13.19) rotate(-6.85)"/><rect class="cls-10" x="125.05" y="26.22" width="8.47" height="5.77" rx="2.53" transform="translate(-2.55 15.62) rotate(-6.85)"/></g></svg>