<svg id="Layer_1" data-name="Layer 1" xmlns="http://www.w3.org/2000/svg" xmlns:xlink="http://www.w3.org/1999/xlink" viewBox="0 0 56 57"><defs><style>.cls-1{fill:none;}.cls-2{fill:#39b54a;}.cls-3{clip-path:url(#clip-path);}.cls-4{fill:#30993a;}.cls-5{fill:#f0aa00;}.cls-6{fill:#fd0;}.cls-7{fill:#da8100;}</style><clipPath id="clip-path"><rect class="cls-1" y="0.46" width="56" height="56" rx="13"/></clipPath></defs><title>assets</title><rect class="cls-2" y="0.46" width="56" height="56" rx="13.07"/><g class="cls-3"><path class="cls-4" d="M56.67,51.79,43.28,49l-2.18-.45h0L25.82,45.41h0l-2.39-.49-3.29-.68h0l-1-.21a1.7,1.7,0,0,0-2,1.32l-.21,1h0L16,50.61a2.76,2.76,0,0,0,2.15,3.26l21,4.33h0l12.07,2.5h0l3.5.72a2.76,2.76,0,0,0,3.26-2.15l.87-4.22A2.76,2.76,0,0,0,56.67,51.79Z"/><path class="cls-4" d="M61.06,30.53l-23.27-4.8c2.35-7.84.4-15.95-5.49-20.34h0l-.38-.26h0l-2.84-2C21-2.5,9,.8,2.21,10.51s-5.69,22.13,2.4,27.76l2.84,2h0l.38.27h0a16,16,0,0,0,11,2.33,2.08,2.08,0,0,0,.49.19l1,.21h0l1,.2,6.21,1.29h0L48.3,49l5.08,1h0l3.49.72a2.75,2.75,0,0,0,3.26-2.14L61,44.42a2.76,2.76,0,0,0-2.15-3.26l-3.49-.72h0L43.3,38h0l-6.18-1.28h0l-5-1q.39-.42.78-.87L45.68,37.4l9.9,2h0l3.49.73A2.77,2.77,0,0,0,62.33,38l.87-4.23A2.76,2.76,0,0,0,61.06,30.53Z"/><rect class="cls-5" x="12.95" y="44.87" width="42.82" height="9.83" rx="4.29" transform="translate(10.78 -5.92) rotate(11.67)"/><rect class="cls-5" x="15.15" y="34.24" width="42.82" height="9.83" rx="4.29" transform="translate(8.68 -6.59) rotate(11.67)"/><rect class="cls-5" x="17.34" y="23.62" width="42.82" height="9.83" rx="4.29" transform="matrix(0.98, 0.2, -0.2, 0.98, 6.57, -7.25)"/><rect class="cls-6" x="38.57" y="25.42" width="17.84" height="9.83" rx="4.29" transform="translate(7.12 -8.98) rotate(11.67)"/><rect class="cls-6" x="36.37" y="36.05" width="17.84" height="9.83" rx="4.29" transform="translate(9.23 -8.32) rotate(11.67)"/><rect class="cls-6" x="34.18" y="46.67" width="17.84" height="9.83" rx="4.29" transform="translate(11.33 -7.65) rotate(11.67)"/><path class="cls-7" d="M14.05,42.3l-.22,1a18.47,18.47,0,0,0,9-1L16.06,41A1.7,1.7,0,0,0,14.05,42.3Z"/><path class="cls-7" d="M16.24,31.68,14.94,38a1.7,1.7,0,0,0,1.32,2l8.21,1.69a24.15,24.15,0,0,0,9.6-8.06L18.25,30.36A1.7,1.7,0,0,0,16.24,31.68Z"/><path class="cls-7" d="M18.44,21.05l-1.3,6.3a1.7,1.7,0,0,0,1.32,2l16.23,3.35a24.36,24.36,0,0,0,3.66-9.28l-17.9-3.7A1.7,1.7,0,0,0,18.44,21.05Z"/><ellipse class="cls-5" cx="16.64" cy="19.64" rx="21.41" ry="17.84" transform="translate(-8.98 22.07) rotate(-55.13)"/><rect class="cls-5" x="-5.99" y="16.82" width="42.82" height="3.93" transform="translate(-8.81 20.69) rotate(-55.13)"/><ellipse class="cls-6" cx="13.81" cy="17.66" rx="21.41" ry="17.84" transform="translate(-8.58 18.89) rotate(-55.13)"/><path class="cls-7" d="M24.83,24.86c-5.19,7.46-14.35,10.06-20.45,5.8S-2.46,16.92,2.73,9.46s14.36-10,20.46-5.8S30,17.4,24.83,24.86Z"/><path class="cls-5" d="M25.14,25.56c-5.07,7.28-14,9.84-19.88,5.72S-1.33,17.92,3.74,10.65s14-9.84,19.88-5.72S30.21,18.28,25.14,25.56Z"/><path class="cls-7" d="M12.32,26.11a3.4,3.4,0,0,0,.6.66c.28.24.57.48.87.69a9.74,9.74,0,0,0,.87.54,5.31,5.31,0,0,0,.92.38l6.8-4.58,2-8a4.67,4.67,0,0,0-.66-.76,8.4,8.4,0,0,0-.8-.62,8.53,8.53,0,0,0-.95-.57,3.63,3.63,0,0,0-.85-.33l-1.94,8Z"/><path class="cls-7" d="M14.43,22.24c3.63-2.9,5.32-8,3.77-11.29s-5.76-3.7-9.39-.8-5.31,8-3.76,11.29l2.66,5.72.14.3h0v0L8,27.4a9.55,9.55,0,0,0,.85-.51c.32-.22.61-.43.88-.64s.56-.47.85-.73a11.63,11.63,0,0,0,.86-.86L11.08,24A9.11,9.11,0,0,0,14.43,22.24ZM10.32,13.4c1.68-1.34,3.62-1.17,4.34.37S14.6,17.65,12.92,19s-3.62,1.17-4.34-.37S8.64,14.73,10.32,13.4Z"/><path class="cls-6" d="M11.23,25.35a3.4,3.4,0,0,0,.6.66,8.35,8.35,0,0,0,.88.69,8.23,8.23,0,0,0,.86.54,4.62,4.62,0,0,0,.92.38L21.29,23l2-8a5,5,0,0,0-.65-.76,9.86,9.86,0,0,0-.81-.62c-.3-.21-.63-.39-.95-.57a3.24,3.24,0,0,0-.84-.32l-1.95,8Z"/><path class="cls-6" d="M13.34,21.48c3.63-2.89,5.32-8,3.77-11.29s-5.76-3.69-9.39-.8S2.41,17.35,4,20.68l2.66,5.78.14.36h0v0l.1-.11a9.86,9.86,0,0,0,.85-.53c.32-.21.62-.44.88-.65s.57-.46.86-.73.57-.55.85-.85L10,23.22A9.14,9.14,0,0,0,13.34,21.48ZM9.23,12.64c1.68-1.34,3.63-1.17,4.34.37s-.06,3.88-1.74,5.22-3.62,1.17-4.34-.37S7.56,14,9.23,12.64Z"/></g></svg>