<?xml version="1.0" encoding="utf-8"?>
<!-- Generator: Adobe Illustrator 19.0.0, SVG Export Plug-In . SVG Version: 6.00 Build 0)  -->
<svg version="1.1" id="Layer_1" xmlns="http://www.w3.org/2000/svg" xmlns:xlink="http://www.w3.org/1999/xlink" x="0px" y="0px"
	 viewBox="0 0 1366 381.4" style="enable-background:new 0 0 1366 381.4;" xml:space="preserve">
<style type="text/css">
	.Drop_x0020_Shadow{fill:none;}
	.Outer_x0020_Glow_x0020_5_x0020_pt{fill:none;}
	.Blue_x0020_Neon{fill:none;stroke:#8AACDA;stroke-width:7;stroke-linecap:round;stroke-linejoin:round;}
	.Chrome_x0020_Highlight{fill:url(#SVGID_1_);stroke:#FFFFFF;stroke-width:0.3629;stroke-miterlimit:1;}
	.Jive_GS{fill:#FFDD00;}
	.Alyssa_GS{fill:#A6D0E4;}
	.st0{fill:#F2F2F2;}
	.st1{fill:#BCBCBC;}
</style>
<linearGradient id="SVGID_1_" gradientUnits="userSpaceOnUse" x1="203" y1="-82.5691" x2="203" y2="-83.5691">
	<stop  offset="0" style="stop-color:#656565"/>
	<stop  offset="0.618" style="stop-color:#1B1B1B"/>
	<stop  offset="0.6292" style="stop-color:#545454"/>
	<stop  offset="0.9831" style="stop-color:#3E3E3E"/>
</linearGradient>
<path id="XMLID_3197_" class="st0" d="M1352,187.2L1221.5,225c-10.9,3.1-22,1.6-31.2-3.5c-9.2-5.1-16.5-13.7-19.7-24.5
	c0,0,0-0.1,0-0.1c-1.8-6.4-8.5-10.3-14.9-8.4l-37.9,11l-222.7,64.5c-18.5,5.4-37.6,2.7-53.3-6c-7.2-4-13.7-9.2-19.2-15.5
	c-12-13.8-30.8-19.4-48.4-14.3L673,257.3c-18.5,5.4-37.6,2.7-53.3-6c-15.7-8.7-28.2-23.3-33.6-41.8v0v0c0-0.1-0.1-0.3-0.1-0.4
	c-6-21.2-27.8-33.6-49-27.5l-156.9,45.4c-18.5,5.4-37.6,2.7-53.3-6c-15.7-8.7-28.2-23.3-33.6-41.8c-0.3-0.9-1.2-1.4-2-1.1l-29,8.4
	l-130.6,37.8c-10.9,3.1-22,1.6-31.2-3.5c-9.2-5.1-16.5-13.7-19.7-24.5c-2.6-8.9-2-17.9,1.1-26c0.5-1.2-0.9-2.4-2.1-2.1L0,191.1
	v190.4h1366V179.8C1362,183.1,1357.3,185.6,1352,187.2z"/>
<path id="XMLID_3193_" class="st1" d="M873.6,309.6L873.6,309.6l130.6-37.8c10.9-3.1,19.4-10.4,24.5-19.7c5.1-9.2,6.7-20.4,3.5-31.2
	v0v0c-3.1-10.9-10.4-19.4-19.7-24.5s-20.4-6.7-31.2-3.5l-130.6,37.8l0,0c-10.9,3.1-19.4,10.4-24.5,19.7c-5.1,9.2-6.7,20.4-3.5,31.2
	v0l0,0c3.1,10.9,10.4,19.4,19.7,24.5C851.6,311.2,862.8,312.8,873.6,309.6z"/>
<path id="XMLID_3190_" class="st0" d="M869.3,168.9L869.3,168.9l86.8-25.1c7.2-2.1,12.9-6.9,16.3-13.1s4.4-13.6,2.3-20.8v0v0
	c-2.1-7.2-6.9-12.9-13.1-16.3c-6.1-3.4-13.6-4.4-20.8-2.3l-86.8,25.1l0,0c-7.2,2.1-12.9,6.9-16.3,13.1c-3.4,6.1-4.4,13.6-2.3,20.8v0
	v0c2.1,7.2,6.9,12.9,13.1,16.3C854.6,169.9,862.1,171,869.3,168.9z"/>
<path id="XMLID_3179_" class="st1" d="M560.5,264.2L560.5,264.2c-3.1-10.9-10.4-19.4-19.7-24.5c-9.2-5.1-20.4-6.7-31.2-3.5L379,274
	c-10.9,3.1-19.4,10.6-24.5,19.9c-4.5,8.2-6,17.6-4.2,27.6c0.2,1,0.1,2.4,1.1,3.6V325c3,10.9,10.2,19.4,19.5,24.5s20.3,6.8,31.1,3.7
	l110-31.7l20.5-6.1c10.9-3.1,19.4-10.6,24.5-19.9C562.1,286.2,563.6,275.1,560.5,264.2z"/>
<path id="XMLID_3164_" class="st1" d="M922.4,129l85.4-24.7l85.4-24.7c7.1-2.1,12.7-6.8,16-12.9c3.3-6,4.4-13.3,2.3-20.4v0v0
	c-2.1-7.1-6.8-12.7-12.9-16s-13.3-4.4-20.4-2.3l-85.4,24.7l-85.4,24.7c-7.1,2.1-12.7,6.8-16,12.9c-3.3,6-4.4,13.3-2.3,20.4v0l0,0
	c2.1,7.1,6.8,12.7,12.9,16S915.3,131.1,922.4,129z"/>
<path id="XMLID_3159_" class="st0" d="M207.3,44.2L207.3,44.2C204.2,33.6,197,25.1,188,20.1c-9.1-5-20.1-6.6-30.7-3.5L28.8,53.8
	L0.4,62.1v84.2l50.9-14.7l128.4-37.2c10.7-3.1,19.1-10.3,24.1-19.3C208.8,65.9,210.4,54.9,207.3,44.2z"/>
</svg>
