<?xml version="1.0" encoding="utf-8"?>
<!-- Generator: Adobe Illustrator 19.0.0, SVG Export Plug-In . SVG Version: 6.00 Build 0)  -->
<svg version="1.1" id="Layer_1" xmlns="http://www.w3.org/2000/svg" xmlns:xlink="http://www.w3.org/1999/xlink" x="0px" y="0px"
	 viewBox="0 0 1366 302.4" style="enable-background:new 0 0 1366 302.4;" xml:space="preserve">
<style type="text/css">
	.st0{fill:#ADE555;}
	.st1{fill:#00D3AA;}
	.st2{fill:#CCCCCC;}
</style>
<g id="XMLID_517_">
	<g id="XMLID_518_">
		<path id="XMLID_690_" class="st0" d="M550.4,300.4H69.5c-44.7-40-68.9-83.8-68.9-83.8L0,0c0,0,247.5,291,800,174.8l125.3-16
			c-33.2,6.1-106.9,25.2-241.9,85.6C634.6,266.3,590.8,284.4,550.4,300.4z"/>
		<path id="XMLID_698_" class="st1" d="M925.4,158.8c15.3-2.8,22-2.8,22-2.8L925.4,158.8z"/>
	</g>
	<path id="XMLID_691_" class="st2" d="M1,302.4v-1.9v-10v-3v-8v-10v-7v-17v-8v-10v-2v-17v-8v-10c0,0,89.5,86.9,340.2,86.9
		s598-169.6,652.4-187.4C1048,72.3,1101,53.5,1194,53.5s173,36.7,173,36.7v10v8v17v2v10v8v17v7v10v8v3v10v4v4v17v2v10v8v17v7v10v8
		v15.2H1z"/>
</g>
</svg>
