<?xml version="1.0" encoding="utf-8"?>
<!-- Generator: Adobe Illustrator 19.0.0, SVG Export Plug-In . SVG Version: 6.00 Build 0)  -->
<svg version="1.1" id="Layer_1" xmlns="http://www.w3.org/2000/svg" xmlns:xlink="http://www.w3.org/1999/xlink" x="0px" y="0px"
	 viewBox="0 0 1366 263.1" style="enable-background:new 0 0 1366 263.1;" xml:space="preserve">
<style type="text/css">
	.st0{fill:#39B54A;}
	.st1{fill:#ADE555;}
	.st2{fill:#8CC63F;}
</style>
<g id="XMLID_1361_">
	<path id="XMLID_1424_" class="st0" d="M0,249.5v13.7h1366V112.5l-79.5,23c-1.3,0.4-2.4-0.9-1.9-2.1c3.1-8,3.7-17.1,1.1-26
		c-3.1-10.9-10.4-19.4-19.7-24.5c-9.2-5.1-20.4-6.7-31.2-3.5l-130.6,37.8l-29,8.4c-0.9,0.3-1.8-0.3-2-1.1
		c-5.4-18.5-17.8-33.2-33.6-41.8c-15.7-8.7-34.8-11.4-53.3-6L829.4,122c-21.1,6.1-43-6.3-49-27.5c0-0.1-0.1-0.3-0.1-0.4v0v0
		c-5.4-18.5-17.8-33.2-33.6-41.8c-15.7-8.7-34.8-11.4-53.3-6L592.2,75.6c-17.5,5.1-36.4-0.6-48.4-14.3c-5.5-6.3-12-11.5-19.2-15.5
		c-15.7-8.7-34.8-11.4-53.3-6l-222.7,64.5l-37.9,11c-6.4,1.9-13.1-2-14.9-8.4c0,0,0-0.1,0-0.1c-3.1-10.9-10.4-19.4-19.7-24.5
		c-9.2-5.1-20.4-6.7-31.2-3.5L14.2,116.4C8.9,117.9,4,120.5,0,123.8L0,249.5C0,249.4,0,249.4,0,249.5z"/>
	<path id="XMLID_1420_" class="st1" d="M753.3,145.3L753.3,145.3l130.6-37.8c10.9-3.1,19.4-10.4,24.5-19.7
		c5.1-9.2,6.7-20.4,3.5-31.2v0l0,0c-3.1-10.9-10.4-19.4-19.7-24.5s-20.4-6.7-31.2-3.5L730.5,66.3l0,0C719.6,69.5,711,76.8,705.9,86
		c-5.1,9.2-6.7,20.4-3.5,31.2v0l0,0c3.1,10.9,10.4,19.4,19.7,24.5C731.3,146.9,742.5,148.5,753.3,145.3z"/>
	<path id="XMLID_1417_" class="st2" d="M1067.4,142L1067.4,142l86.8-25.1c7.2-2.1,12.9-6.9,16.3-13.1c3.4-6.1,4.4-13.6,2.3-20.8v0v0
		c-2.1-7.2-6.9-12.9-13.1-16.3c-6.1-3.4-13.6-4.4-20.8-2.3l-86.8,25.1l0,0c-7.2,2.1-12.9,6.9-16.3,13.1c-3.4,6.1-4.4,13.6-2.3,20.8
		v0v0c2.1,7.2,6.9,12.9,13.1,16.3S1060.2,144.1,1067.4,142z"/>
	<path id="XMLID_1393_" class="st1" d="M1110.8,102.1l85.4-24.7l85.4-24.7c7.1-2.1,12.7-6.8,16-12.9s4.4-13.3,2.3-20.4v0v0
		c-2.1-7.1-6.8-12.7-12.9-16s-13.3-4.4-20.4-2.3l-85.4,24.7l-85.4,24.7c-7.1,2.1-12.7,6.8-16,12.9s-4.4,13.3-2.3,20.4v0l0,0
		c2.1,7.1,6.8,12.7,12.9,16C1096.4,103.2,1103.7,104.2,1110.8,102.1z"/>
	<path id="XMLID_1363_" class="st2" d="M207,80.8L207,80.8c-3.1-10.7-10.3-19.1-19.3-24.1c-9.1-5-20.1-6.6-30.7-3.5L28.5,90.4
		L0,98.6v84.2L50.9,168l128.4-37.2c10.7-3.1,19.1-10.3,24.1-19.3C208.5,102.4,210.1,91.5,207,80.8z"/>
	<path id="XMLID_1403_" class="st1" d="M296.5,116.5L296.5,116.5c-3.1-10.9-10.4-19.4-19.7-24.5c-9.2-5.1-20.4-6.7-31.2-3.5
		L115,126.3c-10.9,3.1-19.4,10.6-24.5,19.9c-4.5,8.2-6.2,17.6-4.4,27.6c0.2,1-0.1,2.4,0.9,3.6v-0.1c3,10.9,10.4,19.4,19.6,24.5
		s20.4,6.8,31.2,3.7L248,173.7l20.5-6.1c10.9-3.1,19.4-10.6,24.5-19.9C298.1,138.5,299.6,127.4,296.5,116.5z"/>
</g>
</svg>
