<?xml version="1.0" encoding="utf-8"?>
<!-- Generator: Adobe Illustrator 19.0.0, SVG Export Plug-In . SVG Version: 6.00 Build 0)  -->
<svg version="1.1" id="Layer_1" xmlns="http://www.w3.org/2000/svg" xmlns:xlink="http://www.w3.org/1999/xlink" x="0px" y="0px"
	 viewBox="0 0 1366 191" style="enable-background:new 0 0 1366 191;" xml:space="preserve">
<style type="text/css">
	.st0{fill:#F2F2F2;}
	.st1{fill:#00D3AA;}
	.st2{fill:#3F3F3F;}
</style>
<g id="XMLID_2237_">
	<g id="XMLID_2239_">
		<path id="XMLID_2248_" class="st0" d="M816.6,190h480.9c44.7-17,68.5-34.8,68.5-34.8V65c0,0-246.5,121.1-799,72.8l-125.3-6.7
			c33.2,2.5,106.9,10.4,241.9,35.6C732.4,175.9,776.2,184,816.6,190z"/>
		<path id="XMLID_2245_" class="st1" d="M441.6,131.1c-15.3-1.2-22-1.2-22-1.2L441.6,131.1z"/>
	</g>
	<path id="XMLID_2238_" class="st2" d="M1366,191v-0.9V186v-1.2v-3.3v-4.2v-2.9v-7.1v-3.3v-4.2v-0.8v-7.1v-3.3v-4.2
		c0,0-89.5,36.2-340.2,36.2s-598-70.6-652.4-78S266,87.3,173,87.3S0,102.6,0,102.6v4.2v3.3v7.1v0.8v4.2v3.3v7.1v2.9v4.2v3.3v1.2v4.2
		v1.7v1.7v7.1v0.8v4.2v3.3v7.1v2.9v4.2v3.3v6.5H1366z"/>
</g>
</svg>
