<?xml version="1.0" encoding="utf-8"?>
<!-- Generator: Adobe Illustrator 19.0.0, SVG Export Plug-In . SVG Version: 6.00 Build 0)  -->
<svg version="1.1" id="Layer_1" xmlns="http://www.w3.org/2000/svg" xmlns:xlink="http://www.w3.org/1999/xlink" x="0px" y="0px"
	 viewBox="-329 241 132 132" style="enable-background:new -329 241 132 132;" xml:space="preserve">
<style type="text/css">
	.st0{fill:#41D803;}
	.st1{fill:#FFFFFF;}
</style>
<title>Untitled-6</title>
<ellipse class="st0" cx="-263.3" cy="306.9" rx="58.9" ry="58.8"/>
<polygon id="XMLID_672_" class="st1" points="-263.3,265.4 -253.1,258.8 -246.5,269 -234.4,267.1 -232.5,279.1 -220.8,282.3 
	-223.9,294 -214.5,301.7 -222.1,311.1 -216.6,322 -227.4,327.5 -226.8,339.6 -239,340.3 -243.3,351.6 -254.7,347.3 -263.3,355.9 
	-271.9,347.3 -283.2,351.6 -287.6,340.3 -299.8,339.6 -299.1,327.5 -310,322 -304.5,311.1 -312.1,301.7 -302.7,294 -305.8,282.3 
	-294,279.1 -292.1,267.1 -280.1,269 -273.5,258.8 "/>
<g>
	<polygon class="st0" points="-284.5,294.2 -299.7,296.5 -295,329.3 -288.3,328.3 -290.2,315.2 -284,314.3 -284.9,307.7 
		-291.2,308.6 -292.2,302.1 -283.6,300.9 	"/>
	<path class="st0" d="M-264.8,304.5l-0.7-4.5c-0.4-2.5-1.3-4.3-2.7-5.6c-1.6-1.4-3.9-2-6.8-1.5l-8.3,1.2l4.8,32.8l6.6-1l-1.7-11.6
		l1.3-0.2l4.5,11.2l7.1-1l-5.7-13.6C-265,308.8-264.5,306.8-264.8,304.5z M-272.5,299.8c0.3,0.2,0.5,0.6,0.6,1.3l0.7,4.5
		c0.1,0.5,0,0.9-0.3,1.3c-0.3,0.4-0.6,0.6-1.1,0.7l-1.8,0.3l-1.1-7.9l1.8-0.3C-273.3,299.5-272.8,299.6-272.5,299.8z"/>
	<polygon class="st0" points="-253.3,316.4 -254.2,310 -248,309.1 -248.9,302.4 -255.2,303.3 -256.1,296.9 -247.6,295.6 -248.5,289 
		-263.7,291.2 -259,324 -243.7,321.8 -244.7,315.2 	"/>
	<polygon class="st0" points="-228.3,312.8 -236.9,314 -237.8,307.6 -231.5,306.7 -232.5,300 -238.8,300.9 -239.7,294.5 
		-231.1,293.3 -232.1,286.6 -247.3,288.8 -242.5,321.6 -227.3,319.4 	"/>
</g>
<g>
	<defs>
		<ellipse id="SVGID_1_" cx="-263.3" cy="306.9" rx="58.9" ry="58.8"/>
	</defs>
	<clipPath id="SVGID_2_">
		<use xlink:href="#SVGID_1_"  style="overflow:visible;"/>
	</clipPath>
</g>
<path class="st1" d="M-263.3,373c-36.5,0-66.1-29.6-66.1-66.1s29.6-66.1,66.1-66.1c36.5,0,66.1,29.6,66.1,66.1
	C-197.2,343.4-226.8,373-263.3,373z M-263.3,255.4c-28.5,0-51.5,23.1-51.5,51.6s23.1,51.5,51.6,51.5c28.4,0,51.5-23.1,51.5-51.5
	C-211.8,278.4-234.8,255.4-263.3,255.4L-263.3,255.4z"/>
</svg>
