<svg id="Layer_1" data-name="Layer 1" xmlns="http://www.w3.org/2000/svg" xmlns:xlink="http://www.w3.org/1999/xlink" viewBox="0 0 73 73"><defs><style>.cls-1{fill:#2b2b2b;}.cls-2{fill:url(#linear-gradient);}.cls-3{fill:#fff;}.cls-4{fill:url(#linear-gradient-2);}.cls-5{fill:url(#linear-gradient-3);}</style><linearGradient id="linear-gradient" x1="10.21" y1="52.77" x2="15.63" y2="52.77" gradientUnits="userSpaceOnUse"><stop offset="0" stop-color="#39b54a"/><stop offset="1" stop-color="#8cc63f"/></linearGradient><linearGradient id="linear-gradient-2" x1="11.6" y1="25.68" x2="29.68" y2="25.68" xlink:href="#linear-gradient"/><linearGradient id="linear-gradient-3" x1="17.18" y1="36.52" x2="27.76" y2="36.52" xlink:href="#linear-gradient"/></defs><title>Untitled-1</title><rect class="cls-1" x="0.09" y="0.34" width="73.37" height="73.37" rx="13.07"/><rect class="cls-2" x="10.21" y="50.06" width="5.42" height="5.42" rx="2.71"/><path class="cls-3" d="M21.36,18.58V44.64h2.78a2.71,2.71,0,1,1,0,5.42H19.35a2.71,2.71,0,0,0,0,5.42H58.27V18.58Zm26.91,26.9H31.36V28.58H48.27Z"/><rect class="cls-3" x="10.79" y="33.81" width="5.42" height="5.42" rx="2.71"/><rect class="cls-4" x="11.6" y="22.98" width="18.08" height="5.42" rx="2.71"/><rect class="cls-5" x="17.18" y="33.81" width="10.58" height="5.42" rx="2.71"/></svg>