<svg id="Layer_1" data-name="Layer 1" xmlns="http://www.w3.org/2000/svg" xmlns:xlink="http://www.w3.org/1999/xlink" viewBox="0 0 133 133"><defs><style>.cls-1{fill:#2b2b2b;}.cls-2{fill:#fff;}.cls-3{fill:url(#linear-gradient);}</style><linearGradient id="linear-gradient" x1="-1045.03" y1="984.4" x2="-1045.03" y2="1029.87" gradientTransform="matrix(0, -1, -1, 0, 1074.72, -995.77)" gradientUnits="userSpaceOnUse"><stop offset="0" stop-color="#39b54a"/><stop offset="1" stop-color="#8cc63f"/></linearGradient></defs><title>assets</title><rect class="cls-1" x="-0.24" y="0.04" width="133.21" height="133.21" rx="13.07"/><path class="cls-2" d="M31.39,106.37a33.25,33.25,0,0,1-.92-5.74c-.19-2.41-.32-4.83-.32-7.29,0-1.89.07-4.11.26-6.66a44.81,44.81,0,0,1,1-6.37L67.27,60.89l36,19.42a41.13,41.13,0,0,1,1.16,6.37c.19,2.55.24,4.77.24,6.66,0,2.46-.18,4.88-.37,7.29a31.17,31.17,0,0,1-1,5.74l-36-19.57Z"/><path class="cls-3" d="M31.39,72a33.25,33.25,0,0,1-.92-5.74c-.19-2.4-.32-4.83-.32-7.29,0-1.89.07-4.11.26-6.66a44.81,44.81,0,0,1,1-6.37L67.27,26.53,103.3,46a41.13,41.13,0,0,1,1.16,6.37c.19,2.55.24,4.77.24,6.66,0,2.46-.18,4.89-.37,7.29a31.17,31.17,0,0,1-1,5.74l-36-19.57Z"/></svg>