<svg id="Layer_1" data-name="Layer 1" xmlns="http://www.w3.org/2000/svg" xmlns:xlink="http://www.w3.org/1999/xlink" viewBox="0 0 133 133"><defs><style>.cls-1{fill:#2b2b2b;}.cls-2{fill:#fff;}.cls-3{fill:url(#linear-gradient);}</style><linearGradient id="linear-gradient" x1="83.93" y1="43.54" x2="83.93" y2="89.02" gradientUnits="userSpaceOnUse"><stop offset="0" stop-color="#39b54a"/><stop offset="1" stop-color="#8cc63f"/></linearGradient></defs><title>assets</title><rect class="cls-1" x="0.15" y="0.04" width="133.21" height="133.21" rx="13.07"/><path class="cls-2" d="M26.83,102.48a33.25,33.25,0,0,0,5.74.92c2.41.19,4.84.32,7.29.32,1.89,0,4.11-.07,6.66-.26a44.57,44.57,0,0,0,6.37-1L72.31,66.6l-19.42-36a42.12,42.12,0,0,0-6.37-1.16c-2.55-.18-4.77-.24-6.66-.24-2.45,0-4.88.18-7.29.37a32,32,0,0,0-5.74,1L46.4,66.6Z"/><path class="cls-3" d="M61.19,102.48a33.25,33.25,0,0,0,5.74.92c2.41.19,4.84.32,7.29.32,1.89,0,4.11-.07,6.66-.26a44.57,44.57,0,0,0,6.37-1L106.67,66.6l-19.42-36a42.12,42.12,0,0,0-6.37-1.16c-2.55-.18-4.77-.24-6.66-.24-2.45,0-4.88.18-7.29.37a32,32,0,0,0-5.74,1L80.76,66.6Z"/></svg>