<?xml version="1.0" encoding="utf-8"?>
<!-- Generator: Adobe Illustrator 24.1.3, SVG Export Plug-In . SVG Version: 6.00 Build 0)  -->
<svg version="1.1" id="Layer_1" xmlns="http://www.w3.org/2000/svg" xmlns:xlink="http://www.w3.org/1999/xlink" x="0px" y="0px"
	 viewBox="0 0 39.2 39.2" style="enable-background:new 0 0 39.2 39.2;" xml:space="preserve">
<style type="text/css">
	.st0{fill:#558EFF;}
	.st1{fill:#FFFFFF;}
</style>
<path class="st0" d="M25.8,38h-6.26h-6.26c-3.3,0-6.3-1.35-8.47-3.52C2.64,32.3,1.29,29.3,1.29,26v-6.26v-6.26
	c0-3.3,1.35-6.3,3.53-8.47s5.18-3.53,8.47-3.53h6.26h6.26c3.3,0,6.3,1.35,8.48,3.53c2.17,2.17,3.52,5.18,3.52,8.47v6.26V26
	c0,3.3-1.35,6.3-3.52,8.48C32.1,36.65,29.1,38,25.8,38z"/>
<polygon class="st1" points="15.56,31.65 5.32,21.41 10.98,15.75 15.56,20.33 28.12,7.78 33.78,13.43 "/>
</svg>
