<?xml version="1.0" encoding="utf-8"?>
<!-- Generator: Adobe Illustrator 24.1.3, SVG Export Plug-In . SVG Version: 6.00 Build 0)  -->
<svg version="1.1" id="Layer_1" xmlns="http://www.w3.org/2000/svg" xmlns:xlink="http://www.w3.org/1999/xlink" x="0px" y="0px"
	 viewBox="0 0 80 80" style="enable-background:new 0 0 80 80;" xml:space="preserve">
<style type="text/css">
	.st0{fill:#2B2B2B;}
	.st1{fill:#FFFFFF;}
	.st2{fill:url(#XMLID_3_);}
</style>
<g>
	<path id="XMLID_3551_" class="st0" d="M66.02,79.29H13.88c-7.22,0-13.07-5.85-13.07-13.07V14.07C0.81,6.85,6.66,1,13.88,1h52.14
		c7.22,0,13.07,5.85,13.07,13.07v52.14C79.09,73.43,73.24,79.29,66.02,79.29z"/>
	<g>
		<polygon class="st1" points="20.26,20.46 20.26,33.38 26.72,33.38 26.72,26.92 53.17,26.92 53.17,33.38 59.64,33.38 59.64,20.46 
					"/>
		<polygon class="st1" points="59.64,59.83 59.64,46.9 53.17,46.9 53.17,53.37 26.72,53.37 26.72,46.9 20.26,46.9 20.26,59.83 		"/>
		<linearGradient id="XMLID_3_" gradientUnits="userSpaceOnUse" x1="13.7957" y1="40.1429" x2="66.1004" y2="40.1429">
			<stop  offset="0" style="stop-color:#39B54A"/>
			<stop  offset="1" style="stop-color:#8CC63F"/>
		</linearGradient>
		<rect id="XMLID_3552_" x="13.8" y="36.91" class="st2" width="52.3" height="6.46"/>
	</g>
</g>
</svg>
