<?xml version="1.0" encoding="utf-8"?>
<!-- Generator: Adobe Illustrator 19.0.0, SVG Export Plug-In . SVG Version: 6.00 Build 0)  -->
<svg version="1.1" id="Layer_1" xmlns="http://www.w3.org/2000/svg" xmlns:xlink="http://www.w3.org/1999/xlink" x="0px" y="0px"
	 viewBox="-270 257 251 99" style="enable-background:new -270 257 251 99;" xml:space="preserve">
<style type="text/css">
	.st0{fill:url(#SVGID_1_);}
	.st1{clip-path:url(#SVGID_3_);}
	.st2{fill:#FFD088;}
	.st3{fill:#383838;}
	.st4{fill:#E8BA78;}
	.st5{fill:#775D49;}
	.st6{opacity:0.5;}
	.st7{fill:#444445;}
	.st8{fill:#30302F;}
	.st9{fill:url(#SVGID_4_);}
	.st10{fill:#FFFFFF;}
	.st11{fill:#575757;}
	.st12{fill:#FFCD2E;}
</style>
<title>Untitled-1</title>
<g>
	<g id="Layer_1_1_">
		
			<linearGradient id="SVGID_1_" gradientUnits="userSpaceOnUse" x1="-228.48" y1="1157.4" x2="-97.32" y2="1157.4" gradientTransform="matrix(1 0 0 -1 48 1464)">
			<stop  offset="0" style="stop-color:#3CB34A"/>
			<stop  offset="1" style="stop-color:#8AC441"/>
		</linearGradient>
		<path class="st0" d="M-256.6,256.9h224.9c7.2,0,13,5.8,13,13v73.3c0,7.2-5.8,13-13,13h-224.9c-7.2,0-13-5.8-13-13v-73.3
			C-269.6,262.8-263.8,256.9-256.6,256.9z"/>
		<g>
			<defs>
				<path id="SVGID_2_" d="M-254.6,256.9h220.9c8.3,0,15,6.7,15,15v71.2c0,7.2-5.9,13.1-13.1,13.1l0,0h-224.7c-7.2,0-13-5.8-13-13
					v-71.3C-269.6,263.7-262.9,256.9-254.6,256.9L-254.6,256.9z"/>
			</defs>
			<clipPath id="SVGID_3_">
				<use xlink:href="#SVGID_2_"  style="overflow:visible;"/>
			</clipPath>
			<g class="st1">
				<path class="st2" d="M-111.6,393.9c16.3-2.9,29.2-12.8,30-13.5l-12.1-15.4l6,7.7l-6-7.7c-0.2,0.2-22.2,16.9-37.8,7
					c-8-5-12.1-11.9-12.4-21c-0.4-10.1,4-22.7,12.5-36.2l-16.5-10.5c-10.8,17.2-16.1,33.1-15.6,47.4c0.6,15.6,8,28.4,21.5,36.9
					C-131.8,394.9-121.1,395.6-111.6,393.9z"/>
				<path class="st3" d="M-110.1,404.4c15.4-2.8,30.6-11.3,42.9-24.9L-94,355.2c-8.3,9.2-22.5,17.8-35.5,12.3
					c-5.9-3.4-9.7-13.3-7.5-19.8l-34.3-11.6c-8,23.7,3.4,52.3,25.5,63.8l0.9,0.4C-134,405.2-121.9,406.6-110.1,404.4z"/>
				<path class="st2" d="M-157.6,262.2c1.4-3.3,5.1-4.9,8.4-3.5c1.1,0.4,2,1.2,2.7,2.1c2.3-3.8,5.3-7.1,8.9-9.7
					c2.9-2.1,6.9-1.4,9,1.6c0,0,0,0,0,0c2.1,2.9,1.4,6.9-1.6,9c0,0,0,0,0,0c-5.7,4-8.1,10.6-9,17.3c6.2-2.6,13.2-2,18.9,1.5
					c2.9,1.7,3.8,5.5,2,8.3c0,0,0,0,0,0l-0.3,0.5c-1.8,2.9-5.7,3.8-8.6,2c-3.3-2.1-7.7-1.3-10,1.9c-1.1,1.6-1.6,3.5-1.3,5.4
					c0,0.3,0.1,0.4,0.1,0.5c0,0.1,0,0.1,0,0.2c0.5,2,1.8,3.8,3.7,4.8c3.5,1.8,7.8,0.5,9.8-2.8l0.1-0.1c1.8-2.9,5.5-3.8,8.4-2
					l0.6,0.4c2.9,1.8,3.8,5.5,2,8.4c0,0,0,0,0,0l0,0c-3.8,6.1-10.4,9.9-17.6,9.9c-2.9,5.4-8.2,9.2-14.3,10.3l-0.6,0.1l-10.3-36l0,0
					C-160.2,282.7-161.9,272.5-157.6,262.2z"/>
				<path class="st2" d="M-104.9,345.4l-6.6,0.6c-3.1,0.3-5.4,3-5.2,6.2l1,11c0.3,3.1,3,5.4,6.2,5.2l4.7-0.4L-104.9,345.4z"/>
				<polygon class="st4" points="-108.5,368.3 -104.9,368 -104.9,345.5 -108.5,345.8 				"/>
				<path class="st2" d="M-50.3,294.3h-18.5c-20.5,0-37.1,16.6-37.1,37.1v47.7c0,15.9,10.1,30,25.1,35.1v0.1h42.4v-0.1
					c15-5.1,25.2-19.2,25.2-35.1v-47.7C-13.2,310.9-29.8,294.3-50.3,294.3z"/>
				<path class="st5" d="M-80.3,289.2c-6.2,1.6-30,9.3-30,33.3c0,27.7,4.7,42.7,4.7,42.7s3.3-43.2,15.6-43.2c0,0,3.7,1.6,9.7,3.7
					l8.5-36.7L-80.3,289.2z"/>
				<path class="st5" d="M-13.2,365.4c0,0-3.3-43.2-15.6-43.2c0,0-52.6,24.6-81.5,4.1c0,0,6.9-37.2,36.8-37.2H-40
					c0,0,31.5,6,31.5,33.7C-8.5,350.4-13.2,365.4-13.2,365.4z"/>
				<path class="st5" d="M-45.4,339c-2.5,0-4.5-2-4.5-4.5c0-2.1,1.5-3.9,3.5-4.4c14.6-3.3,19.7-16.6,19.8-16.7
					c0.9-2.3,3.6-3.4,5.9-2.5c2.2,0.9,3.3,3.4,2.6,5.6c-0.3,0.7-6.9,18-26.2,22.4C-44.7,339-45.1,339-45.4,339z"/>
				<g class="st6">
					<path class="st7" d="M-72.7,333.5c8.8-1.2,17.7-1.2,26.5,0l37.4,5.2c0.3-4.7,0.6-10,0.6-16c0-27.7-31.5-33.7-31.5-33.7h-33.5
						c-0.8,0-1.5,0-2.3,0.1l-4.6,0.1c-6.2,1.6-30,9.3-30,33.4c0,6,0.2,11.3,0.6,16.1L-72.7,333.5z"/>
				</g>
				<path class="st7" d="M-63.9,280.4h6.4c0.9,0,1.6,0.7,1.6,1.6v0.5c0,0.9-0.7,1.6-1.6,1.6h-6.4c-0.9,0-1.6-0.7-1.6-1.6V282
					C-65.5,281.1-64.8,280.4-63.9,280.4z"/>
				<path class="st3" d="M-44.9,282.2h-28.9c-20.1,0-36.4,16.3-36.4,36.4v7.6H-8.5v-7.6C-8.5,298.5-24.8,282.2-44.9,282.2z"/>
				<path class="st8" d="M-8.5,323.7v-5.1c0-20.1-16.3-36.4-36.4-36.4h-6.1c5,3.7,15.3,14.4,7.4,35.3L-8.5,323.7z"/>
				<path class="st7" d="M-54.4,282.2c5.2,1.8,22.6,9.6,22.6,35.3v0.4h-0.9v-0.5c0-29.4-23.1-34.9-23.4-34.9l-2.1-0.4L-54.4,282.2z"
					/>
				
					<linearGradient id="SVGID_4_" gradientUnits="userSpaceOnUse" x1="-51.015" y1="319.15" x2="-51.015" y2="309.31" gradientTransform="matrix(1 0 0 -1 0 614)">
					<stop  offset="0" style="stop-color:#3CB34A"/>
					<stop  offset="1" style="stop-color:#8AC441"/>
				</linearGradient>
				<path class="st9" d="M-55.9,307.6c0.4,0.1,0.8,0.2,1.3,0.2c0.5,0,1,0.1,1.6,0.1s0.9,0,1.4,0c0.5,0,0.9-0.1,1.4-0.2l4.2-7.8
					l-4.2-7.9c-0.4-0.1-0.9-0.2-1.4-0.3c-0.6,0-1-0.1-1.4-0.1s-1,0-1.6,0.1c-0.4,0-0.8,0.1-1.3,0.2l4.2,7.8L-55.9,307.6z"/>
				<path class="st10" d="M-56.6,303.1c1.9-4.5-0.3-9.7-4.8-11.6s-9.7,0.3-11.6,4.8c-1.9,4.5,0.3,9.7,4.8,11.6c0,0,0,0,0,0l7.7,3.2
					l0.4,0.2l0,0l0.1-0.1c0.2-0.3,0.4-0.6,0.6-0.9c0.2-0.4,0.4-0.7,0.5-1c0.2-0.4,0.3-0.7,0.4-1.1c0.1-0.4,0.2-0.8,0.3-1.2l-0.9-0.4
					C-58,305.7-57.2,304.5-56.6,303.1z M-68.6,298.1c0.9-2.1,3.3-3.1,5.4-2.2c2.1,0.9,3.1,3.3,2.2,5.4c-0.9,2.1-3.3,3.1-5.4,2.2
					c0,0,0,0,0,0C-68.5,302.6-69.4,300.2-68.6,298.1L-68.6,298.1z"/>
				<path class="st7" d="M-67,282.2c-5.2,1.8-22.6,9.6-22.6,35.3v0.4h0.9v-0.5c0-29.4,23.1-34.9,23.4-34.9l2.1-0.4L-67,282.2z"/>
				<path class="st7" d="M-6.8,333.4c-0.3,0-0.6,0-0.9-0.1l-40.2-5.6c-7.6-1.1-15.4-1.1-23,0l-40.4,5.6c-3.4,0.5-6.6-1.9-7.1-5.4
					c-0.5-3.4,1.9-6.6,5.4-7.1l0,0l40.4-5.6c8.8-1.2,17.7-1.2,26.5,0l40.2,5.6c3.4,0.5,5.9,3.7,5.4,7.1
					C-1,331.1-3.7,333.4-6.8,333.4L-6.8,333.4z"/>
				<path class="st11" d="M-72.3,318.8c8.7-1.2,17.5-1.2,26.2,0l45.4,6.3c-0.8-2.3-2.7-3.9-5.1-4.2l-40.2-5.6
					c-8.8-1.2-17.7-1.2-26.5,0l-40.4,5.6c-2.4,0.3-4.3,2-5.1,4.2L-72.3,318.8z"/>
				<path class="st10" d="M-108.3,267.8h-3v-3c0-1.2-1-2.2-2.2-2.2s-2.2,1-2.2,2.2v3h-3c-1.2,0-2.2,1-2.2,2.2s1,2.2,2.2,2.2h3v3
					c0,1.2,1,2.2,2.2,2.2s2.2-1,2.2-2.2v-3h3c1.2,0,2.2-1,2.2-2.2S-107.1,267.8-108.3,267.8z"/>
				<path class="st10" d="M-93.6,286.5h-2v-2c0-0.8-0.6-1.4-1.4-1.4c-0.8,0-1.4,0.6-1.4,1.4c0,0,0,0,0,0v2h-2
					c-0.8,0-1.4,0.6-1.4,1.4c0,0.8,0.6,1.4,1.4,1.4c0,0,0,0,0,0h2v2c0,0.8,0.6,1.4,1.4,1.4c0.8,0,1.4-0.6,1.4-1.4v-2h2
					c0.8,0,1.4-0.6,1.4-1.4S-92.8,286.5-93.6,286.5C-93.6,286.5-93.6,286.5-93.6,286.5z"/>
				<path class="st10" d="M-155.8,287.3h-2v-2c0-0.8-0.6-1.4-1.4-1.4c-0.8,0-1.4,0.6-1.4,1.4c0,0,0,0,0,0v2h-2
					c-0.8-0.1-1.5,0.5-1.5,1.3s0.5,1.5,1.3,1.5c0.1,0,0.2,0,0.2,0h2v2c0,0.8,0.6,1.4,1.4,1.4c0.8,0,1.4-0.6,1.4-1.4v-2h2
					c0.8,0.1,1.5-0.5,1.5-1.3c0.1-0.8-0.5-1.5-1.3-1.5C-155.6,287.2-155.7,287.2-155.8,287.3z"/>
			</g>
		</g>
		<path class="st10" d="M-259.1,270.7h1.4c0.1,0,0.3,0,0.4,0.1c0.1,0.1,0.2,0.2,0.2,0.3l2.1,5.6c0.1,0.2,0.1,0.4,0.2,0.6l0.2,0.7
			c0.1-0.4,0.2-0.9,0.4-1.3l2.2-5.6c0-0.1,0.1-0.2,0.2-0.3c0.1-0.1,0.2-0.1,0.4-0.1h1.4l-3.7,9.2h-1.5L-259.1,270.7z"/>
		<path class="st10" d="M-248.4,273.4v4.2c0,0.3,0.1,0.7,0.3,0.9c0.2,0.2,0.5,0.3,0.8,0.3c0.3,0,0.5-0.1,0.8-0.2
			c0.3-0.1,0.5-0.3,0.7-0.5v-4.7h1.6v6.5h-1c-0.2,0-0.4-0.1-0.4-0.3l-0.1-0.5c-0.1,0.1-0.3,0.3-0.4,0.4c-0.1,0.1-0.3,0.2-0.5,0.3
			c-0.2,0.1-0.3,0.1-0.5,0.2c-0.2,0-0.4,0.1-0.6,0.1c-0.3,0-0.6-0.1-0.9-0.2c-0.3-0.1-0.5-0.3-0.7-0.5c-0.2-0.2-0.3-0.5-0.4-0.8
			c-0.1-0.3-0.1-0.7-0.1-1v-4.2H-248.4z"/>
		<path class="st10" d="M-239.9,273.3c0.4,0,0.8,0.1,1.1,0.2c0.3,0.1,0.6,0.3,0.9,0.6c0.3,0.3,0.5,0.6,0.6,0.9
			c0.1,0.4,0.2,0.8,0.2,1.3c0,0.1,0,0.2,0,0.3c0,0.1,0,0.1-0.1,0.2c0,0-0.1,0.1-0.1,0.1c-0.1,0-0.1,0-0.2,0h-4
			c0,0.5,0.1,1.1,0.5,1.5c0.3,0.3,0.8,0.5,1.2,0.5c0.2,0,0.4,0,0.7-0.1c0.2,0,0.3-0.1,0.5-0.2l0.4-0.2c0.1-0.1,0.2-0.1,0.3-0.1
			c0.1,0,0.1,0,0.2,0c0,0,0.1,0.1,0.1,0.1l0.5,0.6c-0.3,0.4-0.8,0.7-1.3,0.8c-0.2,0.1-0.5,0.1-0.7,0.2c-0.2,0-0.5,0-0.7,0
			c-0.4,0-0.9-0.1-1.3-0.2c-0.4-0.1-0.7-0.4-1-0.7c-0.3-0.3-0.5-0.6-0.7-1c-0.2-0.5-0.3-1-0.3-1.5c0-0.4,0.1-0.9,0.2-1.3
			c0.3-0.8,0.8-1.4,1.6-1.7C-240.8,273.3-240.4,273.3-239.9,273.3z M-239.9,274.4c-0.4,0-0.8,0.1-1.1,0.4c-0.3,0.3-0.5,0.7-0.5,1.1
			h2.9c0-0.2,0-0.4-0.1-0.6c-0.1-0.2-0.1-0.3-0.3-0.5c-0.1-0.1-0.3-0.2-0.4-0.3C-239.5,274.4-239.7,274.4-239.9,274.4L-239.9,274.4z
			 M-237.7,270.6l-1.6,1.7c-0.1,0.1-0.1,0.1-0.2,0.2c-0.1,0-0.2,0.1-0.3,0h-0.9l0.9-1.5c0.1-0.1,0.1-0.2,0.2-0.3
			c0.1-0.1,0.2-0.1,0.4-0.1H-237.7z"/>
		<path class="st10" d="M-234.2,270.4v9.5h-1.6v-9.5H-234.2z"/>
		<path class="st10" d="M-229.1,279.9h-1.4l-2.6-6.5h1.3c0.1,0,0.2,0,0.3,0.1c0.1,0.1,0.1,0.1,0.2,0.2l1.3,3.5
			c0.1,0.2,0.1,0.4,0.2,0.6c0,0.2,0.1,0.4,0.1,0.6c0-0.2,0.1-0.4,0.1-0.6c0-0.2,0.1-0.4,0.2-0.6l1.3-3.5c0-0.1,0.1-0.2,0.2-0.2
			c0.1-0.1,0.2-0.1,0.3-0.1h1.2L-229.1,279.9z"/>
		<path class="st10" d="M-223.1,273.3c0.4,0,0.8,0.1,1.1,0.2c0.3,0.1,0.6,0.3,0.9,0.6c0.3,0.3,0.5,0.6,0.6,0.9
			c0.1,0.4,0.2,0.8,0.2,1.3c0,0.1,0,0.2,0,0.3c0,0.1,0,0.1-0.1,0.2c0,0-0.1,0.1-0.1,0.1c-0.1,0-0.1,0-0.2,0h-4
			c0,0.5,0.2,1.1,0.5,1.5c0.3,0.3,0.8,0.5,1.3,0.5c0.2,0,0.4,0,0.7-0.1c0.2-0.1,0.3-0.1,0.5-0.2l0.4-0.2c0.1-0.1,0.2-0.1,0.3-0.1
			c0.1,0,0.2,0.1,0.3,0.1l0.5,0.6c-0.2,0.2-0.4,0.4-0.6,0.5c-0.2,0.1-0.4,0.2-0.7,0.3c-0.2,0.1-0.5,0.1-0.7,0.2
			c-0.2,0-0.5,0.1-0.7,0.1c-0.4,0-0.9-0.1-1.3-0.2c-0.4-0.1-0.7-0.4-1-0.7c-0.3-0.3-0.6-0.7-0.7-1.1c-0.2-0.5-0.3-1-0.3-1.5
			c0-0.4,0.1-0.9,0.3-1.3c0.1-0.4,0.4-0.7,0.6-1c0.3-0.3,0.6-0.5,1-0.7C-224,273.4-223.5,273.3-223.1,273.3z M-223.1,274.4
			c-0.4,0-0.8,0.1-1.1,0.4c-0.3,0.3-0.5,0.7-0.5,1.1h3c0-0.2,0-0.4-0.1-0.6c-0.1-0.4-0.3-0.7-0.7-0.8
			C-222.6,274.4-222.9,274.4-223.1,274.4L-223.1,274.4z"/>
		<path class="st10" d="M-216.9,280c-0.5,0-1-0.1-1.3-0.5c-0.3-0.4-0.5-0.8-0.5-1.3v-3.6h-0.7c-0.2,0-0.3-0.1-0.3-0.3c0,0,0,0,0-0.1
			v-0.6l1-0.2l0.3-1.8c0-0.1,0-0.2,0.1-0.2c0.1,0,0.2-0.1,0.2-0.1h0.9v2.1h1.7v1.1h-1.7v3.5c0,0.2,0,0.3,0.1,0.5
			c0.1,0.1,0.3,0.2,0.4,0.2c0.1,0,0.2,0,0.3,0l0.2-0.1l0.1-0.1h0.1c0,0,0.1,0,0.1,0c0,0,0.1,0.1,0.1,0.1l0.5,0.8
			c-0.2,0.2-0.5,0.3-0.8,0.4C-216.2,280-216.5,280-216.9,280z"/>
		<path class="st10" d="M-211.4,273.3c0.4,0,0.8,0.1,1.1,0.2c0.3,0.1,0.6,0.3,0.9,0.6c0.3,0.3,0.5,0.6,0.6,0.9
			c0.1,0.4,0.2,0.8,0.2,1.3c0,0.1,0,0.2,0,0.3c0,0.1,0,0.1-0.1,0.2c0,0-0.1,0.1-0.1,0.1c-0.1,0-0.1,0-0.2,0h-4
			c0,0.5,0.2,1.1,0.5,1.5c0.3,0.3,0.8,0.5,1.3,0.5c0.2,0,0.4,0,0.7-0.1c0.2-0.1,0.3-0.1,0.5-0.2l0.4-0.2c0.1-0.1,0.2-0.1,0.3-0.1
			c0.1,0,0.2,0.1,0.3,0.1l0.5,0.6c-0.2,0.2-0.4,0.4-0.6,0.5c-0.2,0.1-0.4,0.2-0.7,0.3c-0.2,0.1-0.5,0.1-0.7,0.2c-0.2,0-0.5,0-0.7,0
			c-0.4,0-0.9-0.1-1.3-0.2c-0.4-0.1-0.7-0.4-1-0.7c-0.3-0.3-0.6-0.6-0.8-1c-0.2-0.5-0.3-1-0.3-1.5c0-0.4,0.1-0.9,0.2-1.3
			c0.1-0.4,0.3-0.7,0.6-1c0.3-0.3,0.6-0.5,1-0.7C-212.3,273.4-211.8,273.3-211.4,273.3z M-211.4,274.4c-0.4,0-0.8,0.1-1.1,0.4
			c-0.3,0.3-0.5,0.7-0.5,1.1h3c0-0.2,0-0.4-0.1-0.6c-0.1-0.2-0.1-0.3-0.3-0.5c-0.1-0.1-0.3-0.2-0.4-0.3
			C-210.9,274.4-211.1,274.4-211.4,274.4L-211.4,274.4z"/>
		<path class="st10" d="M-203.4,273.4v4.2c0,0.3,0.1,0.7,0.3,0.9c0.2,0.2,0.5,0.3,0.8,0.3c0.3,0,0.5-0.1,0.8-0.2
			c0.3-0.1,0.5-0.3,0.7-0.5v-4.7h1.6v6.5h-1c-0.2,0-0.4-0.1-0.4-0.3l-0.1-0.5c-0.1,0.1-0.3,0.3-0.4,0.4c-0.1,0.1-0.3,0.2-0.5,0.3
			c-0.2,0.1-0.3,0.1-0.5,0.2c-0.2,0-0.4,0.1-0.6,0.1c-0.3,0-0.6-0.1-0.9-0.2c-0.3-0.1-0.5-0.3-0.7-0.5c-0.2-0.2-0.3-0.5-0.4-0.8
			c-0.1-0.3-0.1-0.7-0.1-1v-4.2H-203.4z"/>
		<path class="st10" d="M-197.6,279.9v-6.5h1c0.2,0,0.4,0.1,0.4,0.3l0.1,0.5c0.1-0.1,0.3-0.3,0.4-0.4c0.1-0.1,0.3-0.2,0.5-0.3
			c0.2-0.1,0.3-0.1,0.5-0.2c0.2,0,0.4-0.1,0.6-0.1c0.3,0,0.7,0,1,0.2c0.3,0.1,0.5,0.3,0.7,0.5c0.2,0.2,0.3,0.5,0.4,0.8
			c0.1,0.3,0.1,0.7,0.1,1v4.2h-1.7v-4.2c0-0.3-0.1-0.7-0.3-0.9c-0.2-0.2-0.5-0.4-0.8-0.3c-0.3,0-0.5,0.1-0.8,0.2
			c-0.3,0.1-0.5,0.3-0.7,0.5v4.7H-197.6z"/>
		<path class="st12" d="M-247,289.2c0,0.5,0,0.9-0.1,1.4c-0.1,0.4-0.2,0.9-0.4,1.3c-0.2,0.4-0.4,0.8-0.7,1.1c-0.3,0.3-0.6,0.6-1,0.9
			l2.9,3.2h-2.2c-0.3,0-0.6,0-0.8-0.1c-0.3-0.1-0.5-0.2-0.7-0.5l-1.4-1.6c-0.2,0-0.5,0.1-0.7,0.1s-0.5,0-0.7,0
			c-0.8,0-1.6-0.1-2.4-0.4c-0.7-0.3-1.3-0.7-1.9-1.2c-0.5-0.5-0.9-1.1-1.2-1.8c-0.6-1.5-0.6-3.1,0-4.5c0.3-0.7,0.7-1.3,1.2-1.8
			c0.5-0.5,1.2-0.9,1.9-1.2c0.8-0.3,1.6-0.4,2.4-0.4c0.8,0,1.6,0.1,2.4,0.5c1.4,0.5,2.5,1.6,3,3C-247.2,287.6-247,288.4-247,289.2z
			 M-249.7,289.2c0-0.5-0.1-1-0.2-1.5c-0.1-0.4-0.3-0.8-0.6-1.1c-0.3-0.3-0.6-0.5-1-0.7c-0.9-0.3-1.8-0.3-2.7,0
			c-0.4,0.2-0.7,0.4-1,0.7c-0.3,0.3-0.5,0.7-0.6,1.1c-0.1,0.5-0.2,1-0.2,1.5c0,0.5,0.1,1,0.2,1.5c0.1,0.4,0.3,0.8,0.6,1.1
			c0.3,0.3,0.6,0.6,1,0.7c0.9,0.3,1.8,0.3,2.7,0c0.4-0.2,0.7-0.4,1-0.7c0.3-0.3,0.5-0.7,0.6-1.1
			C-249.8,290.2-249.7,289.7-249.7,289.2L-249.7,289.2z"/>
		<path class="st12" d="M-243.6,286.8v5.1c0,0.3,0.1,0.7,0.3,0.9c0.2,0.2,0.5,0.3,0.8,0.3c0.3,0,0.5-0.1,0.7-0.2
			c0.2-0.1,0.5-0.3,0.7-0.5v-5.7h2.4v8h-1.5c-0.3,0-0.5-0.1-0.6-0.4l-0.1-0.4c-0.1,0.1-0.3,0.3-0.5,0.4c-0.2,0.1-0.3,0.2-0.5,0.3
			c-0.2,0.1-0.4,0.2-0.6,0.2c-0.2,0.1-0.5,0.1-0.7,0.1c-0.4,0-0.8-0.1-1.2-0.2c-0.3-0.1-0.6-0.4-0.9-0.6c-0.2-0.3-0.4-0.6-0.5-1
			c-0.1-0.4-0.2-0.8-0.2-1.2v-5.1H-243.6z"/>
		<path class="st12" d="M-234,284.6c0,0.2,0,0.4-0.1,0.5c-0.1,0.2-0.2,0.3-0.3,0.4c-0.1,0.1-0.3,0.2-0.5,0.3
			c-0.2,0.1-0.4,0.1-0.6,0.1c-0.2,0-0.4,0-0.5-0.1c-0.2-0.1-0.3-0.2-0.5-0.3c-0.1-0.1-0.2-0.3-0.3-0.4c-0.1-0.3-0.1-0.7,0-1.1
			c0.1-0.2,0.2-0.3,0.3-0.4c0.1-0.1,0.3-0.2,0.5-0.3c0.2-0.1,0.4-0.1,0.5-0.1c0.2,0,0.4,0,0.6,0.1c0.2,0.1,0.3,0.2,0.5,0.3
			c0.1,0.1,0.2,0.3,0.3,0.4C-234,284.2-234,284.4-234,284.6z M-234.3,286.8v8h-2.4v-8H-234.3z"/>
		<path class="st12" d="M-230,283.2v6.5h0.4c0.1,0,0.2,0,0.3-0.1c0.1-0.1,0.2-0.1,0.2-0.2l1.5-2.3c0.1-0.1,0.2-0.2,0.3-0.3
			c0.1-0.1,0.3-0.1,0.5-0.1h2.2l-2.1,2.9c-0.1,0.1-0.2,0.2-0.4,0.3c-0.1,0.1-0.2,0.2-0.4,0.3c0.2,0.2,0.4,0.4,0.6,0.7l2.3,3.8h-2.1
			c-0.2,0-0.3,0-0.5-0.1c-0.1-0.1-0.3-0.2-0.3-0.3l-1.5-2.8c-0.1-0.1-0.1-0.2-0.2-0.3c-0.1,0-0.2,0-0.4,0h-0.5v3.5h-2.4v-11.6H-230z
			"/>
		<path class="st12" d="M-220.5,286.7c0.5,0,1,0.1,1.5,0.3c0.4,0.2,0.8,0.4,1.1,0.7c0.3,0.3,0.6,0.7,0.7,1.2c0.2,0.5,0.3,1,0.3,1.6
			c0,0.1,0,0.3,0,0.4c0,0.1,0,0.2-0.1,0.3c0,0.1-0.1,0.1-0.2,0.1c-0.1,0-0.2,0-0.3,0h-4.7c0,0.5,0.2,1.1,0.6,1.5
			c0.4,0.3,0.8,0.5,1.3,0.5c0.2,0,0.5,0,0.7-0.1c0.2-0.1,0.4-0.1,0.5-0.2l0.4-0.2c0.1-0.1,0.3-0.1,0.4-0.1c0.2,0,0.3,0.1,0.4,0.2
			l0.7,0.9c-0.2,0.3-0.5,0.5-0.8,0.7c-0.3,0.2-0.6,0.3-0.9,0.4c-0.3,0.1-0.6,0.2-0.9,0.2c-0.3,0-0.6,0.1-0.9,0.1
			c-0.6,0-1.1-0.1-1.6-0.2c-0.5-0.2-0.9-0.5-1.3-0.8c-0.4-0.4-0.7-0.8-0.9-1.3c-0.2-0.6-0.3-1.2-0.3-1.9c0-0.5,0.1-1,0.3-1.5
			c0.4-0.9,1.1-1.7,2-2.1C-221.7,286.8-221.1,286.7-220.5,286.7z M-220.5,288.3c-0.4,0-0.8,0.1-1.1,0.4c-0.3,0.3-0.4,0.7-0.4,1.1h3
			c0-0.2,0-0.4-0.1-0.6c0-0.2-0.1-0.3-0.2-0.5c-0.1-0.1-0.3-0.3-0.4-0.4C-220,288.4-220.2,288.3-220.5,288.3L-220.5,288.3z"/>
		<path class="st12" d="M-215.5,294.8v-8h1.4c0.1,0,0.2,0,0.3,0c0.1,0,0.1,0,0.2,0.1c0.1,0,0.1,0.1,0.1,0.2c0,0.1,0.1,0.2,0.1,0.3
			l0.1,0.8c0.3-0.4,0.6-0.8,1-1.1c0.3-0.3,0.8-0.4,1.2-0.4c0.3,0,0.6,0.1,0.9,0.3l-0.3,1.8c0,0.1-0.1,0.2-0.1,0.2
			c-0.1,0.1-0.2,0.1-0.2,0.1c-0.1,0-0.2,0-0.3,0c-0.1,0-0.3,0-0.4,0c-0.7,0-1.2,0.4-1.5,1v4.9L-215.5,294.8z"/>
		<path class="st10" d="M-256.9,306.8c0,0.1,0,0.1-0.1,0.2c-0.1,0-0.1,0.1-0.2,0.1h-0.6l0.9-2l-2.1-4.8h0.8c0.1,0,0.1,0,0.2,0.1
			c0,0,0.1,0.1,0.1,0.1l1.4,3.2c0,0.1,0.1,0.1,0.1,0.2c0,0.1,0,0.2,0.1,0.2c0-0.1,0-0.1,0.1-0.2c0.1-0.1,0.1-0.1,0.1-0.2l1.3-3.2
			c0-0.1,0.1-0.1,0.1-0.1c0,0,0.1-0.1,0.2-0.1h0.7L-256.9,306.8z"/>
		<path class="st10" d="M-249.3,300.2c0.3,0,0.7,0.1,1,0.2c0.3,0.1,0.5,0.3,0.8,0.5c0.2,0.2,0.4,0.5,0.5,0.8c0.2,0.7,0.2,1.5,0,2.1
			c-0.1,0.3-0.3,0.6-0.5,0.8c-0.2,0.2-0.5,0.4-0.8,0.5c-0.6,0.2-1.4,0.2-2,0c-0.3-0.1-0.5-0.3-0.8-0.5c-0.2-0.2-0.4-0.5-0.5-0.8
			c-0.2-0.7-0.2-1.5,0-2.1c0.1-0.3,0.3-0.6,0.5-0.8c0.2-0.2,0.5-0.4,0.8-0.5C-250,300.3-249.7,300.2-249.3,300.2z M-249.3,304.7
			c0.4,0,0.8-0.2,1.1-0.5c0.3-0.4,0.4-0.9,0.4-1.4c0-0.5-0.1-1-0.4-1.4c-0.3-0.3-0.7-0.5-1.1-0.5c-0.2,0-0.5,0-0.7,0.1
			c-0.2,0.1-0.3,0.2-0.5,0.4c-0.1,0.2-0.2,0.4-0.3,0.6c-0.1,0.3-0.1,0.5-0.1,0.8c0,0.3,0,0.5,0.1,0.8c0.1,0.2,0.1,0.4,0.3,0.6
			c0.1,0.2,0.3,0.3,0.5,0.4C-249.8,304.7-249.6,304.7-249.3,304.7z"/>
		<path class="st10" d="M-245.6,305.4v-4.3l-0.6-0.1c-0.1,0-0.1,0-0.2-0.1c0,0-0.1-0.1-0.1-0.1v-0.4h0.8v-0.5c0-0.3,0-0.5,0.1-0.8
			c0.1-0.4,0.5-0.8,0.9-0.9c0.2-0.1,0.5-0.1,0.7-0.1c0.2,0,0.4,0,0.6,0.1v0.4c0,0.1,0,0.1-0.1,0.1h-0.2h-0.2c-0.1,0-0.3,0-0.4,0.1
			c-0.1,0-0.2,0.1-0.3,0.2c-0.1,0.1-0.2,0.2-0.2,0.4c-0.1,0.2-0.1,0.4-0.1,0.5v0.5h1.5v0.6h-1.4v4.3L-245.6,305.4z"/>
		<path class="st10" d="M-242.5,305.4v-5.1h0.5c0.1,0,0.1,0,0.2,0.1c0,0.1,0.1,0.1,0.1,0.2l0.1,0.8c0.2-0.3,0.4-0.6,0.6-0.8
			c0.3-0.2,0.6-0.3,0.9-0.3c0.1,0,0.3,0,0.4,0c0.1,0,0.2,0.1,0.3,0.1l-0.1,0.7c0,0.1-0.1,0.1-0.2,0.1c-0.1,0-0.1,0-0.2,0
			c-0.1,0-0.3-0.1-0.4,0c-0.3,0-0.6,0.1-0.8,0.3c-0.2,0.2-0.4,0.5-0.5,0.8v3.2H-242.5z"/>
		<path class="st10" d="M-236.5,300.2c0.3,0,0.6,0,0.8,0.2c0.2,0.1,0.5,0.2,0.7,0.4c0.2,0.2,0.3,0.4,0.4,0.7c0.1,0.3,0.2,0.7,0.2,1
			c0,0.1,0,0.2-0.1,0.3c0,0-0.1,0.1-0.2,0.1h-3.4c0,0.3,0,0.6,0.1,0.8c0.1,0.2,0.2,0.4,0.3,0.6c0.1,0.2,0.3,0.3,0.5,0.4
			c0.2,0.1,0.4,0.1,0.6,0.1c0.2,0,0.4,0,0.6-0.1c0.1,0,0.3-0.1,0.4-0.2c0.1-0.1,0.2-0.1,0.3-0.2c0.1,0,0.1-0.1,0.2-0.1
			c0.1,0,0.1,0,0.2,0.1l0.3,0.3c-0.1,0.1-0.2,0.3-0.4,0.4c-0.2,0.1-0.3,0.2-0.5,0.2c-0.2,0.1-0.4,0.1-0.5,0.1c-0.2,0-0.4,0-0.6,0
			c-0.3,0-0.7-0.1-1-0.2c-0.3-0.1-0.5-0.3-0.8-0.5c-0.2-0.2-0.4-0.5-0.5-0.8c-0.1-0.4-0.2-0.8-0.2-1.2c0-0.3,0-0.7,0.2-1
			c0.1-0.3,0.3-0.6,0.5-0.8c0.2-0.2,0.5-0.4,0.7-0.5C-237.2,300.3-236.8,300.2-236.5,300.2z M-236.5,300.9c-0.4,0-0.7,0.1-1,0.4
			c-0.3,0.3-0.4,0.6-0.5,1h2.8c0-0.2,0-0.4-0.1-0.6c0-0.2-0.1-0.3-0.2-0.4c-0.1-0.1-0.3-0.2-0.4-0.3
			C-236.1,300.9-236.3,300.9-236.5,300.9L-236.5,300.9z"/>
		<path class="st10" d="M-229.8,301.2L-229.8,301.2c-0.1,0.1-0.2,0.1-0.2,0.1c-0.1,0-0.1,0-0.2-0.1l-0.2-0.1
			c-0.1-0.1-0.2-0.1-0.3-0.1c-0.2,0-0.3-0.1-0.5-0.1c-0.2,0-0.4,0-0.6,0.1c-0.2,0.1-0.3,0.2-0.5,0.4c-0.1,0.2-0.2,0.4-0.3,0.6
			c-0.1,0.3-0.1,0.5-0.1,0.8c0,0.3,0,0.6,0.1,0.8c0.1,0.2,0.2,0.4,0.3,0.6c0.1,0.2,0.3,0.3,0.5,0.4c0.2,0.1,0.4,0.1,0.6,0.1
			c0.2,0,0.4,0,0.5-0.1c0.1,0,0.2-0.1,0.3-0.2l0.2-0.2c0,0,0.1-0.1,0.2-0.1c0.1,0,0.1,0,0.2,0.1l0.3,0.3c-0.2,0.3-0.5,0.5-0.8,0.6
			c-0.3,0.1-0.7,0.2-1,0.2c-0.3,0-0.6-0.1-0.9-0.2c-0.3-0.1-0.5-0.3-0.7-0.5c-0.2-0.2-0.4-0.5-0.5-0.8c-0.1-0.4-0.2-0.7-0.2-1.1
			c0-0.3,0.1-0.7,0.1-1c0.1-0.3,0.3-0.6,0.5-0.8c0.2-0.2,0.5-0.4,0.8-0.5c0.3-0.1,0.7-0.2,1-0.2c0.3,0,0.6,0.1,0.9,0.2
			c0.3,0.1,0.5,0.3,0.7,0.5L-229.8,301.2z"/>
		<path class="st10" d="M-226.6,300.2c0.3,0,0.6,0,0.8,0.2c0.2,0.1,0.5,0.2,0.7,0.4c0.2,0.2,0.3,0.4,0.4,0.7c0.1,0.3,0.2,0.7,0.2,1
			c0,0.1,0,0.2,0,0.3c0,0-0.1,0.1-0.2,0.1h-3.4c0,0.3,0,0.6,0.1,0.8c0.1,0.2,0.2,0.4,0.3,0.6c0.1,0.2,0.3,0.3,0.5,0.4
			c0.2,0.1,0.4,0.1,0.6,0.1c0.2,0,0.4,0,0.6-0.1c0.1,0,0.3-0.1,0.4-0.2c0.1-0.1,0.2-0.1,0.3-0.2c0.1,0,0.1-0.1,0.2-0.1
			c0.1,0,0.1,0,0.2,0.1l0.3,0.3c-0.1,0.1-0.3,0.2-0.4,0.3c-0.2,0.1-0.3,0.2-0.5,0.2c-0.2,0.1-0.4,0.1-0.5,0.1c-0.2,0-0.4,0-0.6,0
			c-0.3,0-0.7-0.1-1-0.2c-0.3-0.1-0.5-0.3-0.8-0.5c-0.2-0.2-0.4-0.5-0.5-0.8c-0.1-0.4-0.2-0.8-0.2-1.2c0-0.3,0-0.7,0.2-1
			c0.1-0.3,0.3-0.6,0.5-0.8c0.2-0.2,0.5-0.4,0.7-0.5C-227.3,300.3-227,300.2-226.6,300.2z M-226.6,300.9c-0.4,0-0.7,0.1-1,0.4
			c-0.3,0.3-0.4,0.6-0.5,1h2.7c0-0.2,0-0.4-0.1-0.6c-0.1-0.2-0.1-0.3-0.3-0.4c-0.1-0.1-0.2-0.2-0.4-0.2
			C-226.2,300.9-226.4,300.9-226.6,300.9L-226.6,300.9z"/>
		<path class="st10" d="M-219.9,305.4c-0.3,0-0.7-0.1-0.9-0.3c-0.2-0.3-0.4-0.6-0.3-1V301h-0.6c0,0-0.1,0-0.1,0c0,0-0.1-0.1-0.1-0.1
			v-0.4l0.8-0.1l0.2-1.6c0,0,0-0.1,0.1-0.1c0,0,0.1-0.1,0.1,0h0.5v1.7h1.4v0.6h-1.4v3c0,0.2,0,0.3,0.2,0.5c0.1,0.1,0.3,0.2,0.4,0.1
			c0.1,0,0.2,0,0.2,0c0.1,0,0.1,0,0.2-0.1l0.1-0.1c0,0,0.1,0,0.1,0c0,0,0.1,0,0.1,0.1l0.3,0.4c-0.2,0.1-0.3,0.3-0.6,0.3
			C-219.5,305.4-219.7,305.4-219.9,305.4z"/>
		<path class="st10" d="M-217,300.3v3.2c0,0.3,0.1,0.6,0.3,0.9c0.2,0.2,0.5,0.3,0.8,0.3c0.3,0,0.5-0.1,0.7-0.2
			c0.2-0.1,0.5-0.3,0.6-0.5v-3.7h0.9v5.1h-0.5c-0.1,0-0.2-0.1-0.2-0.2l-0.1-0.5c-0.2,0.2-0.5,0.4-0.7,0.6c-0.3,0.1-0.6,0.2-0.9,0.2
			c-0.3,0-0.5,0-0.7-0.1c-0.2-0.1-0.4-0.2-0.5-0.4c-0.2-0.2-0.3-0.4-0.3-0.6c-0.1-0.3-0.1-0.5-0.1-0.8v-3.2H-217z"/>
		<path class="st10" d="M-209.3,301.1c0,0.1-0.1,0.1-0.2,0.1c-0.1,0-0.1,0-0.2,0l-0.2-0.1c-0.1-0.1-0.2-0.1-0.3-0.1
			c-0.1,0-0.3,0-0.4,0c-0.1,0-0.3,0-0.4,0c-0.1,0-0.2,0.1-0.3,0.2c-0.1,0.1-0.1,0.1-0.2,0.2c0,0.1-0.1,0.2-0.1,0.3
			c0,0.1,0,0.2,0.1,0.3c0.1,0.1,0.2,0.2,0.3,0.2c0.1,0.1,0.3,0.1,0.4,0.2l0.5,0.2c0.2,0,0.3,0.1,0.5,0.2c0.2,0.1,0.3,0.1,0.4,0.3
			c0.1,0.1,0.2,0.2,0.3,0.4c0.1,0.2,0.1,0.3,0.1,0.5c0,0.2,0,0.4-0.1,0.7c-0.1,0.2-0.2,0.4-0.4,0.5c-0.2,0.2-0.4,0.3-0.6,0.3
			c-0.3,0.1-0.5,0.1-0.8,0.1c-0.3,0-0.7-0.1-1-0.2c-0.3-0.1-0.5-0.3-0.7-0.4l0.2-0.3c0,0,0-0.1,0.1-0.1c0,0,0.1,0,0.1,0
			c0.1,0,0.1,0,0.2,0.1l0.3,0.2c0.1,0.1,0.2,0.1,0.3,0.1c0.2,0.1,0.3,0.1,0.5,0.1c0.2,0,0.3,0,0.5-0.1c0.1,0,0.2-0.1,0.3-0.2
			c0.1-0.1,0.2-0.2,0.2-0.3c0-0.1,0.1-0.2,0.1-0.3c0-0.1,0-0.3-0.1-0.3c-0.1-0.1-0.2-0.2-0.3-0.2c-0.1-0.1-0.3-0.1-0.4-0.2l-0.5-0.1
			l-0.5-0.2c-0.2-0.1-0.3-0.2-0.4-0.3c-0.1-0.1-0.2-0.2-0.3-0.4c-0.1-0.2-0.1-0.4-0.1-0.6c0-0.2,0-0.4,0.1-0.6
			c0.1-0.2,0.2-0.3,0.3-0.5c0.2-0.1,0.4-0.2,0.6-0.3c0.2-0.1,0.5-0.1,0.8-0.1c0.3,0,0.6,0.1,0.9,0.2c0.3,0.1,0.5,0.2,0.7,0.4
			L-209.3,301.1z"/>
		<path class="st10" d="M-255.5,311.6c0,0.1-0.1,0.1-0.2,0.1c-0.1,0-0.1,0-0.2,0l-0.2-0.1l-0.3-0.1c-0.1,0-0.3-0.1-0.4-0.1
			c-0.1,0-0.3,0-0.4,0.1c-0.1,0-0.2,0.1-0.3,0.2c-0.1,0.1-0.1,0.1-0.2,0.2c0,0.1-0.1,0.2-0.1,0.3c0,0.1,0,0.2,0.1,0.3
			c0.1,0.1,0.2,0.2,0.3,0.2c0.1,0.1,0.3,0.1,0.4,0.2l0.5,0.1l0.5,0.2c0.1,0.1,0.3,0.1,0.4,0.3c0.1,0.1,0.2,0.2,0.3,0.4
			c0.1,0.2,0.1,0.3,0.1,0.5c0,0.2,0,0.4-0.1,0.6c-0.1,0.2-0.2,0.4-0.4,0.5c-0.2,0.2-0.4,0.3-0.6,0.3c-0.3,0.1-0.5,0.1-0.8,0.1
			c-0.3,0-0.7,0-1-0.2c-0.3-0.1-0.5-0.3-0.7-0.4l0.2-0.3l0.1-0.1c0,0,0.1,0,0.1,0c0.1,0,0.1,0,0.2,0.1l0.2,0.1
			c0.1,0.1,0.2,0.1,0.4,0.2c0.2,0,0.3,0.1,0.5,0.1c0.2,0,0.3,0,0.5-0.1c0.1,0,0.2-0.1,0.3-0.2c0.1-0.1,0.1-0.2,0.2-0.3
			c0-0.1,0.1-0.2,0.1-0.3c0-0.1,0-0.2-0.1-0.3c-0.1-0.1-0.2-0.2-0.3-0.2c-0.1-0.1-0.3-0.1-0.4-0.2l-0.5-0.2
			c-0.2-0.1-0.3-0.1-0.5-0.2c-0.2-0.1-0.3-0.2-0.4-0.3c-0.1-0.1-0.2-0.2-0.3-0.4c-0.1-0.2-0.1-0.4-0.1-0.6c0-0.2,0-0.4,0.1-0.5
			c0.1-0.2,0.2-0.3,0.4-0.5c0.2-0.1,0.4-0.3,0.6-0.3c0.2-0.1,0.5-0.1,0.8-0.1c0.3,0,0.6,0,0.9,0.2c0.3,0.1,0.5,0.2,0.7,0.4
			L-255.5,311.6z"/>
		<path class="st10" d="M-252.1,310.7c0.3,0,0.6,0,0.8,0.2c0.3,0.1,0.5,0.2,0.7,0.4c0.2,0.2,0.3,0.4,0.4,0.7c0.1,0.3,0.1,0.6,0.1,1
			c0,0.1,0,0.2-0.1,0.3c0,0.1-0.1,0.1-0.2,0.1h-3.3c0,0.3,0,0.6,0.1,0.8c0.1,0.2,0.2,0.4,0.3,0.6c0.1,0.2,0.3,0.3,0.5,0.4
			c0.2,0.1,0.4,0.1,0.7,0.1c0.2,0,0.4,0,0.6-0.1c0.1,0,0.3-0.1,0.4-0.2l0.3-0.2c0.1,0,0.1-0.1,0.2-0.1c0.1,0,0.1,0,0.2,0.1l0.3,0.3
			c-0.1,0.1-0.2,0.2-0.4,0.3c-0.2,0.1-0.3,0.2-0.5,0.3c-0.2,0.1-0.4,0.1-0.5,0.1c-0.2,0-0.4,0-0.6,0c-0.3,0-0.7,0-1-0.2
			c-0.3-0.1-0.5-0.3-0.8-0.5c-0.2-0.2-0.4-0.5-0.5-0.8c-0.1-0.4-0.2-0.8-0.2-1.2c0-0.3,0-0.7,0.2-1c0.1-0.3,0.3-0.6,0.5-0.8
			c0.2-0.2,0.5-0.4,0.7-0.5C-252.8,310.8-252.4,310.7-252.1,310.7z M-252.1,311.4c-0.4,0-0.7,0.1-1,0.4c-0.3,0.3-0.4,0.6-0.5,1h2.8
			c0-0.2,0-0.4-0.1-0.6c0-0.2-0.1-0.3-0.2-0.5c-0.1-0.1-0.3-0.2-0.4-0.3C-251.7,311.4-251.9,311.4-252.1,311.4L-252.1,311.4z"/>
		<path class="st10" d="M-248.9,315.9v-5h0.5c0.1,0,0.1,0,0.2,0c0,0.1,0.1,0.1,0.1,0.2l0.1,0.8c0.1-0.3,0.4-0.6,0.6-0.8
			c0.3-0.2,0.6-0.3,0.9-0.3c0.1,0,0.3,0,0.4,0c0.1,0,0.2,0.1,0.3,0.1l-0.1,0.7c0,0.1-0.1,0.1-0.1,0.1c-0.1,0-0.1,0-0.2,0
			c-0.1,0-0.3,0-0.4,0c-0.3,0-0.6,0.1-0.8,0.3c-0.2,0.2-0.4,0.5-0.5,0.8v3.2L-248.9,315.9z"/>
		<path class="st10" d="M-245.5,310.8h0.7c0.1,0,0.1,0,0.2,0c0,0,0.1,0.1,0.1,0.1l1.3,3.3c0.1,0.1,0.1,0.2,0.1,0.4
			c0,0.1,0.1,0.2,0.1,0.4c0-0.1,0.1-0.2,0.1-0.4c0-0.1,0.1-0.2,0.1-0.4l1.3-3.2c0,0,0.1-0.1,0.1-0.1c0.1,0,0.1,0,0.2,0h0.7l-2.1,5
			h-0.8L-245.5,310.8z"/>
		<path class="st10" d="M-238.6,309.2c0,0.1,0,0.2-0.1,0.3c0,0.1-0.1,0.1-0.1,0.2c-0.1,0.1-0.1,0.1-0.2,0.1c-0.2,0.1-0.3,0.1-0.5,0
			c-0.1,0-0.1-0.1-0.2-0.1c-0.1-0.1-0.1-0.1-0.1-0.2c0-0.1,0-0.2,0-0.3c0-0.1,0-0.2,0-0.2c0-0.1,0.1-0.2,0.1-0.2
			c0.1-0.1,0.1-0.1,0.2-0.1c0.2-0.1,0.3-0.1,0.5,0c0.1,0,0.1,0.1,0.2,0.1c0.1,0.1,0.1,0.1,0.1,0.2
			C-238.6,309.1-238.6,309.1-238.6,309.2z M-238.8,310.8v5h-0.9v-5H-238.8z"/>
		<path class="st10" d="M-233.8,311.7C-233.8,311.7-233.8,311.8-233.8,311.7c-0.1,0.1-0.2,0.1-0.2,0.1c-0.1,0-0.1,0-0.2-0.1
			l-0.2-0.1c-0.1-0.1-0.2-0.1-0.3-0.1c-0.4-0.1-0.8-0.1-1.1,0.1c-0.2,0.1-0.4,0.2-0.5,0.4c-0.1,0.2-0.2,0.4-0.3,0.6
			c-0.1,0.3-0.1,0.5-0.1,0.8c0,0.3,0,0.5,0.1,0.8c0.1,0.2,0.2,0.4,0.3,0.6c0.1,0.2,0.3,0.3,0.5,0.4c0.2,0.1,0.4,0.1,0.6,0.1
			c0.2,0,0.4,0,0.5-0.1c0.1,0,0.2-0.1,0.4-0.2l0.2-0.2c0-0.1,0.1-0.1,0.2-0.1c0.1,0,0.1,0,0.2,0.1l0.3,0.3c-0.2,0.3-0.5,0.5-0.8,0.6
			c-0.3,0.1-0.7,0.2-1,0.2c-0.3,0-0.6-0.1-0.9-0.2c-0.3-0.1-0.5-0.3-0.7-0.5c-0.2-0.2-0.4-0.5-0.5-0.8c-0.1-0.4-0.2-0.7-0.2-1.1
			c0-0.3,0.1-0.7,0.2-1c0.1-0.3,0.3-0.6,0.5-0.8c0.2-0.2,0.5-0.4,0.7-0.5c0.6-0.3,1.4-0.3,2,0c0.3,0.1,0.5,0.3,0.7,0.5L-233.8,311.7
			z"/>
		<path class="st10" d="M-231.4,309.2c0,0.1,0,0.2,0,0.3c0,0.1-0.1,0.1-0.1,0.2c-0.1,0.1-0.1,0.1-0.2,0.1c-0.1,0-0.2,0-0.3,0
			c-0.1,0-0.2,0-0.2,0c-0.1,0-0.1-0.1-0.2-0.1c-0.1-0.1-0.1-0.1-0.1-0.2c0-0.1,0-0.2,0-0.3c0-0.1,0-0.2,0-0.2c0-0.1,0.1-0.1,0.1-0.2
			c0.1-0.1,0.1-0.1,0.2-0.1c0.1,0,0.2,0,0.2,0c0.1,0,0.2,0,0.3,0c0.1,0,0.1,0.1,0.2,0.1c0.1,0.1,0.1,0.1,0.1,0.2
			C-231.3,309.1-231.3,309.2-231.4,309.2z M-231.6,310.8v5h-0.9v-5H-231.6z"/>
		<path class="st10" d="M-227.9,310.7c0.3,0,0.7,0.1,1,0.2c0.3,0.1,0.5,0.3,0.8,0.5c0.2,0.2,0.4,0.5,0.5,0.8
			c0.1,0.3,0.2,0.7,0.2,1.1c0,0.4-0.1,0.7-0.2,1.1c-0.1,0.3-0.3,0.6-0.5,0.8c-0.2,0.2-0.5,0.4-0.8,0.5c-0.6,0.2-1.4,0.2-2,0
			c-0.3-0.1-0.6-0.3-0.8-0.5c-0.2-0.2-0.4-0.5-0.5-0.8c-0.1-0.3-0.2-0.7-0.2-1.1c0-0.4,0-0.7,0.2-1.1c0.1-0.3,0.3-0.6,0.5-0.8
			c0.2-0.2,0.5-0.4,0.8-0.5C-228.6,310.8-228.3,310.7-227.9,310.7z M-227.9,315.2c0.4,0,0.8-0.2,1.1-0.5c0.5-0.9,0.5-1.9,0-2.8
			c-0.3-0.3-0.7-0.5-1.1-0.5c-0.2,0-0.5,0-0.7,0.1c-0.2,0.1-0.3,0.2-0.5,0.4c-0.1,0.2-0.2,0.4-0.3,0.6c-0.1,0.3-0.1,0.5-0.1,0.8
			c0,0.3,0,0.5,0.1,0.8c0.1,0.2,0.2,0.4,0.3,0.6c0.1,0.2,0.3,0.3,0.5,0.4C-228.4,315.2-228.2,315.2-227.9,315.2z"/>
		<path class="st10" d="M-221.6,311.6c0,0.1-0.1,0.1-0.2,0.1c-0.1,0-0.1,0-0.2,0l-0.2-0.1l-0.3-0.1c-0.1,0-0.3-0.1-0.4-0.1
			c-0.1,0-0.3,0-0.4,0.1c-0.1,0-0.2,0.1-0.3,0.2c-0.1,0.1-0.1,0.1-0.2,0.2c0,0.1-0.1,0.2-0.1,0.3c0,0.1,0,0.2,0.1,0.3
			c0.1,0.1,0.2,0.2,0.3,0.2c0.1,0.1,0.3,0.1,0.4,0.2l0.5,0.1l0.5,0.2c0.1,0.1,0.3,0.1,0.4,0.3c0.1,0.1,0.2,0.2,0.3,0.4
			c0.1,0.2,0.1,0.3,0.1,0.5c0,0.2,0,0.4-0.1,0.6c-0.1,0.2-0.2,0.4-0.4,0.5c-0.2,0.2-0.4,0.3-0.6,0.3c-0.6,0.2-1.2,0.2-1.8,0
			c-0.3-0.1-0.5-0.3-0.7-0.4l0.2-0.3c0,0,0.1-0.1,0.1-0.1c0,0,0.1,0,0.1,0c0.1,0,0.1,0,0.2,0.1l0.2,0.2c0.1,0.1,0.2,0.1,0.3,0.2
			c0.2,0,0.3,0.1,0.5,0.1c0.2,0,0.3,0,0.5-0.1c0.1,0,0.2-0.1,0.3-0.2c0.1-0.1,0.1-0.2,0.2-0.3c0-0.1,0.1-0.2,0.1-0.3
			c0-0.1,0-0.2-0.1-0.3c-0.1-0.1-0.2-0.2-0.3-0.2c-0.1-0.1-0.3-0.1-0.4-0.2l-0.5-0.1c-0.2-0.1-0.3-0.1-0.5-0.2
			c-0.2-0.1-0.3-0.2-0.4-0.3c-0.1-0.1-0.2-0.2-0.3-0.4c-0.1-0.2-0.1-0.4-0.1-0.5c0-0.2,0-0.4,0.1-0.6c0.1-0.2,0.2-0.3,0.4-0.5
			c0.2-0.1,0.4-0.3,0.6-0.3c0.2-0.1,0.5-0.1,0.8-0.1c0.3,0,0.6,0,0.9,0.2c0.3,0.1,0.5,0.2,0.7,0.4L-221.6,311.6z"/>
		<path class="st10" d="M-214.5,315.9h-0.4c-0.1,0-0.1,0-0.2,0c-0.1,0-0.1-0.1-0.1-0.2l-0.1-0.5l-0.4,0.3c-0.1,0.1-0.3,0.2-0.4,0.2
			c-0.1,0.1-0.3,0.1-0.4,0.1c-0.2,0-0.3,0-0.5,0c-0.2,0-0.4,0-0.6-0.1c-0.2-0.1-0.3-0.1-0.4-0.3c-0.1-0.1-0.2-0.3-0.3-0.4
			c-0.1-0.2-0.1-0.4-0.1-0.6c0-0.2,0.1-0.4,0.2-0.6c0.1-0.2,0.3-0.4,0.5-0.5c0.3-0.2,0.7-0.3,1-0.4c0.5-0.1,0.9-0.2,1.4-0.2v-0.4
			c0-0.3-0.1-0.6-0.3-0.9c-0.2-0.2-0.5-0.3-0.7-0.3c-0.2,0-0.4,0-0.6,0.1c-0.1,0-0.3,0.1-0.4,0.2l-0.3,0.2c-0.1,0-0.1,0.1-0.2,0.1
			c-0.1,0-0.1,0-0.2,0c0,0-0.1-0.1-0.1-0.1l-0.2-0.3c0.3-0.3,0.6-0.5,0.9-0.6c0.3-0.1,0.7-0.2,1.1-0.2c0.3,0,0.5,0,0.8,0.1
			c0.2,0.1,0.4,0.2,0.6,0.4c0.2,0.2,0.3,0.4,0.3,0.6c0.1,0.3,0.1,0.5,0.1,0.8V315.9z M-216.8,315.3c0.1,0,0.3,0,0.4,0
			c0.1,0,0.3-0.1,0.4-0.1l0.3-0.2c0.1-0.1,0.2-0.2,0.3-0.3v-1c-0.3,0-0.7,0-1,0.1c-0.2,0-0.5,0.1-0.7,0.2c-0.2,0.1-0.3,0.2-0.4,0.3
			c-0.1,0.1-0.1,0.2-0.1,0.4c0,0.1,0,0.2,0.1,0.4c0,0.1,0.1,0.2,0.2,0.2c0.1,0.1,0.2,0.1,0.3,0.1
			C-217,315.4-216.9,315.3-216.8,315.3z"/>
		<path class="st10" d="M-209.7,315.9c-0.3,0-0.7-0.1-0.9-0.3c-0.2-0.3-0.4-0.6-0.3-1v-3h-0.6c0,0-0.1,0-0.1,0c0,0-0.1-0.1-0.1-0.1
			V311l0.8-0.1l0.2-1.6c0,0,0-0.1,0.1-0.1c0,0,0.1,0,0.1,0h0.5v1.7h1.4v0.6h-1.4v3c0,0.2,0,0.3,0.1,0.5c0.1,0.1,0.2,0.2,0.4,0.2
			c0.1,0,0.2,0,0.2,0l0.2-0.1l0.1-0.1h0.1c0.1,0,0.1,0,0.1,0.1l0.3,0.4c-0.2,0.1-0.3,0.3-0.6,0.3C-209.2,316-209.5,316-209.7,315.9z
			"/>
		<path class="st10" d="M-207.5,315.9v-5h0.5c0.1,0,0.1,0,0.2,0c0,0.1,0.1,0.1,0.1,0.2l0.1,0.8c0.2-0.3,0.4-0.6,0.7-0.8
			c0.3-0.2,0.6-0.3,0.9-0.3c0.1,0,0.3,0,0.4,0c0.1,0,0.2,0.1,0.3,0.1l-0.1,0.7c0,0.1-0.1,0.1-0.2,0.1c-0.1,0-0.1,0-0.2-0.1
			c-0.1,0-0.3,0-0.4,0c-0.3,0-0.6,0.1-0.8,0.3c-0.2,0.2-0.4,0.5-0.5,0.8v3.2L-207.5,315.9z"/>
		<path class="st10" d="M-200,315.9h-0.4c-0.1,0-0.1,0-0.2,0c-0.1,0-0.1-0.1-0.1-0.2l-0.1-0.5c-0.1,0.1-0.3,0.2-0.4,0.3
			c-0.1,0.1-0.3,0.2-0.4,0.2c-0.1,0.1-0.3,0.1-0.4,0.1c-0.2,0-0.4,0-0.5,0c-0.2,0-0.4,0-0.5-0.1c-0.2,0-0.3-0.1-0.4-0.3
			c-0.1-0.1-0.2-0.2-0.3-0.4c-0.1-0.2-0.1-0.4-0.1-0.6c0-0.2,0.1-0.4,0.2-0.6c0.1-0.2,0.3-0.4,0.5-0.5c0.3-0.2,0.7-0.3,1-0.4
			c0.5-0.1,0.9-0.2,1.4-0.2v-0.4c0-0.3-0.1-0.6-0.3-0.9c-0.2-0.2-0.5-0.3-0.8-0.3c-0.2,0-0.4,0-0.5,0.1c-0.1,0-0.3,0.1-0.4,0.2
			l-0.3,0.2c-0.1,0-0.1,0.1-0.2,0.1c-0.1,0-0.1,0-0.2,0c0,0-0.1-0.1-0.1-0.1l-0.2-0.3c0.3-0.3,0.6-0.5,0.9-0.6
			c0.3-0.1,0.7-0.2,1.1-0.2c0.3,0,0.5,0,0.8,0.1c0.2,0.1,0.4,0.2,0.6,0.4c0.2,0.2,0.3,0.4,0.3,0.6c0.1,0.3,0.1,0.5,0.1,0.8
			L-200,315.9z M-202.3,315.3c0.1,0,0.3,0,0.4,0c0.1,0,0.2-0.1,0.4-0.1c0.1-0.1,0.2-0.1,0.3-0.2c0.1-0.1,0.2-0.2,0.3-0.3v-1
			c-0.3,0-0.7,0-1,0.1c-0.2,0-0.5,0.1-0.7,0.2c-0.2,0.1-0.3,0.2-0.4,0.3c-0.1,0.1-0.1,0.2-0.1,0.4c0,0.1,0,0.2,0.1,0.4
			c0.1,0.2,0.2,0.3,0.4,0.4C-202.5,315.4-202.4,315.4-202.3,315.3L-202.3,315.3z"/>
		<path class="st10" d="M-199.4,310.8h0.7c0.1,0,0.1,0,0.2,0c0,0,0.1,0.1,0.1,0.1l1.3,3.3c0,0.1,0.1,0.2,0.1,0.4s0.1,0.2,0.1,0.4
			l0.1-0.4c0-0.1,0.1-0.2,0.1-0.4l1.3-3.2c0,0,0.1-0.1,0.1-0.1c0.1,0,0.1,0,0.2,0h0.7l-2,5h-0.8L-199.4,310.8z"/>
		<path class="st10" d="M-191.8,310.7c0.3,0,0.6,0,0.8,0.2c0.2,0.1,0.5,0.2,0.7,0.4c0.2,0.2,0.3,0.4,0.4,0.7c0.1,0.3,0.2,0.7,0.2,1
			c0,0.1,0,0.2,0,0.3c0,0.1-0.1,0.1-0.2,0.1h-3.4c0,0.3,0,0.6,0.1,0.8c0.1,0.2,0.2,0.4,0.3,0.6c0.1,0.2,0.3,0.3,0.5,0.4
			c0.2,0.1,0.4,0.1,0.7,0.1c0.2,0,0.4,0,0.6-0.1c0.1,0,0.3-0.1,0.4-0.2l0.3-0.2c0.1,0,0.1-0.1,0.2-0.1c0.1,0,0.1,0,0.2,0.1l0.3,0.3
			c-0.1,0.1-0.2,0.2-0.4,0.3c-0.2,0.1-0.3,0.2-0.5,0.3c-0.4,0.1-0.7,0.2-1.1,0.2c-0.3,0-0.7,0-1-0.2c-0.3-0.1-0.6-0.3-0.8-0.5
			c-0.2-0.2-0.4-0.5-0.5-0.9c-0.1-0.4-0.2-0.8-0.2-1.1c0-0.3,0-0.7,0.2-1c0.1-0.3,0.3-0.6,0.5-0.8c0.2-0.2,0.5-0.4,0.8-0.5
			C-192.5,310.8-192.2,310.7-191.8,310.7z M-191.8,311.4c-0.4,0-0.7,0.1-1,0.4c-0.3,0.3-0.4,0.6-0.5,1h2.8c0-0.2,0-0.4-0.1-0.6
			c0-0.2-0.1-0.3-0.3-0.5c-0.1-0.1-0.2-0.2-0.4-0.3C-191.5,311.4-191.6,311.4-191.8,311.4L-191.8,311.4z M-190.4,308.6l-1.2,1.3
			c0,0-0.1,0.1-0.1,0.1c-0.1,0-0.1,0-0.2,0h-0.5l0.7-1.2c0-0.1,0.1-0.1,0.2-0.2c0.1,0,0.2-0.1,0.2-0.1L-190.4,308.6z"/>
		<path class="st10" d="M-185.7,311.6c0,0.1-0.1,0.1-0.2,0.1c-0.1,0-0.1,0-0.2,0l-0.2-0.1l-0.3-0.1c-0.1,0-0.3-0.1-0.4-0.1
			c-0.1,0-0.3,0-0.4,0.1c-0.1,0-0.2,0.1-0.3,0.2c-0.1,0.1-0.1,0.1-0.2,0.2c0,0.1-0.1,0.2-0.1,0.3c0,0.1,0,0.2,0.1,0.3
			c0.1,0.1,0.2,0.2,0.3,0.2c0.1,0.1,0.3,0.1,0.4,0.2l0.5,0.1l0.5,0.2c0.2,0.1,0.3,0.1,0.4,0.3c0.1,0.1,0.2,0.2,0.3,0.4
			c0.1,0.2,0.1,0.3,0.1,0.5c0,0.2,0,0.4-0.1,0.6c-0.1,0.2-0.2,0.4-0.4,0.5c-0.2,0.2-0.4,0.3-0.6,0.3c-0.3,0.1-0.5,0.1-0.8,0.1
			c-0.3,0-0.7,0-1-0.2c-0.3-0.1-0.5-0.3-0.7-0.4l0.2-0.3c0,0,0.1-0.1,0.1-0.1c0,0,0.1,0,0.1,0c0.1,0,0.1,0,0.2,0.1l0.3,0.1
			c0.1,0.1,0.2,0.1,0.3,0.2c0.2,0,0.3,0.1,0.5,0.1c0.2,0,0.3,0,0.5-0.1c0.1,0,0.2-0.1,0.3-0.2c0.1-0.1,0.1-0.2,0.2-0.3
			c0-0.1,0.1-0.2,0.1-0.3c0-0.1,0-0.2-0.1-0.3c-0.1-0.1-0.2-0.2-0.3-0.2c-0.1-0.1-0.3-0.1-0.4-0.2l-0.5-0.2
			c-0.2-0.1-0.3-0.1-0.5-0.2c-0.2-0.1-0.3-0.2-0.4-0.3c-0.1-0.1-0.2-0.2-0.3-0.4c-0.1-0.2-0.1-0.4-0.1-0.6c0-0.2,0-0.4,0.1-0.5
			c0.1-0.2,0.2-0.3,0.4-0.5c0.2-0.1,0.4-0.3,0.6-0.3c0.2-0.1,0.5-0.1,0.8-0.1c0.3,0,0.6,0,0.9,0.2c0.3,0.1,0.5,0.2,0.7,0.4
			L-185.7,311.6z"/>
		<path class="st10" d="M-254.9,326.4c-0.1,0-0.2-0.1-0.2-0.2l-0.1-0.6c-0.2,0.2-0.5,0.5-0.7,0.6c-0.3,0.2-0.7,0.3-1,0.2
			c-0.3,0-0.5-0.1-0.8-0.2c-0.2-0.1-0.5-0.3-0.6-0.5c-0.2-0.2-0.3-0.5-0.4-0.8c-0.1-0.4-0.1-0.7-0.1-1.1c0-0.3,0.1-0.7,0.1-1
			c0.1-0.3,0.2-0.6,0.4-0.8c0.4-0.5,1-0.8,1.6-0.8c0.5,0,1,0.2,1.4,0.6V319h0.9v7.3L-254.9,326.4z M-256.6,325.7
			c0.3,0,0.5-0.1,0.8-0.2c0.2-0.2,0.4-0.3,0.6-0.6v-2.4c-0.1-0.2-0.3-0.4-0.5-0.5c-0.2-0.1-0.4-0.1-0.6-0.1c-0.4,0-0.8,0.2-1.1,0.5
			c-0.3,0.4-0.4,0.9-0.4,1.4c0,0.3,0,0.6,0.1,0.9c0,0.2,0.1,0.4,0.2,0.6c0.1,0.1,0.2,0.3,0.4,0.3
			C-256.9,325.7-256.7,325.7-256.6,325.7z"/>
		<path class="st10" d="M-250.8,321.3c0.3,0,0.6,0.1,0.8,0.2c0.2,0.1,0.5,0.2,0.7,0.4c0.2,0.2,0.3,0.4,0.4,0.7
			c0.1,0.3,0.2,0.7,0.2,1c0,0.1,0,0.2,0,0.3c0,0-0.1,0.1-0.2,0.1h-3.4c0,0.3,0,0.6,0.1,0.8c0.1,0.2,0.2,0.4,0.3,0.6
			c0.1,0.2,0.3,0.3,0.5,0.3c0.2,0.1,0.4,0.1,0.6,0.1c0.2,0,0.4,0,0.6-0.1c0.1,0,0.3-0.1,0.4-0.2l0.3-0.2c0.1,0,0.1-0.1,0.2-0.1
			c0.1,0,0.1,0,0.2,0.1l0.3,0.3c-0.1,0.1-0.2,0.3-0.4,0.4c-0.2,0.1-0.3,0.2-0.5,0.2c-0.2,0.1-0.4,0.1-0.5,0.1c-0.2,0-0.4,0-0.6,0
			c-0.3,0-0.7-0.1-1-0.2c-0.3-0.1-0.5-0.3-0.8-0.5c-0.2-0.2-0.4-0.5-0.5-0.8c-0.1-0.4-0.2-0.8-0.2-1.2c0-0.3,0.1-0.7,0.2-1
			c0.1-0.3,0.3-0.6,0.5-0.8c0.2-0.2,0.5-0.4,0.7-0.5C-251.5,321.3-251.2,321.2-250.8,321.3z M-250.8,321.9c-0.4,0-0.7,0.1-1,0.4
			c-0.3,0.3-0.4,0.6-0.5,1h2.7c0-0.2,0-0.4-0.1-0.6c-0.1-0.2-0.1-0.3-0.3-0.4c-0.1-0.1-0.2-0.2-0.4-0.3
			C-250.5,321.9-250.6,321.9-250.8,321.9L-250.8,321.9z"/>
		<path class="st10" d="M-245.7,326.4v-5h0.5c0.1,0,0.2,0.1,0.2,0.2l0.1,0.5c0.2-0.2,0.5-0.4,0.7-0.6c0.3-0.2,0.6-0.2,0.9-0.2
			c0.3,0,0.5,0,0.7,0.1c0.2,0.1,0.4,0.2,0.5,0.4c0.1,0.2,0.3,0.4,0.3,0.6c0.1,0.3,0.1,0.5,0.1,0.8v3.2h-0.9v-3.3
			c0-0.3-0.1-0.6-0.3-0.9c-0.2-0.2-0.5-0.3-0.8-0.3c-0.3,0-0.5,0.1-0.7,0.2c-0.2,0.1-0.4,0.3-0.6,0.5v3.7H-245.7z"/>
		<path class="st10" d="M-238.1,321.3c0.3,0,0.7,0.1,1,0.2c0.3,0.1,0.5,0.3,0.8,0.5c0.2,0.2,0.4,0.5,0.5,0.8c0.2,0.7,0.2,1.5,0,2.1
			c-0.1,0.3-0.3,0.6-0.5,0.8c-0.2,0.2-0.5,0.4-0.8,0.5c-0.6,0.2-1.4,0.2-2,0c-0.3-0.1-0.5-0.3-0.8-0.5c-0.2-0.2-0.4-0.5-0.5-0.8
			c-0.2-0.7-0.2-1.5,0-2.1c0.1-0.3,0.3-0.6,0.5-0.8c0.2-0.2,0.5-0.4,0.8-0.5C-238.8,321.3-238.4,321.2-238.1,321.3z M-238.1,325.8
			c0.4,0,0.8-0.2,1.1-0.5c0.3-0.4,0.4-0.9,0.4-1.4c0-0.5-0.1-1-0.4-1.4c-0.3-0.3-0.7-0.5-1.1-0.5c-0.2,0-0.5,0-0.7,0.1
			c-0.2,0.1-0.3,0.2-0.5,0.4c-0.1,0.2-0.2,0.4-0.3,0.6c-0.1,0.3-0.1,0.5-0.1,0.8c0,0.3,0,0.5,0.1,0.8c0.1,0.2,0.1,0.4,0.3,0.6
			c0.1,0.2,0.3,0.3,0.5,0.4C-238.5,325.8-238.3,325.8-238.1,325.8z"/>
		<path class="st10" d="M-231.7,322.2c0,0.1-0.1,0.1-0.2,0.1c-0.1,0-0.1,0-0.2,0l-0.2-0.1c-0.1-0.1-0.2-0.1-0.3-0.1
			c-0.1,0-0.3,0-0.4,0c-0.1,0-0.3,0-0.4,0c-0.1,0-0.2,0.1-0.3,0.2c-0.1,0.1-0.1,0.1-0.2,0.2c0,0.1-0.1,0.2-0.1,0.3
			c0,0.1,0,0.2,0.1,0.3c0.1,0.1,0.2,0.2,0.3,0.2c0.1,0.1,0.3,0.1,0.4,0.2l0.5,0.2c0.2,0.1,0.3,0.1,0.5,0.2c0.1,0.1,0.3,0.2,0.4,0.3
			c0.1,0.1,0.2,0.2,0.3,0.4c0.1,0.2,0.1,0.3,0.1,0.5c0,0.2,0,0.4-0.1,0.7c-0.1,0.2-0.2,0.4-0.4,0.5c-0.2,0.2-0.4,0.3-0.6,0.3
			c-0.3,0.1-0.5,0.1-0.8,0.1c-0.6,0-1.2-0.2-1.7-0.7l0.2-0.3c0,0,0.1-0.1,0.1-0.1c0,0,0.1,0,0.1,0c0.1,0,0.1,0,0.2,0.1l0.2,0.2
			c0.1,0.1,0.2,0.1,0.3,0.1c0.2,0.1,0.3,0.1,0.5,0.1c0.2,0,0.3,0,0.4-0.1c0.1,0,0.2-0.1,0.3-0.2c0.1-0.1,0.1-0.2,0.2-0.3
			c0-0.1,0.1-0.2,0.1-0.3c0-0.1,0-0.3-0.1-0.4c-0.1-0.1-0.2-0.2-0.3-0.2c-0.1-0.1-0.3-0.1-0.4-0.2l-0.5-0.1l-0.5-0.2
			c-0.2-0.1-0.3-0.2-0.4-0.3c-0.1-0.1-0.2-0.2-0.3-0.4c-0.1-0.2-0.1-0.4-0.1-0.5c0-0.2,0-0.4,0.1-0.6c0.1-0.2,0.2-0.3,0.3-0.5
			c0.2-0.1,0.4-0.2,0.6-0.3c0.2-0.1,0.5-0.1,0.8-0.1c0.3,0,0.6,0.1,0.9,0.2c0.3,0.1,0.5,0.2,0.7,0.4L-231.7,322.2z"/>
		<path class="st10" d="M-228.2,321.3c0.3,0,0.7,0.1,1,0.2c0.3,0.1,0.5,0.3,0.8,0.5c0.2,0.2,0.4,0.5,0.5,0.8c0.2,0.7,0.2,1.5,0,2.1
			c-0.1,0.3-0.3,0.6-0.5,0.8c-0.2,0.2-0.5,0.4-0.8,0.5c-0.6,0.2-1.4,0.2-2,0c-0.3-0.1-0.5-0.3-0.8-0.5c-0.2-0.2-0.4-0.5-0.5-0.8
			c-0.2-0.7-0.2-1.5,0-2.1c0.1-0.3,0.3-0.6,0.5-0.8c0.2-0.2,0.5-0.4,0.8-0.5C-228.9,321.3-228.6,321.3-228.2,321.3z M-228.2,325.8
			c0.4,0,0.8-0.2,1.1-0.5c0.3-0.4,0.4-0.9,0.4-1.4c0-0.5-0.1-1-0.4-1.4c-0.3-0.3-0.7-0.5-1.1-0.5c-0.2,0-0.5,0-0.7,0.1
			c-0.2,0.1-0.3,0.2-0.5,0.4c-0.1,0.2-0.2,0.4-0.3,0.6c-0.1,0.3-0.1,0.5-0.1,0.8c0,0.3,0,0.5,0.1,0.8c0.1,0.2,0.2,0.4,0.3,0.6
			c0.1,0.2,0.3,0.3,0.5,0.4C-228.7,325.7-228.5,325.8-228.2,325.8z"/>
		<path class="st10" d="M-223.2,326.5c-0.3,0-0.7-0.1-0.9-0.3c-0.2-0.3-0.3-0.6-0.3-1v-3h-0.6c0,0-0.1,0-0.1,0c0,0,0-0.1,0-0.2v-0.3
			l0.8-0.1l0.2-1.6c0,0,0-0.1,0.1-0.1c0,0,0.1-0.1,0.1-0.1h0.5v1.7h1.4v0.6h-1.5v3c0,0.2,0,0.3,0.2,0.5c0.1,0.1,0.3,0.2,0.4,0.1
			c0.1,0,0.2,0,0.2,0c0.1,0,0.1,0,0.2-0.1l0.1-0.1c0,0,0.1,0,0.1,0c0.1,0,0.1,0,0.1,0.1l0.3,0.3c-0.2,0.1-0.3,0.3-0.6,0.3
			C-222.8,326.4-223,326.5-223.2,326.5z"/>
		<path class="st10" d="M-221,326.4v-5h0.5c0.1,0,0.1,0,0.2,0.1c0,0.1,0.1,0.1,0.1,0.2l0.1,0.8c0.1-0.3,0.4-0.6,0.6-0.8
			c0.3-0.2,0.6-0.3,0.9-0.3c0.1,0,0.2,0,0.4,0.1c0.1,0,0.2,0.1,0.3,0.1l-0.1,0.7c0,0.1-0.1,0.1-0.1,0.1c0,0,0,0,0,0
			c-0.1,0-0.1,0-0.2,0c-0.1,0-0.3,0-0.4,0c-0.3,0-0.6,0.1-0.8,0.3c-0.2,0.2-0.4,0.5-0.5,0.8v3.2L-221,326.4z"/>
		<path class="st10" d="M-215,321.3c0.3,0,0.7,0.1,1,0.2c0.3,0.1,0.5,0.3,0.8,0.5c0.2,0.2,0.4,0.5,0.5,0.8c0.2,0.7,0.2,1.5,0,2.1
			c-0.1,0.3-0.3,0.6-0.5,0.8c-0.2,0.2-0.5,0.4-0.8,0.5c-0.3,0.1-0.7,0.2-1,0.2c-0.3,0-0.7-0.1-1-0.2c-0.3-0.1-0.5-0.3-0.8-0.5
			c-0.2-0.2-0.4-0.5-0.5-0.8c-0.2-0.7-0.2-1.4,0-2.1c0.1-0.3,0.3-0.6,0.5-0.8c0.2-0.2,0.5-0.4,0.8-0.5
			C-215.7,321.3-215.3,321.2-215,321.3z M-215,325.8c0.4,0,0.8-0.2,1.1-0.5c0.3-0.4,0.4-0.9,0.4-1.4c0-0.5-0.1-1-0.4-1.4
			c-0.3-0.3-0.7-0.5-1.1-0.5c-0.2,0-0.5,0-0.7,0.1c-0.2,0.1-0.3,0.2-0.5,0.4c-0.1,0.2-0.2,0.4-0.3,0.6c-0.1,0.3-0.1,0.5-0.1,0.8
			c0,0.3,0,0.5,0.1,0.8c0.1,0.2,0.2,0.4,0.3,0.6c0.1,0.2,0.3,0.3,0.5,0.4C-215.4,325.8-215.2,325.8-215,325.8z"/>
		<path class="st10" d="M-208.6,322.2c0,0.1-0.1,0.1-0.2,0.1c-0.1,0-0.1,0-0.2,0l-0.2-0.1c-0.1-0.1-0.2-0.1-0.3-0.1
			c-0.1,0-0.3,0-0.4,0c-0.1,0-0.3,0-0.4,0c-0.1,0-0.2,0.1-0.3,0.2c-0.1,0.1-0.1,0.1-0.2,0.2c0,0.1-0.1,0.2-0.1,0.3
			c0,0.1,0,0.2,0.1,0.3c0.1,0.1,0.2,0.2,0.3,0.2c0.1,0.1,0.3,0.1,0.4,0.2l0.5,0.2c0.2,0.1,0.3,0.1,0.5,0.2c0.1,0.1,0.3,0.1,0.4,0.3
			c0.1,0.1,0.2,0.2,0.3,0.4c0.1,0.2,0.1,0.3,0.1,0.5c0,0.2,0,0.4-0.1,0.6c-0.1,0.2-0.2,0.4-0.4,0.5c-0.2,0.2-0.4,0.3-0.6,0.3
			c-0.3,0.1-0.5,0.1-0.8,0.1c-0.3,0-0.7-0.1-1-0.2c-0.3-0.1-0.5-0.3-0.7-0.4l0.2-0.3c0,0,0.1-0.1,0.1-0.1c0,0,0.1,0,0.1,0
			c0.1,0,0.1,0,0.2,0.1l0.2,0.2c0.1,0.1,0.2,0.1,0.4,0.1c0.2,0.1,0.3,0.1,0.5,0.1c0.2,0,0.3,0,0.5-0.1c0.1,0,0.2-0.1,0.3-0.2
			c0.1-0.1,0.2-0.2,0.2-0.3c0-0.1,0.1-0.2,0.1-0.3c0-0.1,0-0.3-0.1-0.4c-0.1-0.1-0.2-0.2-0.3-0.2c-0.1-0.1-0.3-0.1-0.4-0.2l-0.5-0.1
			l-0.5-0.2c-0.2-0.1-0.3-0.2-0.4-0.3c-0.1-0.1-0.2-0.2-0.3-0.4c-0.1-0.2-0.1-0.4-0.1-0.6c0-0.2,0-0.4,0.1-0.6
			c0.1-0.2,0.2-0.3,0.3-0.5c0.2-0.1,0.4-0.2,0.6-0.3c0.2-0.1,0.5-0.1,0.8-0.1c0.3,0,0.6,0.1,0.9,0.2c0.3,0.1,0.5,0.2,0.7,0.4
			L-208.6,322.2z"/>
		<path class="st10" d="M-253.9,334.7v0.8h-3.4v2.4h2.8v0.8h-2.8v2.4h3.4v0.8h-4.4v-7.1H-253.9z"/>
		<path class="st10" d="M-252.6,341.9v-5h0.5c0.1,0,0.2,0.1,0.2,0.2l0.1,0.5c0.2-0.2,0.5-0.5,0.8-0.6c0.3-0.1,0.6-0.2,0.9-0.2
			c0.3,0,0.5,0,0.7,0.1c0.2,0.1,0.4,0.2,0.5,0.4c0.1,0.2,0.3,0.4,0.3,0.6c0.1,0.3,0.1,0.5,0.1,0.8v3.2h-0.9v-3.3
			c0-0.3-0.1-0.6-0.3-0.9c-0.2-0.2-0.5-0.3-0.8-0.3c-0.3,0-0.5,0.1-0.7,0.2c-0.2,0.1-0.5,0.3-0.6,0.5v3.7H-252.6z"/>
		<path class="st10" d="M-245.5,342c-0.3,0-0.7-0.1-0.9-0.3c-0.2-0.3-0.4-0.6-0.3-1v-3.1h-0.6c0,0-0.1,0-0.1,0c0,0-0.1-0.1-0.1-0.2
			V337l0.8-0.1l0.2-1.6c0,0,0-0.1,0.1-0.1c0,0,0.1,0,0.1,0h0.4v1.7h1.4v0.6h-1.4v3c0,0.2,0,0.3,0.1,0.5c0.1,0.1,0.2,0.2,0.4,0.2
			c0.1,0,0.2,0,0.2,0c0.1,0,0.1,0,0.2-0.1l0.1-0.1c0,0,0.1,0,0.1,0c0,0,0.1,0,0.1,0.1l0.3,0.4c-0.2,0.1-0.3,0.3-0.6,0.3
			C-245.1,341.9-245.3,342-245.5,342z"/>
		<path class="st10" d="M-243.4,341.9v-5h0.5c0.1,0,0.1,0,0.2,0c0,0.1,0.1,0.1,0.1,0.2l0.1,0.8c0.1-0.3,0.4-0.6,0.6-0.8
			c0.3-0.2,0.6-0.3,0.9-0.3c0.1,0,0.3,0,0.4,0.1c0.1,0,0.2,0.1,0.3,0.1l-0.1,0.7c0,0.1-0.1,0.1-0.2,0.1h-0.2c-0.1,0-0.3,0-0.4,0
			c-0.3,0-0.6,0.1-0.8,0.3c-0.2,0.2-0.4,0.5-0.5,0.8v3.2L-243.4,341.9z"/>
		<path class="st10" d="M-235.8,341.9h-0.4c-0.1,0-0.1,0-0.2,0c-0.1,0-0.1-0.1-0.1-0.2l-0.1-0.5c-0.1,0.1-0.3,0.2-0.4,0.3
			c-0.2,0.2-0.5,0.3-0.8,0.4c-0.2,0-0.4,0-0.5,0c-0.2,0-0.4,0-0.6-0.1c-0.2,0-0.3-0.1-0.4-0.2c-0.1-0.1-0.2-0.3-0.3-0.4
			c-0.1-0.2-0.1-0.4-0.1-0.6c0-0.2,0.1-0.4,0.2-0.6c0.1-0.2,0.3-0.4,0.5-0.5c0.3-0.2,0.7-0.3,1-0.4c0.5-0.1,1-0.1,1.4-0.1v-0.4
			c0-0.3-0.1-0.6-0.3-0.9c-0.2-0.2-0.5-0.3-0.7-0.3c-0.2,0-0.4,0-0.6,0.1c-0.1,0.1-0.3,0.1-0.4,0.2l-0.3,0.2c-0.1,0-0.1,0.1-0.2,0.1
			c-0.1,0-0.1,0-0.2,0c0,0-0.1-0.1-0.1-0.1l-0.2-0.3c0.5-0.5,1.3-0.8,2-0.8c0.3,0,0.5,0,0.8,0.1c0.2,0.1,0.4,0.2,0.6,0.4
			c0.2,0.2,0.3,0.4,0.3,0.6c0.1,0.3,0.1,0.5,0.1,0.8L-235.8,341.9z M-238.1,341.3c0.1,0,0.3,0,0.4,0c0.1,0,0.3-0.1,0.4-0.1
			c0.1-0.1,0.2-0.1,0.3-0.2c0.1-0.1,0.2-0.2,0.3-0.3v-1c-0.4,0-0.7,0-1,0.1c-0.2,0-0.5,0.1-0.7,0.2c-0.2,0.1-0.3,0.2-0.4,0.3
			c-0.1,0.1-0.1,0.2-0.1,0.4c0,0.1,0,0.2,0.1,0.4c0,0.1,0.1,0.2,0.2,0.2c0.1,0.1,0.2,0.1,0.3,0.1
			C-238.3,341.4-238.2,341.4-238.1,341.3z"/>
		<path class="st10" d="M-228.9,341.9h-0.4c-0.1,0-0.1,0-0.2,0c-0.1,0-0.1-0.1-0.1-0.2l-0.1-0.5c-0.1,0.1-0.3,0.2-0.4,0.3
			c-0.1,0.1-0.3,0.2-0.4,0.2c-0.1,0.1-0.3,0.1-0.4,0.2c-0.2,0-0.4,0-0.5,0c-0.2,0-0.4,0-0.6-0.1c-0.2,0-0.3-0.1-0.4-0.2
			c-0.1-0.1-0.2-0.3-0.3-0.4c-0.1-0.2-0.1-0.4-0.1-0.6c0-0.2,0.1-0.4,0.2-0.6c0.1-0.2,0.3-0.4,0.5-0.5c0.3-0.2,0.7-0.3,1-0.4
			c0.5-0.1,1-0.1,1.4-0.1v-0.4c0-0.3-0.1-0.6-0.3-0.9c-0.2-0.2-0.5-0.3-0.8-0.3c-0.2,0-0.4,0-0.5,0.1c-0.1,0-0.3,0.1-0.4,0.2
			l-0.3,0.2c-0.1,0-0.1,0.1-0.2,0.1c0,0-0.1,0-0.1,0c0,0-0.1-0.1-0.1-0.1l-0.2-0.3c0.5-0.5,1.3-0.8,2-0.8c0.3,0,0.5,0,0.8,0.1
			c0.2,0.1,0.4,0.2,0.6,0.4c0.2,0.2,0.3,0.4,0.3,0.6c0.1,0.3,0.1,0.5,0.1,0.8L-228.9,341.9z M-231.1,341.3c0.1,0,0.3,0,0.4,0
			c0.1,0,0.2-0.1,0.4-0.1c0.1-0.1,0.2-0.1,0.3-0.2c0.1-0.1,0.2-0.2,0.3-0.3v-1c-0.3,0-0.7,0-1,0.1c-0.2,0-0.5,0.1-0.7,0.2
			c-0.2,0.1-0.3,0.2-0.4,0.3c-0.1,0.1-0.1,0.2-0.1,0.4c0,0.1,0,0.2,0.1,0.4c0,0.1,0.1,0.2,0.2,0.2c0.1,0.1,0.2,0.1,0.3,0.1
			C-231.3,341.4-231.2,341.4-231.1,341.3z"/>
		<path class="st10" d="M-223.4,336.8v6.8h-0.9v-2.5c-0.2,0.2-0.5,0.4-0.7,0.6c-0.3,0.2-0.6,0.3-1,0.3c-0.3,0-0.5-0.1-0.8-0.2
			c-0.2-0.1-0.4-0.3-0.6-0.5c-0.2-0.2-0.3-0.5-0.4-0.8c-0.1-0.4-0.1-0.7-0.1-1.1c0-0.3,0-0.7,0.1-1c0.1-0.3,0.2-0.6,0.4-0.8
			c0.2-0.2,0.4-0.4,0.7-0.6c0.3-0.1,0.6-0.2,0.9-0.2c0.3,0,0.6,0.1,0.8,0.2c0.2,0.1,0.4,0.3,0.6,0.5l0.1-0.4c0-0.1,0.1-0.2,0.2-0.2
			L-223.4,336.8z M-225.7,341.2c0.3,0,0.5-0.1,0.8-0.2c0.2-0.2,0.4-0.3,0.6-0.6V338c-0.1-0.2-0.3-0.4-0.5-0.5
			c-0.2-0.1-0.4-0.1-0.6-0.1c-0.4,0-0.8,0.2-1.1,0.5c-0.3,0.4-0.4,0.9-0.4,1.5c0,0.3,0,0.6,0.1,0.8c0,0.2,0.1,0.4,0.3,0.6
			c0.1,0.1,0.2,0.3,0.4,0.3C-226.1,341.2-225.9,341.2-225.7,341.2z"/>
		<path class="st10" d="M-221.2,336.8v3.2c0,0.3,0.1,0.6,0.3,0.9c0.2,0.2,0.5,0.3,0.8,0.3c0.3,0,0.5-0.1,0.7-0.2
			c0.2-0.1,0.5-0.3,0.6-0.5v-3.7h0.9v5h-0.5c-0.1,0-0.2-0.1-0.2-0.2l-0.1-0.5c-0.2,0.2-0.5,0.4-0.7,0.6c-0.3,0.2-0.6,0.2-0.9,0.2
			c-0.3,0-0.5,0-0.7-0.1c-0.2-0.1-0.4-0.2-0.5-0.4c-0.1-0.2-0.3-0.4-0.3-0.6c-0.1-0.3-0.1-0.5-0.1-0.8v-3.2H-221.2z"/>
		<path class="st10" d="M-214.4,334.7l-1.2,1.3c0,0-0.1,0.1-0.1,0.1c-0.1,0-0.1,0-0.2,0h-0.5l0.7-1.2c0-0.1,0.1-0.1,0.2-0.2
			c0.1,0,0.2,0,0.2,0L-214.4,334.7z M-215.4,336.8v5h-0.9v-5H-215.4z"/>
		<path class="st10" d="M-211.9,343.6v-6.8h0.5c0.1,0,0.2,0.1,0.2,0.2l0.1,0.6c0.2-0.3,0.5-0.5,0.7-0.6c0.5-0.3,1.2-0.3,1.7-0.1
			c0.2,0.1,0.4,0.3,0.6,0.5c0.2,0.2,0.3,0.5,0.4,0.8c0.1,0.4,0.1,0.7,0.1,1.1c0,0.3-0.1,0.7-0.2,1c-0.1,0.3-0.2,0.6-0.4,0.8
			c-0.2,0.2-0.4,0.4-0.7,0.6c-0.3,0.1-0.6,0.2-0.9,0.2c-0.3,0-0.5,0-0.8-0.2c-0.2-0.1-0.4-0.3-0.6-0.4v2.2L-211.9,343.6z
			 M-209.7,337.5c-0.3,0-0.5,0.1-0.8,0.2c-0.2,0.1-0.4,0.3-0.6,0.6v2.4c0.1,0.2,0.3,0.4,0.5,0.5c0.2,0.1,0.4,0.1,0.7,0.1
			c0.4,0,0.8-0.2,1.1-0.5c0.3-0.4,0.4-0.9,0.4-1.4c0-0.3,0-0.6-0.1-0.9c0-0.2-0.1-0.4-0.3-0.6c-0.1-0.1-0.2-0.3-0.4-0.3
			C-209.3,337.5-209.5,337.5-209.7,337.5z"/>
		<path class="st10" d="M-202.7,341.9h-0.4c-0.1,0-0.1,0-0.2,0c-0.1,0-0.1-0.1-0.1-0.2l-0.1-0.5c-0.1,0.1-0.3,0.2-0.4,0.3
			c-0.1,0.1-0.3,0.2-0.4,0.2c-0.1,0.1-0.3,0.1-0.4,0.2c-0.2,0-0.4,0-0.5,0c-0.2,0-0.4,0-0.6-0.1c-0.2,0-0.3-0.1-0.4-0.2
			c-0.1-0.1-0.2-0.3-0.3-0.4c-0.1-0.2-0.1-0.4-0.1-0.6c0-0.2,0.1-0.4,0.2-0.6c0.1-0.2,0.3-0.4,0.5-0.5c0.3-0.2,0.7-0.3,1-0.4
			c0.5-0.1,1-0.1,1.5-0.1v-0.4c0-0.3-0.1-0.6-0.3-0.9c-0.2-0.2-0.5-0.3-0.8-0.3c-0.2,0-0.4,0-0.5,0.1c-0.1,0-0.3,0.1-0.4,0.2
			l-0.3,0.2c-0.1,0.1-0.2,0.1-0.2,0.1c-0.1,0-0.1,0-0.2,0c0,0-0.1-0.1-0.1-0.1l-0.2-0.3c0.5-0.5,1.3-0.8,2-0.8c0.3,0,0.5,0,0.8,0.1
			c0.2,0.1,0.4,0.2,0.6,0.4c0.2,0.2,0.3,0.4,0.3,0.6c0.1,0.3,0.1,0.5,0.1,0.8L-202.7,341.9z M-205,341.3c0.1,0,0.3,0,0.4,0
			c0.1,0,0.2-0.1,0.4-0.1c0.1-0.1,0.2-0.1,0.3-0.2c0.1-0.1,0.2-0.2,0.3-0.3v-1c-0.3,0-0.7,0-1,0.1c-0.2,0-0.5,0.1-0.7,0.2
			c-0.2,0.1-0.3,0.2-0.4,0.3c-0.1,0.1-0.1,0.2-0.1,0.4c0,0.1,0,0.2,0.1,0.4c0,0.1,0.1,0.2,0.2,0.2c0.1,0.1,0.2,0.1,0.3,0.1
			C-205.2,341.4-205.1,341.4-205,341.3z"/>
		<path class="st10" d="M-201.4,341.9v-5h0.5c0.1,0,0.1,0,0.2,0c0,0.1,0.1,0.1,0.1,0.2l0.1,0.8c0.1-0.3,0.4-0.6,0.6-0.8
			c0.3-0.2,0.6-0.3,0.9-0.3c0.1,0,0.3,0,0.4,0.1c0.1,0,0.2,0.1,0.3,0.1l-0.1,0.7c0,0.1-0.1,0.1-0.2,0.1h-0.2c-0.1,0-0.3,0-0.4,0
			c-0.3,0-0.6,0.1-0.8,0.3c-0.2,0.2-0.4,0.5-0.5,0.8v3.2L-201.4,341.9z"/>
		<path class="st10" d="M-193.8,341.9h-0.4c-0.1,0-0.1,0-0.2,0c-0.1,0-0.1-0.1-0.1-0.2l-0.1-0.5c-0.1,0.1-0.3,0.2-0.4,0.3
			c-0.2,0.2-0.5,0.3-0.8,0.4c-0.2,0-0.4,0-0.5,0c-0.2,0-0.4,0-0.6-0.1c-0.2,0-0.3-0.1-0.4-0.2c-0.1-0.1-0.2-0.3-0.3-0.4
			c-0.1-0.2-0.1-0.4-0.1-0.6c0-0.2,0.1-0.4,0.2-0.6c0.1-0.2,0.3-0.4,0.5-0.5c0.3-0.2,0.7-0.3,1-0.4c0.5-0.1,1-0.1,1.5-0.1v-0.4
			c0-0.3-0.1-0.6-0.3-0.9c-0.2-0.2-0.5-0.3-0.7-0.3c-0.2,0-0.4,0-0.6,0.1c-0.1,0-0.3,0.1-0.4,0.2l-0.3,0.2c-0.1,0-0.1,0.1-0.2,0.1
			c-0.1,0-0.1,0-0.2,0c0,0-0.1-0.1-0.1-0.1l-0.2-0.3c0.5-0.5,1.3-0.8,2-0.8c0.3,0,0.5,0,0.8,0.1c0.2,0.1,0.4,0.2,0.6,0.4
			c0.2,0.2,0.3,0.4,0.3,0.6c0.1,0.3,0.1,0.5,0.1,0.8L-193.8,341.9z M-196.1,341.3c0.1,0,0.3,0,0.4,0c0.1,0,0.3-0.1,0.4-0.1
			c0.1-0.1,0.2-0.1,0.3-0.2c0.1-0.1,0.2-0.2,0.3-0.3v-1c-0.3,0-0.7,0-1,0.1c-0.2,0-0.5,0.1-0.7,0.2c-0.2,0.1-0.3,0.2-0.4,0.3
			c-0.1,0.1-0.1,0.2-0.1,0.4c0,0.1,0,0.2,0.1,0.4c0,0.1,0.1,0.2,0.2,0.2c0.1,0.1,0.2,0.1,0.3,0.1
			C-196.3,341.4-196.2,341.4-196.1,341.3z"/>
		<path class="st10" d="M-189.4,335.3c0,0.1,0,0.2,0,0.2c0,0.1-0.1,0.1-0.1,0.2c-0.1,0.1-0.1,0.1-0.2,0.1c-0.2,0.1-0.3,0.1-0.5,0
			c-0.1,0-0.1-0.1-0.2-0.1c-0.1-0.1-0.1-0.1-0.1-0.2c0-0.1,0-0.2,0-0.2c0-0.1,0-0.2,0-0.3c0-0.1,0.1-0.1,0.1-0.2
			c0.1-0.1,0.1-0.1,0.2-0.1c0.2-0.1,0.3-0.1,0.5,0c0.1,0,0.2,0.1,0.2,0.1c0.1,0.1,0.1,0.1,0.1,0.2
			C-189.4,335.1-189.4,335.2-189.4,335.3z M-189.6,336.8v5h-0.9v-5H-189.6z"/>
		<path class="st10" d="M-188,341.9v-5h0.5c0.1,0,0.2,0.1,0.2,0.2l0.1,0.5c0.2-0.2,0.5-0.4,0.7-0.6c0.3-0.1,0.6-0.2,0.9-0.2
			c0.3,0,0.5,0,0.7,0.1c0.2,0.1,0.4,0.2,0.5,0.4c0.1,0.2,0.3,0.4,0.3,0.6c0.1,0.3,0.1,0.5,0.1,0.8v3.2h-0.9v-3.3
			c0-0.3-0.1-0.6-0.3-0.9c-0.2-0.2-0.5-0.3-0.8-0.3c-0.3,0-0.5,0.1-0.7,0.2c-0.2,0.1-0.5,0.3-0.6,0.5v3.7H-188z"/>
		<path class="st10" d="M-177.3,337.7C-177.3,337.8-177.3,337.8-177.3,337.7c-0.1,0.1-0.2,0.1-0.2,0.1c-0.1,0-0.1,0-0.2-0.1
			l-0.2-0.1c-0.1-0.1-0.2-0.1-0.3-0.1c-0.2,0-0.3-0.1-0.5-0.1c-0.2,0-0.4,0-0.7,0.1c-0.2,0.1-0.4,0.2-0.5,0.4
			c-0.1,0.2-0.2,0.4-0.3,0.6c-0.1,0.3-0.1,0.5-0.1,0.8c0,0.3,0,0.6,0.1,0.8c0.1,0.2,0.2,0.4,0.3,0.6c0.1,0.2,0.3,0.3,0.5,0.4
			c0.2,0.1,0.4,0.1,0.6,0.1c0.2,0,0.4,0,0.5-0.1c0.1,0,0.2-0.1,0.3-0.2l0.2-0.2c0,0,0.1-0.1,0.2-0.1c0.1,0,0.1,0,0.2,0.1l0.3,0.3
			c-0.2,0.3-0.5,0.5-0.8,0.6c-0.3,0.1-0.7,0.2-1,0.2c-0.3,0-0.6-0.1-0.9-0.2c-0.3-0.1-0.5-0.3-0.7-0.5c-0.2-0.2-0.4-0.5-0.5-0.8
			c-0.1-0.4-0.2-0.7-0.2-1.1c0-0.3,0.1-0.7,0.2-1c0.1-0.3,0.3-0.6,0.5-0.8c0.2-0.2,0.5-0.4,0.7-0.5c0.3-0.1,0.7-0.2,1-0.2
			c0.3,0,0.6,0.1,0.9,0.2c0.3,0.1,0.5,0.3,0.7,0.5L-177.3,337.7z"/>
		<path class="st10" d="M-174.9,335.3c0,0.1,0,0.2,0,0.2c0,0.1-0.1,0.1-0.1,0.2c-0.1,0.1-0.1,0.1-0.2,0.1c-0.1,0-0.2,0.1-0.3,0
			c-0.1,0-0.2,0-0.2,0c-0.1,0-0.1-0.1-0.2-0.1c-0.1-0.1-0.1-0.1-0.1-0.2c0-0.1,0-0.2,0-0.2c0-0.1,0-0.2,0-0.3c0-0.1,0.1-0.1,0.1-0.2
			c0.1-0.1,0.1-0.1,0.2-0.1c0.1,0,0.2,0,0.2,0c0.1,0,0.2,0,0.3,0c0.1,0,0.1,0.1,0.2,0.1c0.1,0.1,0.1,0.1,0.1,0.2
			C-174.9,335.1-174.9,335.2-174.9,335.3z M-175.1,336.8v5h-0.9v-5H-175.1z"/>
		<path class="st10" d="M-181.6,335.3c0,0.1,0,0.2,0,0.2c0,0.1-0.1,0.1-0.1,0.2c-0.1,0.1-0.1,0.1-0.2,0.1c-0.1,0-0.2,0.1-0.3,0
			c-0.1,0-0.2,0-0.2,0c-0.1,0-0.1-0.1-0.2-0.1c-0.1-0.1-0.1-0.1-0.1-0.2c0-0.1,0-0.2,0-0.2c0-0.1,0-0.2,0-0.3c0-0.1,0.1-0.1,0.1-0.2
			c0.1-0.1,0.1-0.1,0.2-0.1c0.1,0,0.2,0,0.2,0c0.1,0,0.2,0,0.3,0c0.1,0,0.1,0.1,0.2,0.1c0.1,0.1,0.1,0.1,0.1,0.2
			C-181.6,335.1-181.6,335.2-181.6,335.3z M-181.8,336.8v5h-0.9v-5H-181.8z"/>
		<path class="st10" d="M-169.8,341.9h-0.4c-0.1,0-0.1,0-0.2,0c-0.1,0-0.1-0.1-0.1-0.2l-0.1-0.5c-0.1,0.1-0.3,0.2-0.4,0.3
			c-0.1,0.1-0.3,0.2-0.4,0.2c-0.1,0.1-0.3,0.1-0.4,0.2c-0.2,0-0.4,0-0.5,0c-0.2,0-0.4,0-0.6-0.1c-0.2,0-0.3-0.1-0.4-0.2
			c-0.1-0.1-0.2-0.3-0.3-0.4c-0.1-0.2-0.1-0.4-0.1-0.6c0-0.2,0.1-0.4,0.2-0.6c0.1-0.2,0.3-0.4,0.5-0.5c0.3-0.2,0.7-0.3,1-0.4
			c0.5-0.1,1-0.1,1.5-0.1v-0.4c0-0.3-0.1-0.6-0.3-0.9c-0.2-0.2-0.5-0.3-0.8-0.3c-0.2,0-0.4,0-0.5,0.1c-0.1,0-0.3,0.1-0.4,0.2
			l-0.3,0.2c-0.1,0-0.1,0.1-0.2,0.1c0,0-0.1,0-0.2,0c0,0-0.1-0.1-0.1-0.1l-0.2-0.3c0.5-0.5,1.3-0.8,2-0.8c0.3,0,0.5,0,0.8,0.1
			c0.2,0.1,0.4,0.2,0.6,0.4c0.2,0.2,0.3,0.4,0.3,0.6c0.1,0.3,0.1,0.5,0.1,0.8L-169.8,341.9z M-172.1,341.3c0.1,0,0.3,0,0.4,0
			c0.1,0,0.2-0.1,0.4-0.1c0.1-0.1,0.2-0.1,0.3-0.2c0.1-0.1,0.2-0.2,0.3-0.3v-1c-0.3,0-0.7,0-1,0.1c-0.2,0-0.5,0.1-0.7,0.2
			c-0.2,0.1-0.3,0.2-0.4,0.3c-0.1,0.1-0.1,0.2-0.1,0.4c0,0.1,0,0.2,0.1,0.4c0,0.1,0.1,0.2,0.2,0.2c0.1,0.1,0.2,0.1,0.3,0.1
			C-172.3,341.4-172.2,341.4-172.1,341.3z"/>
		<path class="st10" d="M-168.5,341.9v-5h0.5c0.1,0,0.1,0,0.2,0c0,0.1,0.1,0.1,0.1,0.2l0.1,0.8c0.1-0.3,0.4-0.6,0.6-0.8
			c0.3-0.2,0.6-0.3,0.9-0.3c0.1,0,0.3,0,0.4,0.1c0.1,0,0.2,0.1,0.3,0.1l-0.1,0.7c0,0.1-0.1,0.1-0.2,0.1h-0.2c-0.1,0-0.3,0-0.4,0
			c-0.3,0-0.6,0.1-0.8,0.3c-0.2,0.2-0.4,0.5-0.5,0.8v3.2L-168.5,341.9z"/>
	</g>
</g>
</svg>
