<?xml version="1.0" encoding="utf-8"?>
<!-- Generator: Adobe Illustrator 19.0.0, SVG Export Plug-In . SVG Version: 6.00 Build 0)  -->
<svg version="1.1" id="Layer_1" xmlns="http://www.w3.org/2000/svg" xmlns:xlink="http://www.w3.org/1999/xlink" x="0px" y="0px"
	 viewBox="-270 257 251 99" style="enable-background:new -270 257 251 99;" xml:space="preserve">
<style type="text/css">
	.st0{fill:url(#SVGID_1_);}
	.st1{clip-path:url(#SVGID_3_);}
	.st2{fill:#FFFFFF;}
	.st3{fill:#BCBCBC;}
	.st4{fill:#EF503E;}
	.st5{fill:#DB3D31;}
	.st6{fill:#623C96;}
	.st7{fill:url(#SVGID_4_);}
	.st8{fill:#FFCD2E;}
</style>
<title>Untitled-1</title>
<linearGradient id="SVGID_1_" gradientUnits="userSpaceOnUse" x1="-228.48" y1="1157.09" x2="-97.32" y2="1157.09" gradientTransform="matrix(1 0 0 -1 48 1464)">
	<stop  offset="0" style="stop-color:#18B796"/>
	<stop  offset="1" style="stop-color:#62BB51"/>
</linearGradient>
<path class="st0" d="M-256.6,257.3h224.9c7.2,0,13,5.8,13,13v73.3c0,7.2-5.8,13-13,13h-224.9c-7.2,0-13-5.8-13-13v-73.3
	C-269.6,263.1-263.8,257.3-256.6,257.3z"/>
<g>
	<defs>
		<path id="SVGID_2_" d="M-254.6,257.3h220.9c8.3,0,15,6.7,15,15v71.2c0,7.2-5.9,13.1-13.1,13.1l0,0h-224.7c-7.2,0-13-5.8-13-13
			v-71.3C-269.6,264-262.9,257.3-254.6,257.3L-254.6,257.3z"/>
	</defs>
	<clipPath id="SVGID_3_">
		<use xlink:href="#SVGID_2_"  style="overflow:visible;"/>
	</clipPath>
	<g class="st1">
		<path class="st2" d="M-98.2,301.9h-2.4v-2.3c0-0.9-0.8-1.7-1.7-1.7c-0.9,0-1.7,0.8-1.7,1.7v2.3h-2.4c-0.9-0.1-1.8,0.6-1.8,1.6
			c-0.1,0.9,0.6,1.8,1.6,1.8c0.1,0,0.2,0,0.3,0h2.4v2.3c0,0.9,0.8,1.7,1.7,1.7c0.9,0,1.7-0.8,1.7-1.7v-2.3h2.4
			c0.9-0.1,1.6-0.9,1.6-1.8C-96.7,302.7-97.4,302-98.2,301.9z"/>
		<path class="st2" d="M-106,288.9h-1.4v-1.4c0-0.6-0.4-1-1-1s-1,0.4-1,1v1.4h-1.5c-0.6,0-1,0.5-1,1s0.5,1,1,1h1.4v1.4
			c0,0.6,0.4,1,1,1s1-0.4,1-1v-1.4h1.5c0.6,0,1-0.5,1-1S-105.4,288.9-106,288.9z"/>
		<path class="st2" d="M-48.5,274h-2v-2c0-0.8-0.6-1.4-1.4-1.4c-0.8,0-1.4,0.6-1.4,1.4v2h-2c-0.8,0-1.4,0.6-1.4,1.4
			c0,0.8,0.6,1.4,1.4,1.4h2v2c0,0.8,0.6,1.4,1.4,1.4c0.8,0,1.4-0.6,1.4-1.4v-2h2c0.8,0,1.4-0.6,1.4-1.4
			C-47.1,274.6-47.8,274-48.5,274z"/>
		<rect x="-128.8" y="335.2" class="st2" width="98.9" height="20.7"/>
		<path class="st3" d="M-29.9,335.7h-98.9v15.4c0.9,0.3,1.9,0.6,2.9,0.7c1.1,0.2,2.2,0.3,3.3,0.3c2,0,4-0.3,5.9-0.9
			c1.4-0.4,2.7-1.2,3.7-2.3c0.2-0.2,0.4-0.3,0.6-0.3c0.2,0,0.5,0.1,0.6,0.3c1.1,1.1,2.4,1.9,3.9,2.3c4.1,1.2,8.4,1.2,12.5,0
			c1.5-0.4,2.8-1.2,3.9-2.3c0.2-0.2,0.4-0.3,0.6-0.3c0.2,0,0.5,0.1,0.6,0.3c1.1,1.2,2.6,2,4.1,2.3c4.4,1.2,9,1.2,13.4,0
			c1.6-0.4,3-1.2,4.1-2.3c0.2-0.2,0.4-0.3,0.6-0.3c0.2,0,0.5,0.1,0.6,0.3c1,1.1,2.4,1.9,3.9,2.3c4.1,1.2,8.4,1.2,12.5,0
			c1.5-0.4,2.8-1.2,3.8-2.3c0.2-0.2,0.4-0.3,0.6-0.3c0.2,0,0.5,0.1,0.6,0.3c1,1.1,2.3,1.9,3.8,2.3c1.9,0.6,3.9,0.9,5.9,0.9
			c1.1,0,2.2-0.1,3.3-0.3c1-0.2,1.9-0.4,2.9-0.7L-29.9,335.7L-29.9,335.7z"/>
		<ellipse class="st4" cx="-79.4" cy="343.9" rx="11.5" ry="4.8"/>
		<ellipse class="st5" cx="-57.1" cy="343.9" rx="10.8" ry="4.8"/>
		<ellipse class="st5" cx="-101.6" cy="343.9" rx="10.8" ry="4.8"/>
		<ellipse class="st4" cx="-36.1" cy="343.9" rx="10.2" ry="4.8"/>
		<ellipse class="st4" cx="-122.6" cy="343.9" rx="10.2" ry="4.8"/>
		<path class="st4" d="M-25.9,343.9h-107l2.9-10.5l3-10.5c0.8-2.8,3.3-4.7,6.3-4.8H-38c2.9,0,5.5,1.9,6.3,4.8l2.9,10.5L-25.9,343.9z
			"/>
		<polygon class="st5" points="-46.3,343.9 -112.4,343.9 -108,318.2 -50.8,318.2 		"/>
		<polygon class="st4" points="-67.9,343.9 -90.9,343.9 -88.7,318.2 -70,318.2 		"/>
		<path class="st6" d="M-59.7,283.6c0-10.9-8.8-19.7-19.7-19.7c-10.9,0-19.7,8.8-19.7,19.7c0,3.3,0.8,6.6,2.4,9.5l0,0
			c0,0,4.4,9.1,17.2,21.3c12.9-12.2,17.3-21.3,17.3-21.3l0,0C-60.5,290.2-59.7,286.9-59.7,283.6z"/>
		
			<linearGradient id="SVGID_4_" gradientUnits="userSpaceOnUse" x1="-74.79" y1="329.775" x2="-64.51" y2="329.775" gradientTransform="matrix(1 0 0 -1 0 614)">
			<stop  offset="0" style="stop-color:#39B54A"/>
			<stop  offset="1" style="stop-color:#8CC63F"/>
		</linearGradient>
		<path class="st7" d="M-70.3,275.9c-0.6,0-1.1-0.1-1.5-0.1s-1.1,0-1.6,0.1c-0.4,0-0.9,0.1-1.3,0.2l4.4,8.2l-4.4,8.1
			c0.4,0.1,0.9,0.2,1.3,0.2c0.5,0,1.1,0.1,1.6,0.1s0.9,0,1.5-0.1c0.5,0,1-0.1,1.4-0.2l4.4-8.1l-4.4-8.2
			C-69.4,276-69.9,275.9-70.3,275.9z"/>
		<path class="st2" d="M-81.1,275.4c-4.9-1.6-10.1,1-11.7,5.9c-1.5,4.6,0.8,9.6,5.2,11.4l8.5,3.5l0,0l0.4-0.6c0.3-0.5,0.6-1,0.9-1.6
			l0,0c0.2-0.4,0.3-0.7,0.4-1.1c0.1-0.4,0.2-0.8,0.3-1.3l-1-0.4c3.9-3.3,4.4-9.1,1.2-13C-78.1,276.9-79.5,275.9-81.1,275.4
			L-81.1,275.4z M-80.1,285.8c-0.9,2.2-3.4,3.2-5.6,2.3c-2.2-0.9-3.2-3.4-2.3-5.6s3.4-3.2,5.6-2.3c0,0,0,0,0,0
			C-80.2,281.1-79.2,283.6-80.1,285.8L-80.1,285.8z"/>
	</g>
</g>
<path class="st2" d="M-251.7,271v1.4h-2.8v7.8h-1.7v-7.8h-2.8V271H-251.7z"/>
<path class="st2" d="M-249.3,273.6c0.4,0,0.8,0.1,1.1,0.2c0.3,0.1,0.6,0.3,0.9,0.6c0.3,0.3,0.5,0.6,0.6,0.9c0.1,0.4,0.2,0.8,0.2,1.3
	c0,0.1,0,0.2,0,0.3c0,0.1,0,0.1-0.1,0.2c0,0-0.1,0.1-0.1,0.1c-0.1,0-0.1,0-0.2,0h-4c0,0.5,0.2,1.1,0.5,1.5c0.3,0.3,0.8,0.5,1.3,0.5
	c0.2,0,0.4,0,0.7-0.1c0.2,0,0.3-0.1,0.5-0.2l0.4-0.2c0.1-0.1,0.2-0.1,0.3-0.1c0.1,0,0.1,0,0.2,0c0,0,0.1,0.1,0.1,0.1l0.5,0.6
	c-0.2,0.2-0.4,0.4-0.6,0.5c-0.2,0.1-0.4,0.2-0.7,0.3c-0.2,0.1-0.5,0.1-0.7,0.2c-0.2,0-0.5,0.1-0.7,0c-0.4,0-0.9-0.1-1.3-0.2
	c-0.4-0.1-0.7-0.4-1-0.7c-0.3-0.3-0.5-0.7-0.7-1.1c-0.2-0.5-0.3-1-0.3-1.5c0-0.4,0.1-0.9,0.2-1.3c0.1-0.4,0.3-0.7,0.6-1
	c0.3-0.3,0.6-0.5,1-0.7C-250.1,273.6-249.7,273.6-249.3,273.6z M-249.3,274.7c-0.4,0-0.8,0.1-1.1,0.4c-0.3,0.3-0.5,0.7-0.5,1.1h3
	c0-0.2,0-0.4-0.1-0.6c-0.1-0.2-0.1-0.3-0.3-0.5c-0.1-0.1-0.3-0.2-0.4-0.3C-248.8,274.7-249.1,274.7-249.3,274.7L-249.3,274.7z"/>
<path class="st2" d="M-245.2,280.2v-6.5h1c0.2,0,0.4,0.1,0.4,0.3l0.1,0.5c0.1-0.1,0.3-0.3,0.4-0.4c0.1-0.1,0.3-0.2,0.5-0.3
	c0.2-0.1,0.3-0.1,0.5-0.2c0.2,0,0.4-0.1,0.6-0.1c0.3,0,0.6,0.1,1,0.2c0.3,0.1,0.5,0.3,0.7,0.5c0.2,0.2,0.3,0.5,0.4,0.8
	c0.1,0.3,0.1,0.7,0.1,1v4.2h-1.6V276c0-0.3-0.1-0.7-0.3-0.9c-0.2-0.2-0.5-0.4-0.8-0.3c-0.3,0-0.6,0.1-0.8,0.2
	c-0.2,0.1-0.5,0.3-0.7,0.5v4.7L-245.2,280.2z"/>
<path class="st8" d="M-224.3,274.6c0,0.5,0,0.9-0.1,1.4c-0.1,0.4-0.2,0.9-0.4,1.3c-0.2,0.4-0.4,0.8-0.7,1.1
	c-0.3,0.3-0.6,0.6-0.9,0.9l2.9,3.1h-2.2c-0.3,0-0.6,0-0.8-0.1c-0.3-0.1-0.5-0.2-0.7-0.4l-1.4-1.6c-0.2,0-0.5,0.1-0.7,0.1
	c-0.2,0-0.5,0-0.7,0c-0.8,0-1.6-0.1-2.4-0.4c-1.4-0.5-2.5-1.7-3-3.1c-0.6-1.5-0.6-3.1,0-4.6c0.3-0.7,0.7-1.3,1.2-1.8
	c0.5-0.5,1.2-0.9,1.9-1.2c1.5-0.6,3.3-0.6,4.8,0c0.7,0.3,1.3,0.7,1.9,1.2c0.5,0.5,0.9,1.1,1.2,1.8
	C-224.4,273-224.3,273.8-224.3,274.6z M-227,274.6c0-0.5-0.1-1-0.2-1.5c-0.1-0.4-0.3-0.8-0.6-1.1c-0.3-0.3-0.6-0.6-1-0.7
	c-0.4-0.2-0.9-0.2-1.3-0.2c-0.5,0-0.9,0.1-1.3,0.3c-0.4,0.2-0.7,0.4-1,0.7c-0.3,0.3-0.5,0.7-0.6,1.1c-0.2,0.5-0.2,1-0.2,1.5
	c0,0.5,0.1,1,0.2,1.5c0.1,0.4,0.3,0.8,0.6,1.1c0.3,0.3,0.6,0.6,1,0.7c0.4,0.2,0.9,0.2,1.3,0.2c0.5,0,0.9-0.1,1.3-0.2
	c0.4-0.2,0.7-0.4,1-0.7c0.3-0.3,0.5-0.7,0.6-1.1C-227,275.6-227,275.1-227,274.6L-227,274.6z"/>
<path class="st8" d="M-220.8,272.2v5.1c0,0.3,0.1,0.7,0.3,0.9c0.2,0.2,0.5,0.3,0.8,0.3c0.3,0,0.5-0.1,0.7-0.2
	c0.2-0.1,0.5-0.3,0.7-0.5v-5.7h2.4v8h-1.5c-0.3,0-0.5-0.1-0.6-0.4l-0.1-0.5c-0.2,0.1-0.3,0.3-0.5,0.4c-0.2,0.1-0.3,0.2-0.5,0.3
	c-0.2,0.1-0.4,0.2-0.6,0.2c-0.2,0-0.5,0.1-0.7,0.1c-0.4,0-0.8-0.1-1.2-0.2c-0.3-0.1-0.6-0.4-0.9-0.6c-0.2-0.3-0.4-0.6-0.5-1
	c-0.1-0.4-0.2-0.8-0.2-1.2v-5.1L-220.8,272.2z"/>
<path class="st8" d="M-211.3,270c0,0.2,0,0.4-0.1,0.5c-0.1,0.2-0.2,0.3-0.3,0.4c-0.1,0.1-0.3,0.2-0.5,0.3c-0.2,0.1-0.4,0.1-0.6,0.1
	c-0.2,0-0.4,0-0.6-0.1c-0.2-0.1-0.3-0.2-0.5-0.3c-0.3-0.3-0.4-0.6-0.4-1c0-0.2,0-0.4,0.1-0.6c0.1-0.2,0.2-0.3,0.3-0.4
	c0.1-0.1,0.3-0.2,0.5-0.3c0.2-0.1,0.4-0.1,0.6-0.1c0.2,0,0.4,0,0.6,0.1c0.2,0.1,0.3,0.2,0.5,0.3c0.1,0.1,0.2,0.3,0.3,0.4
	C-211.3,269.6-211.3,269.8-211.3,270z M-211.6,272.2v8h-2.4v-8H-211.6z"/>
<path class="st8" d="M-207.2,268.6v6.5h0.4c0.1,0,0.2,0,0.3-0.1c0.1-0.1,0.2-0.1,0.2-0.2l1.5-2.3c0.1-0.1,0.2-0.2,0.3-0.3
	c0.1-0.1,0.3-0.1,0.5-0.1h2.2l-2.1,2.8c-0.1,0.1-0.2,0.3-0.3,0.4c-0.1,0.1-0.2,0.2-0.4,0.3c0.2,0.2,0.4,0.4,0.6,0.7l2.3,3.8h-2.2
	c-0.2,0-0.3,0-0.5-0.1c-0.1-0.1-0.3-0.2-0.3-0.3l-1.5-2.8c0-0.1-0.1-0.2-0.2-0.3c-0.1,0-0.2-0.1-0.3-0.1h-0.5v3.6h-2.4v-11.6H-207.2
	z"/>
<path class="st2" d="M-255.6,288.5c0.4,0,0.8,0.1,1.1,0.2c0.3,0.1,0.6,0.3,0.9,0.6c0.3,0.3,0.5,0.6,0.6,0.9c0.1,0.4,0.2,0.8,0.2,1.3
	c0,0.1,0,0.2,0,0.3c0,0.1,0,0.1,0,0.2c0,0-0.1,0.1-0.1,0.1c-0.1,0-0.1,0-0.2,0h-4c0,0.5,0.2,1.1,0.5,1.5c0.3,0.3,0.8,0.5,1.3,0.5
	c0.2,0,0.4,0,0.7-0.1c0.2-0.1,0.3-0.1,0.5-0.2l0.4-0.2c0.1-0.1,0.2-0.1,0.3-0.1c0.1,0,0.1,0,0.2,0c0,0,0.1,0.1,0.1,0.1l0.4,0.6
	c-0.2,0.2-0.4,0.4-0.6,0.5c-0.2,0.1-0.4,0.2-0.7,0.3c-0.2,0.1-0.5,0.1-0.7,0.2c-0.2,0-0.5,0-0.7,0c-0.5,0-0.9,0-1.4-0.1
	c-0.4-0.1-0.7-0.4-1-0.7c-0.3-0.3-0.5-0.7-0.7-1.1c-0.2-0.5-0.3-1-0.3-1.5c0-0.4,0.1-0.9,0.2-1.3c0.1-0.4,0.4-0.7,0.6-1
	c0.3-0.3,0.6-0.5,1-0.7C-256.5,288.6-256,288.5-255.6,288.5z M-255.6,289.6c-0.4,0-0.8,0.1-1.1,0.4c-0.3,0.3-0.5,0.7-0.5,1.1h3
	c0-0.2,0-0.4-0.1-0.6c-0.1-0.2-0.1-0.3-0.3-0.5c-0.1-0.1-0.3-0.2-0.4-0.3C-255.1,289.7-255.3,289.6-255.6,289.6L-255.6,289.6z"/>
<path class="st2" d="M-251.5,295.1v-6.5h1c0.2,0,0.4,0.1,0.4,0.3l0.1,0.5c0.1-0.1,0.3-0.3,0.4-0.4c0.1-0.1,0.3-0.2,0.5-0.3
	c0.2-0.1,0.3-0.1,0.5-0.2c0.2,0,0.4-0.1,0.6-0.1c0.3,0,0.6,0.1,0.9,0.2c0.3,0.1,0.5,0.3,0.7,0.5c0.2,0.2,0.3,0.5,0.4,0.8
	c0.1,0.3,0.1,0.7,0.1,1v4.2h-1.6V291c0-0.3-0.1-0.7-0.3-0.9c-0.2-0.2-0.5-0.4-0.8-0.3c-0.3,0-0.5,0.1-0.8,0.2
	c-0.3,0.1-0.5,0.3-0.7,0.5v4.7H-251.5z"/>
<path class="st2" d="M-239.6,295.3c-0.5,0-1-0.1-1.3-0.5c-0.3-0.4-0.5-0.8-0.5-1.3v-3.7h-0.7c-0.1,0-0.2,0-0.2-0.1
	c-0.1-0.1-0.1-0.2-0.1-0.3v-0.6l1.1-0.2l0.3-1.8c0-0.1,0.1-0.1,0.1-0.2c0.1,0,0.1-0.1,0.2-0.1h0.8v2.1h1.7v1.1h-1.7v3.5
	c0,0.2,0,0.3,0.2,0.5c0.1,0.1,0.3,0.2,0.4,0.2c0.1,0,0.2,0,0.3,0l0.2-0.1l0.1-0.1c0,0,0.1,0,0.1,0c0,0,0.1,0,0.1,0
	c0,0,0.1,0.1,0.1,0.1l0.5,0.8c-0.2,0.2-0.5,0.3-0.8,0.4C-239,295.2-239.3,295.3-239.6,295.3z"/>
<path class="st2" d="M-235.4,288.6v4.1c0,0.3,0.1,0.7,0.3,0.9c0.2,0.2,0.5,0.3,0.8,0.3c0.3,0,0.5-0.1,0.8-0.2
	c0.3-0.1,0.5-0.3,0.7-0.5v-4.7h1.6v6.5h-1c-0.2,0-0.3-0.1-0.4-0.3l-0.1-0.5c-0.1,0.1-0.3,0.3-0.4,0.4c-0.1,0.1-0.3,0.2-0.5,0.3
	c-0.2,0.1-0.3,0.1-0.5,0.2c-0.2,0-0.4,0.1-0.6,0.1c-0.3,0-0.7,0-1-0.2c-0.3-0.1-0.5-0.3-0.7-0.5c-0.2-0.2-0.3-0.5-0.4-0.8
	c-0.1-0.3-0.2-0.7-0.2-1v-4.2H-235.4z"/>
<path class="st2" d="M-227.2,295.1v-6.5h1c0.2,0,0.4,0.1,0.4,0.3l0.1,0.5c0.1-0.1,0.3-0.3,0.4-0.4c0.1-0.1,0.3-0.2,0.5-0.3
	c0.2-0.1,0.3-0.1,0.5-0.2c0.2,0,0.4-0.1,0.6-0.1c0.3,0,0.7,0,1,0.2c0.3,0.1,0.5,0.3,0.7,0.5c0.2,0.2,0.3,0.5,0.4,0.8
	c0.1,0.3,0.1,0.7,0.1,1v4.2h-1.6V291c0-0.3-0.1-0.7-0.3-0.9c-0.2-0.2-0.5-0.4-0.8-0.3c-0.3,0-0.5,0.1-0.8,0.2
	c-0.3,0.1-0.5,0.3-0.7,0.5v4.7H-227.2z"/>
<path class="st2" d="M-217.2,288.5c0.4,0,0.8,0.1,1.1,0.2c0.3,0.1,0.6,0.3,0.9,0.6c0.3,0.3,0.5,0.6,0.6,0.9c0.1,0.4,0.2,0.8,0.2,1.3
	c0,0.1,0,0.2,0,0.3c0,0.1,0,0.1-0.1,0.2c0,0-0.1,0.1-0.1,0.1c-0.1,0-0.1,0-0.2,0h-4c0,0.5,0.2,1.1,0.6,1.5c0.3,0.3,0.8,0.5,1.2,0.5
	c0.2,0,0.4,0,0.7-0.1c0.2-0.1,0.3-0.1,0.5-0.2l0.4-0.2c0.1-0.1,0.2-0.1,0.3-0.1c0.1,0,0.1,0,0.2,0c0,0,0.1,0.1,0.1,0.1l0.5,0.6
	c-0.2,0.2-0.4,0.4-0.6,0.5c-0.2,0.1-0.4,0.2-0.7,0.3c-0.2,0.1-0.5,0.1-0.7,0.2c-0.2,0-0.5,0-0.7,0c-0.4,0-0.9,0-1.3-0.1
	c-0.4-0.1-0.7-0.4-1-0.7c-0.3-0.3-0.5-0.7-0.7-1.1c-0.2-0.5-0.3-1-0.3-1.5c0-0.4,0.1-0.9,0.2-1.3c0.1-0.4,0.3-0.7,0.6-1
	c0.3-0.3,0.6-0.5,1-0.7C-218.1,288.6-217.7,288.5-217.2,288.5z M-217.2,289.6c-0.4,0-0.8,0.1-1.1,0.4c-0.3,0.3-0.5,0.7-0.5,1.1h3
	c0-0.2,0-0.4-0.1-0.6c-0.1-0.2-0.1-0.3-0.3-0.5c-0.1-0.1-0.3-0.2-0.4-0.3C-216.8,289.7-217,289.6-217.2,289.6L-217.2,289.6z"/>
<path class="st2" d="M-210.9,288.5c0.3,0,0.5,0,0.8,0.1c0.2,0.1,0.5,0.1,0.7,0.3h1.9v0.6c0,0.1,0,0.2-0.1,0.2
	c-0.1,0.1-0.2,0.1-0.3,0.1l-0.6,0.1c0,0.1,0.1,0.2,0.1,0.4c0,0.1,0,0.3,0,0.4c0,0.3-0.1,0.6-0.2,0.9c-0.1,0.3-0.3,0.5-0.5,0.7
	c-0.2,0.2-0.5,0.3-0.8,0.4c-0.3,0.1-0.7,0.2-1,0.2c-0.2,0-0.5,0-0.7-0.1c-0.2,0.1-0.3,0.2-0.3,0.4c0,0.1,0.1,0.2,0.2,0.3
	c0.1,0.1,0.3,0.1,0.5,0.1c0.2,0,0.5,0,0.7,0h0.8c0.3,0,0.5,0.1,0.8,0.1c0.2,0.1,0.5,0.1,0.7,0.3c0.2,0.1,0.4,0.3,0.5,0.5
	c0.1,0.2,0.2,0.5,0.2,0.8c0,0.3-0.1,0.6-0.2,0.8c-0.1,0.3-0.4,0.5-0.6,0.7c-0.3,0.2-0.6,0.4-1,0.5c-0.4,0.1-0.9,0.2-1.3,0.2
	c-0.4,0-0.9,0-1.3-0.1c-0.3-0.1-0.6-0.2-0.9-0.4c-0.2-0.1-0.4-0.3-0.5-0.6c-0.1-0.2-0.2-0.4-0.2-0.6c0-0.3,0.1-0.6,0.3-0.8
	c0.2-0.2,0.5-0.4,0.8-0.5c-0.2-0.1-0.3-0.2-0.4-0.4c-0.1-0.2-0.1-0.4-0.1-0.6c0-0.1,0-0.2,0.1-0.3c0-0.1,0.1-0.2,0.2-0.3
	c0.1-0.1,0.2-0.2,0.3-0.3c0.1-0.1,0.2-0.2,0.4-0.2c-0.3-0.2-0.6-0.4-0.8-0.7c-0.2-0.3-0.3-0.6-0.3-1c0-0.3,0.1-0.6,0.2-0.9
	c0.1-0.3,0.3-0.5,0.6-0.7c0.2-0.2,0.5-0.3,0.8-0.4C-211.6,288.5-211.2,288.5-210.9,288.5z M-209.1,295.4c0-0.1,0-0.2-0.1-0.3
	c-0.1-0.1-0.2-0.2-0.3-0.2c-0.1-0.1-0.3-0.1-0.5-0.1c-0.2,0-0.4,0-0.6,0h-0.6c-0.2,0-0.4,0-0.6-0.1c-0.2,0.1-0.3,0.2-0.4,0.4
	c-0.1,0.1-0.2,0.3-0.2,0.5c0,0.1,0,0.2,0.1,0.3c0.1,0.1,0.2,0.2,0.3,0.3c0.1,0.1,0.3,0.1,0.5,0.2c0.2,0,0.5,0.1,0.7,0.1
	c0.3,0,0.5,0,0.8-0.1c0.2,0,0.4-0.1,0.5-0.2C-209.3,296-209.1,295.7-209.1,295.4L-209.1,295.4z M-210.9,291.7c0.2,0,0.3,0,0.5-0.1
	c0.1-0.1,0.3-0.1,0.4-0.2c0.1-0.1,0.2-0.2,0.2-0.3c0-0.1,0.1-0.3,0.1-0.4c0-0.3-0.1-0.6-0.3-0.8c-0.2-0.2-0.6-0.3-0.9-0.3
	c-0.3,0-0.6,0.1-0.9,0.3c-0.2,0.2-0.3,0.5-0.3,0.8c0,0.1,0,0.3,0.1,0.4c0,0.1,0.1,0.2,0.2,0.3c0.1,0.1,0.2,0.2,0.4,0.2
	C-211.2,291.7-211,291.7-210.9,291.7z"/>
<path class="st2" d="M-203.8,288.5c0.5,0,0.9,0.1,1.3,0.2c0.4,0.2,0.7,0.4,1,0.7c0.3,0.3,0.5,0.7,0.6,1.1c0.3,0.9,0.3,1.9,0,2.8
	c-0.1,0.4-0.4,0.8-0.6,1.1c-0.3,0.3-0.6,0.5-1,0.7c-0.9,0.3-1.8,0.3-2.7,0c-0.4-0.2-0.7-0.4-1-0.7c-0.3-0.3-0.5-0.7-0.7-1.1
	c-0.3-0.9-0.3-1.9,0-2.8c0.1-0.4,0.4-0.8,0.7-1.1c0.3-0.3,0.6-0.5,1-0.7C-204.7,288.6-204.2,288.5-203.8,288.5z M-203.8,294
	c0.5,0,0.9-0.2,1.2-0.6c0.3-0.5,0.4-1,0.4-1.6c0-0.6-0.1-1.1-0.4-1.6c-0.3-0.4-0.7-0.6-1.2-0.6c-0.5,0-0.9,0.2-1.2,0.6
	c-0.3,0.5-0.4,1-0.4,1.6c0,0.6,0.1,1.1,0.4,1.6C-204.7,293.9-204.2,294-203.8,294L-203.8,294z"/>
<path class="st2" d="M-194.7,290c0,0.1-0.1,0.1-0.1,0.1c-0.1,0-0.1,0-0.2,0c-0.1,0-0.2,0-0.2-0.1l-0.3-0.1c-0.1-0.1-0.2-0.1-0.4-0.2
	c-0.2-0.1-0.4-0.1-0.5-0.1c-0.2,0-0.5,0-0.7,0.1c-0.2,0.1-0.4,0.2-0.5,0.4c-0.1,0.2-0.2,0.4-0.3,0.7c-0.1,0.3-0.1,0.6-0.1,0.9
	c0,0.3,0,0.6,0.1,0.9c0.1,0.2,0.2,0.5,0.3,0.7c0.1,0.2,0.3,0.3,0.5,0.4c0.2,0.1,0.4,0.1,0.7,0.1c0.2,0,0.4,0,0.6-0.1
	c0.1,0,0.3-0.1,0.4-0.2l0.3-0.2c0.1-0.1,0.2-0.1,0.3-0.1c0.1,0,0.2,0,0.3,0.1l0.5,0.6c-0.2,0.2-0.4,0.4-0.6,0.5
	c-0.2,0.1-0.4,0.2-0.6,0.3c-0.2,0.1-0.4,0.1-0.7,0.2c-0.2,0-0.5,0-0.7,0c-0.4,0-0.8-0.1-1.2-0.2c-0.4-0.1-0.7-0.4-0.9-0.7
	c-0.3-0.3-0.5-0.7-0.6-1.1c-0.2-0.5-0.2-0.9-0.2-1.4c0-0.5,0.1-0.9,0.2-1.3c0.1-0.4,0.3-0.8,0.6-1.1c0.3-0.3,0.6-0.5,1-0.7
	c0.4-0.2,0.9-0.3,1.4-0.3c0.4,0,0.9,0.1,1.3,0.2c0.4,0.2,0.7,0.4,1,0.7L-194.7,290z"/>
<path class="st2" d="M-191.3,286.7c0,0.1,0,0.3-0.1,0.4c-0.1,0.1-0.1,0.2-0.2,0.3c-0.1,0.1-0.2,0.2-0.3,0.2c-0.2,0.1-0.5,0.1-0.8,0
	c-0.2-0.1-0.4-0.3-0.5-0.5c-0.1-0.1-0.1-0.2-0.1-0.4c0-0.1,0-0.3,0.1-0.4c0.1-0.1,0.2-0.2,0.3-0.3c0.1-0.1,0.2-0.2,0.3-0.2
	c0.2-0.1,0.5-0.1,0.8,0c0.1,0.1,0.2,0.1,0.3,0.2c0.1,0.1,0.2,0.2,0.2,0.3C-191.3,286.4-191.3,286.6-191.3,286.7z M-191.6,288.6v6.5
	h-1.6v-6.5H-191.6z"/>
<path class="st2" d="M-187,288.5c0.5,0,0.9,0.1,1.3,0.2c0.4,0.2,0.7,0.4,1,0.7c0.3,0.3,0.5,0.7,0.7,1.1c0.3,0.9,0.3,1.9,0,2.8
	c-0.1,0.4-0.4,0.8-0.6,1.1c-0.3,0.3-0.6,0.5-1,0.7c-0.4,0.2-0.9,0.2-1.3,0.2c-0.5,0-0.9-0.1-1.3-0.3c-0.4-0.2-0.7-0.4-1-0.7
	c-0.3-0.3-0.5-0.7-0.7-1.1c-0.3-0.9-0.3-1.9,0-2.8c0.1-0.4,0.4-0.8,0.6-1.1c0.3-0.3,0.6-0.5,1-0.7
	C-187.9,288.6-187.5,288.5-187,288.5z M-187,294c0.5,0,0.9-0.2,1.2-0.5c0.3-0.5,0.4-1,0.4-1.6c0-0.6-0.1-1.1-0.4-1.6
	c-0.3-0.4-0.7-0.6-1.2-0.5c-0.5,0-0.9,0.2-1.2,0.6c-0.3,0.5-0.4,1-0.4,1.6c0,0.6,0.1,1.1,0.4,1.6C-187.9,293.9-187.5,294-187,294z"
	/>
<path class="st2" d="M-256.9,307.2c0,0.1-0.1,0.1-0.1,0.2c-0.1,0-0.1,0.1-0.2,0.1h-0.7l0.9-2l-2-4.8h0.8c0.1,0,0.1,0,0.2,0.1
	c0,0,0.1,0.1,0.1,0.1l1.3,3.2c0,0.1,0.1,0.1,0.1,0.2c0,0.1,0,0.2,0.1,0.2c0-0.1,0-0.2,0.1-0.2c0-0.1,0-0.1,0.1-0.2l1.3-3.2
	c0-0.1,0.1-0.1,0.1-0.1c0,0,0.1,0,0.2,0h0.7L-256.9,307.2z"/>
<path class="st2" d="M-247.7,305.7h-0.4c-0.1,0-0.1,0-0.2,0c-0.1,0-0.1-0.1-0.1-0.2l-0.1-0.5c-0.1,0.1-0.3,0.2-0.4,0.3
	c-0.1,0.1-0.3,0.2-0.4,0.2c-0.1,0.1-0.3,0.1-0.4,0.1c-0.2,0-0.3,0-0.5,0c-0.2,0-0.4,0-0.6-0.1c-0.2,0-0.3-0.1-0.4-0.2
	c-0.1-0.1-0.2-0.3-0.3-0.4c-0.1-0.2-0.1-0.4-0.1-0.6c0-0.2,0.1-0.4,0.2-0.6c0.1-0.2,0.3-0.4,0.5-0.5c0.3-0.1,0.6-0.3,0.9-0.3
	c0.5-0.1,1-0.1,1.4-0.1v-0.4c0-0.3-0.1-0.6-0.3-0.9c-0.2-0.2-0.5-0.3-0.8-0.3c-0.2,0-0.4,0-0.5,0.1c-0.1,0-0.3,0.1-0.4,0.2
	c-0.1,0.1-0.2,0.1-0.3,0.2c-0.1,0-0.2,0.1-0.2,0.1c-0.1,0-0.1,0-0.1,0c0,0-0.1-0.1-0.1-0.1l-0.2-0.3c0.5-0.5,1.3-0.8,2-0.8
	c0.3,0,0.5,0,0.8,0.1c0.2,0.1,0.4,0.2,0.5,0.4c0.2,0.2,0.3,0.4,0.3,0.6c0.1,0.3,0.1,0.5,0.1,0.8L-247.7,305.7z M-250,305.1
	c0.1,0,0.3,0,0.4,0c0.1,0,0.3-0.1,0.4-0.1c0.1-0.1,0.2-0.1,0.3-0.2c0.1-0.1,0.2-0.2,0.3-0.3v-1c-0.3,0-0.7,0-1,0.1
	c-0.2,0-0.5,0.1-0.7,0.2c-0.2,0.1-0.3,0.2-0.4,0.3c-0.1,0.1-0.1,0.2-0.1,0.4c0,0.1,0,0.2,0.1,0.4c0,0.1,0.1,0.2,0.2,0.2
	c0.1,0.1,0.2,0.1,0.3,0.1C-250.2,305.2-250.1,305.1-250,305.1z"/>
<path class="st2" d="M-245.6,300.6v3.2c0,0.3,0.1,0.6,0.3,0.9c0.2,0.2,0.5,0.3,0.8,0.3c0.3,0,0.5-0.1,0.7-0.2
	c0.2-0.1,0.5-0.3,0.6-0.5v-3.7h0.9v5h-0.5c-0.1,0-0.2-0.1-0.2-0.2l-0.1-0.5c-0.2,0.2-0.5,0.4-0.7,0.6c-0.3,0.1-0.6,0.2-0.9,0.2
	c-0.3,0-0.5,0-0.7-0.1c-0.2-0.1-0.4-0.2-0.5-0.4c-0.2-0.2-0.3-0.4-0.3-0.6c-0.1-0.3-0.1-0.5-0.1-0.8v-3.2H-245.6z"/>
<path class="st2" d="M-240.8,305.7v-5h0.5c0.1,0,0.2,0.1,0.2,0.2l0.1,0.5c0.2-0.2,0.4-0.4,0.6-0.6c0.2-0.2,0.5-0.2,0.8-0.2
	c0.3,0,0.6,0.1,0.8,0.3c0.2,0.2,0.4,0.5,0.5,0.8c0.1-0.2,0.2-0.3,0.3-0.5c0.1-0.1,0.2-0.2,0.4-0.3c0.1-0.1,0.3-0.2,0.5-0.2
	c0.2,0,0.3-0.1,0.5-0.1c0.2,0,0.5,0,0.7,0.1c0.2,0.1,0.4,0.2,0.5,0.4c0.1,0.2,0.3,0.4,0.3,0.6c0.1,0.3,0.1,0.5,0.1,0.8v3.2h-0.9
	v-3.2c0-0.3-0.1-0.6-0.3-0.9c-0.2-0.2-0.5-0.3-0.8-0.3c-0.3,0-0.6,0.1-0.8,0.3c-0.1,0.1-0.2,0.2-0.2,0.4c-0.1,0.2-0.1,0.3-0.1,0.5
	v3.2h-0.9v-3.2c0-0.3-0.1-0.6-0.2-0.9c-0.2-0.2-0.4-0.3-0.7-0.3c-0.2,0-0.4,0.1-0.6,0.2c-0.2,0.1-0.4,0.3-0.5,0.5v3.8H-240.8z"/>
<path class="st2" d="M-230.6,300.5c0.3,0,0.6,0,0.8,0.1c0.2,0.1,0.5,0.3,0.7,0.4c0.2,0.2,0.3,0.4,0.4,0.7c0.1,0.3,0.2,0.7,0.1,1
	c0,0.1,0,0.2,0,0.3c0,0-0.1,0.1-0.2,0.1h-3.4c0,0.3,0,0.5,0.1,0.8c0.1,0.2,0.2,0.4,0.3,0.6c0.1,0.2,0.3,0.3,0.5,0.4
	c0.2,0.1,0.4,0.1,0.7,0.1c0.2,0,0.4,0,0.6-0.1c0.1,0,0.3-0.1,0.4-0.2c0.1,0,0.2-0.1,0.3-0.2c0.1,0,0.1-0.1,0.2-0.1
	c0.1,0,0.1,0,0.2,0.1l0.3,0.3c-0.1,0.1-0.2,0.3-0.4,0.4c-0.2,0.1-0.3,0.2-0.5,0.2c-0.2,0.1-0.4,0.1-0.5,0.1c-0.2,0-0.4,0-0.6,0.1
	c-0.3,0-0.7-0.1-1-0.2c-0.3-0.1-0.6-0.3-0.8-0.5c-0.2-0.2-0.4-0.5-0.5-0.8c-0.1-0.4-0.2-0.8-0.1-1.2c0-0.3,0-0.7,0.2-1
	c0.1-0.3,0.3-0.6,0.5-0.8c0.2-0.2,0.5-0.4,0.8-0.5C-231.3,300.6-231,300.5-230.6,300.5z M-230.6,301.2c-0.4,0-0.7,0.1-1,0.4
	c-0.3,0.3-0.4,0.6-0.5,1h2.8c0-0.2,0-0.4-0.1-0.6c-0.1-0.2-0.1-0.3-0.3-0.5c-0.1-0.1-0.2-0.2-0.4-0.3
	C-230.2,301.2-230.4,301.2-230.6,301.2L-230.6,301.2z"/>
<path class="st2" d="M-227.4,305.7v-5h0.5c0.1,0,0.2,0.1,0.2,0.2l0.1,0.5c0.2-0.2,0.5-0.4,0.7-0.6c0.3-0.2,0.6-0.2,0.9-0.2
	c0.3,0,0.5,0,0.7,0.1c0.2,0.1,0.4,0.2,0.5,0.4c0.1,0.2,0.3,0.4,0.3,0.6c0.1,0.3,0.1,0.5,0.1,0.8v3.2h-0.9v-3.2
	c0-0.3-0.1-0.6-0.3-0.9c-0.2-0.2-0.5-0.3-0.8-0.3c-0.3,0-0.5,0.1-0.7,0.2c-0.2,0.1-0.5,0.3-0.6,0.5v3.7H-227.4z"/>
<path class="st2" d="M-220.3,305.8c-0.3,0-0.7-0.1-0.9-0.3c-0.2-0.3-0.4-0.6-0.3-1v-3.1h-0.6c0,0-0.1,0-0.1,0c0,0-0.1-0.1-0.1-0.1
	v-0.4l0.8-0.1l0.2-1.6c0,0,0-0.1,0.1-0.1c0,0,0.1-0.1,0.1-0.1h0.4v1.7h1.4v0.6h-1.4v3c0,0.2,0,0.3,0.2,0.5c0.1,0.1,0.3,0.2,0.4,0.1
	c0.1,0,0.2,0,0.2,0c0.1,0,0.1,0,0.2-0.1l0.1-0.1c0,0,0.1,0,0.1,0c0.1,0,0.1,0,0.1,0.1l0.3,0.4c-0.2,0.1-0.3,0.3-0.6,0.3
	C-219.9,305.8-220.1,305.8-220.3,305.8z"/>
<path class="st2" d="M-214.4,305.7h-0.4c-0.1,0-0.1,0-0.2,0c-0.1,0-0.1-0.1-0.1-0.2l-0.1-0.5l-0.4,0.3c-0.1,0.1-0.3,0.2-0.4,0.2
	c-0.1,0.1-0.3,0.1-0.5,0.1c-0.2,0-0.3,0-0.5,0c-0.2,0-0.4,0-0.6-0.1c-0.2,0-0.3-0.1-0.4-0.2c-0.1-0.1-0.2-0.3-0.3-0.4
	c-0.1-0.2-0.1-0.4-0.1-0.6c0-0.2,0.1-0.4,0.2-0.6c0.1-0.2,0.3-0.4,0.5-0.5c0.3-0.2,0.7-0.3,1-0.4c0.5-0.1,1-0.1,1.4-0.1v-0.4
	c0-0.3-0.1-0.6-0.3-0.9c-0.2-0.2-0.5-0.3-0.7-0.3c-0.2,0-0.4,0-0.6,0.1c-0.1,0.1-0.3,0.1-0.4,0.2c-0.1,0.1-0.2,0.1-0.3,0.2
	c-0.1,0-0.1,0.1-0.2,0.1c-0.1,0-0.1,0-0.2-0.1c0,0-0.1-0.1-0.1-0.1l-0.2-0.3c0.5-0.5,1.3-0.8,2-0.8c0.3,0,0.5,0,0.8,0.1
	c0.2,0.1,0.4,0.2,0.5,0.4c0.2,0.2,0.3,0.4,0.3,0.6c0.1,0.3,0.1,0.5,0.1,0.8L-214.4,305.7z M-216.7,305.1c0.1,0,0.3,0,0.4,0
	c0.1,0,0.3-0.1,0.4-0.1c0.1-0.1,0.2-0.1,0.3-0.2c0.1-0.1,0.2-0.2,0.3-0.3v-1c-0.3,0-0.7,0-1,0.1c-0.2,0-0.5,0.1-0.7,0.2
	c-0.2,0.1-0.3,0.2-0.4,0.3c-0.1,0.1-0.1,0.2-0.1,0.4c0,0.1,0,0.2,0.1,0.4c0,0.1,0.1,0.2,0.2,0.2c0.1,0.1,0.2,0.1,0.3,0.1
	C-216.9,305.2-216.8,305.1-216.7,305.1z"/>
<path class="st2" d="M-209.6,305.8c-0.3,0-0.7-0.1-0.9-0.3c-0.2-0.3-0.4-0.6-0.3-1v-3.1h-0.6c0,0-0.1,0-0.1,0c0,0-0.1-0.1-0.1-0.1
	v-0.4l0.8-0.1l0.2-1.6c0,0,0-0.1,0.1-0.1c0,0,0.1-0.1,0.1-0.1h0.4v1.7h1.4v0.6h-1.4v3c0,0.2,0,0.3,0.1,0.5c0.1,0.1,0.3,0.2,0.4,0.1
	c0.1,0,0.2,0,0.2,0c0.1,0,0.1-0.1,0.2-0.1l0.1-0.1c0,0,0.1,0,0.1,0c0.1,0,0.1,0,0.1,0.1l0.3,0.4c-0.2,0.1-0.3,0.3-0.6,0.3
	C-209.2,305.7-209.4,305.8-209.6,305.8z"/>
<path class="st2" d="M-206.7,300.6v3.2c0,0.3,0.1,0.6,0.3,0.9c0.2,0.2,0.5,0.3,0.8,0.3c0.3,0,0.5-0.1,0.7-0.2
	c0.2-0.1,0.5-0.3,0.6-0.5v-3.7h0.9v5h-0.5c-0.1,0-0.2-0.1-0.2-0.2l-0.1-0.5c-0.2,0.2-0.5,0.4-0.7,0.6c-0.3,0.1-0.6,0.2-0.9,0.2
	c-0.3,0-0.5,0-0.7-0.1c-0.2-0.1-0.4-0.2-0.5-0.4c-0.2-0.2-0.3-0.4-0.3-0.6c-0.1-0.3-0.1-0.5-0.1-0.8v-3.2H-206.7z"/>
<path class="st2" d="M-196.3,305.7h-0.4c-0.1,0-0.1,0-0.2,0c-0.1,0-0.1-0.1-0.1-0.2l-0.1-0.5c-0.1,0.1-0.3,0.2-0.4,0.3
	c-0.1,0.1-0.3,0.2-0.4,0.2c-0.1,0.1-0.3,0.1-0.4,0.1c-0.2,0-0.4,0-0.5,0c-0.2,0-0.4,0-0.6-0.1c-0.2,0-0.3-0.1-0.4-0.2
	c-0.1-0.1-0.2-0.3-0.3-0.4c-0.1-0.2-0.1-0.4-0.1-0.6c0-0.2,0.1-0.4,0.2-0.6c0.1-0.2,0.3-0.4,0.5-0.5c0.3-0.2,0.7-0.3,1-0.4
	c0.5-0.1,1-0.1,1.4-0.1v-0.4c0-0.3-0.1-0.6-0.3-0.9c-0.2-0.2-0.5-0.3-0.7-0.3c-0.2,0-0.4,0-0.5,0.1c-0.1,0.1-0.3,0.1-0.4,0.2
	c-0.1,0.1-0.2,0.1-0.3,0.2c-0.1,0-0.1,0.1-0.2,0.1c-0.1,0-0.1,0-0.2-0.1c0,0-0.1-0.1-0.1-0.1l-0.2-0.3c0.5-0.5,1.3-0.8,2-0.8
	c0.3,0,0.5,0,0.8,0.1c0.2,0.1,0.4,0.2,0.6,0.4c0.2,0.2,0.3,0.4,0.3,0.6c0.1,0.3,0.1,0.5,0.1,0.8L-196.3,305.7z M-198.6,305.1
	c0.1,0,0.3,0,0.4,0c0.1,0,0.3-0.1,0.4-0.1c0.1-0.1,0.2-0.1,0.3-0.2c0.1-0.1,0.2-0.2,0.3-0.3v-1c-0.3,0-0.7,0-1,0.1
	c-0.2,0-0.5,0.1-0.7,0.2c-0.2,0.1-0.3,0.2-0.4,0.3c-0.1,0.1-0.1,0.2-0.1,0.4c0,0.1,0,0.2,0.1,0.4c0,0.1,0.1,0.2,0.2,0.2
	c0.1,0.1,0.2,0.1,0.3,0.1C-198.8,305.2-198.7,305.1-198.6,305.1z"/>
<path class="st2" d="M-193.9,298.3v7.3h-0.9v-7.3H-193.9z"/>
<path class="st2" d="M-188.9,301.5L-188.9,301.5c-0.1,0.1-0.1,0.1-0.2,0.1c-0.1,0-0.1,0-0.2-0.1l-0.2-0.1c-0.1-0.1-0.2-0.1-0.3-0.1
	c-0.2-0.1-0.3-0.1-0.5-0.1c-0.2,0-0.5,0-0.7,0.1c-0.2,0.1-0.4,0.2-0.5,0.4c-0.1,0.2-0.2,0.4-0.3,0.6c-0.1,0.3-0.1,0.5-0.1,0.8
	c0,0.3,0,0.6,0.1,0.8c0.1,0.2,0.2,0.4,0.3,0.6c0.1,0.2,0.3,0.3,0.5,0.4c0.2,0.1,0.4,0.1,0.6,0.1c0.2,0,0.4,0,0.5-0.1
	c0.1,0,0.2-0.1,0.3-0.2c0.1-0.1,0.2-0.1,0.2-0.2c0,0,0.1-0.1,0.2-0.1c0.1,0,0.1,0,0.2,0.1l0.3,0.3c-0.2,0.3-0.5,0.5-0.8,0.6
	c-0.3,0.1-0.7,0.2-1,0.2c-0.3,0-0.6-0.1-0.9-0.2c-0.3-0.1-0.5-0.3-0.7-0.5c-0.2-0.2-0.4-0.5-0.5-0.8c-0.1-0.4-0.2-0.7-0.2-1.1
	c0-0.3,0.1-0.7,0.2-1c0.1-0.3,0.2-0.6,0.5-0.8c0.2-0.2,0.5-0.4,0.7-0.5c0.3-0.1,0.7-0.2,1-0.2c0.3,0,0.6,0.1,0.9,0.2
	c0.3,0.1,0.5,0.3,0.7,0.5L-188.9,301.5z"/>
<path class="st2" d="M-184,305.7h-0.4c-0.1,0-0.1,0-0.2,0c-0.1,0-0.1-0.1-0.1-0.2l-0.1-0.5c-0.1,0.1-0.3,0.2-0.4,0.3
	c-0.1,0.1-0.3,0.2-0.4,0.2c-0.1,0.1-0.3,0.1-0.4,0.1c-0.2,0-0.4,0-0.5,0c-0.2,0-0.4,0-0.5-0.1c-0.2,0-0.3-0.1-0.4-0.2
	c-0.1-0.1-0.2-0.3-0.3-0.4c-0.1-0.2-0.1-0.4-0.1-0.6c0-0.2,0.1-0.4,0.2-0.6c0.1-0.2,0.3-0.4,0.5-0.5c0.3-0.2,0.7-0.3,1-0.4
	c0.5-0.1,1-0.1,1.4-0.1v-0.4c0-0.3-0.1-0.6-0.3-0.9c-0.2-0.2-0.5-0.3-0.7-0.3c-0.2,0-0.4,0-0.5,0.1c-0.1,0.1-0.3,0.1-0.4,0.2
	c-0.1,0.1-0.2,0.1-0.3,0.2c-0.1,0-0.1,0.1-0.2,0.1c-0.1,0-0.1,0-0.2-0.1c0,0-0.1-0.1-0.1-0.1l-0.2-0.3c0.5-0.5,1.3-0.8,2-0.8
	c0.3,0,0.5,0,0.8,0.1c0.2,0.1,0.4,0.2,0.6,0.4c0.2,0.2,0.3,0.4,0.3,0.6c0.1,0.3,0.1,0.5,0.1,0.8L-184,305.7z M-186.3,305.1
	c0.1,0,0.3,0,0.4,0c0.1,0,0.3-0.1,0.4-0.1c0.1-0.1,0.2-0.1,0.3-0.2c0.1-0.1,0.2-0.2,0.3-0.3v-1c-0.3,0-0.7,0-1,0.1
	c-0.2,0-0.5,0.1-0.7,0.2c-0.2,0-0.3,0.1-0.4,0.2c-0.1,0.1-0.1,0.2-0.1,0.4c0,0.1,0,0.2,0.1,0.4c0,0.1,0.1,0.2,0.2,0.2
	c0.1,0.1,0.2,0.1,0.3,0.1C-186.5,305.1-186.4,305.1-186.3,305.1L-186.3,305.1z"/>
<path class="st2" d="M-182.7,305.7v-5h0.5c0.1,0,0.2,0.1,0.2,0.2l0.1,0.5c0.2-0.2,0.5-0.4,0.7-0.6c0.3-0.2,0.6-0.2,0.9-0.2
	c0.3,0,0.5,0,0.7,0.1c0.2,0.1,0.4,0.2,0.5,0.4c0.1,0.2,0.3,0.4,0.3,0.6c0.1,0.3,0.1,0.5,0.1,0.8v3.2h-0.9v-3.2
	c0-0.3-0.1-0.6-0.3-0.9c-0.2-0.2-0.5-0.3-0.8-0.3c-0.3,0-0.5,0.1-0.7,0.2c-0.2,0.1-0.5,0.3-0.6,0.5v3.7H-182.7z"/>
<path class="st2" d="M-173.7,301.5L-173.7,301.5c-0.1,0.1-0.2,0.1-0.2,0.1c-0.1,0-0.1,0-0.2-0.1l-0.2-0.1c-0.1-0.1-0.2-0.1-0.3-0.1
	c-0.2-0.1-0.3-0.1-0.5-0.1c-0.2,0-0.5,0-0.7,0.1c-0.2,0.1-0.3,0.2-0.5,0.4c-0.1,0.2-0.2,0.4-0.3,0.6c-0.1,0.3-0.1,0.5-0.1,0.8
	c0,0.3,0,0.6,0.1,0.8c0.1,0.2,0.2,0.4,0.3,0.6c0.1,0.2,0.3,0.3,0.5,0.4c0.2,0.1,0.4,0.1,0.6,0.1c0.2,0,0.4,0,0.5-0.1
	c0.1,0,0.2-0.1,0.3-0.2c0.1-0.1,0.2-0.1,0.2-0.2c0,0,0.1-0.1,0.2-0.1c0.1,0,0.1,0,0.2,0.1l0.3,0.3c-0.2,0.3-0.5,0.5-0.8,0.6
	c-0.3,0.1-0.7,0.2-1,0.2c-0.3,0-0.6-0.1-0.9-0.2c-0.3-0.1-0.5-0.3-0.7-0.5c-0.2-0.2-0.4-0.5-0.5-0.8c-0.1-0.4-0.2-0.7-0.2-1.1
	c0-0.3,0.1-0.7,0.2-1c0.1-0.3,0.3-0.6,0.5-0.8c0.2-0.2,0.5-0.4,0.7-0.5c0.3-0.1,0.7-0.2,1-0.2c0.3,0,0.6,0.1,0.9,0.2
	c0.3,0.1,0.5,0.3,0.7,0.5L-173.7,301.5z"/>
<path class="st2" d="M-170.5,300.5c0.3,0,0.6,0,0.8,0.1c0.2,0.1,0.5,0.3,0.7,0.4c0.2,0.2,0.3,0.4,0.4,0.7c0.1,0.3,0.2,0.7,0.1,1
	c0,0.1,0,0.2,0,0.3c0,0-0.1,0.1-0.2,0.1h-3.4c0,0.3,0,0.6,0.1,0.8c0.1,0.2,0.2,0.4,0.3,0.6c0.1,0.2,0.3,0.3,0.5,0.4
	c0.2,0.1,0.4,0.1,0.6,0.1c0.2,0,0.4,0,0.6-0.1c0.1,0,0.3-0.1,0.4-0.2c0.1,0,0.2-0.1,0.3-0.2c0.1,0,0.1-0.1,0.2-0.1
	c0.1,0,0.1,0,0.2,0.1l0.3,0.3c-0.1,0.1-0.2,0.3-0.4,0.4c-0.2,0.1-0.3,0.2-0.5,0.2c-0.2,0.1-0.4,0.1-0.5,0.1c-0.2,0-0.4,0-0.5,0.1
	c-0.3,0-0.7-0.1-1-0.2c-0.3-0.1-0.6-0.3-0.8-0.5c-0.2-0.2-0.4-0.5-0.5-0.8c-0.1-0.4-0.1-0.8-0.1-1.2c0-0.3,0.1-0.7,0.2-1
	c0.1-0.3,0.3-0.6,0.5-0.8c0.2-0.2,0.5-0.4,0.7-0.5C-171.2,300.6-170.8,300.5-170.5,300.5z M-170.5,301.2c-0.4,0-0.7,0.1-1,0.4
	c-0.3,0.3-0.4,0.6-0.5,1h2.8c0-0.2,0-0.4-0.1-0.6c-0.1-0.2-0.1-0.3-0.3-0.5c-0.1-0.1-0.2-0.2-0.4-0.3
	C-170.1,301.2-170.3,301.2-170.5,301.2L-170.5,301.2z"/>
<path class="st2" d="M-255,312C-255,312-255,312.1-255,312c-0.1,0.1-0.2,0.1-0.2,0.1c-0.1,0-0.1,0-0.2-0.1c-0.1-0.1-0.1-0.1-0.2-0.1
	c-0.1-0.1-0.2-0.1-0.3-0.1c-0.2,0-0.3-0.1-0.5-0.1c-0.2,0-0.4,0-0.6,0.1c-0.2,0.1-0.4,0.2-0.5,0.4c-0.1,0.2-0.2,0.4-0.3,0.6
	c-0.1,0.3-0.1,0.5-0.1,0.8c0,0.3,0,0.5,0.1,0.8c0.1,0.2,0.2,0.4,0.3,0.6c0.1,0.2,0.3,0.3,0.5,0.4c0.2,0.1,0.4,0.1,0.6,0.1
	c0.2,0,0.4,0,0.5-0.1c0.1,0,0.2-0.1,0.4-0.2c0.1-0.1,0.2-0.1,0.2-0.2c0,0,0.1-0.1,0.2-0.1c0.1,0,0.1,0,0.2,0.1l0.3,0.3
	c-0.2,0.3-0.5,0.5-0.8,0.6c-0.3,0.1-0.7,0.2-1,0.2c-0.3,0-0.6-0.1-0.9-0.2c-0.3-0.1-0.5-0.3-0.7-0.5c-0.2-0.2-0.4-0.5-0.5-0.8
	c-0.1-0.4-0.2-0.7-0.2-1.1c0-0.3,0.1-0.7,0.2-1c0.1-0.3,0.3-0.6,0.5-0.8c0.2-0.2,0.5-0.4,0.7-0.5c0.3-0.1,0.7-0.2,1-0.2
	c0.3,0,0.6,0,0.9,0.2c0.3,0.1,0.5,0.3,0.7,0.5L-255,312z"/>
<path class="st2" d="M-251.7,311.1c0.3,0,0.7,0.1,1,0.2c0.3,0.1,0.5,0.3,0.8,0.5c0.2,0.2,0.4,0.5,0.5,0.8c0.1,0.3,0.2,0.7,0.2,1.1
	c0,0.4-0.1,0.7-0.2,1.1c-0.1,0.3-0.3,0.6-0.5,0.8c-0.2,0.2-0.5,0.4-0.8,0.5c-0.6,0.2-1.4,0.2-2,0c-0.3-0.1-0.6-0.3-0.8-0.5
	c-0.2-0.2-0.4-0.5-0.5-0.8c-0.1-0.3-0.2-0.7-0.2-1.1c0-0.4,0-0.7,0.2-1.1c0.1-0.3,0.3-0.6,0.5-0.8c0.2-0.2,0.5-0.4,0.8-0.5
	C-252.4,311.1-252,311.1-251.7,311.1z M-251.7,315.6c0.4,0,0.8-0.2,1.1-0.5c0.5-0.9,0.5-1.9,0-2.8c-0.3-0.3-0.7-0.5-1.1-0.5
	c-0.2,0-0.5,0-0.7,0.1c-0.2,0.1-0.3,0.2-0.5,0.4c-0.1,0.2-0.2,0.4-0.3,0.6c-0.1,0.3-0.1,0.5-0.1,0.8c0,0.3,0,0.5,0.1,0.8
	c0,0.2,0.1,0.4,0.3,0.6c0.1,0.2,0.3,0.3,0.5,0.4C-252.2,315.5-251.9,315.6-251.7,315.6z"/>
<path class="st2" d="M-248.2,316.2v-5h0.5c0.1,0,0.2,0.1,0.2,0.2l0.1,0.6c0.2-0.2,0.5-0.4,0.7-0.6c0.3-0.2,0.6-0.2,0.9-0.2
	c0.2,0,0.5,0,0.7,0.1c0.2,0.1,0.4,0.2,0.5,0.4c0.1,0.2,0.3,0.4,0.3,0.6c0.1,0.2,0.1,0.5,0.1,0.8v3.2h-0.9V313c0-0.3-0.1-0.6-0.3-0.9
	c-0.2-0.2-0.5-0.3-0.8-0.3c-0.3,0-0.5,0.1-0.7,0.2c-0.2,0.1-0.5,0.3-0.6,0.5v3.7L-248.2,316.2z"/>
<path class="st2" d="M-240.7,316.2v-5h0.5c0.1,0,0.2,0.1,0.2,0.2l0.1,0.6c0.2-0.2,0.5-0.4,0.7-0.6c0.5-0.3,1.1-0.3,1.7-0.1
	c0.2,0.1,0.4,0.2,0.5,0.4c0.1,0.2,0.3,0.4,0.3,0.6c0.1,0.3,0.1,0.5,0.1,0.8v3.2h-0.9V313c0-0.3-0.1-0.6-0.3-0.9
	c-0.2-0.2-0.5-0.3-0.8-0.3c-0.3,0-0.5,0.1-0.7,0.2c-0.2,0.1-0.5,0.3-0.6,0.5v3.7L-240.7,316.2z"/>
<path class="st2" d="M-234.4,311.1v3.2c0,0.3,0.1,0.6,0.3,0.9c0.2,0.2,0.5,0.3,0.8,0.3c0.3,0,0.5-0.1,0.7-0.2
	c0.2-0.1,0.5-0.3,0.6-0.5v-3.7h0.9v5h-0.5c-0.1,0-0.2-0.1-0.2-0.2l-0.1-0.5c-0.2,0.2-0.5,0.4-0.7,0.6c-0.3,0.2-0.6,0.2-0.9,0.2
	c-0.2,0-0.5,0-0.7-0.1c-0.2-0.1-0.4-0.2-0.5-0.4c-0.1-0.2-0.3-0.4-0.3-0.6c-0.1-0.3-0.1-0.5-0.1-0.8v-3.2H-234.4z"/>
<path class="st2" d="M-227.7,311.1c0.3,0,0.6,0,0.8,0.1c0.2,0.1,0.5,0.3,0.7,0.4c0.2,0.2,0.3,0.4,0.4,0.7c0.1,0.3,0.2,0.7,0.1,1
	c0,0.1,0,0.2,0,0.3c0,0.1-0.1,0.1-0.2,0.1h-3.4c0,0.3,0,0.6,0.1,0.8c0.1,0.2,0.2,0.4,0.3,0.6c0.1,0.2,0.3,0.3,0.5,0.4
	c0.2,0.1,0.4,0.1,0.7,0.1c0.2,0,0.4,0,0.6-0.1c0.1,0,0.3-0.1,0.4-0.2c0.1-0.1,0.2-0.1,0.3-0.2c0.1,0,0.1-0.1,0.2-0.1
	c0.1,0,0.1,0,0.2,0.1l0.3,0.3c-0.1,0.1-0.2,0.2-0.4,0.3c-0.2,0.1-0.3,0.2-0.5,0.2c-0.2,0.1-0.4,0.1-0.5,0.1c-0.2,0-0.4,0-0.5,0
	c-0.3,0-0.7-0.1-1-0.2c-0.3-0.1-0.6-0.3-0.8-0.5c-0.2-0.2-0.4-0.5-0.5-0.9c-0.1-0.4-0.1-0.8-0.1-1.2c0-0.3,0.1-0.7,0.2-1
	c0.1-0.3,0.3-0.6,0.5-0.8c0.2-0.2,0.5-0.4,0.7-0.5C-228.3,311.1-228,311.1-227.7,311.1z M-227.7,311.7c-0.4,0-0.7,0.1-1,0.4
	c-0.3,0.3-0.4,0.6-0.5,1h2.8c0-0.2,0-0.4-0.1-0.6c-0.1-0.2-0.1-0.3-0.3-0.4c-0.1-0.1-0.2-0.2-0.4-0.3
	C-227.3,311.7-227.5,311.7-227.7,311.7L-227.7,311.7z"/>
<path class="st2" d="M-221.6,312c0,0.1-0.1,0.1-0.2,0.1c-0.1,0-0.1,0-0.2-0.1l-0.2-0.1l-0.3-0.1c-0.1,0-0.3-0.1-0.4-0.1
	c-0.1,0-0.3,0-0.4,0.1c-0.1,0-0.2,0.1-0.3,0.1c-0.1,0.1-0.1,0.1-0.2,0.2c0,0.1-0.1,0.2-0.1,0.3c0,0.1,0,0.2,0.1,0.3
	c0.1,0.1,0.2,0.2,0.3,0.2c0.1,0.1,0.3,0.1,0.4,0.2l0.5,0.1l0.5,0.2c0.1,0.1,0.3,0.1,0.4,0.3c0.3,0.2,0.4,0.5,0.4,0.9
	c0,0.2,0,0.4-0.1,0.6c-0.1,0.2-0.2,0.4-0.4,0.5c-0.2,0.1-0.4,0.3-0.6,0.3c-0.6,0.2-1.2,0.2-1.8,0c-0.3-0.1-0.5-0.3-0.7-0.4l0.2-0.3
	c0,0,0.1-0.1,0.1-0.1c0,0,0.1,0,0.1,0c0.1,0,0.1,0,0.2,0.1l0.2,0.1c0.3,0.1,0.6,0.2,0.8,0.2c0.2,0,0.3,0,0.5-0.1
	c0.1,0,0.2-0.1,0.3-0.2c0.1-0.1,0.1-0.2,0.2-0.3c0-0.1,0.1-0.2,0.1-0.3c0-0.1,0-0.2-0.1-0.3c-0.1-0.1-0.2-0.2-0.3-0.2
	c-0.1-0.1-0.3-0.1-0.4-0.2l-0.5-0.2c-0.2-0.1-0.3-0.1-0.5-0.2c-0.2-0.1-0.3-0.2-0.4-0.3c-0.1-0.1-0.2-0.2-0.3-0.4
	c-0.1-0.2-0.1-0.4-0.1-0.5c0-0.2,0-0.4,0.1-0.5c0.1-0.2,0.2-0.3,0.4-0.5c0.2-0.1,0.4-0.3,0.6-0.3c0.2-0.1,0.5-0.1,0.8-0.1
	c0.3,0,0.6,0,0.9,0.1c0.3,0.1,0.5,0.2,0.7,0.4L-221.6,312z"/>
<path class="st2" d="M-218.6,316.3c-0.3,0-0.7-0.1-0.9-0.3c-0.2-0.3-0.4-0.6-0.3-1v-3h-0.6c-0.1,0-0.1,0-0.1,0c0,0-0.1-0.1-0.1-0.2
	v-0.3l0.8-0.1l0.2-1.6c0,0,0-0.1,0.1-0.1c0,0,0.1,0,0.1,0h0.4v1.7h1.4v0.6h-1.4v3c0,0.2,0,0.3,0.2,0.5c0.1,0.1,0.2,0.2,0.4,0.2
	c0.1,0,0.2,0,0.3,0l0.2-0.1l0.1-0.1h0.1c0.1,0,0.1,0,0.1,0.1l0.3,0.4c-0.2,0.2-0.4,0.3-0.6,0.3
	C-218.1,316.3-218.4,316.3-218.6,316.3z"/>
<path class="st2" d="M-216.4,316.2v-5h0.5c0.1,0,0.1,0,0.2,0c0,0.1,0.1,0.1,0.1,0.2l0.1,0.8c0.2-0.3,0.4-0.6,0.6-0.8
	c0.3-0.2,0.6-0.3,0.9-0.3c0.1,0,0.3,0,0.4,0c0.1,0,0.2,0.1,0.3,0.1l-0.1,0.7c0,0.1-0.1,0.1-0.2,0.1c-0.1,0-0.1,0-0.2,0
	c-0.4-0.1-0.8,0-1.2,0.2c-0.2,0.2-0.4,0.5-0.5,0.8v3.2L-216.4,316.2z"/>
<path class="st2" d="M-208.9,316.2h-0.4c-0.1,0-0.1,0-0.2,0c-0.1,0-0.1-0.1-0.1-0.2l-0.1-0.5c-0.1,0.1-0.3,0.2-0.4,0.3
	c-0.1,0.1-0.3,0.2-0.4,0.2c-0.1,0.1-0.3,0.1-0.4,0.1c-0.2,0-0.3,0-0.5,0c-0.2,0-0.4,0-0.5-0.1c-0.2-0.1-0.3-0.1-0.5-0.3
	c-0.1-0.1-0.2-0.3-0.3-0.4c-0.1-0.2-0.1-0.4-0.1-0.6c0-0.2,0.1-0.4,0.2-0.6c0.1-0.2,0.3-0.4,0.5-0.5c0.3-0.2,0.7-0.3,1-0.4
	c0.5-0.1,1-0.2,1.5-0.1V313c0-0.3-0.1-0.6-0.3-0.9c-0.2-0.2-0.5-0.3-0.8-0.3c-0.2,0-0.4,0-0.5,0.1c-0.1,0-0.3,0.1-0.4,0.2l-0.3,0.2
	c-0.1,0.1-0.1,0.1-0.2,0.1c-0.1,0-0.1,0-0.2,0c0,0-0.1-0.1-0.1-0.1l-0.2-0.3c0.3-0.3,0.6-0.5,0.9-0.6c0.3-0.1,0.7-0.2,1.1-0.2
	c0.3,0,0.5,0,0.8,0.1c0.2,0.1,0.4,0.2,0.5,0.4c0.2,0.2,0.3,0.4,0.3,0.6c0.1,0.3,0.1,0.5,0.1,0.8L-208.9,316.2z M-211.2,315.6
	c0.1,0,0.3,0,0.4,0c0.1,0,0.3-0.1,0.4-0.1c0.1-0.1,0.2-0.1,0.3-0.2c0.1-0.1,0.2-0.2,0.3-0.3v-1c-0.3,0-0.7,0-1,0.1
	c-0.2,0-0.5,0.1-0.7,0.2c-0.2,0.1-0.3,0.2-0.4,0.3c-0.1,0.1-0.1,0.2-0.1,0.4c0,0.1,0,0.2,0.1,0.3c0,0.1,0.1,0.2,0.2,0.2
	c0.1,0.1,0.2,0.1,0.3,0.1C-211.4,315.7-211.3,315.7-211.2,315.6z"/>
<path class="st2" d="M-205.6,317.9v-6.8h0.5c0.1,0,0.2,0.1,0.2,0.2l0.1,0.6c0.2-0.3,0.5-0.5,0.7-0.6c0.3-0.2,0.7-0.3,1-0.2
	c0.3,0,0.5,0,0.8,0.2c0.2,0.1,0.4,0.3,0.6,0.5c0.2,0.2,0.3,0.5,0.4,0.8c0.1,0.4,0.1,0.7,0.1,1.1c0,0.3-0.1,0.7-0.2,1
	c-0.1,0.3-0.2,0.6-0.4,0.8c-0.4,0.5-1,0.8-1.6,0.8c-0.3,0-0.5,0-0.8-0.1c-0.2-0.1-0.4-0.3-0.6-0.4v2.2L-205.6,317.9z M-203.4,311.8
	c-0.3,0-0.5,0.1-0.8,0.2c-0.2,0.1-0.4,0.3-0.6,0.6v2.5c0.1,0.2,0.3,0.4,0.5,0.5c0.2,0.1,0.4,0.1,0.6,0.1c0.4,0,0.8-0.2,1.1-0.5
	c0.3-0.4,0.4-0.9,0.4-1.4c0-0.3,0-0.6-0.1-0.9c0-0.2-0.1-0.4-0.3-0.6c-0.1-0.1-0.2-0.3-0.4-0.3C-203,311.8-203.2,311.8-203.4,311.8z
	"/>
<path class="st2" d="M-199.1,308.9v7.3h-0.9v-7.3H-199.1z"/>
<path class="st2" d="M-193.9,316.2h-0.4c-0.1,0-0.1,0-0.2,0c-0.1,0-0.1-0.1-0.1-0.2l-0.1-0.5c-0.1,0.1-0.3,0.2-0.4,0.3
	c-0.1,0.1-0.3,0.2-0.4,0.2c-0.1,0.1-0.3,0.1-0.4,0.1c-0.2,0-0.4,0-0.5,0c-0.2,0-0.4,0-0.6-0.1c-0.2-0.1-0.3-0.1-0.4-0.3
	c-0.1-0.1-0.2-0.3-0.3-0.4c-0.1-0.2-0.1-0.4-0.1-0.6c0-0.2,0.1-0.4,0.2-0.6c0.1-0.2,0.3-0.4,0.5-0.5c0.3-0.2,0.6-0.3,1-0.4
	c0.5-0.1,1-0.2,1.4-0.1V313c0-0.3-0.1-0.6-0.3-0.9c-0.2-0.2-0.5-0.3-0.7-0.3c-0.2,0-0.4,0-0.6,0.1c-0.1,0-0.3,0.1-0.4,0.2l-0.3,0.2
	c-0.1,0.1-0.1,0.1-0.2,0.1c-0.1,0-0.1,0-0.2,0c0,0-0.1-0.1-0.1-0.1l-0.2-0.3c0.3-0.3,0.6-0.5,0.9-0.6c0.3-0.1,0.7-0.2,1.1-0.2
	c0.3,0,0.5,0,0.8,0.1c0.2,0.1,0.4,0.2,0.6,0.4c0.2,0.2,0.3,0.4,0.3,0.6c0.1,0.3,0.1,0.5,0.1,0.8V316.2z M-196.2,315.6
	c0.1,0,0.3,0,0.4,0c0.1,0,0.3-0.1,0.4-0.1l0.3-0.2c0.1-0.1,0.2-0.2,0.3-0.3v-1c-0.3,0-0.7,0-1,0.1c-0.2,0-0.5,0.1-0.7,0.2
	c-0.2,0.1-0.3,0.2-0.4,0.3c-0.1,0.1-0.1,0.2-0.1,0.4c0,0.1,0,0.2,0.1,0.3c0,0.1,0.1,0.2,0.2,0.2c0.1,0.1,0.2,0.1,0.3,0.1
	C-196.3,315.7-196.3,315.7-196.2,315.6z"/>
<path class="st2" d="M-191,316.3c-0.3,0-0.7-0.1-0.9-0.3c-0.2-0.3-0.4-0.6-0.3-1v-3h-0.6c0,0-0.1,0-0.1,0c0,0-0.1-0.1-0.1-0.2v-0.3
	l0.8-0.1l0.2-1.6c0,0,0-0.1,0.1-0.1c0,0,0.1,0,0.1,0h0.4v1.7h1.4v0.6h-1.4v3c0,0.2,0,0.3,0.2,0.5c0.1,0.1,0.3,0.2,0.4,0.2
	c0.1,0,0.2,0,0.2,0l0.2-0.1l0.1-0.1h0.1c0.1,0,0.1,0,0.1,0.1l0.3,0.4c-0.2,0.2-0.3,0.3-0.6,0.3C-190.5,316.3-190.8,316.3-191,316.3z
	"/>
<path class="st2" d="M-185.1,316.2h-0.4c-0.1,0-0.1,0-0.2,0c-0.1,0-0.1-0.1-0.1-0.2l-0.1-0.5c-0.1,0.1-0.3,0.2-0.4,0.3
	c-0.1,0.1-0.3,0.2-0.4,0.2c-0.3,0.1-0.7,0.2-1,0.2c-0.2,0-0.4,0-0.6-0.1c-0.2-0.1-0.3-0.1-0.4-0.3c-0.1-0.1-0.2-0.3-0.3-0.4
	c-0.1-0.2-0.1-0.4-0.1-0.6c0-0.2,0.1-0.4,0.2-0.6c0.1-0.2,0.3-0.4,0.5-0.5c0.3-0.2,0.7-0.3,1-0.4c0.5-0.1,0.9-0.2,1.4-0.2V313
	c0-0.3-0.1-0.6-0.3-0.9c-0.2-0.2-0.5-0.3-0.8-0.3c-0.2,0-0.4,0-0.5,0.1c-0.1,0-0.3,0.1-0.4,0.2l-0.3,0.2c-0.1,0.1-0.2,0.1-0.2,0.1
	c0,0-0.1,0-0.1,0c0,0-0.1-0.1-0.1-0.1l-0.2-0.3c0.3-0.3,0.6-0.5,0.9-0.6c0.3-0.1,0.7-0.2,1.1-0.2c0.3,0,0.5,0,0.8,0.1
	c0.2,0.1,0.4,0.2,0.6,0.4c0.2,0.2,0.3,0.4,0.3,0.6c0.1,0.3,0.1,0.5,0.1,0.8L-185.1,316.2z M-187.4,315.6c0.1,0,0.3,0,0.4,0
	c0.1,0,0.2-0.1,0.4-0.1c0.1-0.1,0.2-0.1,0.3-0.2c0.1-0.1,0.2-0.2,0.3-0.3v-1c-0.3,0-0.7,0-1,0c-0.2,0-0.5,0.1-0.7,0.2
	c-0.2,0.1-0.3,0.2-0.4,0.3c-0.1,0.1-0.1,0.2-0.1,0.4c0,0.1,0,0.2,0.1,0.3c0,0.1,0.1,0.2,0.2,0.2c0.1,0.1,0.2,0.1,0.3,0.1
	C-187.6,315.6-187.5,315.6-187.4,315.6z"/>
<path class="st2" d="M-183.5,316.2v-4.3l-0.6-0.1c-0.1,0-0.1,0-0.2-0.1c0,0-0.1-0.1-0.1-0.1v-0.4h0.8v-0.5c0-0.3,0-0.5,0.1-0.8
	c0.1-0.2,0.2-0.4,0.3-0.6c0.2-0.2,0.3-0.3,0.5-0.4c0.2-0.1,0.5-0.1,0.7-0.1c0.2,0,0.4,0,0.6,0.1v0.4c0,0.1,0,0.1-0.1,0.1
	c-0.1,0-0.1,0-0.2,0h-0.2c-0.1,0-0.3,0-0.4,0.1c-0.1,0-0.2,0.1-0.3,0.2c-0.1,0.1-0.2,0.2-0.2,0.4c-0.1,0.2-0.1,0.4-0.1,0.5v0.5h1.5
	v0.6h-1.4v4.3L-183.5,316.2z"/>
<path class="st2" d="M-178.3,311.1c0.3,0,0.7,0.1,1,0.2c0.3,0.1,0.5,0.3,0.8,0.5c0.2,0.2,0.4,0.5,0.5,0.8c0.1,0.3,0.2,0.7,0.2,1.1
	c0,0.4-0.1,0.7-0.2,1.1c-0.1,0.3-0.3,0.6-0.5,0.8c-0.2,0.2-0.5,0.4-0.8,0.5c-0.6,0.2-1.4,0.2-2,0c-0.3-0.1-0.6-0.3-0.8-0.5
	c-0.2-0.2-0.4-0.5-0.5-0.8c-0.1-0.3-0.2-0.7-0.2-1.1c0-0.4,0.1-0.7,0.2-1.1c0.1-0.3,0.3-0.6,0.5-0.8c0.2-0.2,0.5-0.4,0.8-0.5
	C-179,311.1-178.7,311.1-178.3,311.1z M-178.3,315.6c0.4,0,0.8-0.2,1.1-0.5c0.5-0.9,0.5-1.9,0-2.8c-0.3-0.3-0.7-0.5-1.1-0.5
	c-0.2,0-0.5,0-0.7,0.1c-0.2,0.1-0.3,0.2-0.5,0.4c-0.1,0.2-0.2,0.4-0.3,0.6c-0.1,0.3-0.1,0.5-0.1,0.8c0,0.3,0,0.5,0.1,0.8
	c0.1,0.2,0.1,0.4,0.3,0.6c0.1,0.2,0.3,0.3,0.5,0.4C-178.8,315.5-178.6,315.6-178.3,315.6z"/>
<path class="st2" d="M-174.9,316.2v-5h0.5c0.1,0,0.1,0,0.2,0c0,0.1,0.1,0.1,0.1,0.2l0.1,0.8c0.2-0.3,0.4-0.6,0.6-0.8
	c0.3-0.2,0.6-0.3,0.9-0.3c0.1,0,0.3,0,0.4,0c0.1,0,0.2,0.1,0.3,0.1l-0.1,0.7c0,0.1,0,0.1-0.1,0.2c-0.1,0-0.1,0-0.2,0
	c-0.4-0.1-0.8,0-1.2,0.2c-0.3,0.2-0.5,0.5-0.6,0.8v3.2L-174.9,316.2z"/>
<path class="st2" d="M-170.8,316.2v-5h0.5c0.1,0,0.2,0.1,0.2,0.2l0.1,0.5c0.2-0.2,0.4-0.4,0.6-0.6c0.2-0.2,0.5-0.2,0.8-0.2
	c0.3,0,0.6,0.1,0.8,0.3c0.2,0.2,0.4,0.5,0.4,0.8c0.1-0.2,0.2-0.3,0.3-0.5c0.1-0.1,0.2-0.2,0.4-0.3c0.1-0.1,0.3-0.2,0.4-0.2
	c0.2,0,0.3-0.1,0.5-0.1c0.2,0,0.5,0,0.7,0.1c0.2,0.1,0.4,0.2,0.5,0.4c0.1,0.2,0.3,0.4,0.3,0.6c0.1,0.3,0.1,0.5,0.1,0.8v3.2h-0.9V313
	c0-0.3-0.1-0.6-0.3-0.9c-0.2-0.2-0.5-0.3-0.8-0.3c-0.1,0-0.3,0-0.4,0.1c-0.1,0.1-0.2,0.1-0.3,0.2c-0.1,0.1-0.2,0.2-0.2,0.4
	c-0.1,0.2-0.1,0.3-0.1,0.5v3.2h-0.9V313c0-0.3-0.1-0.6-0.3-0.9c-0.2-0.2-0.4-0.3-0.7-0.3c-0.2,0-0.4,0.1-0.6,0.2
	c-0.2,0.1-0.4,0.3-0.5,0.5v3.8L-170.8,316.2z"/>
<path class="st2" d="M-158.9,316.2h-0.4c-0.1,0-0.1,0-0.2,0c-0.1,0-0.1-0.1-0.1-0.2l-0.1-0.5c-0.1,0.1-0.3,0.2-0.4,0.3
	c-0.1,0.1-0.3,0.2-0.4,0.2c-0.3,0.1-0.7,0.2-1,0.2c-0.2,0-0.4,0-0.6-0.1c-0.2,0-0.3-0.1-0.4-0.3c-0.1-0.1-0.2-0.3-0.3-0.4
	c-0.1-0.2-0.1-0.4-0.1-0.6c0-0.2,0.1-0.4,0.2-0.6c0.1-0.2,0.3-0.4,0.5-0.5c0.3-0.2,0.7-0.3,1-0.4c0.5-0.1,1-0.2,1.4-0.1V313
	c0-0.3-0.1-0.6-0.3-0.9c-0.2-0.2-0.5-0.3-0.8-0.3c-0.2,0-0.4,0-0.5,0.1c-0.1,0-0.3,0.1-0.4,0.2l-0.3,0.2c-0.1,0.1-0.2,0.1-0.2,0.1
	c0,0-0.1,0-0.1,0c0,0-0.1-0.1-0.1-0.1l-0.2-0.3c0.3-0.3,0.6-0.5,0.9-0.6c0.3-0.1,0.7-0.2,1.1-0.2c0.3,0,0.5,0,0.8,0.1
	c0.2,0.1,0.4,0.2,0.6,0.4c0.2,0.2,0.3,0.4,0.3,0.6c0.1,0.3,0.1,0.5,0.1,0.8L-158.9,316.2z M-161.3,315.6c0.1,0,0.3,0,0.4,0
	c0.1,0,0.2-0.1,0.4-0.1c0.1-0.1,0.2-0.1,0.3-0.2c0.1-0.1,0.2-0.2,0.3-0.3v-1c-0.3,0-0.7,0-1,0.1c-0.2,0-0.5,0.1-0.7,0.2
	c-0.2,0.1-0.3,0.2-0.4,0.3c-0.1,0.1-0.1,0.2-0.1,0.4c0,0.1,0,0.2,0.1,0.3c0,0.1,0.1,0.2,0.2,0.2c0.1,0.1,0.2,0.1,0.3,0.1
	C-161.4,315.7-161.3,315.7-161.3,315.6z"/>
<path class="st2" d="M-253.9,334v0.8h-3.4v2.4h2.8v0.8h-2.8v2.4h3.4v0.8h-4.4V334H-253.9z"/>
<path class="st2" d="M-252.6,341.2v-5h0.5c0.1,0,0.2,0.1,0.2,0.2l0.1,0.6c0.2-0.2,0.5-0.4,0.7-0.6c0.3-0.2,0.6-0.2,0.9-0.2
	c0.2,0,0.5,0,0.7,0.1c0.2,0.1,0.4,0.2,0.5,0.4c0.1,0.2,0.3,0.4,0.3,0.6c0.1,0.3,0.1,0.5,0.1,0.8v3.2h-0.9V338c0-0.3-0.1-0.6-0.3-0.9
	c-0.2-0.2-0.5-0.3-0.8-0.3c-0.3,0-0.5,0.1-0.7,0.2c-0.2,0.1-0.5,0.3-0.6,0.5v3.7L-252.6,341.2z"/>
<path class="st2" d="M-245.5,341.3c-0.3,0-0.7-0.1-0.9-0.3c-0.2-0.3-0.4-0.6-0.3-1v-3h-0.6c0,0-0.1,0-0.1,0c0,0-0.1-0.1-0.1-0.2
	v-0.3l0.8-0.1l0.2-1.6c0,0,0-0.1,0.1-0.1c0,0,0.1,0,0.1,0h0.4v1.7h1.4v0.6h-1.4v3c0,0.2,0,0.3,0.1,0.5c0.1,0.1,0.3,0.2,0.4,0.2
	c0.1,0,0.2,0,0.2,0l0.2-0.1l0.1-0.1h0.1c0.1,0,0.1,0,0.1,0.1l0.3,0.4c-0.2,0.2-0.3,0.3-0.6,0.3
	C-245.1,341.3-245.3,341.3-245.5,341.3z"/>
<path class="st2" d="M-243.4,341.2v-5h0.5c0.1,0,0.1,0,0.2,0c0,0.1,0.1,0.1,0.1,0.2l0.1,0.8c0.1-0.3,0.4-0.6,0.6-0.8
	c0.3-0.2,0.6-0.3,0.9-0.3c0.1,0,0.3,0,0.4,0c0.1,0,0.2,0.1,0.3,0.1l-0.1,0.7c0,0.1-0.1,0.1-0.2,0.1c-0.1,0-0.1,0-0.2,0
	c-0.1,0-0.3,0-0.4,0c-0.3,0-0.6,0.1-0.8,0.3c-0.2,0.2-0.4,0.5-0.5,0.8v3.2L-243.4,341.2z"/>
<path class="st2" d="M-235.8,341.2h-0.4c-0.1,0-0.1,0-0.2,0c0,0-0.1-0.1-0.1-0.2l-0.1-0.5c-0.1,0.1-0.3,0.2-0.4,0.3
	c-0.1,0.1-0.3,0.2-0.4,0.2c-0.1,0.1-0.3,0.1-0.4,0.1c-0.2,0-0.4,0.1-0.5,0c-0.2,0-0.4,0-0.6-0.1c-0.2,0-0.3-0.1-0.4-0.3
	c-0.1-0.1-0.2-0.3-0.3-0.4c-0.1-0.2-0.1-0.4-0.1-0.6c0-0.2,0.1-0.4,0.2-0.6c0.1-0.2,0.3-0.4,0.5-0.5c0.3-0.2,0.7-0.3,1-0.4
	c0.5-0.1,1-0.2,1.4-0.1V338c0-0.3-0.1-0.6-0.3-0.9c-0.2-0.2-0.5-0.3-0.7-0.3c-0.2,0-0.4,0-0.6,0.1c-0.1,0-0.3,0.1-0.4,0.2l-0.3,0.2
	c-0.1,0.1-0.1,0.1-0.2,0.1c-0.1,0-0.1,0-0.2,0c0,0-0.1-0.1-0.1-0.1l-0.2-0.3c0.3-0.3,0.6-0.5,0.9-0.6c0.3-0.1,0.7-0.2,1.1-0.2
	c0.3,0,0.5,0,0.8,0.1c0.2,0.1,0.4,0.2,0.6,0.4c0.2,0.2,0.3,0.4,0.3,0.6c0.1,0.3,0.1,0.5,0.1,0.8L-235.8,341.2z M-238.1,340.6
	c0.1,0,0.3,0,0.4,0c0.1,0,0.3-0.1,0.4-0.1c0.1-0.1,0.2-0.1,0.3-0.2c0.1-0.1,0.2-0.2,0.3-0.3v-1c-0.4,0-0.7,0-1,0.1
	c-0.2,0-0.5,0.1-0.7,0.2c-0.2,0.1-0.3,0.2-0.4,0.3c-0.1,0.1-0.1,0.2-0.1,0.4c0,0.1,0,0.2,0.1,0.3c0,0.1,0.1,0.2,0.2,0.2
	c0.1,0.1,0.2,0.1,0.3,0.1C-238.3,340.7-238.2,340.7-238.1,340.6z"/>
<path class="st2" d="M-228.9,341.2h-0.4c-0.1,0-0.1,0-0.2,0c-0.1,0-0.1-0.1-0.1-0.2l-0.1-0.5c-0.1,0.1-0.3,0.2-0.4,0.3
	c-0.1,0.1-0.3,0.2-0.4,0.2c-0.1,0.1-0.3,0.1-0.4,0.1c-0.2,0-0.4,0.1-0.5,0c-0.2,0-0.4,0-0.6-0.1c-0.2,0-0.3-0.1-0.4-0.3
	c-0.1-0.1-0.2-0.3-0.3-0.4c-0.1-0.2-0.1-0.4-0.1-0.6c0-0.2,0.1-0.4,0.2-0.6c0.1-0.2,0.3-0.4,0.5-0.5c0.3-0.2,0.7-0.3,1-0.4
	c0.5-0.1,1-0.2,1.4-0.1V338c0-0.3-0.1-0.6-0.3-0.9c-0.2-0.2-0.5-0.3-0.8-0.3c-0.2,0-0.4,0-0.5,0.1c-0.1,0-0.3,0.1-0.4,0.2l-0.3,0.2
	c-0.1,0.1-0.1,0.1-0.2,0.1c0,0-0.1,0-0.1,0c0,0-0.1-0.1-0.1-0.1l-0.2-0.3c0.3-0.3,0.6-0.5,0.9-0.6c0.3-0.1,0.7-0.2,1.1-0.2
	c0.3,0,0.5,0,0.8,0.1c0.2,0.1,0.4,0.2,0.6,0.4c0.2,0.2,0.3,0.4,0.3,0.6c0.1,0.3,0.1,0.5,0.1,0.8L-228.9,341.2z M-231.1,340.6
	c0.1,0,0.3,0,0.4,0c0.1,0,0.2-0.1,0.4-0.1c0.1-0.1,0.2-0.1,0.3-0.2c0.1-0.1,0.2-0.2,0.3-0.3v-1c-0.3,0-0.7,0-1,0.1
	c-0.2,0-0.5,0.1-0.7,0.2c-0.2,0.1-0.3,0.2-0.4,0.3c-0.1,0.1-0.1,0.2-0.1,0.4c0,0.1,0,0.2,0.1,0.3c0,0.1,0.1,0.2,0.2,0.2
	c0.1,0.1,0.2,0.1,0.3,0.1C-231.3,340.7-231.2,340.7-231.1,340.6z"/>
<path class="st2" d="M-223.4,336.1v6.8h-0.9v-2.5c-0.2,0.2-0.4,0.4-0.7,0.6c-0.3,0.2-0.6,0.2-0.9,0.2c-0.3,0-0.5,0-0.8-0.2
	c-0.2-0.1-0.4-0.3-0.6-0.5c-0.2-0.2-0.3-0.5-0.4-0.8c-0.1-0.4-0.1-0.7-0.1-1.1c0-0.3,0-0.7,0.1-1c0.1-0.3,0.2-0.6,0.4-0.8
	c0.2-0.2,0.4-0.4,0.7-0.5c0.3-0.1,0.6-0.2,0.9-0.2c0.3,0,0.6,0.1,0.8,0.2c0.2,0.1,0.4,0.3,0.6,0.5l0.1-0.4c0-0.1,0.1-0.2,0.2-0.2
	L-223.4,336.1z M-225.7,340.5c0.3,0,0.5-0.1,0.8-0.2c0.2-0.2,0.4-0.3,0.6-0.6v-2.4c-0.1-0.2-0.3-0.3-0.5-0.5
	c-0.2-0.1-0.4-0.1-0.6-0.1c-0.4,0-0.8,0.2-1.1,0.5c-0.3,0.4-0.4,0.9-0.4,1.4c0,0.3,0,0.6,0.1,0.8c0,0.2,0.1,0.4,0.3,0.6
	c0.1,0.1,0.2,0.3,0.4,0.3C-226.1,340.5-225.9,340.5-225.7,340.5z"/>
<path class="st2" d="M-221.2,336.1v3.2c0,0.3,0.1,0.6,0.3,0.9c0.2,0.2,0.5,0.3,0.8,0.3c0.3,0,0.5-0.1,0.7-0.2
	c0.2-0.1,0.5-0.3,0.6-0.5v-3.7h0.9v5h-0.5c-0.1,0-0.2-0.1-0.2-0.2l-0.1-0.5c-0.2,0.2-0.5,0.4-0.7,0.6c-0.3,0.2-0.6,0.2-0.9,0.2
	c-0.2,0-0.5,0-0.7-0.1c-0.2-0.1-0.4-0.2-0.5-0.4c-0.1-0.2-0.3-0.4-0.3-0.6c-0.1-0.3-0.1-0.5-0.1-0.8v-3.2H-221.2z"/>
<path class="st2" d="M-214.4,334l-1.2,1.3c0,0-0.1,0.1-0.1,0.1c-0.1,0-0.1,0-0.2,0h-0.5l0.7-1.2c0-0.1,0.1-0.1,0.2-0.2
	c0.1,0,0.2-0.1,0.2-0.1L-214.4,334z M-215.4,336.2v5h-0.9v-5H-215.4z"/>
<path class="st2" d="M-211.9,342.9v-6.8h0.5c0.1,0,0.2,0.1,0.2,0.2l0.1,0.6c0.2-0.3,0.5-0.5,0.7-0.6c0.5-0.3,1.2-0.3,1.7-0.1
	c0.2,0.1,0.4,0.3,0.6,0.5c0.2,0.2,0.3,0.5,0.4,0.8c0.1,0.4,0.1,0.7,0.1,1.1c0,0.3-0.1,0.7-0.2,1c-0.1,0.3-0.2,0.6-0.4,0.8
	c-0.2,0.2-0.4,0.4-0.7,0.6c-0.3,0.1-0.6,0.2-0.9,0.2c-0.3,0-0.5,0-0.8-0.1c-0.2-0.1-0.4-0.3-0.6-0.4v2.2L-211.9,342.9z
	 M-209.7,336.8c-0.3,0-0.5,0.1-0.8,0.2c-0.2,0.1-0.4,0.3-0.6,0.6v2.5c0.1,0.2,0.3,0.4,0.5,0.5c0.2,0.1,0.4,0.1,0.7,0.1
	c0.4,0,0.8-0.2,1.1-0.5c0.3-0.4,0.4-0.9,0.4-1.4c0-0.3,0-0.6-0.1-0.9c0-0.2-0.1-0.4-0.3-0.6c-0.1-0.1-0.2-0.3-0.4-0.3
	C-209.3,336.8-209.5,336.8-209.7,336.8z"/>
<path class="st2" d="M-202.7,341.2h-0.4c-0.1,0-0.1,0-0.2,0c-0.1,0-0.1-0.1-0.1-0.2l-0.1-0.5c-0.1,0.1-0.3,0.2-0.4,0.3
	c-0.1,0.1-0.3,0.2-0.4,0.2c-0.1,0.1-0.3,0.1-0.4,0.1c-0.2,0-0.4,0.1-0.5,0c-0.2,0-0.4,0-0.6-0.1c-0.2,0-0.3-0.1-0.4-0.3
	c-0.1-0.1-0.2-0.3-0.3-0.4c-0.1-0.2-0.1-0.4-0.1-0.6c0-0.2,0.1-0.4,0.2-0.6c0.1-0.2,0.3-0.4,0.5-0.5c0.3-0.2,0.7-0.3,1-0.4
	c0.5-0.1,1-0.2,1.5-0.1V338c0-0.3-0.1-0.6-0.3-0.9c-0.2-0.2-0.5-0.3-0.8-0.3c-0.2,0-0.4,0-0.5,0.1c-0.1,0-0.3,0.1-0.4,0.2l-0.3,0.2
	c-0.1,0.1-0.1,0.1-0.2,0.1c-0.1,0-0.1,0-0.2,0c0,0-0.1-0.1-0.1-0.1l-0.2-0.3c0.3-0.3,0.6-0.5,0.9-0.6c0.3-0.1,0.7-0.2,1.1-0.2
	c0.3,0,0.5,0,0.8,0.1c0.2,0.1,0.4,0.2,0.6,0.4c0.2,0.2,0.3,0.4,0.3,0.6c0.1,0.3,0.1,0.5,0.1,0.8L-202.7,341.2z M-205,340.6
	c0.1,0,0.3,0,0.4,0c0.1,0,0.2-0.1,0.4-0.1c0.1-0.1,0.2-0.1,0.3-0.2c0.1-0.1,0.2-0.2,0.3-0.3v-1c-0.3,0-0.7,0-1,0.1
	c-0.2,0-0.5,0.1-0.7,0.2c-0.2,0.1-0.3,0.2-0.4,0.3c-0.1,0.1-0.1,0.2-0.1,0.4c0,0.1,0,0.2,0.1,0.3c0,0.1,0.1,0.2,0.2,0.2
	c0.1,0.1,0.2,0.1,0.3,0.1C-205.2,340.7-205.1,340.7-205,340.6z"/>
<path class="st2" d="M-201.4,341.2v-5h0.5c0.1,0,0.1,0,0.2,0c0,0.1,0.1,0.1,0.1,0.2l0.1,0.8c0.1-0.3,0.4-0.6,0.6-0.8
	c0.3-0.2,0.6-0.3,0.9-0.3c0.1,0,0.3,0,0.4,0c0.1,0,0.2,0.1,0.3,0.1l-0.1,0.7c0,0.1-0.1,0.1-0.2,0.1c-0.1,0-0.1,0-0.2,0
	c-0.1,0-0.3,0-0.4,0c-0.3,0-0.6,0.1-0.8,0.3c-0.2,0.2-0.4,0.5-0.5,0.8v3.2L-201.4,341.2z"/>
<path class="st2" d="M-193.8,341.2h-0.4c-0.1,0-0.1,0-0.2,0c-0.1,0-0.1-0.1-0.1-0.2l-0.1-0.5c-0.1,0.1-0.3,0.2-0.4,0.3
	c-0.1,0.1-0.3,0.2-0.4,0.2c-0.1,0.1-0.3,0.1-0.4,0.1c-0.2,0-0.4,0.1-0.5,0c-0.2,0-0.4,0-0.5-0.1c-0.2-0.1-0.3-0.1-0.5-0.3
	c-0.1-0.1-0.2-0.3-0.3-0.4c-0.1-0.2-0.1-0.4-0.1-0.6c0-0.2,0.1-0.4,0.2-0.6c0.1-0.2,0.3-0.4,0.5-0.5c0.3-0.2,0.7-0.3,1-0.4
	c0.5-0.1,1-0.2,1.4-0.1V338c0-0.3-0.1-0.6-0.3-0.9c-0.2-0.2-0.5-0.3-0.7-0.3c-0.2,0-0.4,0-0.5,0.1c-0.1,0-0.3,0.1-0.4,0.2l-0.3,0.2
	c-0.1,0.1-0.1,0.1-0.2,0.1c-0.1,0-0.1,0-0.2,0c0,0-0.1-0.1-0.1-0.1l-0.2-0.3c0.3-0.3,0.6-0.5,0.9-0.6c0.3-0.1,0.7-0.2,1.1-0.2
	c0.3,0,0.5,0,0.8,0.1c0.2,0.1,0.4,0.2,0.6,0.4c0.2,0.2,0.3,0.4,0.3,0.6c0.1,0.3,0.1,0.5,0.1,0.8L-193.8,341.2z M-196.1,340.6
	c0.1,0,0.3,0,0.4,0c0.1,0,0.3-0.1,0.4-0.1c0.1-0.1,0.2-0.1,0.3-0.2c0.1-0.1,0.2-0.2,0.3-0.3v-1c-0.3,0-0.7,0-1,0.1
	c-0.2,0-0.5,0.1-0.7,0.2c-0.2,0.1-0.3,0.2-0.4,0.3c-0.1,0.1-0.1,0.2-0.1,0.4c0,0.1,0,0.2,0.1,0.3c0,0.1,0.1,0.2,0.2,0.2
	c0.1,0.1,0.2,0.1,0.3,0.1C-196.3,340.7-196.2,340.7-196.1,340.6z"/>
<path class="st2" d="M-189.4,334.5c0,0.1,0,0.2,0,0.2c0,0.1-0.1,0.1-0.1,0.2c-0.1,0.1-0.1,0.1-0.2,0.1c-0.2,0.1-0.3,0.1-0.5,0
	c-0.1,0-0.1-0.1-0.2-0.1c-0.1-0.1-0.1-0.1-0.1-0.2c0-0.1,0-0.2,0-0.2c0-0.1,0-0.2,0-0.2c0-0.1,0.1-0.1,0.1-0.2
	c0.1-0.1,0.1-0.1,0.2-0.1c0.2-0.1,0.3-0.1,0.5,0c0.1,0,0.1,0.1,0.2,0.1c0.1,0.1,0.1,0.1,0.1,0.2
	C-189.4,334.4-189.4,334.5-189.4,334.5z M-189.6,336.1v5h-0.9v-5H-189.6z"/>
<path class="st2" d="M-188,341.2v-5h0.5c0.1,0,0.2,0.1,0.2,0.2l0.1,0.6c0.2-0.2,0.5-0.4,0.7-0.6c0.3-0.2,0.6-0.2,0.9-0.2
	c0.2,0,0.5,0,0.7,0.1c0.2,0.1,0.4,0.2,0.5,0.4c0.1,0.2,0.3,0.4,0.3,0.6c0.1,0.3,0.1,0.5,0.1,0.8v3.2h-0.9V338c0-0.3-0.1-0.6-0.3-0.9
	c-0.2-0.2-0.5-0.3-0.8-0.3c-0.3,0-0.5,0.1-0.7,0.2c-0.2,0.1-0.5,0.3-0.6,0.5v3.7L-188,341.2z"/>
<path class="st2" d="M-177,337C-177,337-177,337.1-177,337c-0.1,0.1-0.2,0.1-0.2,0.1c-0.1,0-0.1,0-0.2-0.1c-0.1-0.1-0.1-0.1-0.2-0.1
	c-0.1-0.1-0.2-0.1-0.3-0.1c-0.2,0-0.3-0.1-0.5-0.1c-0.2,0-0.4,0-0.6,0.1c-0.2,0.1-0.4,0.2-0.5,0.4c-0.1,0.2-0.2,0.4-0.3,0.6
	c-0.1,0.3-0.1,0.5-0.1,0.8c0,0.3,0,0.5,0.1,0.8c0.1,0.2,0.2,0.4,0.3,0.6c0.1,0.2,0.3,0.3,0.5,0.4c0.2,0.1,0.4,0.1,0.6,0.1
	c0.2,0,0.4,0,0.5-0.1c0.1,0,0.2-0.1,0.3-0.2c0.1-0.1,0.2-0.1,0.2-0.2c0,0,0.1-0.1,0.2-0.1c0.1,0,0.1,0,0.2,0.1l0.3,0.3
	c-0.2,0.3-0.5,0.5-0.8,0.6c-0.3,0.1-0.7,0.2-1,0.2c-0.3,0-0.6-0.1-0.9-0.2c-0.3-0.1-0.5-0.3-0.7-0.5c-0.2-0.2-0.4-0.5-0.5-0.8
	c-0.2-0.7-0.2-1.4,0-2.1c0.1-0.3,0.3-0.6,0.5-0.8c0.2-0.2,0.5-0.4,0.7-0.5c0.3-0.1,0.7-0.2,1-0.2c0.6,0,1.2,0.2,1.7,0.6L-177,337z"
	/>
<path class="st2" d="M-174.6,334.5c0,0.1,0,0.2,0,0.2c0,0.1-0.1,0.1-0.1,0.2c-0.1,0.1-0.1,0.1-0.2,0.1c-0.1,0-0.2,0-0.3,0
	c-0.1,0-0.2,0-0.2,0c-0.1,0-0.1-0.1-0.2-0.1c-0.1-0.1-0.1-0.1-0.1-0.2c0-0.1,0-0.2,0-0.2c0-0.1,0-0.2,0-0.2c0-0.1,0.1-0.1,0.1-0.2
	c0.1-0.1,0.1-0.1,0.2-0.1c0.1,0,0.2,0,0.2,0c0.1,0,0.2,0,0.2,0c0.1,0,0.1,0.1,0.2,0.1c0.1,0.1,0.1,0.1,0.1,0.2
	C-174.6,334.4-174.6,334.5-174.6,334.5z M-174.8,336.1v5h-0.9v-5H-174.8z"/>
<path class="st2" d="M-181.6,334.5c0,0.1,0,0.2,0,0.2c0,0.1-0.1,0.1-0.1,0.2c-0.1,0.1-0.1,0.1-0.2,0.1c-0.1,0-0.2,0-0.3,0
	c-0.1,0-0.2,0-0.2,0c-0.1,0-0.1-0.1-0.2-0.1c-0.1-0.1-0.1-0.1-0.1-0.2c0-0.1,0-0.2,0-0.2c0-0.1,0-0.2,0-0.2c0-0.1,0.1-0.1,0.1-0.2
	c0.1-0.1,0.1-0.1,0.2-0.1c0.1,0,0.2,0,0.2,0c0.1,0,0.2,0,0.2,0c0.1,0,0.1,0.1,0.2,0.1c0.1,0.1,0.1,0.1,0.1,0.2
	C-181.6,334.4-181.6,334.5-181.6,334.5z M-181.8,336.1v5h-0.9v-5H-181.8z"/>
<path class="st2" d="M-169.6,341.2h-0.4c-0.1,0-0.1,0-0.2,0c-0.1,0-0.1-0.1-0.1-0.2l-0.1-0.5c-0.1,0.1-0.3,0.2-0.4,0.3
	c-0.1,0.1-0.3,0.2-0.4,0.2c-0.1,0.1-0.3,0.1-0.4,0.1c-0.2,0-0.4,0.1-0.5,0c-0.2,0-0.4,0-0.6-0.1c-0.2,0-0.3-0.1-0.4-0.3
	c-0.1-0.1-0.2-0.3-0.3-0.4c-0.1-0.2-0.1-0.4-0.1-0.6c0-0.2,0.1-0.4,0.2-0.6c0.1-0.2,0.3-0.4,0.5-0.5c0.3-0.2,0.7-0.3,1-0.4
	c0.5-0.1,1-0.2,1.4-0.1V338c0-0.3-0.1-0.6-0.3-0.9c-0.2-0.2-0.5-0.3-0.8-0.3c-0.2,0-0.4,0-0.5,0.1c-0.1,0-0.3,0.1-0.4,0.2l-0.3,0.2
	c-0.1,0.1-0.1,0.1-0.2,0.1c0,0-0.1,0-0.2,0c0,0-0.1-0.1-0.1-0.1l-0.2-0.3c0.3-0.3,0.6-0.5,0.9-0.6c0.3-0.1,0.7-0.2,1.1-0.2
	c0.3,0,0.5,0,0.8,0.1c0.2,0.1,0.4,0.2,0.6,0.4c0.2,0.2,0.3,0.4,0.3,0.6c0.1,0.3,0.1,0.5,0.1,0.8L-169.6,341.2z M-171.9,340.6
	c0.1,0,0.3,0,0.4,0c0.1,0,0.2-0.1,0.4-0.1c0.1-0.1,0.2-0.1,0.3-0.2c0.1-0.1,0.2-0.2,0.3-0.3v-1c-0.3,0-0.7,0-1,0.1
	c-0.2,0-0.5,0.1-0.7,0.2c-0.2,0.1-0.3,0.2-0.4,0.3c-0.1,0.1-0.1,0.2-0.1,0.4c0,0.1,0,0.2,0.1,0.3c0,0.1,0.1,0.2,0.2,0.2
	c0.1,0.1,0.2,0.1,0.3,0.1C-172,340.7-172,340.7-171.9,340.6z"/>
<path class="st2" d="M-168.2,341.2v-5h0.5c0.1,0,0.1,0,0.2,0c0,0.1,0.1,0.1,0.1,0.2l0.1,0.8c0.1-0.3,0.4-0.6,0.6-0.8
	c0.3-0.2,0.6-0.3,0.9-0.3c0.1,0,0.3,0,0.4,0c0.1,0,0.2,0.1,0.3,0.1l-0.1,0.7c0,0.1-0.1,0.1-0.2,0.1c-0.1,0-0.1,0-0.2,0
	c-0.1,0-0.3,0-0.4,0c-0.3,0-0.6,0.1-0.8,0.3c-0.2,0.2-0.4,0.5-0.5,0.8v3.2L-168.2,341.2z"/>
</svg>
