<?xml version="1.0" encoding="utf-8"?>
<!-- Generator: Adobe Illustrator 24.1.3, SVG Export Plug-In . SVG Version: 6.00 Build 0)  -->
<svg version="1.1" id="Layer_1" xmlns="http://www.w3.org/2000/svg" xmlns:xlink="http://www.w3.org/1999/xlink" x="0px" y="0px"
	 viewBox="0 0 1366 768" style="enable-background:new 0 0 1366 768;" xml:space="preserve">
<style type="text/css">
	.st0{fill:#A0A0A0;}
	.st1{font-family:'AllerDisplay';}
	.st2{font-size:132.4847px;}
	.st3{font-family:'Lato-Bold';}
	.st4{font-size:27.0116px;}
	.st5{fill:#8B1317;}
	.st6{fill:#F2A71F;}
</style>
<g id="XMLID_767_">
	<text transform="matrix(1 0 0 1 410.9977 424.9814)" class="st0 st1 st2">lannister</text>
</g>
<g id="XMLID_766_">
	<text transform="matrix(1 0 0 1 415.1046 346.3772)" class="st0 st3 st4">versión 12</text>
</g>
<g>
	<g>
		<g id="XMLID_8_">
			<circle class="st0" cx="350.48" cy="382.21" r="56.84"/>
		</g>
	</g>
</g>
<g>
	<circle class="st5" cx="350.48" cy="382.21" r="50.56"/>
	<g>
		<path class="st6" d="M384.68,359.63c0,0,3.04-1.38,1.33-4.45c0,0,0.68,2.99-1.77,2.99c0,0-1.75,0.02-1.95-1.01
			c0,0,2.63,0,1.63-2.75c0,0,0.37,1.82-1.95,1.8c0,0-1.28,0.1-2.11-1.01c0,0,3.56-0.67,1.36-3.82c0,0,0.24,2.11-1.46,2.39
			c0,0-1.98-0.33-2.88,0.97c0,0-3.95-3.44-8.46-0.02c0,0-4.56,3.4-4.42,9.24c0,0,0.11,2.61,0.81,5.28c0,0,0.96,3.74,2.1,4.69
			l0.78,0.48c0,0-5.15-1.26-5.63,2.71c0,0-0.19,1.45,0.84,2.92c0,0-0.37-1.9,1.13-2.37c0,0,1.46-0.4,1.68,0.51
			c0,0-2.01,1.39-0.47,3.43c0,0-0.58-2.85,2.7-1.94c0,0-2.12,1.53-0.29,3.14c0,0-0.33-2.34,1.02-2.56c0,0,0.51,0.88,1.9,0.29
			l1.61,3.29c0,0-2.92,0.29-2.89,3.54c0,0,0.55-1.02,1.72-0.95c0,0-0.37,2.01-3.8,1.72c0,0-2.05-0.22-1.06-3.36
			c0,0-1.42,0.8-1.39,3.83c0,0-0.37,2.08,2.78,2.23c0,0,1.42,0.04,2.56-0.22c0,0,2.41,0.18,2.05,2.7c0,0-0.66,2.56-4.75,2.56
			c0,0-4.46,0.33-4.86-2.89c0,0-0.18-2.19-1.31-3.62c0,0-2.67-5.15-3.8-11.87c0,0-1.46,0.77-2.48-0.69c0,0,3.1,1.61,3.65-1.72
			c0,0,0.47-2.15-0.99-2.52l0.04-1.17c0,0-1.37-0.77-1.47-3.19c0,0,0.49,3.28,3.6,3.26c0,0,1.54-0.12,1.68-1.5
			c0,0-2.21,1.29-2.65-0.71c0,0-0.26-0.77,0.1-1.8c0,0,0.44-1.38-0.38-2.37c0,0-1.01-0.71-0.61-2.93c0,0,0.42,4.47,3.78,4.29
			c0,0-0.73-0.24-0.71-1.46l-0.06-1.98c0,0-0.73,0.08-0.93-0.51c0,0,2.31,0.51,2.85-1.09c0,0,0.77-1.8-1.27-2.93
			c0,0,0.69,0.18,1.42-0.32c0,0-1.72-1.36-1.72-3.46c0,0,0.97,0.49,2.31-0.49c0,0-2.21,0.18-2.69-2.1c0,0,1.23,0.3,1.86-0.24
			c0,0-1.15-0.57-1.38-1.36c0,0-0.06-0.97-1.52-0.93c0,0,1.29-1.05,0.12-2.41c0,0-0.02,1.38-1.5,1.52c0,0,1.03-2-0.47-3.03
			c0,0,1.07,2.21-1.23,2.51c0,0,1.19-2.41-0.99-3.24c0,0,1.01,1.52-0.2,2.39c0,0-4.29-0.51-5.22-0.12l-1.5,1.44
			c0,0-3.84,0.06-4.31,0.97c0,0,0.11,2.76,0.9,4c-0.5,0.01-1.01,0-1.47-0.06c0,0-3.1-0.36-1.56-1.88l0.16-0.16
			c0,0-2.57-1.98-3.5,0.45c0,0-0.66,2.55,2.37,2.84c0.02,0,0.04,0,0.06,0.01c3.1,0.26,4.39-0.77,4.39-0.77s1.03-0.38,2.63-0.04
			c0,0,0.59,1.21-0.47,1.23c0,0-0.7,0.14-0.65-0.83c0,0-0.3-0.16-0.69,0.44c0,0-0.81,0.61-0.85-0.4c0,0-1.23,0.24-1.19,2.97
			c0,0,4.96-1.92,5.3,1.42c0,0-0.69-1.46-2.16-1.34c0,0-0.32,1.72-2.06,1.56c0,0-3.8-1.54-5.28,1.07c0,0-0.92,1.06-1.12,2.57
			c0,0-0.1,0.92-1.02,0.89c0,0-0.66-0.03-0.77-0.97c0,0-0.43,0.74,0.66,1.92c0,0-1.69-0.85-0.52-2.66c0,0-0.15,1.31,0.66,1.49
			c0,0,0.7,0.05,0.73-0.7c0,0,0.32-1.82,1.23-2.77l0.01-0.4l-0.2-0.27l-0.53,0.07l-0.16-1.16l-0.42,0.4l-0.56-0.87l-0.2,0.02
			l-0.18-0.73l-0.29,0.09l-0.11-0.31l-0.29-0.24l-0.09-0.18l-0.24-0.73l-0.45,0.04v-0.62l-0.25-0.02l-0.2-0.13v-1.05l-0.53,0.47
			l-0.51-0.8v-0.85l-0.4,0.29l-0.67-0.85c0,0,1.05-7.04-0.71-9.13c0,0,0.2-1.67-1.49-1.65c0,0,0.71,0.42,0.62,1.25
			c0,0-1.02-0.53-1.29-0.04c0,0,0.94,0.67,0.49,2.27c0,0,0.09-1.34-0.85-2.43c0,0,0.09-1.91-1.85-1.05c0,0,0.98-0.06,1.06,0.82
			c0,0.03,0,0.06,0.01,0.09c0,0-0.76,0.58-0.91,1.18c0,0,0.89,0.56,0.73,1.8c0,0-0.45-1.56-1.78-2.03c0,0-1.34-0.82-2,0.51
			c0,0,1.42-0.45,1.47,0.47c0,0-1.36,1.8,1.85,3.72c0,0-0.49,0.51-0.47,1.87c0,0-0.29-0.38-1.09-0.02c0,0-0.28-0.86,0.42-1.49
			c0,0-2,0.09-1.07,2.58c0,0-0.47,2.23,1.96,3.21c0,0-2.69-0.51-2.56,1.34c0,0,1.18-1.02,2.12,0.24c0,0,0.49,0.6,1.42,0.6
			c0,0-2.29,1.94,0.22,3.25c0,0-0.07-1.69,1.89-1.38c0,0-0.56,1.29,0.6,2.52c0,0-0.93,0.91,0.36,2.34c0,0,0.04-1.02,0.53-1.05
			c0,0,0.71,0.09,0.65,1.36c0,0-2.65,3.61-2.81,0.58c0,0-1.34,1.91,1.05,2.16c0,0,0.76,0,1.94-0.98c0,0,0.91-0.6,0.98,0.24
			c0,0.03,0,0.06,0,0.09c0,0.98-0.49,0.95-1.58,0.78c0,0-0.07,1.87,3.34,1.18c0,0,0.67,0.4-0.78,0.49c0,0-1.78,0.07-1.8,1.65
			c0,0,0.87-1.2,1.51-0.51c0,0,0.36,0.87-1.22,1.29c0,0-1.42,0.38-2.27-1.4c0,0-0.58,1.71,1.78,1.98c0,0,0,0.49-2.29,0.38l0.73,0.47
			l-1.25-0.13c0,0-0.51-0.11-0.09,0.53c0,0-0.53-0.51-1.05-0.09c0,0,1.02,0.49-0.4,0.69c0,0-5.61-0.87-6.68-2.09
			c0,0-1.29-0.89-3.05-0.16c0,0-1.87-1-1.96,1.05c0,0,0.27-0.53,1.38-0.33c0,0-0.31,0.69,0.45,0.62c0,0,0.93,0,1.27,0.2
			c0,0-1.4-0.24-2.34,0.29c0,0-1.34-0.24-0.98,2.23c0,0,0.02-0.94,1.02-1.07c0,0,0.56,0.4-0.09,1.18c0,0-1.51,1.49,0.33,2.67
			c0,0-0.49-1.22,0.27-1.58c0,0,0.58,1.18,2.23,0.02c0,0,1.51,0.29,1.89-0.29c0,0,0.93-0.59,1.19,0.17
			c0.01,0.04,0.02,0.08,0.03,0.12c0,0-1.25-0.27-1.25,0.45c0,0-0.6,1.56-1.65,0.27c0,0-0.09,1.94,1.94,1.11c0,0,2.76,0.76,4.03-1.76
			c0,0,0.51,1.27-1.02,2.36c0,0,1.22,0.31,2.89-1.4c0,0-0.8,2.23,3.32,1.36c0,0-1.31-0.18-1.29-1.63c0,0,0.13-1.2,1.34,0.02
			c0,0,1.29,1.51,2.63,1.11c0,0-0.49-0.24-0.4-1.4c0,0,0.07-0.65,0.98-0.65c0,0,0.8-0.09,0.71,0.89c0,0,0,0.96-0.78,1.4
			c0,0,1.69,0.94,2.25-1.07c0,0,0-0.96,1.16-0.89c0,0,1.05,0.24-0.04,1.6c0,0,0.89,0.07,1.14-1.89c0,0,0.16-1.36,0.91-0.22
			l0.07,0.11c0.12,0.76-0.61,0.97-0.61,0.97c0.85,0.05,1.09-0.6,1.09-0.6c0.57-0.48,0.04-1.42,0.04-1.42
			c0.8,0.69,0.19,1.61,0.19,1.61c1.31,3.57,5.69,7.14,5.69,7.14c3.82,2.9,4.44,5.93,4.44,5.93c0.52,2.9-0.8,4.23-0.8,4.23
			c0.82-1.3,0.5-3.27,0.5-3.27c-1.61-0.54-4.18-2.71-4.18-2.71l0.3,0.7c-1.42-0.76-3.69-0.48-3.69-0.48
			c-1.31,0.27-3.1-0.31-3.1-0.31c1.89,0.91-0.93,1.19-0.93,1.19c-1.7,0.2-3.67-0.67-3.67-0.67c0.34,1.14,2.44,1.11,2.44,1.11
			c-2.08,0.59-2.41,1.8-2.41,1.8c-1.14,1.82-2.66,1.72-2.66,1.72c-1.62-0.03-1.37-1.78-1.37-1.78c-0.52,0.47-0.36,1.09-0.36,1.09
			c-0.46-0.05-0.97-0.87-0.97-0.87c0.08,1.92,2.91,3.07,2.91,3.07c-0.12,2.23-2.7,2.25-2.7,2.25c2.74,1.14,4.36-0.28,4.36-0.28
			c-0.13,1.26-1.66,2.37-1.66,2.37c1.09-0.07,1.8-1.09,1.8-1.09c-0.05,2.09-1.15,2.91-1.15,2.91c0.64-0.05,1.26-0.89,1.26-0.89
			c-0.42,1.33-0.93,1.53-0.93,1.53c0.7,0.13,0.98-0.23,0.98-0.23c-0.07,1.09-0.7,1.33-0.7,1.33c1.11,0.01,1.89-0.89,1.89-0.89
			c0.71,0.31,0.44,0.99,0.44,0.99c-0.54,2.23-3.47,1.9-3.47,1.9c-3.15,0.24-4.36,2.45-4.36,2.45c-1.52,1.74-0.86,2.72-0.86,2.72
			c0.59-1.52,2.51-2.36,2.51-2.36c-1.19,0.6-1.78,1.98-1.78,1.98c-0.64,1.78,0.43,2.13,0.43,2.13c-0.08-0.97,0.39-1.33,0.39-1.33
			c0.67,0.31,0.91-0.17,0.91-0.17c0.43-1.88,1.72-1.76,1.72-1.76c-1.3,0.48-1.48,2-1.48,2c-0.13,2.55,1.62,2.66,1.62,2.66
			c-0.91-0.59-0.51-1.37-0.51-1.37c2.17-0.16,2.67-1.8,2.67-1.8c0.09-0.62,1.21-0.78,1.21-0.78c-0.78,0.68-0.06,1.77-0.06,1.77
			c-0.22,1.18-1.74,1.18-1.74,1.18c1.68,0.81,2.73-0.53,2.73-0.53c2.21-0.22,2.64-2.73,2.64-2.73c0.19-1.4,1.62-1.9,1.62-1.9
			c-0.84,2.61,0.78,3.45,0.78,3.45c-0.28-1.65,0.84-2.08,0.84-2.08c1.68-0.47,1.49-1.99,1.49-1.99c0.53,1.15,1.3,0.75,1.3,0.75
			c-0.34-0.34-0.31-1.03-0.31-1.03c-0.03-2.45-1.77-2.92-1.77-2.92c-0.99-0.19-1.55-1.34-1.55-1.34c1.96,1.58,3.14,0.78,3.14,0.78
			c-0.81,0-0.75-0.47-0.75-0.47c0.28-1.09-0.25-2.27-0.25-2.27c-1.06-0.81-0.62-1.49-0.62-1.49c1.68-0.19,1.27,1.77,1.27,1.77
			c1.9-0.22,1.46-2.11,1.46-2.11c0.81,1.12,1.46,0.53,1.46,0.53c0.47-0.93,1.15-1.43,1.15-1.43c-1.46,2.05-2.08,5.16-2.08,5.16
			c1.3-1.09-0.4,2.61-0.4,2.61c1.83-0.87-0.06,2.49-0.06,2.49c1.09-0.68,0.75,0.65,0.75,0.65l-0.9,1.3c0.4-0.53,0.84-0.12,0.84-0.12
			c-0.4,2.08-2.67,2.11-2.67,2.11c1.12,0.5,1.86,0.06,1.86,0.06c-0.06,0.68-1.15,1.74-1.15,1.74c1.18-0.4,1.93-1.77,1.93-1.77
			c1.06-0.4,2.61-2.67,2.61-2.67c0,0.75,0.53,0.81,0.53,0.81l0.19,0.4h0.37l0.03,1.24c0-0.37,0.71-0.22,0.71-0.22l0.03,1.18
			c0.47-0.9,0.99-0.4,0.99-0.4l0.03,0.99l0.65-0.25l0.25,1.24l0.53-0.31l0.06,1.03l0.5-0.06c-0.16,3.7-1.93,4.6-1.93,4.6
			c-5,2.45-4.63,3.91-4.63,3.91c-1.58,1.49-0.25,2.73-0.25,2.73c0-1.15,0.99-1.9,0.99-1.9l0.02-0.02c0.25-0.44,1.23-0.92,1.23-0.92
			c-1.38,0.95-1.35,1.75-1.35,1.75c0.04,0.35,0.14,0.65,0.14,0.65c-0.99,1.52,0.87,2.39,0.87,2.39c-0.47-0.81,0-1.65,0-1.65
			c0.37,0.05,0.6,0.05,0.74,0.03v-0.18c-0.09-1.79,1.11-2.16,1.11-2.16c-1.24,1.16-0.88,2.16-0.88,2.16s0.48,2.84,2.74,2.13
			c0,0-1.08-0.32-1.2-1.07l0.1-0.06c1.3-0.44,1.99-2.42,1.99-2.42c1.93-0.06,1.65-1.62,1.65-1.62c0.09-0.99,1.24-1.46,1.24-1.46
			c-0.71,1.77,0.09,2.05,0.09,2.05c0,1.46-0.96,1.77-0.96,1.77c1.83,0.03,2.02-1.77,2.02-1.77c2.05-0.9,1.03-3.39,1.03-3.39
			c1.49-0.22,1.21,1.55,1.21,1.55c1.96-1.27,1.49-3.01,1.49-3.01c-0.99-1.34,0-1.55,0-1.55c1.65,0,0.81,2.24,0.81,2.24
			c1.55-0.5,1.46-2.42,1.46-2.42c2.24-0.75,1.96-3.08,1.96-3.08s-1.15,1.99-2.61,0.13c0,0-0.76-0.92,1.44-1.18
			c0,0,0.05-1.55-2.73-1.5c0,0-1.41-0.02-1.29-1.22c0,0-0.01-1.18,1.82,0.36c0,0,0.24-2.15-2.17-2.13c0,0-0.55,0.15-0.65-0.4
			c0,0,1.57-0.41,1.75-2.65c0,0-2.97,2.37-3.49-0.93c0,0-0.17-1.01,0.83-1.08c0,0,0.83-0.14,0.84,1.34c0,0,1.44-1.41,0.19-2.41
			c0,0,1.41-0.7,1.08-2.24c0,0-1.24,2.37-2.12,0.46c0,0-0.36-0.36,0.5-1.07c0,0,1.14-1,1.24-2.67c0,0,0.19,0.07,0.19,1.08
			c0,0,1.98,2.3,6.19,1.62c0,0,4.28-0.96,5.95-4.3c0,0,2.17,0.33,3.63-0.6c0,0-0.83-0.45,0.12-1.1c0,0,1-0.33,1.44-1.36
			c0,0-1.03,0.91-1.03,0c0,0,0.71-3.32-1.56-3.95c0,0-0.95-3.13-3.9-2.77c0,0,0.34-0.24,0.95-0.48c0,0-3.18-4.4-1.24-7.19
			c0,0-1.84-0.65-1.48-2.2c0,0-0.1-1.91,2.08-1.98c0,0,1.55,0.02,1.44,1.63c0,0,0.05,1.14-1.19,1.75c0,0,1.79,0.03,2.08-2.51
			c0,0,0.41-3.34-3.51-3.3c0,0-3.51-0.02-4.54,3.61l0.02-1.72c0,0-1.31-3.4-1.44-6.47c0,0-1.62-10.48,7.98-9.77
			c0,0-0.74,3.1-2.19,3.81c0,0-1.61,0.41-1.32-1.9c0,0-1.94,2.61,1.28,3.1c0,0,1.53,0.33,3.02-1.61c0,0,1.08,1.12,0.87,2.9
			c0,0-0.47,1.57-1.64,1.57c0,0-0.83-0.25-0.54-1.85c0,0-1.32,0.41-1.32,2.21c0,0-0.19,1.64,2.84,1.56c0,0-1.49,4.74,2.79,4.96
			c0,0-2.1-0.94-0.73-3.38v-0.07c0,0,1.84-0.86,1.51-3.27c0,0,1.54,0.5,1.49,2.05c0,0-0.23,1.59-2.19,1.41c0,0,2.89,2.7,4.78-2.36
			c0,0,0.59-1.67-0.58-2.52c0,0,0.99,0.02,1.61-0.83c0,0,1.4,0.15,1.36,1.49c0,0-0.11,1.38-0.99,1.58c0,0,1.92,0.18,1.48-3.3
			C385.95,360.99,385.93,359.87,384.68,359.63z M345.61,353.65c0.11-0.31,0.45-0.92,1.2-0.14c0,0,0.1-1.44,1.11-1.48
			c0,0,0.45,0.04,0.57,1.27C348.49,353.29,347.1,353.59,345.61,353.65z"/>
	</g>
</g>
</svg>
