<?xml version="1.0" encoding="utf-8"?>
<!-- Generator: Adobe Illustrator 24.1.3, SVG Export Plug-In . SVG Version: 6.00 Build 0)  -->
<svg version="1.1" id="Layer_1" xmlns="http://www.w3.org/2000/svg" xmlns:xlink="http://www.w3.org/1999/xlink" x="0px" y="0px"
	 viewBox="0 0 489 125" style="enable-background:new 0 0 489 125;" xml:space="preserve">
<style type="text/css">
	.st0{fill:url(#SVGID_1_);}
	.st1{fill:#FFFFFF;}
	.st2{fill:#3F087F;}
</style>
<linearGradient id="SVGID_1_" gradientUnits="userSpaceOnUse" x1="0.9804" y1="63.1429" x2="604.1741" y2="63.1429">
	<stop  offset="0" style="stop-color:#39B54A"/>
	<stop  offset="1" style="stop-color:#8CC63F"/>
</linearGradient>
<path class="st0" d="M483.33,117.56H8.56V14.77c0-3.34,2.71-6.05,6.05-6.05h462.67c3.34,0,6.05,2.71,6.05,6.05V117.56z"/>
<g>
	<g>
		<path class="st1" d="M349.03,47.55l-0.4,3.14h-8.46l-3.12,25.52h-3.72l3.12-25.52h-8.5l0.38-3.14H349.03z"/>
		<path class="st1" d="M351.23,55.95l-1.52,12.88c-0.03,0.27-0.05,0.52-0.07,0.76c-0.02,0.24-0.03,0.47-0.03,0.7
			c0,1.09,0.2,1.91,0.61,2.44c0.41,0.53,1.05,0.8,1.93,0.8c0.61,0,1.24-0.17,1.89-0.5s1.27-0.81,1.88-1.42s1.17-1.35,1.69-2.22
			c0.52-0.87,0.97-1.83,1.36-2.9l1.26-10.54h3.54l-2.44,20.26h-1.76c-0.41,0-0.73-0.09-0.96-0.28c-0.23-0.19-0.34-0.47-0.34-0.86
			c0-0.01,0.01-0.13,0.02-0.36s0.03-0.47,0.05-0.74c0.02-0.27,0.04-0.51,0.06-0.74c0.02-0.23,0.03-0.35,0.03-0.36l0.14-1.62
			c-1.08,1.72-2.29,3.02-3.62,3.91s-2.71,1.33-4.12,1.33c-1.51,0-2.68-0.51-3.51-1.54c-0.83-1.03-1.25-2.5-1.25-4.42
			c0-0.27,0.01-0.54,0.02-0.82c0.01-0.28,0.04-0.57,0.08-0.88l1.52-12.88H351.23z"/>
		<path class="st1" d="M385.69,76.21l1.56-13.18c0.03-0.21,0.05-0.41,0.06-0.59c0.01-0.18,0.02-0.35,0.02-0.51
			c0-0.71-0.12-1.2-0.37-1.47c-0.25-0.27-0.62-0.41-1.11-0.41c-0.45,0-0.93,0.14-1.42,0.42c-0.49,0.28-0.96,0.67-1.41,1.18
			c-0.45,0.51-0.86,1.12-1.23,1.85s-0.67,1.53-0.88,2.41l-1.14,10.3h-6.2l2.48-20.74h3.2c0.64,0,1.14,0.15,1.5,0.45
			c0.36,0.3,0.54,0.79,0.54,1.47v1.66c1-1.33,2.09-2.32,3.28-2.95c1.19-0.63,2.41-0.95,3.68-0.95c0.77,0,1.48,0.14,2.13,0.42
			c0.65,0.28,1.2,0.69,1.67,1.23c0.47,0.54,0.83,1.2,1.1,1.99s0.4,1.69,0.4,2.72c0,0.24-0.01,0.49-0.03,0.74
			c-0.02,0.25-0.04,0.51-0.07,0.78l-1.56,13.18H385.69z"/>
		<path class="st1" d="M404.57,55.47l-2.48,20.74h-6.12l2.48-20.74H404.57z M405.73,49.79c0,0.49-0.11,0.96-0.32,1.39
			c-0.21,0.43-0.49,0.81-0.84,1.14c-0.35,0.33-0.74,0.59-1.19,0.78c-0.45,0.19-0.9,0.29-1.37,0.29c-0.47,0-0.91-0.1-1.34-0.29
			c-0.43-0.19-0.8-0.45-1.13-0.78c-0.33-0.33-0.59-0.71-0.79-1.14c-0.2-0.43-0.3-0.9-0.3-1.39s0.1-0.96,0.3-1.4
			c0.2-0.44,0.47-0.83,0.81-1.16c0.34-0.33,0.72-0.6,1.15-0.79s0.87-0.29,1.34-0.29c0.48,0,0.94,0.09,1.38,0.28
			c0.44,0.19,0.83,0.45,1.17,0.78s0.61,0.72,0.82,1.16C405.63,48.81,405.73,49.28,405.73,49.79z"/>
		<path class="st1" d="M406.93,55.47h5.12c0.43,0,0.77,0.1,1.02,0.31c0.25,0.21,0.41,0.46,0.46,0.77l1.36,9.3
			c0.12,0.79,0.22,1.56,0.3,2.31s0.15,1.51,0.2,2.27c0.24-0.75,0.5-1.49,0.79-2.24c0.29-0.75,0.59-1.53,0.91-2.34l3.64-9.3
			c0.12-0.32,0.33-0.58,0.64-0.78c0.31-0.2,0.64-0.3,1-0.3h4.92l-10.08,20.74h-5.24L406.93,55.47z"/>
		<path class="st1" d="M444.53,60.57c0,0.95-0.19,1.81-0.56,2.6c-0.37,0.79-1.02,1.48-1.95,2.09c-0.93,0.61-2.17,1.12-3.74,1.55
			c-1.57,0.43-3.54,0.76-5.91,1c0.03,1.41,0.34,2.45,0.93,3.1c0.59,0.65,1.47,0.98,2.63,0.98c0.55,0,1.02-0.05,1.42-0.14
			c0.4-0.09,0.75-0.21,1.05-0.36c0.3-0.15,0.57-0.3,0.81-0.46s0.47-0.31,0.69-0.46c0.22-0.15,0.45-0.27,0.69-0.36
			c0.24-0.09,0.51-0.14,0.82-0.14c0.2,0,0.39,0.05,0.58,0.15c0.19,0.1,0.35,0.23,0.5,0.39l1.6,1.86c-0.73,0.72-1.45,1.34-2.15,1.87
			c-0.7,0.53-1.42,0.96-2.16,1.3c-0.74,0.34-1.53,0.59-2.36,0.75s-1.74,0.24-2.73,0.24c-1.23,0-2.35-0.21-3.38-0.63
			c-1.03-0.42-1.91-1.01-2.65-1.78s-1.31-1.69-1.72-2.77c-0.41-1.08-0.61-2.28-0.61-3.6c0-1.11,0.12-2.19,0.37-3.24
			c0.25-1.05,0.6-2.04,1.06-2.97s1.02-1.78,1.69-2.56c0.67-0.78,1.42-1.45,2.25-2.01c0.83-0.56,1.75-1,2.74-1.31
			c0.99-0.31,2.05-0.47,3.17-0.47c1.11,0,2.09,0.16,2.95,0.48c0.86,0.32,1.58,0.74,2.17,1.25c0.59,0.51,1.03,1.09,1.34,1.73
			C444.38,59.29,444.53,59.93,444.53,60.57z M437.25,59.37c-1.03,0-1.93,0.41-2.7,1.23c-0.77,0.82-1.35,1.94-1.74,3.37
			c1.29-0.2,2.34-0.41,3.14-0.63s1.42-0.46,1.86-0.72c0.44-0.26,0.74-0.54,0.89-0.84c0.15-0.3,0.23-0.62,0.23-0.97
			c0-0.35-0.13-0.67-0.4-0.98C438.26,59.52,437.84,59.37,437.25,59.37z"/>
		<path class="st1" d="M445.73,76.21l3.64-29.94h6.12l-3.64,29.94H445.73z"/>
	</g>
</g>
<g>
	<path class="st1" d="M125.34,70.98c-0.51,0.13-1,0.3-1.48,0.49c0.85-1.67,1.54-3.39,2.06-5.16c0.1-0.33,0.18-0.65,0.27-0.98
		c2.49,0.87,5.34,0.57,7.67-1.05c2.82-1.97,5.44-6.28,4.86-9.45c-2.75-1.53-7.62-0.52-10.38,1.41c-0.44,0.31-0.84,0.66-1.21,1.03
		c-0.03-1.95-0.23-3.81-0.55-5.53c2.65,0.11,5.28-1.18,6.74-3.61c1.57-2.59,2.14-7.02,0.54-9.37c-2.77-0.25-6.34,2.31-7.87,4.85
		c-0.46,0.76-0.77,1.58-0.93,2.41c-0.34-0.98-0.7-1.86-1.03-2.63c1.21-1.98,1.49-4.49,0.54-6.8c-1.16-2.8-4.39-5.88-7.23-5.98
		c-1.84,2.08-1.89,6.47-0.75,9.22c0.98,2.36,3.03,3.95,5.35,4.45c1.26,2.92,2.8,7.55,2.92,12.92c-0.04-0.11-0.09-0.21-0.14-0.31
		c-1.3-2.74-4.68-5.65-7.53-5.6c-1.73,2.18-1.55,6.56-0.28,9.24c1.3,2.74,4.05,4.32,6.9,4.28c0.1-0.13,0.2-0.26,0.29-0.4
		c-0.1,0.44-0.22,0.88-0.35,1.32c-0.93,3.16-2.42,6.13-4.47,8.92c-0.02-0.47-0.07-0.94-0.18-1.42c-0.67-2.96-3.33-6.54-6.12-7.12
		c-2.17,1.74-2.95,6.06-2.29,8.96c0.5,2.19,1.9,3.93,3.73,4.92c-1.88,1.7-4,3.31-6.37,4.84c-0.38-0.06-0.74-0.1-1.1-0.12
		c-4.2-0.26-7.97,2-9.84,5.48c0,0.01,0.01,0.02,0.01,0.03l-9.17,3.21l-9.17-3.21c0-0.01,0.01-0.02,0.01-0.03
		c-1.87-3.48-5.64-5.74-9.84-5.48c-0.36,0.02-0.73,0.07-1.1,0.12c-2.27-1.46-4.32-3-6.14-4.62c1.74-1.01,3.07-2.71,3.55-4.82
		c0.31-1.34,0.3-2.99-0.01-4.54c-0.33-1.92-1.11-3.74-2.34-4.73c-2.79,0.58-5.45,4.16-6.12,7.12c-0.11,0.48-0.16,0.95-0.18,1.42
		c-2.05-2.79-3.55-5.76-4.47-8.92c-0.09-0.32-0.18-0.64-0.26-0.97c0.09,0.12,0.17,0.24,0.26,0.36c2.85,0.04,5.59-1.54,6.9-4.28
		c0.89-1.86,1.25-4.55,0.8-6.75c-0.18-1.09-0.55-2.07-1.13-2.81c-2.85-0.04-6.22,2.87-7.53,5.6c-0.02,0.05-0.04,0.1-0.06,0.15
		c0.2-5.17,1.68-9.6,2.9-12.44c2.32-0.5,4.37-2.09,5.35-4.45c0.74-1.78,0.98-4.24,0.56-6.33c-0.21-1.26-0.65-2.4-1.36-3.2
		c-2.84,0.1-6.07,3.18-7.23,5.98c-0.6,1.44-0.71,2.95-0.42,4.37c0.14,0.9,0.45,1.77,0.9,2.56c-0.32,0.74-0.65,1.58-0.98,2.51
		c-0.17-0.83-0.47-1.64-0.93-2.41c-1.54-2.54-5.1-5.1-7.87-4.85c-1.01,1.49-1.15,3.8-0.73,5.95c0.23,1.37,0.7,2.69,1.33,3.73
		c1.45,2.39,4.02,3.69,6.63,3.62c-0.28,1.63-0.46,3.38-0.49,5.21c-0.37-0.37-0.77-0.72-1.21-1.03c-2.76-1.93-7.63-2.94-10.38-1.41
		c-0.13,0.72-0.1,1.5,0.07,2.3c0.46,2.8,2.59,5.89,4.85,7.46c2.33,1.62,5.18,1.92,7.67,1.05c0.08,0.33,0.17,0.65,0.27,0.98
		c0.48,1.65,1.11,3.25,1.87,4.8c-0.43-0.18-0.88-0.33-1.35-0.44c-3.99-1.02-10.02-0.08-12.51,2.87c0.02,0.1,0.04,0.2,0.07,0.3
		c0,0-0.01,0.01-0.01,0.01c0.71,3.89,5.58,7.7,9.66,8.74c3.81,0.97,7.67-0.3,10.18-2.98c1.95,2.03,4.2,3.94,6.75,5.74
		c-2.98,1.15-5.78,3.18-6.77,5.58c0.03,0.06,0.07,0.13,0.11,0.19c-0.02,0.04-0.04,0.08-0.05,0.12c1.87,3.48,7.68,5.61,11.88,5.35
		c3.29-0.21,6.12-1.92,7.87-4.42l6.4,2.24l-8.35,2.93c-0.59,0.21-0.89,0.85-0.69,1.43c0.16,0.46,0.6,0.75,1.06,0.75
		c0.12,0,0.25-0.02,0.37-0.06l11-3.86l11.89,4.17c0.12,0.04,0.25,0.06,0.37,0.06c0.46,0,0.9-0.29,1.06-0.75
		c0.09-0.24,0.08-0.5,0-0.73c-0.02-0.45-0.3-0.86-0.75-1.02l-8.76-3.07l6.87-2.41c1.76,2.5,4.59,4.21,7.87,4.42
		c4.2,0.26,10.01-1.87,11.88-5.35c-1.02-2.48-3.95-4.55-7.02-5.68c2.68-1.86,5.04-3.85,7.06-5.96c2.51,2.68,6.37,3.95,10.18,2.98
		c4.08-1.04,8.95-4.85,9.66-8.74C135.35,70.89,129.33,69.96,125.34,70.98z"/>
	<path class="st2" d="M117.33,30.59c2.84,0.1,6.07,3.18,7.23,5.98c0.96,2.31,0.68,4.82-0.54,6.8c0.34,0.77,0.69,1.66,1.03,2.63
		c0.17-0.83,0.47-1.64,0.93-2.41c1.47-2.42,4.78-4.87,7.49-4.87c0.13,0,0.26,0.01,0.39,0.02c1.6,2.35,1.03,6.78-0.54,9.37
		c-1.41,2.33-3.89,3.62-6.43,3.62c-0.11,0-0.21,0-0.32-0.01c0.31,1.72,0.52,3.58,0.55,5.53c0.37-0.37,0.77-0.72,1.21-1.03
		c1.83-1.28,4.58-2.15,7.03-2.15c1.25,0,2.42,0.23,3.34,0.74c0.58,3.17-2.05,7.49-4.86,9.45c-1.48,1.03-3.17,1.53-4.85,1.53
		c-0.96,0-1.91-0.16-2.82-0.48c-0.08,0.33-0.17,0.65-0.27,0.98c-0.52,1.78-1.21,3.5-2.06,5.16c0.47-0.2,0.96-0.36,1.48-0.49
		c1.04-0.26,2.21-0.4,3.42-0.4c3.46,0,7.24,1.08,9.09,3.26c-0.71,3.89-5.58,7.7-9.66,8.74c-0.86,0.22-1.73,0.32-2.58,0.32
		c-2.91,0-5.66-1.23-7.6-3.3c-2.02,2.11-4.38,4.1-7.06,5.96c3.07,1.13,6,3.2,7.02,5.68c-1.76,3.29-7.04,5.37-11.16,5.37
		c-0.24,0-0.48-0.01-0.72-0.02c-3.29-0.21-6.12-1.92-7.87-4.42l-6.87,2.41l8.76,3.07c0.45,0.16,0.73,0.57,0.75,1.02
		c0.08,0.23,0.08,0.48,0,0.73c-0.16,0.46-0.6,0.75-1.06,0.75c-0.12,0-0.25-0.02-0.37-0.06l-11.89-4.17l-11,3.86
		c-0.12,0.04-0.25,0.06-0.37,0.06c-0.46,0-0.9-0.29-1.06-0.75c-0.21-0.59,0.1-1.23,0.69-1.43l8.35-2.93l-6.4-2.24
		c-1.76,2.5-4.59,4.21-7.87,4.42c-0.23,0.01-0.47,0.02-0.72,0.02c-4.12,0-9.4-2.09-11.16-5.37c0.02-0.04,0.04-0.08,0.05-0.12
		c-0.04-0.06-0.08-0.13-0.11-0.19c0.99-2.41,3.79-4.44,6.77-5.58c-2.56-1.8-4.81-3.71-6.75-5.74c-1.94,2.08-4.69,3.3-7.6,3.3
		c-0.85,0-1.71-0.1-2.58-0.32c-4.08-1.04-8.95-4.85-9.66-8.74c0,0,0.01-0.01,0.01-0.01c-0.02-0.1-0.05-0.2-0.07-0.3
		c1.85-2.18,5.63-3.26,9.09-3.26c1.21,0,2.38,0.13,3.42,0.4c0.47,0.12,0.92,0.27,1.35,0.44c-0.76-1.55-1.39-3.15-1.87-4.8
		c-0.1-0.33-0.18-0.65-0.27-0.98c-0.9,0.31-1.86,0.48-2.82,0.48c-1.68,0-3.37-0.49-4.85-1.53c-2.26-1.58-4.39-4.67-4.85-7.46
		c-0.16-0.8-0.2-1.58-0.07-2.3c0.93-0.52,2.1-0.74,3.34-0.74c2.45,0,5.21,0.88,7.03,2.15c0.44,0.31,0.84,0.66,1.21,1.03
		c0.03-1.83,0.21-3.58,0.49-5.21c-0.07,0-0.13,0-0.2,0c-2.54,0-5.02-1.29-6.43-3.62c-0.63-1.03-1.09-2.36-1.33-3.73
		c-0.43-2.16-0.29-4.47,0.73-5.95c0.13-0.01,0.26-0.02,0.39-0.02c2.71,0,6.02,2.44,7.49,4.87c0.46,0.76,0.77,1.58,0.93,2.41
		c0.32-0.92,0.66-1.76,0.98-2.51c-0.45-0.79-0.76-1.66-0.9-2.56c-0.29-1.42-0.17-2.93,0.42-4.37c1.16-2.8,4.39-5.88,7.23-5.98
		c0.71,0.8,1.15,1.94,1.36,3.2c0.42,2.08,0.18,4.55-0.56,6.33c-0.98,2.36-3.03,3.95-5.35,4.45c-1.22,2.84-2.71,7.28-2.9,12.44
		c0.02-0.05,0.04-0.1,0.06-0.15c1.29-2.72,4.63-5.6,7.47-5.6c0.02,0,0.04,0,0.06,0c0.59,0.73,0.95,1.72,1.13,2.81
		c0.45,2.2,0.09,4.88-0.8,6.75c-1.29,2.7-3.98,4.28-6.78,4.28c-0.04,0-0.08,0-0.11,0c-0.09-0.12-0.18-0.24-0.26-0.36
		c0.08,0.32,0.17,0.64,0.26,0.97c0.93,3.16,2.42,6.13,4.47,8.92c0.02-0.47,0.07-0.94,0.18-1.42c0.67-2.96,3.33-6.54,6.12-7.12
		c1.23,0.99,2.02,2.81,2.34,4.73c0.31,1.55,0.31,3.2,0.01,4.54c-0.48,2.12-1.82,3.81-3.55,4.82c1.82,1.62,3.87,3.16,6.14,4.62
		c0.38-0.06,0.74-0.1,1.1-0.12c0.22-0.01,0.44-0.02,0.66-0.02c3.93,0,7.41,2.2,9.17,5.5c0,0.01-0.01,0.02-0.01,0.03l9.17,3.21
		l9.17-3.21c0-0.01-0.01-0.02-0.01-0.03c1.77-3.3,5.24-5.5,9.17-5.5c0.22,0,0.44,0.01,0.66,0.02c0.36,0.02,0.73,0.07,1.1,0.12
		c2.37-1.52,4.49-3.14,6.37-4.84c-1.82-0.99-3.23-2.73-3.73-4.92c-0.66-2.9,0.13-7.22,2.29-8.96c2.79,0.58,5.45,4.16,6.12,7.12
		c0.11,0.48,0.16,0.95,0.18,1.42c2.05-2.79,3.55-5.76,4.47-8.92c0.13-0.44,0.25-0.88,0.35-1.32c-0.09,0.14-0.19,0.27-0.29,0.4
		c-0.04,0-0.08,0-0.11,0c-2.8,0-5.49-1.58-6.78-4.28c-1.28-2.68-1.46-7.07,0.28-9.24c0.02,0,0.04,0,0.06,0
		c2.83,0,6.17,2.89,7.47,5.6c0.05,0.1,0.09,0.21,0.14,0.31c-0.12-5.37-1.66-10-2.92-12.92c-2.32-0.5-4.37-2.09-5.35-4.45
		C115.45,37.07,115.49,32.68,117.33,30.59 M58.57,24.59c-0.07,0-0.14,0-0.21,0c-5.27,0.19-10.02,4.52-12.16,8.79
		c-1.23-0.41-2.5-0.65-3.78-0.65c-0.31,0-0.63,0.01-0.93,0.04c-1.79,0.16-3.41,1.12-4.42,2.6c-2.49,3.66-2.12,8.07-1.66,10.42
		c0.18,1.02,0.44,2.01,0.78,2.95c-0.67,0.22-1.31,0.5-1.91,0.84c-1.57,0.87-2.66,2.4-2.98,4.17c-0.26,1.42-0.23,2.92,0.07,4.47
		c0.57,3.26,2.45,6.7,4.96,9.28c-1.1,0.71-2.06,1.54-2.84,2.47c-1.16,1.37-1.64,3.19-1.32,4.95c0.01,0.06,0.02,0.13,0.04,0.19
		c0.01,0.04,0.01,0.08,0.02,0.12c1.18,6.49,8.09,11.95,14.08,13.48c1.33,0.34,2.69,0.51,4.06,0.51c0.67,0,1.33-0.04,1.98-0.12
		c-0.42,1.09-0.5,2.27-0.27,3.39c0.1,0.66,0.32,1.3,0.64,1.9c3.01,5.6,10.55,8.54,16.45,8.54c0.37,0,0.74-0.01,1.09-0.03
		c0.05,0,0.09-0.01,0.14-0.01c1.32,1.82,3.45,2.96,5.78,2.96c0.8,0,1.59-0.13,2.35-0.4l9.02-3.16l9.91,3.47
		c0.76,0.27,1.56,0.4,2.36,0.4c2.57,0,4.91-1.39,6.17-3.56c0.28,0.01,0.56,0.02,0.84,0.02c5.9,0,13.44-2.93,16.45-8.54
		c0.85-1.58,0.94-3.46,0.26-5.12c-0.03-0.07-0.06-0.13-0.08-0.2c0.72,0.1,1.45,0.15,2.18,0.15c1.36,0,2.73-0.17,4.06-0.51
		c5.91-1.51,12.85-6.74,14.08-13.48c0.32-1.77-0.16-3.58-1.32-4.95c-0.82-0.97-1.84-1.84-3-2.57c3.43-3.39,6.09-8.69,5.19-13.65
		c-0.32-1.77-1.42-3.29-2.98-4.17c-0.62-0.34-1.28-0.63-1.97-0.86c1.56-4.13,1.77-9.52-0.83-13.35c-1.01-1.48-2.63-2.44-4.42-2.6
		c-0.31-0.03-0.62-0.04-0.93-0.04c-1.28,0-2.55,0.24-3.78,0.65c-2.14-4.27-6.89-8.6-12.16-8.79c-0.07,0-0.14,0-0.21,0
		c-1.72,0-3.35,0.74-4.49,2.03c-3.64,4.11-3.64,11.05-1.79,15.49c0.66,1.58,1.6,3,2.76,4.2c-0.49,0.33-0.93,0.74-1.31,1.21
		c-2.82,3.54-3.08,8.87-1.92,13.06c-0.48,0.21-0.94,0.48-1.35,0.82c-4.28,3.44-5.45,10.28-4.39,14.97c0.18,0.79,0.43,1.56,0.74,2.29
		c-4.95,0.21-9.49,2.63-12.42,6.55l-5.21,1.83l-5.21-1.83c-2.9-3.87-7.37-6.28-12.24-6.54c0.26-0.64,0.46-1.31,0.62-1.99
		c0.49-2.13,0.5-4.6,0.04-6.96c-0.62-3.54-2.21-6.49-4.49-8.32c-0.38-0.31-0.79-0.56-1.23-0.76c0.65-2.48,0.77-5.22,0.29-7.66
		c-0.37-2.14-1.16-3.98-2.34-5.46c-0.32-0.4-0.69-0.76-1.1-1.06c1.09-1.16,1.98-2.53,2.61-4.04c1.2-2.89,1.54-6.52,0.92-9.72
		c-0.42-2.41-1.38-4.51-2.77-6.09C61.93,25.33,60.29,24.59,58.57,24.59L58.57,24.59z"/>
</g>
<g>
	<path class="st1" d="M72.47,52.92l3.55,4.15c0.12,0.14,0.21,0.3,0.26,0.47c0.06,0.17,0.08,0.35,0.06,0.53l-0.43,5.44l-0.43,5.44
		c-0.04,0.51,0.2,0.95,0.56,1.22c0.37,0.27,0.86,0.35,1.33,0.16l5.04-2.09l5.04-2.09c0.17-0.07,0.35-0.1,0.53-0.1
		s0.36,0.03,0.53,0.1l5.04,2.09l5.04,2.09c0.47,0.2,0.97,0.11,1.33-0.16c0.37-0.27,0.6-0.71,0.56-1.22l-0.43-5.44l-0.43-5.44
		c-0.01-0.18,0.01-0.36,0.06-0.53c0.06-0.17,0.14-0.33,0.26-0.47l3.55-4.15l3.55-4.15c0.33-0.39,0.4-0.89,0.26-1.32
		c-0.14-0.43-0.49-0.79-0.99-0.91l-5.31-1.27l-5.31-1.27c-0.18-0.04-0.34-0.12-0.49-0.22c-0.14-0.11-0.27-0.24-0.36-0.39L92,38.73
		l-2.85-4.66c-0.27-0.44-0.72-0.66-1.17-0.66s-0.9,0.22-1.17,0.66l-2.85,4.66l-2.85,4.66c-0.1,0.16-0.22,0.29-0.36,0.39
		c-0.14,0.11-0.31,0.18-0.49,0.22l-5.31,1.27l-5.31,1.27c-0.5,0.12-0.85,0.48-0.99,0.91c-0.14,0.43-0.07,0.93,0.26,1.32L72.47,52.92
		z"/>
</g>
<path class="st1" d="M107.01,38.89l-1.4-0.76c-0.12-0.06-0.21-0.16-0.28-0.28l-0.76-1.4c-0.26-0.48-0.95-0.48-1.22,0l-0.76,1.4
	c-0.06,0.12-0.16,0.21-0.28,0.28l-1.4,0.76c-0.48,0.26-0.48,0.95,0,1.22l1.4,0.76c0.12,0.06,0.21,0.16,0.28,0.28l0.76,1.4
	c0.26,0.48,0.95,0.48,1.22,0l0.76-1.4c0.06-0.12,0.16-0.21,0.28-0.28l1.4-0.76C107.49,39.84,107.49,39.15,107.01,38.89z"/>
<path class="st1" d="M81.58,29.77l-2.44-1.34c-0.2-0.11-0.37-0.28-0.48-0.48l-1.34-2.44c-0.46-0.84-1.67-0.84-2.13,0l-1.34,2.44
	c-0.11,0.2-0.28,0.37-0.48,0.48l-2.44,1.34c-0.84,0.46-0.84,1.67,0,2.13l2.44,1.34c0.2,0.11,0.37,0.28,0.48,0.48l1.34,2.44
	c0.46,0.84,1.67,0.84,2.13,0l1.34-2.44c0.11-0.2,0.28-0.37,0.48-0.48l2.44-1.34C82.42,31.44,82.42,30.23,81.58,29.77z"/>
<path class="st1" d="M95.68,73.53l-0.98-0.54c-0.08-0.04-0.15-0.11-0.19-0.19l-0.54-0.98c-0.18-0.34-0.67-0.34-0.85,0l-0.54,0.98
	c-0.04,0.08-0.11,0.15-0.19,0.19l-0.98,0.54c-0.34,0.18-0.34,0.67,0,0.85l0.98,0.54c0.08,0.04,0.15,0.11,0.19,0.19l0.54,0.98
	c0.18,0.34,0.67,0.34,0.85,0l0.54-0.98c0.04-0.08,0.11-0.15,0.19-0.19l0.98-0.54C96.01,74.2,96.01,73.71,95.68,73.53z"/>
</svg>
