<svg id="Layer_1" data-name="Layer 1" xmlns="http://www.w3.org/2000/svg" viewBox="0 0 33 33"><defs><style>.cls-1{fill:#72c726;}.cls-2{fill:#fff;}.cls-3{fill:none;stroke:#fff;stroke-linejoin:round;stroke-width:2px;}</style></defs><title>Untitled-2</title><g id="Group_421" data-name="Group 421"><g id="Group_420" data-name="Group 420"><ellipse id="Ellipse_79" data-name="Ellipse 79" class="cls-1" cx="16.39" cy="16.38" rx="14.58" ry="14.57"/><path id="Path_813" data-name="Path 813" class="cls-2" d="M16.39,32.75A16.38,16.38,0,1,1,32.77,16.38,16.37,16.37,0,0,1,16.39,32.75Zm0-29.14A12.77,12.77,0,1,0,29.16,16.38,12.77,12.77,0,0,0,16.39,3.61Z"/></g></g><path id="Path_815" data-name="Path 815" class="cls-3" d="M22.25,15.48a5.94,5.94,0,0,0-11.87-.13v.14a6.18,6.18,0,0,0,1.67,4.16l.19.23,4.07,4,4.27-4.27h0A6.21,6.21,0,0,0,22.25,15.48ZM16.31,17.8a2.41,2.41,0,1,1,2.42-2.41,2.41,2.41,0,0,1-2.42,2.41Z"/></svg>