<?xml version="1.0" encoding="utf-8"?>
<!-- Generator: Adobe Illustrator 19.0.0, SVG Export Plug-In . SVG Version: 6.00 Build 0)  -->
<svg version="1.1" id="Layer_1" xmlns="http://www.w3.org/2000/svg" xmlns:xlink="http://www.w3.org/1999/xlink" x="0px" y="0px"
	 viewBox="0 0 173.2 44.4" style="enable-background:new 0 0 173.2 44.4;" xml:space="preserve">
<style type="text/css">
	.st0{fill:#FFFFFF;}
	.st1{fill:url(#XMLID_143_);}
	.st2{fill:url(#XMLID_144_);}
	.st3{fill:url(#XMLID_145_);}
</style>
<g id="XMLID_24_">
	<path id="XMLID_47_" class="st0" d="M70.1,4.7c0-0.5-3.6-0.6-5.5-0.6c-1.8,0-2.5,0.2-5.5,0.6v15.1v6.6l-2.1-0.1
		c0,0-3.1-0.1-3.2-3.6l0.1-3.1l0-15.1c-1.8-0.4-3.6-0.5-5.4-0.5c-1.8,0-3.7,0-5.7,0.6L43,22.3c-0.1,3.2,0.8,6.9,2.8,9.4
		c1.8,2.3,4.5,3.4,7.3,3.5c2.2,0.1,4.4-0.1,6.5-0.1c1.2,0,2.5,0,3.7,0c0.5,0,1.1,0,1.6,0l-0.2,0.1c1.8,0,5.4,0,5.4-0.4V4.7z"/>
	
		<linearGradient id="XMLID_143_" gradientUnits="userSpaceOnUse" x1="-78.4935" y1="-19.9848" x2="-78.4935" y2="-0.907" gradientTransform="matrix(1 0 0 1 200.9514 30.1756)">
		<stop  offset="0" style="stop-color:#39B54A"/>
		<stop  offset="1" style="stop-color:#8CC63F"/>
	</linearGradient>
	<path id="XMLID_45_" class="st1" d="M112.9,34.9c0.6,0.2,1.4,0.3,2.4,0.4c1,0.1,2,0.1,3.1,0.1c0.8,0,1.7,0,2.8-0.1
		c1.1-0.1,2-0.3,2.7-0.4l8.1-15l-8.1-15.1c-0.7-0.2-1.6-0.4-2.7-0.5c-1.1-0.1-2-0.1-2.8-0.1c-1,0-2,0.1-3.1,0.2
		c-1,0.1-1.8,0.3-2.4,0.4l8.2,15.1L112.9,34.9z"/>
	
		<linearGradient id="XMLID_144_" gradientUnits="userSpaceOnUse" x1="-59.0384" y1="-19.9848" x2="-59.0384" y2="-0.907" gradientTransform="matrix(1 0 0 1 200.9514 30.1756)">
		<stop  offset="0" style="stop-color:#39B54A"/>
		<stop  offset="1" style="stop-color:#8CC63F"/>
	</linearGradient>
	<path id="XMLID_44_" class="st2" d="M132.4,34.9c0.6,0.2,1.4,0.3,2.4,0.4c1,0.1,2,0.1,3.1,0.1c0.8,0,1.7,0,2.8-0.1
		c1.1-0.1,2-0.3,2.7-0.4l8.1-15l-8.1-15.1c-0.7-0.2-1.6-0.4-2.7-0.5c-1.1-0.1-2-0.1-2.8-0.1c-1,0-2,0.1-3.1,0.2
		c-1,0.1-1.8,0.3-2.4,0.4l8.2,15.1L132.4,34.9z"/>
	
		<linearGradient id="XMLID_145_" gradientUnits="userSpaceOnUse" x1="-39.772" y1="-19.9848" x2="-39.772" y2="-0.907" gradientTransform="matrix(1 0 0 1 200.9514 30.1756)">
		<stop  offset="0" style="stop-color:#39B54A"/>
		<stop  offset="1" style="stop-color:#8CC63F"/>
	</linearGradient>
	<path id="XMLID_43_" class="st3" d="M151.6,34.9c0.6,0.2,1.4,0.3,2.4,0.4c1,0.1,2,0.1,3.1,0.1c0.8,0,1.7,0,2.8-0.1
		c1.1-0.1,2-0.3,2.7-0.4l8.1-15l-8.1-15.1c-0.7-0.2-1.6-0.4-2.7-0.5c-1.1-0.1-2-0.1-2.8-0.1c-1,0-2,0.1-3.1,0.2
		c-1,0.1-1.8,0.3-2.4,0.4l8.2,15.1L151.6,34.9z"/>
	<path id="XMLID_42_" class="st0" d="M93.1,34.9c0.6,0.2,1.4,0.3,2.4,0.4c1,0.1,2,0.1,3.1,0.1c0.8,0,1.7,0,2.8-0.1
		c1.1-0.1,2-0.3,2.7-0.4l0.1-15L104,4.7c-0.7-0.2-1.6-0.4-2.7-0.5c-1.1-0.1-2-0.1-2.8-0.1c-1,0-2,0.1-3.1,0.2
		c-1,0.1-1.8,0.3-2.4,0.4v15.1V34.9z"/>
	<path id="XMLID_35_" class="st0" d="M76.5,34.9c0.6,0.2,1.4,0.3,2.4,0.4c1,0.1,2,0.1,3.1,0.1c0.8,0,1.7,0,2.8-0.1
		c1.1-0.1,2-0.3,2.7-0.4l0.1-15L87.4,4.7c-0.7-0.2-1.6-0.4-2.7-0.5c-1.1-0.1-2-0.1-2.8-0.1c-1,0-2,0.1-3.1,0.2
		c-1,0.1-1.8,0.3-2.4,0.4v15.1V34.9z"/>
	<path id="XMLID_28_" class="st0" d="M36.5,26.3c3.6-8.7-0.5-18.8-9.3-22.5C18.5,0.2,8.5,4.3,4.8,13.1c-3.6,8.7,0.5,18.8,9.3,22.5
		l15,6.2l0.8,0.3c0,0,0,0,0,0l0,0l0.1-0.2c0.4-0.6,0.8-1.2,1.1-1.8c0.4-0.7,0.7-1.4,1-2c0.3-0.7,0.5-1.4,0.8-2.1
		c0.2-0.8,0.4-1.5,0.6-2.3l-1.8-0.8C33.8,31.1,35.4,28.9,36.5,26.3z M13.4,16.6c1.7-4,6.3-6,10.4-4.3c4,1.7,6,6.3,4.3,10.4
		c-1.7,4-6.3,6-10.4,4.3C13.6,25.3,11.7,20.7,13.4,16.6z"/>
	<path id="XMLID_25_" class="st0" d="M112.9,34.9c0.6,0.2,1.4,0.3,2.4,0.4c1,0.1,2,0.1,3.1,0.1c0.8,0,1.7,0,2.8-0.1
		c1.1-0.1,2-0.3,2.7-0.4l-8.6-15l8.6-15.1c-0.7-0.2-1.6-0.4-2.7-0.5c-1.1-0.1-2-0.1-2.8-0.1c-1,0-2,0.1-3.1,0.2
		c-1,0.1-1.8,0.3-2.4,0.4l-8.5,15.1L112.9,34.9z"/>
</g>
</svg>
