<svg id="Layer_1" data-name="Layer 1" xmlns="http://www.w3.org/2000/svg" xmlns:xlink="http://www.w3.org/1999/xlink" viewBox="0 0 242 61"><defs><style>.cls-1{fill:none;}.cls-2{fill:#d51e3d;}.cls-3{fill:#ee3853;}.cls-4{clip-path:url(#clip-path);}.cls-5{fill:#279847;}.cls-6{fill:#40b54f;}.cls-7{fill:#94cc86;}</style><clipPath id="clip-path"><rect class="cls-1" x="0.43" y="0.31" width="60.33" height="60.33" rx="13.07"/></clipPath></defs><title>MENU</title><rect class="cls-2" x="0.43" y="0.31" width="241.5" height="60.33" rx="13.07"/><rect class="cls-3" x="0.43" y="0.31" width="60.33" height="60.33" rx="13.07"/><g class="cls-4"><path class="cls-2" d="M61.39,26.79l.27-.73h0l.78-2.1a19.33,19.33,0,0,0-.38-13.88C59.9,5.21,55.56,1.54,49.16-.85s-12.1-2.46-16.91-.21A19.38,19.38,0,0,0,22.86,9.19L21.8,12A11,11,0,0,0,8.92,18.83L8.47,20a11,11,0,0,0,5.27,13.59l-.23.62a2,2,0,0,0,3.8,1.42l.4-1.07A3.32,3.32,0,0,0,20,32.53L25.85,17a3.32,3.32,0,0,0-.41-3.08l1.22-3.29,0,0A15.41,15.41,0,0,1,34,2.6C37.8.84,42.41,1,47.74,2.94s8.89,4.93,10.6,8.74a15.46,15.46,0,0,1,.32,10.81L57.39,25.9A3.3,3.3,0,0,0,55.06,28l-6,16a3.3,3.3,0,0,0,.41,3.07l-.09.27,0,0a15.44,15.44,0,0,1-7.33,8,15.2,15.2,0,0,1-9.51.86,3.71,3.71,0,0,0-2.29-2.53l-2.52-.94a3.73,3.73,0,0,0-4.79,2.19l-.15.4A3.74,3.74,0,0,0,25,60.11l2.52.94a3.74,3.74,0,0,0,4-.93A19.21,19.21,0,0,0,43.8,59,19.39,19.39,0,0,0,53,49.21l0-.09.11-.3v0l.11-.3a1.05,1.05,0,0,0,.21-.06,11,11,0,0,0,12.72-6.85l.45-1.2A11,11,0,0,0,61.39,26.79Z"/><rect class="cls-5" x="12.03" y="7.77" width="6.99" height="23.22" rx="2.83" transform="translate(7.76 -4.21) rotate(20.47)"/><path class="cls-6" d="M13.58,5.72H15.9a0,0,0,0,1,0,0V28.94a0,0,0,0,1,0,0H13.58a9.4,9.4,0,0,1-9.4-9.4V15.12a9.4,9.4,0,0,1,9.4-9.4Z" transform="translate(6.7 -2.42) rotate(20.47)"/><rect class="cls-5" x="47.7" y="21.19" width="6.99" height="23.72" rx="2.83" transform="translate(87.59 81.93) rotate(-159.53)"/><path class="cls-6" d="M60.34,23.18h2.32a0,0,0,0,1,0,0V46.4a0,0,0,0,1,0,0H60.34a9.4,9.4,0,0,1-9.4-9.4V32.58a9.4,9.4,0,0,1,9.4-9.4Z" transform="matrix(-0.94, -0.35, 0.35, -0.94, 97.84, 87.25)"/><rect class="cls-7" x="49.28" y="18.52" width="4.06" height="28.45" rx="1.64" transform="translate(87.93 81.36) rotate(-159.53)"/><path class="cls-7" d="M57.92,5.93C55.76,1.07,51.42-2.61,45-5S32.92-7.46,28.1-5.2A19.35,19.35,0,0,0,18.72,5l-3,8.17h0L9.36,30.1a2,2,0,0,0,1.19,2.61h0a2,2,0,0,0,2.61-1.19l6.31-16.89h0l3.05-8.18v0a15.45,15.45,0,0,1,7.34-8c3.78-1.75,8.4-1.64,13.73.35s8.89,4.93,10.59,8.74a15.44,15.44,0,0,1,.33,10.81l-3.07,8.22L55.25,28l3-8.17A19.41,19.41,0,0,0,57.92,5.93Z"/><path class="cls-7" d="M45.24,43.19v0a15.45,15.45,0,0,1-7.33,8c-3.79,1.75-8.41,1.64-13.73-.35l-1.42,3.8c6.4,2.39,12.09,2.46,16.91.2A19.39,19.39,0,0,0,49.05,44.6l3.05-8.17L48.3,35Z"/><rect class="cls-6" x="18.39" y="48.8" width="10.14" height="7.89" rx="3.19" transform="translate(19.93 -4.87) rotate(20.47)"/></g></svg>