<svg id="Layer_1" data-name="Layer 1" xmlns="http://www.w3.org/2000/svg" xmlns:xlink="http://www.w3.org/1999/xlink" viewBox="0 0 242 61"><defs><style>.cls-1{fill:none;}.cls-2{fill:#00b7a5;}.cls-3{fill:#0edbb3;}.cls-4{clip-path:url(#clip-path);}.cls-5{fill:#00927a;}.cls-6{fill:#b81f3b;}.cls-7{fill:url(#linear-gradient);}.cls-8{fill:#eb202c;}.cls-9{fill:url(#linear-gradient-2);}.cls-10{fill:#efaa1f;}.cls-11{fill:#fd0;}.cls-12{fill:#fff;}</style><clipPath id="clip-path"><rect class="cls-1" x="-0.01" y="0.35" width="59.99" height="59.99" rx="13.07"/></clipPath><linearGradient id="linear-gradient" x1="-20.75" y1="511.9" x2="13.44" y2="511.9" gradientTransform="matrix(0.99, 0.1, -0.1, 0.99, 113.16, -477.69)" gradientUnits="userSpaceOnUse"><stop offset="0" stop-color="#ed2b2f"/><stop offset="1" stop-color="#b81f3b"/></linearGradient><linearGradient id="linear-gradient-2" x1="-65.29" y1="511.9" x2="-35.95" y2="511.9" xlink:href="#linear-gradient"/></defs><title>MENU</title><rect class="cls-2" x="0.43" y="0.18" width="241.5" height="60.33" rx="13.07"/><rect class="cls-3" y="0.35" width="59.99" height="59.99" rx="13.07"/><g class="cls-4"><path class="cls-5" d="M62.56,15.19l-2.62-.27h0a15.64,15.64,0,0,0-6.24.62c-.46.14-.91.31-1.35.49a20.09,20.09,0,0,0-13.9-7.79l-3.36-.35A20.63,20.63,0,0,0,33,7.79c-.41,0-.82,0-1.23,0a19.31,19.31,0,0,0-3.74.58A19.55,19.55,0,0,0,26.17,9a16.88,16.88,0,0,0-1.81.76,20.21,20.21,0,0,0-5.68,4.06,13.24,13.24,0,0,0-3.3-.77l-2.25-.23h0A13.44,13.44,0,0,0,4.8,14.69,13.79,13.79,0,0,0-.13,19.82,13.76,13.76,0,0,0-1.73,25a12.46,12.46,0,0,0-.07,1.35,14.52,14.52,0,0,0,2.88,8.48h0L9.76,45.47h0L12,45.7l5.52-4.48,12.52,15.4h0l3.36.35L49,44.33,56,53h0l2.63.27L71.08,43.14h0a16.61,16.61,0,0,0,5.56-10.57A15.83,15.83,0,0,0,62.56,15.19Zm-6.9,19.18a19.59,19.59,0,0,0,.8-3.89,20.58,20.58,0,0,0,0-4.37,6.44,6.44,0,0,1,3.83-1.79A6.41,6.41,0,0,1,59,36.81,6.5,6.5,0,0,1,55.66,34.37ZM8.5,25.78a5.49,5.49,0,0,1,4.92-4.9,6.62,6.62,0,0,1,.62.24A19.88,19.88,0,0,0,12.91,26a20.28,20.28,0,0,0,0,4c0,.49.12,1,.21,1.46a6.86,6.86,0,0,1-.79.14A5.51,5.51,0,0,1,8.5,25.78Z"/><path class="cls-6" d="M69.28,19l-.06-.28c-.13-.27-.37-.83-.45-1l-.09-.12c-.14-.19-.59-.55-.73-.79a1.3,1.3,0,0,0-.23-.18,3.35,3.35,0,0,0-.42-.26s-.19,0-.45-.27l-.34-.15c-.29-.11-.62-.18-.92-.3l-.28-.06c-.42-.06-.83-.1-1.24-.12h-.31c-.76.18-1.56.2-2.32.4a4.1,4.1,0,0,1-3.23-.55,3.67,3.67,0,0,1-.57.54,3.82,3.82,0,0,1-1.7.86,3.79,3.79,0,0,1-1.95.23l-.17,0a5,5,0,0,1-2.43-.94L50.46,15c-.11-.14-.22-.29-.32-.44A15.89,15.89,0,0,0,42.8,26.38a16.53,16.53,0,0,0,3.28,11.46h0l6.58,8.09c1.94-1.17,3.94-2.21,6-3.27l1.6-.87,1.06-.61h0c.89-.67,1.77-1.3,2.6-2l0,0,.27-.27c.22-.26.43-.53.63-.8s.33-.5.5-.74l.06-.12a14.37,14.37,0,0,0,.75-2,3.92,3.92,0,0,0,.1-.43c.11-.64.07-.36,0,0,0,.11,0,.25-.06.42,0-.32.14-.64.2-1,.79-4,1.36-7.9,2.49-11.81.08-.27.15-.53.22-.8a2.14,2.14,0,0,0,.07-.35c.08-.57.13-1.15.2-1.72C69.33,19.32,69.32,19.13,69.28,19ZM57.86,34.1a6.41,6.41,0,1,1,7-5.72A6.41,6.41,0,0,1,57.86,34.1Z"/><path class="cls-7" d="M74.24,29.59A15.84,15.84,0,0,0,60.17,12.22L57.54,12A15.86,15.86,0,0,0,40.22,26.11,16.53,16.53,0,0,0,43.5,37.57h0L53.61,50l2.62.27L68.68,40.17h0A16.62,16.62,0,0,0,74.24,29.59ZM64.4,35.23A10.57,10.57,0,0,1,52.15,38a10.35,10.35,0,0,1-6.28-11.16,11,11,0,0,1,10.51-8.9,6.37,6.37,0,0,1,3.06.55,8.37,8.37,0,0,1,3.2,1.81C66.73,24,68.22,30.7,64.4,35.23Z"/><path class="cls-8" d="M71.61,29.32a15.78,15.78,0,1,0-31.39-3.21A16.53,16.53,0,0,0,43.5,37.57h0L53.61,50,66.06,39.9h0A16.61,16.61,0,0,0,71.61,29.32ZM55.28,33.83a6.41,6.41,0,1,1,7-5.71A6.41,6.41,0,0,1,55.28,33.83Z"/><path class="cls-6" d="M20.81,15.85l-.06-.24c-.11-.23-.31-.71-.38-.89l-.08-.1a8.58,8.58,0,0,1-.62-.69l-.2-.15a2.46,2.46,0,0,0-.36-.22s-.17,0-.39-.23l-.29-.13c-.25-.1-.54-.15-.79-.26l-.24,0a9.67,9.67,0,0,0-1.07-.1h-.26c-.65.15-1.34.17-2,.34a3.48,3.48,0,0,1-2.77-.47,2.69,2.69,0,0,1-.49.46,3.17,3.17,0,0,1-1.46.74,3.26,3.26,0,0,1-1.67.2l-.15,0a4.26,4.26,0,0,1-2.08-.8l-.8-.76a3.28,3.28,0,0,1-.27-.38,13.65,13.65,0,0,0-6.3,10.13A14.19,14.19,0,0,0,.9,32.05h0L6.53,39c1.67-1,3.39-1.89,5.12-2.8L13,35.43l.91-.52h0c.76-.58,1.51-1.12,2.22-1.76l0,0,.23-.23q.29-.33.54-.69l.43-.63a.54.54,0,0,0,0-.11,12.94,12.94,0,0,0,.65-1.7,2.45,2.45,0,0,0,.08-.36c.09-.55.06-.31,0,0,0,.1,0,.21-.06.36.05-.28.12-.55.18-.83.68-3.41,1.16-6.77,2.13-10.13l.2-.68.06-.3c.06-.49.1-1,.16-1.48C20.84,16.17,20.84,16,20.81,15.85Zm-9.8,13a5.5,5.5,0,1,1,6-4.91A5.5,5.5,0,0,1,11,28.85Z"/><path class="cls-9" d="M25.06,25A13.58,13.58,0,0,0,13,10.08l-2.25-.23A13.6,13.6,0,0,0-4.13,22a14.19,14.19,0,0,0,2.82,9.83h0L7.36,42.5l2.25.23,10.68-8.67h0A14.25,14.25,0,0,0,25.06,25Zm-8.44,4.84A9.06,9.06,0,0,1,6.11,32.19,8.88,8.88,0,0,1,.72,22.62a9.44,9.44,0,0,1,9-7.63,5.23,5.23,0,0,1,2.62.47A7,7,0,0,1,15.11,17C18.62,20.21,19.89,25.93,16.62,29.82Z"/><path class="cls-8" d="M22.8,24.75A13.58,13.58,0,0,0,10.74,9.85,13.6,13.6,0,0,0-4.13,22a14.19,14.19,0,0,0,2.82,9.83h0L7.36,42.5,18,33.82h0A14.16,14.16,0,0,0,22.8,24.75Zm-14,3.87a5.5,5.5,0,1,1,6-4.9A5.5,5.5,0,0,1,8.8,28.62Z"/><path class="cls-10" d="M54.07,27.51a20.28,20.28,0,0,0-18-22.24l-3.37-.35A20.31,20.31,0,0,0,10.51,23.05a21.2,21.2,0,0,0,4.2,14.67h0l13,15.93L31,54,47,41.05h0A21.32,21.32,0,0,0,54.07,27.51Z"/><path class="cls-11" d="M50.7,27.16a20.2,20.2,0,1,0-40.19-4.11,21.2,21.2,0,0,0,4.2,14.67h0l13,15.93L43.59,40.71h0A21.23,21.23,0,0,0,50.7,27.16Z"/><polygon class="cls-12" points="29.99 31.65 36.81 36.19 36.26 28.01 42.69 22.93 34.74 20.92 31.89 13.24 27.53 20.18 19.34 20.51 24.59 26.8 22.38 34.69 29.99 31.65"/><polygon class="cls-10" points="30.45 20.05 32.95 16.08 31.89 13.24 27.53 20.17 30.45 20.05"/><polygon class="cls-10" points="32.91 31.53 29.99 31.65 36.81 36.19 36.66 34.03 32.91 31.53"/><polygon class="cls-10" points="25.63 33.39 27.51 26.68 22.26 20.39 19.34 20.51 24.59 26.8 22.38 34.69 25.63 33.39"/></g></svg>