<svg id="Layer_1" data-name="Layer 1" xmlns="http://www.w3.org/2000/svg" xmlns:xlink="http://www.w3.org/1999/xlink" viewBox="0 0 242 61"><defs><style>.cls-1{fill:none;}.cls-2{fill:#319947;}.cls-3{fill:#3bb44a;}.cls-4{clip-path:url(#clip-path);}.cls-5{fill:#efaa1f;}.cls-6{fill:#fd0;}.cls-7{fill:#d98227;}</style><clipPath id="clip-path"><rect class="cls-1" x="0.04" y="0.49" width="60.33" height="60.33" rx="13"/></clipPath></defs><title>MENU</title><rect class="cls-2" x="0.43" y="0.49" width="241.5" height="60.33" rx="13.07"/><rect class="cls-3" x="0.04" y="0.49" width="60.33" height="60.33" rx="13.07"/><g class="cls-4"><path class="cls-2" d="M61.09,55.79l-14.42-3-2.35-.48h0l-16.46-3.4h0l-2.58-.53-3.55-.74h0l-1.11-.23a1.84,1.84,0,0,0-2.17,1.42L18.22,50h0l-.94,4.56A3,3,0,0,0,19.59,58L42.18,62.7h0l13,2.69h0l3.77.78a3,3,0,0,0,3.51-2.31l.94-4.55A3,3,0,0,0,61.09,55.79Z"/><path class="cls-2" d="M65.82,32.9,40.76,27.72c2.53-8.45.43-17.19-5.92-21.91h0l-.41-.29h0L31.38,3.38C22.67-2.69,9.7.87,2.42,11.32S-3.7,35.16,5,41.23l3.05,2.13h0l.42.29h0a17.28,17.28,0,0,0,11.82,2.51,1.89,1.89,0,0,0,.53.21l1.12.23h0l1,.21,6.69,1.39h0l22.39,4.62,5.48,1.13h0l3.76.78a3,3,0,0,0,3.52-2.31l.94-4.55a3,3,0,0,0-2.31-3.51l-3.77-.78h0l-13-2.69h0L40,39.5h0l-5.4-1.11c.29-.31.57-.62.84-1l13.79,2.85,10.65,2.2h0l3.77.78A3,3,0,0,0,67.19,41l.94-4.55A3,3,0,0,0,65.82,32.9Z"/><rect class="cls-5" x="14" y="48.34" width="46.13" height="10.59" rx="4.29" transform="translate(11.62 -6.39) rotate(11.67)"/><rect class="cls-5" x="16.36" y="36.89" width="46.13" height="10.59" rx="4.29" transform="translate(9.35 -7.1) rotate(11.67)"/><rect class="cls-5" x="18.73" y="25.44" width="46.13" height="10.59" rx="4.29" transform="translate(7.08 -7.82) rotate(11.67)"/><rect class="cls-6" x="41.59" y="27.39" width="19.22" height="10.59" rx="4.29" transform="translate(7.67 -9.68) rotate(11.67)"/><rect class="cls-6" x="39.23" y="38.84" width="19.22" height="10.59" rx="4.29" transform="translate(9.94 -8.97) rotate(11.67)"/><rect class="cls-6" x="36.86" y="50.28" width="19.22" height="10.59" rx="4.29" transform="translate(12.21 -8.25) rotate(11.67)"/><path class="cls-7" d="M15.17,45.58l-.23,1.11a19.94,19.94,0,0,0,9.64-1l-7.24-1.5A1.84,1.84,0,0,0,15.17,45.58Z"/><path class="cls-7" d="M17.54,34.13l-1.4,6.79a1.82,1.82,0,0,0,1.42,2.16l8.84,1.83a26.31,26.31,0,0,0,10.35-8.68l-17-3.53A1.83,1.83,0,0,0,17.54,34.13Z"/><path class="cls-7" d="M19.9,22.68l-1.4,6.79a1.83,1.83,0,0,0,1.43,2.16l17.49,3.61a26.41,26.41,0,0,0,3.94-10l-19.29-4A1.83,1.83,0,0,0,19.9,22.68Z"/><ellipse class="cls-5" cx="17.97" cy="21.16" rx="23.07" ry="19.22" transform="translate(-9.66 23.81) rotate(-55.13)"/><rect class="cls-5" x="-6.42" y="18.12" width="46.13" height="4.23" transform="translate(-9.47 22.33) rotate(-55.13)"/><ellipse class="cls-6" cx="14.91" cy="19.03" rx="23.07" ry="19.22" transform="translate(-9.22 20.39) rotate(-55.13)"/><path class="cls-7" d="M26.79,26.78c-5.59,8-15.46,10.84-22,6.26S-2.61,18.23,3,10.2,18.45-.64,25,3.94,32.39,18.75,26.79,26.78Z"/><path class="cls-5" d="M27.12,27.54c-5.46,7.84-15,10.59-21.41,6.16S-1.4,19.31,4.07,11.47,19.12.87,25.48,5.31,32.59,19.7,27.12,27.54Z"/><path class="cls-7" d="M13.31,28.13a3.94,3.94,0,0,0,.65.71,11.44,11.44,0,0,0,.94.75c.26.17.56.37.93.57a5,5,0,0,0,1,.41l7.33-4.93L26.26,17a5.21,5.21,0,0,0-.7-.82c-.32-.27-.61-.49-.87-.67a10.72,10.72,0,0,0-1-.61,3.79,3.79,0,0,0-.9-.35l-2.1,8.63Z"/><path class="cls-7" d="M15.59,24c3.9-3.12,5.72-8.58,4.05-12.17s-6.2-4-10.11-.86-5.72,8.58-4,12.17l2.86,6.16.15.33h0v0l.1-.09A9.71,9.71,0,0,0,9.53,29c.35-.24.66-.47,1-.69s.61-.5.92-.79.62-.59.92-.92L12,25.83A9.77,9.77,0,0,0,15.59,24Zm-4.43-9.53c1.81-1.44,3.9-1.26,4.68.4S15.77,19,14,20.46s-3.9,1.26-4.67-.4S9.35,15.87,11.16,14.43Z"/><path class="cls-6" d="M12.14,27.31a4,4,0,0,0,.65.72,11.33,11.33,0,0,0,.94.74,10.46,10.46,0,0,0,.93.58,5.67,5.67,0,0,0,1,.41L23,24.82l2.11-8.62a5.27,5.27,0,0,0-.7-.81,9,9,0,0,0-.87-.67,10.81,10.81,0,0,0-1-.62,4.33,4.33,0,0,0-.91-.35l-2.1,8.64Z"/><path class="cls-6" d="M14.42,23.14c3.9-3.12,5.72-8.57,4-12.16s-6.2-4-10.11-.86S2.64,18.69,4.3,22.28l2.87,6.28.15.44h0v-.09l.11-.15a8.29,8.29,0,0,0,.92-.58c.35-.24.66-.48,1-.71s.61-.5.92-.79.62-.59.92-.92L10.81,25A9.85,9.85,0,0,0,14.42,23.14ZM10,13.62c1.8-1.44,3.9-1.26,4.67.4s-.07,4.18-1.87,5.62-3.9,1.26-4.68-.4S8.18,15.06,10,13.62Z"/></g></svg>