<svg id="Layer_1" data-name="Layer 1" xmlns="http://www.w3.org/2000/svg" xmlns:xlink="http://www.w3.org/1999/xlink" viewBox="0 0 151 150"><defs><style>.cls-1{fill:none;}.cls-2{fill:#0edbb3;}.cls-3{clip-path:url(#clip-path);}.cls-4{fill:#00927a;}.cls-5{fill:#b81f3b;}.cls-6{fill:url(#linear-gradient);}.cls-7{fill:#eb202c;}.cls-8{fill:url(#linear-gradient-2);}.cls-9{fill:#efaa1f;}.cls-10{fill:#fd0;}.cls-11{fill:#fff;}</style><clipPath id="clip-path"><circle class="cls-1" cx="75.08" cy="75.08" r="75.08"/></clipPath><linearGradient id="linear-gradient" x1="-395.53" y1="1162.64" x2="-394.53" y2="1162.64" gradientTransform="matrix(68.97, -3.61, -4.06, -77.49, 32137.82, 88748.86)" gradientUnits="userSpaceOnUse"><stop offset="0" stop-color="#ed2b2f"/><stop offset="1" stop-color="#b81f3b"/></linearGradient><linearGradient id="linear-gradient-2" x1="-395.79" y1="1163.33" x2="-394.79" y2="1163.33" gradientTransform="matrix(59.17, -3.1, -3.48, -66.48, 27518.48, 76191.32)" xlink:href="#linear-gradient"/></defs><title>Untitled-2</title><circle id="Ellipse_80" data-name="Ellipse 80" class="cls-2" cx="75.08" cy="75.08" r="75.08"/><g class="cls-3"><g id="Mask_Group_3" data-name="Mask Group 3"><g id="Group_444" data-name="Group 444"><path id="Path_831" data-name="Path 831" class="cls-4" d="M131.48,53.65l-5.32-.27h0a31.58,31.58,0,0,0-12.52,1.9c-.91.34-1.8.72-2.67,1.13A40.57,40.57,0,0,0,82.1,42.17l-6.82-.35a38.86,38.86,0,0,0-4.18,0c-.83,0-1.66.12-2.48.21a39.83,39.83,0,0,0-7.48,1.58c-1.27.4-2.52.86-3.73,1.37a37.72,37.72,0,0,0-3.56,1.73A41.06,41.06,0,0,0,42.8,55.51a27,27,0,0,0-6.72-1.2l-4.57-.23h0A26.92,26.92,0,0,0,22,55.28a24.09,24.09,0,0,0-2.5.92,27.07,27.07,0,0,0-4.64,2.53,27.7,27.7,0,0,0-9.4,10.88c-.39.8-.74,1.63-1,2.47A27.6,27.6,0,0,0,2.8,80.15c0,.91,0,1.82,0,2.73A29.32,29.32,0,0,0,9.52,99.69h0l18.64,20.62h0l4.57.23,10.66-9.63,26.89,29.76h0l6.82.34,30.06-27.14,15.1,16.71h0l5.33.27,24-21.72h0c5.87-6.08,9.66-13.32,10.1-21.93A32,32,0,0,0,131.48,53.65ZM119.59,93.06a40.75,40.75,0,0,0,1.2-7.92,41.9,41.9,0,0,0-.51-8.81,12.95,12.95,0,1,1,.75,18.3A13.41,13.41,0,0,1,119.59,93.06ZM23.52,80.73a8,8,0,0,1,10.68-10,41,41,0,0,0-1.76,10,39.68,39.68,0,0,0,.39,8c.15,1,.35,2,.57,2.92a8,8,0,0,1-9.88-10.93Z"/><g id="Group_437" data-name="Group 437"><g id="Group_435" data-name="Group 435"><path id="Path_832" data-name="Path 832" class="cls-5" d="M145.44,60.53c-.05-.2-.11-.39-.17-.58-.28-.52-.82-1.63-1-2l-.18-.23a18.77,18.77,0,0,1-1.56-1.53l-.48-.34a9.09,9.09,0,0,0-.87-.47c-.07.06-.41,0-.94-.49-.24-.09-.47-.19-.71-.27-.61-.2-1.28-.3-1.88-.52l-.59-.08a23.31,23.31,0,0,0-2.51-.12l-.63,0c-1.5.44-3.11.56-4.62,1a8.28,8.28,0,0,1-6.58-.76,7.85,7.85,0,0,1-1.09,1.14,11.22,11.22,0,0,1-7.27,2.59l-.33,0a10,10,0,0,1-5-1.63l-2-1.68c-.24-.27-.47-.56-.69-.86A32.09,32.09,0,0,0,92.79,78.3c-.44,8.6,2.61,16.13,7.83,22.77h0l14.11,15.61c3.8-2.55,7.73-4.87,11.68-7.23,1.06-.63,2.11-1.27,3.16-1.92l2.06-1.34,0,0c1.71-1.45,3.43-2.82,5-4.41l.09-.1c.21-.25.48-.53.52-.59.42-.54.82-1.11,1.19-1.68s.62-1,.92-1.54a2,2,0,0,0,.12-.26,28.81,28.81,0,0,0,1.31-4.07,8,8,0,0,0,.15-.86c.15-1.32.11-.74,0,0q0,.33-.09.84c.07-.65.22-1.31.31-2,1.18-8.11,1.9-16.08,3.78-24.09.12-.54.25-1.09.37-1.64,0-.23.09-.56.1-.71.09-1.16.13-2.33.21-3.49C145.56,61.26,145.52,60.88,145.44,60.53ZM124,92.29A12.95,12.95,0,1,1,137.59,80,12.95,12.95,0,0,1,124,92.29Z"/></g><path id="Path_833" data-name="Path 833" class="cls-6" d="M156.55,81.47A32,32,0,0,0,126.34,47.9L121,47.63A32,32,0,0,0,87.56,78c-.44,8.6,2.61,16.13,7.83,22.77h0l21.73,24,5.33.27,24-21.71h0C152.32,97.32,156.12,90.07,156.55,81.47ZM137.31,93.88a21.33,21.33,0,0,1-24.42,6.88C104,97.34,97.84,88.69,99,78.91,100.3,68.43,109,61,119.3,59.85a12.62,12.62,0,0,1,6.23.78A16.92,16.92,0,0,1,132.19,64c8.63,7.09,12.34,20.39,5.12,29.93Z"/><g id="Group_436" data-name="Group 436"><path id="Path_834" data-name="Path 834" class="cls-7" d="M151.23,81.2A31.88,31.88,0,0,0,87.55,78h0c-.44,8.59,2.61,16.13,7.84,22.77h0l21.73,24,24-21.71h0C147,97.05,150.79,89.8,151.23,81.2ZM118.76,92a12.95,12.95,0,1,1,13.59-12.27A12.95,12.95,0,0,1,118.76,92Z"/></g></g><g id="Group_440" data-name="Group 440"><g id="Group_438" data-name="Group 438"><path id="Path_835" data-name="Path 835" class="cls-5" d="M47.3,59.4c0-.17-.09-.33-.14-.5-.24-.45-.7-1.4-.87-1.75l-.15-.2a16.57,16.57,0,0,1-1.34-1.31c-.14-.1-.27-.2-.42-.29a7.58,7.58,0,0,0-.74-.4c-.06,0-.35,0-.81-.43l-.6-.22c-.52-.17-1.1-.26-1.62-.45-.17,0-.34-.05-.51-.06A19.23,19.23,0,0,0,38,53.68l-.54,0c-1.28.37-2.67.48-4,.89a7.1,7.1,0,0,1-5.64-.65,6.69,6.69,0,0,1-.94,1,9.62,9.62,0,0,1-6.23,2.22l-.28,0a8.57,8.57,0,0,1-4.3-1.4l-1.68-1.43a8.45,8.45,0,0,1-.59-.75A27.54,27.54,0,0,0,2.14,74.65C1.76,82,4.38,88.49,8.86,94.18h0L21,107.58c3.26-2.2,6.64-4.19,10-6.21.91-.54,1.81-1.08,2.71-1.65.59-.37,1.19-.76,1.77-1.15l0,0c1.47-1.24,3-2.41,4.31-3.77l.08-.09.45-.5c.36-.47.7-1,1-1.45s.52-.88.79-1.32l.1-.21a26.89,26.89,0,0,0,1.12-3.5c0-.2.09-.48.13-.74.12-1.12.09-.63,0,0,0,.19,0,.43-.08.72.06-.56.19-1.12.27-1.67,1-7,1.63-13.8,3.23-20.68.11-.46.22-.93.32-1.4l.09-.61c.07-1,.11-2,.18-3C47.41,60,47.38,59.7,47.3,59.4ZM28.91,86.65A11.11,11.11,0,1,1,40.58,76.12,11.12,11.12,0,0,1,28.91,86.65Z"/></g><path id="Path_836" data-name="Path 836" class="cls-8" d="M56.84,77.36A27.43,27.43,0,0,0,30.92,48.57l-4.57-.23A27.48,27.48,0,0,0-2.35,74.42C-2.73,81.8-.11,88.26,4.37,94h0L23,114.57l4.57.24L48.19,96.18h0C53.21,91,56.47,84.74,56.84,77.36ZM40.33,88a18.31,18.31,0,0,1-20.95,5.9C11.72,91,6.47,83.55,7.49,75.17c1.09-9,8.54-15.4,17.39-16.36a10.75,10.75,0,0,1,5.35.68,14.21,14.21,0,0,1,5.71,2.84c7.4,6.09,10.59,17.49,4.39,25.68Z"/><g id="Group_439" data-name="Group 439"><path id="Path_837" data-name="Path 837" class="cls-7" d="M52.27,77.13a27.35,27.35,0,0,0-54.61-3c0,.1,0,.2,0,.3C-2.73,81.79-.12,88.26,4.37,94h0L23,114.57,43.62,95.94h0C48.64,90.73,51.89,84.51,52.27,77.13ZM24.42,86.42A11.11,11.11,0,1,1,36.08,75.89,11.11,11.11,0,0,1,24.42,86.42Z"/></g></g><g id="Group_443" data-name="Group 443"><path id="Path_838" data-name="Path 838" class="cls-9" d="M115.32,78.36A40.75,40.75,0,0,0,76.82,35.6L70,35.25A40.82,40.82,0,0,0,27.4,74c-.56,11,3.32,20.56,10,29h0L65,133.63l6.79.34,30.64-27.67h0C109.93,98.56,114.76,89.31,115.32,78.36Z"/><g id="Group_441" data-name="Group 441"><path id="Path_839" data-name="Path 839" class="cls-10" d="M108.53,78A40.62,40.62,0,1,0,27.4,74c-.56,11,3.32,20.55,10,29h0L65,133.63,95.68,106h0C103.14,98.21,108,89,108.53,78Z"/></g><path id="Path_840" data-name="Path 840" class="cls-9" d="M87.53,69.73c-.92,13.06-11.12,9.5-11.62,16.55l-16.45.14A17.42,17.42,0,0,1,60.29,83a10.28,10.28,0,0,1,1.86-2.74,18.11,18.11,0,0,1,5.52-3.67c2.75-1.29,8-2.33,9.42-5.4a5.8,5.8,0,0,0-.65-5.07c-1.53-2.23-4.29-2.6-6.78-2.15a7.32,7.32,0,0,0-3.18,1.29c-.23.18-1.82,2.59-1.49,2.57L48.94,69c.73-10.32,10.86-18.56,23.19-17.69C84.89,52.22,88.11,61.56,87.53,69.73Z"/><path id="Path_841" data-name="Path 841" class="cls-9" d="M73.93,97.76a7.36,7.36,0,0,1-7.93,6.6,7.25,7.25,0,0,1-6.62-7.63A7.36,7.36,0,0,1,67,89.81,7.46,7.46,0,0,1,73.93,97.76Z"/><g id="Group_442" data-name="Group 442"><path id="Path_842" data-name="Path 842" class="cls-11" d="M91.33,67.68c-.92,13.06-14.92,11.55-15.42,18.6L62.7,85.35c.86-12.1,15.73-10.3,16.16-16.39.24-3.49-2.7-6.16-6.63-6.44s-7,2.41-7.25,5.31L52.74,67c.73-10.32,8.69-16.4,21-15.52C86.53,52.34,91.91,59.51,91.33,67.68ZM76.2,97a7.36,7.36,0,0,1-7.93,6.61,7.25,7.25,0,0,1-6.62-7.64A7.37,7.37,0,0,1,69.3,89a7.47,7.47,0,0,1,6.9,8Z"/></g></g></g></g></g><g id="Group_445" data-name="Group 445"><path id="Path_843" data-name="Path 843" class="cls-11" d="M76.37,25.8h0a3.83,3.83,0,0,1-3.81-3.46l-.32-5.16L71.92,12a4.45,4.45,0,0,1,4.17-4.73h.28a4.47,4.47,0,0,1,4.46,4.47,2.44,2.44,0,0,1,0,.27l-.32,5.17-.33,5.16a3.81,3.81,0,0,1-3.8,3.46Z"/><path id="Path_844" data-name="Path 844" class="cls-11" d="M83.5,28.68h0a3.81,3.81,0,0,1-.82-5.07l3-4.24,3-4.24A4.46,4.46,0,0,1,94.82,14l.23.17h0a4.46,4.46,0,0,1,.7,6.27,1.24,1.24,0,0,1-.18.22L92.1,24.51l-3.47,3.84a3.82,3.82,0,0,1-5.13.33Z"/><path id="Path_845" data-name="Path 845" class="cls-11" d="M69.24,28.68h0a3.82,3.82,0,0,0,.82-5.07l-3-4.24-3-4.24A4.46,4.46,0,0,0,57.92,14l-.23.17h0A4.47,4.47,0,0,0,57,20.46l.18.22,3.48,3.83,3.47,3.84a3.82,3.82,0,0,0,5.13.33Z"/></g></svg>