<svg id="Layer_1" data-name="Layer 1" xmlns="http://www.w3.org/2000/svg" xmlns:xlink="http://www.w3.org/1999/xlink" viewBox="0 0 133 133"><defs><style>.cls-1{fill:#2b2b2b;}.cls-2{fill:url(#linear-gradient);}.cls-3{fill:#fff;}.cls-4{opacity:0.2;}</style><linearGradient id="linear-gradient" x1="64.08" y1="67.85" x2="103.31" y2="67.85" gradientUnits="userSpaceOnUse"><stop offset="0" stop-color="#39b54a"/><stop offset="1" stop-color="#8cc63f"/></linearGradient></defs><title>assets</title><rect class="cls-1" x="-0.27" y="0.04" width="133.21" height="133.21" rx="13.07"/><path class="cls-2" d="M103.2,60.49c-.19-2.41-.64-5.39-1-5.39H64.08V80.61l37-.14c.37-1.7,1.52-3.82,1.71-6.37s.52-4.6.52-6.49C103.29,65.16,103.39,62.9,103.2,60.49Z"/><path class="cls-3" d="M66.13,55.1H30.26c-.38,0-.74,3-.93,5.39S29,65.16,29,67.61c0,1.89.08,4,.27,6.57a38.56,38.56,0,0,0,1,6.07l35.86-.15h-2v-25Z"/><rect class="cls-4" x="70.96" y="54.84" width="14.06" height="25.67"/><path class="cls-3" d="M53.43,103.54a32.19,32.19,0,0,0,5.73.93c2.41.19,4.84.32,7.3.32,1.88,0,4.1-.08,6.65-.26a44.34,44.34,0,0,0,6.37-1l.15-35.87-.15-36a40.68,40.68,0,0,0-6.37-1.16c-2.55-.19-4.77-.24-6.65-.24-2.46,0-4.89.18-7.3.36a31.08,31.08,0,0,0-5.73,1v71.92Z"/></svg>