<svg id="Layer_1" data-name="Layer 1" xmlns="http://www.w3.org/2000/svg" xmlns:xlink="http://www.w3.org/1999/xlink" viewBox="0 0 132 132"><defs><style>.cls-1{fill:none;}.cls-2{clip-path:url(#clip-path);}.cls-3{fill:#fff;}.cls-4{fill:#6f13b7;}.cls-5{clip-path:url(#clip-path-2);}</style><clipPath id="clip-path"><ellipse class="cls-1" cx="-86.29" cy="65.86" rx="58.86" ry="58.83"/></clipPath><clipPath id="clip-path-2"><ellipse class="cls-1" cx="65.81" cy="65.92" rx="58.86" ry="58.83"/></clipPath></defs><title>Untitled-6</title><g class="cls-2"><path class="cls-3" d="M2.24,81.52A28.54,28.54,0,0,0-11.18,60.89a29,29,0,0,0-24.9-2.63,42.78,42.78,0,0,0-4.47,2l-1,.49-.59-.65c-1.16-1.3-2.34-2.61-3.59-3.95l.79-2.29c1.48-4.33,3-8.82,4.45-13.25.2-.61.31-.7.94-.77,2.42-.25,4.9-.6,7.57-1a4.08,4.08,0,0,0,3.54-4.69c-.28-2.39-2-3.74-4.49-3.57s-5.2.39-7.7.68c-4.79.55-10,1.18-15.76,1.93a4,4,0,0,0-3.5,4.48,3.91,3.91,0,0,0,4,3.84c1.1,0,2.2-.08,3.31-.18l2.7-.27-3.55,10.92L-88.2,42.71l2.45-5.38L-87,36.67l-2.18-1.18c-1.75-1-3.4-1.84-5.12-2.69A2.33,2.33,0,0,1-95.73,31a49.83,49.83,0,0,0-1.56-5.76,4.64,4.64,0,0,0-2.27-2.62,4.12,4.12,0,0,0-4.31.49,4.31,4.31,0,0,0-1.49,4.24c.63,3.22,1.34,6.34,2,9.24a3.27,3.27,0,0,0,1.55,2c1.42.8,2.86,1.57,4.32,2.34l.3.16-2.12,4.52c-1.75,3.73-3.55,7.59-5.29,11.41a1,1,0,0,1-.1.19l-.21,0a27.57,27.57,0,0,0-13.18-.43c-15.43,3-25.32,17.14-23,32.92a28.77,28.77,0,0,0,32.44,24.17A28.78,28.78,0,0,0-87.1,99.22a29.43,29.43,0,0,0,.84-26.56,28.21,28.21,0,0,0-10.52-12q1-1.92,2-3.87c.19-.38.38-.77.58-1.15l3.54,4.2Q-77.33,75.72-64,91.6A3.19,3.19,0,0,0-61,92.84c1.55-.13,3.18-.23,5-.31l.79,0,.71,0s0,.09,0,.14c.07.32.17.72.31,1.21A28.78,28.78,0,0,0-26.47,114.5c.94,0,1.89,0,2.85-.14A28.63,28.63,0,0,0-3.79,103.67,29.13,29.13,0,0,0,2.24,81.52ZM-56.3,60.17l-6.49,19.31L-85.5,52.38Zm8,6.17c-.47.74-1,1.47-1.45,2.2l-.41.61,1.21-3.56C-48.68,65.84-48.47,66.09-48.26,66.34Zm1.63,16.89a20.8,20.8,0,0,1,4.29-10.35c3,3.15,5.82,6.2,8.65,9.46l-2.65.2C-39.76,82.78-43.2,83-46.63,83.23Zm12.07,7.88,6.42-.46,6.81-.45,6.43-.43-20.66-22.4A18.16,18.16,0,0,1-30.7,65.7,20.16,20.16,0,0,1-7.13,79.39,20.36,20.36,0,0,1-8.69,95.55a20,20,0,0,1-12.78,9.62c-10.56,2.66-20.66-2.91-24.26-13.28Zm-74.29-25.42L-111,70.32-113,74.81c-1.38,3-2.77,6-4.13,9a4.3,4.3,0,0,0-.11,4.1,4.18,4.18,0,0,0,3.84,2.21,4.09,4.09,0,0,0,3.75-2.42l.82-1.69,6-12.59q1-2.2,2.09-4.41l.18-.37a20.13,20.13,0,0,1,6.82,24.18,19.53,19.53,0,0,1-10.74,11,20.58,20.58,0,0,1-15.72,0,20.14,20.14,0,0,1-11-11,20.48,20.48,0,0,1,.05-15.59A19.83,19.83,0,0,1-112.5,64.85a19.71,19.71,0,0,1,3.85.38Z"/></g><ellipse class="cls-4" cx="65.81" cy="65.92" rx="58.86" ry="58.83"/><path class="cls-3" d="M65.81,132A66.12,66.12,0,1,1,132,65.92,66.22,66.22,0,0,1,65.81,132Zm0-117.66a51.54,51.54,0,1,0,51.56,51.54A51.61,51.61,0,0,0,65.81,14.38Z"/><g class="cls-5"><path class="cls-3" d="M110.75,86c1,0,1.36-.39,1.59-1.27a26,26,0,0,1,50.9,10.18c-1.46,11-8,18.25-18.55,21.56-13.7,4.27-28.75-4.23-32.31-18.13-.28-1.09-.72-1.51-1.9-1.49-4.66.07-9.33,0-14,.05-8.54.15-14.67-3.19-18-11.43a91.78,91.78,0,0,0-6.11-12.38,23.24,23.24,0,0,0-11.28-9.46l-2,6.2c12,8.84,14.08,22.79,8.3,33.84a26.11,26.11,0,0,1-32,12.33c-11.08-3.84-18.57-16-16.88-28a25.53,25.53,0,0,1,8.32-15.79c6.26-5.68,13.73-7.53,22.06-6.42l2.64-8.42c-1.22.14-2.2.34-3.18.37-2.66.07-3.61-.88-3.62-3.53,0-3.78,0-7.56,0-11.33,0-2.06,1.07-3,3.09-3.14,3.3-.16,5.83,1.31,8.1,3.88,1-3.09,1.94-6,2.8-8.86a12,12,0,0,1,11.65-8.81c2.89,0,5.77,0,8.65,0,3.58,0,6,2.22,6,5.42s-2.35,5.54-6,5.55c-2.72,0-5.45,0-8.18,0-.49,0-1.28.26-1.41.6-.77,2-1.38,4.11-2.1,6.34,6.1,0,11.91,0,17.73,0A13.49,13.49,0,0,1,94,47c2,1.66,4,3.39,6,5a3.78,3.78,0,0,0,2.1.73c5.61.06,11.23.08,16.84,0a4,4,0,0,0,2.41-1c1.63-1.54,3.1-3.25,4.65-4.89a8.51,8.51,0,0,1,6.13-2.8c5.45-.1,10.9-.08,16.36,0a5.46,5.46,0,0,1,5.37,4.62,17.2,17.2,0,0,1,0,2.95c2.29,1.27,4.56,2.35,6.65,3.73a54.15,54.15,0,0,1,6.08,4.7,5.12,5.12,0,0,1-.51,8.15c-2,1.32-4.7.87-7-1.12-8.52-7.37-18.38-10-29.28-7.37-11.55,2.73-19.28,10.1-23.48,21.16-.62,1.63-.93,3.38-1.44,5.28C107.1,86,108.93,85.93,110.75,86ZM58.36,92A13.64,13.64,0,0,0,44.13,77.59a13.89,13.89,0,0,0,.31,27.78A13.75,13.75,0,0,0,58.36,92Zm75.74-6c.94,0,1.89,0,2.83,0a5.44,5.44,0,0,1,5.32,5.33A5.32,5.32,0,0,1,137,96.87c-3.46.1-6.92,0-10.38,0-.55,0-1.11,0-1.7.08,1.31,4.39,7.14,9.25,14.62,8.29a14.1,14.1,0,0,0,11.84-13.15c.29-6.69-4.46-12.95-10.76-14.2C133.89,76.6,127,80,124.85,86Z"/></g></svg>