<svg id="Layer_1" data-name="Layer 1" xmlns="http://www.w3.org/2000/svg" xmlns:xlink="http://www.w3.org/1999/xlink" viewBox="0 0 500 500"><defs><style>.cls-1{fill:none;}.cls-2{clip-path:url(#clip-path);}.cls-3{fill:#fff;}</style><clipPath id="clip-path"><rect class="cls-1" x="-0.5" y="-0.5" width="500" height="501"/></clipPath></defs><title>Untitled-1</title><g class="cls-2"><path class="cls-3" d="M403.55,260.42c3.56.18,4.77-1.36,5.6-4.45,10.7-40.15,45.43-67.19,87.3-68,53.54-1.06,99.91,44.71,92.1,103.91-5.12,38.76-28,64.32-65.37,76C474.9,382.89,421.84,352.93,409.3,304c-1-3.85-2.56-5.32-6.7-5.26-16.45.24-32.91-.14-49.36.16-30.1.55-51.71-11.25-63.3-40.29a324.24,324.24,0,0,0-21.54-43.63c-9-15.42-22.91-26-39.77-33.34-2.43,7.67-4.69,14.82-6.91,21.85,42.18,31.15,49.65,80.32,29.27,119.3-20.9,40-68.12,58.91-112.71,43.44-39.06-13.55-65.47-56.58-59.5-98.88,3.11-22.06,12.85-40.76,29.3-55.66,22.07-20,48.4-26.53,77.75-22.62,3.19-10.15,6.23-19.82,9.32-29.69-4.3.52-7.75,1.21-11.21,1.31-9.36.26-12.73-3.09-12.77-12.45,0-13.31-.1-26.62,0-39.93.06-7.26,3.8-10.72,10.92-11.06,11.63-.57,20.55,4.64,28.52,13.68,3.46-10.89,6.85-21,9.89-31.23,5.6-18.77,21.55-31,41.07-31.06q15.24-.08,30.5,0c12.59,0,21.23,7.82,21.31,19.09.09,11.82-8.3,19.54-21.31,19.57-9.61,0-19.23-.09-28.84.12-1.73,0-4.53.92-5,2.12-2.7,7.14-4.86,14.49-7.4,22.35,21.49,0,42,0,62.49,0,11.62,0,22.17,3.33,31.23,10.81,7.12,5.87,14.06,12,21.34,17.61a13.15,13.15,0,0,0,7.39,2.57c19.78.2,39.57.27,59.35,0a14,14,0,0,0,8.49-3.68c5.77-5.42,10.95-11.46,16.4-17.23A30,30,0,0,1,479.15,112c19.21-.37,38.44-.29,57.65-.1a19.29,19.29,0,0,1,18.94,16.3c.62,3.53.1,7.26.1,10.41,8.07,4.46,16.09,8.28,23.44,13.14a191.76,191.76,0,0,1,21.44,16.57,18,18,0,0,1-1.78,28.71c-6.94,4.66-16.59,3.08-24.72-3.94-30-26-64.8-35.08-103.21-26-40.7,9.64-68,35.61-82.75,74.59-2.19,5.76-3.29,11.93-5.09,18.61C390.68,260.33,397.13,260.1,403.55,260.42ZM218.89,281.48c.76-29.7-21.2-51.15-50.19-50.8-26.71.32-48.19,22.82-47.85,50.13.32,26.32,22.54,48,49,47.79A48.46,48.46,0,0,0,218.89,281.48Zm267-21.15c3.33,0,6.66-.08,10,0a19.17,19.17,0,0,1,18.76,18.79,18.78,18.78,0,0,1-18.51,19.49c-12.18.37-24.38.11-36.57.15-2,0-3.92.18-6,.28,4.63,15.47,25.16,32.61,51.53,29.21,22.21-2.87,40.73-23.15,41.73-46.35,1-23.56-15.71-45.64-37.91-50-23.73-4.69-47.92,7.29-55.59,28.43Z"/></g></svg>