<?xml version="1.0" encoding="utf-8"?>
<!-- Generator: Adobe Illustrator 24.1.3, SVG Export Plug-In . SVG Version: 6.00 Build 0)  -->
<svg version="1.1" id="Layer_1" xmlns="http://www.w3.org/2000/svg" xmlns:xlink="http://www.w3.org/1999/xlink" x="0px" y="0px"
	 viewBox="0 0 1366 215" style="enable-background:new 0 0 1366 215;" xml:space="preserve">
<style type="text/css">
	.st0{fill:#FFFFFF;}
	.st1{fill:url(#XMLID_2_);}
	.st2{fill:#3D3633;}
	.st3{fill:#211C19;}
</style>
<g>
	<g>
		<path class="st0" d="M281.63,60.97c6.59,0,13.18,0.56,19.77,1.69c6.59,1.12,12.54,3.48,17.86,7.08c5.32,3.59,9.66,8.76,13.03,15.5
			s5.06,15.65,5.06,26.74v67.18c-3.9,0.75-7.41,1.24-10.56,1.46s-5.92,0.34-8.31,0.34c-2.55,0-5.39-0.11-8.54-0.34
			s-6.67-0.71-10.56-1.46v-63.14c0-7.94-1.5-13.63-4.49-17.08c-3-3.44-7.57-5.17-13.71-5.17c-1.65,0-3.41,0.15-5.28,0.45
			c-1.88,0.3-3.03,0.6-3.48,0.9v84.03c-3.9,0.75-7.41,1.24-10.56,1.46s-5.92,0.34-8.31,0.34c-2.55,0-5.39-0.11-8.54-0.34
			s-6.67-0.71-10.56-1.46V68.83c5.24-1.8,11.61-3.56,19.1-5.28C261.04,61.83,270.4,60.97,281.63,60.97z"/>
		<path class="st0" d="M355.55,141.41c0-7.34,1.57-13.4,4.72-18.2c3.15-4.79,7.19-8.61,12.13-11.46c4.94-2.84,10.41-4.83,16.4-5.95
			c5.99-1.12,11.83-1.69,17.53-1.69h13.71c-0.15-2.7-0.9-4.94-2.25-6.74c-1.35-1.8-3.07-3.18-5.17-4.16
			c-2.1-0.97-4.42-1.65-6.96-2.02c-2.55-0.37-5.17-0.56-7.86-0.56c-3.59,0-7.79,0.41-12.58,1.24c-4.8,0.82-9.74,2.13-14.83,3.93
			c-1.35-2.54-2.51-4.87-3.48-6.97c-0.98-2.1-1.72-4.23-2.25-6.4c-0.53-2.17-0.9-4.42-1.12-6.74c-0.22-2.32-0.34-4.98-0.34-7.98
			c7.19-2.39,14.34-4.19,21.46-5.39c7.11-1.2,13.52-1.8,19.21-1.8c7.79,0,14.83,0.94,21.12,2.81c6.29,1.88,11.65,4.76,16.06,8.65
			c4.42,3.9,7.83,8.88,10.22,14.94c2.39,6.07,3.59,13.29,3.59,21.68v65.83c-5.69,1.65-12.58,3.3-20.67,4.94
			c-8.09,1.65-16.63,2.47-25.61,2.47c-7.79,0-14.94-0.71-21.46-2.13s-12.1-3.71-16.74-6.85c-4.65-3.15-8.28-7.3-10.9-12.47
			C356.86,155.23,355.55,148.9,355.55,141.41z M408.58,153.99c1.35,0,3.29-0.15,5.84-0.45c2.54-0.3,4.42-0.6,5.62-0.9v-24.71h-12.81
			c-5.25,0-9.66,1.12-13.26,3.37c-3.6,2.25-5.39,5.39-5.39,9.44c0,3,0.67,5.36,2.02,7.08c1.35,1.72,3.03,3.03,5.06,3.93
			c2.02,0.9,4.19,1.5,6.52,1.8C404.49,153.84,406.63,153.99,408.58,153.99z"/>
		<path class="st0" d="M478.9,63.22c3.29-0.75,6.55-1.27,9.77-1.57c3.22-0.3,6.33-0.45,9.32-0.45c2.84,0,5.92,0.15,9.21,0.45
			c3.29,0.3,6.52,0.83,9.66,1.57v115.71c-3.9,0.75-7.41,1.24-10.56,1.46s-5.92,0.34-8.31,0.34c-2.55,0-5.39-0.11-8.54-0.34
			s-6.67-0.71-10.56-1.46V63.22z M546.98,63.22c2.7-0.6,5.99-1.05,9.89-1.35c3.89-0.3,7.34-0.45,10.34-0.45
			c3.89,0,7.83,0.15,11.8,0.45c3.97,0.3,7.15,0.75,9.55,1.35l-27.86,53.92l31.01,61.79c-2.7,0.6-6.07,1.05-10.11,1.35
			c-4.04,0.3-7.57,0.45-10.56,0.45c-3.9,0-7.75-0.15-11.57-0.45c-3.82-0.3-6.85-0.75-9.1-1.35l-29.88-60.22L546.98,63.22z"/>
		<path class="st0" d="M598.43,141.41c0-7.34,1.57-13.4,4.72-18.2c3.15-4.79,7.19-8.61,12.13-11.46c4.94-2.84,10.41-4.83,16.4-5.95
			c5.99-1.12,11.83-1.69,17.53-1.69h13.71c-0.15-2.7-0.9-4.94-2.25-6.74c-1.35-1.8-3.07-3.18-5.17-4.16
			c-2.1-0.97-4.42-1.65-6.96-2.02c-2.55-0.37-5.17-0.56-7.86-0.56c-3.59,0-7.79,0.41-12.58,1.24c-4.8,0.82-9.74,2.13-14.83,3.93
			c-1.35-2.54-2.51-4.87-3.48-6.97c-0.98-2.1-1.72-4.23-2.25-6.4c-0.53-2.17-0.9-4.42-1.12-6.74c-0.22-2.32-0.34-4.98-0.34-7.98
			c7.19-2.39,14.34-4.19,21.46-5.39c7.11-1.2,13.52-1.8,19.21-1.8c7.79,0,14.83,0.94,21.12,2.81c6.29,1.88,11.65,4.76,16.06,8.65
			c4.42,3.9,7.82,8.88,10.22,14.94c2.39,6.07,3.59,13.29,3.59,21.68v65.83c-5.69,1.65-12.58,3.3-20.67,4.94
			c-8.09,1.65-16.63,2.47-25.61,2.47c-7.79,0-14.94-0.71-21.46-2.13s-12.1-3.71-16.74-6.85c-4.65-3.15-8.28-7.3-10.9-12.47
			C599.74,155.23,598.43,148.9,598.43,141.41z M651.46,153.99c1.35,0,3.29-0.15,5.84-0.45c2.54-0.3,4.42-0.6,5.62-0.9v-24.71h-12.81
			c-5.25,0-9.66,1.12-13.26,3.37c-3.6,2.25-5.39,5.39-5.39,9.44c0,3,0.67,5.36,2.02,7.08c1.35,1.72,3.03,3.03,5.06,3.93
			c2.02,0.9,4.19,1.5,6.52,1.8C647.38,153.84,649.51,153.99,651.46,153.99z"/>
		<path class="st0" d="M768.52,60.97c6.14,0,12.21,0.49,18.2,1.46c5.99,0.98,11.53,2.96,16.63,5.95c3.89-1.95,8.46-3.67,13.71-5.17
			c5.24-1.5,11.16-2.25,17.75-2.25c5.84,0,11.87,0.56,18.09,1.69c6.21,1.12,11.83,3.48,16.85,7.08c5.02,3.59,9.13,8.76,12.36,15.5
			c3.22,6.74,4.83,15.65,4.83,26.74v67.18c-3.9,0.75-7.41,1.24-10.56,1.46s-5.92,0.34-8.31,0.34c-2.55,0-5.39-0.11-8.54-0.34
			s-6.67-0.71-10.56-1.46v-63.14c0-7.94-1.35-13.63-4.04-17.08c-2.7-3.44-7.12-5.17-13.26-5.17c-2.1,0-4.16,0.22-6.18,0.67
			c-2.02,0.45-3.41,0.83-4.16,1.12c1.35,5.25,2.02,11.23,2.02,17.97v65.61c-3.9,0.75-7.42,1.24-10.56,1.46s-5.92,0.34-8.31,0.34
			c-2.55,0-5.39-0.11-8.54-0.34c-3.15-0.22-6.67-0.71-10.56-1.46v-63.14c0-7.94-1.27-13.63-3.82-17.08
			c-2.55-3.44-6.89-5.17-13.03-5.17c-1.65,0-3.41,0.15-5.28,0.45c-1.87,0.3-3.03,0.6-3.48,0.9v84.03c-3.9,0.75-7.41,1.24-10.56,1.46
			s-5.92,0.34-8.31,0.34c-2.55,0-5.39-0.11-8.54-0.34s-6.67-0.71-10.56-1.46V68.83c5.24-1.8,11.53-3.56,18.87-5.28
			C748,61.83,757.28,60.97,768.52,60.97z"/>
		<path class="st0" d="M905.35,121.86c0-9.13,1.24-17.49,3.71-25.05c2.47-7.56,6.14-14.04,11.01-19.44
			c4.87-5.39,10.9-9.55,18.09-12.47c7.19-2.92,15.5-4.38,24.94-4.38c9.58,0,17.97,1.46,25.17,4.38c7.19,2.92,13.22,7.08,18.09,12.47
			c4.87,5.39,8.54,11.87,11.01,19.44c2.47,7.57,3.71,15.92,3.71,25.05c0,8.99-1.24,17.19-3.71,24.6
			c-2.47,7.41-6.14,13.78-11.01,19.1c-4.87,5.32-10.9,9.4-18.09,12.25c-7.19,2.84-15.58,4.27-25.17,4.27
			c-9.44,0-17.75-1.43-24.94-4.27c-7.19-2.84-13.22-6.93-18.09-12.25c-4.87-5.31-8.54-11.68-11.01-19.1
			C906.59,139.05,905.35,130.85,905.35,121.86z M982.64,121.86c0-9.58-1.61-16.92-4.83-22.02c-3.22-5.09-8.13-7.64-14.72-7.64
			c-6.59,0-11.46,2.55-14.6,7.64c-3.15,5.09-4.72,12.44-4.72,22.02c0,9.44,1.57,16.7,4.72,21.79c3.15,5.09,8.01,7.64,14.6,7.64
			c6.59,0,11.49-2.54,14.72-7.64C981.03,138.56,982.64,131.3,982.64,121.86z"/>
		<path class="st0" d="M1064.2,94.9h-33.25c-0.75-2.99-1.24-5.8-1.46-8.43c-0.22-2.62-0.34-5.13-0.34-7.53
			c0-2.39,0.11-4.87,0.34-7.41c0.22-2.55,0.71-5.32,1.46-8.31h104.48c0.75,3,1.24,5.77,1.46,8.31c0.22,2.55,0.34,5.02,0.34,7.41
			c0,2.4-0.11,4.91-0.34,7.53c-0.22,2.62-0.71,5.43-1.46,8.43h-33.25v84.26c-3.9,0.6-7.42,1.05-10.56,1.35
			c-3.15,0.3-5.99,0.45-8.54,0.45c-2.55,0-5.39-0.15-8.54-0.45c-3.15-0.3-6.59-0.75-10.34-1.35V94.9z"/>
		<path class="st0" d="M1145.31,121.86c0-9.13,1.24-17.49,3.71-25.05c2.47-7.56,6.14-14.04,11.01-19.44
			c4.87-5.39,10.9-9.55,18.09-12.47c7.19-2.92,15.5-4.38,24.94-4.38c9.58,0,17.97,1.46,25.17,4.38c7.19,2.92,13.22,7.08,18.09,12.47
			c4.87,5.39,8.54,11.87,11.01,19.44c2.47,7.57,3.71,15.92,3.71,25.05c0,8.99-1.24,17.19-3.71,24.6
			c-2.47,7.41-6.14,13.78-11.01,19.1c-4.87,5.32-10.9,9.4-18.09,12.25c-7.19,2.84-15.58,4.27-25.17,4.27
			c-9.44,0-17.75-1.43-24.94-4.27c-7.19-2.84-13.22-6.93-18.09-12.25c-4.87-5.31-8.54-11.68-11.01-19.1
			C1146.55,139.05,1145.31,130.85,1145.31,121.86z M1222.6,121.86c0-9.58-1.61-16.92-4.83-22.02c-3.22-5.09-8.13-7.64-14.72-7.64
			c-6.59,0-11.46,2.55-14.6,7.64c-3.15,5.09-4.72,12.44-4.72,22.02c0,9.44,1.57,16.7,4.72,21.79c3.15,5.09,8.01,7.64,14.6,7.64
			c6.59,0,11.49-2.54,14.72-7.64C1220.99,138.56,1222.6,131.3,1222.6,121.86z"/>
	</g>
</g>
<g>
	<g>
		<path class="st0" d="M243.63,46.07h-5.13l-9.35-23.5h4.7c0.41,0,0.76,0.1,1.04,0.3c0.28,0.2,0.48,0.45,0.58,0.76l4.54,12.55
			c0.26,0.73,0.48,1.45,0.65,2.15c0.18,0.7,0.33,1.4,0.47,2.11c0.14-0.7,0.29-1.4,0.47-2.11c0.18-0.7,0.4-1.42,0.68-2.15l4.65-12.55
			c0.11-0.31,0.3-0.56,0.57-0.76c0.27-0.2,0.6-0.3,0.98-0.3h4.47L243.63,46.07z"/>
		<path class="st0" d="M265.25,22.21c1.48,0,2.84,0.24,4.09,0.71c1.24,0.47,2.32,1.16,3.22,2.07c0.9,0.91,1.6,2.02,2.11,3.34
			s0.76,2.83,0.76,4.52c0,0.43-0.02,0.78-0.06,1.06c-0.04,0.28-0.11,0.5-0.21,0.66c-0.1,0.16-0.23,0.27-0.4,0.34
			c-0.17,0.07-0.38,0.1-0.64,0.1h-14.52c0.17,2.41,0.82,4.18,1.95,5.31c1.13,1.13,2.63,1.69,4.49,1.69c0.92,0,1.71-0.11,2.37-0.32
			c0.66-0.21,1.24-0.45,1.74-0.71c0.5-0.26,0.93-0.5,1.31-0.71s0.74-0.32,1.09-0.32c0.23,0,0.43,0.05,0.6,0.14
			c0.17,0.09,0.31,0.22,0.44,0.39l1.65,2.06c-0.63,0.73-1.33,1.35-2.11,1.84c-0.78,0.5-1.59,0.89-2.44,1.19
			c-0.85,0.3-1.71,0.51-2.59,0.63c-0.88,0.12-1.73,0.18-2.55,0.18c-1.63,0-3.15-0.27-4.56-0.81c-1.4-0.54-2.63-1.34-3.66-2.4
			c-1.04-1.06-1.86-2.37-2.45-3.94c-0.6-1.57-0.89-3.38-0.89-5.44c0-1.6,0.26-3.11,0.78-4.52c0.52-1.41,1.26-2.64,2.23-3.69
			c0.97-1.05,2.15-1.87,3.55-2.49C261.92,22.51,263.5,22.21,265.25,22.21z M265.37,26.26c-1.65,0-2.94,0.47-3.87,1.4
			c-0.93,0.93-1.53,2.25-1.79,3.96h10.63c0-0.73-0.1-1.42-0.3-2.07c-0.2-0.65-0.5-1.22-0.92-1.71c-0.41-0.49-0.93-0.87-1.56-1.16
			S266.21,26.26,265.37,26.26z"/>
		<path class="st0" d="M280.02,46.07v-23.5h3.32c0.58,0,0.98,0.11,1.21,0.32c0.23,0.21,0.38,0.58,0.46,1.1l0.34,2.84
			c0.84-1.45,1.82-2.6,2.95-3.44c1.13-0.84,2.4-1.26,3.8-1.26c1.16,0,2.12,0.27,2.89,0.8l-0.73,4.24c-0.05,0.27-0.15,0.47-0.3,0.58
			c-0.15,0.11-0.36,0.17-0.62,0.17c-0.23,0-0.54-0.05-0.94-0.16c-0.4-0.11-0.92-0.16-1.58-0.16c-1.18,0-2.18,0.32-3.02,0.97
			c-0.84,0.65-1.55,1.6-2.13,2.85v14.64H280.02z"/>
		<path class="st0" d="M312.69,27.15c-0.15,0.24-0.31,0.42-0.48,0.52s-0.38,0.15-0.64,0.15c-0.27,0-0.57-0.08-0.88-0.23
			c-0.31-0.15-0.68-0.32-1.09-0.52c-0.41-0.19-0.88-0.36-1.41-0.52c-0.53-0.15-1.15-0.23-1.87-0.23c-1.11,0-1.99,0.24-2.63,0.71
			c-0.64,0.47-0.96,1.09-0.96,1.85c0,0.5,0.16,0.93,0.49,1.27c0.33,0.34,0.76,0.65,1.31,0.9c0.54,0.26,1.16,0.49,1.84,0.7
			c0.69,0.21,1.39,0.43,2.11,0.68c0.72,0.24,1.42,0.52,2.11,0.84c0.69,0.31,1.3,0.71,1.84,1.19s0.98,1.06,1.31,1.73
			c0.33,0.67,0.49,1.48,0.49,2.43c0,1.13-0.21,2.17-0.62,3.13s-1.02,1.78-1.81,2.47s-1.77,1.24-2.94,1.63
			c-1.17,0.39-2.51,0.58-4.02,0.58c-0.81,0-1.6-0.07-2.37-0.22c-0.77-0.15-1.51-0.35-2.22-0.61c-0.71-0.26-1.37-0.56-1.97-0.92
			c-0.6-0.35-1.13-0.73-1.59-1.15l1.31-2.15c0.17-0.26,0.37-0.46,0.6-0.6c0.23-0.14,0.52-0.21,0.87-0.21c0.35,0,0.68,0.1,1,0.3
			c0.31,0.2,0.68,0.41,1.09,0.64s0.9,0.44,1.45,0.64c0.56,0.2,1.26,0.3,2.12,0.3c0.67,0,1.25-0.08,1.73-0.24
			c0.48-0.16,0.88-0.37,1.19-0.63c0.31-0.26,0.54-0.56,0.69-0.9c0.15-0.34,0.22-0.7,0.22-1.06c0-0.55-0.16-1-0.49-1.35
			c-0.33-0.35-0.76-0.66-1.31-0.92s-1.16-0.49-1.85-0.7c-0.7-0.21-1.41-0.43-2.13-0.68c-0.73-0.24-1.44-0.53-2.13-0.86
			c-0.69-0.33-1.31-0.74-1.85-1.25c-0.54-0.5-0.98-1.12-1.31-1.85c-0.33-0.73-0.49-1.62-0.49-2.66c0-0.96,0.19-1.88,0.57-2.75
			c0.38-0.87,0.94-1.63,1.68-2.28c0.74-0.65,1.66-1.17,2.77-1.56c1.11-0.39,2.39-0.58,3.84-0.58c1.62,0,3.09,0.27,4.42,0.8
			c1.33,0.53,2.44,1.24,3.32,2.11L312.69,27.15z"/>
		<path class="st0" d="M325.63,15.72c0,0.49-0.1,0.95-0.3,1.37c-0.2,0.43-0.46,0.8-0.79,1.12c-0.33,0.32-0.71,0.58-1.16,0.77
			c-0.44,0.19-0.92,0.29-1.42,0.29c-0.49,0-0.95-0.09-1.39-0.29c-0.44-0.19-0.81-0.45-1.13-0.77c-0.32-0.32-0.58-0.69-0.77-1.12
			c-0.19-0.43-0.29-0.89-0.29-1.37c0-0.5,0.1-0.98,0.29-1.42c0.19-0.44,0.45-0.82,0.77-1.15c0.32-0.32,0.7-0.58,1.13-0.77
			c0.44-0.19,0.9-0.29,1.39-0.29c0.5,0,0.98,0.1,1.42,0.29c0.44,0.19,0.83,0.45,1.16,0.77c0.33,0.32,0.59,0.7,0.79,1.15
			C325.53,14.75,325.63,15.22,325.63,15.72z M324.78,22.57v23.5h-5.66v-23.5H324.78z"/>
		<path class="st0" d="M341.2,22.21c1.76,0,3.35,0.28,4.78,0.85c1.43,0.57,2.65,1.37,3.65,2.41c1.01,1.04,1.79,2.31,2.34,3.8
			c0.55,1.5,0.82,3.17,0.82,5.02c0,1.86-0.27,3.54-0.82,5.04c-0.55,1.5-1.33,2.77-2.34,3.83c-1.01,1.05-2.23,1.86-3.65,2.43
			c-1.43,0.56-3.02,0.85-4.78,0.85s-3.35-0.28-4.79-0.85c-1.44-0.56-2.66-1.37-3.68-2.43c-1.02-1.05-1.8-2.33-2.36-3.83
			c-0.56-1.5-0.84-3.18-0.84-5.04c0-1.85,0.28-3.52,0.84-5.02c0.56-1.5,1.34-2.76,2.36-3.8c1.02-1.04,2.24-1.84,3.68-2.41
			C337.85,22.49,339.45,22.21,341.2,22.21z M341.2,42.06c1.95,0,3.4-0.66,4.34-1.97c0.94-1.31,1.41-3.24,1.41-5.77
			s-0.47-4.47-1.41-5.79c-0.94-1.33-2.39-1.99-4.34-1.99c-1.99,0-3.45,0.67-4.4,2c-0.95,1.34-1.42,3.26-1.42,5.78
			s0.47,4.44,1.42,5.76C337.75,41.4,339.22,42.06,341.2,42.06z M349.15,12.58l-5.66,5.98c-0.29,0.31-0.57,0.52-0.84,0.63
			c-0.27,0.11-0.61,0.17-1.04,0.17h-3.39l3.25-5.57c0.23-0.4,0.5-0.7,0.8-0.9c0.31-0.21,0.76-0.31,1.37-0.31H349.15z"/>
		<path class="st0" d="M357.21,46.07v-23.5h3.46c0.73,0,1.21,0.34,1.44,1.03l0.39,1.86c0.47-0.49,0.97-0.93,1.5-1.33
			c0.53-0.4,1.08-0.74,1.67-1.03c0.59-0.29,1.22-0.51,1.89-0.66c0.67-0.15,1.4-0.23,2.2-0.23c1.28,0,2.42,0.22,3.41,0.65
			c0.99,0.44,1.82,1.05,2.48,1.83c0.66,0.79,1.17,1.73,1.51,2.82c0.34,1.09,0.52,2.29,0.52,3.61v14.96h-5.66V31.11
			c0-1.44-0.33-2.55-1-3.33c-0.66-0.79-1.66-1.18-2.99-1.18c-0.98,0-1.89,0.22-2.75,0.66c-0.86,0.44-1.66,1.05-2.43,1.81v17H357.21z
			"/>
		<path class="st0" d="M395.23,41.83h6.71V22.53c0-0.75,0.02-1.53,0.07-2.36l-4.76,3.99c-0.2,0.17-0.4,0.28-0.61,0.34
			c-0.21,0.06-0.41,0.09-0.61,0.09c-0.31,0-0.58-0.06-0.84-0.19s-0.44-0.28-0.56-0.45l-1.79-2.45l10.1-8.59h4.65v28.93h5.96v4.24
			h-18.32V41.83z"/>
		<path class="st0" d="M437.22,33.59h4.17v3.28c0,0.31-0.1,0.57-0.3,0.79c-0.2,0.22-0.49,0.33-0.87,0.33h-3v8.09h-4.95v-8.09H418.3
			c-0.38,0-0.72-0.12-1.01-0.35c-0.29-0.24-0.47-0.53-0.55-0.88l-0.57-2.86l15.69-20.96h5.36V33.59z M432.27,22.75
			c0-0.49,0.02-1.02,0.05-1.58c0.03-0.56,0.08-1.15,0.16-1.76l-10.28,14.18h10.08V22.75z"/>
	</g>
</g>
<g id="XMLID_792_">
	<linearGradient id="XMLID_2_" gradientUnits="userSpaceOnUse" x1="1308.8312" y1="81.2326" x2="1308.8312" y2="159.5698">
		<stop  offset="0" style="stop-color:#39B54A"/>
		<stop  offset="1" style="stop-color:#8CC63F"/>
	</linearGradient>
	<path id="XMLID_882_" class="st1" d="M1303.57,56.89c-4.39-0.33-8.21-0.42-11.47-0.42c-4.23,0-8.41,0.31-12.56,0.63
		c-4.15,0.33-7.44,1.1-9.88,1.75l33.7,62.1l-33.7,61.79c2.44,0.65,5.73,1.27,9.88,1.59c4.15,0.33,8.33,0.55,12.56,0.55
		c3.25,0,7.07-0.13,11.47-0.46c4.39-0.33,8.05-1.06,10.98-1.71l33.46-61.78l-33.46-62.06C1311.62,58.24,1307.96,57.22,1303.57,56.89
		z"/>
</g>
<g>
	<circle class="st2" cx="119" cy="106.6" r="96.16"/>
	<g>
		<path class="st3" d="M213.5,88.72c-0.75,2.77-2.15,5.99-4.72,8.83c0,0-0.27,53.67-38.26,55.04c0,0-19.2,0.69-28.39-18.93
			c0,0-0.22,0.68-0.75,1.8c2.51,5.46,12.1,21.52,38.36,21.52c10.11,0,18.28-2.55,24.78-6.34c6.81-13.19,10.66-28.17,10.66-44.04
			C215.16,100.49,214.59,94.52,213.5,88.72z"/>
		<path class="st3" d="M192.32,81.46c-17.01,10.79-32.18,11.15-32.18,11.15c0.02,0.44,0.05,0.86,0.09,1.28h31.13
			C192.55,87.22,192.32,81.46,192.32,81.46z"/>
		<path class="st0" d="M101.8,156.98c27.09,0,36.98-16.05,39.57-21.52c-0.51-1.12-0.73-1.8-0.73-1.8
			c-8.91,19.61-27.52,18.93-27.52,18.93c-36.83-1.37-37.09-55.04-37.09-55.04c-5.94-6.77-5.41-15.63-5.41-15.63l0.57-16.85
			c0.22,0.03,0.44,0.05,0.67,0.05h1.01c0.74,4.71,2.63,7.66,2.63,7.66v-7.59c-0.02-0.02-0.04-0.05-0.05-0.08h100.65
			c2.02,0,3.37-1.06,4.07-2.48h21.16c1.02,0,1.99-0.25,2.85-0.68c-3.11-5.91-6.8-11.46-11.02-16.57h-0.57
			c-13.71,17.31-52.33,17.25-52.33,17.25H79.52c-3.75,0-6.79-3.04-6.79-6.79v-8.3H51.61l-0.27,26.88H28.36
			c-2.1,5.93-3.64,12.12-4.55,18.51h27.12v9.46H23.63v16.62c0.14,1.05,0.29,2.09,0.46,3.13h30.12
			C56.13,132.02,69.16,156.98,101.8,156.98z"/>
		<path class="st0" d="M118.34,84.59c-0.92-0.1-1.85-0.15-2.77-0.24c-0.19-0.02-0.58-0.07-0.73-0.08c-0.47-0.09-0.93-0.21-1.39-0.35
			c-2.65-0.82-5.2-1.92-7.77-2.95c-5.36-2.16-12.46-5.13-17.65-1.06c-1.43,1.12-2.39,2.5-2.95,4c-0.61-0.28-1.29-0.45-2.02-0.45
			c-2.57,0-5.09,2.27-4.95,4.95c0.41,7.82,2.27,15.51,5.37,22.69c3,6.96,7.81,13.99,14.91,17.24c2.43,1.11,5.33,0.69,6.78-1.78
			c0.72-1.23,0.83-2.92,0.32-4.34c2.82,0.73,5.74,0.97,8.66,0.5c4.26-0.68,7.19-3.47,9.61-6.95c2.35-3.37,4.07-7.35,5.24-11.31
			c1.14-3.86,1.89-8.4,0.73-12.35C128.14,86.63,123.32,85.1,118.34,84.59z M102.17,119.13c-23.22,0-19.38-25.23-19.38-25.23h41.14
			C123.93,93.9,125.39,119.13,102.17,119.13z"/>
		<path class="st0" d="M191.36,93.9c-1.63,9.15-5.93,20.01-17.14,20.11c0,0-12.32,1.76-13.99-20.11h-1.94
			c0,0-1.42,25.23,21.09,25.23s18.79-25.23,18.79-25.23H191.36z"/>
		<path class="st0" d="M201.33,62.63h-21.16c-0.7,1.42-2.06,2.48-4.07,2.48H75.45c0.02,0.03,0.04,0.05,0.05,0.08v7.59
			c0,0-1.89-2.95-2.63-7.66h-1.01c-0.23,0-0.45-0.02-0.67-0.05l-0.57,16.85c0,0-0.53,8.87,5.41,15.63c0,0,0.27,53.67,37.09,55.04
			c0,0,18.61,0.69,27.52-18.93c0,0,0.22,0.68,0.73,1.8c0.53-1.12,0.75-1.8,0.75-1.8c9.19,19.61,28.39,18.93,28.39,18.93
			c37.99-1.37,38.26-55.04,38.26-55.04c2.57-2.84,3.97-6.06,4.72-8.83c-1.78-9.49-4.96-18.49-9.31-26.77
			C203.32,62.38,202.35,62.63,201.33,62.63z M129.01,104.46c-1.17,3.96-2.88,7.94-5.24,11.31c-2.42,3.47-5.36,6.26-9.61,6.95
			c-2.92,0.47-5.84,0.23-8.66-0.5c0.5,1.43,0.39,3.12-0.32,4.34c-1.44,2.47-4.35,2.89-6.78,1.78c-7.1-3.25-11.9-10.28-14.91-17.24
			c-3.1-7.18-4.97-14.87-5.37-22.69c-0.14-2.68,2.38-4.95,4.95-4.95c0.73,0,1.41,0.16,2.02,0.45c0.55-1.5,1.52-2.88,2.95-4
			c5.19-4.08,12.29-1.1,17.65,1.06c2.57,1.03,5.12,2.13,7.77,2.95c0.46,0.14,0.92,0.26,1.39,0.35c0.15,0.02,0.54,0.07,0.73,0.08
			c0.92,0.09,1.85,0.14,2.77,0.24c4.97,0.51,9.8,2.04,11.4,7.52C130.9,96.06,130.15,100.6,129.01,104.46z M179.37,119.13
			c-22.51,0-21.09-25.23-21.09-25.23h1.94c-0.03-0.42-0.06-0.84-0.09-1.28c0,0,15.18-0.37,32.18-11.15c0,0,0.23,5.76-0.96,12.43
			h6.81C198.16,93.9,201.88,119.13,179.37,119.13z"/>
	</g>
</g>
</svg>
