<svg xmlns="http://www.w3.org/2000/svg" xmlns:xlink="http://www.w3.org/1999/xlink" viewBox="0 0 287 287"><defs><style>.cls-1{fill:none;}.cls-2{isolation:isolate;}.cls-3{fill:#630db5;}.cls-4{clip-path:url(#clip-path);}.cls-11,.cls-5{opacity:0.5;}.cls-5{mix-blend-mode:multiply;}.cls-6{fill:#39b54a;}.cls-11,.cls-7{fill:#fff;}.cls-8{fill:#e2e2e2;}.cls-9{fill:#aad861;}.cls-10{fill:#c2ef7b;}.cls-12{fill:#3effd0;}.cls-13{fill:#e4fcb6;}.cls-14{fill:#f0aa00;}.cls-15{fill:#fd0;}.cls-16{fill:#ffe888;}.cls-17{fill:#fff7d7;}</style><clipPath id="clip-path"><rect class="cls-1" y="0.78" width="286.63" height="286.63"/></clipPath></defs><title>assets</title><g class="cls-2"><g id="Layer_1" data-name="Layer 1"><rect class="cls-3" y="0.78" width="286.63" height="286.63"/><g class="cls-4"><g class="cls-5"><path class="cls-3" d="M104.45,149.39l56,20a3.89,3.89,0,0,0,5-2.36l14.36-40.18a3.88,3.88,0,0,0-.68-3.78,3.94,3.94,0,0,0-1.8-1.38L134,106.22a10.84,10.84,0,0,0,9.28-7.42l2.07-5.53a4.67,4.67,0,0,0-3-6.09h0l-7-2.24-.12,0h0l-2.5-.8v0h0l0-.06,0,.06-4.8-1.54-4.61-1.36L139,71.34l8.63-5.64a12,12,0,0,0,3.45-16.52l-3.33-5.64a5.18,5.18,0,0,0-7.31-1.69L135.7,45a12.14,12.14,0,0,0-2.25-3.15L129,37a5.18,5.18,0,0,0-7.5-.16L109.7,48.68l-7.11,7.12,0-.08a9.8,9.8,0,0,0-3.47-13.39L94.68,39.4a4.25,4.25,0,0,0-6,1.41l-7,11.84-7.58,12.9h0c-.53.94-1.09,1.91-1.67,2.92-.08.14-2.38,3.82-5.42,8.67a44.78,44.78,0,0,0-7,4.32l-3-.63C9.33,71.78-37,82.07-78.13,111.09c-4,2.84-7.82,5.74-11.4,8.66A91.38,91.38,0,0,0-94.66,150a91.23,91.23,0,0,0,9.92,41.49A168.18,168.18,0,0,1-45.88,153.8C-17.75,134.41,12.7,127.44,44.85,133A45.05,45.05,0,0,0,72.25,160a14.62,14.62,0,0,0,1.56.58c1.22.39,2.57.9,3.43,1.1h0l7.55,2.45,4.08,1.31h0l10.36,3.3a4.71,4.71,0,0,0,6-3.23l1.52-5.7a10.77,10.77,0,0,0-.72-8.21A11.06,11.06,0,0,0,104.45,149.39ZM78,139.4a24,24,0,0,1-4.07-2.2l0,0c-1.46-16.1,19.86-36.11,24.53-40.28l.81-.51,2.8.85a3.84,3.84,0,0,0-1,1.49L86.65,138.9a3.89,3.89,0,0,0,.41,3.41Z"/><path class="cls-3" d="M374,107.87a168.8,168.8,0,0,1-38.86,37.72C307,165,276.51,171.94,244.36,166.4A45,45,0,0,0,217,139.34c-.54-.23-1-.39-1.56-.57-1.21-.4-2.57-.91-3.43-1.11h0l-7.56-2.46-4.08-1.3h0L190,130.6a4.71,4.71,0,0,0-6,3.23l-1.51,5.71a10.8,10.8,0,0,0,7,13.52l8.86,2.81h0L211.26,160a23,23,0,0,1,4.07,2.21l0,0c1.45,16.1-19.87,36.1-24.54,40.28l-.8.5-21.66-6.51-8.85-2.86a10.8,10.8,0,0,0-13.56,7l-2.08,5.53a4.68,4.68,0,0,0,3,6.09l1.55.5,5.48,1.76,1.94.62.67.22v0l4.75,1.52,4.65,1.38-15.65,9.85-8.64,5.63a12,12,0,0,0-3.45,16.52l3.34,5.64a5.18,5.18,0,0,0,7.31,1.7l4.74-3.12a11.6,11.6,0,0,0,2.25,3.15l4.41,4.84a5.18,5.18,0,0,0,7.5.17l11.83-11.88,7.11-7.11,0,.08a9.77,9.77,0,0,0,3.46,13.38l4.49,2.93a4.24,4.24,0,0,0,6-1.41l6.94-11.84,7.58-12.89h0c.52-.94,1.08-1.92,1.66-2.92.08-.14,2.39-3.83,5.43-8.68a44.6,44.6,0,0,0,7-4.32c1,.21,2,.44,3,.63a178.53,178.53,0,0,0,33.36,3.19c35.85,0,70.37-11.24,101.82-33.45,4-2.83,7.82-5.74,11.41-8.66A91.9,91.9,0,0,0,374,107.87Z"/></g><path class="cls-6" d="M76.11,94.37l50-48.27,7.3-7.28a12,12,0,0,0,0-16.88L129,17.1a5.18,5.18,0,0,0-7.5-.16L109.7,28.81,96.79,41.73h0c-.91,1-1.87,1.94-2.87,2.94-.41.42-33.83,32-34.2,32.49"/><path class="cls-6" d="M68.57,91.66,98.34,43.12l4.3-7.27a9.79,9.79,0,0,0-3.47-13.38l-4.49-2.94a4.25,4.25,0,0,0-6,1.41l-7,11.85L74.17,45.68h0c-.53.94-1.09,1.92-1.67,2.92-.24.42-20.25,32.34-20.45,32.78"/><path class="cls-6" d="M80.15,88.49l58.85-37,8.63-5.63a12,12,0,0,0,3.45-16.53l-3.33-5.64A5.18,5.18,0,0,0,140.44,22l-14,9.2-15.27,10h0l-3.4,2.3c-.5.32-55.3,33.3-55.75,33.67"/><rect class="cls-7" x="91.39" y="87.79" width="83.66" height="50.45" rx="3.89" transform="translate(45.81 -38.24) rotate(19.67)"/><path class="cls-8" d="M179.39,103.61a4.12,4.12,0,0,0-2.08-1.77L106.2,76.42c-2.11-.75-4.16.6-4.91,2.72L87.05,119a3.81,3.81,0,0,0-.1,2.79Z"/><path class="cls-6" d="M99.29,76.22s-31.08,26.41-24.65,44.86-32.27-19.67-32.27-19.67L71.08,66.14Z"/><path class="cls-9" d="M105.22,145.69l1.52-5.71a10.8,10.8,0,0,0-7-13.52l-8.87-2.81h0L78,119.54a24.06,24.06,0,0,1-4.07-2.21A23.77,23.77,0,0,1,92,74.37L120.85,83h0l8.85,2.85a10.79,10.79,0,0,0,13.56-6.95l2.07-5.53a4.67,4.67,0,0,0-3-6.09l-14.2-4.62-23.61-7h0c-1-.34-2.51-.71-3.72-1.09-.51-.16-1.12-.29-1.63-.4a45.1,45.1,0,0,0-26.95,86,15.88,15.88,0,0,0,1.55.57c1.21.39,2.57.9,3.43,1.11h0l7.55,2.46,14.45,4.6A4.7,4.7,0,0,0,105.22,145.69Z"/><path class="cls-9" d="M170,122a3.27,3.27,0,0,0-2-4.19l-20-7.15a3.28,3.28,0,0,0-4.19,2l-7.15,20a3.28,3.28,0,0,0,2,4.19l20,7.15a3.29,3.29,0,0,0,4.2-2Zm-16.89-.43-1,2.68-3.35-1.19,1-2.69Zm.43,11.51,1.08-3,3,1.08-1.08,3Zm7.51-3L155,127.92a2.12,2.12,0,0,0-2.52.9l-2.07,5.79L143,132l2.64-7.38,6.23,2.22c.86.31,1.39-.24,1.69-1.09l2.22-6.22,8.06,2.88Z"/><rect class="cls-9" x="156.52" y="123.48" width="3.21" height="3.21" rx="0.81" transform="translate(-12.88 231.88) rotate(-70.33)"/><rect class="cls-9" x="146.61" y="127.89" width="3.21" height="3.21" rx="0.81" transform="translate(-23.6 225.48) rotate(-70.33)"/><path class="cls-10" d="M135.29,65.25a9.94,9.94,0,0,1-4.56,5.31l-1.12,3.16a9.88,9.88,0,0,0,12.6-6l.15-.45-7-2.24A1.46,1.46,0,0,0,135.29,65.25Z"/><polygon class="cls-11" points="132.76 64.17 130.5 70.48 130.5 70.48 132.76 64.17 132.76 64.17"/><path class="cls-12" d="M135.36,65.06,133,64.29l-2.24,6.27a9.94,9.94,0,0,0,4.56-5.31A1.46,1.46,0,0,1,135.36,65.06Z"/><path class="cls-13" d="M135.24,65l-2.5-.81-2.24,6.27a8.82,8.82,0,0,0,4.62-5.29C135.14,65.12,135.22,65.08,135.24,65Z"/><path class="cls-10" d="M91.55,146.46,99,148.84a10.51,10.51,0,0,0-6.41-13.21L91.39,139a10.57,10.57,0,0,1,.17,7.44Z"/><path class="cls-12" d="M91.45,146.43l.1,0v0a10.57,10.57,0,0,0-.17-7.44l0,.16a9.93,9.93,0,0,1,.11,7.24Z"/><path class="cls-11" d="M91.21,139.11l.06-.16-2.39,6.66h0Z"/><path class="cls-12" d="M91.45,146.43v0a9.93,9.93,0,0,0-.11-7.24L89,145.65Z"/><path class="cls-13" d="M91.38,146.4s0,0,0,0a9.44,9.44,0,0,0-.15-7.25l-2.32,6.49Z"/><path class="cls-9" d="M57.18,109.43c-2.53-7.1.8-15.44,4-21.76a62.07,62.07,0,0,1,5-8.31c2.07-4.73,5.2-9,10-11.09a6.55,6.55,0,0,1,1.79-.53l.46-1.47A198.48,198.48,0,0,0,57.05,61C9.33,51.91-37,62.2-78.13,91.22c-4,2.84-7.82,5.74-11.4,8.66a91.38,91.38,0,0,0-5.13,30.27,91.2,91.2,0,0,0,9.92,41.49,168.39,168.39,0,0,1,38.86-37.71C-12.61,111,23.88,105.44,62.6,117.37l.32-1A12.86,12.86,0,0,1,57.18,109.43Z"/><path class="cls-14" d="M213.12,165.28l-50,48.27-7.3,7.27a12,12,0,0,0,0,16.88l4.41,4.84a5.18,5.18,0,0,0,7.5.17l11.83-11.87,12.91-12.93h0c.91-.95,1.87-1.94,2.86-2.94.41-.42,33.83-32,34.2-32.49"/><path class="cls-14" d="M220.65,168l-29.77,48.54-4.29,7.27a9.77,9.77,0,0,0,3.46,13.38l4.49,2.93a4.25,4.25,0,0,0,6-1.4l6.94-11.85L215.05,214h0c.52-.94,1.08-1.92,1.66-2.92.25-.42,20.25-32.34,20.45-32.78"/><path class="cls-14" d="M209.08,171.15l-58.85,37-8.64,5.63a12,12,0,0,0-3.45,16.53l3.34,5.64a5.18,5.18,0,0,0,7.31,1.69l14-9.2,15.28-10h0c1.09-.75,2.23-1.51,3.41-2.3.49-.32,55.29-33.31,55.75-33.67"/><path class="cls-14" d="M189.93,183.42S221,157,214.58,138.57s32.28,19.67,32.28,19.67l-28.72,35.27Z"/><path class="cls-15" d="M184,114l-1.51,5.71a10.8,10.8,0,0,0,7,13.52l8.86,2.81h0l12.89,4.11a23,23,0,0,1,4.07,2.21,23.76,23.76,0,0,1-18.14,43l-28.81-8.66h0l-8.85-2.86a10.8,10.8,0,0,0-13.56,7l-2.08,5.54a4.68,4.68,0,0,0,3,6.09L161.46,197l24,7.05h0c1,.34,2.09.71,3.31,1.09.51.16.91.29,1.42.4a45.08,45.08,0,0,0,26.77-86,16.07,16.07,0,0,0-1.56-.57c-1.22-.39-2.58-.91-3.44-1.11h0l-7.56-2.46L190,110.74A4.71,4.71,0,0,0,184,114Z"/><path class="cls-16" d="M153.93,194.4a10,10,0,0,1,4.56-5.31l1.13-3.16a9.88,9.88,0,0,0-12.61,6c0,.15-.1.29-.14.44l7,2.25Z"/><polygon class="cls-11" points="156.47 195.48 158.72 189.17 158.72 189.17 156.47 195.48 156.47 195.48"/><path class="cls-17" d="M153.87,194.59l2.38.77,2.24-6.27a10,10,0,0,0-4.56,5.31Z"/><path class="cls-16" d="M197.67,113.19l-7.46-2.38A10.53,10.53,0,0,0,196.63,124l1.2-3.36a10.59,10.59,0,0,1-.17-7.45Z"/><path class="cls-16" d="M197.78,113.22l-.11,0v0a10.59,10.59,0,0,0,.17,7.45l.06-.17a9.88,9.88,0,0,1-.12-7.24A0,0,0,0,1,197.78,113.22Z"/><path class="cls-11" d="M198,120.54l-.06.16,2.38-6.66h0Z"/><path class="cls-17" d="M197.78,113.22a0,0,0,0,0,0,0,9.88,9.88,0,0,0,.12,7.24l2.32-6.49Z"/><path class="cls-15" d="M374,88a168.82,168.82,0,0,1-38.86,37.71c-31.78,21.89-66.5,27.95-103.29,18.05,4.11,10.6,1.89,22.45-4,32.11a21.24,21.24,0,0,1-8.18,10.48,37.87,37.87,0,0,1-3.19,2.7,4.51,4.51,0,0,1-4.37.3l-1.24,4a197.72,197.72,0,0,0,21.3,5.3,178.53,178.53,0,0,0,33.36,3.19c35.85,0,70.37-11.24,101.82-33.44q6-4.26,11.41-8.67A91.88,91.88,0,0,0,374,88Z"/></g></g></g></svg>