<svg id="Layer_1" data-name="Layer 1" xmlns="http://www.w3.org/2000/svg" viewBox="0 0 153 152"><defs><style>.cls-1{fill:transparent;}.cls-2{fill:#fff;}</style></defs><title>Untitled-1</title><rect class="cls-1" x="0.65" y="0.09" width="152.84" height="152.84"/><path class="cls-2" d="M104.48,41,47.75,66.44a2.08,2.08,0,0,0-1.19,2.34L51,89.23A2.1,2.1,0,0,0,53,90.88l5,0,0,5.62A5.53,5.53,0,0,0,63.64,102l19.29-.12h0a5.91,5.91,0,0,0,1.12-.13,5.54,5.54,0,0,0,4.37-5.45l0-5.53,26.78-.1a2.09,2.09,0,0,0,2-2.53l-9.84-45.6A2.09,2.09,0,0,0,104.48,41ZM82.13,95.56l-17.77.11,0-4.84,17.77-.07Z"/><rect class="cls-2" x="37.99" y="68.81" width="6.53" height="23.84" rx="2.39" transform="translate(-16.09 10.51) rotate(-12.17)"/></svg>