<svg id="Layer_1" data-name="Layer 1" xmlns="http://www.w3.org/2000/svg" viewBox="0 0 251 35"><defs><style>.cls-1{fill:#a3a3a3;}.cls-2{fill:#bfbfbf;}.cls-3{fill:#d8d8d8;}</style></defs><title>NIVELES</title><path class="cls-1" d="M243,34.83H8.06A7.14,7.14,0,0,1,.91,27.69v-19A7.15,7.15,0,0,1,8.06,1.57H243a7.17,7.17,0,0,1,7.15,7.15v19A7.15,7.15,0,0,1,243,34.83Z"/><polygon class="cls-2" points="69.19 1.57 66.76 1.57 64.33 1.57 55.8 1.57 47.28 1.57 37.11 18.2 26.94 34.83 35.46 34.83 43.98 34.83 46.42 34.83 48.85 34.83 57.37 34.83 65.89 34.83 76.07 18.2 86.24 1.57 77.72 1.57 69.19 1.57"/><polygon class="cls-2" points="218.27 34.83 207.32 34.83 196.36 34.83 206.53 18.2 216.7 1.57 227.66 1.57 238.61 1.57 228.44 18.2 218.27 34.83"/><polygon class="cls-3" points="101.17 34.83 90.22 34.83 79.26 34.83 89.43 18.2 99.6 1.57 110.56 1.57 121.51 1.57 111.34 18.2 101.17 34.83"/><polygon class="cls-3" points="197.15 34.83 186.19 34.83 175.24 34.83 185.41 18.2 195.58 1.57 206.53 1.57 217.49 1.57 207.32 18.2 197.15 34.83"/><polygon class="cls-2" points="97.05 34.83 86.09 34.83 75.14 34.83 85.31 18.2 95.48 1.57 106.44 1.57 117.39 1.57 107.22 18.2 97.05 34.83"/><path class="cls-2" d="M128.35,9.36H126.7V7.71a1.23,1.23,0,0,0-.35-.84,1.21,1.21,0,0,0-.84-.35,1.2,1.2,0,0,0-1.19,1.19V9.36h-1.65a1.2,1.2,0,0,0,0,2.39h1.65v1.64a1.2,1.2,0,0,0,1.19,1.2,1.21,1.21,0,0,0,.84-.35,1.24,1.24,0,0,0,.35-.85V11.75h1.65a1.21,1.21,0,0,0,.84-.35,1.2,1.2,0,0,0,0-1.69A1.21,1.21,0,0,0,128.35,9.36Z"/><path class="cls-2" d="M173.45,28.81h-1.07V27.74a.78.78,0,0,0-.22-.55.79.79,0,0,0-1.09,0,.79.79,0,0,0-.23.55v1.07h-1.07a.76.76,0,0,0-.54.22.79.79,0,0,0-.23.55.79.79,0,0,0,.77.77h1.07v1.07a.77.77,0,0,0,1.32.54.76.76,0,0,0,.22-.54V30.35h1.07a.77.77,0,0,0,.55-.23.76.76,0,0,0,.22-.54A.78.78,0,0,0,174,29,.76.76,0,0,0,173.45,28.81Z"/><path class="cls-2" d="M245.07,5.75H244V4.68a.79.79,0,0,0-.77-.77.79.79,0,0,0-.55.23.76.76,0,0,0-.22.54V5.75h-1.07a.79.79,0,0,0-.55.23.76.76,0,0,0-.22.54.75.75,0,0,0,.77.77h1.07V8.36a.75.75,0,0,0,.77.77.76.76,0,0,0,.54-.22.79.79,0,0,0,.23-.55V7.29h1.07a.76.76,0,0,0,.54-.22.79.79,0,0,0,.23-.55.79.79,0,0,0-.77-.77Z"/><path class="cls-3" d="M13.64,6.27H12.31V5A.92.92,0,0,0,12,4.27a1,1,0,0,0-1.35,0A.92.92,0,0,0,10.4,5V6.27H9.07a1,1,0,0,0-.68,1.64,1,1,0,0,0,.68.28H10.4V9.52a.91.91,0,0,0,.28.67.93.93,0,0,0,1.35,0,.91.91,0,0,0,.28-.67V8.19h1.33a1,1,0,0,0,.68-.28,1,1,0,0,0-.68-1.64Z"/></svg>