<svg id="Layer_1" data-name="Layer 1" xmlns="http://www.w3.org/2000/svg" viewBox="0 0 249 33"><defs><style>.cls-1{fill:#e25720;}.cls-2{fill:#f96841;}.cls-3{fill:#f98a70;}</style></defs><title>NIVELES</title><path class="cls-1" d="M242,33.22H7.06A7.15,7.15,0,0,1-.09,26.07v-19A7.14,7.14,0,0,1,7.06,0H242a7.15,7.15,0,0,1,7.15,7.15v19A7.17,7.17,0,0,1,242,33.22Z"/><polygon class="cls-2" points="68.19 -0.04 65.76 -0.04 63.33 -0.04 54.8 -0.04 46.28 -0.04 36.11 16.59 25.94 33.22 34.46 33.22 42.98 33.22 45.42 33.22 47.85 33.22 56.37 33.22 64.89 33.22 75.07 16.59 85.24 -0.04 76.72 -0.04 68.19 -0.04"/><polygon class="cls-2" points="217.27 33.22 206.32 33.22 195.36 33.22 205.53 16.59 215.7 -0.04 226.66 -0.04 237.61 -0.04 227.44 16.59 217.27 33.22"/><polygon class="cls-3" points="100.17 33.22 89.22 33.22 78.26 33.22 88.43 16.59 98.6 -0.04 109.56 -0.04 120.51 -0.04 110.34 16.59 100.17 33.22"/><polygon class="cls-3" points="196.15 33.22 185.19 33.22 174.24 33.22 184.41 16.59 194.58 -0.04 205.53 -0.04 216.49 -0.04 206.32 16.59 196.15 33.22"/><polygon class="cls-2" points="96.05 33.22 85.09 33.22 74.14 33.22 84.31 16.59 94.48 -0.04 105.44 -0.04 116.39 -0.04 106.22 16.59 96.05 33.22"/><path class="cls-2" d="M127.35,7.75H125.7V6.1a1.19,1.19,0,0,0-.35-.84,1.17,1.17,0,0,0-.84-.35,1.2,1.2,0,0,0-1.19,1.19V7.75h-1.65a1.2,1.2,0,0,0-1.19,1.19,1.17,1.17,0,0,0,.35.84,1.15,1.15,0,0,0,.84.35h1.65v1.65a1.17,1.17,0,0,0,.35.84,1.15,1.15,0,0,0,.84.35,1.17,1.17,0,0,0,.84-.35,1.21,1.21,0,0,0,.35-.84V10.13h1.65a1.2,1.2,0,0,0,1.19-1.19,1.15,1.15,0,0,0-.35-.84A1.17,1.17,0,0,0,127.35,7.75Z"/><path class="cls-2" d="M172.45,27.19h-1.07V26.12a.76.76,0,0,0-.22-.54.78.78,0,0,0-1.32.54v1.07h-1.07a.78.78,0,0,0,0,1.55h1.07V29.8a.77.77,0,0,0,.23.55.77.77,0,0,0,1.31-.55V28.74h1.07a.77.77,0,0,0,.55-.23.79.79,0,0,0,0-1.09A.77.77,0,0,0,172.45,27.19Z"/><path class="cls-2" d="M244.07,4.13H243V3.07a.77.77,0,0,0-.23-.55.76.76,0,0,0-.54-.22.78.78,0,0,0-.55.22.76.76,0,0,0-.22.55V4.13h-1.07a.79.79,0,0,0-.55.23.79.79,0,0,0,0,1.09.79.79,0,0,0,.55.23h1.07V6.75a.76.76,0,0,0,.22.54.79.79,0,0,0,.55.23.79.79,0,0,0,.77-.77V5.68h1.07a.78.78,0,0,0,0-1.55Z"/><path class="cls-3" d="M12.64,4.66H11.31V3.33a1,1,0,1,0-1.91,0V4.66H8.07a1,1,0,0,0-.68.28,1,1,0,0,0,.68,1.63H9.4V7.9a.92.92,0,0,0,.28.68,1,1,0,0,0,1.35,0,.92.92,0,0,0,.28-.68V6.57h1.33a1,1,0,0,0,.68-1.63A1,1,0,0,0,12.64,4.66Z"/></svg>