<svg id="Layer_1" data-name="Layer 1" xmlns="http://www.w3.org/2000/svg" viewBox="0 0 249 33"><defs><style>.cls-1{fill:#2b2b2b;}.cls-2{fill:#3a3a3a;}.cls-3{fill:#494949;}</style></defs><title>NIVELES</title><path class="cls-1" d="M242,33.5H7.06A7.14,7.14,0,0,1-.09,26.35v-19A7.14,7.14,0,0,1,7.06.24H242a7.15,7.15,0,0,1,7.15,7.15v19A7.15,7.15,0,0,1,242,33.5Z"/><polygon class="cls-2" points="68.19 0.24 65.76 0.24 63.33 0.24 54.8 0.24 46.28 0.24 36.11 16.87 25.94 33.5 34.46 33.5 42.98 33.5 45.42 33.5 47.85 33.5 56.37 33.5 64.89 33.5 75.07 16.87 85.24 0.24 76.72 0.24 68.19 0.24"/><polygon class="cls-2" points="217.27 33.5 206.32 33.5 195.36 33.5 205.53 16.87 215.7 0.24 226.66 0.24 237.61 0.24 227.44 16.87 217.27 33.5"/><polygon class="cls-3" points="100.17 33.5 89.22 33.5 78.26 33.5 88.43 16.87 98.6 0.24 109.56 0.24 120.51 0.24 110.34 16.87 100.17 33.5"/><polygon class="cls-3" points="196.15 33.5 185.19 33.5 174.24 33.5 184.41 16.87 194.58 0.24 205.53 0.24 216.49 0.24 206.32 16.87 196.15 33.5"/><polygon class="cls-2" points="96.05 33.5 85.09 33.5 74.14 33.5 84.31 16.87 94.48 0.24 105.44 0.24 116.39 0.24 106.22 16.87 96.05 33.5"/><path class="cls-3" d="M127.35,8H125.7V6.38a1.19,1.19,0,0,0-.35-.84,1.17,1.17,0,0,0-.84-.35,1.2,1.2,0,0,0-1.19,1.19V8h-1.65a1.19,1.19,0,0,0,0,2.38h1.65v1.65a1.2,1.2,0,0,0,1.19,1.19,1.17,1.17,0,0,0,.84-.35,1.19,1.19,0,0,0,.35-.84V10.41h1.65a1.17,1.17,0,0,0,.84-.35,1.18,1.18,0,0,0,0-1.68A1.17,1.17,0,0,0,127.35,8Z"/><path class="cls-3" d="M172.45,27.47h-1.07V26.41a.76.76,0,0,0-.22-.55.78.78,0,0,0-1.32.55v1.06h-1.07a.78.78,0,0,0,0,1.55h1.07v1.07a.77.77,0,0,0,1.32.54.76.76,0,0,0,.22-.54V29h1.07a.77.77,0,0,0,.55-.23.79.79,0,0,0,0-1.09A.77.77,0,0,0,172.45,27.47Z"/><path class="cls-3" d="M244.07,4.42H243V3.35a.79.79,0,0,0-.23-.55.76.76,0,0,0-.54-.22.75.75,0,0,0-.77.77V4.42h-1.07a.75.75,0,0,0-.77.77.76.76,0,0,0,.22.54.79.79,0,0,0,.55.23h1.07V7a.76.76,0,0,0,.22.54.79.79,0,0,0,.55.23A.79.79,0,0,0,243,7V6h1.07a.79.79,0,0,0,.77-.77.79.79,0,0,0-.23-.55A.76.76,0,0,0,244.07,4.42Z"/><path class="cls-3" d="M12.64,4.94H11.31V3.61a1,1,0,0,0-1-1,.93.93,0,0,0-.68.29.91.91,0,0,0-.28.67V4.94H8.07a1,1,0,0,0-.68.28,1,1,0,0,0-.28.68,1,1,0,0,0,1,1H9.4V8.18a.92.92,0,0,0,.28.68,1,1,0,0,0,1.35,0,.92.92,0,0,0,.28-.68V6.86h1.33a1,1,0,0,0,1-1,1,1,0,0,0-.28-.68A1,1,0,0,0,12.64,4.94Z"/></svg>