<?xml version="1.0" encoding="utf-8"?>
<!-- Generator: Adobe Illustrator 19.0.0, SVG Export Plug-In . SVG Version: 6.00 Build 0)  -->
<svg version="1.1" id="Layer_1" xmlns="http://www.w3.org/2000/svg" xmlns:xlink="http://www.w3.org/1999/xlink" x="0px" y="0px"
	 viewBox="0 0 42.3 42.3" style="enable-background:new 0 0 42.3 42.3;" xml:space="preserve">
<style type="text/css">
	.st0{fill:#CF0A2C;}
	.st1{fill:#FFFFFF;}
</style>
<g id="XMLID_1_">
	<g id="XMLID_3495_">
		<circle id="XMLID_3622_" class="st0" cx="21.2" cy="21.2" r="17.1"/>
		<path id="XMLID_3_" class="st1" d="M21.2,41.2c-11.1,0-20.1-9-20.1-20.1s9-20.1,20.1-20.1s20.1,9,20.1,20.1S32.2,41.2,21.2,41.2z
			 M21.2,7.1c-7.8,0-14.1,6.3-14.1,14.1s6.3,14.1,14.1,14.1s14.1-6.3,14.1-14.1S28.9,7.1,21.2,7.1z"/>
	</g>
	<g id="XMLID_3493_">
		<path id="XMLID_3497_" class="st1" d="M27.2,22c-0.6,0-1.1-0.2-1.5-0.5c-0.4,0.3-0.9,0.5-1.5,0.5l-1.4,0c-0.6,0-1.1-0.2-1.5-0.5
			c-0.4,0.3-0.9,0.5-1.5,0.5l-1.4,0c-0.6,0-1.1-0.2-1.5-0.5c-0.4,0.3-0.9,0.5-1.5,0.5l-1.3,0l0,5.5c0,0.6,0.5,1.1,1.1,1.1l1.4,0
			l2.2,0l4.7,0l1.7,0l1.9,0c0.6,0,1.1-0.5,1.1-1.1l0-5.5L27.2,22z"/>
		<path id="XMLID_3628_" class="st1" d="M28.3,13.6c-0.1-0.2,0-0.5-0.2-0.5H14.5c-0.2,0-0.1,0.4-0.2,0.5l-1.7,4.2V19
			c0,0.6,0.1,1,0.7,1h2.1c0.8,0,1.5-0.7,1.5-1.5c0,0.8,0.7,1.5,1.5,1.5h1.4c0.8,0,1.5-0.7,1.5-1.5c0,0.8,0.7,1.5,1.5,1.5h1.4
			c0.8,0,1.5-0.7,1.5-1.5c0,0.8,0.7,1.5,1.5,1.5h1.4c0.8,0,1.1-0.6,1.1-1.4v-0.8L28.3,13.6z"/>
	</g>
</g>
</svg>
