<svg id="Layer_1" data-name="Layer 1" xmlns="http://www.w3.org/2000/svg" xmlns:xlink="http://www.w3.org/1999/xlink" viewBox="0 0 1080 1080"><defs><style>.cls-1{fill:none;}.cls-2{fill:#ee3853;}.cls-3{clip-path:url(#clip-path);}.cls-4{fill:#d51e3d;}.cls-5{fill:#262626;}.cls-6{fill:#fff;}.cls-7{fill:#ffd31a;}.cls-8{fill:#93bc15;}.cls-9{font-size:390.47px;fill:#e0bb20;font-family:GothamRounded-Bold, Gotham Rounded;font-weight:700;}.cls-10{fill:#9b7e07;}.cls-11{fill:#4d0bad;}</style><clipPath id="clip-path"><circle class="cls-1" cx="507.77" cy="621.21" r="363.57"/></clipPath></defs><title>Untitled-3</title><circle class="cls-2" cx="507.77" cy="621.21" r="363.57"/><g class="cls-3"><path class="cls-4" d="M983,473.53c0,78.36-.55,156.74.24,235.1.38,37.63-29.44,67.16-67.06,67-71.6-.28-143.2,0-214.81-.11-31,0-57.16-20.39-63.9-49.71a66.18,66.18,0,0,1-1.53-14.66q-.12-237.64,0-475.29c0-36,27.8-63.89,64-64.39,17.33-.24,34.67-.06,52-.06q82.88,0,165.76,0c31,.06,57,20.19,63.66,49.36a74,74,0,0,1,1.6,16.34Q983,355.34,983,473.53Zm-42.38-179H678v358h262.6ZM809.82,225.09H781.94c-5.77,0-11.55-.1-17.32,0-4.9.11-8.31,3.5-8.21,7.83s3.39,7.26,8.1,7.49c.56,0,1.13,0,1.69,0q42.88,0,85.76,0c1.54,0,3.45.33,4.55-.42,2.06-1.41,4.73-3.28,5.17-5.38.48-2.28-.66-5.56-2.25-7.42-1.27-1.48-4.27-2-6.52-2C838.55,225,824.19,225.09,809.82,225.09ZM789.71,714.28a19.65,19.65,0,1,0,19.37-19.88A19.69,19.69,0,0,0,789.71,714.28Z"/><path class="cls-4" d="M346.66,334.47,67.84,817.4a24.66,24.66,0,0,0,21.35,37H646.84a24.66,24.66,0,0,0,21.35-37L389.37,334.47A24.66,24.66,0,0,0,346.66,334.47Z"/></g><path class="cls-5" d="M212.4,1003.16H174.71a18.84,18.84,0,1,1,0-37.68h18.91L194,856a18.85,18.85,0,0,1,18.85-18.78H213a18.84,18.84,0,0,1,18.77,18.92l-.48,128.27A18.84,18.84,0,0,1,212.4,1003.16Z"/><path class="cls-5" d="M387.47,1003.16H349.78a18.84,18.84,0,1,1,0-37.68h18.91L369.1,856A18.85,18.85,0,0,1,388,837.2H388a18.84,18.84,0,0,1,18.77,18.92l-.48,128.27A18.84,18.84,0,0,1,387.47,1003.16Z"/><path class="cls-5" d="M69,715.41,51.48,640.72a15.84,15.84,0,0,1,11.46-19L150,599.28,157.94,630,85.86,648.56l14,59.6Z"/><path class="cls-6" d="M446.43,375.76h0a20.13,20.13,0,0,1,1.88-27l20.27-18.18,20.27-18.18A23.48,23.48,0,0,1,523,315.35h0a23.47,23.47,0,0,1-5.06,33.86l-22.39,15.5L473.12,380.2a20.11,20.11,0,0,1-26.69-4.44Z"/><path class="cls-6" d="M457.77,414.61h0a20.14,20.14,0,0,1,18.3-19.94l27.18-1.58,27.18-1.58a23.47,23.47,0,0,1,24.84,23.56h0a23.48,23.48,0,0,1-25.06,23.32L503,436.55l-27.16-1.83a20.13,20.13,0,0,1-18.11-20.11Z"/><path class="cls-6" d="M411.28,355.71h0a20.14,20.14,0,0,0,23.64-13.16l7.85-26.08,7.85-26.07a23.48,23.48,0,0,0-17.15-29.63h0a23.48,23.48,0,0,0-28.5,19l-4.52,26.85-4.53,26.85a20.12,20.12,0,0,0,15.36,22.28Z"/><path class="cls-7" d="M292,334.47,13.13,817.4a24.66,24.66,0,0,0,21.35,37H592.13a24.66,24.66,0,0,0,21.35-37L334.66,334.47A24.66,24.66,0,0,0,292,334.47Z"/><path class="cls-8" d="M1045.9,192.22h0A15,15,0,0,1,1031,179.73c-10.85-64.75-49-101.34-113.55-112a15,15,0,0,1-12.54-14.87h0a15.12,15.12,0,0,1,16.73-15,152.89,152.89,0,0,1,85.51,36.87c31.4,27,49.14,60.65,53.72,100.75A15.08,15.08,0,0,1,1045.9,192.22Z"/><path class="cls-8" d="M999.81,192.11h-.17A15.15,15.15,0,0,1,984.85,180c-7.76-37.14-30.63-58.67-67.68-65.92a15.15,15.15,0,0,1-12.31-14.83V99a15.1,15.1,0,0,1,17.19-15c44.45,6.13,85.37,43,92.69,90.71A15.09,15.09,0,0,1,999.81,192.11Z"/><path class="cls-6" d="M916.25,181.92V715.64H653.66V181.92Z"/><text class="cls-9" transform="matrix(1, 0, 0, 1, 246.98, 776.99)">!</text><circle class="cls-10" cx="238.05" cy="587.78" r="25.17"/><circle class="cls-10" cx="393.45" cy="587.78" r="25.17"/><path class="cls-10" d="M244.81,686.4c2.54,19.75,20.37,57.1,69.59,57.1s67.06-37.35,69.6-57.1a14.31,14.31,0,0,0-12.29-16,14.73,14.73,0,0,0-2-.14,14.45,14.45,0,0,0-14.23,12.35c-.49,3.29-5.76,32.15-41.11,32.15S273.81,686,273.31,682.62a14.38,14.38,0,0,0-14.23-12.43,14.76,14.76,0,0,0-1.86.12A14.36,14.36,0,0,0,244.81,686.4Z"/><path class="cls-5" d="M502.08,627.32,488.8,598.56,535.51,577,547,498.48l31.34,4.57-12.67,87a15.85,15.85,0,0,1-9,12.1Z"/><circle class="cls-5" cx="561.98" cy="500.86" r="26.93"/><path class="cls-11" d="M958.64,446.78c0,78.37-.56,156.74.23,235.1.38,37.63-29.43,67.16-67,67-71.6-.28-143.21,0-214.81-.11-31,0-57.17-20.38-63.9-49.71a66.18,66.18,0,0,1-1.53-14.66q-.12-237.64-.05-475.29c0-35.94,27.81-63.88,64-64.39,17.33-.24,34.67-.06,52-.06q82.89,0,165.76,0c31,0,57,20.19,63.66,49.36a73.81,73.81,0,0,1,1.61,16.33Q958.72,328.6,958.64,446.78Zm-42.39-179H653.66v358H916.25ZM785.51,198.34H757.62c-5.77,0-11.55-.09-17.32,0-4.9.11-8.31,3.5-8.21,7.83s3.4,7.26,8.1,7.49c.57,0,1.13,0,1.69,0h85.76c1.55,0,3.45.32,4.55-.43,2.07-1.41,4.73-3.28,5.17-5.37.48-2.29-.66-5.57-2.25-7.43-1.27-1.48-4.27-2-6.51-2C814.24,198.26,799.87,198.35,785.51,198.34ZM765.39,687.53a19.65,19.65,0,1,0,19.37-19.87A19.7,19.7,0,0,0,765.39,687.53Z"/></svg>