<svg id="Layer_1" data-name="Layer 1" xmlns="http://www.w3.org/2000/svg" viewBox="0 0 1080 1080"><defs><style>.cls-1{fill:#8c8c8c;}.cls-2{fill:#fff;}</style></defs><title>perfil sin imagen</title><path class="cls-1" d="M539.79,1070.8h0c-146.08,0-278.88-59.77-375.16-156s-156-229.08-156-375.16h0c0-146.08,59.76-278.88,156-375.16s229.08-156,375.16-156h0C685.88,8.38,818.68,68.14,915,164.43s156,229.08,156,375.16h0c0,146.08-59.76,278.88-156,375.16S685.88,1070.8,539.79,1070.8Z"/><path class="cls-2" d="M809.6,763.5,755.72,631.57a150.39,150.39,0,0,0-65.37-73.93l-45.42-19.78c28.46-23.77,48.68-57.39,55.87-99.78,8.52-50.27-8.43-102.18-45.69-137C566.51,218.27,435.3,254,393.83,353.75c-27.22,65.45-7.62,138.84,43.31,182.84l-47.9,21.07a150.36,150.36,0,0,0-65.37,73.92L270,763.51a42,42,0,0,0-3.4,16.14c.18,24.93,20.8,44.49,43.82,44.49H769.18c23,0,43.65-19.57,43.82-44.51A42.17,42.17,0,0,0,809.6,763.5ZM470.24,396a74.1,74.1,0,1,1,34.41,83.43A74.18,74.18,0,0,1,470.24,396ZM375.12,737.06l29.41-72.43a62.83,62.83,0,0,1,25.25-30.24l107.77-47,111.78,47.14a63.34,63.34,0,0,1,25.72,30.08l29.42,72.43Z"/></svg>