<svg id="Layer_1" data-name="Layer 1" xmlns="http://www.w3.org/2000/svg" viewBox="0 0 153 152"><defs><style>.cls-1{fill:#adadad;}.cls-2{fill:#fff;}</style></defs><title>Untitled-1</title><rect class="cls-1" x="0.71" y="-0.58" width="152.84" height="152.84"/><path class="cls-2" d="M43.06,109.09a30.21,30.21,0,0,1-.88-5.42c-.17-2.28-.3-4.57-.3-6.9,0-1.78.07-3.88.25-6.29a40.93,40.93,0,0,1,.94-6L77,66.09l34.07,18.36a38.79,38.79,0,0,1,1.1,6c.18,2.41.23,4.51.23,6.29,0,2.33-.17,4.62-.35,6.9a29.23,29.23,0,0,1-1,5.42L77,90.59Z"/><path class="cls-2" d="M43.06,76.6a30.37,30.37,0,0,1-.88-5.42c-.17-2.28-.3-4.58-.3-6.9,0-1.78.07-3.88.25-6.29a40.93,40.93,0,0,1,.94-6L77,33.6,111.05,52a38.79,38.79,0,0,1,1.1,6c.18,2.41.23,4.51.23,6.29,0,2.32-.17,4.62-.35,6.9a29.39,29.39,0,0,1-1,5.42L77,58.1Z"/></svg>