<svg id="Layer_1" data-name="Layer 1" xmlns="http://www.w3.org/2000/svg" viewBox="0 0 210 157"><defs><style>.cls-1{fill:#ee3853;}.cls-2{fill:#d51e3d;}.cls-3{fill:#6cbc46;}.cls-4{fill:#9ef27c;}.cls-5{fill:#fff;}</style></defs><title>Untitled-2</title><circle class="cls-1" cx="105.56" cy="78.33" r="66.08"/><path class="cls-2" d="M168.23,57.73a11.92,11.92,0,0,0-6.09-1.68H48.52a11.87,11.87,0,0,0-5.8,1.51A66,66,0,0,0,54,119.75H156.91a66.06,66.06,0,0,0,11.32-62Z"/><path class="cls-3" d="M27.58,100.71a4.25,4.25,0,0,1-4.2-3.56l-2.9-17.58-4.94,1.35a4.26,4.26,0,1,1-2.25-8.21l9.5-2.59a4.25,4.25,0,0,1,5.32,3.41l2.57,15.56L40,82.54a4.26,4.26,0,1,1,4.89,7L30,99.94A4.23,4.23,0,0,1,27.58,100.71Z"/><path class="cls-3" d="M183.54,100.71a4.23,4.23,0,0,1-2.44-.77L166.2,89.51a4.26,4.26,0,0,1,4.89-7l9.35,6.55L183,73.53a4.25,4.25,0,0,1,5.32-3.41l9.49,2.59a4.26,4.26,0,1,1-2.24,8.21l-4.94-1.35-2.9,17.58a4.25,4.25,0,0,1-4.2,3.56Z"/><rect class="cls-4" x="36.63" y="47.29" width="137.62" height="63.7" rx="12"/><path class="cls-3" d="M48.63,47.29H162.26a12,12,0,0,1,12,12v7a0,0,0,0,1,0,0H36.63a0,0,0,0,1,0,0v-7A12,12,0,0,1,48.63,47.29Z"/><circle class="cls-3" cx="119.95" cy="82.1" r="4.08"/><circle class="cls-3" cx="151.07" cy="82.1" r="4.08"/><path class="cls-3" d="M126.39,97.29a2.5,2.5,0,0,1-.3-5l18.57-2.26a2.5,2.5,0,0,1,.6,5l-18.57,2.25Z"/><rect class="cls-5" x="39.7" y="50.57" width="56.34" height="57.16" rx="9.87"/><path class="cls-3" d="M58.37,66a15.12,15.12,0,0,1,1.9-1.37,13.76,13.76,0,0,1,2.2-1.12A13.92,13.92,0,0,1,65,62.72a14.22,14.22,0,0,1,2.93-.28,12.74,12.74,0,0,1,4,.59,8.73,8.73,0,0,1,3,1.69,7.34,7.34,0,0,1,1.93,2.64,8.47,8.47,0,0,1,.67,3.43,8.7,8.7,0,0,1-.5,3.11,8.33,8.33,0,0,1-1.26,2.26,9.77,9.77,0,0,1-1.67,1.67l-1.73,1.31A13.73,13.73,0,0,0,71,80.34a2.45,2.45,0,0,0-.74,1.32L69.6,85h-5l-.51-3.8a2.7,2.7,0,0,1,0-.28,2.62,2.62,0,0,1,0-.28,3.33,3.33,0,0,1,.49-1.82,6.41,6.41,0,0,1,1.25-1.42,18.93,18.93,0,0,1,1.63-1.25A15,15,0,0,0,69,74.81a6.45,6.45,0,0,0,1.25-1.56,4,4,0,0,0,.5-2A2.89,2.89,0,0,0,69.84,69a3.67,3.67,0,0,0-2.56-.83,6.85,6.85,0,0,0-2.08.26,8.3,8.3,0,0,0-1.44.57c-.4.21-.75.41-1,.58a1.82,1.82,0,0,1-.9.26,1.62,1.62,0,0,1-1.51-.87Zm4.34,27.51A3.78,3.78,0,0,1,63,91.89a3.88,3.88,0,0,1,.87-1.27,4.31,4.31,0,0,1,4.59-.86,4.36,4.36,0,0,1,1.32.86A3.91,3.91,0,0,1,71,93.47a4,4,0,0,1-1.2,2.88,4.34,4.34,0,0,1-1.32.85,4.63,4.63,0,0,1-3.28,0,4.06,4.06,0,0,1-1.31-.85A4,4,0,0,1,63,95.06,3.83,3.83,0,0,1,62.71,93.47Z"/><path class="cls-5" d="M40.43,43.47h0a3.2,3.2,0,0,1-2.3.25,3.16,3.16,0,0,1-1.87-1.37L34,38.62,31.8,34.88a3.69,3.69,0,0,1-.39-3,3.75,3.75,0,0,1,1.89-2.31h0a3.77,3.77,0,0,1,3-.2,3.72,3.72,0,0,1,2.18,2l1.75,4,1.74,4a3.2,3.2,0,0,1-1.51,4Z"/><path class="cls-5" d="M46.87,42.88h0A3.2,3.2,0,0,1,44.3,39.4l.59-4.31.58-4.31a3.76,3.76,0,0,1,4.45-3.18h0a3.76,3.76,0,0,1,2.89,4.65l-1.11,4.2-1.12,4.21a3.16,3.16,0,0,1-1.43,1.82A3.2,3.2,0,0,1,46.87,42.88Z"/><path class="cls-5" d="M36.21,48.37h0a3.2,3.2,0,0,0,.13-2.31,3.25,3.25,0,0,0-1.47-1.8l-3.85-2-3.85-2A3.76,3.76,0,0,0,22,42h0a3.74,3.74,0,0,0,0,3A3.7,3.7,0,0,0,24.1,47l4.08,1.54,4.07,1.53a3.22,3.22,0,0,0,4-1.73Z"/></svg>