<svg id="Layer_1" data-name="Layer 1" xmlns="http://www.w3.org/2000/svg" viewBox="0 0 1080 1080"><defs><style>.cls-1{fill:#ffc033;}.cls-2{fill:#e0a32b;}.cls-3{fill:#fff;}</style></defs><title>Untitled-3</title><rect class="cls-1" width="1080" height="1080"/><path class="cls-2" d="M178.94,724,584.66,278.16a18.62,18.62,0,0,1,29.9,3.22L872,726.94A18.62,18.62,0,0,1,860.4,754.3L280.9,901.4a18.6,18.6,0,0,1-20.76-8.83L176.53,745.75A18.64,18.64,0,0,1,178.94,724Z"/><rect class="cls-2" x="508.03" y="439.89" width="564.97" height="60.4" rx="26.59" transform="translate(802.37 -449.56) rotate(60)"/><rect class="cls-2" x="72.53" y="812.33" width="197" height="61.71" rx="13" transform="translate(815.73 273.48) rotate(60)"/><path class="cls-2" d="M425.86,955.92A20.17,20.17,0,0,1,406,939.45L380.34,802.06,420,794.65l22,117.56L644.8,874.29l-22-117.56,39.67-7.41,25.68,137.39A20.18,20.18,0,0,1,672,910.25L429.57,955.58A20.16,20.16,0,0,1,425.86,955.92Z"/><path class="cls-3" d="M194.94,676,600.66,230.16a18.62,18.62,0,0,1,29.9,3.22L888,678.94A18.62,18.62,0,0,1,876.4,706.3L296.9,853.4a18.6,18.6,0,0,1-20.76-8.83L192.53,697.75A18.64,18.64,0,0,1,194.94,676Z"/><rect class="cls-3" x="524.03" y="391.89" width="564.97" height="60.4" rx="26.59" transform="translate(768.8 -487.42) rotate(60)"/><rect class="cls-3" x="88.53" y="764.33" width="197" height="61.71" rx="13" transform="translate(782.16 235.62) rotate(60)"/><path class="cls-3" d="M441.86,907.92A20.17,20.17,0,0,1,422,891.45L396.34,754.06,436,746.65l22,117.56L660.8,826.29l-22-117.56,39.67-7.41,25.68,137.39A20.18,20.18,0,0,1,688,862.25L445.57,907.58A20.16,20.16,0,0,1,441.86,907.92Z"/></svg>