<svg id="Layer_1" data-name="Layer 1" xmlns="http://www.w3.org/2000/svg" xmlns:xlink="http://www.w3.org/1999/xlink" viewBox="0 0 213 235"><defs><style>.cls-1{fill:#212120;}.cls-2{fill:url(#linear-gradient);}.cls-3,.cls-6{fill:#fff;}.cls-4{fill:url(#linear-gradient-2);}.cls-5{fill:url(#linear-gradient-3);}.cls-6{font-size:25.89px;font-family:Lato-Light, Lato;font-weight:300;}.cls-7{fill:#630db5;font-family:Lato-Black, Lato;font-weight:800;}</style><linearGradient id="linear-gradient" x1="25.4" y1="87.07" x2="186.84" y2="87.07" gradientUnits="userSpaceOnUse"><stop offset="0" stop-color="#4d0094"/><stop offset="1" stop-color="#630db5"/></linearGradient><linearGradient id="linear-gradient-2" x1="-1559.31" y1="-609.58" x2="-1505.31" y2="-609.58" gradientTransform="matrix(-0.71, -0.71, -0.71, 0.71, -1407.96, -581.69)" xlink:href="#linear-gradient"/><linearGradient id="linear-gradient-3" x1="-1575.02" y1="-606.07" x2="-1528.43" y2="-606.07" gradientTransform="matrix(-0.71, -0.71, -0.71, 0.71, -1407.96, -581.69)" xlink:href="#linear-gradient"/></defs><title>Untitled-4</title><path class="cls-1" d="M116.12,16.35a80.72,80.72,0,1,0,80.72,80.72A80.81,80.81,0,0,0,116.12,16.35Zm0,135.85a55.13,55.13,0,1,1,55.13-55.13A55.19,55.19,0,0,1,116.12,152.2Z"/><path class="cls-1" d="M145.55,86.22H127.21V58a10.77,10.77,0,0,0-21.54,0v49.79h39.88a10.77,10.77,0,0,0,0-21.54Z"/><path class="cls-2" d="M106.12,167.79a80.72,80.72,0,1,1,80.72-80.72A80.81,80.81,0,0,1,106.12,167.79Zm0-135.85a55.13,55.13,0,1,0,55.13,55.13A55.19,55.19,0,0,0,106.12,31.94Z"/><path class="cls-3" d="M177.2,34.71h-3.45V31.25a2.5,2.5,0,0,0-5,0v3.46H165.3a2.5,2.5,0,1,0,0,5h3.45v3.46a2.5,2.5,0,0,0,5,0V39.7h3.45a2.5,2.5,0,1,0,0-5Z"/><path class="cls-4" d="M106.44,37.2A10.77,10.77,0,0,1,117.21,48V76.22l.58,21.54H95.67V48A10.77,10.77,0,0,1,106.44,37.2Z"/><path class="cls-5" d="M117.21,76.22h18.34a10.77,10.77,0,0,1,0,21.54H95.67V76.22Z"/><path class="cls-3" d="M69.73,136.25H61.49V128a5.95,5.95,0,0,0-11.9,0v8.24H41.35a5.95,5.95,0,0,0,0,11.9h8.24v8.24a5.95,5.95,0,0,0,11.9,0v-8.24h8.24a5.95,5.95,0,0,0,0-11.9Z"/><path class="cls-3" d="M181.5,132.61h-4.24v-4.23a3.06,3.06,0,1,0-6.12,0v4.23H166.9a3.06,3.06,0,1,0,0,6.12h4.24V143a3.06,3.06,0,0,0,6.12,0v-4.24h4.24a3.06,3.06,0,1,0,0-6.12Z"/><text class="cls-6" transform="translate(6.82 222.55)">Recarga <tspan class="cls-7" x="94.86" y="0">peniente</tspan></text></svg>