<svg xmlns="http://www.w3.org/2000/svg" viewBox="0 0 287 287"><defs><style>.cls-1{isolation:isolate;}.cls-2{fill:#b20f0f;}.cls-3{opacity:0.5;mix-blend-mode:multiply;}.cls-4{fill:#8c8c8c;}.cls-5,.cls-7{fill:#fff;}.cls-6{fill:red;}.cls-7{font-size:48.88px;font-family:Lato-Bold, Lato;font-weight:700;}</style></defs><title>assets</title><g class="cls-1"><g id="Layer_1" data-name="Layer 1"><rect class="cls-2" x="0.85" y="0.4" width="286.95" height="286.95"/><g class="cls-3"><path class="cls-4" d="M193.69,90.13a54,54,0,0,0-3.05-9.66L130.4,88.34a56.08,56.08,0,0,0-.3,10.1c.22,4.2.54,8.42,1.09,12.65.43,3.26,1.06,7.07,2,11.43a74.83,74.83,0,0,0,3.15,10.76l10.34-1.35.74,5.66a3.19,3.19,0,0,0,5.68,1.53l6.86-8.93,36.57-4.78a73.67,73.67,0,0,0,.56-11.25c-.25-4.44-.66-8.28-1.09-11.54C195.41,98.39,194.56,94.24,193.69,90.13Z"/><path class="cls-4" d="M211.05,152.89a89.63,89.63,0,0,0-5-15.73l-98,12.83a91.61,91.61,0,0,0-.49,16.43c.35,6.83.87,13.7,1.77,20.59.7,5.31,1.72,11.51,3.19,18.59a124.19,124.19,0,0,0,5.12,17.53l16.83-2.2,1.21,9.21a5.18,5.18,0,0,0,9.24,2.49l11.17-14.53,59.52-7.79c.43-4.9,1.31-11.08.91-18.31s-1.07-13.47-1.76-18.77C213.85,166.33,212.46,159.58,211.05,152.89Z"/></g><path class="cls-5" d="M173.93,94.09a18.64,18.64,0,0,0-.44-3c.16-1,.31-2,.43-3a63.74,63.74,0,0,0,.5-8.84c-.08-4.06.26-10.62-3.87-13-3.15-1.81-6.76-.18-9,2.33a4.49,4.49,0,0,0-3.55,4.67,30.38,30.38,0,0,0,.56,5.09c0,1.9,0,3.81.06,5.61,0,4.52-1,11,1.39,15.09a7.59,7.59,0,0,0,9.79,3.1,9.09,9.09,0,0,0,3.07-.76C176.43,100,176,96.28,173.93,94.09Z"/><rect class="cls-5" x="96.47" y="97.91" width="28.91" height="13.38" rx="5.66" transform="translate(-12.63 15.27) rotate(-7.45)"/><rect class="cls-5" x="78.28" y="75.79" width="44.15" height="13.38" rx="5.66" transform="translate(-9.85 13.71) rotate(-7.45)"/><path class="cls-6" d="M196,70.13a54.84,54.84,0,0,0-3-9.66l-60.24,7.87a56.08,56.08,0,0,0-.3,10.1c.22,4.2.54,8.42,1.09,12.65.43,3.26,1.06,7.07,2,11.43a76.27,76.27,0,0,0,3.14,10.76L149,111.93l.74,5.66a3.18,3.18,0,0,0,5.67,1.53l6.87-8.93,36.56-4.78a71.18,71.18,0,0,0,.56-11.25c-.24-4.44-.65-8.28-1.08-11.54C197.76,78.39,196.9,74.24,196,70.13Zm-28.2,31.37a4.11,4.11,0,1,1,3.54-4.61A4.13,4.13,0,0,1,167.84,101.5Zm2.1-15.64a4.11,4.11,0,0,1-8.15,1.06l-1.4-10.69a4.11,4.11,0,0,1,8.15-1.06Z"/><rect class="cls-5" x="44.54" y="165.88" width="57.83" height="13.38" rx="5.66" transform="translate(-21.76 10.98) rotate(-7.45)"/><rect class="cls-5" x="55.13" y="141.89" width="44.15" height="13.38" rx="5.66" transform="translate(-18.62 11.27) rotate(-7.45)"/><rect class="cls-5" x="74.11" y="185.43" width="30.92" height="13.38" rx="5.66" transform="translate(-24.16 13.24) rotate(-7.45)"/><path class="cls-6" d="M213.4,132.89a89.63,89.63,0,0,0-5-15.73L110.39,130a92.56,92.56,0,0,0-.49,16.43c.36,6.83.88,13.7,1.78,20.59.69,5.31,1.72,11.51,3.19,18.59A124.19,124.19,0,0,0,120,203.13l16.83-2.2,1.21,9.21a5.18,5.18,0,0,0,9.24,2.49l11.16-14.53L218,190.31c.44-4.9,1.32-11.08.92-18.31s-1.07-13.47-1.77-18.77C216.2,146.33,214.81,139.58,213.4,132.89Z"/><text class="cls-7" transform="matrix(0.99, -0.12, 0.12, 0.99, 122.5, 182.33)"><tspan xml:space="preserve"> +1</tspan></text></g></g></svg>