<?xml version="1.0" encoding="utf-8"?>
<!-- Generator: Adobe Illustrator 19.0.0, SVG Export Plug-In . SVG Version: 6.00 Build 0)  -->
<svg version="1.1" id="Layer_1" xmlns="http://www.w3.org/2000/svg" xmlns:xlink="http://www.w3.org/1999/xlink" x="0px" y="0px"
	 viewBox="116.1 271.1 157.9 72.9" style="enable-background:new 116.1 271.1 157.9 72.9;" xml:space="preserve">
<style type="text/css">
	.st0{fill:#939393;}
	.st1{clip-path:url(#SVGID_2_);fill:#FFFFFF;}
	.st2{clip-path:url(#SVGID_4_);fill:#808080;}
	.st3{clip-path:url(#SVGID_6_);fill:#808080;}
	.st4{clip-path:url(#SVGID_8_);}
	.st5{fill:#EF3954;}
	.st6{fill:#E8E9ED;}
	.st7{fill:#D61E3E;}
	.st8{fill:#9FAABC;}
	.st9{fill:#F05D7B;}
	.st10{clip-path:url(#SVGID_10_);}
	.st11{clip-path:url(#SVGID_12_);fill:#FFFFFF;}
	.st12{clip-path:url(#SVGID_14_);fill:#FFFFFF;}
	.st13{fill:#FDD800;}
	.st14{fill:#2B2C2B;}
</style>
<g id="XMLID_7223_">
	<g id="XMLID_973_">
		<g id="XMLID_974_">
			<path id="XMLID_7204_" class="st0" d="M260.9,344H129.1c-7.2,0-13.1-5.9-13.1-13.1v-46.7c0-7.2,5.9-13.1,13.1-13.1h131.8
				c7.2,0,13.1,5.9,13.1,13.1v46.7C274,338.1,268.1,344,260.9,344z"/>
			<g id="XMLID_975_">
				<g>
					<defs>
						<path id="SVGID_1_" d="M261.4,343.8H128.7c-7,0-12.6-5.6-12.6-12.6V284c0-7,5.6-12.6,12.6-12.6h132.7c7,0,12.6,5.6,12.6,12.6
							v47.2C274,338.1,268.3,343.8,261.4,343.8z"/>
					</defs>
					<clipPath id="SVGID_2_">
						<use xlink:href="#SVGID_1_"  style="overflow:visible;"/>
					</clipPath>
					<path id="XMLID_7203_" class="st1" d="M185.9,282.5c-0.1-0.7-0.2-1.6-0.3-1.6h-6.5v-6.6c-0.5-0.1-1.1-0.3-1.8-0.3
						c-0.7-0.1-1.4-0.1-1.9-0.1c-0.7,0-1.4,0.1-2.1,0.1c-0.7,0.1-1.2,0.2-1.6,0.3v6.6H165c-0.1,0-0.2,0.9-0.3,1.6
						c-0.1,0.7-0.1,1.4-0.1,2.1c0,0.5,0,1.2,0.1,1.9c0.1,0.7,0.2,1.2,0.3,1.7l6.6-0.1v6.8c0.4,0.1,1,0.2,1.6,0.3
						c0.7,0.1,1.4,0.1,2.1,0.1c0.5,0,1.2,0,1.9-0.1c0.7-0.1,1.3-0.2,1.8-0.3v-6.6h6.3c0.1-0.5,0.4-1.1,0.4-1.8
						c0.1-0.7,0.1-1.3,0.1-1.9C185.9,283.9,185.9,283.2,185.9,282.5z"/>
				</g>
				<g>
					<defs>
						<path id="SVGID_3_" d="M261.4,343.8H128.7c-7,0-12.6-5.6-12.6-12.6V284c0-7,5.6-12.6,12.6-12.6h132.7c7,0,12.6,5.6,12.6,12.6
							v47.2C274,338.1,268.3,343.8,261.4,343.8z"/>
					</defs>
					<clipPath id="SVGID_4_">
						<use xlink:href="#SVGID_3_"  style="overflow:visible;"/>
					</clipPath>
					<path id="XMLID_7202_" class="st2" d="M219.9,345.4l11.6-11.5c-0.1-0.1-0.2-0.2-0.3-0.4c-1.5-2.2-1.6-5-1.9-7.5
						c-0.4-3.6-1.4-7-2.9-10.4c-1.6-3.6-3.5-7-5.8-10.1c-2.1-2.9-4.5-5.6-6.4-8.6c-1.1-1.7,0.6-3.2,2.2-3l-1.1-1.1
						c-1.3-0.5-2.7-0.8-4.1-0.8c-0.8,0-1.5,0.1-2.3,0.2c-0.7,0.2-1.5,0.4-2.2,0.7l0,0l0,0c-0.1,0-0.1,0.1-0.2,0.1s-0.1,0.1-0.2,0.1
						l0,0l0,0c-0.1,0-0.1,0.1-0.2,0.1s-0.1,0.1-0.2,0.1c0,0,0,0-0.1,0c0,0,0,0-0.1,0s-0.1,0.1-0.2,0.1s-0.1,0.1-0.1,0.1s0,0-0.1,0
						c0,0,0,0-0.1,0l-0.1,0.1l-0.1,0.1l0,0l0,0c0,0,0,0-0.1,0c0,0,0,0-0.1,0l-0.1,0.1l-0.1,0.1l-0.1,0.1l-0.1,0.1l-0.1,0.1l-0.1,0.1
						l-0.1,0.1l-0.1,0.1c0,0-0.1,0-0.1,0.1c0,0-0.1,0-0.1,0.1c-0.1,0.1-0.1,0.1-0.2,0.2c-0.1,0.1-0.1,0.1-0.2,0.2s-0.2,0.2-0.2,0.3
						c0,0.1-0.2,0.2-0.2,0.3l-4.8,4.8l-45,44.9H219.9L219.9,345.4z"/>
				</g>
				<g>
					<defs>
						<path id="SVGID_5_" d="M261.4,343.8H128.7c-7,0-12.6-5.6-12.6-12.6V284c0-7,5.6-12.6,12.6-12.6h132.7c7,0,12.6,5.6,12.6,12.6
							v47.2C274,338.1,268.3,343.8,261.4,343.8z"/>
					</defs>
					<clipPath id="SVGID_6_">
						<use xlink:href="#SVGID_5_"  style="overflow:visible;"/>
					</clipPath>
					<path id="XMLID_7201_" class="st3" d="M182.1,327.2c-1.1-1.7-1.8-3.6-2.2-5.5c-0.4-2-0.5-4-0.7-6c-0.2-1.6-0.4-3.2-0.8-4.8
						c-0.3-1.6-0.7-3.1-1.2-4.6c-0.1-0.1-0.2-0.2-0.4-0.3c-0.1-0.1-0.2-0.2-0.4-0.3c-0.2,0-0.4-0.1-0.6-0.1s-0.4-0.2-0.6-0.3
						c-3.1-2.5-6.3-4.9-9.4-7.3c-3.1-2.4-6.1-5.1-8.7-8c-2-0.9-3.9-1.9-5.6-3.1c-1.7-1.3-3.3-2.7-4.5-4.6c-0.1-0.2-0.2-0.4-0.2-0.6
						c0-0.2-0.1-0.4,0-0.6c-1.6-0.2-3.1-0.5-4.6-1s-2.9-1.2-4.1-2.1c-0.2-0.1-0.3-0.2-0.4-0.4c-0.1-0.1-0.2-0.3-0.3-0.4
						c-0.3,0-0.5-0.1-0.8-0.1s-0.5-0.1-0.7-0.2c-0.7,0.5-1.3,0.9-1.9,1.3c-0.6,0.3-1.2,0.5-1.7,0.6c-0.4,0.1-0.8,0-1.2-0.1
						c-0.3-0.1-0.6-0.4-0.9-0.6l-7.9,7.9l-7.9,7.9v22v22c0,2.1,0.9,4,2.2,5.4c1.4,1.4,3.3,2.2,5.4,2.2h21.4h21.4l8.9-8.8l8.9-8.8
						c-0.1-0.1-0.2-0.2-0.3-0.3S182.1,327.4,182.1,327.2z"/>
				</g>
				<g>
					<defs>
						<path id="SVGID_7_" d="M261.4,343.8H128.7c-7,0-12.6-5.6-12.6-12.6V284c0-7,5.6-12.6,12.6-12.6h132.7c7,0,12.6,5.6,12.6,12.6
							v47.2C274,338.1,268.3,343.8,261.4,343.8z"/>
					</defs>
					<clipPath id="SVGID_8_">
						<use xlink:href="#SVGID_7_"  style="overflow:visible;"/>
					</clipPath>
					<g id="XMLID_1956_" class="st4">
						<path id="XMLID_7196_" class="st5" d="M128.9,300.7l7.7,7.7l7.7,7.7l11-11l11-11l-7.7-7.7l-7.7-7.7c-3-3-7-4.6-11-4.6
							s-8,1.5-11,4.6l0,0l0,0c-3,3-4.6,7-4.6,11S125.9,297.7,128.9,300.7z"/>
						<path id="XMLID_2489_" class="st6" d="M159.7,331.5c3,3,7,4.6,11,4.6s8-1.5,11-4.6l0,0l0,0c3-3,4.6-7,4.6-11s-1.5-8-4.6-11
							l-7.7-7.7l-7.7-7.7l-11,11l-11,11l7.7,7.7L159.7,331.5z"/>
						<path id="XMLID_2481_" class="st7" d="M128.9,300.7l7.7,7.7l7.7,7.7l0,0l0,0l3.9-3.9l3.9-3.9l0,0l0,0l-7.7-7.7l-7.7-7.7
							c-2.4-2.4-3.8-5.3-4.3-8.3s-0.1-6.2,1.1-9.1c-0.8,0.4-1.6,0.8-2.4,1.4c-0.8,0.5-1.5,1.1-2.2,1.8c-3,3-4.6,7-4.6,11
							C124.4,293.7,125.9,297.7,128.9,300.7z"/>
						<path id="XMLID_2228_" class="st8" d="M159.7,331.5c3,3,7,4.6,11,4.6s8-1.5,11-4.6c0.7-0.7,1.3-1.4,1.8-2.2s1-1.6,1.4-2.4
							c-2.9,1.3-6,1.7-9.1,1.1s-6-2-8.3-4.3l-7.7-7.7l-7.7-7.7l-3.9,3.9l-3.9,3.9l7.7,7.7L159.7,331.5z"/>
						<path id="XMLID_2221_" class="st9" d="M146.5,280.6l5.2,5.2l5.2,5.2c0.5,0.5,0.8,1.2,0.8,1.9s-0.3,1.4-0.8,1.9l0,0l0,0
							c-0.5,0.5-1.2,0.8-1.9,0.8s-1.4-0.3-1.9-0.8l-5.2-5.2l-5.2-5.2c-0.5-0.5-0.8-1.2-0.8-1.9c0-0.7,0.3-1.4,0.8-1.9l0,0l0,0
							c0.5-0.5,1.2-0.8,1.9-0.8S146,280,146.5,280.6z"/>
					</g>
				</g>
				<g>
					<defs>
						<path id="SVGID_9_" d="M261.4,343.8H128.7c-7,0-12.6-5.6-12.6-12.6V284c0-7,5.6-12.6,12.6-12.6h132.7c7,0,12.6,5.6,12.6,12.6
							v47.2C274,338.1,268.3,343.8,261.4,343.8z"/>
					</defs>
					<clipPath id="SVGID_10_">
						<use xlink:href="#SVGID_9_"  style="overflow:visible;"/>
					</clipPath>
					<g id="XMLID_1193_" class="st10">
						<path id="XMLID_1955_" class="st5" d="M202,306.6l3.1,6.5l3.1,6.5l9.2-4.4l9.2-4.4l-3.1-6.5l-3.1-6.5
							c-1.2-2.6-3.4-4.4-5.8-5.2c-2.4-0.8-5.3-0.8-7.8,0.4l0,0l0,0c-2.6,1.2-4.4,3.4-5.2,5.8C200.7,301.3,200.7,304.1,202,306.6z"/>
						<path id="XMLID_1329_" class="st6" d="M214.4,332.5c1.2,2.6,3.4,4.4,5.8,5.2s5.3,0.8,7.8-0.4l0,0l0,0c2.6-1.2,4.4-3.4,5.2-5.8
							c0.8-2.4,0.8-5.3-0.4-7.8l-3.1-6.5l-3.1-6.5l-9.2,4.4l-9.2,4.4l3.1,6.5L214.4,332.5z"/>
						<path id="XMLID_1325_" class="st7" d="M202,306.6l3.1,6.5l3.1,6.5l0,0l0,0l3.3-1.6l3.3-1.6l0,0l0,0l-3.1-6.5l-3.1-6.5
							c-0.9-2-1.2-4.1-0.9-6.1c0.3-2,1.3-3.9,2.7-5.4c-0.6,0.1-1.2,0.2-1.8,0.3c-0.6,0.2-1.2,0.4-1.8,0.7c-2.6,1.2-4.4,3.4-5.2,5.8
							C200.7,301.3,200.7,304.1,202,306.6z"/>
						<path id="XMLID_1265_" class="st8" d="M214.4,332.5c1.2,2.6,3.4,4.4,5.8,5.2s5.3,0.8,7.8-0.4c0.6-0.3,1.1-0.6,1.6-1
							s1-0.8,1.4-1.2c-2.1,0.2-4.1-0.3-5.9-1.3s-3.3-2.5-4.2-4.5l-3.1-6.5l-3.1-6.5l-3.3,1.6l-3.3,1.6l3.1,6.5L214.4,332.5z"/>
						<path id="XMLID_1237_" class="st9" d="M217.3,297.9l2.1,4.4l2.1,4.4c0.2,0.4,0.2,0.9,0.1,1.4c-0.2,0.4-0.5,0.8-0.9,1l0,0l0,0
							c-0.4,0.2-0.9,0.2-1.4,0.1c-0.4-0.2-0.8-0.5-1-0.9l-2.1-4.4l-2.1-4.4c-0.2-0.4-0.2-0.9-0.1-1.4c0.2-0.4,0.5-0.8,0.9-1l0,0l0,0
							c0.4-0.2,0.9-0.2,1.4-0.1C216.8,297.1,217.1,297.5,217.3,297.9z"/>
					</g>
				</g>
				<g>
					<defs>
						<path id="SVGID_11_" d="M261.4,343.8H128.7c-7,0-12.6-5.6-12.6-12.6V284c0-7,5.6-12.6,12.6-12.6h132.7c7,0,12.6,5.6,12.6,12.6
							v47.2C274,338.1,268.3,343.8,261.4,343.8z"/>
					</defs>
					<clipPath id="SVGID_12_">
						<use xlink:href="#SVGID_11_"  style="overflow:visible;"/>
					</clipPath>
					<path id="XMLID_1014_" class="st11" d="M204.5,306.9c0-0.5-0.1-1.1-0.2-1.1H200v-4.4c-0.3-0.1-0.7-0.2-1.2-0.2s-0.9,0-1.3,0
						c-0.5,0-0.9,0-1.4,0.1c-0.5,0-0.8,0.1-1.1,0.2v4.4h-4.4c-0.1,0-0.1,0.6-0.2,1.1c0,0.5-0.1,0.9-0.1,1.4c0,0.4,0,0.8,0.1,1.3
						c0,0.5,0.1,0.8,0.2,1.1h4.4v4.5c0.3,0.1,0.6,0.1,1.1,0.2c0.5,0,0.9,0.1,1.4,0.1c0.4,0,0.8,0,1.3-0.1c0.5,0,0.9-0.1,1.2-0.2
						v-4.4h4.2c0.1-0.3,0.2-0.7,0.3-1.2c0-0.5,0.1-0.9,0.1-1.3C204.6,307.8,204.6,307.4,204.5,306.9z"/>
				</g>
				<g>
					<defs>
						<path id="SVGID_13_" d="M261.4,343.8H128.7c-7,0-12.6-5.6-12.6-12.6V284c0-7,5.6-12.6,12.6-12.6h132.7c7,0,12.6,5.6,12.6,12.6
							v47.2C274,338.1,268.3,343.8,261.4,343.8z"/>
					</defs>
					<clipPath id="SVGID_14_">
						<use xlink:href="#SVGID_13_"  style="overflow:visible;"/>
					</clipPath>
					<path id="XMLID_1013_" class="st12" d="M222.6,278.8c0-0.3-0.1-0.7-0.1-0.7h-2.9v-3c-0.2,0-0.5-0.1-0.8-0.2c-0.3,0-0.6,0-0.9,0
						s-0.6,0-0.9,0s-0.6,0.1-0.7,0.1v3h-3c0,0-0.1,0.4-0.1,0.7c0,0.3,0,0.6,0,0.9c0,0.2,0,0.5,0,0.9c0,0.3,0.1,0.6,0.1,0.8h3v3.1
						c0.2,0,0.4,0.1,0.7,0.1c0.3,0,0.6,0,0.9,0c0.2,0,0.5,0,0.9,0c0.3,0,0.6-0.1,0.8-0.1v-3h2.9c0-0.2,0.2-0.5,0.2-0.8
						c0-0.3,0.1-0.6,0.1-0.9C222.6,279.5,222.6,279.1,222.6,278.8z"/>
				</g>
			</g>
		</g>
	</g>
	<path id="XMLID_7277_" class="st13" d="M196.5,271.1H274v15.8h-77.5c-4.3,0-7.9-3.5-7.9-7.9l0,0
		C188.6,274.7,192.1,271.1,196.5,271.1z"/>
	<g id="XMLID_42_">
		<g id="XMLID_312_">
			<path id="XMLID_341_" class="st14" d="M199.2,284.1V277h1c0.1,0,0.2,0,0.3,0.1s0.1,0.1,0.1,0.2l0.1,0.4c0.1-0.1,0.2-0.2,0.3-0.3
				c0.1-0.1,0.2-0.2,0.4-0.2s0.3-0.1,0.4-0.2c0.2,0,0.3-0.1,0.5-0.1c0.3,0,0.5,0.1,0.8,0.2s0.4,0.3,0.6,0.5s0.3,0.5,0.4,0.9
				c0.1,0.3,0.1,0.7,0.1,1.2c0,0.4-0.1,0.8-0.2,1.1c-0.1,0.3-0.3,0.6-0.5,0.9c-0.2,0.3-0.4,0.5-0.7,0.6c-0.3,0.1-0.6,0.2-0.9,0.2
				s-0.5,0-0.7-0.1c-0.2-0.1-0.4-0.2-0.5-0.3v2.1L199.2,284.1L199.2,284.1z M201.8,278.1c-0.1,0-0.2,0-0.3,0c-0.1,0-0.2,0.1-0.3,0.1
				c-0.1,0-0.2,0.1-0.2,0.2c-0.1,0.1-0.1,0.1-0.2,0.2v2.3c0.1,0.1,0.3,0.2,0.4,0.3s0.3,0.1,0.4,0.1s0.3,0,0.4-0.1s0.2-0.2,0.3-0.3
				s0.2-0.3,0.2-0.5c0.1-0.2,0.1-0.5,0.1-0.8c0-0.3,0-0.5-0.1-0.7c0-0.2-0.1-0.4-0.2-0.5c-0.1-0.1-0.2-0.2-0.3-0.3
				C202,278.1,201.9,278.1,201.8,278.1z"/>
			<path id="XMLID_339_" class="st14" d="M205.2,282.4V277h1c0.1,0,0.1,0,0.2,0s0.1,0,0.1,0.1l0.1,0.1c0,0,0,0.1,0,0.2l0.1,0.5
				c0.2-0.3,0.4-0.5,0.7-0.7c0.3-0.2,0.5-0.3,0.8-0.3c0.2,0,0.4,0.1,0.6,0.2l-0.2,1.2c0,0.1,0,0.1-0.1,0.2c0,0-0.1,0-0.2,0
				s-0.1,0-0.2,0s-0.2,0-0.3,0c-0.4,0-0.8,0.2-1,0.7v3.3h-1.6V282.4z"/>
			<path id="XMLID_335_" class="st14" d="M211.9,276.9c0.4,0,0.8,0.1,1.1,0.2c0.3,0.1,0.6,0.3,0.9,0.6c0.2,0.2,0.4,0.5,0.6,0.9
				c0.1,0.3,0.2,0.7,0.2,1.2c0,0.4-0.1,0.8-0.2,1.2c-0.1,0.3-0.3,0.6-0.6,0.9c-0.2,0.2-0.5,0.4-0.9,0.6s-0.7,0.2-1.1,0.2
				s-0.8-0.1-1.1-0.2s-0.6-0.3-0.9-0.6c-0.2-0.2-0.4-0.5-0.6-0.9c-0.1-0.3-0.2-0.7-0.2-1.2c0-0.4,0.1-0.8,0.2-1.2
				c0.1-0.3,0.3-0.6,0.6-0.9c0.3-0.3,0.5-0.4,0.9-0.6C211.1,277,211.5,276.9,211.9,276.9z M211.9,281.3c0.4,0,0.6-0.1,0.8-0.4
				c0.2-0.3,0.3-0.7,0.3-1.2s-0.1-0.9-0.3-1.2c-0.2-0.3-0.4-0.4-0.8-0.4s-0.7,0.1-0.8,0.4c-0.1,0.3-0.3,0.7-0.3,1.2s0.1,0.9,0.3,1.2
				C211.3,281.2,211.5,281.3,211.9,281.3z M213.9,274.7l-1.4,1.4c-0.1,0.1-0.2,0.1-0.2,0.2c-0.1,0-0.2,0-0.3,0h-1l0.7-1.3
				c0.1-0.1,0.1-0.2,0.2-0.2c0.1-0.1,0.2-0.1,0.4-0.1H213.9z"/>
			<path id="XMLID_333_" class="st14" d="M216.5,279.6l-1.7-2.6h1.5c0.1,0,0.2,0,0.3,0s0.1,0.1,0.1,0.1l1,1.6c0-0.1,0-0.1,0.1-0.2
				c0-0.1,0.1-0.1,0.1-0.2l0.7-1.2c0-0.1,0.1-0.1,0.2-0.2c0.1,0,0.1,0,0.2,0h1.5l-1.7,2.5l1.8,2.9h-1.5c-0.1,0-0.2,0-0.3-0.1
				c-0.1-0.1-0.1-0.1-0.2-0.2l-1-1.7c0,0.1,0,0.1-0.1,0.2c-0.1,0.1-0.1,0.1-0.1,0.1l-0.8,1.3c0,0.1-0.1,0.1-0.2,0.2
				c-0.1,0.1-0.2,0.1-0.3,0.1h-1.4L216.5,279.6z"/>
			<path id="XMLID_330_" class="st14" d="M223,275.5c0,0.1,0,0.2-0.1,0.4c-0.1,0.2-0.1,0.2-0.2,0.3s-0.2,0.2-0.3,0.2
				c-0.1,0-0.2,0.1-0.4,0.1c-0.1,0-0.3,0-0.4-0.1c-0.1-0.1-0.2-0.1-0.3-0.2c-0.1-0.1-0.2-0.2-0.2-0.3c0-0.1-0.1-0.2-0.1-0.4
				c0-0.1,0-0.3,0.1-0.4s0.1-0.2,0.2-0.3c0.1-0.1,0.2-0.2,0.3-0.2c0.1,0,0.2-0.1,0.4-0.1c0.1,0,0.3,0,0.4,0.1c0.1,0,0.2,0.1,0.3,0.2
				c0.1,0.1,0.2,0.2,0.2,0.3S223,275.4,223,275.5z M222.8,277v5.4h-1.6V277H222.8z"/>
			<path id="XMLID_328_" class="st14" d="M224.1,282.4V277h1c0.1,0,0.2,0,0.3,0.1s0.1,0.1,0.1,0.2l0.1,0.3c0.1-0.1,0.2-0.2,0.3-0.3
				c0.1-0.1,0.2-0.1,0.3-0.2c0.1-0.1,0.2-0.1,0.4-0.1s0.3,0,0.4,0c0.3,0,0.6,0.1,0.8,0.3s0.4,0.4,0.5,0.7c0.1-0.2,0.2-0.3,0.3-0.4
				c0.1-0.1,0.3-0.2,0.4-0.3c0.2-0.1,0.3-0.1,0.5-0.2c0.2,0,0.3-0.1,0.5-0.1c0.3,0,0.6,0,0.8,0.1c0.2,0.1,0.4,0.2,0.6,0.4
				c0.2,0.2,0.3,0.4,0.4,0.6c0.1,0.3,0.1,0.5,0.1,0.9v3.4h-1.6V279c0-0.6-0.2-0.8-0.7-0.8c-0.2,0-0.4,0.1-0.5,0.2
				c-0.1,0.1-0.2,0.4-0.2,0.6v3.4h-1.6V279c0-0.3-0.1-0.5-0.2-0.7c-0.1-0.1-0.3-0.2-0.5-0.2c-0.1,0-0.3,0-0.4,0.1s-0.3,0.2-0.4,0.3
				v3.9H224.1z"/>
			<path id="XMLID_325_" class="st14" d="M236.8,282.4c-0.2,0-0.3,0-0.3-0.1c-0.1,0-0.1-0.1-0.2-0.3l-0.1-0.3
				c-0.1,0.1-0.3,0.2-0.4,0.3s-0.3,0.2-0.4,0.2c-0.1,0.1-0.3,0.1-0.4,0.1c-0.2,0-0.3,0-0.5,0s-0.5,0-0.7-0.1s-0.4-0.2-0.5-0.3
				s-0.2-0.3-0.3-0.5c-0.1-0.2-0.1-0.4-0.1-0.6c0-0.2,0-0.4,0.1-0.6c0.1-0.2,0.3-0.4,0.5-0.5s0.6-0.3,1-0.4c0.4-0.1,0.9-0.2,1.5-0.2
				v-0.2c0-0.3-0.1-0.5-0.2-0.7s-0.3-0.2-0.6-0.2c-0.2,0-0.3,0-0.5,0.1c-0.1,0-0.2,0.1-0.3,0.1c-0.1,0.1-0.2,0.1-0.3,0.1
				c-0.1,0-0.2,0.1-0.3,0.1c-0.1,0-0.2,0-0.3-0.1c-0.1-0.1-0.1-0.1-0.2-0.2l-0.3-0.5c0.3-0.3,0.7-0.5,1.1-0.6
				c0.4-0.1,0.8-0.2,1.3-0.2c0.3,0,0.6,0.1,0.9,0.2c0.3,0.1,0.5,0.3,0.7,0.4c0.2,0.2,0.3,0.4,0.4,0.7c0.1,0.3,0.1,0.5,0.1,0.9v3.4
				C237.5,282.4,236.8,282.4,236.8,282.4z M234.9,281.4c0.2,0,0.4,0,0.5-0.1c0.2-0.1,0.3-0.2,0.5-0.4v-0.7c-0.3,0-0.6,0-0.8,0.1
				c-0.2,0-0.4,0.1-0.5,0.2s-0.2,0.1-0.3,0.2c0,0.1-0.1,0.2-0.1,0.3c0,0.2,0,0.3,0.2,0.4C234.6,281.5,234.7,281.4,234.9,281.4z"/>
			<path id="XMLID_323_" class="st14" d="M238.7,282.4V277h1c0.1,0,0.2,0,0.3,0.1s0.1,0.1,0.1,0.2l0.1,0.3c0.1-0.1,0.2-0.2,0.3-0.3
				c0.1-0.1,0.2-0.1,0.3-0.2c0.1-0.1,0.2-0.1,0.4-0.1s0.3,0,0.4,0c0.3,0,0.6,0.1,0.8,0.3c0.2,0.2,0.4,0.4,0.5,0.7
				c0.1-0.2,0.2-0.3,0.3-0.4c0.1-0.1,0.3-0.2,0.4-0.3c0.2-0.1,0.3-0.1,0.5-0.2c0.2,0,0.3-0.1,0.5-0.1c0.3,0,0.6,0,0.8,0.1
				s0.4,0.2,0.6,0.4c0.2,0.2,0.3,0.4,0.4,0.6c0.1,0.3,0.1,0.5,0.1,0.9v3.4h-1.6V279c0-0.6-0.2-0.8-0.7-0.8c-0.2,0-0.4,0.1-0.5,0.2
				c-0.1,0.1-0.2,0.4-0.2,0.6v3.4h-1.6V279c0-0.3-0.1-0.5-0.2-0.7c-0.1-0.1-0.3-0.2-0.5-0.2c-0.1,0-0.3,0-0.4,0.1s-0.3,0.2-0.4,0.3
				v3.9H238.7z"/>
			<path id="XMLID_320_" class="st14" d="M249.9,276.9c0.4,0,0.7,0.1,1,0.2s0.6,0.3,0.8,0.5c0.2,0.2,0.4,0.5,0.5,0.8
				c0.1,0.3,0.2,0.7,0.2,1c0,0.1,0,0.2,0,0.3s0,0.1-0.1,0.2l-0.1,0.1c0,0-0.1,0-0.2,0h-3.1c0.1,0.5,0.2,0.8,0.4,1
				c0.2,0.2,0.5,0.3,0.9,0.3c0.2,0,0.3,0,0.5-0.1c0.1,0,0.3-0.1,0.4-0.2c0.1-0.1,0.2-0.1,0.3-0.2c0.1,0,0.2-0.1,0.3-0.1
				c0.1,0,0.2,0,0.3,0.1l0.5,0.6c-0.2,0.2-0.3,0.3-0.5,0.5c-0.2,0.1-0.4,0.2-0.6,0.3s-0.4,0.1-0.6,0.1s-0.4,0-0.6,0
				c-0.4,0-0.7-0.1-1.1-0.2c-0.3-0.1-0.6-0.3-0.9-0.5c-0.2-0.2-0.4-0.5-0.6-0.9s-0.2-0.8-0.2-1.3c0-0.4,0.1-0.7,0.2-1
				c0.1-0.3,0.3-0.6,0.5-0.8c0.2-0.2,0.5-0.4,0.8-0.6C249.1,277,249.5,276.9,249.9,276.9z M250,278c-0.3,0-0.5,0.1-0.7,0.3
				c-0.2,0.2-0.3,0.4-0.3,0.8h2c0-0.1,0-0.3,0-0.4s-0.1-0.2-0.2-0.3c-0.1-0.1-0.2-0.2-0.3-0.2C250.3,278,250.1,278,250,278z"/>
			<path id="XMLID_318_" class="st14" d="M253.3,282.4V277h1c0.1,0,0.2,0,0.3,0.1s0.1,0.1,0.1,0.2l0.1,0.3c0.1-0.1,0.2-0.2,0.3-0.3
				c0.1-0.1,0.2-0.2,0.4-0.2c0.1-0.1,0.3-0.1,0.4-0.1s0.3,0,0.5,0c0.3,0,0.6,0.1,0.8,0.2c0.2,0.1,0.4,0.2,0.6,0.4s0.3,0.4,0.4,0.6
				c0.1,0.3,0.1,0.5,0.1,0.8v3.4h-1.6V279c0-0.3-0.1-0.5-0.2-0.6c-0.1-0.1-0.3-0.2-0.5-0.2s-0.3,0-0.5,0.1c-0.2,0.1-0.3,0.2-0.4,0.3
				v3.8C255.1,282.4,253.3,282.4,253.3,282.4z"/>
			<path id="XMLID_316_" class="st14" d="M261.2,282.5c-0.3,0-0.5,0-0.7-0.1c-0.2-0.1-0.4-0.2-0.5-0.3s-0.2-0.3-0.3-0.5
				c-0.1-0.2-0.1-0.4-0.1-0.6v-2.8h-0.5c-0.1,0-0.2,0-0.2-0.1c-0.1-0.1-0.1-0.1-0.1-0.2v-0.6l0.9-0.2l0.3-1.3c0-0.2,0.2-0.3,0.4-0.3
				h0.8v1.6h1.3v1.1h-1.3v2.7c0,0.1,0,0.2,0.1,0.3s0.1,0.1,0.3,0.1c0.1,0,0.1,0,0.1,0h0.1h0.1h0.1h0.1l0.1,0.1l0.5,0.8
				c-0.2,0.2-0.4,0.3-0.7,0.4S261.5,282.5,261.2,282.5z"/>
			<path id="XMLID_313_" class="st14" d="M265.8,276.9c0.4,0,0.7,0.1,1,0.2s0.6,0.3,0.8,0.5c0.2,0.2,0.4,0.5,0.5,0.8
				c0.1,0.3,0.2,0.7,0.2,1c0,0.1,0,0.2,0,0.3s0,0.1-0.1,0.2c-0.1,0.1-0.1,0.1-0.1,0.1s-0.1,0-0.2,0h-3.1c0.1,0.5,0.2,0.8,0.4,1
				c0.2,0.2,0.5,0.3,0.9,0.3c0.2,0,0.3,0,0.5-0.1c0.1,0,0.3-0.1,0.4-0.2c0.1-0.1,0.2-0.1,0.3-0.2c0.1,0,0.2-0.1,0.3-0.1
				c0.1,0,0.2,0,0.3,0.1l0.5,0.6c-0.2,0.2-0.3,0.3-0.5,0.5c-0.2,0.1-0.4,0.2-0.6,0.3s-0.4,0.1-0.6,0.1s-0.4,0-0.6,0
				c-0.4,0-0.7-0.1-1.1-0.2c-0.4-0.1-0.6-0.3-0.9-0.5c-0.2-0.2-0.4-0.5-0.6-0.9c-0.1-0.4-0.2-0.8-0.2-1.3c0-0.4,0.1-0.7,0.2-1
				c0.1-0.3,0.3-0.6,0.5-0.8c0.2-0.2,0.5-0.4,0.8-0.6C265,277,265.4,276.9,265.8,276.9z M265.8,278c-0.3,0-0.5,0.1-0.7,0.3
				c-0.2,0.2-0.3,0.4-0.3,0.8h2c0-0.1,0-0.3,0-0.4s-0.1-0.2-0.2-0.3c-0.1-0.1-0.2-0.2-0.3-0.2C266.1,278,266,278,265.8,278z"/>
		</g>
	</g>
</g>
</svg>
