<?xml version="1.0" encoding="utf-8"?>
<!-- Generator: Adobe Illustrator 24.1.3, SVG Export Plug-In . SVG Version: 6.00 Build 0)  -->
<svg version="1.1" id="Layer_1" xmlns="http://www.w3.org/2000/svg" xmlns:xlink="http://www.w3.org/1999/xlink" x="0px" y="0px"
	 viewBox="0 0 613 121" style="enable-background:new 0 0 613 121;" xml:space="preserve">
<style type="text/css">
	.st0{fill:#48AC28;}
	.st1{fill:none;}
	.st2{fill:#36323A;}
	.st3{fill:#FFFFFF;}
	.st4{fill:url(#XMLID_2_);}
</style>
<g>
	<circle class="st0" cx="62.08" cy="61.07" r="56.7"/>
	<g>
		<path class="st1" d="M116.11,50.55c0.41-0.69,0.83-1.36,1.26-2.03c-0.38-1.66-0.82-3.29-1.33-4.89c-0.72,0.53-1.42,1.09-2.1,1.67
			C114.88,46.95,115.61,48.72,116.11,50.55z"/>
		<path class="st1" d="M38.51,46.1c1.12,1.16,2.09,2.58,3.38,3.56c0.84,0.64,2.42,1.14,3.06-0.03c0.03-0.05,0.06-0.1,0.1-0.14
			c0.11-1.34-1.39-2.55-2.37-3.45c-2.61-2.41-5.44-4.57-8.42-6.48c0,0.01-0.01,0.03-0.01,0.04c-3.97-2.2-8.84-3.16-12.83-1.66
			c-1.28,0.64-2.47,1.46-3.54,2.4c-2.1,1.84-3.85,4.08-5.23,6.5c-0.75,1.32-1.37,2.72-1.62,4.23c-0.06,0.35-0.31,1.63,0.05,1.9
			c0.43,0.33,0.85-0.62,0.98-0.93c0.54-1.26,1-2.5,1.71-3.68c0.47-0.78,0.99-1.52,1.57-2.23c0.53-0.89,1.13-1.74,1.81-2.53
			c1.01-1.17,2.4-2.61,3.97-3.17c0-0.02,0-0.03,0-0.05c3.73-2.04,8.66-1.04,12.53,1.25c-0.01,0.04-0.02,0.07-0.03,0.11
			C35.46,42.89,37.09,44.63,38.51,46.1z"/>
		<path class="st1" d="M51.22,79.25c-0.33,0.07-0.67,0.14-1,0.19c-2.2,0.39-4.44,0.51-6.66,0.39c1.63,0.47,3.23,1.04,4.79,1.7
			c2.08,0.87,4.16,1.81,6.14,2.89c0.25,0.14,0.5,0.29,0.74,0.44c0.13-0.25,0.26-0.5,0.38-0.75c1.11-2.35,1.95-4.85,2.31-7.42
			c-1.94,1.24-4.21,2.02-6.47,2.51C51.38,79.22,51.31,79.24,51.22,79.25z"/>
		<path class="st1" d="M21.23,43.56c-1.6,1.02-3.02,2.29-4.22,3.76c-0.02,0.04-0.04,0.07-0.06,0.11c0.7,0.57,1.4,1.14,2.08,1.72
			c0.41,0.35,0.82,0.7,1.23,1.06c0.2,0.18,0.58,0.7,0.87,0.72c0.23,0.02,0.82-0.7,1.12-1.1c-0.37-1.46-0.65-2.94-0.84-4.43
			C21.33,44.79,21.28,44.18,21.23,43.56z"/>
		<path class="st1" d="M40,17.47c1.07,2.51,2.23,4.98,3.47,7.41c1.36,2.65,2.81,5.24,4.36,7.78c0.76,1.25,1.55,2.48,2.35,3.7
			c0.71,1.07,1.74,2.14,1.15,3.5c-0.26,0.61-0.76,1.08-1.15,1.61c-0.37,0.51-0.71,1.04-1.02,1.59c-0.61,1.11-1.07,2.29-1.38,3.52
			c-0.55,2.17-0.59,4.42-0.13,6.6l0.29,0.6c0.04,0.06,0.06,0.13,0.08,0.19c1.02,0.95,2.41,1.61,3.67,2
			c2.32,0.73,4.75,0.47,6.26-1.59c1.73-2.35,1.95-5.62,2.43-8.18c0.44-2.37,0.48-4.78,0.55-7.19c0.04-1.49,2.54-1.33,1.98,0.51
			c-0.73,2.38-0.83,4.86-0.18,7.26c0.65,2.39,0.16,5.09,0.47,7.65c0.13,1.06,0.46,2.27,1.52,2.73c2.32,1.03,5.42-0.81,7.15-2.25
			c3.08-2.56,5.18-6.05,7.93-8.9c5.47-6.84,13.26-11.77,21.85-13.65c0.17-0.04,0.36-0.03,0.55,0.02c0.28,0.02,0.56,0.1,0.81,0.23
			c0.63,0.11,1.21,0.5,1.46,1.15c0.33,0.85,0.01,1.86-0.72,2.38c3.25,1.44,6.16,3.63,8.39,6.45c0.24,0.31,0.48,0.63,0.7,0.95
			c0.82-0.69,1.66-1.33,2.52-1.95c-7.94-21.73-28.8-37.24-53.27-37.24c-7.59,0-14.83,1.5-21.45,4.21c-0.25,1.12-0.44,2.26-0.54,3.41
			C39.91,13.81,39.91,15.64,40,17.47z"/>
		<path class="st1" d="M61.89,66.6c-0.17-0.8-0.6-1.57-1.11-2.12c-1.5-1.63-3.69-2.6-5.58-3.68c-2.23-1.27-4.44-2.57-6.69-3.81
			c-2.39-1.32-5.54-2.69-8.36-2.37c-0.15,0.1-0.3,0.2-0.45,0.3c-0.01,0.02-0.01,0.02-0.01,0.03c0,0.02-0.01,0.03-0.01,0.04
			c-0.02,0.06-0.03,0.12-0.04,0.18c0,0,0,0,0,0c0,0,0,0,0,0c0,0.1-0.01,0.19-0.01,0.29c0,0.08,0.01,0.16,0.01,0.24
			c0,0.02,0,0.02,0,0.02c0,0.01,0,0.03,0.01,0.04c0.02,0.11,0.06,0.21,0.08,0.32c0.09,0.08,0.16,0.18,0.24,0.27
			c3.89,2.07,7.75,4.29,11.28,6.91c1,0.74,1.98,1.52,2.92,2.34c0.96,0.83,1.83,1.77,2.84,2.54c0.96,0.74,2.22,1.41,3.48,1.12
			c0.89-0.2,1.63-1.06,1.36-1.99C61.78,67.02,61.81,66.79,61.89,66.6z"/>
		<path class="st1" d="M11.98,43.98c2.35-3.5,5.53-6.63,9.37-8.27c0.31-3.03,0.88-6.04,1.65-8.98c0.86-3.28,1.86-6.85,3.6-9.89
			C18.52,23.34,12.25,32,8.69,41.95c1.09,0.6,2.16,1.24,3.19,1.95C11.92,43.92,11.95,43.95,11.98,43.98z"/>
		<path class="st1" d="M116.84,58.19c-0.1,1.26-0.15,2.94-0.91,4c-0.71,0.98-2,1.13-3.04,0.61c-0.31-0.16-0.57-0.36-0.79-0.59
			c-3.13,6.09-6.26,12.17-9.39,18.26c-0.08,0.15-0.17,0.26-0.28,0.34c-0.63,0.99-1.59,1.59-2.67,2.15
			c-1.51,0.79-3.03,1.55-4.57,2.29c-2.84,1.36-5.72,2.63-8.64,3.82c-0.12,0.35-0.43,0.61-0.93,0.57c-0.73-0.07-1.25-0.51-1.28-1.28
			c-0.03-0.74,0.46-1.34,0.81-1.95c0.85-1.47,1.58-3,2.06-4.63c0.48-1.61,0.7-3.27,0.57-4.94c-0.06-0.81-0.23-1.61-0.47-2.38
			c-0.13-0.41-0.29-0.81-0.48-1.2c-0.04-0.07-0.18-0.28-0.27-0.47c-1.67,1.08-3.61,1.82-5.56,2.22c-0.23,0.05-0.46,0.09-0.69,0.13
			c-0.49,0.13-0.98,0.24-1.47,0.34c-2.85,0.56-5.91,0.95-8.82,0.9c-0.52-0.01-0.96-0.1-1.37-0.23c-0.02,0.15-0.04,0.29-0.07,0.44
			c1.77,1.02,3.73,1.58,5.81,1.62c2.76,0.05,5.49-0.54,8.25-0.54c1.14,0,1.43,1.8,0.27,2.02c-0.68,0.13-1.38,0.27-2.08,0.42
			c-0.13,0.07-0.29,0.11-0.47,0.11c-0.01,0-0.02,0-0.03,0c-2.67,0.59-5.35,1.4-7.48,3.11c-0.66,0.53-1.37,1.28-2.28,0.77
			c-0.66-0.37-0.88-1.42-1.23-2.04c-0.55-1-1.24-1.9-2.01-2.72c-0.6,0.85-1.76,2.03-2.83,3.09c-0.56,0.55-1.51,0.06-1.36-0.72
			l0.42-2.33c0.18-0.71,0.04-1.37-0.42-1.88c-0.85-0.96-2.25-0.89-3.04,0.04c-0.05,2.27-0.15,4.54-0.33,6.8
			c-0.07,0.83-0.12,1.69-0.23,2.54c0.34,0.71,0.75,1.39,1.23,2.02c0.32,0.43,0.74,1.05,1.2,1.33c0.35,0.22,0.94,0.19,1.26-0.03
			c1.15-0.78,1.64-1.14,2.55-1.85c0.75-0.59,2.22,0.14,2.38,1.25c0.1,0.72-0.44,1.54-1.27,1.27c-0.79-0.26-1.51,0.01-2.16,0.48
			c-0.26,0.19-0.69,0.49-1.02,0.82c0.15,0.02,0.3,0.05,0.45,0.08c0.46,0.12,0.91,0.3,1.32,0.52c0.88,0.46,1.59,1.15,2.16,1.96
			c0.61,0.87-0.57,1.91-1.41,1.41c-2.42-1.45-5.17-1.46-7.81-0.85c-0.19,0.74-0.27,1.53-0.34,2.27c1.02,0.07,2.03,0.19,3,0.32
			c2.74,0.36,5.47,1.07,7.73,2.73c0.42,0.31,0.63,0.78,0.42,1.29c-0.18,0.42-0.74,0.79-1.22,0.6c-3.22-1.33-6.78-1.5-10.07-0.56
			c0,0,0,0,0,0c0.11,2.31,0.54,4.59,1.24,6.78c0.47,0.27,1,0.46,1.56,0.59c1.9,0.45,3.81,0.57,5.33,1.92
			c0.62,0.55,0.22,1.48-0.45,1.72c-3.45,1.25-6.58-0.09-9.31-2.21c-4.57-3.55-9.17-7.26-12.92-11.7c-1.84-2.18-3.4-4.54-4.72-7.07
			c-0.79-1.53-1.59-3.14-2.75-4.42c-5.18-2.12-10.32-4.35-15.4-6.7c-0.54-0.25-0.62-0.74-0.45-1.16c-0.51-3.46-1.49-6.86-2.98-10.03
			c-0.77-1.65-1.67-3.25-2.68-4.76c-0.51-0.77-1.05-1.51-1.62-2.24c-0.07-0.09-0.15-0.19-0.23-0.29c-0.4,0.12-0.83,0.19-1.29,0.19
			c-2.34,0-4.14-1.78-4.03-4.14c0.06-1.32,0.61-2.55,0.71-3.85c0.11-1.37-0.46-2.65-1.17-3.79c-0.12-0.19-0.24-0.37-0.36-0.55
			c-0.68,3.51-1.05,7.13-1.05,10.83c0,31.32,25.39,56.7,56.7,56.7s56.7-25.39,56.7-56.7c0-3.27-0.29-6.47-0.82-9.58
			c-0.43,0.72-0.84,1.45-1.23,2.2C116.92,55.18,116.96,56.69,116.84,58.19z"/>
		<path class="st1" d="M103.15,42.15c-0.9,2.99-1.04,6.1-0.98,9.21c0,0.24,0.01,0.48,0.02,0.73c1.85-1.93,3.86-3.71,6.01-5.32
			C106.98,44.77,105.32,43.12,103.15,42.15z"/>
		<path class="st1" d="M102.32,56.3c0.01,0.39,0.04,0.82,0.05,1.27c0.38-0.48,0.77-0.95,1.17-1.41c1.89-2.18,3.99-4.17,6.26-5.95
			c-0.19-0.55-0.4-1.09-0.63-1.61c-2.5,1.89-4.82,4.04-6.89,6.39C102.29,55.43,102.31,55.86,102.32,56.3z"/>
		<path class="st1" d="M71.59,65.8c4.47-2.47,9.4-4.14,14.45-4.9c2.58-0.39,5.18-0.57,7.78-0.49c0.47,0.01,1,0.02,1.54,0.05
			c1.43-2.92-0.14-6.89-0.35-9.9c-0.19-2.68,0.57-5.35,2.07-7.54c-1.52,0.07-2.99,0.47-4.38,1.08c-0.95,0.51-1.84,1.14-2.65,1.81
			c-2.11,1.75-3.99,3.75-6.04,5.56c-2.03,1.8-4.16,3.5-6.46,4.94c-1.41,0.88-2.89,1.58-4.38,2.28c-0.92,0.52-1.87,1-2.8,1.52
			c-1.05,0.83-2.09,1.77-2.83,2.85c-0.63,0.91-1.13,2.3-0.33,3.29c0.76,0.93,2.32,0.42,3.38,0.02
			C70.94,66.17,71.27,65.98,71.59,65.8z"/>
		<path class="st1" d="M98.66,36.65c-0.17,0.03-0.33,0.07-0.51,0.12c-0.23,0.07-0.31,0.1-0.55,0.25c-0.03,0.02-0.22,0.16-0.23,0.16
			c-0.09,0.08-0.18,0.16-0.26,0.25c-0.08,0.09-0.09,0.1-0.02,0.03c-0.04,0.05-0.07,0.11-0.1,0.17c-0.03,0.05-0.04,0.08-0.04,0.09
			c-0.01,0.04-0.03,0.08-0.04,0.12c-0.01,0.04-0.02,0.11-0.02,0.14c0.01,0.08,0.02,0.19,0.01,0.2c0.02,0.07,0.05,0.15,0.04,0.16
			c0.03,0.06,0.08,0.13,0.09,0.15c0.07,0.06,0.17,0.14,0.11,0.11c0.01,0.01,0.02,0.01,0.03,0.02c0.02,0.01,0.04,0.01,0.07,0.02
			c0.24,0.08,0.43,0.23,0.56,0.41c1.31,0.01,2.62,0.13,3.89,0.42c5.09,1.19,8.6,5.52,10.17,10.31c0.89,2.71,1.2,5.61,1.26,8.45
			c0.01,0.68-0.05,1.44,0.2,2.09c0.1,0.27,0.44,0.84,0.83,0.72c0.39-0.11,0.46-1.41,0.51-1.74c0.09-0.6,0.14-1.21,0.17-1.82
			c0.25-5.22-1.52-10.55-5.02-14.45C106.89,39.78,102.93,37.52,98.66,36.65z"/>
		<path class="st1" d="M110.72,54.09c-0.08,0.11-0.15,0.22-0.22,0.33c-0.46,0.72-0.95,1.42-1.4,2.15c-0.43,0.69-0.85,1.41-1.12,2.18
			c-0.29,0.81-0.27,1.65-0.5,2.46c-0.27,0.94-0.99,1.5-1.77,2.02c-0.5,0.33-1.02,0.64-1.54,0.93c-0.53,1.41-0.77,2.93-1.07,4.42
			c-0.46,2.27-1.23,4.4-2.58,6.3c-2.92,4.12-7.35,6.63-11.69,9c-0.07,0.04-0.14,0.07-0.21,0.09c-0.33,0.82-0.7,1.63-1.11,2.41
			c-0.01,0.02-0.03,0.05-0.04,0.07c2.05-0.86,4.1-1.76,6.11-2.72c1.35-0.64,2.7-1.31,4.03-1.99c0.95-0.48,2.72-1.08,3.17-2.15
			c0.06-0.14,0.14-0.28,0.24-0.39l10.01-19.46c0.02-0.04,0.04-0.07,0.06-0.1c-0.14-1.49-0.08-3-0.23-4.49
			C110.84,54.81,110.78,54.45,110.72,54.09z"/>
		<path class="st2" d="M116.11,50.55c-0.5-1.83-1.23-3.61-2.17-5.26c0.68-0.58,1.38-1.14,2.1-1.67c-0.22-0.68-0.44-1.36-0.68-2.02
			c-0.86,0.62-1.71,1.26-2.52,1.95c-0.23-0.32-0.46-0.64-0.7-0.95c-2.23-2.82-5.14-5.01-8.39-6.45c0.73-0.52,1.04-1.53,0.72-2.38
			c-0.25-0.64-0.82-1.04-1.46-1.15c-0.25-0.13-0.53-0.21-0.81-0.23c-0.19-0.05-0.38-0.06-0.55-0.02
			c-8.59,1.88-16.37,6.81-21.85,13.65c-2.75,2.85-4.85,6.34-7.93,8.9c-1.73,1.44-4.83,3.27-7.15,2.25
			c-1.06-0.47-1.39-1.68-1.52-2.73c-0.31-2.56,0.18-5.26-0.47-7.65c-0.65-2.4-0.55-4.89,0.18-7.26c0.57-1.84-1.94-2-1.98-0.51
			c-0.06,2.41-0.1,4.82-0.55,7.19c-0.48,2.55-0.7,5.83-2.43,8.18c-1.52,2.06-3.95,2.32-6.26,1.59c-1.25-0.4-2.65-1.05-3.67-2
			c-0.02-0.07-0.04-0.13-0.08-0.19l-0.29-0.6c-0.45-2.18-0.42-4.43,0.13-6.6c0.31-1.23,0.77-2.41,1.38-3.52
			c0.31-0.55,0.64-1.09,1.02-1.59c0.39-0.53,0.89-1,1.15-1.61c0.59-1.36-0.44-2.43-1.15-3.5c-0.81-1.22-1.59-2.45-2.35-3.7
			c-1.55-2.54-3.01-5.13-4.36-7.78c-1.25-2.43-2.4-4.9-3.47-7.41c-0.08-1.83-0.08-3.66,0.09-5.49c0.11-1.15,0.29-2.29,0.54-3.41
			c-5.09,2.08-9.8,4.88-14.02,8.27c-1.74,3.04-2.74,6.61-3.6,9.89c-0.77,2.93-1.35,5.94-1.65,8.98c-3.85,1.64-7.02,4.77-9.37,8.27
			c-0.03-0.03-0.06-0.06-0.1-0.08c-1.03-0.71-2.1-1.35-3.19-1.95c-0.96,2.67-1.72,5.44-2.27,8.28c0.12,0.18,0.25,0.36,0.36,0.55
			c0.7,1.14,1.28,2.42,1.17,3.79c-0.1,1.31-0.65,2.54-0.71,3.85c-0.11,2.36,1.69,4.14,4.03,4.14c0.46,0,0.88-0.07,1.29-0.19
			c0.08,0.1,0.15,0.19,0.23,0.29c0.57,0.72,1.11,1.47,1.62,2.24c1.01,1.52,1.91,3.11,2.68,4.76c1.49,3.17,2.47,6.57,2.98,10.03
			c-0.17,0.42-0.08,0.91,0.45,1.16c5.08,2.35,10.22,4.58,15.4,6.7c1.16,1.28,1.96,2.89,2.75,4.42c1.32,2.53,2.88,4.89,4.72,7.07
			c3.75,4.44,8.35,8.15,12.92,11.7c2.74,2.13,5.86,3.46,9.31,2.21c0.68-0.25,1.08-1.17,0.45-1.72c-1.53-1.35-3.43-1.48-5.33-1.92
			c-0.56-0.13-1.08-0.31-1.56-0.59c-0.7-2.2-1.14-4.47-1.24-6.78c0,0,0,0,0,0c3.29-0.95,6.84-0.77,10.07,0.56
			c0.47,0.19,1.04-0.17,1.22-0.6c0.21-0.5,0-0.98-0.42-1.29c-2.26-1.66-4.99-2.37-7.73-2.73c-0.97-0.13-1.99-0.25-3-0.32
			c0.07-0.74,0.15-1.53,0.34-2.27c2.64-0.61,5.39-0.6,7.81,0.85c0.84,0.5,2.02-0.54,1.41-1.41c-0.57-0.81-1.28-1.49-2.16-1.96
			c-0.42-0.22-0.87-0.4-1.32-0.52c-0.15-0.04-0.3-0.06-0.45-0.08c0.33-0.33,0.76-0.63,1.02-0.82c0.66-0.47,1.37-0.74,2.16-0.48
			c0.83,0.27,1.37-0.55,1.27-1.27c-0.16-1.11-1.62-1.84-2.38-1.25c-0.91,0.71-1.4,1.07-2.55,1.85c-0.32,0.22-0.91,0.24-1.26,0.03
			c-0.46-0.28-0.88-0.91-1.2-1.33c-0.47-0.63-0.88-1.31-1.23-2.02c0.11-0.85,0.16-1.71,0.23-2.54c0.18-2.26,0.28-4.53,0.33-6.8
			c0.79-0.93,2.18-1,3.04-0.04c0.46,0.52,0.6,1.17,0.42,1.88l-0.42,2.33c-0.14,0.78,0.8,1.28,1.36,0.72
			c1.07-1.06,2.23-2.24,2.83-3.09c0.78,0.82,1.46,1.72,2.01,2.72c0.34,0.63,0.56,1.67,1.23,2.04c0.91,0.51,1.62-0.25,2.28-0.77
			c2.14-1.71,4.81-2.52,7.48-3.11c0.01,0,0.02,0,0.03,0c0.18,0,0.34-0.04,0.47-0.11c0.7-0.15,1.39-0.28,2.08-0.42
			c1.16-0.23,0.87-2.02-0.27-2.02c-2.76-0.01-5.49,0.59-8.25,0.54c-2.08-0.04-4.04-0.6-5.81-1.62c0.03-0.14,0.05-0.29,0.07-0.44
			c0.4,0.13,0.85,0.22,1.37,0.23c2.91,0.04,5.97-0.34,8.82-0.9c0.49-0.1,0.98-0.21,1.47-0.34c0.23-0.04,0.46-0.08,0.69-0.13
			c1.95-0.4,3.88-1.14,5.56-2.22c0.09,0.19,0.23,0.39,0.27,0.47c0.19,0.39,0.35,0.79,0.48,1.2c0.25,0.77,0.41,1.57,0.47,2.38
			c0.13,1.68-0.09,3.33-0.57,4.94c-0.48,1.63-1.21,3.16-2.06,4.63c-0.35,0.6-0.84,1.21-0.81,1.95c0.03,0.77,0.56,1.21,1.28,1.28
			c0.5,0.05,0.8-0.22,0.93-0.57c2.92-1.19,5.8-2.45,8.64-3.82c1.54-0.74,3.06-1.5,4.57-2.29c1.08-0.56,2.03-1.17,2.67-2.15
			c0.11-0.08,0.2-0.19,0.28-0.34c3.13-6.09,6.26-12.17,9.39-18.26c0.22,0.23,0.48,0.44,0.79,0.59c1.04,0.52,2.33,0.37,3.04-0.61
			c0.76-1.06,0.81-2.74,0.91-4c0.12-1.5,0.08-3.01-0.11-4.51c0.39-0.75,0.8-1.48,1.23-2.2c-0.17-1-0.37-1.98-0.59-2.96
			C116.94,49.19,116.51,49.87,116.11,50.55z M21.13,50.94c-0.29-0.03-0.67-0.55-0.87-0.72c-0.41-0.36-0.81-0.71-1.23-1.06
			c-0.69-0.58-1.38-1.16-2.08-1.72c0.02-0.04,0.04-0.07,0.06-0.11c1.2-1.47,2.62-2.73,4.22-3.76c0.05,0.61,0.1,1.23,0.18,1.84
			c0.19,1.49,0.46,2.97,0.84,4.43C21.94,50.23,21.36,50.96,21.13,50.94z M21.11,40.37c0,0.02,0,0.03,0,0.05
			c-1.57,0.56-2.96,2-3.97,3.17c-0.68,0.79-1.28,1.64-1.81,2.53c-0.57,0.71-1.1,1.46-1.57,2.23c-0.71,1.18-1.17,2.42-1.71,3.68
			c-0.13,0.31-0.55,1.26-0.98,0.93c-0.36-0.28-0.11-1.55-0.05-1.9c0.24-1.5,0.87-2.91,1.62-4.23c1.38-2.42,3.13-4.66,5.23-6.5
			c1.07-0.94,2.27-1.76,3.54-2.4c3.99-1.5,8.86-0.54,12.83,1.66c0-0.01,0.01-0.03,0.01-0.04c2.98,1.92,5.81,4.07,8.42,6.48
			c0.98,0.91,2.48,2.11,2.37,3.45c-0.03,0.04-0.07,0.09-0.1,0.14c-0.65,1.16-2.22,0.67-3.06,0.03c-1.28-0.98-2.26-2.4-3.38-3.56
			c-1.42-1.47-3.05-3.21-4.91-4.37c0.01-0.04,0.02-0.07,0.03-0.11C29.77,39.33,24.84,38.32,21.11,40.37z M41.08,72.36
			c-3.7-2.34-4.79-3.67-5.57-6.05c-0.09-0.28,0.16-0.56,0.45-0.48c1.83,0.53,7.09,2.13,10.48,4.06c-0.16,1.14,0.82,2.38,2.36,2.88
			c1.25,0.4,2.5,0.2,3.21-0.45c0.21,0.03,0.42,0.05,0.63,0.07c0.61,0.04,1.28,0.04,2-0.02c0,0,0.94,1.21,0,1.75
			C53.7,74.64,45.11,74.91,41.08,72.36z M55.62,84.11c-0.12,0.25-0.25,0.5-0.38,0.75c-0.24-0.15-0.49-0.3-0.74-0.44
			c-1.98-1.08-4.06-2.02-6.14-2.89c-1.56-0.65-3.16-1.23-4.79-1.7c2.22,0.12,4.45-0.01,6.66-0.39c0.33-0.06,0.67-0.12,1-0.19
			c0.08-0.01,0.16-0.03,0.23-0.05c2.26-0.49,4.53-1.26,6.47-2.51C57.57,79.26,56.73,81.75,55.62,84.11z M60.5,69.27
			c-1.26,0.28-2.51-0.38-3.48-1.12c-1-0.78-1.88-1.71-2.84-2.54c-0.94-0.82-1.92-1.59-2.92-2.34c-3.53-2.62-7.39-4.84-11.28-6.91
			c-0.08-0.09-0.16-0.18-0.24-0.27c-0.02-0.11-0.06-0.21-0.08-0.32c0-0.01,0-0.03-0.01-0.04c0-0.01,0-0.01,0-0.02
			c0-0.08-0.01-0.16-0.01-0.24c0-0.1,0-0.19,0.01-0.29c0,0,0,0,0,0c0,0,0,0,0,0c0.02-0.06,0.03-0.12,0.04-0.18
			c0-0.01,0.01-0.02,0.01-0.04c0,0,0.01-0.01,0.01-0.03c0.15-0.1,0.3-0.2,0.45-0.3c2.83-0.33,5.97,1.04,8.36,2.37
			c2.24,1.24,4.46,2.54,6.69,3.81c1.89,1.08,4.08,2.05,5.58,3.68c0.51,0.55,0.94,1.32,1.11,2.12c-0.09,0.19-0.11,0.42-0.04,0.68
			C62.12,68.21,61.39,69.07,60.5,69.27z M67.22,66.35c-0.8-0.99-0.3-2.37,0.33-3.29c0.74-1.08,1.77-2.02,2.83-2.85
			c0.92-0.52,1.87-1,2.8-1.52c1.49-0.7,2.98-1.4,4.38-2.28c2.3-1.44,4.43-3.15,6.46-4.94c2.05-1.81,3.93-3.82,6.04-5.56
			c0.81-0.67,1.7-1.3,2.65-1.81c1.4-0.61,2.86-1.01,4.38-1.08c-1.5,2.19-2.26,4.85-2.07,7.54c0.21,3.01,1.78,6.98,0.35,9.9
			c-0.54-0.03-1.07-0.04-1.54-0.05c-2.6-0.07-5.21,0.11-7.78,0.49c-5.05,0.76-9.97,2.43-14.45,4.9c-0.33,0.18-0.66,0.37-0.99,0.56
			C69.54,66.77,67.98,67.28,67.22,66.35z M82.66,72.36c-4.03,2.55-12.62,2.28-13.56,1.75c-0.94-0.54,0-1.75,0-1.75
			c0.71,0.06,1.38,0.06,2,0.02c0.24-0.02,0.47-0.04,0.71-0.07c0.71,0.65,1.96,0.86,3.22,0.46c1.55-0.5,2.54-1.77,2.35-2.92
			c3.39-1.91,8.59-3.49,10.4-4.01c0.29-0.08,0.55,0.2,0.45,0.48C87.45,68.69,86.36,70.01,82.66,72.36z M111.04,59.76l-10.01,19.46
			c-0.1,0.11-0.18,0.25-0.24,0.39c-0.45,1.07-2.23,1.66-3.17,2.15c-1.33,0.68-2.68,1.35-4.03,1.99c-2.01,0.96-4.06,1.85-6.11,2.72
			c0.01-0.02,0.03-0.05,0.04-0.07c0.41-0.79,0.78-1.59,1.11-2.41c0.07-0.02,0.14-0.05,0.21-0.09c4.34-2.37,8.77-4.88,11.69-9
			c1.35-1.9,2.13-4.03,2.58-6.3c0.3-1.49,0.54-3.01,1.07-4.42c0.52-0.29,1.04-0.6,1.54-0.93c0.78-0.52,1.49-1.08,1.77-2.02
			c0.24-0.81,0.22-1.65,0.5-2.46c0.27-0.77,0.69-1.49,1.12-2.18c0.45-0.73,0.94-1.43,1.4-2.15c0.07-0.11,0.14-0.22,0.22-0.33
			c0.06,0.36,0.11,0.72,0.15,1.08c0.15,1.5,0.09,3,0.23,4.49C111.08,59.69,111.06,59.72,111.04,59.76z M102.19,52.08
			c-0.01-0.24-0.02-0.48-0.02-0.73c-0.06-3.11,0.08-6.22,0.98-9.21c2.18,0.97,3.83,2.63,5.05,4.61
			C106.04,48.37,104.04,50.15,102.19,52.08z M109.16,48.6c0.24,0.53,0.45,1.06,0.63,1.61c-2.27,1.78-4.37,3.77-6.26,5.95
			c-0.4,0.46-0.79,0.93-1.17,1.41c-0.01-0.44-0.04-0.88-0.05-1.27c-0.01-0.44-0.03-0.87-0.04-1.31
			C104.34,52.63,106.66,50.48,109.16,48.6z M114.82,57.49c-0.03,0.61-0.08,1.22-0.17,1.82c-0.05,0.33-0.12,1.63-0.51,1.74
			c-0.39,0.12-0.73-0.45-0.83-0.72c-0.24-0.65-0.18-1.41-0.2-2.09c-0.06-2.84-0.37-5.73-1.26-8.45c-1.57-4.8-5.09-9.12-10.17-10.31
			c-1.27-0.3-2.58-0.42-3.89-0.42c-0.13-0.18-0.32-0.33-0.56-0.41c-0.03-0.01-0.05-0.02-0.07-0.02c-0.01-0.01-0.02-0.01-0.03-0.02
			c0.05,0.03-0.05-0.05-0.11-0.11c-0.01-0.02-0.05-0.09-0.09-0.15c0-0.02-0.02-0.1-0.04-0.16c0.01-0.01-0.01-0.12-0.01-0.2
			c0-0.03,0.01-0.1,0.02-0.14c0.01-0.04,0.03-0.08,0.04-0.12c0,0,0.02-0.03,0.04-0.09c0.03-0.06,0.07-0.11,0.1-0.17
			c-0.06,0.07-0.06,0.07,0.02-0.03c0.08-0.09,0.17-0.17,0.26-0.25c0.01,0,0.2-0.14,0.23-0.16c0.24-0.15,0.33-0.18,0.55-0.25
			c0.17-0.05,0.34-0.09,0.51-0.12c4.27,0.87,8.23,3.13,11.14,6.38C113.31,46.94,115.08,52.27,114.82,57.49z"/>
		<path class="st3" d="M54.64,74.1c0.94-0.54,0-1.75,0-1.75c-0.71,0.06-1.38,0.06-2,0.02c-0.21-0.01-0.42-0.04-0.63-0.07
			c-0.71,0.64-1.96,0.85-3.21,0.45c-1.53-0.5-2.52-1.74-2.36-2.88c-3.39-1.93-8.65-3.53-10.48-4.06c-0.29-0.08-0.55,0.2-0.45,0.48
			c0.78,2.38,1.87,3.71,5.57,6.05C45.11,74.91,53.7,74.64,54.64,74.1z"/>
		<path class="st3" d="M87.78,65.83c-1.82,0.52-7.01,2.1-10.4,4.01c0.19,1.15-0.79,2.42-2.35,2.92c-1.26,0.41-2.51,0.19-3.22-0.46
			c-0.23,0.03-0.47,0.06-0.71,0.07c-0.61,0.04-1.28,0.04-2-0.02c0,0-0.94,1.21,0,1.75c0.94,0.54,9.53,0.81,13.56-1.75
			c3.7-2.34,4.79-3.67,5.57-6.05C88.32,66.02,88.07,65.74,87.78,65.83z"/>
	</g>
</g>
<g>
	<g>
		<path class="st3" d="M130.25,35.75c4.06-0.62,8.23-1.08,12.52-1.39c4.28-0.31,8.41-0.46,12.39-0.46c4.06,0,8.04,0.38,11.92,1.13
			c3.89,0.75,7.37,2.12,10.47,4.11c3.09,1.99,5.58,4.73,7.49,8.21c1.9,3.49,2.85,8.01,2.85,13.58c0,5.03-0.86,9.27-2.58,12.72
			c-1.72,3.45-4,6.23-6.82,8.35c-2.83,2.12-6.03,3.64-9.6,4.57s-7.22,1.39-10.93,1.39c-1.5,0-2.78-0.04-3.84-0.13
			c-1.06-0.09-1.72-0.18-1.99-0.26v16.29c-2.3,0.44-4.35,0.73-6.16,0.86c-1.81,0.13-3.42,0.2-4.84,0.2c-1.5,0-3.11-0.07-4.84-0.2
			s-3.73-0.42-6.03-0.86V35.75z M152.11,70.86c0.44,0.09,0.99,0.15,1.66,0.2c0.66,0.05,1.21,0.07,1.66,0.07
			c3.09,0,5.63-0.77,7.62-2.32c1.99-1.54,2.98-4.17,2.98-7.88c0-3.18-0.99-5.63-2.98-7.35c-1.99-1.72-4.44-2.58-7.35-2.58
			c-0.35,0-0.86,0-1.52,0c-0.66,0-1.35,0.05-2.05,0.13V70.86z"/>
		<path class="st3" d="M221,103.85c-2.3,0.35-4.37,0.62-6.23,0.79c-1.85,0.18-3.53,0.27-5.03,0.27c-1.5,0-3.18-0.09-5.03-0.27
			c-1.85-0.18-3.89-0.44-6.09-0.79V35.49c1.94-0.44,3.86-0.75,5.76-0.93c1.9-0.18,3.73-0.26,5.5-0.26c1.68,0,3.49,0.09,5.43,0.26
			c1.94,0.18,3.84,0.49,5.7,0.93V103.85z"/>
		<path class="st3" d="M232.53,69.8c0-5.3,0.75-10.16,2.25-14.57c1.5-4.42,3.71-8.19,6.62-11.33c2.91-3.13,6.49-5.58,10.73-7.35
			c4.24-1.77,9.1-2.65,14.57-2.65c1.85,0,3.62,0.04,5.3,0.13c1.68,0.09,3.33,0.27,4.97,0.53c1.63,0.26,3.31,0.66,5.03,1.19
			c1.72,0.53,3.64,1.19,5.76,1.99c0.18,3-0.09,5.98-0.79,8.94c-0.71,2.96-1.81,5.85-3.31,8.68c-1.5-0.53-2.85-0.95-4.04-1.26
			c-1.19-0.31-2.32-0.55-3.38-0.73c-1.06-0.18-2.1-0.29-3.11-0.33c-1.02-0.04-2.1-0.07-3.25-0.07c-4.24,0-7.75,1.26-10.53,3.78
			c-2.78,2.52-4.17,6.87-4.17,13.05c0,3.27,0.42,5.98,1.26,8.15c0.84,2.16,1.94,3.87,3.31,5.1c1.37,1.24,2.96,2.12,4.77,2.65
			c1.81,0.53,3.73,0.79,5.76,0.79c2.56,0,4.79-0.22,6.69-0.66c1.9-0.44,4.13-1.15,6.69-2.12c1.5,2.38,2.69,5.06,3.58,8.02
			c0.88,2.96,1.32,6.34,1.32,10.13c-4.06,1.59-7.77,2.61-11.13,3.05c-3.36,0.44-6.71,0.66-10.07,0.66c-5.65,0-10.64-0.84-14.97-2.52
			c-4.33-1.68-7.97-4.08-10.93-7.22c-2.96-3.13-5.19-6.89-6.69-11.26C233.28,80.2,232.53,75.28,232.53,69.8z"/>
		<path class="st3" d="M292.94,69.8c0-5.3,0.75-10.16,2.25-14.57c1.5-4.42,3.71-8.19,6.62-11.33c2.91-3.13,6.49-5.58,10.73-7.35
			c4.24-1.77,9.1-2.65,14.57-2.65c1.85,0,3.62,0.04,5.3,0.13c1.68,0.09,3.33,0.27,4.97,0.53c1.63,0.26,3.31,0.66,5.03,1.19
			c1.72,0.53,3.64,1.19,5.76,1.99c0.18,3-0.09,5.98-0.79,8.94c-0.71,2.96-1.81,5.85-3.31,8.68c-1.5-0.53-2.85-0.95-4.04-1.26
			c-1.19-0.31-2.32-0.55-3.38-0.73c-1.06-0.18-2.1-0.29-3.11-0.33c-1.02-0.04-2.1-0.07-3.25-0.07c-4.24,0-7.75,1.26-10.53,3.78
			c-2.78,2.52-4.17,6.87-4.17,13.05c0,3.27,0.42,5.98,1.26,8.15c0.84,2.16,1.94,3.87,3.31,5.1c1.37,1.24,2.96,2.12,4.77,2.65
			c1.81,0.53,3.73,0.79,5.76,0.79c2.56,0,4.79-0.22,6.69-0.66c1.9-0.44,4.13-1.15,6.69-2.12c1.5,2.38,2.69,5.06,3.58,8.02
			c0.88,2.96,1.33,6.34,1.33,10.13c-4.06,1.59-7.77,2.61-11.13,3.05c-3.36,0.44-6.71,0.66-10.07,0.66c-5.65,0-10.64-0.84-14.97-2.52
			c-4.33-1.68-7.97-4.08-10.93-7.22c-2.96-3.13-5.19-6.89-6.69-11.26C293.69,80.2,292.94,75.28,292.94,69.8z"/>
		<path class="st3" d="M353.35,70.07c0-5.39,0.73-10.31,2.19-14.77c1.46-4.46,3.62-8.28,6.49-11.46c2.87-3.18,6.42-5.63,10.67-7.35
			c4.24-1.72,9.14-2.58,14.71-2.58c5.65,0,10.6,0.86,14.84,2.58c4.24,1.72,7.79,4.17,10.67,7.35c2.87,3.18,5.03,7,6.49,11.46
			c1.46,4.46,2.19,9.39,2.19,14.77c0,5.3-0.73,10.13-2.19,14.51c-1.46,4.37-3.62,8.13-6.49,11.26c-2.87,3.14-6.43,5.54-10.67,7.22
			c-4.24,1.68-9.19,2.52-14.84,2.52c-5.56,0-10.47-0.84-14.71-2.52c-4.24-1.68-7.8-4.08-10.67-7.22c-2.87-3.13-5.04-6.89-6.49-11.26
			C354.08,80.2,353.35,75.37,353.35,70.07z M398.93,70.07c0-5.65-0.95-9.98-2.85-12.98c-1.9-3-4.79-4.5-8.68-4.5
			c-3.89,0-6.76,1.5-8.61,4.5c-1.85,3-2.78,7.33-2.78,12.98c0,5.56,0.93,9.85,2.78,12.85c1.85,3,4.72,4.51,8.61,4.51
			c3.89,0,6.78-1.5,8.68-4.51C397.98,79.92,398.93,75.63,398.93,70.07z"/>
		<path class="st3" d="M455.5,85.3h25.04c0.44,1.77,0.73,3.4,0.86,4.9c0.13,1.5,0.2,2.96,0.2,4.37c0,1.41-0.07,2.89-0.2,4.44
			c-0.13,1.55-0.42,3.2-0.86,4.97h-47.43l0.13-68.49c1.94-0.44,3.86-0.75,5.76-0.93c1.9-0.18,3.73-0.26,5.5-0.26
			c1.68,0,3.49,0.09,5.43,0.26c1.94,0.18,3.84,0.49,5.7,0.93L455.5,85.3z"/>
		<path class="st3" d="M486.37,70.07c0-5.39,0.73-10.31,2.19-14.77c1.46-4.46,3.62-8.28,6.49-11.46c2.87-3.18,6.42-5.63,10.67-7.35
			c4.24-1.72,9.14-2.58,14.71-2.58c5.65,0,10.6,0.86,14.84,2.58c4.24,1.72,7.79,4.17,10.67,7.35c2.87,3.18,5.03,7,6.49,11.46
			c1.46,4.46,2.19,9.39,2.19,14.77c0,5.3-0.73,10.13-2.19,14.51c-1.46,4.37-3.62,8.13-6.49,11.26c-2.87,3.14-6.43,5.54-10.67,7.22
			c-4.24,1.68-9.19,2.52-14.84,2.52c-5.56,0-10.47-0.84-14.71-2.52c-4.24-1.68-7.8-4.08-10.67-7.22c-2.87-3.13-5.04-6.89-6.49-11.26
			C487.1,80.2,486.37,75.37,486.37,70.07z M531.94,70.07c0-5.65-0.95-9.98-2.85-12.98c-1.9-3-4.79-4.5-8.68-4.5
			c-3.89,0-6.76,1.5-8.61,4.5c-1.85,3-2.78,7.33-2.78,12.98c0,5.56,0.93,9.85,2.78,12.85c1.85,3,4.72,4.51,8.61,4.51
			c3.89,0,6.78-1.5,8.68-4.51C530.99,79.92,531.94,75.63,531.94,70.07z"/>
	</g>
</g>
<g>
	<g>
		<path class="st3" d="M135.67,25.38h-3.03l-5.51-13.86h2.77c0.24,0,0.45,0.06,0.61,0.18c0.17,0.12,0.28,0.27,0.34,0.45l2.67,7.4
			c0.15,0.43,0.28,0.86,0.38,1.27c0.1,0.42,0.2,0.83,0.28,1.24c0.08-0.41,0.17-0.83,0.28-1.24c0.1-0.41,0.24-0.84,0.4-1.27l2.74-7.4
			c0.06-0.18,0.17-0.33,0.34-0.45c0.16-0.12,0.36-0.18,0.58-0.18h2.63L135.67,25.38z"/>
		<path class="st3" d="M148.41,11.3c0.87,0,1.68,0.14,2.41,0.42s1.37,0.69,1.9,1.22c0.53,0.54,0.95,1.19,1.24,1.97
			c0.3,0.78,0.45,1.67,0.45,2.67c0,0.25-0.01,0.46-0.03,0.63c-0.02,0.17-0.06,0.3-0.12,0.39s-0.14,0.16-0.24,0.2
			c-0.1,0.04-0.23,0.06-0.38,0.06h-8.56c0.1,1.42,0.48,2.47,1.15,3.13c0.67,0.67,1.55,1,2.65,1c0.54,0,1.01-0.06,1.4-0.19
			c0.39-0.13,0.73-0.27,1.03-0.42c0.29-0.15,0.55-0.29,0.77-0.42s0.43-0.19,0.64-0.19c0.14,0,0.25,0.03,0.35,0.08
			c0.1,0.05,0.18,0.13,0.26,0.23l0.97,1.22c-0.37,0.43-0.78,0.79-1.24,1.09c-0.46,0.29-0.94,0.53-1.44,0.7
			c-0.5,0.18-1.01,0.3-1.53,0.37c-0.52,0.07-1.02,0.11-1.51,0.11c-0.96,0-1.86-0.16-2.69-0.48c-0.83-0.32-1.55-0.79-2.16-1.42
			c-0.61-0.63-1.09-1.4-1.44-2.32c-0.35-0.92-0.53-1.99-0.53-3.21c0-0.95,0.15-1.83,0.46-2.67c0.31-0.83,0.74-1.56,1.32-2.17
			c0.57-0.62,1.27-1.11,2.09-1.47C146.45,11.48,147.38,11.3,148.41,11.3z M148.48,13.69c-0.97,0-1.73,0.27-2.28,0.82
			c-0.55,0.55-0.9,1.33-1.05,2.34h6.27c0-0.43-0.06-0.84-0.18-1.22s-0.3-0.72-0.54-1.01c-0.24-0.29-0.55-0.51-0.92-0.68
			S148.98,13.69,148.48,13.69z"/>
		<path class="st3" d="M157.13,25.38V11.52h1.96c0.34,0,0.58,0.06,0.72,0.19s0.22,0.34,0.27,0.65l0.2,1.67
			c0.5-0.86,1.08-1.53,1.74-2.03c0.67-0.5,1.41-0.74,2.24-0.74c0.68,0,1.25,0.16,1.7,0.47l-0.43,2.5c-0.03,0.16-0.09,0.28-0.18,0.34
			s-0.21,0.1-0.36,0.1c-0.14,0-0.32-0.03-0.55-0.09c-0.23-0.06-0.54-0.09-0.93-0.09c-0.69,0-1.29,0.19-1.78,0.57
			s-0.91,0.94-1.26,1.68v8.63H157.13z"/>
		<path class="st3" d="M176.39,14.22c-0.09,0.14-0.18,0.25-0.28,0.3c-0.1,0.06-0.23,0.09-0.38,0.09c-0.16,0-0.33-0.04-0.52-0.14
			c-0.18-0.09-0.4-0.19-0.64-0.3s-0.52-0.21-0.83-0.3s-0.68-0.13-1.1-0.13c-0.66,0-1.17,0.14-1.55,0.42
			c-0.38,0.28-0.57,0.64-0.57,1.09c0,0.3,0.1,0.55,0.29,0.75c0.19,0.2,0.45,0.38,0.77,0.53c0.32,0.15,0.68,0.29,1.09,0.41
			c0.41,0.12,0.82,0.25,1.24,0.4c0.42,0.14,0.84,0.31,1.24,0.49s0.77,0.42,1.09,0.7c0.32,0.28,0.58,0.62,0.77,1.02
			c0.19,0.4,0.29,0.87,0.29,1.43c0,0.67-0.12,1.28-0.37,1.84s-0.6,1.05-1.07,1.46c-0.47,0.41-1.05,0.73-1.74,0.96
			c-0.69,0.23-1.48,0.34-2.37,0.34c-0.48,0-0.94-0.04-1.4-0.13c-0.46-0.09-0.89-0.21-1.31-0.36c-0.42-0.15-0.81-0.33-1.16-0.54
			s-0.67-0.43-0.94-0.67l0.77-1.27c0.1-0.15,0.22-0.27,0.35-0.35c0.13-0.08,0.31-0.12,0.51-0.12s0.4,0.06,0.59,0.17
			c0.18,0.12,0.4,0.24,0.64,0.38c0.24,0.13,0.53,0.26,0.86,0.38c0.33,0.12,0.75,0.18,1.25,0.18c0.4,0,0.74-0.05,1.02-0.14
			c0.28-0.09,0.52-0.22,0.7-0.37c0.18-0.15,0.32-0.33,0.4-0.53c0.09-0.2,0.13-0.41,0.13-0.63c0-0.32-0.1-0.59-0.29-0.8
			c-0.19-0.21-0.45-0.39-0.77-0.54s-0.68-0.29-1.09-0.41c-0.41-0.12-0.83-0.25-1.26-0.4c-0.43-0.14-0.85-0.31-1.26-0.51
			c-0.41-0.19-0.77-0.44-1.09-0.74c-0.32-0.3-0.58-0.66-0.77-1.09c-0.19-0.43-0.29-0.95-0.29-1.57c0-0.57,0.11-1.11,0.34-1.62
			c0.22-0.51,0.56-0.96,0.99-1.34c0.44-0.38,0.98-0.69,1.63-0.92c0.65-0.23,1.41-0.34,2.26-0.34c0.95,0,1.82,0.16,2.61,0.47
			c0.78,0.32,1.44,0.73,1.96,1.24L176.39,14.22z"/>
		<path class="st3" d="M184.02,7.48c0,0.29-0.06,0.56-0.18,0.81c-0.12,0.25-0.27,0.47-0.47,0.66c-0.19,0.19-0.42,0.34-0.68,0.45
			c-0.26,0.11-0.54,0.17-0.84,0.17c-0.29,0-0.56-0.06-0.82-0.17c-0.26-0.11-0.48-0.26-0.67-0.45c-0.19-0.19-0.34-0.41-0.45-0.66
			s-0.17-0.52-0.17-0.81c0-0.3,0.06-0.58,0.17-0.84s0.26-0.49,0.45-0.68c0.19-0.19,0.41-0.34,0.67-0.45s0.53-0.17,0.82-0.17
			c0.3,0,0.58,0.06,0.84,0.17c0.26,0.11,0.49,0.26,0.68,0.45c0.19,0.19,0.35,0.42,0.47,0.68C183.96,6.91,184.02,7.19,184.02,7.48z
			 M183.52,11.52v13.86h-3.34V11.52H183.52z"/>
		<path class="st3" d="M193.2,11.3c1.04,0,1.97,0.17,2.82,0.5c0.84,0.33,1.56,0.81,2.15,1.42c0.59,0.61,1.05,1.36,1.38,2.24
			s0.49,1.87,0.49,2.96c0,1.1-0.16,2.09-0.49,2.97c-0.32,0.88-0.78,1.63-1.38,2.26c-0.59,0.62-1.31,1.1-2.15,1.43
			c-0.84,0.33-1.78,0.5-2.82,0.5s-1.98-0.17-2.82-0.5c-0.85-0.33-1.57-0.81-2.17-1.43s-1.06-1.37-1.39-2.26
			c-0.33-0.88-0.49-1.87-0.49-2.97c0-1.09,0.16-2.08,0.49-2.96c0.33-0.88,0.79-1.63,1.39-2.24s1.32-1.08,2.17-1.42
			C191.22,11.47,192.16,11.3,193.2,11.3z M193.2,23.01c1.15,0,2.01-0.39,2.56-1.16c0.55-0.77,0.83-1.91,0.83-3.4
			c0-1.49-0.28-2.63-0.83-3.42s-1.41-1.17-2.56-1.17c-1.17,0-2.04,0.39-2.59,1.18c-0.56,0.79-0.84,1.92-0.84,3.41
			c0,1.49,0.28,2.62,0.84,3.4C191.16,22.62,192.03,23.01,193.2,23.01z M197.89,5.63l-3.34,3.52c-0.17,0.18-0.34,0.3-0.49,0.37
			c-0.16,0.07-0.36,0.1-0.61,0.1h-2l1.92-3.28c0.13-0.23,0.29-0.41,0.47-0.53c0.18-0.12,0.45-0.18,0.81-0.18H197.89z"/>
		<path class="st3" d="M202.64,25.38V11.52h2.04c0.43,0,0.72,0.2,0.85,0.61l0.23,1.09c0.28-0.29,0.57-0.55,0.88-0.78
			s0.64-0.44,0.99-0.61s0.72-0.3,1.11-0.39c0.4-0.09,0.83-0.14,1.3-0.14c0.76,0,1.43,0.13,2.01,0.38c0.58,0.26,1.07,0.62,1.47,1.08
			c0.39,0.46,0.69,1.02,0.89,1.66c0.2,0.64,0.3,1.35,0.3,2.13v8.82h-3.34v-8.82c0-0.85-0.2-1.5-0.59-1.96s-0.98-0.7-1.76-0.7
			c-0.58,0-1.12,0.13-1.62,0.39c-0.5,0.26-0.98,0.62-1.43,1.07v10.02H202.64z"/>
		<path class="st3" d="M225.06,22.88h3.96V11.49c0-0.44,0.01-0.91,0.04-1.39l-2.81,2.35c-0.12,0.1-0.24,0.17-0.36,0.2
			c-0.12,0.04-0.24,0.05-0.36,0.05c-0.18,0-0.34-0.04-0.49-0.12c-0.15-0.08-0.26-0.16-0.33-0.26l-1.05-1.45l5.96-5.06h2.74v17.06
			h3.51v2.5h-10.8V22.88z"/>
		<path class="st3" d="M250.45,7.27c0,0.48-0.15,0.86-0.45,1.16c-0.3,0.3-0.8,0.45-1.51,0.45h-5.38l-0.7,4.08
			c0.88-0.18,1.69-0.27,2.42-0.27c1.03,0,1.93,0.15,2.71,0.46c0.78,0.31,1.43,0.73,1.97,1.27s0.93,1.17,1.2,1.9
			c0.27,0.72,0.4,1.51,0.4,2.34c0,1.04-0.18,1.98-0.55,2.84c-0.36,0.86-0.87,1.59-1.52,2.19c-0.65,0.61-1.42,1.08-2.3,1.41
			c-0.89,0.33-1.85,0.5-2.9,0.5c-0.61,0-1.19-0.06-1.74-0.19c-0.55-0.13-1.07-0.29-1.55-0.51c-0.48-0.21-0.93-0.45-1.34-0.73
			c-0.41-0.27-0.78-0.56-1.1-0.87l1.03-1.42c0.22-0.31,0.5-0.46,0.86-0.46c0.23,0,0.45,0.07,0.68,0.22c0.23,0.14,0.5,0.3,0.8,0.47
			c0.31,0.17,0.66,0.33,1.07,0.47c0.41,0.14,0.9,0.22,1.47,0.22c0.61,0,1.15-0.1,1.62-0.3c0.47-0.2,0.86-0.47,1.17-0.83
			c0.31-0.36,0.54-0.78,0.7-1.27c0.16-0.49,0.24-1.02,0.24-1.6c0-1.06-0.31-1.89-0.93-2.49c-0.62-0.6-1.52-0.9-2.72-0.9
			c-0.95,0-1.9,0.17-2.85,0.51l-2.08-0.59l1.62-9.48h9.64V7.27z"/>
	</g>
</g>
<g id="XMLID_761_">
	<linearGradient id="XMLID_2_" gradientUnits="userSpaceOnUse" x1="582.8876" y1="46.9153" x2="582.8876" y2="93.1068">
		<stop  offset="0" style="stop-color:#39B54A"/>
		<stop  offset="1" style="stop-color:#8CC63F"/>
	</linearGradient>
	<path id="XMLID_794_" class="st4" d="M579.78,32.56c-2.59-0.19-4.84-0.25-6.76-0.25c-2.49,0-4.96,0.18-7.41,0.37
		c-2.45,0.19-4.39,0.65-5.82,1.03l19.87,36.62l-19.87,36.43c1.44,0.38,3.38,0.75,5.82,0.94c2.45,0.19,4.91,0.33,7.41,0.33
		c1.92,0,4.17-0.08,6.76-0.27c2.59-0.19,4.75-0.62,6.47-1.01l19.73-36.43l-19.73-36.6C584.53,33.36,582.37,32.76,579.78,32.56z"/>
</g>
</svg>
