<?xml version="1.0" encoding="utf-8"?>
<!-- Generator: Adobe Illustrator 19.0.0, SVG Export Plug-In . SVG Version: 6.00 Build 0)  -->
<svg version="1.1" id="Layer_1" xmlns="http://www.w3.org/2000/svg" xmlns:xlink="http://www.w3.org/1999/xlink" x="0px" y="0px"
	 viewBox="-329 241 132 132" style="enable-background:new -329 241 132 132;" xml:space="preserve">
<style type="text/css">
	.st0{fill:#41D803;}
	.st1{fill:#4D0094;}
	.st2{clip-path:url(#XMLID_2_);fill:#FFFFFF;}
	.st3{clip-path:url(#XMLID_2_);fill:#8CC63F;}
	.st4{fill:#FFFFFF;}
</style>
<title>Untitled-6</title>
<ellipse class="st0" cx="-263.3" cy="306.9" rx="58.9" ry="58.8"/>
<g id="XMLID_659_">
	<circle id="XMLID_671_" class="st1" cx="-263.3" cy="307" r="60.3"/>
	<g id="XMLID_660_">
		<defs>
			<circle id="XMLID_661_" cx="-263.3" cy="307" r="60.3"/>
		</defs>
		<clipPath id="XMLID_2_">
			<use xlink:href="#XMLID_661_"  style="overflow:visible;"/>
		</clipPath>
		<path id="XMLID_665_" class="st2" d="M-234.7,326l-27-13c-1-0.5-2.1-0.5-3.1,0l-27,13c-1.2,0.6-2,1.8-2,3.2v28.1
			c0,1.4,0.8,2.6,2,3.2l27,13c0.5,0.2,1,0.3,1.5,0.3c0.5,0,1-0.1,1.5-0.3l27-13c1.2-0.6,2-1.8,2-3.2v-28.1
			C-232.7,327.8-233.5,326.6-234.7,326z M-263.3,338.2l-6.3-3c3.8-1.8,9.7-4.7,18.7-9.1l6.5,3.1L-263.3,338.2z M-263.3,320.1
			l6.1,2.9c-7.3,3.6-15.4,7.5-18.8,9.1l-6.1-2.9L-263.3,320.1z M-286.8,334.8l20,9.6v20.3l-20-9.6V334.8z M-259.8,364.6v-20.3
			l20-9.6V355L-259.8,364.6z"/>
		<path id="XMLID_662_" class="st3" d="M-243.9,277.4c0-11-9.1-19.8-20.1-19.4c-9.9,0.4-18,8.4-18.6,18.3c-0.2,3.8,0.7,7.3,2.4,10.4
			l0,0c0,0,3.7,7.7,14.3,18.4c1.5,1.5,3.8,1.5,5.3,0c10.7-10.7,14.3-18.4,14.3-18.4l0,0C-244.8,284-243.9,280.8-243.9,277.4z
			 M-263.3,285.4c-4,0-7.3-3.3-7.3-7.3c0-4,3.3-7.3,7.3-7.3s7.3,3.3,7.3,7.3C-256,282.2-259.3,285.4-263.3,285.4z"/>
	</g>
</g>
<g>
	<defs>
		<ellipse id="SVGID_1_" cx="-263.3" cy="306.9" rx="58.9" ry="58.8"/>
	</defs>
	<clipPath id="SVGID_2_">
		<use xlink:href="#SVGID_1_"  style="overflow:visible;"/>
	</clipPath>
</g>
<path class="st4" d="M-263.3,373c-36.5,0-66.1-29.6-66.1-66.1s29.6-66.1,66.1-66.1c36.5,0,66.1,29.6,66.1,66.1
	C-197.2,343.4-226.8,373-263.3,373z M-263.3,255.4c-28.5,0-51.5,23.1-51.5,51.6s23.1,51.5,51.6,51.5c28.4,0,51.5-23.1,51.5-51.5
	C-211.8,278.4-234.8,255.4-263.3,255.4L-263.3,255.4z"/>
</svg>
