<?xml version="1.0" encoding="utf-8"?>
<!-- Generator: Adobe Illustrator 24.1.3, SVG Export Plug-In . SVG Version: 6.00 Build 0)  -->
<svg version="1.1" id="Layer_1" xmlns="http://www.w3.org/2000/svg" xmlns:xlink="http://www.w3.org/1999/xlink" x="0px" y="0px"
	 viewBox="0 0 536 182" style="enable-background:new 0 0 536 182;" xml:space="preserve">
<style type="text/css">
	.st0{fill:#231F20;}
	.st1{clip-path:url(#SVGID_2_);fill:url(#SVGID_3_);}
	.st2{clip-path:url(#SVGID_2_);fill:url(#SVGID_4_);}
	.st3{clip-path:url(#SVGID_2_);fill:url(#SVGID_5_);}
	.st4{clip-path:url(#SVGID_2_);fill:url(#SVGID_6_);}
	.st5{fill:#F9F9F9;}
</style>
<g>
	<path class="st0" d="M529,153c0,12.7-10.32,23-23.06,23H30.4c-12.73,0-23.06-10.3-23.06-23V28.82c0-12.7,10.33-23,23.06-23h475.54
		c12.73,0,23.06,10.3,23.06,23V153z"/>
	<g id="PLAY_2_">
		<defs>
			<path id="SVGID_1_" d="M120.39,80.73L96.87,67.19c0,0-42.85-24.68-45.37-26.13c-2.52-1.45-5.03-0.57-5.03,2.46
				c0,5.05,0,52.69,0,52.69s0,51.48,0,53.76c0,2.27,1.79,3.25,3.98,1.99c2.19-1.26,46.42-26.73,46.42-26.73l23.52-13.54
				c0,0,19.96-11.49,22.61-13.02c2.65-1.53,2.4-3.62,0.16-4.83C140.92,92.64,120.39,80.73,120.39,80.73z"/>
		</defs>
		<clipPath id="SVGID_2_">
			<use xlink:href="#SVGID_1_"  style="overflow:visible;"/>
		</clipPath>
		<linearGradient id="SVGID_3_" gradientUnits="userSpaceOnUse" x1="75.6038" y1="38.5866" x2="75.6038" y2="153.829">
			<stop  offset="0" style="stop-color:#257DB0"/>
			<stop  offset="0.208" style="stop-color:#3C90B3"/>
			<stop  offset="0.7416" style="stop-color:#73BDB9"/>
			<stop  offset="1" style="stop-color:#89CEBC"/>
		</linearGradient>
		<polygon class="st1" points="46.47,38.59 46.47,96.21 46.47,153.83 104.74,96.21 		"/>
		<linearGradient id="SVGID_4_" gradientUnits="userSpaceOnUse" x1="46.4684" y1="67.1881" x2="120.3904" y2="67.1881">
			<stop  offset="0" style="stop-color:#51BFAC"/>
			<stop  offset="1" style="stop-color:#DEE899"/>
		</linearGradient>
		<polygon class="st2" points="120.39,80.73 96.87,67.19 46.47,38.17 46.47,38.59 104.74,96.21 		"/>
		<linearGradient id="SVGID_5_" gradientUnits="userSpaceOnUse" x1="83.4289" y1="96.2088" x2="83.4289" y2="154.2482">
			<stop  offset="0" style="stop-color:#EB403D"/>
			<stop  offset="0.1937" style="stop-color:#D64252"/>
			<stop  offset="0.7369" style="stop-color:#9F4887"/>
			<stop  offset="1" style="stop-color:#894A9C"/>
		</linearGradient>
		<polygon class="st3" points="46.47,153.83 46.47,154.25 96.87,125.23 120.39,111.68 104.74,96.21 		"/>
		<linearGradient id="SVGID_6_" gradientUnits="userSpaceOnUse" x1="126.0051" y1="80.7315" x2="126.0051" y2="111.6841">
			<stop  offset="0" style="stop-color:#F48779"/>
			<stop  offset="0.6121" style="stop-color:#FAB076"/>
			<stop  offset="1" style="stop-color:#FDC674"/>
		</linearGradient>
		<polygon class="st4" points="120.39,80.73 104.74,96.21 120.39,111.68 147.27,96.21 		"/>
	</g>
	<g>
		<path class="st5" d="M413.32,118.74c-2.19,0-4.19-0.4-5.99-1.21c-1.81-0.81-3.33-2.04-4.55-3.71h-0.37
			c0.24,1.96,0.37,3.81,0.37,5.56v13.79h-5.09V84.61h4.14l0.7,4.59h0.24c1.31-1.84,2.83-3.16,4.57-3.98
			c1.74-0.82,3.73-1.22,5.98-1.22c4.46,0,7.9,1.52,10.32,4.56c2.42,3.04,3.63,7.3,3.63,12.78c0,5.5-1.23,9.78-3.69,12.83
			C421.12,117.21,417.7,118.74,413.32,118.74z M412.58,88.31c-3.43,0-5.92,0.95-7.45,2.84c-1.53,1.9-2.32,4.91-2.36,9.05v1.13
			c0,4.71,0.79,8.08,2.36,10.11c1.57,2.03,4.1,3.04,7.57,3.04c2.9,0,5.18-1.17,6.83-3.52c1.64-2.34,2.47-5.58,2.47-9.7
			c0-4.18-0.82-7.39-2.47-9.62C417.89,89.42,415.57,88.31,412.58,88.31z"/>
		<path class="st5" d="M439.06,118.12h-5.09V70.54h5.09V118.12z"/>
		<path class="st5" d="M468.32,118.12l-1.01-4.77h-0.24c-1.68,2.1-3.35,3.52-5.01,4.27c-1.67,0.75-3.75,1.12-6.24,1.12
			c-3.33,0-5.94-0.86-7.83-2.57c-1.89-1.71-2.84-4.15-2.84-7.31c0-6.77,5.43-10.31,16.28-10.64l5.71-0.18v-2.08
			c0-2.63-0.57-4.57-1.7-5.82c-1.13-1.26-2.95-1.88-5.44-1.88c-2.8,0-5.97,0.86-9.51,2.57l-1.56-3.88c1.66-0.9,3.47-1.6,5.44-2.11
			c1.97-0.51,3.95-0.76,5.93-0.76c4.01,0,6.98,0.89,8.91,2.66c1.93,1.77,2.9,4.62,2.9,8.53v22.87H468.32z M456.82,114.55
			c3.17,0,5.66-0.87,7.47-2.6c1.81-1.73,2.71-4.16,2.71-7.28v-3.03l-5.09,0.21c-4.05,0.15-6.96,0.77-8.75,1.88
			c-1.79,1.11-2.68,2.84-2.68,5.18c0,1.83,0.56,3.23,1.67,4.19C453.26,114.07,454.82,114.55,456.82,114.55z"/>
		<path class="st5" d="M475.05,84.61h5.46l7.36,19.11c1.61,4.36,2.62,7.51,3.01,9.45h0.24c0.27-1.04,0.82-2.82,1.67-5.34
			c0.85-2.52,3.62-10.26,8.32-23.22h5.46l-14.44,38.16c-1.43,3.77-3.1,6.45-5.01,8.03c-1.91,1.58-4.26,2.37-7.03,2.37
			c-1.55,0-3.09-0.17-4.6-0.52v-4.07c1.12,0.24,2.38,0.37,3.77,0.37c3.5,0,5.99-1.96,7.48-5.87l1.87-4.77L475.05,84.61z"/>
	</g>
	<g>
		<path class="st5" d="M319.03,87.72c1.62,1.33,4.99,4.14,4.99,9.47c0,5.18-2.95,7.64-5.91,9.95c-0.91,0.91-1.97,1.9-1.97,3.44
			c0,1.54,1.05,2.38,1.83,3.01l2.53,1.96c3.09,2.59,5.9,4.98,5.9,9.82c0,6.59-6.4,13.25-18.48,13.25
			c-10.19,0-15.11-4.84-15.11-10.03c0-2.52,1.26-6.1,5.41-8.55c4.35-2.66,10.26-3.01,13.43-3.23c-0.99-1.26-2.11-2.59-2.11-4.76
			c0-1.19,0.35-1.89,0.7-2.74c-0.78,0.07-1.55,0.14-2.25,0.14c-7.45,0-11.67-5.54-11.67-11c0-3.23,1.48-6.8,4.5-9.39
			c4.01-3.29,8.79-3.86,12.59-3.86h14.48l-4.5,2.52H319.03z M314.04,118.85c-0.56-0.07-0.92-0.07-1.61-0.07
			c-0.63,0-4.43,0.14-7.38,1.13c-1.55,0.56-6.05,2.24-6.05,7.22c0,4.97,4.85,8.56,12.37,8.56c6.74,0,10.33-3.23,10.33-7.57
			C321.7,124.52,319.38,122.64,314.04,118.85z M316.08,105.53c1.61-1.61,1.75-3.85,1.75-5.12c0-5.05-3.02-12.9-8.85-12.9
			c-1.83,0-3.8,0.91-4.92,2.31c-1.19,1.47-1.55,3.36-1.55,5.19c0,4.7,2.74,12.48,8.79,12.48
			C313.06,107.49,314.95,106.65,316.08,105.53z"/>
		<path class="st5" d="M274.78,117.73c-11.16,0-17.12-8.68-17.12-16.52c0-9.17,7.51-17,18.18-17c10.31,0,16.77,8.05,16.77,16.52
			C292.6,108.98,286.22,117.73,274.78,117.73z M283.55,112.06c1.69-2.24,2.11-5.04,2.11-7.77c0-6.16-2.95-17.92-11.65-17.92
			c-2.31,0-4.63,0.91-6.31,2.38c-2.74,2.45-3.23,5.53-3.23,8.54c0,6.92,3.44,18.33,11.93,18.33
			C279.13,115.62,281.94,114.3,283.55,112.06z"/>
		<path class="st5" d="M236.74,117.73c-11.16,0-17.12-8.68-17.12-16.52c0-9.17,7.51-17,18.18-17c10.31,0,16.77,8.05,16.77,16.52
			C254.57,108.98,248.18,117.73,236.74,117.73z M245.51,112.06c1.68-2.24,2.11-5.04,2.11-7.77c0-6.16-2.95-17.92-11.65-17.92
			c-2.31,0-4.63,0.91-6.31,2.38c-2.74,2.45-3.23,5.53-3.23,8.54c0,6.92,3.44,18.33,11.93,18.33
			C241.1,115.62,243.9,114.3,245.51,112.06z"/>
		<path class="st5" d="M214.26,116.63l-10.09,2.32c-4.09,0.63-7.76,1.19-11.64,1.19c-19.48,0-26.88-14.28-26.88-25.47
			c0-13.65,10.51-26.31,28.51-26.31c3.81,0,7.48,0.56,10.79,1.48c5.29,1.48,7.76,3.31,9.31,4.36l-5.86,5.56l-2.47,0.56l1.76-2.81
			c-2.4-2.32-6.78-6.61-15.1-6.61c-11.15,0-19.55,8.45-19.55,20.76c0,13.22,9.6,25.68,24.98,25.68c4.52,0,6.84-0.91,8.96-1.76
			v-11.33l-10.65,0.56l5.64-3.03h14.96l-1.83,1.76c-0.5,0.42-0.57,0.57-0.71,1.12c-0.07,0.63-0.14,2.68-0.14,3.38V116.63z"/>
		<path class="st5" d="M341.33,114.6c-2.33-0.21-2.82-0.63-2.82-3.38v-0.77V71.4c0.01-0.15,0.02-0.31,0.04-0.45
			c0.28-2.46,0.99-2.88,3.18-4.15h-10.09l-5.29,2.53h5.39v0.03l0-0.03v41.12v2.32c0,1.4-0.28,1.62-1.9,3.73h12.49l2.61-1.54
			C343.73,114.81,342.53,114.74,341.33,114.6z"/>
		<path class="st5" d="M370.04,115.25c-0.77,0.42-1.54,0.91-2.31,1.26c-2.32,1.05-4.7,1.33-6.8,1.33c-2.24,0-5.74-0.14-9.32-2.73
			c-4.97-3.5-7.14-9.51-7.14-14.75c0-10.83,8.83-16.14,16.05-16.14c2.52,0,5.12,0.63,7.22,1.96c3.5,2.3,4.41,5.31,4.9,6.91
			l-16.46,6.64l-5.4,0.42c1.75,8.87,7.77,14.04,14.43,14.04c3.57,0,6.17-1.26,8.55-2.44L370.04,115.25z M363.46,94.42
			c1.33-0.49,2.03-0.91,2.03-1.89c0-2.79-3.15-6.01-6.94-6.01c-2.81,0-8.06,2.17-8.06,9.71c0,1.19,0.14,2.45,0.21,3.71L363.46,94.42
			z"/>
		<g>
			<path class="st5" d="M376.81,84.7v4.61h-0.56V84.7h-1.53v-0.48h3.62v0.48H376.81z"/>
			<path class="st5" d="M383.11,89.31v-4.65h-0.03l-1.42,4.65h-0.44l-1.44-4.65h-0.02v4.65h-0.51v-5.09h0.87l1.3,4.11h0.02
				l1.28-4.11h0.89v5.09H383.11z"/>
		</g>
	</g>
	<g>
		<path class="st5" d="M180.62,32.35v16.68c0,1.23,0.03,2.62,0.11,3.56h-2.26l-0.11-2.39h-0.06c-0.77,1.54-2.46,2.71-4.72,2.71
			c-3.34,0-5.92-2.82-5.92-7.01c-0.03-4.59,2.83-7.41,6.2-7.41c2.12,0,3.54,1,4.17,2.11h0.06v-8.24H180.62z M178.1,44.41
			c0-0.31-0.03-0.74-0.11-1.05c-0.37-1.6-1.74-2.91-3.63-2.91c-2.6,0-4.15,2.28-4.15,5.33c0,2.79,1.37,5.1,4.09,5.1
			c1.69,0,3.23-1.11,3.69-2.99c0.09-0.34,0.11-0.68,0.11-1.08V44.41z"/>
		<path class="st5" d="M186.19,46.14c0.06,3.39,2.23,4.79,4.74,4.79c1.8,0,2.89-0.31,3.83-0.71l0.43,1.8
			c-0.89,0.4-2.4,0.86-4.6,0.86c-4.26,0-6.8-2.79-6.8-6.96s2.46-7.44,6.49-7.44c4.52,0,5.72,3.96,5.72,6.5
			c0,0.51-0.06,0.91-0.09,1.17H186.19z M193.56,44.35c0.03-1.6-0.66-4.08-3.49-4.08c-2.54,0-3.66,2.34-3.86,4.08H193.56z"/>
		<path class="st5" d="M198.76,50.02c0.74,0.48,2.06,1,3.32,1c1.83,0,2.69-0.91,2.69-2.05c0-1.2-0.72-1.85-2.57-2.54
			c-2.49-0.88-3.66-2.25-3.66-3.91c0-2.22,1.8-4.05,4.77-4.05c1.4,0,2.63,0.4,3.4,0.86l-0.63,1.82c-0.54-0.34-1.54-0.8-2.83-0.8
			c-1.49,0-2.32,0.86-2.32,1.88c0,1.14,0.83,1.65,2.63,2.34c2.4,0.91,3.63,2.11,3.63,4.16c0,2.42-1.89,4.13-5.17,4.13
			c-1.51,0-2.92-0.37-3.89-0.94L198.76,50.02z"/>
		<path class="st5" d="M220.29,52.07c-0.66,0.34-2.12,0.8-3.97,0.8c-4.17,0-6.89-2.82-6.89-7.04c0-4.25,2.92-7.33,7.43-7.33
			c1.49,0,2.8,0.37,3.49,0.71l-0.57,1.94c-0.6-0.34-1.54-0.66-2.92-0.66c-3.17,0-4.89,2.34-4.89,5.22c0,3.19,2.06,5.16,4.8,5.16
			c1.43,0,2.37-0.37,3.09-0.68L220.29,52.07z"/>
		<path class="st5" d="M230.89,52.59l-0.2-1.74h-0.09c-0.77,1.08-2.26,2.05-4.23,2.05c-2.8,0-4.23-1.97-4.23-3.96
			c0-3.34,2.97-5.16,8.32-5.13v-0.29c0-1.14-0.31-3.19-3.14-3.19c-1.29,0-2.63,0.4-3.6,1.03l-0.57-1.65
			c1.14-0.74,2.8-1.23,4.55-1.23c4.23,0,5.26,2.88,5.26,5.64v5.16c0,1.2,0.06,2.37,0.23,3.31H230.89z M230.52,45.55
			c-2.74-0.06-5.86,0.43-5.86,3.11c0,1.63,1.09,2.39,2.37,2.39c1.8,0,2.94-1.14,3.34-2.31c0.09-0.26,0.14-0.54,0.14-0.8V45.55z
			 M231.78,32.83l-3.49,4.08h-1.8l2.52-4.08H231.78z"/>
		<path class="st5" d="M237.01,43.09c0-1.63-0.03-3.02-0.11-4.31h2.2l0.09,2.71h0.11c0.63-1.85,2.14-3.02,3.83-3.02
			c0.29,0,0.49,0.03,0.71,0.09v2.37c-0.26-0.06-0.51-0.09-0.86-0.09c-1.77,0-3.03,1.34-3.37,3.22c-0.06,0.34-0.11,0.74-0.11,1.17
			v7.36h-2.49V43.09z"/>
		<path class="st5" d="M258.05,38.79c-0.06,1-0.11,2.11-0.11,3.79v8.01c0,3.16-0.63,5.1-1.97,6.3c-1.34,1.25-3.29,1.65-5.03,1.65
			c-1.66,0-3.49-0.4-4.6-1.14l0.63-1.91c0.91,0.57,2.34,1.08,4.06,1.08c2.57,0,4.46-1.34,4.46-4.82v-1.54h-0.06
			c-0.77,1.28-2.26,2.31-4.4,2.31c-3.43,0-5.89-2.91-5.89-6.73c0-4.68,3.06-7.33,6.23-7.33c2.4,0,3.72,1.25,4.32,2.39h0.06
			l0.11-2.08H258.05z M255.44,44.23c0-0.43-0.03-0.8-0.14-1.14c-0.46-1.45-1.69-2.65-3.52-2.65c-2.4,0-4.12,2.02-4.12,5.22
			c0,2.71,1.37,4.96,4.09,4.96c1.54,0,2.94-0.97,3.49-2.57c0.14-0.43,0.2-0.91,0.2-1.34V44.23z"/>
		<path class="st5" d="M269.76,52.59l-0.2-1.74h-0.09c-0.77,1.08-2.26,2.05-4.23,2.05c-2.8,0-4.23-1.97-4.23-3.96
			c0-3.34,2.97-5.16,8.32-5.13v-0.29c0-1.14-0.31-3.19-3.14-3.19c-1.29,0-2.63,0.4-3.6,1.03l-0.57-1.65
			c1.14-0.74,2.8-1.23,4.55-1.23c4.23,0,5.26,2.88,5.26,5.64v5.16c0,1.2,0.06,2.37,0.23,3.31H269.76z M269.39,45.55
			c-2.74-0.06-5.86,0.43-5.86,3.11c0,1.63,1.09,2.39,2.37,2.39c1.8,0,2.94-1.14,3.34-2.31c0.09-0.26,0.14-0.54,0.14-0.8V45.55z"/>
		<path class="st5" d="M275.88,32.35h2.52v20.24h-2.52V32.35z"/>
		<path class="st5" d="M290.29,52.59l-0.2-1.74H290c-0.77,1.08-2.26,2.05-4.23,2.05c-2.8,0-4.23-1.97-4.23-3.96
			c0-3.34,2.97-5.16,8.32-5.13v-0.29c0-1.14-0.31-3.19-3.14-3.19c-1.29,0-2.63,0.4-3.6,1.03l-0.57-1.65
			c1.14-0.74,2.8-1.23,4.55-1.23c4.23,0,5.26,2.88,5.26,5.64v5.16c0,1.2,0.06,2.37,0.23,3.31H290.29z M289.91,45.55
			c-2.74-0.06-5.86,0.43-5.86,3.11c0,1.63,1.09,2.39,2.37,2.39c1.8,0,2.94-1.14,3.34-2.31c0.09-0.26,0.14-0.54,0.14-0.8V45.55z"/>
		<path class="st5" d="M303.86,46.14c0.06,3.39,2.23,4.79,4.74,4.79c1.8,0,2.89-0.31,3.83-0.71l0.43,1.8
			c-0.89,0.4-2.4,0.86-4.6,0.86c-4.26,0-6.8-2.79-6.8-6.96s2.46-7.44,6.49-7.44c4.52,0,5.72,3.96,5.72,6.5
			c0,0.51-0.06,0.91-0.09,1.17H303.86z M311.24,44.35c0.03-1.6-0.66-4.08-3.49-4.08c-2.54,0-3.66,2.34-3.86,4.08H311.24z"/>
		<path class="st5" d="M316.78,42.52c0-1.43-0.03-2.59-0.11-3.74h2.23l0.14,2.28h0.06c0.69-1.31,2.29-2.59,4.57-2.59
			c1.92,0,4.89,1.14,4.89,5.87v8.24h-2.52v-7.95c0-2.22-0.83-4.08-3.2-4.08c-1.66,0-2.94,1.17-3.37,2.57
			c-0.11,0.31-0.17,0.74-0.17,1.17v8.3h-2.52V42.52z"/>
	</g>
</g>
</svg>
