<?xml version="1.0" encoding="utf-8"?>
<!-- Generator: Adobe Illustrator 24.1.3, SVG Export Plug-In . SVG Version: 6.00 Build 0)  -->
<svg version="1.1" id="Layer_1" xmlns="http://www.w3.org/2000/svg" xmlns:xlink="http://www.w3.org/1999/xlink" x="0px" y="0px"
	 viewBox="0 0 22 17" style="enable-background:new 0 0 22 17;" xml:space="preserve">
<style type="text/css">
	.st0{fill:#FFCD00;}
	.st1{fill:#FFFFFF;}
</style>
<g>
	<polygon class="st0" points="19.99,2.35 2.41,2.35 2.41,14.61 19.99,14.61 17.46,8.48 	"/>
	<path id="XMLID_1459_" class="st1" d="M10.34,11.39l0.74,0.39l0.74,0.39c0.22,0.12,0.47,0.08,0.64-0.05
		c0.18-0.13,0.29-0.35,0.24-0.6l-0.14-0.82l-0.14-0.82c-0.02-0.1-0.01-0.2,0.02-0.29c0.03-0.09,0.08-0.18,0.15-0.25l0.6-0.58
		l0.6-0.58c0.18-0.18,0.22-0.42,0.15-0.63c-0.07-0.21-0.24-0.38-0.49-0.42l-0.82-0.12L11.8,6.89c-0.1-0.01-0.19-0.05-0.27-0.11
		c-0.08-0.06-0.14-0.13-0.19-0.22l-0.37-0.75L10.6,5.06c-0.11-0.23-0.33-0.34-0.55-0.34S9.62,4.83,9.5,5.06L9.13,5.81L8.77,6.56
		C8.72,6.65,8.66,6.72,8.58,6.78C8.5,6.84,8.4,6.88,8.3,6.89L7.48,7.01L6.66,7.13C6.4,7.17,6.23,7.34,6.16,7.55
		C6.09,7.76,6.13,8,6.32,8.17l0.6,0.58l0.6,0.58c0.07,0.07,0.12,0.16,0.15,0.25C7.69,9.68,7.7,9.78,7.69,9.88L7.54,10.7L7.4,11.52
		c-0.04,0.25,0.07,0.47,0.24,0.6c0.18,0.13,0.42,0.16,0.64,0.05l0.74-0.39l0.74-0.39c0.09-0.05,0.19-0.07,0.28-0.07
		S10.25,11.34,10.34,11.39z"/>
</g>
</svg>
