<svg id="Layer_1" data-name="Layer 1" xmlns="http://www.w3.org/2000/svg" viewBox="0 0 210 157"><defs><style>.cls-1{fill:#ee3853;}.cls-2{fill:#d51e3d;}.cls-3{fill:#fff;}.cls-4{fill:#9ef27c;}.cls-5{fill:#6cbc46;}.cls-6{fill:#5ba037;}.cls-7{fill:#bbf99d;}</style></defs><title>Untitled-2</title><circle class="cls-1" cx="99.84" cy="88.01" r="55.99"/><path class="cls-2" d="M76.51,71.68a6.39,6.39,0,0,0-6.37-6.37h0a9.54,9.54,0,0,1-9.54-9.54V48.09a56,56,0,0,0,15.72,90.73,6.31,6.31,0,0,0,.19-1.51Z"/><path class="cls-2" d="M155.83,88a56,56,0,0,0-30.27-49.73l-1.48,4.79v95.42A56,56,0,0,0,155.83,88Z"/><path class="cls-3" d="M99.84,87.68h0a3.24,3.24,0,0,1-3.23-2.93l-.27-4.38L96.07,76a3.77,3.77,0,0,1,3.77-4h0a3.77,3.77,0,0,1,3.77,4l-.27,4.37-.28,4.38a3.23,3.23,0,0,1-1,2.09A3.27,3.27,0,0,1,99.84,87.68Z"/><path class="cls-3" d="M105.88,90.12h0a3.22,3.22,0,0,1-.69-4.3l2.51-3.59,2.51-3.59a3.76,3.76,0,0,1,2.56-1.58,3.8,3.8,0,0,1,2.9.79h0a3.77,3.77,0,0,1,.44,5.49l-2.94,3.25-2.94,3.25a3.24,3.24,0,0,1-4.35.28Z"/><path class="cls-3" d="M93.8,90.12h0a3.22,3.22,0,0,0,.69-4.3L92,82.23l-2.51-3.59A3.78,3.78,0,0,0,84,77.85h0a3.77,3.77,0,0,0-.44,5.49l2.94,3.25,2.94,3.25a3.24,3.24,0,0,0,4.35.28Z"/><path class="cls-4" d="M61.67,65.31h0a9.55,9.55,0,0,1-9.55-9.54V28.56a2,2,0,0,0-2-2H27.22a2,2,0,0,0-2,2V55.77a9.54,9.54,0,0,1-9.54,9.54h0a6.39,6.39,0,0,0-6.37,6.37v65.63a6.38,6.38,0,0,0,6.37,6.36h46A6.38,6.38,0,0,0,68,137.31V71.68A6.38,6.38,0,0,0,61.67,65.31Z"/><path class="cls-5" d="M52.28,29.86H25.1a2.33,2.33,0,0,1-1.67-.69,2.36,2.36,0,0,1-.7-1.67V22.4a3.55,3.55,0,0,1,3.55-3.55H51.1a3.55,3.55,0,0,1,3.54,3.55v5.1a2.36,2.36,0,0,1-2.36,2.36Z"/><circle class="cls-5" cx="35.23" cy="95.85" r="3.46"/><circle class="cls-5" cx="61.6" cy="95.85" r="3.46"/><path class="cls-5" d="M40.68,108.72a2.12,2.12,0,0,1-.25-4.23l15.73-1.9a2.12,2.12,0,1,1,.51,4.2L40.94,108.7Z"/><polygon class="cls-4" points="190.53 143.54 161.54 143.54 132.55 143.54 132.55 93.3 132.55 43.07 161.54 43.07 190.53 43.07 190.53 93.3 190.53 143.54"/><polygon class="cls-5" points="202.61 143.54 196.57 143.54 190.53 143.54 190.53 93.3 190.53 43.07 196.57 43.07 202.61 43.07 202.61 93.3 202.61 143.54"/><polygon class="cls-5" points="144.63 43.07 173.62 43.07 202.61 43.07 199.59 33.31 196.57 23.56 167.58 23.56 138.59 23.56 141.61 33.31 144.63 43.07"/><polygon class="cls-6" points="202.61 43.07 196.57 38.98 190.53 34.88 190.53 38.98 190.53 43.07 196.57 43.07 202.61 43.07"/><polygon class="cls-7" points="190.53 43.07 161.54 43.07 132.55 43.07 135.57 33.31 138.59 23.56 167.58 23.56 196.57 23.56 193.55 33.31 190.53 43.07"/><path class="cls-4" d="M189.05,12.55H146.11a7.51,7.51,0,0,0-7.52,7.52v3.49h58V20.07a7.51,7.51,0,0,0-7.52-7.52Z"/><circle class="cls-5" cx="140.77" cy="84.55" r="3.46"/><circle class="cls-5" cx="167.14" cy="84.55" r="3.46"/><path class="cls-5" d="M162.86,95.94a9.17,9.17,0,0,0-18,0A1.85,1.85,0,0,0,146.47,98l.25,0a1.86,1.86,0,0,0,1.84-1.59,5.47,5.47,0,0,1,10.62,0A1.86,1.86,0,0,0,161,98l.24,0A1.86,1.86,0,0,0,162.86,95.94Z"/></svg>