<svg id="Layer_1" data-name="Layer 1" xmlns="http://www.w3.org/2000/svg" viewBox="0 0 153 152"><defs><style>.cls-1{fill:#8ac441;}.cls-2{fill:#fff;}.cls-3{fill:#6e9a40;}</style></defs><title>Untitled-1</title><rect class="cls-1" x="-0.29" y="-0.01" width="152.84" height="152.84"/><path class="cls-2" d="M94.38,94.21A20.42,20.42,0,0,1,81.24,78.37C78.42,61.84,93.13,51.86,108,52.64L108,28.08l-73.45.13.11,63.58,28.66,28.55,44.85-.08,0-25.95C104.06,96.39,98.75,95.82,94.38,94.21Z"/><polygon class="cls-3" points="63.31 120.34 34.65 91.79 63.26 91.73 63.31 120.34"/><path class="cls-2" d="M135.62,103,121.41,88.81a25.64,25.64,0,1,0-4.31,4.32l14.21,14.17a3.07,3.07,0,0,0,4.32,0h0A3.07,3.07,0,0,0,135.62,103ZM113.25,85a17,17,0,1,1,0-24.07A17,17,0,0,1,113.25,85Z"/><path class="cls-2" d="M113.17,73a12,12,0,0,0-12-12l0,24A12,12,0,0,0,113.17,73Z"/><rect class="cls-2" x="128.82" y="91.57" width="10.79" height="28.61" rx="3.67" transform="translate(-35.52 126.21) rotate(-45.1)"/></svg>