<?xml version="1.0" encoding="utf-8"?>
<!-- Generator: Adobe Illustrator 24.1.3, SVG Export Plug-In . SVG Version: 6.00 Build 0)  -->
<svg version="1.1" id="Layer_1" xmlns="http://www.w3.org/2000/svg" xmlns:xlink="http://www.w3.org/1999/xlink" x="0px" y="0px"
	 viewBox="0 0 490 120" style="enable-background:new 0 0 490 120;" xml:space="preserve">
<style type="text/css">
	.st0{fill:url(#SVGID_1_);}
	.st1{fill:#FFFFFF;}
	.st2{fill:#3F087F;}
	.st3{opacity:0.5;}
	.st4{fill:#919191;}
	.st5{fill:#630DB5;}
</style>
<g>
	<linearGradient id="SVGID_1_" gradientUnits="userSpaceOnUse" x1="-0.0196" y1="60.1429" x2="603.1741" y2="60.1429">
		<stop  offset="0" style="stop-color:#39B54A"/>
		<stop  offset="1" style="stop-color:#8CC63F"/>
	</linearGradient>
	<path class="st0" d="M482.33,114.56H7.56V11.77c0-3.34,2.71-6.05,6.05-6.05h462.67c3.34,0,6.05,2.71,6.05,6.05V114.56z"/>
	<g>
		<g>
			<ellipse class="st1" cx="49.33" cy="67.29" rx="5.02" ry="10.62"/>
			<g>
				<g>
					<path class="st1" d="M74.53,96.31c0-11.96,6.6-22.37,16.36-27.8c-5.78-4.57-9.5-11.64-9.5-19.58
						c0-13.78,11.17-24.95,24.95-24.95c13.78,0,24.95,11.17,24.95,24.95c0,7.94-3.72,15.01-9.5,19.58
						c9.75,5.43,16.36,15.85,16.36,27.8H74.53z"/>
					<path class="st2" d="M138.15,99.86H74.53c-1.96,0-3.55-1.59-3.55-3.55c0-11.22,5.34-21.69,14.18-28.31
						c-4.7-5.2-7.32-11.93-7.32-19.07c0-15.72,12.79-28.5,28.5-28.5s28.5,12.79,28.5,28.5c0,7.14-2.62,13.88-7.32,19.07
						c8.85,6.63,14.18,17.1,14.18,28.31C141.7,98.27,140.11,99.86,138.15,99.86z M78.3,92.76h56.07
						c-1.12-8.84-6.39-16.74-14.31-21.15c-1.04-0.58-1.72-1.63-1.81-2.82c-0.09-1.18,0.41-2.33,1.34-3.07
						c5.18-4.09,8.15-10.21,8.15-16.8c0-11.8-9.6-21.4-21.4-21.4s-21.4,9.6-21.4,21.4c0,6.58,2.97,12.7,8.15,16.8
						c0.93,0.74,1.43,1.89,1.34,3.07c-0.09,1.18-0.77,2.24-1.81,2.82C84.69,76.02,79.42,83.92,78.3,92.76z"/>
				</g>
				<circle class="st2" cx="118.72" cy="40.07" r="3.75"/>
				<circle class="st2" cx="104.97" cy="40.07" r="3.75"/>
				<path class="st2" d="M112.24,53.23c-4.61,0-8.19-1.95-8.41-2.07c-1.14-0.63-1.55-2.08-0.92-3.22c0.63-1.14,2.07-1.55,3.21-0.92
					c0.1,0.05,6.1,3.23,11.38,0.05c1.12-0.68,2.57-0.32,3.25,0.8c0.68,1.12,0.32,2.57-0.8,3.25
					C117.31,52.71,114.64,53.23,112.24,53.23z"/>
			</g>
			<g class="st3">
				<path class="st4" d="M119.08,96.31c0-11.22-5.34-21.69-14.18-28.31c4.7-5.2,7.32-11.93,7.32-19.07
					c0-11.7-7.09-21.77-17.19-26.16c-10.11,4.39-17.19,14.46-17.19,26.16c0,7.14,2.62,13.88,7.32,19.07
					c-8.85,6.63-14.18,17.1-14.18,28.31c0,1.96,1.59,3.55,3.55,3.55h41.01C117.49,99.86,119.08,98.27,119.08,96.31z"/>
			</g>
			<g>
				<g>
					<path class="st1" d="M108.21,96.31c0-11.96-6.6-22.37-16.36-27.8c5.78-4.57,9.5-11.64,9.5-19.58
						c0-13.78-11.17-24.95-24.95-24.95c-13.78,0-24.95,11.17-24.95,24.95c0,7.94,3.72,15.01,9.5,19.58
						c-9.75,5.43-16.36,15.85-16.36,27.8H108.21z"/>
					<path class="st5" d="M108.21,99.86H44.59c-1.96,0-3.55-1.59-3.55-3.55c0-11.22,5.34-21.69,14.18-28.31
						c-4.7-5.2-7.32-11.93-7.32-19.07c0-15.72,12.79-28.5,28.5-28.5s28.5,12.79,28.5,28.5c0,7.14-2.62,13.88-7.32,19.07
						c8.85,6.63,14.18,17.1,14.18,28.31C111.76,98.27,110.17,99.86,108.21,99.86z M48.36,92.76h56.07
						c-1.12-8.84-6.39-16.74-14.31-21.15c-1.04-0.58-1.72-1.63-1.81-2.82c-0.09-1.18,0.41-2.33,1.34-3.07
						c5.18-4.09,8.15-10.22,8.15-16.8c0-11.8-9.6-21.4-21.4-21.4S55,37.12,55,48.93c0,6.58,2.97,12.7,8.15,16.8
						c0.93,0.74,1.43,1.89,1.34,3.07c-0.1,1.18-0.77,2.24-1.81,2.82C54.75,76.02,49.48,83.92,48.36,92.76z"/>
				</g>
				<circle class="st5" cx="88.78" cy="40.07" r="3.75"/>
				<circle class="st5" cx="75.04" cy="40.07" r="3.75"/>
				<path class="st5" d="M82.3,53.23c-4.61,0-8.19-1.95-8.41-2.07c-1.14-0.63-1.55-2.08-0.92-3.22c0.63-1.14,2.07-1.55,3.21-0.92
					c0.1,0.05,6.1,3.23,11.38,0.05c1.12-0.68,2.57-0.32,3.25,0.8c0.68,1.12,0.32,2.57-0.8,3.25C87.38,52.71,84.7,53.23,82.3,53.23z"
					/>
			</g>
			<g class="st3">
				<path class="st4" d="M53.27,65.29c1.2-0.51,1.62-0.46,3.01-0.46c1.39,0,2.71,0.28,3.91,0.79c1.2,0.51,2.29,1.24,3.2,2.15
					c0.91,0.91,1.65,1.99,2.15,3.2c0.51,1.2,0.79,2.52,0.79,3.91s-0.28,2.71-0.79,3.91c-0.51,1.2-1.24,2.29-2.15,3.2
					c-0.91,0.91-1.99,1.65-3.2,2.15c-1.2,0.51-2.52,0.79-3.91,0.79c-1.39,0-2.71-0.28-3.91-0.79c-1.2-0.51-2.29-1.24-3.2-2.15
					s-1.65-1.99-2.15-3.2c-0.51-1.2-0.79-2.52-0.79-3.91"/>
				<path class="st4" d="M57.7,88.65c-1.68,0-3.3-0.33-4.83-0.98c-1.48-0.62-2.81-1.52-3.95-2.66c-1.14-1.14-2.03-2.47-2.66-3.95
					c-0.65-1.53-0.98-3.16-0.98-4.83c0-1.31,1.06-2.37,2.37-2.37s2.37,1.06,2.37,2.37c0,1.04,0.2,2.05,0.6,2.99
					c0.39,0.91,0.94,1.74,1.65,2.44c0.71,0.71,1.53,1.26,2.44,1.65c1.89,0.8,4.09,0.8,5.98,0c0.92-0.39,1.74-0.94,2.44-1.65
					c0.71-0.71,1.26-1.53,1.65-2.44c0.4-0.95,0.6-1.95,0.6-2.99s-0.2-2.04-0.6-2.99c-0.39-0.92-0.94-1.74-1.65-2.44
					c-0.71-0.71-1.53-1.26-2.44-1.65c-0.95-0.4-1.95-0.6-2.99-0.6l-0.34,0c-1.03,0-1.09,0-1.75,0.27c-1.2,0.51-2.59-0.05-3.1-1.26
					c-0.51-1.2,0.05-2.59,1.26-3.1c1.48-0.62,2.25-0.65,3.6-0.65l0.33,0c1.67,0,3.3,0.33,4.83,0.98c1.48,0.63,2.81,1.52,3.95,2.66
					c1.14,1.14,2.03,2.47,2.66,3.95c0.65,1.53,0.98,3.16,0.98,4.83s-0.33,3.3-0.98,4.83c-0.63,1.48-1.52,2.81-2.66,3.95
					c-1.14,1.14-2.47,2.04-3.95,2.66C61,88.32,59.37,88.65,57.7,88.65z"/>
			</g>
			<g>
				<path class="st1" d="M51.6,63.62c1.2-0.51,1.62-0.46,3.01-0.46c1.39,0,2.71,0.28,3.91,0.79c1.2,0.51,2.29,1.24,3.2,2.15
					c0.91,0.91,1.65,1.99,2.15,3.2c0.51,1.2,0.79,2.52,0.79,3.91c0,1.39-0.28,2.71-0.79,3.91s-1.24,2.29-2.15,3.2
					c-0.91,0.91-1.99,1.65-3.2,2.15c-1.2,0.51-2.52,0.79-3.91,0.79c-1.39,0-2.71-0.28-3.91-0.79c-1.2-0.51-2.29-1.24-3.2-2.15
					c-0.91-0.91-1.65-1.99-2.15-3.2s-0.79-2.52-0.79-3.91"/>
				<path class="st2" d="M54.61,85.63c-1.68,0-3.3-0.33-4.83-0.98c-1.48-0.62-2.81-1.52-3.95-2.66c-1.14-1.14-2.03-2.47-2.66-3.95
					c-0.65-1.53-0.98-3.16-0.98-4.83c0-1.31,1.06-2.37,2.37-2.37c1.31,0,2.37,1.06,2.37,2.37c0,1.04,0.2,2.05,0.6,2.99
					c0.39,0.91,0.94,1.74,1.65,2.44c0.71,0.71,1.53,1.26,2.44,1.65c1.89,0.8,4.09,0.8,5.98,0c0.92-0.39,1.74-0.94,2.44-1.65
					c0.71-0.71,1.26-1.53,1.65-2.44c0.4-0.95,0.6-1.95,0.6-2.99s-0.2-2.04-0.6-2.99c-0.39-0.92-0.94-1.74-1.65-2.44
					c-0.71-0.71-1.53-1.26-2.44-1.65c-0.95-0.4-1.95-0.6-2.99-0.6l-0.34,0c-1.03,0-1.09,0-1.75,0.27c-1.2,0.51-2.59-0.05-3.1-1.26
					c-0.51-1.2,0.05-2.59,1.26-3.1c1.48-0.62,2.25-0.65,3.6-0.65l0.33,0c1.67,0,3.3,0.33,4.83,0.98c1.48,0.63,2.81,1.52,3.95,2.66
					c1.14,1.14,2.03,2.47,2.66,3.95c0.65,1.53,0.98,3.16,0.98,4.83s-0.33,3.3-0.98,4.83c-0.63,1.48-1.52,2.81-2.66,3.95
					c-1.14,1.14-2.47,2.04-3.95,2.66C57.91,85.3,56.29,85.63,54.61,85.63z"/>
			</g>
			<path class="st2" d="M49.33,58.12c-0.13-0.38-0.25-0.76-0.36-1.14c-0.25-0.86-0.45-1.69-0.61-2.47c-0.3-1.48-0.44-2.8-0.5-3.91
				c-1.97,3.07-7.02,10.82-5.64,23.48c0.13,1.23,1.14,2.15,2.35,2.15c0.07,0,0.15,0,0.22-0.01c1.3-0.12,2.26-1.27,2.14-2.57
				C46.36,67.3,47.79,61.9,49.33,58.12z"/>
		</g>
	</g>
	<path class="st1" d="M137.79,59.05h-2.16v-2.16c0-0.54-0.44-0.99-0.99-0.99h-1.5c-0.55,0-0.99,0.44-0.99,0.99v2.16h-2.16
		c-0.55,0-0.99,0.44-0.99,0.99v1.5c0,0.54,0.44,0.99,0.99,0.99h2.16v2.16c0,0.54,0.44,0.99,0.99,0.99h1.5
		c0.54,0,0.99-0.44,0.99-0.99v-2.16h2.16c0.54,0,0.99-0.44,0.99-0.99v-1.5C138.77,59.5,138.33,59.05,137.79,59.05z"/>
	<path class="st1" d="M153.01,45.87h-3.5v-3.5c0-0.88-0.72-1.6-1.6-1.6h-2.43c-0.88,0-1.6,0.72-1.6,1.6v3.5h-3.5
		c-0.88,0-1.6,0.72-1.6,1.6v2.43c0,0.88,0.72,1.6,1.6,1.6h3.5V55c0,0.88,0.72,1.6,1.6,1.6h2.43c0.88,0,1.6-0.72,1.6-1.6v-3.5h3.5
		c0.88,0,1.6-0.72,1.6-1.6v-2.43C154.61,46.59,153.9,45.87,153.01,45.87z"/>
	<path class="st1" d="M45.4,27.88h-4.2v-4.2c0-1.06-0.86-1.92-1.92-1.92h-2.92c-1.06,0-1.92,0.86-1.92,1.92v4.2h-4.2
		c-1.06,0-1.92,0.86-1.92,1.92v2.92c0,1.06,0.86,1.92,1.92,1.92h4.2v4.2c0,1.06,0.86,1.92,1.92,1.92h2.92
		c1.06,0,1.92-0.86,1.92-1.92v-4.2h4.2c1.06,0,1.92-0.86,1.92-1.92V29.8C47.32,28.74,46.46,27.88,45.4,27.88z"/>
	<g>
		<g>
			<path class="st1" d="M202.2,71.47c-0.62,0.51-1.24,0.91-1.87,1.21s-1.28,0.51-1.95,0.63c-0.67,0.12-1.4,0.18-2.17,0.18
				c-1.17,0-2.21-0.2-3.11-0.6c-0.9-0.4-1.65-0.96-2.26-1.69c-0.61-0.73-1.07-1.6-1.38-2.62c-0.31-1.02-0.47-2.14-0.47-3.37
				c0-1.64,0.26-3.21,0.77-4.72c0.51-1.51,1.23-2.84,2.15-4s2.01-2.09,3.28-2.78s2.66-1.04,4.18-1.04c1.33,0,2.45,0.24,3.36,0.71
				c0.91,0.47,1.7,1.16,2.38,2.07l-1.12,1.34c-0.08,0.11-0.18,0.19-0.3,0.26c-0.12,0.07-0.25,0.1-0.4,0.1
				c-0.19,0-0.37-0.08-0.55-0.25c-0.18-0.17-0.41-0.35-0.7-0.56c-0.29-0.21-0.65-0.39-1.08-0.56s-0.99-0.25-1.67-0.25
				c-0.92,0-1.79,0.25-2.61,0.75c-0.82,0.5-1.54,1.18-2.15,2.05c-0.61,0.87-1.1,1.89-1.45,3.08s-0.53,2.46-0.53,3.82
				c0,0.83,0.09,1.58,0.28,2.25c0.19,0.67,0.47,1.25,0.84,1.72s0.83,0.84,1.37,1.1s1.17,0.39,1.89,0.39c0.6,0,1.13-0.06,1.6-0.19
				s0.88-0.28,1.24-0.47c0.36-0.19,0.68-0.39,0.95-0.61c0.27-0.22,0.52-0.42,0.74-0.61c0.22-0.19,0.42-0.34,0.6-0.47
				c0.18-0.13,0.36-0.19,0.55-0.19c0.27,0,0.49,0.11,0.68,0.34l0.88,1.08C203.48,70.33,202.82,70.96,202.2,71.47z"/>
			<path class="st1" d="M213.75,73.49c-1.11,0-2.12-0.19-3.04-0.57s-1.71-0.93-2.38-1.65c-0.67-0.72-1.19-1.6-1.56-2.64
				c-0.37-1.04-0.56-2.23-0.56-3.56c0-1.71,0.27-3.31,0.8-4.82s1.26-2.83,2.19-3.96c0.93-1.13,2.02-2.03,3.28-2.68
				c1.26-0.65,2.62-0.98,4.09-0.98c1.11,0,2.12,0.19,3.04,0.57s1.71,0.93,2.38,1.65c0.67,0.72,1.19,1.6,1.56,2.65
				s0.56,2.23,0.56,3.55c0,1.69-0.27,3.29-0.8,4.8c-0.53,1.51-1.26,2.83-2.19,3.96c-0.93,1.13-2.02,2.03-3.29,2.69
				S215.21,73.49,213.75,73.49z M214.07,70.71c0.97,0,1.86-0.27,2.66-0.8c0.8-0.53,1.48-1.24,2.04-2.13
				c0.56-0.89,0.99-1.91,1.3-3.07s0.46-2.37,0.46-3.64c0-1.87-0.37-3.27-1.1-4.22c-0.73-0.95-1.79-1.42-3.18-1.42
				c-0.99,0-1.88,0.26-2.67,0.79c-0.79,0.53-1.47,1.23-2.03,2.12c-0.56,0.89-0.99,1.91-1.3,3.07s-0.46,2.37-0.46,3.64
				c0,1.87,0.36,3.28,1.09,4.23S212.67,70.71,214.07,70.71z"/>
			<path class="st1" d="M240.33,73.21c-0.47,0-0.78-0.12-0.95-0.36c-0.17-0.24-0.25-0.53-0.25-0.88l0.38-4.22
				c-0.51,0.87-1.06,1.65-1.66,2.36c-0.6,0.71-1.23,1.31-1.89,1.81s-1.35,0.89-2.06,1.16c-0.71,0.27-1.44,0.41-2.17,0.41
				c-1.73,0-3.08-0.63-4.03-1.89c-0.95-1.26-1.43-3.09-1.43-5.49c0-1.09,0.11-2.19,0.34-3.28c0.23-1.09,0.55-2.14,0.97-3.14
				s0.93-1.93,1.52-2.79c0.59-0.86,1.25-1.6,1.98-2.23c0.73-0.63,1.52-1.12,2.37-1.48c0.85-0.36,1.75-0.54,2.68-0.54
				c0.99,0,1.89,0.19,2.71,0.58c0.82,0.39,1.52,0.94,2.09,1.66l1.38-11.14h3.5l-3.64,29.46H240.33z M233.07,70.63
				c0.64,0,1.28-0.2,1.93-0.59c0.65-0.39,1.27-0.94,1.88-1.64c0.61-0.7,1.17-1.53,1.7-2.5c0.53-0.97,0.98-2.02,1.37-3.17l0.66-5.36
				c-0.51-0.71-1.11-1.21-1.82-1.5c-0.71-0.29-1.42-0.44-2.14-0.44c-1.05,0-2,0.31-2.85,0.94s-1.57,1.44-2.16,2.43
				c-0.59,0.99-1.05,2.1-1.37,3.33c-0.32,1.23-0.48,2.43-0.48,3.62c0,1.59,0.29,2.8,0.86,3.63
				C231.23,70.21,232.03,70.63,233.07,70.63z"/>
			<path class="st1" d="M254.09,52.95l-2.44,20.26h-3.5l2.44-20.26H254.09z M255.43,46.59c0,0.35-0.07,0.67-0.21,0.97
				c-0.14,0.3-0.33,0.57-0.56,0.8s-0.5,0.42-0.79,0.55c-0.29,0.13-0.6,0.2-0.92,0.2c-0.31,0-0.61-0.07-0.9-0.2
				c-0.29-0.13-0.55-0.32-0.77-0.55s-0.4-0.5-0.53-0.8c-0.13-0.3-0.2-0.62-0.2-0.97s0.07-0.67,0.2-0.98
				c0.13-0.31,0.31-0.58,0.54-0.81s0.49-0.42,0.78-0.56c0.29-0.14,0.59-0.21,0.9-0.21c0.32,0,0.63,0.07,0.92,0.2
				c0.29,0.13,0.56,0.32,0.79,0.55c0.23,0.23,0.42,0.51,0.55,0.82C255.37,45.91,255.43,46.24,255.43,46.59z"/>
			<path class="st1" d="M272.31,58.57c-0.01,0.67-0.1,1.27-0.25,1.8s-0.34,1.03-0.57,1.48c-0.23,0.45-0.47,0.88-0.74,1.28
				s-0.51,0.8-0.74,1.2c-0.23,0.4-0.42,0.81-0.57,1.23c-0.15,0.42-0.23,0.88-0.23,1.37c0,0.56,0.14,1.07,0.41,1.52
				s0.57,0.92,0.9,1.4c0.33,0.48,0.63,1,0.9,1.57c0.27,0.57,0.41,1.24,0.41,2.01c0,0.95-0.22,1.84-0.66,2.69
				c-0.44,0.85-1.07,1.6-1.88,2.25s-1.8,1.17-2.97,1.55c-1.17,0.38-2.48,0.57-3.93,0.57c-1.16,0-2.22-0.12-3.17-0.36
				s-1.77-0.58-2.44-1.02c-0.67-0.44-1.19-0.97-1.56-1.59c-0.37-0.62-0.55-1.3-0.55-2.05c0-1.05,0.27-1.96,0.82-2.72
				c0.55-0.76,1.27-1.39,2.16-1.88c0.89-0.49,1.91-0.85,3.05-1.08c1.14-0.23,2.3-0.34,3.49-0.34c0.48,0,0.96,0.02,1.43,0.06
				c0.47,0.04,0.94,0.09,1.41,0.16c-0.12-0.25-0.22-0.52-0.29-0.79s-0.11-0.57-0.11-0.89c0-0.41,0.06-0.84,0.19-1.28
				c0.13-0.44,0.34-0.93,0.63-1.48c-0.51,0.35-1.07,0.61-1.7,0.8s-1.34,0.28-2.14,0.28c-0.77,0-1.5-0.13-2.17-0.38
				c-0.67-0.25-1.26-0.63-1.77-1.12c-0.51-0.49-0.91-1.11-1.2-1.85s-0.44-1.6-0.44-2.59c0-0.96,0.18-1.9,0.53-2.83
				c0.35-0.93,0.87-1.75,1.55-2.48c0.68-0.73,1.52-1.31,2.52-1.75c1-0.44,2.15-0.66,3.46-0.66c1.47,0,2.74,0.35,3.82,1.04h5.5
				l-0.16,1.18c-0.03,0.23-0.1,0.43-0.23,0.62c-0.13,0.19-0.32,0.3-0.57,0.34l-2.52,0.44c0.12,0.35,0.21,0.71,0.28,1.09
				C272.28,57.74,272.31,58.14,272.31,58.57z M268.59,73.71c0-0.35-0.03-0.67-0.1-0.97c-0.07-0.3-0.15-0.58-0.26-0.85
				c-0.72-0.12-1.4-0.21-2.03-0.26c-0.63-0.05-1.23-0.08-1.79-0.08c-1.09,0-2.04,0.1-2.84,0.29c-0.8,0.19-1.46,0.45-1.98,0.77
				c-0.52,0.32-0.91,0.69-1.16,1.11c-0.25,0.42-0.38,0.86-0.38,1.31c0,0.96,0.4,1.69,1.21,2.2s1.95,0.76,3.43,0.76
				c0.88,0,1.68-0.12,2.41-0.35s1.35-0.54,1.86-0.93c0.51-0.39,0.91-0.84,1.2-1.36C268.45,74.83,268.59,74.28,268.59,73.71z
				 M264.59,64.07c0.72,0,1.35-0.16,1.9-0.47c0.55-0.31,1.01-0.73,1.39-1.24c0.38-0.51,0.67-1.09,0.87-1.73s0.3-1.29,0.3-1.94
				c0-1.17-0.3-2.06-0.89-2.66c-0.59-0.6-1.41-0.9-2.45-0.9c-0.72,0-1.35,0.15-1.9,0.44c-0.55,0.29-1.01,0.69-1.38,1.18
				s-0.66,1.05-0.85,1.68c-0.19,0.63-0.29,1.28-0.29,1.96c0,1.2,0.29,2.11,0.87,2.74S263.55,64.07,264.59,64.07z"/>
			<path class="st1" d="M283.21,73.49c-1.11,0-2.12-0.19-3.04-0.57s-1.71-0.93-2.38-1.65c-0.67-0.72-1.19-1.6-1.56-2.64
				s-0.56-2.23-0.56-3.56c0-1.71,0.27-3.31,0.8-4.82s1.26-2.83,2.19-3.96c0.93-1.13,2.02-2.03,3.28-2.68s2.62-0.98,4.09-0.98
				c1.11,0,2.12,0.19,3.04,0.57s1.71,0.93,2.38,1.65c0.67,0.72,1.19,1.6,1.56,2.65c0.37,1.05,0.56,2.23,0.56,3.55
				c0,1.69-0.27,3.29-0.8,4.8c-0.53,1.51-1.26,2.83-2.19,3.96c-0.93,1.13-2.02,2.03-3.29,2.69
				C286.02,73.16,284.67,73.49,283.21,73.49z M283.53,70.71c0.97,0,1.86-0.27,2.66-0.8s1.48-1.24,2.04-2.13
				c0.56-0.89,0.99-1.91,1.3-3.07s0.46-2.37,0.46-3.64c0-1.87-0.37-3.27-1.1-4.22c-0.73-0.95-1.79-1.42-3.18-1.42
				c-0.99,0-1.88,0.26-2.67,0.79c-0.79,0.53-1.47,1.23-2.03,2.12c-0.56,0.89-0.99,1.91-1.3,3.07c-0.31,1.16-0.46,2.37-0.46,3.64
				c0,1.87,0.36,3.28,1.09,4.23C281.07,70.23,282.13,70.71,283.53,70.71z"/>
			<path class="st1" d="M317.51,73.21c-0.47,0-0.78-0.12-0.95-0.36c-0.17-0.24-0.25-0.53-0.25-0.88l0.38-4.22
				c-0.51,0.87-1.06,1.65-1.66,2.36c-0.6,0.71-1.23,1.31-1.89,1.81s-1.35,0.89-2.06,1.16c-0.71,0.27-1.44,0.41-2.17,0.41
				c-1.73,0-3.08-0.63-4.03-1.89c-0.95-1.26-1.43-3.09-1.43-5.49c0-1.09,0.11-2.19,0.34-3.28c0.23-1.09,0.55-2.14,0.97-3.14
				s0.93-1.93,1.52-2.79c0.59-0.86,1.25-1.6,1.98-2.23s1.52-1.12,2.37-1.48c0.85-0.36,1.75-0.54,2.68-0.54
				c0.99,0,1.89,0.19,2.71,0.58c0.82,0.39,1.52,0.94,2.09,1.66l1.38-11.14h3.5l-3.64,29.46H317.51z M310.25,70.63
				c0.64,0,1.28-0.2,1.93-0.59s1.27-0.94,1.88-1.64c0.61-0.7,1.17-1.53,1.7-2.5s0.98-2.02,1.37-3.17l0.66-5.36
				c-0.51-0.71-1.11-1.21-1.82-1.5s-1.42-0.44-2.14-0.44c-1.05,0-2,0.31-2.85,0.94s-1.57,1.44-2.16,2.43
				c-0.59,0.99-1.05,2.1-1.37,3.33c-0.32,1.23-0.48,2.43-0.48,3.62c0,1.59,0.29,2.8,0.86,3.63
				C308.4,70.21,309.21,70.63,310.25,70.63z"/>
			<path class="st1" d="M341.05,57.29c0,0.88-0.18,1.69-0.54,2.43c-0.36,0.74-1.02,1.41-1.98,2c-0.96,0.59-2.28,1.11-3.96,1.55
				c-1.68,0.44-3.84,0.79-6.48,1.06c-0.01,0.15-0.02,0.29-0.02,0.43c0,0.14,0,0.28,0,0.43c0,1.79,0.39,3.15,1.17,4.09
				c0.78,0.94,1.96,1.41,3.53,1.41c0.64,0,1.21-0.07,1.71-0.2c0.5-0.13,0.95-0.3,1.34-0.49s0.74-0.41,1.04-0.64s0.58-0.45,0.83-0.64
				c0.25-0.19,0.49-0.36,0.7-0.49c0.21-0.13,0.43-0.2,0.64-0.2c0.24,0,0.46,0.11,0.66,0.34l0.88,1.1c-0.68,0.71-1.34,1.31-1.99,1.81
				s-1.31,0.92-1.99,1.25c-0.68,0.33-1.39,0.58-2.13,0.73c-0.74,0.15-1.54,0.23-2.39,0.23c-1.16,0-2.2-0.19-3.12-0.58
				s-1.7-0.94-2.34-1.65c-0.64-0.71-1.13-1.58-1.48-2.59c-0.35-1.01-0.52-2.15-0.52-3.4c0-1.04,0.11-2.08,0.33-3.11
				s0.54-2.02,0.96-2.95s0.93-1.8,1.54-2.6c0.61-0.8,1.3-1.49,2.08-2.07s1.64-1.04,2.58-1.37c0.94-0.33,1.95-0.5,3.03-0.5
				c1.03,0,1.91,0.15,2.66,0.44c0.75,0.29,1.36,0.67,1.84,1.12c0.48,0.45,0.84,0.95,1.07,1.5C340.93,56.28,341.05,56.8,341.05,57.29
				z M334.93,55.23c-0.84,0-1.61,0.17-2.32,0.52s-1.33,0.82-1.88,1.43c-0.55,0.61-1.01,1.32-1.4,2.14c-0.39,0.82-0.69,1.7-0.9,2.65
				c2.05-0.25,3.7-0.54,4.94-0.87c1.24-0.33,2.19-0.68,2.86-1.06s1.11-0.79,1.32-1.23c0.21-0.44,0.32-0.9,0.32-1.38
				c0-0.24-0.05-0.49-0.16-0.75c-0.11-0.26-0.28-0.5-0.51-0.71c-0.23-0.21-0.54-0.39-0.91-0.53
				C335.92,55.3,335.46,55.23,334.93,55.23z"/>
			<path class="st1" d="M367.53,73.21h-3.32c-0.39,0-0.71-0.05-0.97-0.15c-0.26-0.1-0.47-0.24-0.62-0.41
				c-0.15-0.17-0.26-0.38-0.32-0.62c-0.06-0.24-0.09-0.5-0.09-0.78v-1.48c-0.85,1.17-1.8,2.09-2.84,2.76s-2.19,1-3.44,1
				c-0.75,0-1.47-0.15-2.16-0.45c-0.69-0.3-1.31-0.75-1.84-1.36c-0.53-0.61-0.96-1.38-1.28-2.32c-0.32-0.94-0.48-2.05-0.48-3.33
				c0-1.88,0.34-3.66,1.03-5.35c0.69-1.69,1.65-3.16,2.88-4.43s2.7-2.27,4.39-3.02c1.69-0.75,3.55-1.12,5.58-1.12
				c0.99,0,1.99,0.07,3,0.2c1.01,0.13,2.01,0.37,3,0.72L367.53,73.21z M358.41,68.63c0.45,0,0.89-0.17,1.32-0.51
				c0.43-0.34,0.83-0.8,1.21-1.39c0.38-0.59,0.73-1.27,1.05-2.06c0.32-0.79,0.59-1.63,0.82-2.52l0.72-5.74h-0.36
				c-1.01,0-1.94,0.23-2.77,0.68c-0.83,0.45-1.55,1.07-2.15,1.85c-0.6,0.78-1.06,1.69-1.39,2.72c-0.33,1.03-0.49,2.14-0.49,3.31
				c0,0.67,0.05,1.23,0.16,1.7c0.11,0.47,0.25,0.84,0.43,1.13c0.18,0.29,0.39,0.5,0.64,0.63C357.85,68.56,358.12,68.63,358.41,68.63
				z"/>
			<path class="st1" d="M371.45,73.21l2.52-20.74h3.2c0.64,0,1.14,0.15,1.5,0.45c0.36,0.3,0.54,0.79,0.54,1.47v1.22
				c0.88-1.17,1.81-2.04,2.78-2.61c0.97-0.57,1.99-0.85,3.06-0.85c1.17,0,2.15,0.38,2.92,1.14s1.27,1.87,1.48,3.32
				c0.92-1.53,1.93-2.66,3.02-3.38c1.09-0.72,2.33-1.08,3.7-1.08c0.77,0,1.48,0.14,2.11,0.41c0.63,0.27,1.17,0.68,1.62,1.21
				c0.45,0.53,0.79,1.19,1.04,1.96c0.25,0.77,0.37,1.67,0.37,2.68c0,0.25-0.01,0.52-0.03,0.79c-0.02,0.27-0.04,0.55-0.07,0.83
				l-1.56,13.18h-6.12l1.56-13.18c0.03-0.23,0.05-0.43,0.06-0.62c0.01-0.19,0.02-0.37,0.02-0.54c0-0.68-0.11-1.15-0.32-1.42
				s-0.53-0.4-0.96-0.4c-0.41,0-0.81,0.11-1.19,0.33c-0.38,0.22-0.74,0.54-1.08,0.96c-0.34,0.42-0.65,0.93-0.93,1.52
				c-0.28,0.59-0.53,1.26-0.74,1.99l-1.34,11.36h-6.12l1.56-13.18c0.03-0.23,0.05-0.43,0.06-0.62c0.01-0.19,0.02-0.37,0.02-0.54
				c0-0.68-0.11-1.15-0.32-1.42s-0.53-0.4-0.96-0.4c-0.41,0-0.81,0.11-1.2,0.34c-0.39,0.23-0.75,0.55-1.09,0.98
				s-0.65,0.94-0.93,1.55s-0.53,1.28-0.74,2.03l-1.36,11.26H371.45z"/>
			<path class="st1" d="M412.33,52.47l-2.48,20.74h-6.12l2.48-20.74H412.33z M413.49,46.79c0,0.49-0.11,0.96-0.32,1.39
				c-0.21,0.43-0.49,0.81-0.84,1.14c-0.35,0.33-0.74,0.59-1.19,0.78c-0.45,0.19-0.9,0.29-1.37,0.29s-0.91-0.1-1.34-0.29
				c-0.43-0.19-0.8-0.45-1.13-0.78c-0.33-0.33-0.59-0.71-0.79-1.14c-0.2-0.43-0.3-0.9-0.3-1.39s0.1-0.96,0.3-1.4
				c0.2-0.44,0.47-0.83,0.81-1.16c0.34-0.33,0.72-0.6,1.15-0.79s0.87-0.29,1.34-0.29c0.48,0,0.94,0.09,1.38,0.28
				c0.44,0.19,0.83,0.45,1.17,0.78s0.61,0.72,0.82,1.16C413.39,45.81,413.49,46.28,413.49,46.79z"/>
			<path class="st1" d="M431.45,58.67c0,0.85-0.12,1.58-0.35,2.18c-0.23,0.6-0.49,1.17-0.77,1.7s-0.54,1.08-0.77,1.64
				c-0.23,0.56-0.35,1.22-0.35,1.98c0,0.55,0.09,1.05,0.27,1.51c0.18,0.46,0.38,0.93,0.59,1.41c0.21,0.48,0.41,0.99,0.59,1.52
				c0.18,0.53,0.27,1.15,0.27,1.84c0,1.07-0.23,2.08-0.7,3.03s-1.14,1.79-2.02,2.5c-0.88,0.71-1.96,1.28-3.25,1.7
				c-1.29,0.42-2.75,0.63-4.39,0.63c-1.35,0-2.55-0.14-3.62-0.42c-1.07-0.28-1.97-0.66-2.71-1.14c-0.74-0.48-1.31-1.05-1.71-1.71
				c-0.4-0.66-0.6-1.37-0.6-2.13c0-1.17,0.3-2.15,0.89-2.93c0.59-0.78,1.36-1.41,2.29-1.88c0.93-0.47,1.97-0.81,3.1-1
				c1.13-0.19,2.24-0.29,3.32-0.29c0.61,0,1.2,0.03,1.75,0.08c0.55,0.05,1.06,0.13,1.53,0.22c-0.03-0.16-0.04-0.32-0.04-0.49
				s0-0.34,0-0.53c0-0.71,0.18-1.51,0.54-2.42c-0.52,0.35-1.12,0.62-1.79,0.82c-0.67,0.2-1.51,0.3-2.51,0.3
				c-0.79,0-1.54-0.13-2.26-0.39c-0.72-0.26-1.36-0.66-1.91-1.19c-0.55-0.53-1-1.2-1.33-2.01s-0.5-1.76-0.5-2.87
				c0-1.03,0.2-2.03,0.59-3.01c0.39-0.98,0.98-1.85,1.76-2.62c0.78-0.77,1.75-1.38,2.9-1.85c1.15-0.47,2.5-0.7,4.03-0.7
				c0.79,0,1.54,0.09,2.27,0.27s1.4,0.45,2.01,0.81h5.96l-0.28,1.94c-0.12,0.81-0.51,1.33-1.16,1.54l-1.76,0.6
				C431.41,57.75,431.45,58.2,431.45,58.67z M425.29,72.93c0-0.08,0-0.16,0-0.24c0-0.08-0.01-0.15-0.02-0.22
				c-0.68-0.11-1.3-0.19-1.87-0.24c-0.57-0.05-1.08-0.08-1.55-0.08c-0.72,0-1.34,0.05-1.85,0.16c-0.51,0.11-0.93,0.25-1.26,0.43
				c-0.33,0.18-0.56,0.39-0.71,0.64c-0.15,0.25-0.22,0.5-0.22,0.77c0,0.68,0.25,1.19,0.75,1.54c0.5,0.35,1.34,0.52,2.53,0.52
				c0.61,0,1.18-0.08,1.7-0.24c0.52-0.16,0.96-0.38,1.33-0.67c0.37-0.29,0.65-0.63,0.86-1.03
				C425.19,73.87,425.29,73.42,425.29,72.93z M422.81,63.19c0.49,0,0.92-0.13,1.29-0.38c0.37-0.25,0.67-0.58,0.92-0.99
				c0.25-0.41,0.43-0.86,0.56-1.37c0.13-0.51,0.19-1.02,0.19-1.54c0-0.87-0.18-1.54-0.54-2.02c-0.36-0.48-0.91-0.72-1.66-0.72
				c-0.49,0-0.92,0.12-1.29,0.35c-0.37,0.23-0.67,0.54-0.91,0.93s-0.42,0.83-0.54,1.34s-0.18,1.03-0.18,1.58
				c0,0.88,0.18,1.57,0.54,2.07C421.55,62.94,422.09,63.19,422.81,63.19z"/>
			<path class="st1" d="M442.45,73.53c-1.16,0-2.24-0.19-3.25-0.58s-1.88-0.95-2.62-1.69s-1.32-1.65-1.74-2.74
				c-0.42-1.09-0.63-2.34-0.63-3.75c0-1.84,0.3-3.53,0.91-5.07s1.42-2.87,2.45-3.99c1.03-1.12,2.22-1.99,3.57-2.62
				c1.35-0.63,2.78-0.94,4.27-0.94c1.16,0,2.24,0.19,3.24,0.58c1,0.39,1.87,0.95,2.61,1.69c0.74,0.74,1.32,1.65,1.75,2.74
				s0.64,2.34,0.64,3.75c0,1.81-0.3,3.49-0.91,5.03c-0.61,1.54-1.42,2.87-2.45,4c-1.03,1.13-2.22,2.01-3.57,2.64
				S443.94,73.53,442.45,73.53z M443.01,68.93c0.69,0,1.31-0.21,1.86-0.63s1.01-0.99,1.39-1.72s0.67-1.57,0.88-2.54
				c0.21-0.97,0.31-2,0.31-3.09c0-1.51-0.2-2.58-0.61-3.23c-0.41-0.65-1.07-0.97-1.99-0.97c-0.69,0-1.31,0.21-1.86,0.63
				s-1.01,0.99-1.39,1.71c-0.38,0.72-0.67,1.57-0.88,2.54c-0.21,0.97-0.31,2.01-0.31,3.1c0,1.48,0.2,2.55,0.61,3.21
				C441.43,68.6,442.09,68.93,443.01,68.93z"/>
		</g>
	</g>
</g>
</svg>
