<svg id="Layer_1" data-name="Layer 1" xmlns="http://www.w3.org/2000/svg" xmlns:xlink="http://www.w3.org/1999/xlink" viewBox="0 0 1437 368"><defs><style>.cls-1{fill:none;}.cls-2{clip-path:url(#clip-path);}.cls-3{fill:#fff;}.cls-4{fill:url(#linear-gradient);}.cls-5{fill:url(#linear-gradient-2);}.cls-6{fill:url(#linear-gradient-3);}</style><clipPath id="clip-path"><rect class="cls-1" x="-1549.46" y="931.21" width="1659.46" height="765.71" rx="58.13"/></clipPath><linearGradient id="linear-gradient" x1="794.85" y1="62.97" x2="794.85" y2="218.8" gradientTransform="translate(200.95 30.18)" gradientUnits="userSpaceOnUse"><stop offset="0" stop-color="#39b54a"/><stop offset="1" stop-color="#8cc63f"/></linearGradient><linearGradient id="linear-gradient-2" x1="953.76" y1="62.97" x2="953.76" y2="218.8" xlink:href="#linear-gradient"/><linearGradient id="linear-gradient-3" x1="1111.13" y1="62.97" x2="1111.13" y2="218.8" xlink:href="#linear-gradient"/></defs><title>assets</title><path class="cls-3" d="M560.36,48.69c-7.33-3.95-28.69-4.75-43.58-4.79a206.73,206.73,0,0,0-44.36,4.72V226.08l-13.8-.46s-24.18-.83-24.21-29.42l1.3-24.92.11-123a205.22,205.22,0,0,0-44.15-4.48c-14.86,0-30.19.26-46.24,4.84L347.08,192c-1,26.42,6.35,56,22.59,77.12,14.48,18.83,36.45,29.35,59.9,30.79,17.65,1.09,35.71,1,53.4,1h43.19l-5.85-.86c14.72,0,32.72-1.82,40.05-5Z"/><path class="cls-4" d="M917.88,295.07a111.08,111.08,0,0,0,19.65,3.17c8.25.65,16.58,1.1,25,1.1,6.47,0,14.07-.26,22.81-.91a149.64,149.64,0,0,0,21.83-3.39l66.55-122.88L1007.16,48.69c-5.82-1.28-13.1-3.32-21.83-4s-16.34-.83-22.81-.83c-8.41,0-16.74.61-25,1.26a107.28,107.28,0,0,0-19.65,3.47l67,123.54Z"/><path class="cls-5" d="M1076.8,295.07a111.08,111.08,0,0,0,19.65,3.17c8.25.65,16.57,1.1,25,1.1,6.47,0,14.08-.26,22.81-.91a149.64,149.64,0,0,0,21.83-3.39l66.56-122.88L1166.07,48.69c-5.82-1.28-13.1-3.32-21.83-4s-16.34-.83-22.81-.83c-8.41,0-16.73.61-25,1.26a107.28,107.28,0,0,0-19.65,3.47l67,123.54Z"/><path class="cls-6" d="M1234.17,295.07a111.08,111.08,0,0,0,19.65,3.17c8.25.65,16.57,1.1,25,1.1,6.47,0,14.07-.26,22.8-.91a149.8,149.8,0,0,0,21.84-3.39L1390,172.16,1323.45,48.69c-5.83-1.28-13.1-3.32-21.84-4s-16.33-.83-22.8-.83c-8.42,0-16.74.61-25,1.26a107.28,107.28,0,0,0-19.65,3.47l67,123.54Z"/><path class="cls-3" d="M755.89,295.07a111.08,111.08,0,0,0,19.65,3.17c8.25.65,16.57,1.1,25,1.1,6.47,0,14.08-.26,22.81-.91A149.64,149.64,0,0,0,845.16,295l.5-122.88-.5-123.47c-5.82-1.28-13.1-3.32-21.83-4s-16.34-.83-22.81-.83c-8.41,0-16.73.61-25,1.26a107.28,107.28,0,0,0-19.65,3.47V295.07Z"/><path class="cls-3" d="M620.42,295.07a111.08,111.08,0,0,0,19.65,3.17c8.25.65,16.57,1.1,25,1.1,6.47,0,14.08-.26,22.81-.91A150,150,0,0,0,709.7,295l.49-122.88L709.7,48.69c-5.83-1.28-13.11-3.32-21.84-4s-16.34-.83-22.81-.83c-8.41,0-16.73.61-25,1.26a107.28,107.28,0,0,0-19.65,3.47V295.07Z"/><path class="cls-3" d="M294.05,224.59c29.7-71.43-4.24-153.71-75.67-183.42S64.67,45.41,35,116.84s4.24,153.71,75.67,183.42l122.6,51,6.51,2.76,0,0,.41.17.82-2a137.6,137.6,0,0,0,9.12-14.63q4.66-8.72,8-16.53,3.48-8.24,6.41-17.42a151.87,151.87,0,0,0,4.71-19.13l-14.64-6.2A139.57,139.57,0,0,0,294.05,224.59ZM104.61,145.81a64.87,64.87,0,1,1,35,84.8A64.93,64.93,0,0,1,104.61,145.81Z"/><path class="cls-3" d="M917.88,295.07a111.08,111.08,0,0,0,19.65,3.17c8.25.65,16.58,1.1,25,1.1,6.47,0,14.07-.26,22.81-.91a149.64,149.64,0,0,0,21.83-3.39L937.27,172.16l69.89-123.47c-5.82-1.28-13.1-3.32-21.83-4s-16.34-.83-22.81-.83c-8.41,0-16.74.61-25,1.26a107.28,107.28,0,0,0-19.65,3.47l-69.4,123.54Z"/></svg>