<?xml version="1.0" encoding="utf-8"?>
<!-- Generator: Adobe Illustrator 19.0.0, SVG Export Plug-In . SVG Version: 6.00 Build 0)  -->
<svg version="1.1" id="Layer_1" xmlns="http://www.w3.org/2000/svg" xmlns:xlink="http://www.w3.org/1999/xlink" x="0px" y="0px"
	 viewBox="0 0 792 206.8" style="enable-background:new 0 0 792 206.8;" xml:space="preserve">
<style type="text/css">
	.st0{fill:url(#XMLID_15_);}
	.st1{fill:url(#XMLID_16_);}
	.st2{fill:url(#XMLID_17_);}
	.st3{fill:#ABABAB;}
</style>
<g id="XMLID_95_">
	<g id="XMLID_104_">
		<linearGradient id="XMLID_15_" gradientUnits="userSpaceOnUse" x1="562.4267" y1="52.727" x2="562.4267" y2="139.2791">
			<stop  offset="0" style="stop-color:#3DB54A"/>
			<stop  offset="1" style="stop-color:#8DC641"/>
		</linearGradient>
		<path id="XMLID_107_" class="st0" d="M556.6,25.8c-4.9-0.4-9.1-0.5-12.7-0.5c-4.7,0-9.3,0.3-13.9,0.7c-4.6,0.4-8.2,1.2-10.9,1.9
			l37.2,68.6l-37.2,68.3c2.7,0.7,6.3,1.4,10.9,1.8c4.6,0.4,9.2,0.6,13.9,0.6c3.6,0,7.8-0.1,12.7-0.5c4.8-0.4,8.9-1.2,12.1-1.9
			l37-68.3l-37-68.6C565.5,27.3,561.5,26.2,556.6,25.8z"/>
		<linearGradient id="XMLID_16_" gradientUnits="userSpaceOnUse" x1="650.691" y1="52.727" x2="650.691" y2="139.2791">
			<stop  offset="0" style="stop-color:#3DB54A"/>
			<stop  offset="1" style="stop-color:#8DC641"/>
		</linearGradient>
		<path id="XMLID_106_" class="st1" d="M644.9,25.8c-4.9-0.4-9.1-0.5-12.7-0.5c-4.7,0-9.3,0.3-13.9,0.7c-4.6,0.4-8.2,1.2-10.9,1.9
			l37.2,68.6l-37.2,68.3c2.7,0.7,6.3,1.4,10.9,1.8c4.6,0.4,9.2,0.6,13.9,0.6c3.6,0,7.8-0.1,12.7-0.5c4.8-0.4,8.9-1.2,12.1-1.9
			l37-68.3L657,28C653.8,27.3,649.7,26.2,644.9,25.8z"/>
		<linearGradient id="XMLID_17_" gradientUnits="userSpaceOnUse" x1="738.0999" y1="52.727" x2="738.0999" y2="139.2791">
			<stop  offset="0" style="stop-color:#3DB54A"/>
			<stop  offset="1" style="stop-color:#8DC641"/>
		</linearGradient>
		<path id="XMLID_105_" class="st2" d="M744.4,28c-3.2-0.7-7.3-1.8-12.1-2.2c-4.9-0.4-9.1-0.5-12.7-0.5c-4.7,0-9.3,0.3-13.9,0.7
			c-4.6,0.4-8.2,1.2-10.9,1.9l37.2,68.6l-37.2,68.3c2.7,0.7,6.3,1.4,10.9,1.8c4.6,0.4,9.2,0.6,13.9,0.6c3.6,0,7.8-0.1,12.7-0.5
			c4.8-0.4,8.9-1.2,12.1-1.9l37-68.3L744.4,28z"/>
	</g>
	<g id="XMLID_96_">
		<path id="XMLID_103_" class="st3" d="M279,28v98.6l-10.4-0.3c0,0-14.8-0.5-14.8-16.3l-0.2-82.2c-8-1.8-16.5-2.5-24.7-2.5
			c-8.2,0-16.9,0.1-25.8,2.7l0.9,79.6c-0.5,14.7,3.5,31.1,12.5,42.8c8,10.5,20.2,16,33.3,16.8l47,0.2l6.4-0.2
			c8.2,0,18.1-0.7,24.8-2.4V28c-6.7-2.2-16-2.6-24.3-2.7C295.6,25.4,283.4,26.2,279,28z"/>
		<path id="XMLID_102_" class="st3" d="M468.5,25.8c-4.9-0.4-9.1-0.5-12.7-0.5c-4.7,0-9.3,0.3-13.9,0.7c-4.6,0.4-8.2,1.2-10.9,1.9
			v136.9c2.7,0.7,6.3,1.4,10.9,1.8c4.6,0.4,9.2,0.6,13.9,0.6c3.6,0,7.8-0.1,12.7-0.5c4.8-0.4,8.9-1.2,12.1-1.9V96.6V28
			C477.4,27.3,473.3,26.2,468.5,25.8z"/>
		<path id="XMLID_101_" class="st3" d="M380.6,25.4c-4.7,0-9.3,0.3-13.9,0.7c-4.6,0.4-8.2,1.2-10.9,1.9v136.9
			c2.7,0.7,6.3,1.4,10.9,1.8c4.6,0.4,9.2,0.6,13.9,0.6c3.6,0,7.8-0.1,12.7-0.5c4.8-0.4,8.9-1.2,12.1-1.9V28
			c-3.2-0.7-7.3-1.8-12.1-2.2C388.4,25.5,384.2,25.4,380.6,25.4z"/>
		<path id="XMLID_98_" class="st3" d="M127.3,21.9C90.8,9.6,50.1,26.4,32.9,60.8c-20.4,40.8-1.7,89.7,39.7,106.9l71.7,29.8h0l3-4.7
			c2.7-4.3,5.2-8.8,7.2-13.5c0,0,0-0.1,0-0.1c1.3-3.1,2.5-6.3,3.6-9.7c1.1-3.4,2-6.9,2.6-10.6l-8.1-3.4c9.3-7.8,16.9-17.8,21.9-29.8
			C191.7,84.4,170.5,36.4,127.3,21.9z M135.8,109.6c-7.6,18.3-28.8,27.1-47.1,19.4c-18.3-7.6-27.1-28.8-19.4-47.1
			c7.6-18.3,28.8-27.1,47.1-19.4S143.4,91.3,135.8,109.6z"/>
		<path id="XMLID_97_" class="st3" d="M568.7,28c-3.2-0.7-7.3-1.8-12.1-2.2c-4.9-0.4-9.1-0.5-12.7-0.5c-4.7,0-9.3,0.3-13.9,0.7
			c-4.6,0.4-8.2,1.2-10.9,1.9l-38.5,68.6l38.5,68.3c2.7,0.7,6.3,1.4,10.9,1.8c4.6,0.4,9.2,0.6,13.9,0.6c3.6,0,7.8-0.1,12.7-0.5
			c4.8-0.4,8.9-1.2,12.1-1.9l-38.8-68.3L568.7,28z"/>
	</g>
</g>
</svg>
