<svg id="Layer_1" data-name="Layer 1" xmlns="http://www.w3.org/2000/svg" viewBox="0 0 153 152"><defs><style>.cls-1{fill:#8ac441;}.cls-2{fill:#6e9a40;}.cls-3{fill:#fff;}</style></defs><title>Untitled-1</title><rect class="cls-1" x="-0.35" y="0.44" width="152.84" height="152.84" transform="translate(152.13 153.72) rotate(180)"/><path class="cls-2" d="M76.07,108.15A41.56,41.56,0,1,1,117.62,66.6,41.6,41.6,0,0,1,76.07,108.15Zm0-75.76A34.21,34.21,0,1,0,110.28,66.6,34.25,34.25,0,0,0,76.07,32.39Z"/><path class="cls-2" d="M76.07,119.59a53,53,0,1,1,53-53A53,53,0,0,1,76.07,119.59Zm0-98.63A45.64,45.64,0,1,0,121.71,66.6,45.7,45.7,0,0,0,76.07,21Z"/><path class="cls-3" d="M106.17,67.35a30.1,30.1,0,1,0-56.48,14.5h0s6.67,13.9,26.38,32.51c19.7-18.61,26.38-32.51,26.38-32.51h0A30.05,30.05,0,0,0,106.17,67.35ZM76.07,79.24A12.64,12.64,0,1,1,88.71,66.6,12.64,12.64,0,0,1,76.07,79.24Z"/></svg>