<?xml version="1.0" encoding="utf-8"?>
<!-- Generator: Adobe Illustrator 24.1.3, SVG Export Plug-In . SVG Version: 6.00 Build 0)  -->
<svg version="1.1" id="Layer_1" xmlns="http://www.w3.org/2000/svg" xmlns:xlink="http://www.w3.org/1999/xlink" x="0px" y="0px"
	 viewBox="0 0 675 144" style="enable-background:new 0 0 675 144;" xml:space="preserve">
<style type="text/css">
	.st0{fill:#FFFFFF;}
	.st1{fill:url(#XMLID_2_);}
	.st2{fill:#236C7B;}
	.st3{fill:#2F818C;}
	.st4{fill:#0C4B52;}
	.st5{fill:#00181C;}
</style>
<g>
	<g>
		<path class="st0" d="M131.9,47.75c4.15-0.53,8.46-0.97,12.92-1.33c4.46-0.35,8.68-0.53,12.65-0.53c10.69,0,18.7,2.01,24.05,6.03
			c5.34,4.02,8.02,9.65,8.02,16.89c0,2.74-0.31,5.12-0.93,7.15c-0.62,2.03-1.37,3.78-2.25,5.23c-0.88,1.46-1.81,2.63-2.78,3.51
			c-0.97,0.88-1.77,1.59-2.38,2.12l15.1,28.88c-1.77,0.35-3.73,0.62-5.9,0.79c-2.17,0.18-4.26,0.26-6.29,0.26
			c-2.47,0-4.86-0.09-7.15-0.26c-2.3-0.18-4.2-0.44-5.7-0.79l-14.71-31.27l1.85-1.06c3.09-1.77,5.21-3.64,6.36-5.63
			c1.15-1.99,1.72-4.13,1.72-6.43c0-2.3-0.69-4.17-2.05-5.63c-1.37-1.46-3.56-2.19-6.56-2.19c-1.68,0-2.96,0.09-3.84,0.26v52.07
			c-2.3,0.44-4.37,0.73-6.23,0.86c-1.85,0.13-3.49,0.2-4.9,0.2c-1.5,0-3.14-0.07-4.9-0.2c-1.77-0.13-3.8-0.42-6.09-0.86V47.75z"/>
		<path class="st0" d="M200.53,93.59c0-4.33,0.93-7.9,2.78-10.73c1.85-2.83,4.24-5.08,7.15-6.76c2.91-1.68,6.14-2.85,9.67-3.51
			c3.53-0.66,6.98-0.99,10.33-0.99h8.08c-0.09-1.59-0.53-2.91-1.32-3.97c-0.79-1.06-1.81-1.88-3.05-2.45
			c-1.24-0.57-2.61-0.97-4.11-1.19c-1.5-0.22-3.05-0.33-4.64-0.33c-2.12,0-4.59,0.24-7.42,0.73c-2.83,0.49-5.74,1.26-8.74,2.32
			c-0.79-1.5-1.48-2.87-2.05-4.11c-0.58-1.24-1.02-2.49-1.32-3.78c-0.31-1.28-0.53-2.6-0.66-3.97c-0.13-1.37-0.2-2.94-0.2-4.7
			c4.24-1.41,8.46-2.47,12.65-3.18c4.19-0.71,7.97-1.06,11.33-1.06c4.59,0,8.74,0.55,12.45,1.66c3.71,1.11,6.87,2.81,9.47,5.1
			c2.6,2.3,4.61,5.23,6.03,8.81c1.41,3.58,2.12,7.84,2.12,12.79v38.82c-3.36,0.97-7.42,1.94-12.19,2.92s-9.8,1.46-15.1,1.46
			c-4.59,0-8.81-0.42-12.65-1.26c-3.84-0.84-7.13-2.19-9.87-4.04c-2.74-1.86-4.88-4.31-6.43-7.35
			C201.3,101.74,200.53,98.01,200.53,93.59z M231.8,101.01c0.79,0,1.94-0.09,3.44-0.26c1.5-0.18,2.6-0.35,3.31-0.53V85.64H231
			c-3.09,0-5.7,0.66-7.82,1.99c-2.12,1.32-3.18,3.18-3.18,5.56c0,1.77,0.4,3.16,1.19,4.17c0.79,1.02,1.79,1.79,2.98,2.32
			c1.19,0.53,2.47,0.88,3.84,1.06C229.39,100.92,230.65,101.01,231.8,101.01z"/>
		<path class="st0" d="M273.27,47.75c4.06-0.62,8.23-1.08,12.52-1.39c4.28-0.31,8.41-0.46,12.39-0.46c4.06,0,8.04,0.38,11.92,1.13
			c3.89,0.75,7.37,2.12,10.47,4.11c3.09,1.99,5.58,4.73,7.49,8.21c1.9,3.49,2.85,8.01,2.85,13.58c0,5.03-0.86,9.27-2.58,12.72
			c-1.72,3.44-4,6.23-6.82,8.35c-2.83,2.12-6.03,3.64-9.6,4.57s-7.22,1.39-10.93,1.39c-1.5,0-2.78-0.04-3.84-0.13
			c-1.06-0.09-1.72-0.18-1.99-0.26v16.29c-2.3,0.44-4.35,0.73-6.16,0.86c-1.81,0.13-3.42,0.2-4.84,0.2c-1.5,0-3.11-0.07-4.84-0.2
			s-3.73-0.42-6.03-0.86V47.75z M295.13,82.86c0.44,0.09,0.99,0.16,1.66,0.2c0.66,0.05,1.21,0.07,1.66,0.07
			c3.09,0,5.63-0.77,7.62-2.32c1.99-1.54,2.98-4.17,2.98-7.88c0-3.18-0.99-5.63-2.98-7.35c-1.99-1.72-4.44-2.58-7.35-2.58
			c-0.35,0-0.86,0-1.52,0c-0.66,0-1.35,0.05-2.05,0.13V82.86z"/>
		<path class="st0" d="M356.86,66.17h-19.61c-0.44-1.77-0.73-3.42-0.86-4.97c-0.13-1.54-0.2-3.02-0.2-4.44
			c0-1.41,0.07-2.87,0.2-4.37c0.13-1.5,0.42-3.13,0.86-4.9h61.61c0.44,1.77,0.73,3.4,0.86,4.9c0.13,1.5,0.2,2.96,0.2,4.37
			c0,1.41-0.07,2.89-0.2,4.44c-0.13,1.55-0.42,3.2-0.86,4.97h-19.61v49.68c-2.3,0.35-4.37,0.62-6.23,0.79
			c-1.86,0.18-3.53,0.27-5.04,0.27c-1.5,0-3.18-0.09-5.03-0.27c-1.85-0.18-3.89-0.44-6.09-0.79V66.17z"/>
		<path class="st0" d="M469.34,112.8c-1.5,0.53-3.29,1.06-5.37,1.59c-2.08,0.53-4.29,1.04-6.62,1.52c-2.34,0.48-4.75,0.86-7.22,1.13
			c-2.47,0.27-4.9,0.4-7.29,0.4c-4.5,0-8.83-0.35-12.98-1.06c-4.15-0.71-7.8-2.14-10.93-4.31c-3.14-2.16-5.63-5.3-7.49-9.41
			c-1.85-4.11-2.78-9.61-2.78-16.49V47.49c1.94-0.44,3.86-0.75,5.76-0.93c1.9-0.18,3.73-0.26,5.5-0.26c1.68,0,3.49,0.09,5.43,0.26
			c1.94,0.18,3.84,0.49,5.7,0.93v36.83c0,5.3,0.88,8.92,2.65,10.86c1.77,1.94,4.46,2.91,8.08,2.91c1.5,0,2.65-0.04,3.44-0.13
			c0.79-0.09,1.37-0.18,1.72-0.27V47.49c1.94-0.44,3.86-0.75,5.76-0.93c1.9-0.18,3.73-0.26,5.5-0.26c1.68,0,3.49,0.09,5.43,0.26
			c1.94,0.18,3.84,0.49,5.7,0.93V112.8z"/>
		<path class="st0" d="M484.18,47.75c4.15-0.53,8.46-0.97,12.92-1.33c4.46-0.35,8.68-0.53,12.65-0.53c10.69,0,18.7,2.01,24.05,6.03
			c5.34,4.02,8.02,9.65,8.02,16.89c0,2.74-0.31,5.12-0.93,7.15c-0.62,2.03-1.37,3.78-2.25,5.23c-0.88,1.46-1.81,2.63-2.78,3.51
			c-0.97,0.88-1.77,1.59-2.38,2.12l15.1,28.88c-1.77,0.35-3.73,0.62-5.9,0.79c-2.17,0.18-4.26,0.26-6.29,0.26
			c-2.47,0-4.86-0.09-7.15-0.26c-2.3-0.18-4.2-0.44-5.7-0.79l-14.71-31.27l1.85-1.06c3.09-1.77,5.21-3.64,6.36-5.63
			c1.15-1.99,1.72-4.13,1.72-6.43c0-2.3-0.69-4.17-2.05-5.63c-1.37-1.46-3.56-2.19-6.56-2.19c-1.68,0-2.96,0.09-3.84,0.26v52.07
			c-2.3,0.44-4.37,0.73-6.23,0.86s-3.49,0.2-4.9,0.2c-1.5,0-3.14-0.07-4.9-0.2c-1.77-0.13-3.8-0.42-6.09-0.86V47.75z"/>
		<path class="st0" d="M573.47,88.82c0.97,3.62,2.67,6.18,5.1,7.68c2.43,1.5,5.63,2.25,9.6,2.25c2.56,0,5.43-0.31,8.61-0.93
			c3.18-0.62,6.31-1.54,9.41-2.78c1.24,2.3,2.32,5.03,3.25,8.21c0.93,3.18,1.43,6.49,1.52,9.94c-7.86,2.92-15.9,4.37-24.11,4.37
			c-6.36,0-11.81-0.88-16.36-2.65c-4.55-1.77-8.26-4.22-11.13-7.35c-2.87-3.13-4.99-6.87-6.36-11.19
			c-1.37-4.33-2.05-9.05-2.05-14.18c0-5.04,0.71-9.76,2.12-14.18c1.41-4.42,3.53-8.26,6.36-11.53c2.83-3.27,6.36-5.85,10.6-7.75
			c4.24-1.9,9.19-2.85,14.84-2.85c4.68,0,8.85,0.79,12.52,2.38c3.66,1.59,6.78,3.78,9.34,6.56c2.56,2.78,4.53,6.14,5.9,10.07
			c1.37,3.93,2.05,8.19,2.05,12.79c0,2.38-0.11,4.53-0.33,6.43c-0.22,1.9-0.42,3.47-0.6,4.7H573.47z M584.07,62.72
			c-2.83,0-5.26,0.88-7.29,2.65c-2.03,1.77-3.22,4.5-3.58,8.21h21.2c-0.18-3.09-1.13-5.67-2.85-7.75
			C589.83,63.76,587.34,62.72,584.07,62.72z"/>
	</g>
</g>
<g>
	<g>
		<path class="st0" d="M137.32,37.38h-3.03l-5.51-13.86h2.77c0.24,0,0.45,0.06,0.61,0.18c0.17,0.12,0.28,0.27,0.34,0.45l2.67,7.4
			c0.15,0.43,0.28,0.86,0.38,1.27c0.1,0.42,0.2,0.83,0.28,1.24c0.08-0.41,0.17-0.83,0.28-1.24c0.1-0.41,0.24-0.84,0.4-1.27l2.74-7.4
			c0.06-0.18,0.17-0.33,0.34-0.45c0.16-0.12,0.36-0.18,0.58-0.18h2.63L137.32,37.38z"/>
		<path class="st0" d="M150.07,23.3c0.87,0,1.68,0.14,2.41,0.42s1.37,0.69,1.9,1.22c0.53,0.54,0.95,1.19,1.24,1.97
			c0.3,0.78,0.45,1.67,0.45,2.67c0,0.25-0.01,0.46-0.03,0.63c-0.02,0.17-0.06,0.3-0.12,0.39s-0.14,0.16-0.24,0.2
			c-0.1,0.04-0.23,0.06-0.38,0.06h-8.56c0.1,1.42,0.48,2.47,1.15,3.13c0.67,0.67,1.55,1,2.65,1c0.54,0,1.01-0.06,1.4-0.19
			c0.39-0.13,0.73-0.27,1.03-0.42c0.29-0.15,0.55-0.29,0.77-0.42s0.43-0.19,0.64-0.19c0.14,0,0.25,0.03,0.35,0.08
			c0.1,0.05,0.18,0.13,0.26,0.23l0.97,1.22c-0.37,0.43-0.78,0.79-1.24,1.09c-0.46,0.29-0.94,0.53-1.44,0.7
			c-0.5,0.18-1.01,0.3-1.53,0.37c-0.52,0.07-1.02,0.11-1.51,0.11c-0.96,0-1.86-0.16-2.69-0.48c-0.83-0.32-1.55-0.79-2.16-1.42
			c-0.61-0.63-1.09-1.4-1.44-2.32c-0.35-0.92-0.53-1.99-0.53-3.21c0-0.95,0.15-1.83,0.46-2.67c0.31-0.83,0.74-1.56,1.32-2.17
			c0.57-0.62,1.27-1.11,2.09-1.47C148.1,23.49,149.03,23.3,150.07,23.3z M150.13,25.7c-0.97,0-1.73,0.27-2.28,0.82
			c-0.55,0.55-0.9,1.33-1.05,2.34h6.27c0-0.43-0.06-0.84-0.18-1.22s-0.3-0.72-0.54-1.01c-0.24-0.29-0.55-0.51-0.92-0.68
			S150.63,25.7,150.13,25.7z"/>
		<path class="st0" d="M158.78,37.38V23.52h1.96c0.34,0,0.58,0.06,0.72,0.19s0.22,0.34,0.27,0.65l0.2,1.67
			c0.5-0.86,1.08-1.53,1.74-2.03c0.67-0.5,1.41-0.74,2.24-0.74c0.68,0,1.25,0.16,1.7,0.47l-0.43,2.5c-0.03,0.16-0.09,0.28-0.18,0.34
			s-0.21,0.1-0.36,0.1c-0.14,0-0.32-0.03-0.55-0.09c-0.23-0.06-0.54-0.09-0.93-0.09c-0.69,0-1.29,0.19-1.78,0.57
			s-0.91,0.94-1.26,1.68v8.63H158.78z"/>
		<path class="st0" d="M178.04,26.22c-0.09,0.14-0.18,0.25-0.28,0.3c-0.1,0.06-0.23,0.09-0.38,0.09c-0.16,0-0.33-0.04-0.52-0.14
			c-0.18-0.09-0.4-0.19-0.64-0.3s-0.52-0.21-0.83-0.3s-0.68-0.13-1.1-0.13c-0.66,0-1.17,0.14-1.55,0.42
			c-0.38,0.28-0.57,0.64-0.57,1.09c0,0.3,0.1,0.55,0.29,0.75c0.19,0.2,0.45,0.38,0.77,0.53c0.32,0.15,0.68,0.29,1.09,0.41
			c0.41,0.12,0.82,0.25,1.24,0.4c0.42,0.14,0.84,0.31,1.24,0.49s0.77,0.42,1.09,0.7c0.32,0.28,0.58,0.62,0.77,1.02
			c0.19,0.4,0.29,0.87,0.29,1.43c0,0.67-0.12,1.28-0.37,1.84s-0.6,1.05-1.07,1.46c-0.47,0.41-1.05,0.73-1.74,0.96
			c-0.69,0.23-1.48,0.34-2.37,0.34c-0.48,0-0.94-0.04-1.4-0.13c-0.46-0.09-0.89-0.21-1.31-0.36c-0.42-0.15-0.81-0.33-1.16-0.54
			s-0.67-0.43-0.94-0.67l0.77-1.27c0.1-0.15,0.22-0.27,0.35-0.35c0.13-0.08,0.31-0.12,0.51-0.12s0.4,0.06,0.59,0.17
			c0.18,0.12,0.4,0.24,0.64,0.38c0.24,0.13,0.53,0.26,0.86,0.38c0.33,0.12,0.75,0.18,1.25,0.18c0.4,0,0.74-0.05,1.02-0.14
			c0.28-0.09,0.52-0.22,0.7-0.37c0.18-0.15,0.32-0.33,0.4-0.53c0.09-0.2,0.13-0.41,0.13-0.63c0-0.32-0.1-0.59-0.29-0.8
			c-0.19-0.21-0.45-0.39-0.77-0.54s-0.68-0.29-1.09-0.41c-0.41-0.12-0.83-0.25-1.26-0.4c-0.43-0.14-0.85-0.31-1.26-0.51
			c-0.41-0.19-0.77-0.44-1.09-0.74c-0.32-0.3-0.58-0.66-0.77-1.09c-0.19-0.43-0.29-0.95-0.29-1.57c0-0.57,0.11-1.11,0.34-1.62
			c0.22-0.51,0.56-0.96,0.99-1.34c0.44-0.38,0.98-0.69,1.63-0.92c0.65-0.23,1.41-0.34,2.26-0.34c0.95,0,1.82,0.16,2.61,0.47
			c0.78,0.32,1.44,0.73,1.96,1.24L178.04,26.22z"/>
		<path class="st0" d="M185.67,19.48c0,0.29-0.06,0.56-0.18,0.81c-0.12,0.25-0.27,0.47-0.47,0.66c-0.19,0.19-0.42,0.34-0.68,0.45
			c-0.26,0.11-0.54,0.17-0.84,0.17c-0.29,0-0.56-0.06-0.82-0.17c-0.26-0.11-0.48-0.26-0.67-0.45c-0.19-0.19-0.34-0.41-0.45-0.66
			s-0.17-0.52-0.17-0.81c0-0.3,0.06-0.58,0.17-0.84s0.26-0.49,0.45-0.68c0.19-0.19,0.41-0.34,0.67-0.45s0.53-0.17,0.82-0.17
			c0.3,0,0.58,0.06,0.84,0.17c0.26,0.11,0.49,0.26,0.68,0.45c0.19,0.19,0.35,0.42,0.47,0.68C185.61,18.91,185.67,19.19,185.67,19.48
			z M185.17,23.52v13.86h-3.34V23.52H185.17z"/>
		<path class="st0" d="M194.85,23.3c1.04,0,1.97,0.17,2.82,0.5c0.84,0.33,1.56,0.81,2.15,1.42c0.59,0.61,1.05,1.36,1.38,2.24
			s0.49,1.87,0.49,2.96c0,1.1-0.16,2.09-0.49,2.97c-0.32,0.88-0.78,1.63-1.38,2.26c-0.59,0.62-1.31,1.1-2.15,1.43
			c-0.84,0.33-1.78,0.5-2.82,0.5s-1.98-0.17-2.82-0.5c-0.85-0.33-1.57-0.81-2.17-1.43s-1.06-1.37-1.39-2.26
			c-0.33-0.88-0.49-1.87-0.49-2.97c0-1.09,0.16-2.08,0.49-2.96c0.33-0.88,0.79-1.63,1.39-2.24s1.32-1.08,2.17-1.42
			C192.87,23.47,193.82,23.3,194.85,23.3z M194.85,35.01c1.15,0,2.01-0.39,2.56-1.16c0.55-0.77,0.83-1.91,0.83-3.4
			c0-1.49-0.28-2.63-0.83-3.42s-1.41-1.17-2.56-1.17c-1.17,0-2.04,0.39-2.59,1.18c-0.56,0.79-0.84,1.92-0.84,3.41
			c0,1.49,0.28,2.62,0.84,3.4C192.82,34.63,193.68,35.01,194.85,35.01z M199.54,17.63l-3.34,3.52c-0.17,0.18-0.34,0.3-0.49,0.37
			c-0.16,0.07-0.36,0.1-0.61,0.1h-2l1.92-3.28c0.13-0.23,0.29-0.41,0.47-0.53c0.18-0.12,0.45-0.18,0.81-0.18H199.54z"/>
		<path class="st0" d="M204.29,37.38V23.52h2.04c0.43,0,0.72,0.2,0.85,0.61l0.23,1.09c0.28-0.29,0.57-0.55,0.88-0.78
			s0.64-0.44,0.99-0.61s0.72-0.3,1.11-0.39c0.4-0.09,0.83-0.14,1.3-0.14c0.76,0,1.43,0.13,2.01,0.38c0.58,0.26,1.07,0.62,1.47,1.08
			c0.39,0.46,0.69,1.02,0.89,1.66c0.2,0.64,0.3,1.35,0.3,2.13v8.82h-3.34v-8.82c0-0.85-0.2-1.5-0.59-1.96s-0.98-0.7-1.76-0.7
			c-0.58,0-1.12,0.13-1.62,0.39c-0.5,0.26-0.98,0.62-1.43,1.07v10.02H204.29z"/>
		<path class="st0" d="M226.71,34.88h3.96V23.49c0-0.44,0.01-0.91,0.04-1.39l-2.81,2.35c-0.12,0.1-0.24,0.17-0.36,0.2
			c-0.12,0.04-0.24,0.05-0.36,0.05c-0.18,0-0.34-0.04-0.49-0.12c-0.15-0.08-0.26-0.16-0.33-0.26l-1.05-1.45l5.96-5.06H234v17.06
			h3.51v2.5h-10.8V34.88z"/>
		<path class="st0" d="M253.55,17.85v1.45c0,0.43-0.05,0.78-0.14,1.05c-0.09,0.27-0.19,0.49-0.28,0.67l-7.39,15.23
			c-0.15,0.32-0.37,0.58-0.65,0.8s-0.66,0.33-1.13,0.33h-2.42l7.56-14.92c0.31-0.61,0.67-1.14,1.05-1.58h-9.35
			c-0.21,0-0.39-0.08-0.54-0.23c-0.15-0.15-0.23-0.33-0.23-0.54v-2.26H253.55z"/>
	</g>
</g>
<g id="XMLID_885_">
	<linearGradient id="XMLID_2_" gradientUnits="userSpaceOnUse" x1="649.6588" y1="58.9155" x2="649.6588" y2="105.107">
		<stop  offset="0" style="stop-color:#39B54A"/>
		<stop  offset="1" style="stop-color:#8CC63F"/>
	</linearGradient>
	<path id="XMLID_894_" class="st1" d="M646.56,44.56c-2.59-0.19-4.84-0.25-6.76-0.25c-2.49,0-4.96,0.18-7.41,0.37
		c-2.45,0.19-4.39,0.65-5.82,1.03l19.87,36.62l-19.87,36.43c1.44,0.38,3.38,0.75,5.82,0.94c2.45,0.19,4.91,0.33,7.41,0.33
		c1.92,0,4.17-0.08,6.76-0.27c2.59-0.19,4.75-0.62,6.47-1.01l19.73-36.43l-19.73-36.6C651.3,45.36,649.14,44.76,646.56,44.56z"/>
</g>
<g>
	<circle class="st2" cx="63.28" cy="72.63" r="57.32"/>
	<path class="st3" d="M119.28,84.92l-38.45-1.65l39.62-14.78c-0.05-0.66-0.1-1.31-0.17-1.96L79.11,77.99l36.43-28.93
		c-0.22-0.48-0.44-0.96-0.68-1.44L75.84,73.49l27.65-41.7c-0.3-0.3-0.61-0.59-0.92-0.89L71.35,70.22l14.04-50.49
		c-0.33-0.14-0.66-0.27-0.99-0.4L66.06,68.51l-2.28-53.19c-0.17,0-0.33-0.01-0.5-0.01c-0.17,0-0.33,0-0.5,0.01L60.5,68.51
		L42.16,19.33c-0.33,0.13-0.66,0.27-0.99,0.4l14.04,50.49L23.99,30.9c-0.31,0.29-0.62,0.59-0.92,0.89l27.65,41.7L11.69,47.62
		c-0.23,0.48-0.46,0.95-0.68,1.44l36.43,28.93L6.28,66.54c-0.07,0.65-0.13,1.3-0.17,1.96l39.62,14.78L7.28,84.92
		c0.17,0.77,0.35,1.53,0.55,2.28l37.9,1.63L13.4,100.89c0.44,0.78,0.91,1.55,1.39,2.31l32.66-9.09l-24.38,19.36
		c0.71,0.69,1.43,1.37,2.17,2.03l25.48-16.89l-15.8,23.84c0.91,0.52,1.84,1.02,2.78,1.49l17.52-22.06l-7.23,26
		c1.05,0.29,2.1,0.55,3.17,0.78l9.35-25.06l1.13,26.33c0.55,0.02,1.1,0.03,1.65,0.03c0.55,0,1.1-0.01,1.65-0.03l1.13-26.33
		l9.35,25.06c1.07-0.23,2.13-0.49,3.17-0.78l-7.23-26l17.52,22.06c0.94-0.47,1.87-0.97,2.78-1.49l-15.8-23.84l25.48,16.89
		c0.74-0.66,1.46-1.33,2.17-2.03L79.11,94.12l32.66,9.09c0.48-0.76,0.94-1.53,1.39-2.31L80.83,88.83l37.9-1.63
		C118.93,86.45,119.11,85.69,119.28,84.92z"/>
	<g>
		<g>
			<path class="st4" d="M97.61,101.77l0.54,16.37c2.15-1.65,4.17-3.44,6.07-5.37l1.36-10.99H97.61z"/>
			<path class="st4" d="M85.14,70.73H84.6v-1.05h-0.88v-2.01h-1.09v-2.01h-0.69c-0.16-1.3-0.61-4.37-1.5-5.43
				c-0.16-0.19-0.41-0.3-0.66-0.3s-0.5,0.11-0.66,0.3c-0.89,1.06-1.34,4.13-1.5,5.43l-0.69,0v2.01h-1.09v2.01h-0.88v1.05H74.4v2.92
				c-0.55,0.94-1.02,2.02-1.36,3.2v19.39v0.78h0.85v15.73h1.47v-4.83c0-2.48,0.78-4.62,1.91-5.65v-2.52h0.03
				c0.14-2.86,0.76-5.02,1.5-5.02s1.35,2.15,1.5,5.02h0.03v2.52c1.13,1.03,1.91,3.17,1.91,5.65v-2.84V93.53V81.97l1.04-1.04
				l1.04-1.04v-2.26v-2.26c0-0.22,0.09-0.42,0.24-0.57s0.35-0.24,0.57-0.24h0.5c-0.15-0.32-0.31-0.62-0.49-0.91V70.73z"/>
			<path class="st4" d="M19.09,102.28c1.13,1.03,1.91,3.17,1.91,5.65v3.4c0.6,0.65,1.21,1.29,1.84,1.92v-11.48h-3.74V102.28z"/>
			<path class="st4" d="M53.45,74.69l-1.68-0.84c-0.53-0.26-1.15,0.12-1.15,0.71v5.66c0,0-2.22,0.11-2.98,1.47
				c-0.75-1.36-2.98-1.47-2.98-1.47v-5.66c0-0.59-0.62-0.98-1.15-0.71l-1.68,0.84v1.16c-3.6,3.6-3.6,8.88-3.6,8.88v10.22
				c0.19-0.26,0.4-0.49,0.62-0.69v-3.18h0.04c0.18-3.61,0.96-6.33,1.89-6.33c0.93,0,1.71,2.72,1.89,6.33h0.04v3.18
				c1.43,1.3,2.41,4.01,2.41,7.13v25.63c1.04,0.35,2.08,0.66,3.14,0.95c0-3.4,0-8.18,0-13.07c0-9.2,3.71-10.54,3.71-10.54
				s1.76,0.64,2.86,4.04V97.03h0.85v-0.78V79.08c-0.52-1.11-1.24-2.23-2.24-3.23V74.69z"/>
		</g>
		<path class="st5" d="M38.74,68.43c1.17,0.28,2.53,0.53,3.76,0.72c0.17,0.72,0.79,1.75,2.82,2.07c0-0.28-0.15-0.54-0.39-0.69
			c-0.33-0.2-0.78-0.57-0.96-1.17c0.16,0.02,0.31,0.04,0.45,0.06c0.27,0.5,0.95,1.18,2.59,0.94c-0.06-0.21-0.24-0.36-0.45-0.42
			c-0.21-0.05-0.47-0.16-0.71-0.35c0.15,0.02,0.23,0.03,0.23,0.03c2.35,0.14,3.67-0.93,4.35-1.83c0.47-0.61,1.1-1.07,1.79-1.41
			c0,0,0.01,0,0.01-0.01c0.2-0.1,0.41-0.16,0.63-0.17c0.93-0.02,1.61-0.55,1.94-0.86c0.12-0.12,0.07-0.32-0.09-0.37
			c-0.93-0.28-2.05,0.22-3.79,1.02c-1.93,0.89-2.92,0.85-2.92,0.85c0-0.38-0.41-0.61-0.73-0.42c-0.69,0.4-1.46,0.62-2.25,0.64
			c-2,0.05-5.84,0.18-6.43,0.49c-0.48,0.25-0.38,0.51-0.23,0.67C38.46,68.33,38.6,68.4,38.74,68.43z"/>
		<g>
			<path class="st5" d="M19.09,102.28v-0.51v-2.01h-0.03c-0.14-2.86-0.76-5.02-1.5-5.02c-0.74,0-1.35,2.15-1.5,5.02h-0.03v2.52
				c-0.37,0.34-0.7,0.79-0.98,1.34c0.79,1.23,1.63,2.42,2.51,3.59c1.08,1.43,2.23,2.81,3.44,4.13v-3.4
				C21,105.45,20.22,103.31,19.09,102.28z"/>
			<path class="st5" d="M42.72,94.26v-3.18h-0.04c-0.18-3.61-0.96-6.33-1.89-6.33c-0.93,0-1.71,2.72-1.89,6.33h-0.04v3.18
				c-0.22,0.2-0.42,0.43-0.62,0.69c-0.24,0.32-0.46,0.69-0.66,1.09v-9.98h-1.01V83.5h-1v-1.22h-1.01v-1.23h-0.8v-1.52h-1.07v-1.34
				h-0.76v-1.25h-3.45v1.25h-0.76v1.34h-1.07v1.52h-0.8v1.23h-1.01v1.22h-1v2.56h-1.01v15.72v11.48c3.01,3,6.36,5.67,9.98,7.95
				c1.75,1.1,3.55,2.1,5.42,3.01c2.22,1.08,4.52,2.02,6.89,2.81v-25.63C45.12,98.26,44.14,95.56,42.72,94.26z"/>
			<path class="st5" d="M114.27,90v-2.27l-1.01-0.27v-1.03h-0.99v-1.97c0,0-1.01,0.12-1.41,1.23v-1.85l-0.3-0.3v-0.94h-0.24h-0.24
				v0.94l-0.3,0.3v1.85c-0.4-1.11-1.41-1.23-1.41-1.23v1.97h-0.99v1.03l-1.01,0.27V90c-0.16-0.16-0.43-0.05-0.43,0.18v6.43
				l-8.57-1.84l-0.7-21.24c-0.01-0.25-0.11-0.47-0.28-0.63c-0.17-0.16-0.39-0.26-0.64-0.26h-1.73h-1.73c-1.37,0-2,0.48-2.29,0.96
				c-0.29,0.48-0.24,0.96-0.24,0.96h-2.31h-1.81h-0.5c-0.22,0-0.42,0.09-0.57,0.24s-0.24,0.35-0.24,0.57v2.26v2.26l-1.04,1.04
				l-1.04,1.04v11.56v11.56v2.84c0-2.48-0.78-4.62-1.91-5.65v-2.52H80.3c-0.14-2.86-0.76-5.02-1.5-5.02s-1.35,2.15-1.5,5.02h-0.03
				v2.52c-1.13,1.03-1.91,3.17-1.91,5.65v4.83h-1.47V97.03h-0.85v-0.78V76.86v-3.17c0-3.78-0.92-7.22-2.42-9.75v-3.4h-0.64v-1.22
				h-1.03v-2.34h-1.27v-2.34h-0.81c-0.21-1.7-0.85-6.04-2.17-6.67c0-0.03,0-0.05,0-0.07c0-3.18-0.15-5.76-0.34-5.76
				c-0.19,0-0.34,2.58-0.34,5.76c0,0.03,0,0.05,0,0.07c-1.32,0.62-1.97,4.96-2.17,6.67h-0.81v2.34h-1.27v2.34h-1.03v1.22h-0.64v3.4
				c-1.5,2.53-2.42,5.96-2.42,9.75v5.4v17.17v0.78h-0.85v11.37c-1.1-3.4-2.86-4.04-2.86-4.04s-3.71,1.34-3.71,10.54
				c0,4.89,0,9.67,0,13.07c4.79,1.3,9.82,1.99,15.02,1.99c9.63,0,18.71-2.38,26.68-6.58c1.29-0.68,2.55-1.41,3.79-2.18
				c1.51-0.95,2.98-1.97,4.39-3.06l-0.54-16.37l-0.08-2.57l-0.01-0.31c3.16-0.73,6.23,0.38,8.23,1.43l-0.18,1.44l-1.36,10.99
				c1.71-1.75,3.32-3.6,4.8-5.56c2.17-2.87,4.08-5.95,5.69-9.2v-7.83C114.7,89.95,114.43,89.84,114.27,90z"/>
		</g>
	</g>
</g>
</svg>
