<svg id="Layer_1" data-name="Layer 1" xmlns="http://www.w3.org/2000/svg" viewBox="0 0 153 152"><defs><style>.cls-1{fill:#e52d2d;}.cls-2{fill:#fff;}</style></defs><title>Untitled-1</title><rect class="cls-1" x="0.83" y="0.42" width="152.84" height="152.84"/><path class="cls-2" d="M43.18,110.09a31.28,31.28,0,0,1-.87-5.42c-.18-2.28-.3-4.57-.3-6.9,0-1.78.07-3.88.25-6.29a42.47,42.47,0,0,1,.93-6L77.11,67.09l34.07,18.36a40.14,40.14,0,0,1,1.09,6c.18,2.41.23,4.51.23,6.29,0,2.33-.16,4.62-.34,6.9a30.09,30.09,0,0,1-1,5.42L77.11,91.59Z"/><path class="cls-2" d="M43.18,77.6a31.45,31.45,0,0,1-.87-5.42c-.18-2.28-.3-4.58-.3-6.9,0-1.78.07-3.88.25-6.29a42.47,42.47,0,0,1,.93-6L77.11,34.6,111.18,53a40.14,40.14,0,0,1,1.09,6c.18,2.41.23,4.51.23,6.29,0,2.32-.16,4.62-.34,6.9a30.26,30.26,0,0,1-1,5.42L77.11,59.1Z"/></svg>