<svg id="Layer_1" data-name="Layer 1" xmlns="http://www.w3.org/2000/svg" xmlns:xlink="http://www.w3.org/1999/xlink" viewBox="0 0 184 183"><defs><style>.cls-1{fill:#212120;}.cls-2{fill:url(#linear-gradient);}.cls-3{fill:#fff;}.cls-4{fill:url(#linear-gradient-2);}.cls-5{fill:url(#linear-gradient-3);}</style><linearGradient id="linear-gradient" x1="5.4" y1="86.07" x2="166.84" y2="86.07" gradientUnits="userSpaceOnUse"><stop offset="0" stop-color="#4d0094"/><stop offset="1" stop-color="#630db5"/></linearGradient><linearGradient id="linear-gradient-2" x1="-527.15" y1="-174.75" x2="-473.14" y2="-174.75" gradientTransform="matrix(-0.71, -0.71, -0.71, 0.71, -390.64, -160.3)" xlink:href="#linear-gradient"/><linearGradient id="linear-gradient-3" x1="-542.86" y1="-171.25" x2="-496.27" y2="-171.25" gradientTransform="matrix(-0.71, -0.71, -0.71, 0.71, -390.64, -160.3)" xlink:href="#linear-gradient"/></defs><title>Untitled-3</title><path class="cls-1" d="M96.12,15.35a80.72,80.72,0,1,0,80.72,80.72A80.81,80.81,0,0,0,96.12,15.35Zm0,135.85a55.13,55.13,0,1,1,55.13-55.13A55.19,55.19,0,0,1,96.12,151.2Z"/><path class="cls-1" d="M125.55,85.22H107.21V57a10.77,10.77,0,0,0-21.54,0v49.79h39.88a10.77,10.77,0,0,0,0-21.54Z"/><path class="cls-2" d="M86.12,166.79a80.72,80.72,0,1,1,80.72-80.72A80.81,80.81,0,0,1,86.12,166.79Zm0-135.85a55.13,55.13,0,1,0,55.13,55.13A55.19,55.19,0,0,0,86.12,30.94Z"/><path class="cls-3" d="M157.2,33.71h-3.45V30.25a2.5,2.5,0,0,0-5,0v3.46H145.3a2.5,2.5,0,1,0,0,5h3.45v3.46a2.5,2.5,0,0,0,5,0V38.7h3.45a2.5,2.5,0,1,0,0-5Z"/><path class="cls-4" d="M86.44,36.2A10.77,10.77,0,0,1,97.21,47V75.22l.58,21.54H75.67V47A10.77,10.77,0,0,1,86.44,36.2Z"/><path class="cls-5" d="M97.21,75.22h18.34a10.77,10.77,0,0,1,0,21.54H75.67V75.22Z"/><path class="cls-3" d="M49.73,135.25H41.49V127a6,6,0,0,0-11.9,0v8.24H21.35a5.95,5.95,0,1,0,0,11.9h8.24v8.24a5.95,5.95,0,0,0,11.9,0v-8.24h8.24a5.95,5.95,0,0,0,0-11.9Z"/><path class="cls-3" d="M161.5,131.61h-4.24v-4.23a3.06,3.06,0,1,0-6.12,0v4.23H146.9a3.06,3.06,0,0,0,0,6.12h4.24V142a3.06,3.06,0,0,0,6.12,0v-4.24h4.24a3.06,3.06,0,1,0,0-6.12Z"/></svg>