<svg xmlns="http://www.w3.org/2000/svg" viewBox="0 0 321.38 294.29"><defs><style>.cls-1{fill:#7a38c6;}.cls-2{fill:#5f28ad;}.cls-3{fill:#ffe03e;}.cls-4{opacity:0.3;}.cls-5{fill:#2d2d2d;}.cls-10,.cls-11,.cls-12,.cls-5{opacity:0.5;isolation:isolate;}.cls-6{fill:#e2e2e2;}.cls-7{fill:#f2f2f2;}.cls-8{fill:#b7b7b7;}.cls-9{fill:#2b2b2b;}.cls-10{fill:#d1d1d1;}.cls-11{fill:#ffa015;}.cls-12,.cls-13{fill:#fff;}</style></defs><title>Recurso 3</title><g id="Capa_2" data-name="Capa 2"><g id="Layer_1" data-name="Layer 1"><circle class="cls-1" cx="134.23" cy="160.06" r="134.23"/><path class="cls-2" d="M268.33,160.06A134.39,134.39,0,0,0,180.12,33.9l-32.66,5.16a12.62,12.62,0,0,0-5,1.85,13.5,13.5,0,0,0-6.35,13.62l4.63,29.89-2.78-5c-.13-.26-.39-.53-.52-.79l-.14-.13c-.13-.27-.39-.53-.53-.8l-.13-.13c-.13-.27-.4-.4-.53-.66l-.13-.13-.66-.67c-.13,0-.13-.13-.27-.13s-.39-.39-.66-.53l-.13-.13c-.13-.13-.4-.26-.53-.4s-.13-.13-.26-.13-.4-.26-.66-.39-.14-.14-.27-.14-.39-.13-.53-.26-.13-.13-.26-.13h0a10.8,10.8,0,0,0-2-.66,13.47,13.47,0,0,0-10.31,1.19l-6.75,3.3a5.83,5.83,0,0,0-2.51,8.2l9.26,16.66,10,18.25h0a33.33,33.33,0,0,1-21.42,48.94L61.5,183.21,5.69,198.81A134.41,134.41,0,0,0,54,267.58L83.58,259l80.94-23.4L166,244.7a13.43,13.43,0,0,0,15.34,11.11l54.88-8.6A133.09,133.09,0,0,0,268.33,160.06Z"/><path class="cls-3" d="M232.23,149.22h0A40,40,0,0,0,183,122.11l-31.87,9.25.66-19.57a13.91,13.91,0,0,0,4.5-6.74,13.52,13.52,0,0,0-1.19-10.32l-16-29.09h0l-5.68-10.32a13.33,13.33,0,0,0-8.2-6.48A13.58,13.58,0,0,0,114.92,50l-6.74,3.31a5.83,5.83,0,0,0-2.51,8.2l9.25,16.66,10,18.25h0a33.3,33.3,0,0,1-21.42,48.93L57,158.87.93,175.14a133.36,133.36,0,0,0,32.26,73.4l45.89-13.23,126.17-36.5a39.39,39.39,0,0,0,23.67-19A41.33,41.33,0,0,0,232.23,149.22Z"/><path class="cls-3" d="M225.09,107.16,268.33,94.6,311.58,82a13.65,13.65,0,0,0,9.25-16.8h0A13.64,13.64,0,0,0,304,56L260.79,68.55,217.55,81.11a13.65,13.65,0,0,0-9.26,16.8h0a13.65,13.65,0,0,0,16.8,9.25Z"/><g class="cls-4"><path class="cls-5" d="M183,122.11l-31.87,9.25.66-19.57a13.91,13.91,0,0,0,4.5-6.74,13.52,13.52,0,0,0-1.19-10.32l-16-29.09h0l-5.68-10.32a14,14,0,0,0-6.22-5.82L153,213.62l52.24-15.07a57.72,57.72,0,0,0,6.61-2.52l-11.77-74.85A39.19,39.19,0,0,0,183,122.11Z"/></g><path class="cls-6" d="M273,216.66l-96.28,15.21a13.42,13.42,0,0,1-15.34-11.11L131.45,30.59a13.43,13.43,0,0,1,11.11-15.34L238.84.17a13.43,13.43,0,0,1,15.34,11.11l29.89,190.18A13.22,13.22,0,0,1,273,216.66Z"/><path class="cls-7" d="M267.54,208.2,179.2,222.09a9.26,9.26,0,0,1-10.58-7.67L140.31,34.29A9.27,9.27,0,0,1,148,23.71L236.33,9.83a9.27,9.27,0,0,1,10.58,7.67l28.3,180.12A9.26,9.26,0,0,1,267.54,208.2Z"/><path class="cls-8" d="M248.1,25.17,141.5,42l-1.19-7.67A9.27,9.27,0,0,1,148,23.71L236.33,9.83a9.27,9.27,0,0,1,10.58,7.67Z"/><path class="cls-9" d="M232.49,139.43l-41.79,6.75a20,20,0,0,1-22.88-16.67l-6.74-41.79a20,20,0,0,1,16.66-22.88l41.79-6.74a20,20,0,0,1,22.88,16.66l6.74,41.79A20,20,0,0,1,232.49,139.43Z"/><path class="cls-3" d="M255,131.23h0l43.25-12.56a13.65,13.65,0,0,0,9.26-16.8h0a13.65,13.65,0,0,0-16.8-9.25l-43.24,12.56h0A13.64,13.64,0,0,0,238.18,122h0A13.64,13.64,0,0,0,255,131.23Z"/><path class="cls-3" d="M255,163.76h0l43.25-12.56a13.64,13.64,0,0,0,9.26-16.79h0a13.65,13.65,0,0,0-16.8-9.26l-43.24,12.56h0a13.65,13.65,0,0,0-9.26,16.8h0a13.3,13.3,0,0,0,6.48,8.06A13.83,13.83,0,0,0,255,163.76Z"/><path class="cls-3" d="M255,196.3h0l43.25-12.57a13.64,13.64,0,0,0,9.26-16.79h0a13.65,13.65,0,0,0-16.8-9.26l-43.24,12.56h0a13.66,13.66,0,0,0-9.26,16.8h0a13.34,13.34,0,0,0,6.48,8.07A13.88,13.88,0,0,0,255,196.3Z"/><path class="cls-10" d="M189.52,8l-46.81,7.28A13.42,13.42,0,0,0,131.6,30.6l29.89,190.17a13.43,13.43,0,0,0,15.34,11.11l46.81-7.41Z"/><path class="cls-11" d="M249.29,108.22a10.76,10.76,0,0,0-6.09,4.89,9.91,9.91,0,0,0-.92,7.81,10.3,10.3,0,0,0,4.89,6.08,9.94,9.94,0,0,0,7.8.93Z"/><path class="cls-12" d="M254.05,124.49l-3.84-13a10.19,10.19,0,0,0-.66,7.14A9.66,9.66,0,0,0,254.05,124.49Z"/><path class="cls-11" d="M249.29,140.62a10.76,10.76,0,0,0-6.09,4.89,9.91,9.91,0,0,0-.92,7.81,10.3,10.3,0,0,0,4.89,6.08,9.94,9.94,0,0,0,7.8.93Z"/><path class="cls-12" d="M254.05,156.89l-3.71-13a10.24,10.24,0,0,0-.66,7.14A9.73,9.73,0,0,0,254.05,156.89Z"/><path class="cls-11" d="M249.29,173a10.77,10.77,0,0,0-6.09,4.9,9.88,9.88,0,0,0-.92,7.8,10.27,10.27,0,0,0,4.89,6.08,9.94,9.94,0,0,0,7.8.93Z"/><path class="cls-12" d="M254.05,189.29l-3.84-13a10.19,10.19,0,0,0-.66,7.14A10.47,10.47,0,0,0,254.05,189.29Z"/><rect class="cls-13" x="176.23" y="79.96" width="8.48" height="8.48" transform="translate(-10.95 29.26) rotate(-9)"/><rect class="cls-13" x="225.5" y="115.75" width="8.53" height="8.53" transform="translate(-15.94 37.41) rotate(-9)"/><path class="cls-13" d="M192.36,78,195,94.77l-16.74,2.65,5.42,34.26,33.49-5.31-1.34-8.46,9-1.44-1.31-8.27,8.47-1.34L226.62,72.6ZM206.16,111l-8.38,1.33-1.44-9.14,8.37-1.32-1.32-8.38,8.37-1.32,1.32,8.37-8.37,1.33Z"/></g></g></svg>