<svg xmlns="http://www.w3.org/2000/svg" viewBox="0 0 330.34 302.5"><defs><style>.cls-1{fill:#7a38c6;}.cls-2{fill:#5f28ad;}.cls-3{fill:#ffe03e;}.cls-4{opacity:0.3;}.cls-5{fill:#2d2d2d;}.cls-10,.cls-11,.cls-15,.cls-5{opacity:0.5;isolation:isolate;}.cls-6{fill:#e2e2e2;}.cls-7{fill:#f2f2f2;}.cls-8{fill:#b7b7b7;}.cls-9{fill:#ee2b33;}.cls-10{fill:#ffa015;}.cls-11,.cls-13{fill:#fff;}.cls-12{fill:#fdb71d;}.cls-14{fill:#606060;opacity:0.25;}.cls-15{fill:#d1d1d1;}</style></defs><title>Recurso 4</title><g id="Capa_2" data-name="Capa 2"><g id="Layer_1" data-name="Layer 1"><circle class="cls-1" cx="192.36" cy="164.53" r="137.97"/><path class="cls-2" d="M87.56,254.11,144,262.94a13.79,13.79,0,0,0,15.77-11.42l1.5-9.38,83.19,24.07L274.88,275a138.12,138.12,0,0,0,49.61-70.69l-57.36-16-47.85-13.86a34.23,34.23,0,0,1-22-50.3h0l10.33-18.76,9.52-17.12a6,6,0,0,0-2.59-8.43l-6.93-3.4A13.88,13.88,0,0,0,197,75.22a10.86,10.86,0,0,0-2,.68h0c-.14,0-.14.13-.27.13s-.41.14-.55.27-.13.14-.27.14-.41.27-.68.41-.14.13-.27.13-.41.27-.55.41l-.13.14c-.27.13-.41.4-.68.54s-.14.14-.27.14l-.68.68-.14.13c-.13.27-.41.41-.54.68l-.14.14c-.13.27-.41.54-.54.81l-.14.14c-.13.27-.41.54-.54.81l-2.86,5.17,4.76-30.72a13.88,13.88,0,0,0-6.52-14,13.34,13.34,0,0,0-5.17-1.91l-33.57-5.3A138.05,138.05,0,0,0,87.56,254.11Z"/><path class="cls-3" d="M95,184.78a40.46,40.46,0,0,0,24.33,19.57l129.68,37.52,47.17,13.6A137.06,137.06,0,0,0,329.39,180L271.75,163.3,223.9,149.44a34.23,34.23,0,0,1-22-50.3h0l10.33-18.76,9.52-17.13a6,6,0,0,0-2.59-8.42l-6.93-3.4a13.89,13.89,0,0,0-10.6-1.23,13.71,13.71,0,0,0-8.43,6.66l-5.84,10.61h0l-16.45,29.9A13.85,13.85,0,0,0,169.66,108a14.27,14.27,0,0,0,4.63,6.93L175,135l-32.77-9.52a41.06,41.06,0,0,0-50.56,27.87h0A42.42,42.42,0,0,0,95,184.78Z"/><path class="cls-3" d="M109.58,108.93a13.67,13.67,0,0,0,6.66-8.29h0a14,14,0,0,0-9.51-17.27L62.27,70.46,17.82,57.54a13.66,13.66,0,0,0-10.6,1.23A13.67,13.67,0,0,0,.56,67.06h0a13.65,13.65,0,0,0,1.22,10.6,13.66,13.66,0,0,0,8.3,6.66L54.53,97.24,99,110.15A13.61,13.61,0,0,0,109.58,108.93Z"/><g class="cls-4"><path class="cls-5" d="M124.67,124.56l-12.1,76.94a59.11,59.11,0,0,0,6.8,2.58l53.69,15.5,26.51-168.7a14.38,14.38,0,0,0-6.39,6l-5.84,10.61h0l-16.45,29.9A13.85,13.85,0,0,0,169.66,108a14.27,14.27,0,0,0,4.63,6.93L175,135l-32.77-9.52A40.25,40.25,0,0,0,124.67,124.56Z"/></g><path class="cls-6" d="M38.35,207.07,69.07,11.6A13.8,13.8,0,0,1,84.84.18l99,15.5a13.8,13.8,0,0,1,11.42,15.76L164.5,226.92a13.81,13.81,0,0,1-15.77,11.42l-99-15.63A13.6,13.6,0,0,1,38.35,207.07Z"/><path class="cls-7" d="M47.46,203.13,76.55,18A9.52,9.52,0,0,1,87.42,10.1l90.81,14.28a9.51,9.51,0,0,1,7.88,10.87L157,220.39a9.52,9.52,0,0,1-10.87,7.89L55.34,214A9.52,9.52,0,0,1,47.46,203.13Z"/><path class="cls-8" d="M76.55,18A9.52,9.52,0,0,1,87.42,10.1l90.81,14.28a9.51,9.51,0,0,1,7.88,10.87l-1.22,7.89L75.32,25.87Z"/><circle class="cls-9" cx="118.65" cy="105.2" r="43.49"/><path class="cls-3" d="M78.86,133.67a13.67,13.67,0,0,0,6.66-8.29h0A14,14,0,0,0,76,108.11h0L31.55,95.2a14,14,0,0,0-17.26,9.51h0A14,14,0,0,0,23.8,122l44.46,12.91h0A13.61,13.61,0,0,0,78.86,133.67Z"/><path class="cls-3" d="M78.86,167.11a13.67,13.67,0,0,0,6.66-8.29h0A14,14,0,0,0,76,141.55h0L31.55,128.64a14,14,0,0,0-17.26,9.51h0a14,14,0,0,0,9.51,17.27l44.46,12.91h0A14.25,14.25,0,0,0,78.86,167.11Z"/><path class="cls-3" d="M78.86,200.55a13.67,13.67,0,0,0,6.66-8.29h0A14,14,0,0,0,76,175h0L31.55,162.08a14,14,0,0,0-17.26,9.51h0a14,14,0,0,0,9.51,17.27l44.46,12.91h0A14.25,14.25,0,0,0,78.86,200.55Z"/><path class="cls-10" d="M68.26,131.49a10.17,10.17,0,0,0,8-1,10.63,10.63,0,0,0,5-6.25,10.21,10.21,0,0,0-1-8,11,11,0,0,0-6.25-5Z"/><path class="cls-11" d="M73.83,122a10.46,10.46,0,0,0-.68-7.34L69.21,128A10,10,0,0,0,73.83,122Z"/><path class="cls-10" d="M68.26,164.8a10.21,10.21,0,0,0,8-1,10.62,10.62,0,0,0,5-6.26,10.21,10.21,0,0,0-1-8,11,11,0,0,0-6.25-5Z"/><path class="cls-11" d="M73.69,155.28a10.47,10.47,0,0,0-.68-7.34l-3.8,13.32A10,10,0,0,0,73.69,155.28Z"/><path class="cls-10" d="M68.26,198.1a10.17,10.17,0,0,0,8-.95,10.63,10.63,0,0,0,5-6.25,10.21,10.21,0,0,0-1-8,11,11,0,0,0-6.25-5Z"/><path class="cls-11" d="M73.83,188.59a10.46,10.46,0,0,0-.68-7.34l-3.94,13.32A10.83,10.83,0,0,0,73.83,188.59Z"/><path class="cls-12" d="M98.89,49.81c0-.06,0-.11-.07-.23a2.44,2.44,0,0,0-4.49,1.9.24.24,0,0,1,.08.18A13.71,13.71,0,0,0,88.64,66.4a1.93,1.93,0,0,0,2.64,1.31l21.44-9.2a1.91,1.91,0,0,0,.84-2.83A13.86,13.86,0,0,0,98.89,49.81Z"/><path class="cls-12" d="M155.53,59.12c.07,0,.07-.09.14-.19a2.43,2.43,0,1,1,3.64,3.23c-.06.05-.12.09-.13.14a13.72,13.72,0,0,1,.75,15.82,1.93,1.93,0,0,1-2.92.4L139.65,62.93a1.9,1.9,0,0,1,.1-2.94A13.83,13.83,0,0,1,155.53,59.12Z"/><circle class="cls-13" cx="118.65" cy="105.2" r="32.87"/><path class="cls-14" d="M137.61,115.61l-19.19-3.33L122.76,87l1,1.69a2.19,2.19,0,0,0,2.19,1.07,3.15,3.15,0,0,0,.77-.25,2.22,2.22,0,0,0,.82-3l-3.88-6.81a2.12,2.12,0,0,0-3.21-.56l-5.68,4.66a2.14,2.14,0,0,0-.3,3,2.21,2.21,0,0,0,3,.3l1-.87-4.69,27.47a2.21,2.21,0,0,0,1.74,2.52c.07,0,.22,0,.29,0l21,3.65a2,2,0,0,0,.65,0,2.22,2.22,0,0,0,1.86-1.79A2.09,2.09,0,0,0,137.61,115.61Z"/><polygon class="cls-9" points="138.74 53.13 117.36 49.61 116.13 57.09 121.47 57.97 120.49 63.96 131.18 65.71 132.16 59.73 137.51 60.61 138.74 53.13"/><path class="cls-15" d="M101.06,231.15l48.13,7.62A13.8,13.8,0,0,0,165,227.35L195.68,31.87A13.81,13.81,0,0,0,184.26,16.1L136.14,8.63Z"/></g></g></svg>