<svg xmlns="http://www.w3.org/2000/svg" viewBox="0 0 280.7 280.7"><defs><style>.cls-1{fill:#7a38c6;}.cls-2{fill:#5f28ad;}.cls-2,.cls-6{opacity:0.5;isolation:isolate;}.cls-3{fill:#fde040;}.cls-4{fill:#fcb12a;}.cls-5{fill:#ffe888;}.cls-6{fill:#fff;}.cls-7{fill:#f3f3f3;}.cls-8{fill:none;}</style></defs><title>Recurso 5</title><g id="Capa_2" data-name="Capa 2"><g id="Layer_1" data-name="Layer 1"><circle class="cls-1" cx="140.35" cy="140.35" r="140.35"/><path class="cls-2" d="M273.77,184.91,221.7,169.85l-48.33-14-19-9.05a132.24,132.24,0,0,1-9.16-88.75s2.33-7-1.25-8-21.51-8.67-29.42,8.83c-5.69,12.57-5.47,35-4.87,46.65l-.87-.27c-.54-.22-1.14-.44-1.73-.65L61.76,91.56A14.09,14.09,0,0,0,50.92,92.8a14.38,14.38,0,0,0-6.83,8.51,14.14,14.14,0,0,0,1.25,10.84,14.38,14.38,0,0,0,6.88,6.23l-5.74-1.68a14.1,14.1,0,0,0-10.84,1.24,14.37,14.37,0,0,0-6.82,8.51,14.07,14.07,0,0,0,1.24,10.83,14.5,14.5,0,0,0,7.1,6.34,14.33,14.33,0,0,0-17.61,9.76h0a14.11,14.11,0,0,0,1.25,10.83A14.3,14.3,0,0,0,29.3,171l4,1.14a14.26,14.26,0,0,0-4,27.95l5.48,1.58,1.73.65,45.35,13.11a19.23,19.23,0,0,0,3,.54l114,33,22.48,6.5A139.5,139.5,0,0,0,273.77,184.91Z"/><path class="cls-3" d="M221.7,140.05l-48.33-14L67.83,75.52c-10.89-3.41-18.32,37.82-18.32,37.82s-.21.21-.65.7c-.21.22-.43.49-.65.71C41,123,6.93,166.16,70.37,182.09l128.46,37.17L246.41,233a138.73,138.73,0,0,0,33.48-76.12Z"/><path class="cls-3" d="M156.25,120.38S132.3,80.29,145.3,28.22c0,0,2.33-7-1.24-8s-21.51-8.66-29.42,8.84-4.34,54.18-4.34,54.18l-15.93,40.2Z"/><path class="cls-4" d="M122.82,83.92a14.35,14.35,0,0,0-8.51-6.83L69,64a14.13,14.13,0,0,0-10.84,1.24,14.38,14.38,0,0,0-6.83,8.51A14.14,14.14,0,0,0,52.6,84.57a14.33,14.33,0,0,0,6.88,6.23l-5.74-1.68A14.14,14.14,0,0,0,42.9,90.36a14.37,14.37,0,0,0-6.82,8.51,14.1,14.1,0,0,0,1.24,10.84,14.54,14.54,0,0,0,7.1,6.34,14.31,14.31,0,0,0-17.61,9.75h0a14.11,14.11,0,0,0,1.25,10.83,14.3,14.3,0,0,0,8.5,6.83l4,1.14a14.36,14.36,0,0,0-13.71,10.29h0a14.14,14.14,0,0,0,1.25,10.84,14.33,14.33,0,0,0,8.5,6.83l45.35,13.11a14.14,14.14,0,0,0,10.84-1.25,14.39,14.39,0,0,0,6.83-8.5h0a14.14,14.14,0,0,0-1.25-10.84,14.38,14.38,0,0,0-8.51-6.83l-3.95-1.13a14.36,14.36,0,0,0,13.71-10.3h0A14.14,14.14,0,0,0,98.33,136a14.53,14.53,0,0,0-7.1-6.33,14.33,14.33,0,0,0,17.61-9.76h0a14.33,14.33,0,0,0-8.13-17.06l5.75,1.68a14.11,14.11,0,0,0,10.83-1.25,14.35,14.35,0,0,0,6.83-8.51h0A14.38,14.38,0,0,0,122.82,83.92Z"/><path class="cls-3" d="M99.2,102.28h0L53.85,89.17a14,14,0,0,1-8.51-6.82,14.17,14.17,0,0,1-1.25-10.84h0A14.1,14.1,0,0,1,50.92,63a14.39,14.39,0,0,1,10.84-1.24l45.35,13.11h0a14.36,14.36,0,0,1,9.75,17.66h0a14.33,14.33,0,0,1-17.66,9.75Z"/><path class="cls-5" d="M105.16,78.12a10.68,10.68,0,1,1-5.91,20.53Z"/><path class="cls-6" d="M100.23,95.24l4-13.6a10.58,10.58,0,0,1,.65,7.53A11.13,11.13,0,0,1,100.23,95.24Z"/><path class="cls-3" d="M74.6,154.41h0L29.25,141.29a14.32,14.32,0,0,1-9.75-17.66h0a14.32,14.32,0,0,1,17.66-9.75L82.51,127h0a14.36,14.36,0,0,1,9.75,17.66h0a14.35,14.35,0,0,1-17.66,9.76Z"/><path class="cls-5" d="M80.56,130.08a10.68,10.68,0,1,1-5.91,20.53Z"/><path class="cls-6" d="M75.57,147.2l4-13.6a10.55,10.55,0,0,1-4,13.6Z"/><path class="cls-3" d="M74.6,183.5h0L29.25,170.39a14.33,14.33,0,0,1-9.75-17.66h0a14,14,0,0,1,6.82-8.51A14.17,14.17,0,0,1,37.16,143l45.35,13.12h0a14.34,14.34,0,0,1,9.75,17.66h0A14.33,14.33,0,0,1,74.6,183.5Z"/><path class="cls-5" d="M80.56,159.07A10.74,10.74,0,0,1,87,164.16a10.48,10.48,0,0,1,.92,8.13,10.68,10.68,0,0,1-13.22,7.31Z"/><path class="cls-6" d="M75.57,176.19l4-13.6a10.57,10.57,0,0,1,.65,7.53A10.69,10.69,0,0,1,75.57,176.19Z"/><path class="cls-3" d="M83.92,127.48h0L38.57,114.31a14.32,14.32,0,0,1-9.75-17.66h0A14.32,14.32,0,0,1,46.48,86.9L91.83,100h0a14.36,14.36,0,0,1,9.75,17.66h0a14.44,14.44,0,0,1-17.66,9.81Z"/><path class="cls-5" d="M89.82,103.31a10.69,10.69,0,0,1-5.9,20.54Z"/><path class="cls-6" d="M84.89,120.38l4-13.6a10.55,10.55,0,0,1-4,13.6Z"/><path class="cls-7" d="M229.5,66.63a2.81,2.81,0,0,0-2.11-1.35l-15.77-1.46L200,53.14a2.74,2.74,0,0,0-2.38-.65,2.55,2.55,0,0,0-1.9,1.57l-6.23,14.52-13.81,7.86a2.69,2.69,0,0,0-.44,4.39l11.87,10.46,3.14,15.49a2.72,2.72,0,0,0,1.57,2,2.5,2.5,0,0,0,1.09.22,2.61,2.61,0,0,0,1.4-.38l13.6-8.07,15.72,1.78a2.71,2.71,0,0,0,2.33-.86,2.81,2.81,0,0,0,.65-2.39l-3.47-15.44,6.55-14.41A3,3,0,0,0,229.5,66.63Z"/><path class="cls-7" d="M187,35.86l-5.74-6.45-.7-8.61a2.69,2.69,0,0,0-1.3-2.12,2.92,2.92,0,0,0-2.5-.16L168.87,22l-8.4-2a2.69,2.69,0,0,0-2.43.6,2.9,2.9,0,0,0-.92,2.33l.86,8.61-4.49,7.37a2.68,2.68,0,0,0-.17,2.49,2.77,2.77,0,0,0,1.9,1.58l8.45,1.84,5.64,6.55a2.74,2.74,0,0,0,2.06,1h.21A2.7,2.7,0,0,0,173.7,51L178,43.5l8-3.31a2.72,2.72,0,0,0,1.63-1.89A2.64,2.64,0,0,0,187,35.86Z"/><path class="cls-7" d="M96.27,39.38l-4.12.76-3.74-1.9a1.35,1.35,0,0,0-1.19,0,1.4,1.4,0,0,0-.7,1L86,43.39l-2.93,3a1.31,1.31,0,0,0,.33,2.11l3.79,1.79,2,3.74a1.29,1.29,0,0,0,1,.7,1.38,1.38,0,0,0,1.14-.38l2.87-3,4.12-.7a1.35,1.35,0,0,0,.92-.6s.06,0,.06-.11a1.32,1.32,0,0,0-.06-1.19l-2-3.69.59-4.11a1.21,1.21,0,0,0-.38-1.14A1.09,1.09,0,0,0,96.27,39.38Z"/><circle class="cls-8" cx="141.46" cy="141.46" r="139.24"/></g></g></svg>