<?xml version="1.0" encoding="utf-8"?>
<!-- Generator: Adobe Illustrator 24.1.3, SVG Export Plug-In . SVG Version: 6.00 Build 0)  -->
<svg version="1.1" id="Layer_1" xmlns="http://www.w3.org/2000/svg" xmlns:xlink="http://www.w3.org/1999/xlink" x="0px" y="0px"
	 viewBox="0 0 204 206" style="enable-background:new 0 0 204 206;" xml:space="preserve">
<style type="text/css">
	.st0{fill:#B1465B;}
	.st1{fill:#FFFFFF;}
	.st2{fill:#EF8E9A;}
</style>
<circle class="st0" cx="101.95" cy="103.14" r="92.88"/>
<g>
	<g>
		<path class="st1" d="M65.6,76.52c-0.89-6.6-0.18-11.57,2.13-14.92c2.31-3.34,6.46-5.42,12.44-6.22l30.94-4.16
			c10.11-1.36,18.16,0.27,24.13,4.88c5.97,4.61,9.5,10.95,10.58,19.01c0.85,6.32-0.02,11.76-2.62,16.31s-6.57,7.79-11.91,9.72
			l0.04,0.27c4.82-0.27,8.74,0.51,11.74,2.34c3,1.83,5.12,5.19,6.36,10.06l2.08,8.12c0.8,2.88,1.45,5.4,1.94,7.58
			c0.5,2.17,0.88,4.22,1.13,6.15c0.48,3.58-0.4,6.66-2.65,9.25c-2.25,2.59-4.99,4.1-8.22,4.54c-4.29,0.58-7.96-0.05-11-1.88
			c-3.05-1.83-5.13-5.05-6.24-9.66l-3.09-12.88c-0.91-3.7-2.52-6.19-4.83-7.47c-2.31-1.28-5.25-1.67-8.81-1.2l-10.92,1.47
			l2.75,20.49c0.71,5.32,0.09,9.55-1.87,12.71c-1.97,3.16-5.13,5.03-9.5,5.62c-4.37,0.59-7.92-0.38-10.64-2.91
			c-2.73-2.53-4.45-6.45-5.16-11.76L65.6,76.52z M110.01,95.32c4.04-0.54,6.85-1.69,8.43-3.44c1.58-1.75,2.14-4.32,1.68-7.71
			c-0.46-3.39-1.68-5.72-3.66-7c-1.98-1.27-5-1.64-9.04-1.09l-13.96,1.88l2.59,19.25L110.01,95.32z"/>
	</g>
</g>
<path class="st2" d="M82.8,138.19l-42.1,5.66c-3.14,0.42-6.05-1.8-6.48-4.94v0c-0.42-3.14,1.8-6.05,4.94-6.48l42.1-5.66
	c3.14-0.42,6.05,1.8,6.48,4.94l0,0C88.17,134.85,85.94,137.77,82.8,138.19z"/>
<path class="st2" d="M70.5,92.75l-14.27,1.92c-3.14,0.42-6.05-1.8-6.48-4.94v0c-0.42-3.14,1.8-6.05,4.94-6.48l14.27-1.92
	c3.14-0.42,6.05,1.8,6.48,4.94v0C75.86,89.41,73.64,92.33,70.5,92.75z"/>
<path class="st2" d="M41.06,96.71l-2.83,0.38c-3.14,0.42-6.05-1.8-6.48-4.94l0,0c-0.42-3.14,1.8-6.05,4.94-6.48l2.83-0.38
	c3.14-0.42,6.05,1.8,6.48,4.94l0,0C46.43,93.37,44.2,96.28,41.06,96.71z"/>
<path class="st2" d="M59.4,118.09l-15.34,2.06c-3.14,0.42-6.05-1.8-6.48-4.94l0,0c-0.42-3.14,1.8-6.05,4.94-6.48l15.34-2.06
	c3.14-0.42,6.05,1.8,6.48,4.94v0C64.76,114.75,62.54,117.67,59.4,118.09z"/>
</svg>
