<svg xmlns="http://www.w3.org/2000/svg" xmlns:xlink="http://www.w3.org/1999/xlink" viewBox="0 0 159 75"><defs><style>.cls-1{fill:none;}.cls-2{isolation:isolate;}.cls-3{fill:#fff;}.cls-4{fill:url(#linear-gradient);}.cls-5{clip-path:url(#clip-path);}.cls-6{fill:#57a028;}.cls-19,.cls-7{fill:#fbaa51;}.cls-8{fill:#ff9e10;}.cls-9{fill:#dd4624;}.cls-10{fill:#71d139;}.cls-11{fill:#cae5d6;}.cls-12{fill:#aecebb;}.cls-13{fill:#f3fff8;}.cls-14{fill:#ffcb48;}.cls-15,.cls-19{opacity:0.3;mix-blend-mode:multiply;}.cls-16{fill:#f9d5b2;}.cls-17{fill:#ef4e2e;}.cls-18{fill:#bf321b;}.cls-20{fill:#774017;}.cls-21{fill:#ffb600;}.cls-22{clip-path:url(#clip-path-2);}.cls-23{opacity:0.5;}.cls-24{fill:#a56a4a;}.cls-25{fill:#fcbf7e;}</style><linearGradient id="linear-gradient" x1="0.58" y1="37.66" x2="158.52" y2="37.66" gradientUnits="userSpaceOnUse"><stop offset="0" stop-color="#ff1d25"/><stop offset="1" stop-color="#b90938"/></linearGradient><clipPath id="clip-path"><rect class="cls-1" x="0.58" y="1.22" width="157.93" height="72.87" rx="13.07"/></clipPath><clipPath id="clip-path-2"><rect class="cls-1" x="93.54" y="-89.8" width="157.93" height="72.87" rx="13.07"/></clipPath></defs><title>assets</title><g class="cls-2"><g id="Layer_1" data-name="Layer 1"><path class="cls-3" d="M68,30.67A30.55,30.55,0,1,0,15.5,51.91h0l22,22,22-22h0A30.44,30.44,0,0,0,68,30.67ZM37.45,42.86A12.42,12.42,0,1,1,49.86,30.45,12.42,12.42,0,0,1,37.45,42.86Z"/><rect class="cls-4" x="0.58" y="1.22" width="157.93" height="72.87" rx="13.07"/><g class="cls-5"><polygon class="cls-6" points="85.5 16.09 75.81 23.14 64.01 14.57 55.31 20.86 49.95 21.49 38.16 12.83 26.37 21.49 21.45 21.24 12.31 14.57 0.52 23.14 -9.17 16.09 -13.37 21.88 0.52 31.98 12.31 23.4 24.1 31.98 26.37 30.32 28.65 31.98 38.16 31.98 47.68 31.98 49.95 30.33 52.22 31.98 64.01 23.4 75.81 31.98 89.7 21.88 85.5 16.09"/><path class="cls-7" d="M-11,26.37,5,30.7,1.53,15.18C-3.14,16.22-9.24,19.77-11,26.37Z"/><circle class="cls-8" cx="63.83" cy="22.4" r="4.9"/><circle class="cls-9" cx="42.42" cy="27.31" r="4.9"/><path class="cls-7" d="M88.55,28.69,78.68,15.38l-6.93,14.3C76.06,31.77,83.05,32.76,88.55,28.69Z"/><polygon class="cls-10" points="3.16 42.51 -17.46 27.52 -11.22 18.94 3.16 29.4 20.66 16.67 38.16 29.4 55.66 16.67 73.17 29.4 87.56 18.94 93.8 27.52 73.17 42.51 55.66 29.79 38.16 42.51 20.66 29.79 3.16 42.51"/><circle class="cls-9" cx="3.16" cy="29.4" r="4.9"/><path class="cls-7" d="M28.26,34.3,31.06,18,15.94,22.85C17.4,27.41,21.51,33.15,28.26,34.3Z"/><path class="cls-11" d="M94.32,29.59H-18A8.36,8.36,0,0,0-25.35,42,73.19,73.19,0,0,0,.84,68.89a44.16,44.16,0,0,0-2.73,4.27A5.28,5.28,0,0,0,2.76,81H73.58a5.28,5.28,0,0,0,4.65-7.81,44.16,44.16,0,0,0-2.73-4.27A73.19,73.19,0,0,0,101.69,42,8.36,8.36,0,0,0,94.32,29.59Z"/><path class="cls-12" d="M94.32,29.59H64.6A8.36,8.36,0,0,1,72,42,73.19,73.19,0,0,1,45.78,68.89a46.16,46.16,0,0,1,2.73,4.27A5.28,5.28,0,0,1,43.86,81H73.58a5.28,5.28,0,0,0,4.65-7.81,44.16,44.16,0,0,0-2.73-4.27A73.19,73.19,0,0,0,101.69,42,8.36,8.36,0,0,0,94.32,29.59Z"/><path class="cls-13" d="M23.55,73.16a46.16,46.16,0,0,1,2.73-4.27A73.26,73.26,0,0,1,.09,42,8.37,8.37,0,0,1,7.47,29.59H-3.64A8.37,8.37,0,0,0-11,42,73.26,73.26,0,0,0,15.18,68.89a46.16,46.16,0,0,0-2.73,4.27A5.28,5.28,0,0,0,17.1,81H28.2A5.28,5.28,0,0,1,23.55,73.16Z"/><path class="cls-12" d="M.84,68.88c-.33.46-.64.93-.95,1.4H52.21V67.49H-1.4C-.66,68,.08,68.43.84,68.88Z"/><path class="cls-14" d="M51.25,53.4h0a3.84,3.84,0,0,1,.58-5.83l62-42.7a2.4,2.4,0,0,1,3.76,1.89L120.19,82a3.84,3.84,0,0,1-4.33,3.94h0A109.19,109.19,0,0,1,51.25,53.4Z"/><g class="cls-15"><path class="cls-7" d="M63.47,47.87c.15,3.05.34,4.55,1.49,5.13s2.46-.16,5-1.86S76.23,46.93,80.25,49s4.21,6.38,4.36,9.56.34,4.55,1.48,5.13,2.47-.16,5-1.86,6.27-4.21,10.28-2.19,4.22,6.39,4.37,9.57.34,4.55,1.49,5.13,2.46-.16,5-1.86c2-1.36,4.62-3.09,7.52-2.94L119.5,62a7.17,7.17,0,0,1-6-.22c-4-2-4.22-6.38-4.37-9.56s-.33-4.55-1.48-5.13-2.47.16-5,1.86-6.27,4.21-10.28,2.19S88.18,44.74,88,41.56,87.7,37,86.55,36.43s-2.47.16-5,1.86-6.28,4.21-10.29,2.19a7,7,0,0,1-3.47-3.9l-6,4.12C63.23,42.87,63.37,45.65,63.47,47.87Z"/><path class="cls-7" d="M73.62,35.79c1.15.58,2.47-.16,5-1.86s6.28-4.21,10.29-2.19,4.22,6.39,4.36,9.57.34,4.55,1.49,5.13,2.47-.16,5-1.86,6.28-4.21,10.29-2.19,4.21,6.38,4.36,9.57.34,4.55,1.49,5.13c.88.44,1.86.11,3.4-.83l-.54-15.52a18,18,0,0,1-.92-5.74c-.15-3.05-.34-4.55-1.49-5.13s-2.47.16-5,1.86-6.28,4.21-10.29,2.19-4.21-6.38-4.36-9.56-.34-4.55-1.49-5.13c-.91-.46-1.94-.09-3.59.94L72.36,33.44C72.55,34.69,72.9,35.43,73.62,35.79Z"/><path class="cls-7" d="M101.94,24.11c.14,3.05.33,4.55,1.48,5.13s2.47-.16,5-1.86,6-4,9.79-2.41l-.32-9.09c-2.33,1.35-5.14,2.37-8.17.84-2.71-1.36-3.68-3.8-4.08-6.21l-6.92,4.76C101.62,17.49,101.81,21.27,101.94,24.11Z"/><path class="cls-7" d="M112.09,12c1.14.58,2.46-.16,5-1.86l.6-.4-.1-3a2.4,2.4,0,0,0-3.76-1.89l-3.22,2.22C110.75,10,111,11.47,112.09,12Z"/><path class="cls-7" d="M120.19,82l-.25-7.17c-1.1-.38-2.41.37-4.78,2-2.65,1.77-6.27,4.21-10.28,2.19s-4.22-6.39-4.37-9.57-.34-4.55-1.49-5.13-2.46.16-5,1.86-6.27,4.21-10.29,2.19S79.52,62,79.37,58.76s-.34-4.55-1.48-5.13-2.47.16-5,1.86S66.61,59.7,62.6,57.68s-4.22-6.38-4.37-9.56c-.1-2.23-.24-3.62-.74-4.44l-5.65,3.89a3.84,3.84,0,0,0-.59,5.83h0a109.19,109.19,0,0,0,64.61,32.54h0A3.84,3.84,0,0,0,120.19,82Z"/></g><path class="cls-16" d="M120,75A109.14,109.14,0,0,1,57.63,43.58l-5.8,4a3.84,3.84,0,0,0-.58,5.83h0a109.19,109.19,0,0,0,64.61,32.54h0A3.84,3.84,0,0,0,120.19,82Z"/><path class="cls-17" d="M118.21,24.91a8.36,8.36,0,0,0-1.08-.65,9.78,9.78,0,1,0,1.63,16.42Z"/><circle class="cls-17" cx="82.71" cy="45.11" r="9.78"/><circle class="cls-18" cx="76.98" cy="43.75" r="2.23"/><circle class="cls-18" cx="108.75" cy="36.45" r="2.58"/><circle class="cls-18" cx="80.8" cy="41.12" r="1.4"/><circle class="cls-18" cx="113.66" cy="26.71" r="1.62"/><path class="cls-19" d="M59.8,56.91l11.31-7.79.68-.46L77.17,45l22.7-15.63h0l18.06-12.44,0-1h0l-.21-6.11,0-1.16-.07-1.85a2.35,2.35,0,0,0-.73-1.64,2.59,2.59,0,0,0-.58-.42,2.37,2.37,0,0,0-2.44.17L91.61,20.17h0L72.36,33.43l-4.57,3.15-.58.39-9.59,6.61-5.79,4a3.83,3.83,0,0,0-1.11,5.14,4.16,4.16,0,0,0,.52.69q2.76,2.85,5.69,5.49Z"/><path class="cls-7" d="M165,80.32H110.33A5.29,5.29,0,0,1,105.05,75V72.15a5.29,5.29,0,0,1,5.28-5.28H165a5.29,5.29,0,0,1,5.27,5.28V75A5.27,5.27,0,0,1,165,80.32Z"/><path class="cls-20" d="M165,66.87H110.33a5.27,5.27,0,0,1-5.28-5.27h0a5.29,5.29,0,0,1,5.28-5.28H165a5.29,5.29,0,0,1,5.27,5.28h0A5.26,5.26,0,0,1,165,66.87Z"/><path class="cls-21" d="M105.06,61.63h0a4,4,0,0,1,2.34.67A10.35,10.35,0,0,1,109.23,64a13.05,13.05,0,0,0,2.59,2.3,7.92,7.92,0,0,0,8.22,0,13.05,13.05,0,0,0,2.59-2.3,10.35,10.35,0,0,1,1.83-1.68,4.44,4.44,0,0,1,4.69,0A10.67,10.67,0,0,1,131,64a13.13,13.13,0,0,0,2.6,2.3,7.92,7.92,0,0,0,8.22,0,13.05,13.05,0,0,0,2.59-2.3,10.71,10.71,0,0,1,1.83-1.68,4.44,4.44,0,0,1,4.69,0A10.35,10.35,0,0,1,152.73,64a13.34,13.34,0,0,0,2.59,2.3,7.94,7.94,0,0,0,8.23,0,13.34,13.34,0,0,0,2.59-2.3A10.35,10.35,0,0,1,168,62.3a4,4,0,0,1,2.34-.67h0a6.18,6.18,0,0,0-6.18-6.18H111.24a6.18,6.18,0,0,0-6.18,6.18Z"/><polygon class="cls-10" points="119.63 62.12 114.31 58.25 108.99 54.38 110.6 52.17 112.21 49.95 115.92 52.65 119.63 55.35 124.14 52.07 128.65 48.78 133.16 52.07 137.68 55.35 142.19 52.07 146.71 48.78 151.22 52.07 155.74 55.35 159.45 52.65 163.16 49.95 164.77 52.17 166.38 54.38 161.06 58.25 155.74 62.12 151.22 58.83 146.71 55.55 142.19 58.83 137.68 62.12 133.17 58.83 128.65 55.55 124.14 58.83 119.63 62.12"/><path class="cls-7" d="M163.36,55.45H112a7,7,0,0,1-7-7v-.9A32.74,32.74,0,0,1,137.68,15h0A32.73,32.73,0,0,1,170.31,47.6v.9a7,7,0,0,1-6.95,7Z"/><path class="cls-16" d="M121.68,31.59a2,2,0,0,1-.92.91,1.15,1.15,0,0,1-1.69-.89,2.1,2.1,0,0,1,1.14-2.17,1.15,1.15,0,0,1,1.69.88A2,2,0,0,1,121.68,31.59Z"/><path class="cls-16" d="M134.29,22.26a2,2,0,0,1-1,.81A1.24,1.24,0,0,1,132.2,23a1.2,1.2,0,0,1-.51-.95,2,2,0,0,1,.35-1.24,2,2,0,0,1,1-.81,1.15,1.15,0,0,1,1.6,1.06A2,2,0,0,1,134.29,22.26Z"/><path class="cls-16" d="M154.78,32.21a2,2,0,0,1,0,1.29,1.21,1.21,0,0,1-.75.78A1.2,1.2,0,0,1,153,34.1a2,2,0,0,1-.76-1.05,2,2,0,0,1,0-1.29A1.21,1.21,0,0,1,153,31a1.18,1.18,0,0,1,1.06.19A2,2,0,0,1,154.78,32.21Z"/><path class="cls-16" d="M124.57,45.88a2,2,0,0,1-.83,1,1.16,1.16,0,0,1-1.77-.72,2.08,2.08,0,0,1,.1-1.29,1.94,1.94,0,0,1,.83-1,1.14,1.14,0,0,1,1.77.72A2,2,0,0,1,124.57,45.88Z"/><path class="cls-16" d="M146.11,22.65a2.07,2.07,0,0,1,.08,1.29,1.16,1.16,0,0,1-1.78.7,2.11,2.11,0,0,1-.82-1,2.07,2.07,0,0,1-.08-1.29,1.22,1.22,0,0,1,.71-.82,1.21,1.21,0,0,1,1.07.12A2,2,0,0,1,146.11,22.65Z"/><path class="cls-16" d="M142.34,35.12a2,2,0,0,1-.31,1.25,1.26,1.26,0,0,1-.92.58,1.22,1.22,0,0,1-1-.45,2,2,0,0,1-.48-1.2,2,2,0,0,1,.31-1.25,1.22,1.22,0,0,1,.92-.57,1.21,1.21,0,0,1,1,.44A2,2,0,0,1,142.34,35.12Z"/></g><g class="cls-22"><g class="cls-23"><path class="cls-24" d="M205.08-37.25c-5.66,8.72-16,12.21-24.1,8.52-5.85.11-11.36-3-14.94-8.1l4.88,26.64L150.54-6.46,130.15-2.72l-1.9-10.39c-1.69,3.44-4.06,5.86-7.08,6.91-9,3.15-21.12-6.9-29.95-23.59l4.87,40.57L179.91.72l32.45-3.9-4.72-39.36A23.21,23.21,0,0,1,205.08-37.25Z"/></g><path class="cls-25" d="M170.33-41.49c-2-2-4.55-4.5-9-4s-6.25,3.55-7.75,6c-1.39,2.26-2.21,3.45-4.16,3.68s-3-.72-4.92-2.58c-2-2-4.55-4.5-9-4s-6.25,3.54-7.75,6c-1.39,2.26-2.2,3.44-4.16,3.68s-3-.73-4.92-2.59-4.55-4.5-8.94-4-6.26,3.55-7.75,6c-1.39,2.26-2.21,3.45-4.17,3.68s-3-.72-4.91-2.59a26.6,26.6,0,0,0-2.32-2.08l6,50.42L180.55,6.07l-5.4-45C173.25-38.7,172.18-39.66,170.33-41.49Z"/></g></g></g></svg>