<svg id="Layer_1" data-name="Layer 1" xmlns="http://www.w3.org/2000/svg" xmlns:xlink="http://www.w3.org/1999/xlink" viewBox="0 0 287 287"><defs><style>.cls-1{fill:none;}.cls-2{clip-path:url(#clip-path);}.cls-3{fill:url(#linear-gradient);}.cls-4{fill:#39b54a;}.cls-5{fill:#fff;}</style><clipPath id="clip-path"><rect class="cls-1" x="-305.89" y="0.73" width="286.27" height="286.27"/></clipPath><linearGradient id="linear-gradient" x1="-507.26" y1="-193.84" x2="-229.75" y2="-193.84" gradientTransform="translate(207.47 425.89) rotate(8.98)" gradientUnits="userSpaceOnUse"><stop offset="0" stop-color="#39b54a"/><stop offset="1" stop-color="#8cc63f"/></linearGradient></defs><title>assets</title><g class="cls-2"><path class="cls-3" d="M1.4,247.56l-16.55-70.41a76.54,76.54,0,0,0-27-42.32,23.48,23.48,0,0,0-2-1.36L-72.41,115.7-96,153-68.8,170.2a33.41,33.41,0,0,1,10.44,17.64L-49.42,227-132.11,214l-82.69-13.07,20.6-34.52A32.93,32.93,0,0,1-178.86,153l61.65-16.23-10.9-42.83L-191,110.26a20.59,20.59,0,0,0-2.28.69A76.4,76.4,0,0,0-232,142.88l-37.47,61.86a23.44,23.44,0,0,0-1.21,21.42c3.11,6.65,9.22,12.05,16.5,13.2L-139,257.57l115.18,18.2C-16.54,276.92-9,273.67-4,268.3A23.43,23.43,0,0,0,1.4,247.56Z"/></g><rect class="cls-4" x="-0.24" y="0.25" width="287.24" height="286.75"/><path class="cls-5" d="M135.71,140.26a14.15,14.15,0,0,1-1.07,5.44,19.51,19.51,0,0,1-2.5,4.46l-38.6,51h41.28v20.5H61.72V210.42a12.7,12.7,0,0,1,.94-4.24,19.29,19.29,0,0,1,2.63-4.85l38.95-51.62h-40v-20.5h71.49Z"/><path class="cls-5" d="M206.43,78.23a16.44,16.44,0,0,1,.08,6.59,22.91,22.91,0,0,1-1.82,5.81l-32.51,68.84,48.09-10.08,5,23.89-85.17,17.86-2.75-13.09a15.45,15.45,0,0,1,.06-5.16,23.32,23.32,0,0,1,1.88-6.3l32.77-69.66-46.63,9.78-5-23.89,83.3-17.47Z"/></svg>