<?xml version="1.0" encoding="utf-8"?>
<!-- Generator: Adobe Illustrator 24.1.3, SVG Export Plug-In . SVG Version: 6.00 Build 0)  -->
<svg version="1.1" id="Layer_1" xmlns="http://www.w3.org/2000/svg" xmlns:xlink="http://www.w3.org/1999/xlink" x="0px" y="0px"
	 viewBox="0 0 96 96" style="enable-background:new 0 0 96 96;" xml:space="preserve">
<style type="text/css">
	.st0{fill:#630DB5;}
	.st1{fill:#FFFFFF;}
</style>
<g>
	<path class="st0" d="M83.98,95.98H12.5c-6.6,0-12-5.4-12-12V12.5c0-6.6,5.4-12,12-12h71.48c6.6,0,12,5.4,12,12v71.48
		C95.98,90.58,90.58,95.98,83.98,95.98z"/>
	<path class="st1" d="M81.31,50.08H44.76l28.77-5.47c1.39-0.26,2.3-1.6,2.04-2.99l-2.64-13.88c0,0,0,0,0,0
		c-0.66-3.46-4.01-5.75-7.47-5.09l-6.18,1.17c0.82-1.99,1.05-4.16,0.64-6.31c-0.56-2.93-2.22-5.47-4.7-7.15
		c-2.48-1.69-5.45-2.31-8.38-1.75c-2.93,0.56-5.47,2.22-7.15,4.7c-0.2,0.3-0.39,0.61-0.56,0.92c-0.28-0.23-0.56-0.45-0.86-0.65
		c-2.48-1.69-5.45-2.31-8.38-1.75c-2.93,0.56-5.47,2.22-7.15,4.7c-1.69,2.48-2.31,5.45-1.75,8.38c0.42,2.2,1.46,4.14,2.91,5.64
		l-6.09,1.16c-3.46,0.66-5.75,4.01-5.09,7.47l2.64,13.88c0.23,1.23,1.31,2.08,2.51,2.08c0.16,0,0.32-0.01,0.48-0.05l4.23-0.8v27.37
		c0,3.53,2.87,6.39,6.39,6.39h48.5c3.53,0,6.39-2.87,6.39-6.39V52.63C83.87,51.22,82.72,50.08,81.31,50.08z M66.41,27.68
		c0.08-0.01,0.15-0.02,0.23-0.02c0.6,0,1.15,0.44,1.27,1.04l2.16,11.36l-22.3,4.24L45.5,31.65L66.41,27.68z M43.91,16.19
		c0.92-1.35,2.29-2.25,3.88-2.55c0.38-0.07,0.75-0.11,1.13-0.11c1.2,0,2.39,0.36,3.41,1.06c1.35,0.92,2.25,2.29,2.55,3.88
		c0.3,1.58-0.04,3.2-0.95,4.54c-0.92,1.35-2.29,2.25-3.88,2.55l-5.96,1.13l-1.13-5.96C42.66,19.15,43,17.54,43.91,16.19z
		 M26.96,19.41c0.92-1.35,2.29-2.25,3.88-2.55c0.38-0.07,0.75-0.11,1.13-0.11c1.2,0,2.39,0.36,3.41,1.06
		c1.35,0.92,2.25,2.29,2.55,3.88l1.13,5.96l-5.96,1.13c-3.29,0.62-6.47-1.54-7.1-4.83C25.71,22.37,26.05,20.76,26.96,19.41z
		 M17.75,38.23c-0.13-0.68,0.34-1.37,1.02-1.5l21.71-4.13l2.27,12.64l-22.84,4.34L17.75,38.23z M27.7,81.66V55.19h22.97v27.75H28.97
		C28.28,82.94,27.7,82.36,27.7,81.66z M78.75,81.66c0,0.69-0.59,1.28-1.28,1.28H55.78V55.19h22.97V81.66z"/>
</g>
</svg>
