<svg id="Layer_1" data-name="Layer 1" xmlns="http://www.w3.org/2000/svg" viewBox="0 0 500 500"><defs><style>.cls-1,.cls-2{fill:#fff;}.cls-1{stroke:#fff;stroke-miterlimit:10;stroke-width:2px;}</style></defs><title>Untitled-1</title><path class="cls-1" d="M250,347H125.88c-9.93,0-12.38-2.43-12.39-12.24q0-81.83,0-163.65c0-9.07,2.74-11.88,11.73-11.88q124.7,0,249.41,0c9.08,0,11.83,2.75,11.83,11.8q0,82.11,0,164.21c0,9.16-2.65,11.77-11.74,11.77Zm-.35-11.24q57.27,0,114.56,0c8.82,0,10.91-2.15,10.91-11q0-71.69,0-143.35c0-8.54-2.17-10.83-10.56-10.83q-114.57,0-229.13,0c-8.4,0-10.62,2.31-10.62,10.78q0,71.4,0,142.79c0,9.68,1.89,11.63,11.42,11.64Z"/><path class="cls-2" d="M160.11,85.44c0-6,0-12.08,0-18.12,0-5.22,1.71-8,5.75-8,5.26.06,10.51,0,15.77,0,3.48,0,5.18,2.3,5.18,7q0,19.64,0,39.26c0,4.85-2,6.77-5.33,6.8-5.06.06-10.13-.18-15.19,0-4.75.21-6.31-3.07-6.22-8.85C160.18,97.53,160.11,91.48,160.11,85.44Z"/><path class="cls-2" d="M313.08,86.11c0-6.28.05-12.56,0-18.84-.06-5.3,1.72-7.94,5.73-7.9,5.06.05,10.12.06,15.18,0,3.64-.06,5.71,2,5.71,7.07q0,19.61-.06,39.19c0,4.72-1.9,6.71-5.34,6.65-5.25-.1-10.5,0-15.75,0-3.69,0-5.54-2.18-5.46-7.29C313.16,98.68,313.09,92.39,313.08,86.11Z"/><path class="cls-2" d="M386.44,98.13c-.08-6.28-3.21-9.33-9.44-9.41-8.84-.12-17.68.13-26.51-.13-3.52-.11-3.93,1.36-3.84,4.28.18,6.2.21,12.42,0,18.61s-3.26,9.24-9.52,9.32c-7.14.1-14.29.13-21.43,0-6.35-.1-9.25-3-9.35-9.34s-.17-12.41,0-18.61c.1-3-.53-4.26-3.93-4.25q-52.46.18-104.92,0c-3.5,0-3.93,1.4-3.86,4.3.16,6.39.17,12.79,0,19.18-.17,5.65-3.21,8.6-8.87,8.7q-11,.19-22,0c-6.32-.1-9.26-3-9.42-9.37-.14-5.82-.24-11.66,0-17.48.19-3.91-.5-5.66-5.08-5.39-8.06.46-16.16.09-24.25.14-7.59,0-10.49,2.93-10.54,10.59-.06,10.34,0,20.68,0,31,0,9.09,2.59,11.6,11.81,11.6h124.1q63.2,0,126.37,0c7.72,0,10.63-2.87,10.67-10.48C386.52,120.31,386.57,109.22,386.44,98.13Z"/><path class="cls-2" d="M249.77,186.22c-36.68-.09-66.51,29.87-66.59,66.89a66.88,66.88,0,0,0,67,67.05c36.54.16,66.53-30,66.58-66.92A66.7,66.7,0,0,0,249.77,186.22ZM247.67,258c-13-.08-25.91-.05-38.87,0-3.33,0-6.33-.74-6.37-4.65,0-4.13,3-5.13,6.59-5.11,10.13.05,20.28-.21,30.41.11,4.37.14,5.37-1.36,5.25-5.45-.3-9.56-.09-19.14-.16-28.72,0-3.62.34-7.4,4.77-7.5s5,3.56,5,7.27c-.1,6.19,0,12.39,0,18.58h0c0,6.2-.12,12.4,0,18.59C254.44,255.83,252.45,258,247.67,258Z"/></svg>