<?xml version="1.0" encoding="utf-8"?>
<!-- Generator: Adobe Illustrator 19.0.0, SVG Export Plug-In . SVG Version: 6.00 Build 0)  -->
<svg version="1.1" id="Layer_1" xmlns="http://www.w3.org/2000/svg" xmlns:xlink="http://www.w3.org/1999/xlink" x="0px" y="0px"
	 viewBox="319 267 157.9 73.1" style="enable-background:new 319 267 157.9 73.1;" xml:space="preserve">
<style type="text/css">
	.st0{fill:#939393;}
	.st1{clip-path:url(#SVGID_2_);fill:#808080;}
	.st2{clip-path:url(#SVGID_4_);}
	.st3{fill:#C4C4C4;}
	.st4{fill:#D6488C;}
	.st5{fill:#EF5C9B;}
	.st6{fill:#C73D86;}
	.st7{fill:#AD3378;}
	.st8{fill:#F38AB8;}
	.st9{fill:#FFFFFF;}
	.st10{fill:#D61E3E;}
	.st11{fill:#EF3954;}
	.st12{fill:#1C7E9E;}
	.st13{fill:#BB1F38;}
	.st14{fill:#F05D7B;}
	.st15{clip-path:url(#SVGID_6_);fill:#EF3954;}
	.st16{clip-path:url(#SVGID_8_);fill:#AD3378;}
	.st17{clip-path:url(#SVGID_10_);fill:#D61E3E;}
	.st18{clip-path:url(#SVGID_12_);fill:#EF3954;}
	.st19{clip-path:url(#SVGID_14_);fill:#EF5C9B;}
	.st20{fill:#FDD800;}
	.st21{fill:#2B2C2B;}
</style>
<g id="XMLID_7221_">
	<g id="XMLID_7224_">
		<path id="XMLID_7271_" class="st0" d="M463.9,340.1H332.1c-7.2,0-13.1-5.9-13.1-13.1v-46.7c0-7.2,5.9-13.1,13.1-13.1h131.8
			c7.2,0,13.1,5.9,13.1,13.1V327C476.9,334.2,471.1,340.1,463.9,340.1z"/>
		<g id="XMLID_7229_">
			<g>
				<defs>
					<path id="SVGID_1_" d="M463.9,340.1H332.1c-7.2,0-13.1-5.9-13.1-13.1v-46.7c0-7.2,5.9-13.1,13.1-13.1h131.8
						c7.2,0,13.1,5.9,13.1,13.1V327C476.9,334.2,471.1,340.1,463.9,340.1z"/>
				</defs>
				<clipPath id="SVGID_2_">
					<use xlink:href="#SVGID_1_"  style="overflow:visible;"/>
				</clipPath>
				<path id="XMLID_7254_" class="st1" d="M403.1,355.7l3.5,0.4l34.6,3.6l-2.5-63.1l-7.2-0.7l0.5-4.6c0.4-4-2.5-7.6-6.5-8
					c-0.4,0-0.9,0-1.3,0c-0.4-0.1-0.8-0.2-1.2-0.2c-4-0.4-7.6,2.5-8,6.5l-0.5,4.6l-7.6-0.8l0,0h-0.4l-5,20.1l-1.4-34.2l-12.6-1.3
					l0.9-8.5c0.7-6.8-4.3-12.9-11-13.6c-1.4-0.1-2.8,0-4,0.3c-1.2-0.6-2.5-0.9-3.9-1.1c-6.8-0.7-12.9,4.3-13.6,11l-0.9,8.5
					l-15.2-1.6l-18.6,74.4l24.9,2.6l0,0l45.2,4.7l0,0l4.1,0.4L403.1,355.7L403.1,355.7z M423.9,285c2.3,0.8,3.9,3.1,3.6,5.7
					l-0.5,4.6l-8.3-0.9l0.5-4.6C419.5,287.3,421.5,285.3,423.9,285z M430.1,291l-0.5,4.6l-0.7-0.1l0.5-4.6c0.2-1.6-0.2-3.1-0.9-4.4
					C429.6,287.6,430.2,289.2,430.1,291z M416.7,289.6c0.2-1.7,1.1-3.2,2.5-4c-1,1.1-1.6,2.5-1.8,4.1l-0.5,4.6l-0.7-0.1L416.7,289.6
					z M372.9,259.4c2.9,1.8,4.7,5.2,4.3,8.8l-0.9,8.5l-10.4-1.1l0.9-8.5C367.2,263.5,369.7,260.6,372.9,259.4z M385.2,269l-0.9,8.5
					l-4.8-0.5l0.9-8.5c0.4-3.6-0.9-7.1-3.2-9.6C382.2,259.6,385.7,264,385.2,269z M358.9,266.3c0.5-5,4.9-8.6,9.9-8.2
					c-2.7,2-4.7,5.1-5,8.7l-0.9,8.5l-4.8-0.5L358.9,266.3z"/>
			</g>
			<g>
				<defs>
					<path id="SVGID_3_" d="M463.9,340.1H332.1c-7.2,0-13.1-5.9-13.1-13.1v-46.7c0-7.2,5.9-13.1,13.1-13.1h131.8
						c7.2,0,13.1,5.9,13.1,13.1V327C476.9,334.2,471.1,340.1,463.9,340.1z"/>
				</defs>
				<clipPath id="SVGID_4_">
					<use xlink:href="#SVGID_3_"  style="overflow:visible;"/>
				</clipPath>
				<g id="XMLID_7236_" class="st2">
					<g id="XMLID_7245_">
						<path id="XMLID_7253_" class="st3" d="M378.7,281.7c-0.9-0.1-1.5-0.9-1.4-1.7l1.1-10.9c0.5-5.1-3.2-9.6-8.2-10.1
							c-5.1-0.5-9.6,3.2-10.1,8.2l-1.1,10.9c-0.1,0.9-0.9,1.5-1.7,1.4c-0.9-0.1-1.5-0.9-1.4-1.7l1.1-10.9c0.7-6.8,6.8-11.7,13.6-11
							c6.8,0.7,11.7,6.8,11,13.6l-1.1,10.9C380.3,281.1,379.5,281.8,378.7,281.7z"/>
						<polygon id="XMLID_7251_" class="st4" points="339.1,349.8 396.3,355.7 393.2,279.1 354.5,275.1 						"/>
						<polygon id="XMLID_7250_" class="st5" points="374.6,353.4 314.2,347.2 332.9,272.9 393.2,279.1 						"/>
						<polygon id="XMLID_7249_" class="st6" points="396.3,355.7 386.8,344 374.6,353.4 						"/>
						<polygon id="XMLID_7248_" class="st7" points="393.2,279.1 386.8,344 374.6,353.4 						"/>
						<circle id="XMLID_7247_" class="st8" cx="351.8" cy="313" r="13.9"/>
						<path id="XMLID_7246_" class="st9" d="M370.7,280.9c-0.9-0.1-1.5-0.9-1.4-1.7l1.1-10.9c0.5-5.1-3.2-9.6-8.2-10.1
							c-5.1-0.5-9.6,3.2-10.1,8.2l-1.1,10.9c-0.1,0.9-0.9,1.5-1.7,1.4s-1.5-0.9-1.4-1.7l1.1-11c0.7-6.8,6.8-11.7,13.6-11
							s11.7,6.8,11,13.6l-1.1,10.9C372.3,280.3,371.6,281,370.7,280.9z"/>
					</g>
					<g id="XMLID_7237_">
						<path id="XMLID_7244_" class="st3" d="M423.4,298.4c-0.5-0.1-0.9-0.5-0.8-1l0.7-6.5c0.3-3-1.9-5.7-4.9-6s-5.7,1.9-6,4.9
							l-0.7,6.5c-0.1,0.5-0.5,0.9-1,0.8s-0.9-0.5-0.8-1l0.7-6.5c0.4-4,4-6.9,8-6.5s6.9,4,6.5,8l-0.7,6.5
							C424.4,298.1,423.9,298.5,423.4,298.4z"/>
						<polygon id="XMLID_7243_" class="st10" points="387.3,354.7 434.4,359.6 431.8,296.5 400,293.2 						"/>
						<polygon id="XMLID_7242_" class="st11" points="416.5,357.8 384.3,354.4 399.6,293.2 431.8,296.5 						"/>
						<polygon id="XMLID_7241_" class="st12" points="434.4,359.6 426.6,350 416.5,357.8 						"/>
						<polygon id="XMLID_7240_" class="st13" points="431.8,296.5 426.6,350 416.5,357.8 						"/>
						<path id="XMLID_7239_" class="st9" d="M420.9,298.2c-0.5-0.1-0.9-0.5-0.8-1l0.7-6.5c0.3-3-1.9-5.7-4.9-6s-5.7,1.9-6,4.9
							l-0.7,6.5c-0.1,0.5-0.5,0.9-1,0.8s-0.9-0.5-0.8-1l0.7-6.5c0.4-4,4-6.9,8-6.5s6.9,4,6.5,8l-0.7,6.5
							C421.8,297.9,421.4,298.2,420.9,298.2z"/>
						<polygon id="XMLID_7238_" class="st14" points="394.1,315.3 426.3,318.6 416.5,357.8 384.3,354.4 						"/>
					</g>
				</g>
			</g>
			<g>
				<defs>
					<path id="SVGID_5_" d="M463.9,340.1H332.1c-7.2,0-13.1-5.9-13.1-13.1v-46.7c0-7.2,5.9-13.1,13.1-13.1h131.8
						c7.2,0,13.1,5.9,13.1,13.1V327C476.9,334.2,471.1,340.1,463.9,340.1z"/>
				</defs>
				<clipPath id="SVGID_6_">
					<use xlink:href="#SVGID_5_"  style="overflow:visible;"/>
				</clipPath>
				<path id="XMLID_7235_" class="st15" d="M432.2,319.2l-6.9-0.7c-1.8-0.2-3-1.8-2.9-3.5v-0.4c0.2-1.8,1.8-3,3.5-2.9l6.9,0.7
					c1.8,0.2,3,1.8,2.9,3.5v0.4C435.6,318.1,434,319.4,432.2,319.2z"/>
			</g>
			<g>
				<defs>
					<path id="SVGID_7_" d="M463.9,340.1H332.1c-7.2,0-13.1-5.9-13.1-13.1v-46.7c0-7.2,5.9-13.1,13.1-13.1h131.8
						c7.2,0,13.1,5.9,13.1,13.1V327C476.9,334.2,471.1,340.1,463.9,340.1z"/>
				</defs>
				<clipPath id="SVGID_8_">
					<use xlink:href="#SVGID_7_"  style="overflow:visible;"/>
				</clipPath>
				<path id="XMLID_7234_" class="st16" d="M393.7,335.3l-9.5-1c-1.8-0.2-3-1.8-2.9-3.5v-0.4c0.2-1.8,1.8-3,3.5-2.9l9.5,1
					c1.8,0.2,3,1.8,2.9,3.5v0.4C397.1,334.2,395.5,335.5,393.7,335.3z"/>
			</g>
			<g>
				<defs>
					<path id="SVGID_9_" d="M463.9,340.1H332.1c-7.2,0-13.1-5.9-13.1-13.1v-46.7c0-7.2,5.9-13.1,13.1-13.1h131.8
						c7.2,0,13.1,5.9,13.1,13.1V327C476.9,334.2,471.1,340.1,463.9,340.1z"/>
				</defs>
				<clipPath id="SVGID_10_">
					<use xlink:href="#SVGID_9_"  style="overflow:visible;"/>
				</clipPath>
				<path id="XMLID_7233_" class="st17" d="M445.5,329.9l-13.5-1.5c-1.8-0.2-3-1.8-2.9-3.5v-0.4c0.2-1.8,1.8-3,3.5-2.9l13.5,1.5
					c1.8,0.2,3,1.8,2.9,3.5v0.4C448.9,328.8,447.3,330.1,445.5,329.9z"/>
			</g>
			<g>
				<defs>
					<path id="SVGID_11_" d="M463.9,340.1H332.1c-7.2,0-13.1-5.9-13.1-13.1v-46.7c0-7.2,5.9-13.1,13.1-13.1h131.8
						c7.2,0,13.1,5.9,13.1,13.1V327C476.9,334.2,471.1,340.1,463.9,340.1z"/>
				</defs>
				<clipPath id="SVGID_12_">
					<use xlink:href="#SVGID_11_"  style="overflow:visible;"/>
				</clipPath>
				<path id="XMLID_7232_" class="st18" d="M439.6,320.1L439.6,320.1c-1.8-0.2-3-1.8-2.9-3.5v-0.4c0.2-1.8,1.8-3,3.5-2.9l0,0
					c1.8,0.2,3,1.8,2.9,3.5v0.4C443,319,441.4,320.3,439.6,320.1z"/>
			</g>
			<g>
				<defs>
					<path id="SVGID_13_" d="M463.9,340.1H332.1c-7.2,0-13.1-5.9-13.1-13.1v-46.7c0-7.2,5.9-13.1,13.1-13.1h131.8
						c7.2,0,13.1,5.9,13.1,13.1V327C476.9,334.2,471.1,340.1,463.9,340.1z"/>
				</defs>
				<clipPath id="SVGID_14_">
					<use xlink:href="#SVGID_13_"  style="overflow:visible;"/>
				</clipPath>
				<path id="XMLID_7231_" class="st19" d="M397.6,304.1l-12.2-1.3c-1.8-0.2-3-1.8-2.9-3.5v-0.4c0.2-1.8,1.8-3,3.5-2.9l12.2,1.3
					c1.8,0.2,3,1.8,2.9,3.5v0.4C400.9,303,399.4,304.3,397.6,304.1z"/>
			</g>
		</g>
	</g>
	<path id="XMLID_7222_" class="st20" d="M399.4,267h77.5v15.7h-77.5c-4.3,0-7.9-3.5-7.9-7.9l0,0C391.5,270.5,395.1,267,399.4,267z"
		/>
	<g id="XMLID_42_">
		<g id="XMLID_260_">
			<path id="XMLID_289_" class="st21" d="M402.1,280v-7.1h1c0.1,0,0.2,0,0.3,0.1c0.1,0,0.1,0.1,0.1,0.2l0.1,0.4
				c0.1-0.1,0.2-0.2,0.3-0.3c0.1-0.1,0.2-0.2,0.4-0.2c0.1-0.1,0.3-0.1,0.4-0.2c0.2,0,0.3-0.1,0.5-0.1c0.3,0,0.5,0.1,0.8,0.2
				c0.2,0.1,0.4,0.3,0.6,0.5s0.3,0.5,0.4,0.9s0.1,0.7,0.1,1.2c0,0.4-0.1,0.8-0.2,1.1s-0.3,0.6-0.5,0.9s-0.4,0.5-0.7,0.6
				s-0.6,0.2-0.9,0.2s-0.5,0-0.7-0.1s-0.4-0.2-0.5-0.3v2.1h-1.5V280z M404.8,274c-0.1,0-0.2,0-0.3,0c-0.1,0-0.2,0.1-0.3,0.1
				c-0.1,0-0.2,0.1-0.2,0.2s-0.1,0.1-0.2,0.2v2.3c0.1,0.1,0.3,0.2,0.4,0.3c0.1,0.1,0.3,0.1,0.4,0.1s0.3,0,0.4-0.1s0.2-0.2,0.3-0.3
				s0.2-0.3,0.2-0.5c0.1-0.2,0.1-0.5,0.1-0.8s0-0.5-0.1-0.7c0-0.2-0.1-0.4-0.2-0.5s-0.2-0.2-0.3-0.3C405,274,404.9,274,404.8,274z"
				/>
			<path id="XMLID_287_" class="st21" d="M408.1,278.2v-5.4h1c0.1,0,0.1,0,0.2,0s0.1,0,0.1,0.1l0.1,0.1c0,0,0,0.1,0,0.2l0.1,0.5
				c0.2-0.3,0.4-0.5,0.7-0.7s0.5-0.3,0.8-0.3c0.2,0,0.4,0.1,0.6,0.2l-0.2,1.2c0,0.1,0,0.1-0.1,0.2c0,0-0.1,0-0.2,0s-0.1,0-0.2,0
				s-0.2,0-0.3,0c-0.4,0-0.8,0.2-1,0.7v3.3h-1.6V278.2z"/>
			<path id="XMLID_283_" class="st21" d="M414.8,272.8c0.4,0,0.8,0.1,1.1,0.2c0.3,0.1,0.6,0.3,0.9,0.6c0.2,0.2,0.4,0.5,0.6,0.9
				c0.1,0.3,0.2,0.7,0.2,1.2c0,0.4-0.1,0.8-0.2,1.2c-0.1,0.3-0.3,0.6-0.6,0.9c-0.2,0.2-0.5,0.4-0.9,0.6s-0.7,0.2-1.1,0.2
				s-0.8-0.1-1.1-0.2s-0.6-0.3-0.9-0.6s-0.4-0.5-0.6-0.9c-0.1-0.3-0.2-0.7-0.2-1.2c0-0.4,0.1-0.8,0.2-1.2c0.1-0.3,0.3-0.6,0.6-0.9
				s0.5-0.4,0.9-0.6C414,272.8,414.4,272.8,414.8,272.8z M414.8,277.1c0.4,0,0.6-0.1,0.8-0.4s0.3-0.7,0.3-1.2s-0.1-0.9-0.3-1.2
				c-0.2-0.3-0.4-0.4-0.8-0.4s-0.7,0.1-0.8,0.4c-0.2,0.3-0.3,0.7-0.3,1.2s0.1,0.9,0.3,1.2S414.4,277.1,414.8,277.1z M416.9,270.6
				l-1.4,1.4c-0.1,0.1-0.2,0.1-0.2,0.2c-0.1,0-0.2,0-0.3,0h-1l0.7-1.3c0.1-0.1,0.1-0.2,0.2-0.2c0.1-0.1,0.2-0.1,0.4-0.1H416.9z"/>
			<path id="XMLID_281_" class="st21" d="M419.4,275.5l-1.7-2.6h1.5c0.1,0,0.2,0,0.3,0c0.1,0,0.1,0.1,0.1,0.1l1,1.6
				c0-0.1,0-0.1,0.1-0.2c0-0.1,0.1-0.1,0.1-0.2l0.7-1.2c0-0.1,0.1-0.1,0.2-0.2c0.1,0,0.1,0,0.2,0h1.5l-1.7,2.5l1.8,2.9H422
				c-0.1,0-0.2,0-0.3-0.1c-0.1-0.1-0.1-0.1-0.2-0.2l-1-1.7c0,0.1,0,0.1-0.1,0.2c0,0.1-0.1,0.1-0.1,0.1l-0.8,1.3
				c0,0.1-0.1,0.1-0.2,0.2s-0.2,0.1-0.3,0.1h-1.4L419.4,275.5z"/>
			<path id="XMLID_278_" class="st21" d="M426,271.4c0,0.1,0,0.2-0.1,0.4c-0.1,0.1-0.1,0.2-0.2,0.3s-0.2,0.2-0.3,0.2
				c-0.1,0.1-0.2,0.1-0.4,0.1c-0.1,0-0.3,0-0.4-0.1s-0.2-0.1-0.3-0.2c-0.1-0.1-0.2-0.2-0.2-0.3c0-0.1-0.1-0.2-0.1-0.4
				c0-0.1,0-0.3,0.1-0.4s0.1-0.2,0.2-0.3c0.1-0.1,0.2-0.2,0.3-0.2c0.1,0,0.2-0.1,0.4-0.1c0.1,0,0.3,0,0.4,0.1c0.1,0,0.2,0.1,0.3,0.2
				s0.2,0.2,0.2,0.3C425.9,271.1,426,271.3,426,271.4z M425.8,272.9v5.4h-1.6v-5.4H425.8z"/>
			<path id="XMLID_276_" class="st21" d="M427.1,278.2v-5.4h1c0.1,0,0.2,0,0.3,0.1c0.1,0,0.1,0.1,0.1,0.2l0.1,0.3
				c0.1-0.1,0.2-0.2,0.3-0.3c0.1-0.1,0.2-0.1,0.3-0.2c0.1-0.1,0.2-0.1,0.4-0.1c0.1,0,0.3,0,0.4,0c0.3,0,0.6,0.1,0.8,0.3
				s0.4,0.4,0.5,0.7c0.1-0.2,0.2-0.3,0.3-0.4c0.1-0.1,0.3-0.2,0.4-0.3s0.3-0.1,0.5-0.2s0.3-0.1,0.5-0.1c0.3,0,0.6,0,0.8,0.1
				c0.2,0.1,0.4,0.2,0.6,0.4c0.2,0.2,0.3,0.4,0.4,0.6c0.1,0.3,0.1,0.5,0.1,0.9v3.4h-1.6v-3.4c0-0.6-0.2-0.8-0.7-0.8
				c-0.2,0-0.4,0.1-0.5,0.2s-0.2,0.4-0.2,0.6v3.4h-1.6v-3.4c0-0.3-0.1-0.5-0.2-0.6s-0.3-0.2-0.5-0.2c-0.1,0-0.3,0-0.4,0.1
				s-0.3,0.2-0.4,0.3v3.9h-1.7V278.2z"/>
			<path id="XMLID_273_" class="st21" d="M439.7,278.2c-0.2,0-0.3,0-0.3-0.1s-0.1-0.1-0.2-0.3l-0.1-0.3c-0.1,0.1-0.3,0.2-0.4,0.3
				c-0.1,0.1-0.3,0.2-0.4,0.2c-0.1,0.1-0.3,0.1-0.4,0.1c-0.2,0-0.3,0-0.5,0s-0.5,0-0.7-0.1s-0.4-0.2-0.5-0.3
				c-0.1-0.1-0.2-0.3-0.3-0.5s-0.1-0.4-0.1-0.6s0-0.4,0.1-0.6s0.3-0.4,0.5-0.6s0.6-0.3,1-0.4s0.9-0.2,1.5-0.2v-0.2
				c0-0.3-0.1-0.5-0.2-0.7s-0.3-0.2-0.6-0.2c-0.2,0-0.3,0-0.5,0.1c-0.1,0-0.2,0.1-0.3,0.1c-0.1,0.1-0.2,0.1-0.3,0.1
				s-0.2,0.1-0.3,0.1c-0.1,0-0.2,0-0.3-0.1c-0.1-0.1-0.1-0.1-0.2-0.2l-0.3-0.5c0.3-0.3,0.7-0.5,1.1-0.6s0.8-0.2,1.3-0.2
				c0.3,0,0.6,0.1,0.9,0.2s0.5,0.3,0.7,0.4c0.2,0.2,0.3,0.4,0.4,0.7c0.1,0.3,0.1,0.5,0.1,0.9v3.4h-0.7V278.2z M437.9,277.3
				c0.2,0,0.4,0,0.5-0.1c0.2-0.1,0.3-0.2,0.5-0.4v-0.7c-0.3,0-0.6,0-0.8,0.1c-0.2,0-0.4,0.1-0.5,0.2s-0.2,0.1-0.3,0.2
				s-0.1,0.2-0.1,0.3c0,0.2,0,0.3,0.2,0.4S437.7,277.3,437.9,277.3z"/>
			<path id="XMLID_271_" class="st21" d="M441.6,278.2v-5.4h1c0.1,0,0.2,0,0.3,0.1c0.1,0,0.1,0.1,0.1,0.2l0.1,0.3
				c0.1-0.1,0.2-0.2,0.3-0.3c0.1-0.1,0.2-0.1,0.3-0.2s0.2-0.1,0.4-0.1c0.1,0,0.3,0,0.4,0c0.3,0,0.6,0.1,0.8,0.3
				c0.2,0.2,0.4,0.4,0.5,0.7c0.1-0.2,0.2-0.3,0.3-0.4c0.1-0.1,0.3-0.2,0.4-0.3c0.2-0.1,0.3-0.1,0.5-0.2s0.3-0.1,0.5-0.1
				c0.3,0,0.6,0,0.8,0.1s0.4,0.2,0.6,0.4c0.2,0.2,0.3,0.4,0.4,0.6c0.1,0.3,0.1,0.5,0.1,0.9v3.4h-1.6v-3.4c0-0.6-0.2-0.8-0.7-0.8
				c-0.2,0-0.4,0.1-0.5,0.2s-0.2,0.4-0.2,0.6v3.4h-1.6v-3.4c0-0.3-0.1-0.5-0.2-0.6s-0.3-0.2-0.5-0.2c-0.1,0-0.3,0-0.4,0.1
				s-0.3,0.2-0.4,0.3v3.9h-1.7V278.2z"/>
			<path id="XMLID_268_" class="st21" d="M452.9,272.8c0.4,0,0.7,0.1,1,0.2s0.6,0.3,0.8,0.5c0.2,0.2,0.4,0.5,0.5,0.8s0.2,0.7,0.2,1
				c0,0.1,0,0.2,0,0.3s0,0.1-0.1,0.2l-0.1,0.1c0,0-0.1,0-0.2,0h-3.1c0.1,0.5,0.2,0.8,0.4,1c0.2,0.2,0.5,0.3,0.9,0.3
				c0.2,0,0.3,0,0.5-0.1c0.1,0,0.3-0.1,0.4-0.2s0.2-0.1,0.3-0.2c0.1,0,0.2-0.1,0.3-0.1c0.1,0,0.2,0,0.3,0.1l0.5,0.6
				c-0.2,0.2-0.3,0.3-0.5,0.5s-0.4,0.2-0.6,0.3c-0.2,0.1-0.4,0.1-0.6,0.1s-0.4,0-0.6,0c-0.4,0-0.7-0.1-1.1-0.2
				c-0.3-0.1-0.6-0.3-0.9-0.5c-0.2-0.2-0.4-0.5-0.6-0.9s-0.2-0.8-0.2-1.3c0-0.4,0.1-0.7,0.2-1s0.3-0.6,0.5-0.8s0.5-0.4,0.8-0.6
				S452.5,272.8,452.9,272.8z M452.9,273.9c-0.3,0-0.5,0.1-0.7,0.3c-0.2,0.2-0.3,0.4-0.3,0.8h2c0-0.1,0-0.3,0-0.4s-0.1-0.2-0.2-0.3
				c-0.1-0.1-0.2-0.2-0.3-0.2S453.1,273.9,452.9,273.9z"/>
			<path id="XMLID_266_" class="st21" d="M456.2,278.2v-5.4h1c0.1,0,0.2,0,0.3,0.1c0.1,0,0.1,0.1,0.1,0.2l0.1,0.3
				c0.1-0.1,0.2-0.2,0.3-0.3c0.1-0.1,0.2-0.2,0.4-0.2c0.1-0.1,0.3-0.1,0.4-0.1s0.3,0,0.5,0c0.3,0,0.6,0.1,0.8,0.2
				c0.2,0.1,0.4,0.2,0.6,0.4c0.2,0.2,0.3,0.4,0.4,0.6c0.1,0.3,0.1,0.5,0.1,0.8v3.4h-1.6v-3.4c0-0.3-0.1-0.5-0.2-0.6
				s-0.3-0.2-0.5-0.2s-0.3,0-0.5,0.1s-0.3,0.2-0.4,0.3v3.8L456.2,278.2L456.2,278.2z"/>
			<path id="XMLID_264_" class="st21" d="M464.2,278.3c-0.3,0-0.5,0-0.7-0.1s-0.4-0.2-0.5-0.3c-0.1-0.1-0.2-0.3-0.3-0.5
				c-0.1-0.2-0.1-0.4-0.1-0.6V274h-0.5c-0.1,0-0.2,0-0.2-0.1c-0.1-0.1-0.1-0.1-0.1-0.2V273l0.9-0.2l0.3-1.3c0-0.2,0.2-0.2,0.4-0.2
				h0.8v1.6h1.3v1.1h-1.3v2.7c0,0.1,0,0.2,0.1,0.3c0.1,0.1,0.1,0.1,0.3,0.1c0.1,0,0.1,0,0.1,0h0.1h0.1h0.1h0.1l0.1,0.1l0.5,0.8
				c-0.2,0.2-0.4,0.3-0.7,0.4C464.7,278.3,464.4,278.3,464.2,278.3z"/>
			<path id="XMLID_261_" class="st21" d="M468.7,272.8c0.4,0,0.7,0.1,1,0.2s0.6,0.3,0.8,0.5s0.4,0.5,0.5,0.8s0.2,0.7,0.2,1
				c0,0.1,0,0.2,0,0.3c0,0.1,0,0.1-0.1,0.2s-0.1,0.1-0.1,0.1s-0.1,0-0.2,0h-3.1c0.1,0.5,0.2,0.8,0.4,1c0.2,0.2,0.5,0.3,0.9,0.3
				c0.2,0,0.3,0,0.5-0.1c0.1,0,0.3-0.1,0.4-0.2s0.2-0.1,0.3-0.2c0.1,0,0.2-0.1,0.3-0.1c0.1,0,0.2,0,0.3,0.1l0.5,0.6
				c-0.2,0.2-0.3,0.3-0.5,0.5s-0.4,0.2-0.6,0.3c-0.2,0.1-0.4,0.1-0.6,0.1s-0.4,0-0.6,0c-0.4,0-0.7-0.1-1.1-0.2
				c-0.3-0.1-0.6-0.3-0.9-0.5s-0.4-0.5-0.6-0.9c-0.1-0.4-0.2-0.8-0.2-1.3c0-0.4,0.1-0.7,0.2-1s0.3-0.6,0.5-0.8s0.5-0.4,0.8-0.6
				C467.9,272.8,468.3,272.8,468.7,272.8z M468.8,273.9c-0.3,0-0.5,0.1-0.7,0.3c-0.2,0.2-0.3,0.4-0.3,0.8h2c0-0.1,0-0.3,0-0.4
				s-0.1-0.2-0.2-0.3c-0.1-0.1-0.2-0.2-0.3-0.2C469.1,273.9,468.9,273.9,468.8,273.9z"/>
		</g>
	</g>
</g>
</svg>
