<?xml version="1.0" encoding="utf-8"?>
<!-- Generator: Adobe Illustrator 23.0.1, SVG Export Plug-In . SVG Version: 6.00 Build 0)  -->
<svg version="1.1" id="Layer_1" xmlns="http://www.w3.org/2000/svg" xmlns:xlink="http://www.w3.org/1999/xlink" x="0px" y="0px"
	 viewBox="0 0 1080 1080" style="enable-background:new 0 0 1080 1080;" xml:space="preserve">
<style type="text/css">
	.st0{fill:#727272;}
	.st1{fill:#4F4F4F;}
	.st2{fill:#FFFFFF;}
</style>
<title>Untitled-3</title>
<rect class="st0" width="1080" height="1080"/>
<path class="st1" d="M207.2,821.6c-3.5-13.2-6.8-30.8-8.5-53.1c-1.8-22.3-3-44.8-3-67.6c0-17.5,0.7-38.1,2.4-61.7
	c1.6-19.9,4.6-39.6,9.1-59l331.3-179.9l332.8,180c3.5,15.8,8.9,35.4,10.7,59s2.2,44.2,2.2,61.7c0,22.8-1.6,45.3-3.4,67.6
	c-1.5,18-4.6,35.8-9.4,53.1l-333-181.4L207.2,821.6z"/>
<path class="st1" d="M207.2,503.2c-3.5-13.2-6.8-30.8-8.5-53.1c-1.8-22.3-3-44.8-3-67.6c0-17.5,0.7-38.1,2.4-61.7
	c1.6-19.9,4.6-39.6,9.1-59l331.2-180l332.8,180c3.5,15.7,8.9,35.4,10.7,59s2.2,44.2,2.2,61.7c0,22.8-1.6,45.3-3.4,67.6
	c-1.5,18-4.6,35.8-9.4,53.1l-333-181.3L207.2,503.2z"/>
<path class="st2" d="M207.2,781.1c-3.5-13.2-6.8-30.8-8.5-53.1c-1.8-22.3-3-44.8-3-67.6c0-17.5,0.7-38.1,2.4-61.7
	c1.6-19.9,4.6-39.6,9.1-59l331.3-179.9l332.8,180c3.5,15.8,8.9,35.4,10.7,59s2.2,44.2,2.2,61.7c0,22.8-1.6,45.3-3.4,67.6
	c-1.5,18-4.6,35.8-9.4,53.1l-333-181.4L207.2,781.1z"/>
<path class="st2" d="M207.2,462.8c-3.5-13.2-6.8-30.8-8.5-53.1c-1.8-22.3-3-44.8-3-67.6c0-17.5,0.7-38.1,2.4-61.7
	c1.6-19.9,4.6-39.6,9.1-59l331.2-180l332.8,180c3.5,15.7,8.9,35.4,10.7,59s2.2,44.2,2.2,61.7c0,22.8-1.6,45.3-3.4,67.6
	c-1.5,18-4.6,35.8-9.4,53.1l-333-181.3L207.2,462.8z"/>
</svg>
