<svg id="Layer_1" data-name="Layer 1" xmlns="http://www.w3.org/2000/svg" viewBox="0 0 56 57"><defs><style>.cls-1{fill:#ffd400;}.cls-2{fill:#fff;}</style></defs><title>assets</title><ellipse class="cls-1" cx="28.28" cy="28.19" rx="24.66" ry="24.64"/><path class="cls-2" d="M28.28,55.89A27.7,27.7,0,1,1,56,28.19,27.74,27.74,0,0,1,28.28,55.89Zm0-49.29A21.59,21.59,0,1,0,49.89,28.19,21.62,21.62,0,0,0,28.28,6.6Z"/><path class="cls-2" d="M36.82,21.9V14.11H19.75V21.9a8.49,8.49,0,0,0,2.78,6.29,8.49,8.49,0,0,0-2.78,6.29v7.78H36.82V34.48A8.49,8.49,0,0,0,34,28.19,8.49,8.49,0,0,0,36.82,21.9Zm-4.5,12.58v3.28H24.25V34.48a4,4,0,1,1,8.07,0ZM24.25,21.9V18.62h8.07V21.9a4,4,0,1,1-8.07,0Z"/></svg>