<svg id="Layer_1" data-name="Layer 1" xmlns="http://www.w3.org/2000/svg" viewBox="0 0 38 38"><defs><style>.cls-1{fill:#0689ff;}.cls-2{fill:#fff;}</style></defs><title>Untitled-1</title><ellipse class="cls-1" cx="19" cy="19" rx="16.97" ry="16.96"/><path class="cls-2" d="M19,38.07A19.07,19.07,0,1,1,38.08,19,19.1,19.1,0,0,1,19,38.07ZM19,4.14A14.86,14.86,0,1,0,33.87,19,14.88,14.88,0,0,0,19,4.14Z"/><path class="cls-2" d="M22.33,14.67V9.31H10.58v5.36A5.87,5.87,0,0,0,12.49,19a5.87,5.87,0,0,0-1.91,4.33v5.36H22.33V23.33A5.87,5.87,0,0,0,20.42,19,5.87,5.87,0,0,0,22.33,14.67Zm-3.1,8.66v2.26H13.68V23.33a2.78,2.78,0,1,1,5.55,0Zm-5.55-8.66V12.41h5.55v2.26a2.78,2.78,0,1,1-5.55,0Z"/><path class="cls-2" d="M25.57,24.86a1.81,1.81,0,0,1-1.28-3.09l2.63-2.64L24,16.23a1.81,1.81,0,1,1,2.56-2.56l4.18,4.18a1.8,1.8,0,0,1,0,2.56l-3.91,3.92A1.84,1.84,0,0,1,25.57,24.86Z"/></svg>