<svg id="Layer_1" data-name="Layer 1" xmlns="http://www.w3.org/2000/svg" viewBox="0 0 38 38"><defs><style>.cls-1{fill:#ff6700;}.cls-2{fill:#fff;}.cls-3{fill:#ffd0b0;}.cls-4{fill:#ff9e5c;}.cls-5{fill:#ffb07b;}.cls-6{fill:#ff812c;}</style></defs><title>Untitled-1</title><ellipse class="cls-1" cx="19" cy="19" rx="16.97" ry="16.96"/><path class="cls-2" d="M19,38.07A19.07,19.07,0,1,1,38.08,19,19.1,19.1,0,0,1,19,38.07ZM19,4.14A14.86,14.86,0,1,0,33.87,19,14.88,14.88,0,0,0,19,4.14Z"/><path class="cls-2" d="M19,12.67a6.23,6.23,0,0,1,2.41.47.45.45,0,0,0,.16,0A.43.43,0,0,0,22,12.9l1.34-3.27a.43.43,0,0,0-.24-.58A10.75,10.75,0,0,0,19,8.25a.42.42,0,0,0-.31.13.44.44,0,0,0-.13.31l0,3.54A.44.44,0,0,0,19,12.67Z"/><path class="cls-1" d="M13.89,14.53a.4.4,0,0,0,.31.13.43.43,0,0,0,.31-.13,6.33,6.33,0,0,1,2-1.38.43.43,0,0,0,.24-.24.5.5,0,0,0,0-.34L15.43,9.31a.45.45,0,0,0-.23-.24.5.5,0,0,0-.34,0,10.7,10.7,0,0,0-3.48,2.35.4.4,0,0,0-.13.31.44.44,0,0,0,.13.31Z"/><path class="cls-1" d="M12.67,19a6.35,6.35,0,0,1,.47-2.41A.45.45,0,0,0,12.9,16L9.63,14.66a.5.5,0,0,0-.34,0,.56.56,0,0,0-.24.24,10.85,10.85,0,0,0-.8,4.1v0a.4.4,0,0,0,.13.31.44.44,0,0,0,.31.13h0l3.54,0A.44.44,0,0,0,12.67,19Z"/><path class="cls-3" d="M23.46,14.5a6.59,6.59,0,0,1,1.39,2.05.41.41,0,0,0,.24.24.36.36,0,0,0,.33,0l3.26-1.37a.41.41,0,0,0,.24-.24.38.38,0,0,0,0-.33,10.83,10.83,0,0,0-2.34-3.48c-.09-.08-.2-.17-.32-.13a.46.46,0,0,0-.31.13l-2.49,2.51A.44.44,0,0,0,23.46,14.5Z"/><path class="cls-4" d="M24.11,23.48a.43.43,0,0,0-.63,0,6.31,6.31,0,0,1-2.05,1.37.45.45,0,0,0-.24.58l1.36,3.27A.45.45,0,0,0,23,29a.33.33,0,0,0,.17,0,10.63,10.63,0,0,0,3.49-2.33.46.46,0,0,0,.13-.31.48.48,0,0,0-.13-.32Z"/><path class="cls-5" d="M29.62,18.65a.42.42,0,0,0-.31-.13l-3.54,0a.44.44,0,0,0-.44.44,6.4,6.4,0,0,1-.47,2.42.44.44,0,0,0,.23.58l3.27,1.35a.35.35,0,0,0,.17,0,.45.45,0,0,0,.41-.28A10.72,10.72,0,0,0,29.75,19,.42.42,0,0,0,29.62,18.65Z"/><path class="cls-4" d="M19,25.33a6.44,6.44,0,0,1-2.42-.47.38.38,0,0,0-.33,0,.41.41,0,0,0-.24.24l-1.35,3.27a.38.38,0,0,0,0,.33.42.42,0,0,0,.23.24,10.72,10.72,0,0,0,4.11.81h0a.4.4,0,0,0,.31-.13.44.44,0,0,0,.13-.31V25.78A.45.45,0,0,0,19,25.33Z"/><path class="cls-6" d="M14.53,23.48a6.24,6.24,0,0,1-1.38-2,.43.43,0,0,0-.24-.24.4.4,0,0,0-.34,0L9.31,22.56a.42.42,0,0,0-.24.23.4.4,0,0,0,0,.34,10.66,10.66,0,0,0,2.34,3.49.43.43,0,0,0,.31.12h0a.4.4,0,0,0,.31-.13l2.5-2.5a.46.46,0,0,0,.13-.31A.48.48,0,0,0,14.53,23.48Z"/></svg>