<svg id="Layer_1" data-name="Layer 1" xmlns="http://www.w3.org/2000/svg" viewBox="0 0 38 38"><defs><style>.cls-1{fill:#0689ff;}.cls-2{fill:#fff;}</style></defs><title>Untitled-1</title><ellipse class="cls-1" cx="19" cy="19" rx="16.97" ry="16.96"/><path class="cls-2" d="M19,38.07A19.07,19.07,0,1,1,38.08,19,19.1,19.1,0,0,1,19,38.07ZM19,4.14A14.86,14.86,0,1,0,33.87,19,14.88,14.88,0,0,0,19,4.14Z"/><path class="cls-2" d="M22,27.27A2.5,2.5,0,0,1,20.26,23l3.64-3.64-4-4a2.5,2.5,0,0,1,3.53-3.53l5.77,5.77a2.5,2.5,0,0,1,0,3.54l-5.41,5.41A2.45,2.45,0,0,1,22,27.27Z"/><path class="cls-2" d="M12.3,27.27a2.49,2.49,0,0,1-1.77-.73,2.52,2.52,0,0,1,0-3.54l3.64-3.64-4-4a2.5,2.5,0,0,1,3.53-3.53l5.78,5.77a2.52,2.52,0,0,1,0,3.54l-5.41,5.41A2.49,2.49,0,0,1,12.3,27.27Z"/></svg>