<svg id="Layer_1" data-name="Layer 1" xmlns="http://www.w3.org/2000/svg" viewBox="0 0 38 38"><defs><style>.cls-1{fill:#ff1010;}.cls-2{fill:#fff;}</style></defs><title>cancelada</title><ellipse class="cls-1" cx="19" cy="19" rx="16.49" ry="16.48"/><path class="cls-2" d="M19,37.52A18.52,18.52,0,1,1,37.53,19,18.55,18.55,0,0,1,19,37.52Zm0-33A14.44,14.44,0,1,0,33.44,19,14.46,14.46,0,0,0,19,4.56Z"/><path class="cls-2" d="M23.12,19l4.26-4.25a2.92,2.92,0,0,0-4.13-4.13L19,14.88l-4.25-4.26a2.92,2.92,0,1,0-4.13,4.13L14.88,19l-4.26,4.25a2.92,2.92,0,0,0,4.13,4.13L19,23.12l4.25,4.26a2.92,2.92,0,0,0,4.13-4.13Z"/></svg>