<svg id="Layer_1" data-name="Layer 1" xmlns="http://www.w3.org/2000/svg" viewBox="0 0 38 38"><defs><style>.cls-1{fill:#212121;}.cls-2{fill:#fff;}</style></defs><title>Untitled-1</title><ellipse class="cls-1" cx="19" cy="19" rx="16.97" ry="16.96"/><path class="cls-2" d="M19,38.07A19.07,19.07,0,1,1,38.08,19,19.1,19.1,0,0,1,19,38.07ZM19,4.14A14.86,14.86,0,1,0,33.87,19,14.88,14.88,0,0,0,19,4.14Z"/><path class="cls-2" d="M25.86,22.06H12.14a3,3,0,0,1-2.16-.9A3.06,3.06,0,0,1,9.08,19h0a3.06,3.06,0,0,1,.9-2.16,3,3,0,0,1,2.16-.9H25.86a3,3,0,0,1,2.16.9,3.06,3.06,0,0,1,.9,2.16h0a3.06,3.06,0,0,1-.9,2.16A3,3,0,0,1,25.86,22.06Z"/></svg>