<svg xmlns="http://www.w3.org/2000/svg" xmlns:xlink="http://www.w3.org/1999/xlink" viewBox="0 0 186 155"><defs><style>.cls-1{isolation:isolate;}.cls-2{fill:#fff;}.cls-3{fill:#a5a5a5;mix-blend-mode:multiply;}.cls-4{fill:url(#New_Gradient_Swatch_1);}.cls-5{fill:url(#New_Gradient_Swatch_1-2);}</style><linearGradient id="New_Gradient_Swatch_1" x1="35.4" y1="70.76" x2="171.36" y2="70.76" gradientUnits="userSpaceOnUse"><stop offset="0" stop-color="#39b54a"/><stop offset="1" stop-color="#8cc63f"/></linearGradient><linearGradient id="New_Gradient_Swatch_1-2" x1="0.5" y1="93.77" x2="89.71" y2="93.77" xlink:href="#New_Gradient_Swatch_1"/></defs><title>assets</title><g class="cls-1"><g id="Layer_1" data-name="Layer 1"><path class="cls-2" d="M24.85,22.44H21.3V18.89a2.57,2.57,0,1,0-5.13,0v3.55H12.62a2.57,2.57,0,0,0,0,5.13h3.55v3.55a2.57,2.57,0,0,0,5.13,0V27.57h3.55a2.57,2.57,0,1,0,0-5.13Z"/><path class="cls-3" d="M77.55,153,20.69,96.15A18.94,18.94,0,1,1,47.47,69.36L77.55,99.43l76.11-76.11a18.94,18.94,0,1,1,26.79,26.79Z"/><path class="cls-4" d="M165.81,8.68a19,19,0,0,0-26.79,0L62.91,84.8,35.4,110.86l27.51,27.52L165.81,35.47A18.94,18.94,0,0,0,165.81,8.68Z"/><path class="cls-5" d="M62.91,84.8,32.84,54.72A18.94,18.94,0,0,0,6.05,81.51l56.86,56.87,26.8-26.81Z"/><path class="cls-2" d="M164.11,85.33h-8.47V76.87a6.11,6.11,0,1,0-12.22,0v8.46H135a6.11,6.11,0,1,0,0,12.22h8.46V106a6.11,6.11,0,1,0,12.22,0V97.55h8.47a6.11,6.11,0,0,0,0-12.22Z"/><path class="cls-2" d="M36.87,123.64H32.52v-4.35a3.15,3.15,0,0,0-6.29,0v4.35H21.88a3.15,3.15,0,0,0,0,6.29h4.35v4.35a3.15,3.15,0,1,0,6.29,0v-4.35h4.35a3.15,3.15,0,1,0,0-6.29Z"/></g></g></svg>