<svg id="Layer_1" data-name="Layer 1" xmlns="http://www.w3.org/2000/svg" xmlns:xlink="http://www.w3.org/1999/xlink" viewBox="0 0 180 162"><defs><style>.cls-1{fill:#fff;}.cls-2{fill:#212120;}.cls-3{fill:url(#linear-gradient);}.cls-4{fill:url(#linear-gradient-2);}</style><linearGradient id="linear-gradient" x1="35.93" y1="75.08" x2="164.19" y2="75.08" gradientUnits="userSpaceOnUse"><stop offset="0" stop-color="#3bb44a"/><stop offset="1" stop-color="#8bc540"/></linearGradient><linearGradient id="linear-gradient-2" x1="3" y1="96.8" x2="87.16" y2="96.8" xlink:href="#linear-gradient"/></defs><title>Untitled-3</title><path class="cls-1" d="M26,29.5H22.63V26.15a2.42,2.42,0,0,0-4.84,0V29.5H14.44a2.42,2.42,0,1,0,0,4.84h3.35v3.35a2.42,2.42,0,0,0,4.84,0V34.34H26a2.42,2.42,0,0,0,0-4.84Z"/><path class="cls-2" d="M75.69,152.68,22,99A17.88,17.88,0,0,1,47.32,73.76l28.37,28.38,71.8-71.81A17.87,17.87,0,0,1,172.77,55.6Z"/><path class="cls-3" d="M159,16.52a17.88,17.88,0,0,0-25.28,0L61.88,88.33,35.93,112.92l26,26L159,41.79A17.87,17.87,0,0,0,159,16.52Z"/><path class="cls-4" d="M61.88,88.33,33.51,60A17.88,17.88,0,0,0,8.23,85.23l53.65,53.64,25.28-25.28Z"/><path class="cls-1" d="M157.35,88.83h-8v-8a5.77,5.77,0,1,0-11.53,0v8h-8a5.77,5.77,0,1,0,0,11.53h8v8a5.77,5.77,0,0,0,11.53,0v-8h8a5.77,5.77,0,0,0,0-11.53Z"/><path class="cls-1" d="M37.32,125H33.21v-4.11a3,3,0,1,0-5.93,0V125H23.17a3,3,0,0,0,0,5.93h4.11V135a3,3,0,1,0,5.93,0v-4.1h4.11a3,3,0,0,0,0-5.93Z"/></svg>