<svg id="Layer_1" data-name="Layer 1" xmlns="http://www.w3.org/2000/svg" xmlns:xlink="http://www.w3.org/1999/xlink" viewBox="0 0 56 57"><defs><style>.cls-1{fill:none;}.cls-2{fill:#f43552;}.cls-3{clip-path:url(#clip-path);}.cls-4{fill:#d6183c;}.cls-5{fill:#26993c;}.cls-6{fill:#31bc4f;}.cls-7{fill:#7bff97;}</style><clipPath id="clip-path"><rect class="cls-1" y="0.9" width="56" height="56" rx="13.07"/></clipPath></defs><title>assets</title><rect class="cls-2" y="0.9" width="56" height="56" rx="13.07"/><g class="cls-3"><path class="cls-4" d="M56.58,25.48l.26-.68h0l.72-1.94A18,18,0,0,0,57.21,10c-2-4.51-6-7.92-12-10.14S34-2.46,29.54-.37a18,18,0,0,0-8.72,9.51l-1,2.62a10.17,10.17,0,0,0-12,6.33L7.47,19.2a10.18,10.18,0,0,0,4.89,12.62l-.22.58a1.88,1.88,0,0,0,1.1,2.42,1.9,1.9,0,0,0,2.43-1.11l.37-1a3.07,3.07,0,0,0,2.16-1.91l5.4-14.46a3,3,0,0,0-.39-2.85l1.14-3.06,0,0A14.29,14.29,0,0,1,31.17,3c3.52-1.63,7.8-1.52,12.75.33s8.25,4.57,9.83,8.1a14.39,14.39,0,0,1,.31,10l-1.19,3.17a3.05,3.05,0,0,0-2.16,1.9L45.15,41.45a3.06,3.06,0,0,0,.39,2.86l-.09.24,0,0A14.29,14.29,0,0,1,38.63,52a14.17,14.17,0,0,1-8.83.8,3.45,3.45,0,0,0-2.13-2.35l-2.33-.87a3.45,3.45,0,0,0-4.45,2l-.15.37a3.47,3.47,0,0,0,2,4.45l2.33.88a3.49,3.49,0,0,0,3.72-.86,17.88,17.88,0,0,0,11.43-1.06,18,18,0,0,0,8.55-9.07l0-.08.11-.28v0l.1-.28.2,0a10.18,10.18,0,0,0,11.8-6.36l.42-1.11A10.19,10.19,0,0,0,56.58,25.48Z"/><rect class="cls-5" x="10.77" y="7.82" width="6.48" height="21.56" rx="2.83" transform="translate(7.39 -3.73) rotate(20.47)"/><path class="cls-6" d="M12.88,5.92h1.48a0,0,0,0,1,0,0V27.48a0,0,0,0,1,0,0H12.88a9.4,9.4,0,0,1-9.4-9.4V15.32a9.4,9.4,0,0,1,9.4-9.4Z" transform="translate(6.4 -2.07) rotate(20.47)"/><rect class="cls-5" x="43.88" y="20.29" width="6.48" height="22.02" rx="2.83" transform="translate(80.32 77.09) rotate(-159.53)"/><path class="cls-6" d="M56.29,22.13h1.48a0,0,0,0,1,0,0V43.68a0,0,0,0,1,0,0H56.29a9.4,9.4,0,0,1-9.4-9.4V31.53a9.4,9.4,0,0,1,9.4-9.4Z" transform="translate(89.84 82.03) rotate(-159.53)"/><rect class="cls-7" x="45.35" y="17.8" width="3.76" height="26.41" rx="1.64" transform="translate(80.64 76.57) rotate(-159.53)"/><path class="cls-7" d="M53.37,6.12c-2-4.51-6-7.93-12-10.15s-11.23-2.28-15.7-.18A17.92,17.92,0,0,0,17,5.29l-2.83,7.58h0L8.29,28.55A1.89,1.89,0,0,0,9.4,31h0a1.88,1.88,0,0,0,2.42-1.1l5.85-15.68h0L20.51,6.6v0A14.35,14.35,0,0,1,27.33-.82c3.51-1.63,7.8-1.53,12.74.32s8.25,4.57,9.84,8.11a14.33,14.33,0,0,1,.3,10l-2.85,7.63,3.53,1.32L53.72,19A18,18,0,0,0,53.37,6.12Z"/><path class="cls-7" d="M41.6,40.7v0a14.35,14.35,0,0,1-6.81,7.39C31.27,49.76,27,49.65,22,47.8l-1.32,3.53c5.94,2.22,11.23,2.28,15.7.19A18,18,0,0,0,45.13,42L48,34.43l-3.53-1.32Z"/><rect class="cls-6" x="16.67" y="45.9" width="9.41" height="7.32" rx="3.19" transform="translate(18.69 -4.35) rotate(20.47)"/></g></svg>