<?xml version="1.0" encoding="utf-8"?>
<!-- Generator: Adobe Illustrator 19.0.0, SVG Export Plug-In . SVG Version: 6.00 Build 0)  -->
<svg version="1.1" id="Layer_1" xmlns="http://www.w3.org/2000/svg" xmlns:xlink="http://www.w3.org/1999/xlink" x="0px" y="0px"
	 viewBox="0 0 156.2 156.2" style="enable-background:new 0 0 156.2 156.2;" xml:space="preserve">
<style type="text/css">
	.st0{fill:#F2DB39;}
	.st1{fill:#D7A529;}
</style>
<rect id="XMLID_20_" x="1.7" y="1.7" class="st0" width="152.8" height="152.8"/>
<g id="XMLID_15_">
	<path id="XMLID_18_" class="st1" d="M43.2,57.4c-1.8-0.7-3.6-1.2-5.4-1.4v-2.1h1.1c1.2,0,2.2-1,2.2-2.2v-1.7c0-1.2-1-2.2-2.2-2.2
		h-8.3c-1.2,0-2.2,1-2.2,2.2v1.7c0,1.2,1,2.2,2.2,2.2h1.1v2c-2.3,0.3-4.5,0.9-6.7,1.8c-1.9,0.8-2.8,3-1.9,4.9c0.8,1.9,3,2.8,4.9,1.9
		c4-1.7,8.4-1.8,12.5-0.2c4.1,1.6,7.2,4.7,9,8.7c1.7,4,1.8,8.4,0.2,12.5c-1.6,4.1-4.7,7.2-8.7,9c-4,1.7-8.4,1.8-12.5,0.2
		c-3.1-1.2-5.7-3.3-7.5-6l0.7-0.3c1.5-0.6,1.7-2.6,0.4-3.6L14.4,79c-1.3-0.9-3.1-0.2-3.3,1.4L10,90c-0.2,1.6,1.4,2.8,2.9,2.1
		l1.2-0.5c2.7,4.5,6.7,8,11.6,9.9c2.8,1.1,5.8,1.7,8.8,1.7c3.2,0,6.4-0.7,9.4-2c5.8-2.5,10.3-7.2,12.7-13.1
		c2.3-5.9,2.2-12.4-0.3-18.2C53.8,64.2,49.1,59.7,43.2,57.4z"/>
	<path id="XMLID_17_" class="st1" d="M34.7,68.3v11.2h11.2C45.9,73.3,40.9,68.3,34.7,68.3z"/>
	<path id="XMLID_16_" class="st1" d="M58.3,58l-4.7-4c-0.9-0.8-2.3-0.7-3.1,0.2l-1.1,1.3c-0.8,0.9-0.7,2.3,0.2,3.1l4.7,4
		c0.9,0.8,2.3,0.7,3.1-0.2l1.1-1.3C59.4,60.2,59.3,58.8,58.3,58z"/>
</g>
</svg>
