<svg id="Layer_1" data-name="Layer 1" xmlns="http://www.w3.org/2000/svg" viewBox="0 0 73 73"><defs><style>.cls-1{fill:#630db5;}.cls-2{fill:#fff;}</style></defs><title>Untitled-1</title><path class="cls-1" d="M36.55,72.75h0A36.57,36.57,0,0,1,.09,36.3h0A36.57,36.57,0,0,1,36.55-.16h0A36.57,36.57,0,0,1,73,36.3h0A36.57,36.57,0,0,1,36.55,72.75Z"/><path class="cls-2" d="M55.06,51.66l-3.7-9a10.26,10.26,0,0,0-4.48-5.07l-3.12-1.36a11.21,11.21,0,0,0,3.84-6.85,10.5,10.5,0,0,0-3.14-9.4,11,11,0,1,0-15,16.16l-3.28,1.45a10.28,10.28,0,0,0-4.49,5.07l-3.7,9a3,3,0,0,0,2.78,4.16H52.29a3.07,3.07,0,0,0,3-3A2.66,2.66,0,0,0,55.06,51.66ZM31.77,26.44a5.09,5.09,0,1,1,2.37,5.73A5.09,5.09,0,0,1,31.77,26.44ZM25.25,49.85l2-5A4.33,4.33,0,0,1,29,42.8l7.39-3.22,7.67,3.23a4.36,4.36,0,0,1,1.77,2.07l2,5Z"/></svg>