<?xml version="1.0" encoding="utf-8"?>
<!-- Generator: Adobe Illustrator 24.1.3, SVG Export Plug-In . SVG Version: 6.00 Build 0)  -->
<svg version="1.1" id="Layer_1" xmlns="http://www.w3.org/2000/svg" xmlns:xlink="http://www.w3.org/1999/xlink" x="0px" y="0px"
	 viewBox="0 0 51.86 44.39" style="enable-background:new 0 0 51.86 44.39;" xml:space="preserve">
<style type="text/css">
	.st0{fill:#FFFFFF;}
</style>
<g>
	<path class="st0" d="M17.38,8.61C11.52,8.4,6.46,13.21,6.39,19.07c-0.02,1.91,0.45,3.7,1.31,5.25h0c0,0,2.22,4.61,8.7,10.89
		c0.33,0.32,0.87,0.32,1.2,0c6.48-6.27,8.7-10.89,8.7-10.89h0c0.84-1.52,1.31-3.26,1.31-5.11C27.61,13.48,23.06,8.81,17.38,8.61z
		 M17,23.4c-2.46,0-4.46-2-4.46-4.46s2-4.46,4.46-4.46c2.46,0,4.46,2,4.46,4.46S19.46,23.4,17,23.4z"/>
	<path class="st0" d="M49.31,14.85L30.64,8.29v14.12v12c0,0.57,0.47,1.04,1.04,1.04c0.57,0,1.04-0.47,1.04-1.04V21.68l16.59-5.83
		C49.78,15.69,49.78,15.02,49.31,14.85z"/>
</g>
</svg>
