<?xml version="1.0" encoding="utf-8"?>
<!-- Generator: Adobe Illustrator 24.1.3, SVG Export Plug-In . SVG Version: 6.00 Build 0)  -->
<svg version="1.1" id="Layer_1" xmlns="http://www.w3.org/2000/svg" xmlns:xlink="http://www.w3.org/1999/xlink" x="0px" y="0px"
	 viewBox="0 0 51.86 44.39" style="enable-background:new 0 0 51.86 44.39;" xml:space="preserve">
<style type="text/css">
	.st0{fill:#FFFFFF;}
</style>
<path id="XMLID_8731_" class="st0" d="M36.69,19.16c0-5.73-4.55-10.4-10.23-10.6c-5.86-0.21-10.91,4.6-10.99,10.46
	c-0.02,1.91,0.45,3.7,1.31,5.25h0c0,0,2.22,4.61,8.7,10.89c0.33,0.32,0.87,0.32,1.2,0c6.48-6.27,8.7-10.89,8.7-10.89h0
	C36.22,22.75,36.69,21.01,36.69,19.16z M26.08,23.35c-2.46,0-4.46-2-4.46-4.46s2-4.46,4.46-4.46c2.46,0,4.46,2,4.46,4.46
	S28.54,23.35,26.08,23.35z"/>
</svg>
