<svg xmlns="http://www.w3.org/2000/svg" xmlns:xlink="http://www.w3.org/1999/xlink" viewBox="0 0 287 287"><defs><style>.cls-1{fill:none;}.cls-2{isolation:isolate;}.cls-3{clip-path:url(#clip-path);}.cls-4{opacity:0.5;mix-blend-mode:multiply;}.cls-5{fill:#630db5;}.cls-6{fill:#fd0;}.cls-7{fill:#8c8c8c;}.cls-8{fill:#fff;}.cls-9{fill:#cecece;}</style><clipPath id="clip-path"><rect class="cls-1" x="-307" y="0.78" width="286.63" height="286.63"/></clipPath></defs><title>assets</title><g class="cls-2"><g id="Layer_1" data-name="Layer 1"><g class="cls-3"><g class="cls-4"><path class="cls-5" d="M67,107.87a168.8,168.8,0,0,1-38.86,37.72C0,165-30.49,171.94-62.64,166.4a44.93,44.93,0,0,0-17.09-21.88A45.23,45.23,0,0,0-90,139.34c-.54-.23-1-.39-1.56-.57-1.21-.4-2.57-.91-3.43-1.11h0l-7.56-2.46-4.08-1.3h0L-117,130.6a4.71,4.71,0,0,0-6,3.23l-1.51,5.71a10.68,10.68,0,0,0,.72,8.21,10.7,10.7,0,0,0,6.3,5.31l8.86,2.81h0L-95.74,160a23,23,0,0,1,4.07,2.21l0,0c1.45,16.1-19.87,36.1-24.54,40.28l-.8.5-21.66-6.51-8.85-2.86a10.75,10.75,0,0,0-8.22.68,10.76,10.76,0,0,0-5.34,6.27l-2.08,5.53a4.68,4.68,0,0,0,3,6.09l1.55.5,5.48,1.76,1.94.62.67.22v0l4.75,1.52,4.65,1.38-15.65,9.85-8.64,5.63a11.85,11.85,0,0,0-5.13,7.55,11.86,11.86,0,0,0,1.68,9l3.34,5.64a5.18,5.18,0,0,0,7.31,1.7l4.74-3.12a11.6,11.6,0,0,0,2.25,3.15l4.41,4.84a5.18,5.18,0,0,0,7.5.17l11.83-11.88,7.11-7.11,0,.08a9.72,9.72,0,0,0-1,7.41,9.74,9.74,0,0,0,4.5,6l4.49,2.93a4.24,4.24,0,0,0,6-1.41l6.94-11.84,7.58-12.89h0c.52-.94,1.08-1.92,1.66-2.92.08-.14,2.39-3.83,5.43-8.68a44.6,44.6,0,0,0,7-4.32c1,.21,2,.44,3,.63a178.53,178.53,0,0,0,33.36,3.19c35.85,0,70.37-11.24,101.82-33.45,4-2.83,7.82-5.74,11.41-8.66a91.58,91.58,0,0,0,5.12-30.26A91.37,91.37,0,0,0,67,107.87Z"/></g><path class="cls-6" d="M67,88a168.82,168.82,0,0,1-38.86,37.71c-31.78,21.89-66.5,27.95-103.29,18.05,4.11,10.6,1.89,22.45-4,32.11a21.24,21.24,0,0,1-8.18,10.48,37.87,37.87,0,0,1-3.19,2.7,4.51,4.51,0,0,1-4.37.3l-1.24,4a197.72,197.72,0,0,0,21.3,5.3,178.53,178.53,0,0,0,33.36,3.19c35.85,0,70.37-11.24,101.82-33.44q6-4.26,11.41-8.67a91.53,91.53,0,0,0,5.12-30.26A91.29,91.29,0,0,0,67,88Z"/></g><rect class="cls-7" x="-0.12" y="0.05" width="286.95" height="286.95"/><g class="cls-4"><path class="cls-7" d="M192.71,89.78a54.38,54.38,0,0,0-3-9.66L129.43,88a56.84,56.84,0,0,0-.31,10.1c.22,4.19.54,8.41,1.1,12.65.42,3.25,1.05,7.06,1.95,11.42a77.68,77.68,0,0,0,3.15,10.77l10.34-1.36.74,5.67a3.18,3.18,0,0,0,5.68,1.52l6.86-8.92,36.57-4.79a71.11,71.11,0,0,0,.56-11.25c-.25-4.44-.66-8.28-1.08-11.53C194.43,98,193.58,93.89,192.71,89.78Z"/><path class="cls-7" d="M210.08,152.54a88.26,88.26,0,0,0-5-15.72l-98.05,12.82a91.69,91.69,0,0,0-.49,16.44c.35,6.83.87,13.7,1.78,20.59.69,5.3,1.72,11.5,3.18,18.59a124,124,0,0,0,5.12,17.52l16.84-2.2,1.2,9.22a5.18,5.18,0,0,0,9.24,2.48l11.17-14.53L214.63,210c.43-4.91,1.32-11.09.91-18.31s-1.07-13.48-1.76-18.78C212.88,166,211.49,159.23,210.08,152.54Z"/></g><path class="cls-8" d="M173,93.75a19.75,19.75,0,0,0-.43-3q.24-1.47.42-2.94a60.93,60.93,0,0,0,.5-8.85c-.07-4.06.27-10.62-3.87-13-3.15-1.82-6.76-.18-8.95,2.33A4.47,4.47,0,0,0,157.08,73a28.33,28.33,0,0,0,.56,5.09c0,1.91,0,3.81.06,5.62,0,4.52-1.06,11,1.38,15.08a7.58,7.58,0,0,0,9.79,3.1,8.69,8.69,0,0,0,3.08-.76C175.45,99.6,175.07,95.93,173,93.75Z"/><path class="cls-8" d="M177.09,164.85c-.45-4.41-1.08-8.82-1.93-13.18-1.09-5.57-2.07-12.35-4.84-17.38-4.53-8.22-20.35-6.44-20.4,3.93a36.84,36.84,0,0,0,.28,4.53,4.47,4.47,0,0,0,.69,4.33c.61,3.27,1.37,6.54,1.86,9.64.46,2.86.91,5.71,1.37,8.57l-1,1.11a5.07,5.07,0,0,0,2.55,8.41l.15.89c-.29.22-.57.44-.83.67-2.62,2.3-1.49,7.84,2.21,8.36l.16,0c.78,2.23,2.15,4,4.79,4.57,4.55.93,9.6-2.64,12.39-5.88a4.83,4.83,0,0,0-.51-7.26,17.27,17.27,0,0,0,4.65-4.55C180.07,169.52,179.12,166.32,177.09,164.85Z"/><rect class="cls-8" x="95.5" y="97.57" width="28.91" height="13.38" rx="5.66" transform="translate(-12.59 15.14) rotate(-7.45)"/><rect class="cls-8" x="77.3" y="75.45" width="44.15" height="13.38" rx="5.66" transform="translate(-9.81 13.58) rotate(-7.45)"/><path class="cls-9" d="M195.06,69.78a55.23,55.23,0,0,0-3-9.66L131.77,68a57,57,0,0,0-.3,10.1c.22,4.19.54,8.41,1.09,12.65.43,3.25,1.06,7.06,2,11.42a77.68,77.68,0,0,0,3.15,10.77L148,111.58l.74,5.67a3.18,3.18,0,0,0,5.68,1.52l6.86-8.92,36.57-4.79a72.33,72.33,0,0,0,.56-11.25c-.25-4.44-.66-8.28-1.08-11.53C196.78,78,195.93,73.89,195.06,69.78Zm-28.2,31.37a4.11,4.11,0,1,1,3.55-4.61A4.11,4.11,0,0,1,166.86,101.15ZM169,85.51a4.11,4.11,0,1,1-8.15,1.07l-1.39-10.69a4.11,4.11,0,1,1,8.15-1.07Z"/><rect class="cls-8" x="43.56" y="165.54" width="57.83" height="13.38" rx="5.66" transform="translate(-21.72 10.85) rotate(-7.45)"/><rect class="cls-8" x="54.16" y="141.54" width="44.15" height="13.38" rx="5.66" transform="translate(-18.58 11.14) rotate(-7.45)"/><rect class="cls-8" x="73.13" y="185.09" width="30.92" height="13.38" rx="5.66" transform="translate(-24.12 13.11) rotate(-7.45)"/><path class="cls-9" d="M212.42,132.54a87.55,87.55,0,0,0-4.95-15.72l-98,12.82a91.69,91.69,0,0,0-.49,16.44c.35,6.83.87,13.7,1.77,20.59.7,5.3,1.73,11.5,3.19,18.59A124,124,0,0,0,119,202.78l16.84-2.2,1.2,9.22a5.18,5.18,0,0,0,9.24,2.48l11.17-14.53L217,190c.43-4.91,1.31-11.09.91-18.31s-1.07-13.48-1.76-18.78C215.23,146,213.84,139.23,212.42,132.54ZM166.53,183.6a6.69,6.69,0,1,1,5.77-7.5A6.71,6.71,0,0,1,166.53,183.6ZM170,158.14a6.69,6.69,0,0,1-13.27,1.74l-2.27-17.4a6.69,6.69,0,1,1,13.27-1.73Z"/></g></g></svg>